<svg id="Layer_1" data-name="Layer 1" xmlns="http://www.w3.org/2000/svg" xmlns:xlink="http://www.w3.org/1999/xlink" viewBox="0 0 24.74 55.09"><defs><style>.cls-1{fill:#282c36;}.cls-2{fill:url(#linear-gradient);}</style><linearGradient id="linear-gradient" x1="12.37" x2="12.37" y2="55.09" gradientUnits="userSpaceOnUse"><stop offset="0" stop-color="#2af39a"/><stop offset="1" stop-color="#0ab4e3"/></linearGradient></defs><title>music_game</title><rect class="cls-1" x="1.89" y="1.5" width="20.96" height="52.09"/><path class="cls-2" d="M21.24,55.09H3.5A3.5,3.5,0,0,1,0,51.59V3.5A3.5,3.5,0,0,1,3.5,0H21.24a3.5,3.5,0,0,1,3.5,3.5V51.59A3.5,3.5,0,0,1,21.24,55.09ZM3.5,3a.5.5,0,0,0-.5.5V51.59a.5.5,0,0,0,.5.5H21.24a.5.5,0,0,0,.5-.5V3.5a.5.5,0,0,0-.5-.5Z"/></svg>