<svg id="Layer_1" data-name="Layer 1" xmlns="http://www.w3.org/2000/svg" xmlns:xlink="http://www.w3.org/1999/xlink" viewBox="0 0 23.74 54.09"><defs><style>.cls-1{fill:#282c36;}.cls-2{fill:url(#linear-gradient);}</style><linearGradient id="linear-gradient" x1="11.87" x2="11.87" y2="54.09" gradientUnits="userSpaceOnUse"><stop offset="0" stop-color="#2af39a"/><stop offset="1" stop-color="#0ab4e3"/></linearGradient></defs><title>music_game</title><rect class="cls-1" x="1.39" y="1" width="20.96" height="52.09"/><path class="cls-2" d="M20.74,54.09H3a3,3,0,0,1-3-3V3A3,3,0,0,1,3,0H20.74a3,3,0,0,1,3,3V51.09A3,3,0,0,1,20.74,54.09ZM3,2A1,1,0,0,0,2,3V51.09a1,1,0,0,0,1,1H20.74a1,1,0,0,0,1-1V3a1,1,0,0,0-1-1Z"/></svg>