<svg id="Layer_1" data-name="Layer 1" xmlns="http://www.w3.org/2000/svg" xmlns:xlink="http://www.w3.org/1999/xlink" viewBox="0 0 23.74 54.09"><defs><style>.cls-1{fill:none;}.cls-2{clip-path:url(#clip-path);}.cls-3{fill:#2af39a;}.cls-4{fill:#2af29b;}.cls-5{fill:#29f19c;}.cls-6{fill:#29f09d;}.cls-7{fill:#28f09e;}.cls-8{fill:#28ef9f;}.cls-9{fill:#27eea0;}.cls-10{fill:#27eda1;}.cls-11{fill:#26eca2;}.cls-12{fill:#26eba3;}.cls-13{fill:#26eaa4;}.cls-14{fill:#25e9a5;}.cls-15{fill:#25e9a6;}.cls-16{fill:#24e8a7;}.cls-17{fill:#24e7a8;}.cls-18{fill:#23e6a9;}.cls-19{fill:#23e5aa;}.cls-20{fill:#22e4ab;}.cls-21{fill:#22e3ac;}.cls-22{fill:#22e2ad;}.cls-23{fill:#21e2ae;}.cls-24{fill:#21e1af;}.cls-25{fill:#20e0b0;}.cls-26{fill:#20dfb1;}.cls-27{fill:#1fdeb2;}.cls-28{fill:#1fddb3;}.cls-29{fill:#1edcb4;}.cls-30{fill:#1edbb5;}.cls-31{fill:#1edbb6;}.cls-32{fill:#1ddab7;}.cls-33{fill:#1dd9b8;}.cls-34{fill:#1cd8b9;}.cls-35{fill:#1cd7ba;}.cls-36{fill:#1bd6bb;}.cls-37{fill:#1bd5bc;}.cls-38{fill:#1ad4bd;}.cls-39{fill:#1ad4bf;}.cls-40{fill:#1ad3c0;}.cls-41{fill:#19d2c1;}.cls-42{fill:#19d1c2;}.cls-43{fill:#18d0c3;}.cls-44{fill:#18cfc4;}.cls-45{fill:#17cec5;}.cls-46{fill:#17cdc6;}.cls-47{fill:#16cdc7;}.cls-48{fill:#16ccc8;}.cls-49{fill:#16cbc9;}.cls-50{fill:#15caca;}.cls-51{fill:#15c9cb;}.cls-52{fill:#14c8cc;}.cls-53{fill:#14c7cd;}.cls-54{fill:#13c6ce;}.cls-55{fill:#13c6cf;}.cls-56{fill:#12c5d0;}.cls-57{fill:#12c4d1;}.cls-58{fill:#12c3d2;}.cls-59{fill:#11c2d3;}.cls-60{fill:#11c1d4;}.cls-61{fill:#10c0d5;}.cls-62{fill:#10bfd6;}.cls-63{fill:#0fbfd7;}.cls-64{fill:#0fbed8;}.cls-65{fill:#0ebdd9;}.cls-66{fill:#0ebcda;}.cls-67{fill:#0ebbdb;}.cls-68{fill:#0dbadc;}.cls-69{fill:#0db9dd;}.cls-70{fill:#0cb8de;}.cls-71{fill:#0cb8df;}.cls-72{fill:#0bb7e0;}.cls-73{fill:#0bb6e1;}.cls-74{fill:#0ab5e2;}.cls-75{fill:#0ab4e3;}.cls-76{fill:url(#linear-gradient);}</style><clipPath id="clip-path"><rect class="cls-1" x="1" y="1" width="21.74" height="52.09" rx="2" ry="2"/></clipPath><linearGradient id="linear-gradient" x1="11.87" x2="11.87" y2="54.09" gradientUnits="userSpaceOnUse"><stop offset="0" stop-color="#2af39a"/><stop offset="1" stop-color="#0ab4e3"/></linearGradient></defs><title>music_game</title><g class="cls-2"><rect class="cls-3" x="1" y="1" width="21.74"/><rect class="cls-3" x="1" y="1" width="21.74" height="0.71"/><rect class="cls-4" x="1" y="1.71" width="21.74" height="0.71"/><rect class="cls-5" x="1" y="2.43" width="21.74" height="0.71"/><rect class="cls-6" x="1" y="3.14" width="21.74" height="0.71"/><rect class="cls-7" x="1" y="3.85" width="21.74" height="0.71"/><rect class="cls-8" x="1" y="4.57" width="21.74" height="0.71"/><rect class="cls-9" x="1" y="5.28" width="21.74" height="0.71"/><rect class="cls-10" x="1" y="5.99" width="21.74" height="0.71"/><rect class="cls-11" x="1" y="6.71" width="21.74" height="0.71"/><rect class="cls-12" x="1" y="7.42" width="21.74" height="0.71"/><rect class="cls-13" x="1" y="8.14" width="21.74" height="0.71"/><rect class="cls-14" x="1" y="8.85" width="21.74" height="0.71"/><rect class="cls-15" x="1" y="9.56" width="21.74" height="0.71"/><rect class="cls-16" x="1" y="10.28" width="21.74" height="0.71"/><rect class="cls-17" x="1" y="10.99" width="21.74" height="0.71"/><rect class="cls-18" x="1" y="11.7" width="21.74" height="0.71"/><rect class="cls-19" x="1" y="12.42" width="21.74" height="0.71"/><rect class="cls-20" x="1" y="13.13" width="21.74" height="0.71"/><rect class="cls-21" x="1" y="13.84" width="21.74" height="0.71"/><rect class="cls-22" x="1" y="14.56" width="21.74" height="0.71"/><rect class="cls-23" x="1" y="15.27" width="21.74" height="0.71"/><rect class="cls-24" x="1" y="15.98" width="21.74" height="0.71"/><rect class="cls-25" x="1" y="16.7" width="21.74" height="0.71"/><rect class="cls-26" x="1" y="17.41" width="21.74" height="0.71"/><rect class="cls-27" x="1" y="18.12" width="21.74" height="0.71"/><rect class="cls-28" x="1" y="18.84" width="21.74" height="0.71"/><rect class="cls-29" x="1" y="19.55" width="21.74" height="0.71"/><rect class="cls-30" x="1" y="20.26" width="21.74" height="0.71"/><rect class="cls-31" x="1" y="20.98" width="21.74" height="0.71"/><rect class="cls-32" x="1" y="21.69" width="21.74" height="0.71"/><rect class="cls-33" x="1" y="22.4" width="21.74" height="0.71"/><rect class="cls-34" x="1" y="23.12" width="21.74" height="0.71"/><rect class="cls-35" x="1" y="23.83" width="21.74" height="0.71"/><rect class="cls-36" x="1" y="24.55" width="21.74" height="0.71"/><rect class="cls-37" x="1" y="25.26" width="21.74" height="0.71"/><rect class="cls-38" x="1" y="25.97" width="21.74" height="0.71"/><rect class="cls-39" x="1" y="26.69" width="21.74" height="0.71"/><rect class="cls-40" x="1" y="27.4" width="21.74" height="0.71"/><rect class="cls-41" x="1" y="28.11" width="21.74" height="0.71"/><rect class="cls-42" x="1" y="28.83" width="21.74" height="0.71"/><rect class="cls-43" x="1" y="29.54" width="21.74" height="0.71"/><rect class="cls-44" x="1" y="30.25" width="21.74" height="0.71"/><rect class="cls-45" x="1" y="30.97" width="21.74" height="0.71"/><rect class="cls-46" x="1" y="31.68" width="21.74" height="0.71"/><rect class="cls-47" x="1" y="32.39" width="21.74" height="0.71"/><rect class="cls-48" x="1" y="33.11" width="21.74" height="0.71"/><rect class="cls-49" x="1" y="33.82" width="21.74" height="0.71"/><rect class="cls-50" x="1" y="34.53" width="21.74" height="0.71"/><rect class="cls-51" x="1" y="35.25" width="21.74" height="0.71"/><rect class="cls-52" x="1" y="35.96" width="21.74" height="0.71"/><rect class="cls-53" x="1" y="36.67" width="21.74" height="0.71"/><rect class="cls-54" x="1" y="37.39" width="21.74" height="0.71"/><rect class="cls-55" x="1" y="38.1" width="21.74" height="0.71"/><rect class="cls-56" x="1" y="38.82" width="21.74" height="0.71"/><rect class="cls-57" x="1" y="39.53" width="21.74" height="0.71"/><rect class="cls-58" x="1" y="40.24" width="21.74" height="0.71"/><rect class="cls-59" x="1" y="40.96" width="21.74" height="0.71"/><rect class="cls-60" x="1" y="41.67" width="21.74" height="0.71"/><rect class="cls-61" x="1" y="42.38" width="21.74" height="0.71"/><rect class="cls-62" x="1" y="43.1" width="21.74" height="0.71"/><rect class="cls-63" x="1" y="43.81" width="21.74" height="0.71"/><rect class="cls-64" x="1" y="44.52" width="21.74" height="0.71"/><rect class="cls-65" x="1" y="45.24" width="21.74" height="0.71"/><rect class="cls-66" x="1" y="45.95" width="21.74" height="0.71"/><rect class="cls-67" x="1" y="46.66" width="21.74" height="0.71"/><rect class="cls-68" x="1" y="47.38" width="21.74" height="0.71"/><rect class="cls-69" x="1" y="48.09" width="21.74" height="0.71"/><rect class="cls-70" x="1" y="48.8" width="21.74" height="0.71"/><rect class="cls-71" x="1" y="49.52" width="21.74" height="0.71"/><rect class="cls-72" x="1" y="50.23" width="21.74" height="0.71"/><rect class="cls-73" x="1" y="50.94" width="21.74" height="0.71"/><rect class="cls-74" x="1" y="51.66" width="21.74" height="0.71"/><rect class="cls-75" x="1" y="52.37" width="21.74" height="0.71"/></g><path class="cls-76" d="M20.74,54.09H3a3,3,0,0,1-3-3V3A3,3,0,0,1,3,0H20.74a3,3,0,0,1,3,3V51.09A3,3,0,0,1,20.74,54.09ZM3,2A1,1,0,0,0,2,3V51.09a1,1,0,0,0,1,1H20.74a1,1,0,0,0,1-1V3a1,1,0,0,0-1-1Z"/></svg>