<svg id="Layer_1" data-name="Layer 1" xmlns="http://www.w3.org/2000/svg" viewBox="0 0 135 219"><defs><style>.cls-1{opacity:0.5;}.cls-2{fill:#fff;}.cls-3{fill:#495767;}</style></defs><title>music_game</title><g class="cls-1"><path class="cls-2" d="M6.66,149.08C8.18,142.5,2.71,136.53.89,130c-2-7,.45-14.46,3.47-21.08S11.12,95.83,12,88.61C13.25,78,8.24,67.87,6,57.46,4.66,51.15,4.53,43.95,8.58,38.92c3-3.76,7.78-5.56,12.08-7.77a57.5,57.5,0,0,0,14.87-11c3.3-3.39,6.2-7.21,9.94-10.12a43.82,43.82,0,0,1,19.2-8.18c51.52-9.24,62.71,29.41,64.26,33.92,4.65,13.55,7.21,28.09,5.2,42.28-1.06,7.52-3.38,14.79-5.74,22-6.56,20.09-14,40.81-29,55.66-6.61,6.54-23.54,29.8-27.8,42a36.64,36.64,0,0,1-6,10.41c-6.37,8.11-17.68,10.42-28,10.41-11.17,0-42.09-9.22-33.94-58.67C4.24,156.42,5.86,152.52,6.66,149.08Z"/><path class="cls-3" d="M31.84,134.24c-2.14,4.75-5.9,8.73-6.67,14.07a9.26,9.26,0,0,0,1.08,6c2.88,4.92,8.63,3.8,11.77.62,2.28-2.31,3.45-5.48,4.34-8.6A8.34,8.34,0,0,1,43.8,143c1.22-1.42,3.25-1.77,5.09-2.13,10.63-2.07,20.75-7.5,27.58-15.91,7.87-9.69,10.87-22.61,10.74-35.1-.11-10.49-2.24-20.82-4.68-31a4.28,4.28,0,0,1,5.31-5.14,23.15,23.15,0,0,1,12.7,10.13c4.06,6.68,5.08,14.8,4.79,22.62-1,26.16-15.47,50-32.6,69.76,16.71-9.35,28-26.46,34.08-44.61a115.26,115.26,0,0,0,5.88-41.35c-.57-13.81-4.58-28.9-16.15-36.45C88.61,28.63,78.59,28,69.14,28.51,61.07,29,52.74,30.26,46,34.68a14.44,14.44,0,0,0-4.67,4.53,15.54,15.54,0,0,0-1.54,4A89.82,89.82,0,0,0,37,60.65c-.24,3.86-.29,7.83.86,11.53a37,37,0,0,0,4.67,8.9c7.2,11.13,15.55,23.16,29,25.42a6.44,6.44,0,0,1,4.26,2.59c2.86,4.14-1.52,7.7-5.45,8.63-7,1.64-14.4-.53-20.46-4.34a55.86,55.86,0,0,1-8.68-6.93c-1.93-1.83-4.15-5.47-6.86-5.93a.36.36,0,0,0-.39.23c-1.77,4.65.06,12,.22,16.91C34.38,123.3,34.18,129,31.84,134.24Z"/></g></svg>