<svg id="Layer_1" data-name="Layer 1" xmlns="http://www.w3.org/2000/svg" xmlns:xlink="http://www.w3.org/1999/xlink" viewBox="0 0 1440 140"><defs><style>.cls-1{fill:url(#linear-gradient);}</style><linearGradient id="linear-gradient" x1="1" y1="70" x2="1438.93" y2="70" gradientUnits="userSpaceOnUse"><stop offset="0" stop-color="#ecf370"/><stop offset="0.33" stop-color="#2af39a"/><stop offset="0.68" stop-color="#0ab4e3"/><stop offset="0.73" stop-color="#29a4d4"/><stop offset="0.86" stop-color="#7a79ad"/><stop offset="0.95" stop-color="#ac5e94"/><stop offset="1" stop-color="#c0548b"/></linearGradient></defs><title>Untitled-2</title><rect class="cls-1" x="1" y="1" width="34" height="138"/><rect class="cls-1" x="37" y="1" width="34" height="138"/><rect class="cls-1" x="73" y="1" width="34" height="138"/><rect class="cls-1" x="109" y="1" width="34" height="138"/><rect class="cls-1" x="145" y="1" width="34" height="138"/><rect class="cls-1" x="181" y="1" width="34" height="138"/><rect class="cls-1" x="217" y="1" width="34" height="138"/><rect class="cls-1" x="253" y="1" width="34" height="138"/><rect class="cls-1" x="289" y="1" width="34" height="138"/><rect class="cls-1" x="325" y="1" width="34" height="138"/><rect class="cls-1" x="361" y="1" width="34" height="138"/><rect class="cls-1" x="397" y="1" width="34" height="138"/><rect class="cls-1" x="433" y="1" width="34" height="138"/><rect class="cls-1" x="469" y="1" width="34" height="138"/><rect class="cls-1" x="505" y="1" width="34" height="138"/><rect class="cls-1" x="541" y="1" width="34" height="138"/><rect class="cls-1" x="577" y="1" width="34" height="138"/><rect class="cls-1" x="613" y="1" width="34" height="138"/><rect class="cls-1" x="649" y="1" width="34" height="138"/><polygon class="cls-1" points="719 1 685 1 685 139 719 139 719 65 719 63 719 1"/><polygon class="cls-1" points="721 63 721 65 721 139 755 139 755 1 721 1 721 63"/><rect class="cls-1" x="757" y="1" width="34" height="138"/><rect class="cls-1" x="793" y="1" width="34" height="138"/><rect class="cls-1" x="829" y="1" width="34" height="138"/><rect class="cls-1" x="865" y="1" width="34" height="138"/><rect class="cls-1" x="901" y="1" width="34" height="138"/><rect class="cls-1" x="937" y="1" width="34" height="138"/><rect class="cls-1" x="973" y="1" width="34" height="138"/><rect class="cls-1" x="1009" y="1" width="34" height="138"/><rect class="cls-1" x="1045" y="1" width="34" height="138"/><rect class="cls-1" x="1081" y="1" width="34" height="138"/><rect class="cls-1" x="1117" y="1" width="34" height="138"/><rect class="cls-1" x="1153" y="1" width="34" height="138"/><rect class="cls-1" x="1189" y="1" width="34" height="138"/><rect class="cls-1" x="1225" y="1" width="34" height="138"/><rect class="cls-1" x="1261" y="1" width="34" height="138"/><rect class="cls-1" x="1297" y="1" width="34" height="138"/><rect class="cls-1" x="1333" y="1" width="34" height="138"/><rect class="cls-1" x="1369" y="1" width="34" height="138"/><rect class="cls-1" x="1405" y="1" width="33.93" height="138"/></svg>