<svg id="Layer_1" data-name="Layer 1" xmlns="http://www.w3.org/2000/svg" xmlns:xlink="http://www.w3.org/1999/xlink" viewBox="0 0 1417 1013"><defs><style>.cls-1{fill:url(#linear-gradient);}.cls-2{fill:#282c36;}.cls-20,.cls-21,.cls-3{opacity:0.7;}.cls-20,.cls-4{fill:#3e4c59;}.cls-5{fill:url(#linear-gradient-2);}.cls-21,.cls-6{fill:#495767;}.cls-7{opacity:0.8;}.cls-8{fill:url(#linear-gradient-3);}.cls-9{fill:url(#linear-gradient-4);}.cls-10,.cls-12,.cls-15,.cls-17{opacity:0.4;}.cls-10,.cls-12,.cls-15,.cls-17,.cls-20,.cls-21{isolation:isolate;}.cls-10{fill:url(#linear-gradient-5);}.cls-11{fill:url(#linear-gradient-6);}.cls-12{fill:url(#linear-gradient-7);}.cls-13{fill:url(#linear-gradient-8);}.cls-14{fill:url(#linear-gradient-9);}.cls-15{fill:url(#linear-gradient-10);}.cls-16{fill:url(#linear-gradient-11);}.cls-17{fill:url(#linear-gradient-12);}.cls-18{fill:url(#linear-gradient-13);}.cls-19{fill:none;stroke:#3e4c59;stroke-miterlimit:10;stroke-width:2.25px;}</style><linearGradient id="linear-gradient" x1="708.5" y1="-0.91" x2="708.5" y2="1012.09" gradientTransform="matrix(1, 0, 0, -1, 0, 1012.09)" gradientUnits="userSpaceOnUse"><stop offset="0" stop-color="#434854"/><stop offset="1" stop-color="#282c36"/></linearGradient><linearGradient id="linear-gradient-2" x1="145.73" y1="431.78" x2="176.08" y2="431.78" gradientTransform="matrix(1, 0, 0, -1, 0, 1012.09)" gradientUnits="userSpaceOnUse"><stop offset="0" stop-color="#495767"/><stop offset="1" stop-color="#495767"/></linearGradient><linearGradient id="linear-gradient-3" x1="206.48" y1="936.74" x2="206.48" y2="884.65" xlink:href="#linear-gradient"/><linearGradient id="linear-gradient-4" x1="206.48" y1="864.26" x2="206.48" y2="812.17" xlink:href="#linear-gradient"/><linearGradient id="linear-gradient-5" x1="206.48" y1="646.82" x2="206.48" y2="594.73" xlink:href="#linear-gradient"/><linearGradient id="linear-gradient-6" x1="206.48" y1="791.78" x2="206.48" y2="739.69" xlink:href="#linear-gradient"/><linearGradient id="linear-gradient-7" x1="206.48" y1="719.3" x2="206.48" y2="667.21" xlink:href="#linear-gradient"/><linearGradient id="linear-gradient-8" x1="1213.68" y1="936.74" x2="1213.68" y2="884.65" xlink:href="#linear-gradient"/><linearGradient id="linear-gradient-9" x1="1213.68" y1="864.26" x2="1213.68" y2="812.17" xlink:href="#linear-gradient"/><linearGradient id="linear-gradient-10" x1="1213.68" y1="646.82" x2="1213.68" y2="594.73" xlink:href="#linear-gradient"/><linearGradient id="linear-gradient-11" x1="1213.68" y1="791.78" x2="1213.68" y2="739.69" xlink:href="#linear-gradient"/><linearGradient id="linear-gradient-12" x1="1213.68" y1="719.3" x2="1213.68" y2="667.21" xlink:href="#linear-gradient"/><linearGradient id="linear-gradient-13" x1="709.25" y1="936.8" x2="709.25" y2="588.44" xlink:href="#linear-gradient"/></defs><title>fon</title><rect class="cls-1" width="1417" height="1013" rx="2" ry="2"/><rect class="cls-2" x="31.34" y="0.44" width="1356" height="988" rx="2" ry="2"/><g class="cls-3"><rect class="cls-4" x="127.57" y="569.86" width="150.43" height="20.91" rx="1.69" ry="1.69"/><rect class="cls-4" x="127.56" y="664.86" width="150.43" height="20.91" rx="1.69" ry="1.69"/><rect class="cls-4" x="127.56" y="759.37" width="150.43" height="20.91" rx="1.69" ry="1.69"/><rect class="cls-5" x="145.73" y="559.28" width="30.35" height="42.07" rx="1.65" ry="1.65"/><rect class="cls-6" x="145.73" y="748.75" width="30.35" height="42.07" rx="1.65" ry="1.65"/><rect class="cls-6" x="230.88" y="654.33" width="30.35" height="42.07" rx="1.65" ry="1.65"/></g><g class="cls-7"><rect class="cls-8" x="195.61" y="75.35" width="21.74" height="52.09" rx="2" ry="2"/><rect class="cls-9" x="195.61" y="147.83" width="21.74" height="52.09" rx="2" ry="2"/><rect class="cls-10" x="195.61" y="365.27" width="21.74" height="52.09" rx="2" ry="2"/><rect class="cls-11" x="195.61" y="220.31" width="21.74" height="52.09" rx="2" ry="2"/><rect class="cls-12" x="195.61" y="292.79" width="21.74" height="52.09" rx="2" ry="2"/></g><g class="cls-7"><rect class="cls-13" x="1202.81" y="75.35" width="21.74" height="52.09" rx="2" ry="2"/><rect class="cls-14" x="1202.81" y="147.83" width="21.74" height="52.09" rx="2" ry="2"/><rect class="cls-15" x="1202.81" y="365.27" width="21.74" height="52.09" rx="2" ry="2"/><rect class="cls-16" x="1202.81" y="220.31" width="21.74" height="52.09" rx="2" ry="2"/><rect class="cls-17" x="1202.81" y="292.79" width="21.74" height="52.09" rx="2" ry="2"/></g><rect class="cls-18" x="364.25" y="75.29" width="690" height="348.36" rx="2.09" ry="2.09"/><rect class="cls-2" x="379.88" y="89.94" width="658" height="314" rx="2" ry="2"/><path class="cls-4" d="M1177,948.66h-3.78l-.54-12.33-.09-2.71.06-1.55h-.09a35.8,35.8,0,0,1-1.71,4.26l-5.64,12.33h-3.75l-.78-21.41H1164l.28,12.45q0,2-.19,5.07h.09q1.22-3.24,2.08-5.2l5.67-12.32h3.3l.45,12.29v5.23h.12q.41-1.29,1-2.89t.89-2.23l5.24-12.39h3.6Z"/><path class="cls-4" d="M1188.07,948.66h-3.46l3.46-16.2h3.44Zm.69-20.18a2.27,2.27,0,0,1,.57-1.61,2.09,2.09,0,0,1,1.61-.62,2,2,0,0,1,1.26.39,1.42,1.42,0,0,1,.48,1.18,2.25,2.25,0,0,1-.59,1.64,2,2,0,0,1-1.54.6,2.1,2.1,0,0,1-1.29-.38,1.4,1.4,0,0,1-.5-1.2Z"/><path class="cls-4" d="M1205.16,932.46h4l-7.07,7.1,4.26,9.09h-3.84l-3.06-6.9-2,1.41-1.13,5.49h-3.46l4.83-22.79h3.44q-2,9.18-2.34,10.68t-.87,3.32h.06Z"/><path class="cls-4" d="M1212.15,948.66h-3.46l3.46-16.2h3.44Zm.69-20.18a2.27,2.27,0,0,1,.57-1.61,2.09,2.09,0,0,1,1.61-.62,2,2,0,0,1,1.26.39,1.42,1.42,0,0,1,.48,1.18,2.25,2.25,0,0,1-.59,1.64,2,2,0,0,1-1.54.6,2.1,2.1,0,0,1-1.29-.38,1.4,1.4,0,0,1-.51-1.2Z"/><path class="cls-4" d="M1223.66,932.46l-1.89,8.93a16,16,0,0,0-.45,2.83q0,1.95,1.86,2a3.34,3.34,0,0,0,2.09-.83,7.35,7.35,0,0,0,1.85-2.38,14.17,14.17,0,0,0,1.24-3.62l1.45-6.87h3.41l-3.41,16.2h-2.71l.31-3h-.12a8.84,8.84,0,0,1-2.5,2.5,5.29,5.29,0,0,1-2.81.8,4,4,0,0,1-3-1.11,4.42,4.42,0,0,1-1.07-3.19,9.5,9.5,0,0,1,.18-1.82l.35-1.81,1.8-8.55Z"/><path class="cls-4" d="M1245.76,932.17q3.22,0,3.72,3.44h.12a8.18,8.18,0,0,1,2.5-2.57,5.42,5.42,0,0,1,2.91-.87,3.8,3.8,0,0,1,3,1.12,4.53,4.53,0,0,1,1,3.16,15.42,15.42,0,0,1-.32,2.65l-2.05,9.56h-3.44l2.09-9.84a11.71,11.71,0,0,0,.28-2q0-1.89-1.77-1.89a3.79,3.79,0,0,0-3,1.82,12,12,0,0,0-2,4.82l-1.48,7h-3.44l2.09-9.84a9.84,9.84,0,0,0,.25-1.86q0-2-1.71-2a3.79,3.79,0,0,0-3,1.86,12.78,12.78,0,0,0-2,5l-1.44,6.87h-3.46l3.46-16.2h2.69l-.31,3h.13Q1242.77,932.17,1245.76,932.17Z"/><path class="cls-4" d="M1275.13,934.47a4,4,0,0,1-2.94-1,3.92,3.92,0,0,1-1-2.93,9,9,0,0,1,.71-3.64,6,6,0,0,1,2-2.56,4.88,4.88,0,0,1,2.92-.92,6.82,6.82,0,0,1,2.87.59l-.68,1.78a5.43,5.43,0,0,0-2.14-.51,2.83,2.83,0,0,0-2.42,1.48,6.58,6.58,0,0,0-1,3.67,2.33,2.33,0,0,0,.54,1.65,2,2,0,0,0,1.5.58,4.13,4.13,0,0,0,1.34-.21,10.55,10.55,0,0,0,1.25-.52v1.88A6.42,6.42,0,0,1,1275.13,934.47Z"/><circle class="cls-19" cx="1275.52" cy="929.21" r="10.4"/><g class="cls-3"><rect class="cls-4" x="1137.22" y="569.82" width="152.62" height="21.21" rx="1.71" ry="1.71"/><rect class="cls-4" x="1137.21" y="762.11" width="152.62" height="21.21" rx="1.71" ry="1.71"/><rect class="cls-6" x="1155.64" y="558.88" width="30.79" height="42.69" rx="1.68" ry="1.68"/><rect class="cls-6" x="1155.64" y="751.33" width="30.79" height="42.69" rx="1.68" ry="1.68"/></g><circle class="cls-20" cx="1171.04" cy="674.35" r="30.79"/><circle class="cls-20" cx="1255.71" cy="674.35" r="30.79"/><rect class="cls-21" x="1253.41" y="645.06" width="4.61" height="18.43" rx="2.3" ry="2.3"/><rect class="cls-21" x="1143.04" y="672.04" width="18.43" height="4.61" rx="2.3" ry="2.3"/></svg>