<svg id="Layer_1" data-name="Layer 1" xmlns="http://www.w3.org/2000/svg" viewBox="0 0 500 300"><defs><style>.cls-1{fill:#fff;}.cls-2{fill:#495767;}</style></defs><title>sound</title><path class="cls-1" d="M325.7,261.5l-.1-.1Z"/><path class="cls-1" d="M348.1,248.6a4,4,0,0,0-5.66-.14l0,0h0l2.5-2.4a4,4,0,0,0,.14-5.66l0,0h0a4.44,4.44,0,0,0-1.1-.8,4,4,0,0,0-4.6.7l-2.6,2.5a4,4,0,1,0-5.6-5.8l-5.3,5.1a3.32,3.32,0,0,1-.9,3.3l2.8,2.9a4,4,0,0,1,0,5.66l0,0-.1.1-4.9,4.7,2.8,2.8.1.1h0a4,4,0,0,1-.1,5.6l-10.1,9.9,3.7,3.9a9,9,0,0,0,12.7.2l14-13.5a4,4,0,0,0-5.6-5.8l7.7-7.5a4.06,4.06,0,0,0,.36-5.73l-.16-.17Z"/><path class="cls-1" d="M313.1,226.4a2.08,2.08,0,0,0,2.1-1.9v-.1l.2-11.5a2.05,2.05,0,1,0-4.1-.1h0l-.2,11.5a2,2,0,0,0,1.9,2.1Z"/><path class="cls-1" d="M326.1,223.1a2,2,0,0,0-2.8-.1l-.1.1-5.9,5.7a2,2,0,0,0,0,2.9h0a2.15,2.15,0,0,0,2.9.1h0l5.9-5.7a2,2,0,0,0,.2-2.8C326.2,223.2,326.2,223.1,326.1,223.1Z"/><path class="cls-1" d="M305.8,231.4a2.15,2.15,0,0,0,2.9.1,2,2,0,0,0,0-2.9h0l-5.7-5.9a2.15,2.15,0,0,0-2.9-.1,2,2,0,0,0,0,2.9h0Z"/><path class="cls-1" d="M321.8,256.9a4,4,0,0,0-3.7-6.8.52.52,0,0,1-.4-.2.37.37,0,0,1,.1-.3l.9-.9a4.11,4.11,0,0,0,.1-5.8h0a3,3,0,0,0-1-.7,4,4,0,0,0-4.6.7l-1.7,1.7h-.1v-.1a4,4,0,0,0-.7-4.8,4.2,4.2,0,0,0-5.8.1l-18.7,18.1a.3.3,0,0,1-.4,0c-.1-.1-.1-.1-.1-.2l.1-5.9a3.59,3.59,0,0,0-3.58-3.6h0a3.65,3.65,0,0,0-3.6,3l-2.6,11a7.2,7.2,0,0,0,1.9,6.1l6.2,6.5,8.7,9a9,9,0,0,0,12.73.27l.07-.07,14.1-13.6a3.8,3.8,0,0,0,.8-4.6,4,4,0,0,0-4.5-2.2.52.52,0,0,1-.4-.2.37.37,0,0,1,.1-.3Z"/><path class="cls-1" d="M463.1,69.3,449.8,53.5s-.9,1-1.5,1.6c-2.3,1.8-4.4,1.2-5.6-.5s-1.8-3.8.5-5.6a7.22,7.22,0,0,1,2.4-1.4l-4.5-5.2c0-.3-.3-.1-.3-.1a10.46,10.46,0,0,1-1.7,1.9c-2.3,1.8-4.4,1.2-5.6-.5s-1.8-3.8.5-5.6a7.22,7.22,0,0,1,2.4-1.4l-4-4.8a4.07,4.07,0,0,1-1.4,2c-2.3,1.8-4.4,1.2-5.6-.5s-1.7-3.5.5-5.6a7.22,7.22,0,0,1,2.4-1.4c-1.1-1.3-5.8-7.1-9.7-11.2-4-4.5-11.9-6.3-15.6-.9-4.5,6.7,1.4,11-3.6,17.5l4.2,5.6a24.64,24.64,0,0,0,2.2-3.4c1.5-3.2,1.6-8.7,1.6-8.7s-.2-5.1,2.4-1.4c2.8,3.2,35.7,49.5,35.7,49.5l.1.1,17.5-4.2Z"/><path class="cls-1" d="M486.5,62.6C485,57.1,474.8,50,473.8,44.7s-.4-7.4,2-8.8c4.4-2.8,3.4-4.9-1.5-4.3-3.9.2-23.4-.5-26.6-.8-2.9-.4-5.5,1.5,0,4.3,5.9,2.8,4.4,9.1,7.9,14.8,2.1,3.4,5.2,7.7,12,14.1,3.7,3.4,3.9,7.2.7,8.5-1.4.8-4.4-.4-5.2-3.3l-17.8,4.1c1,1.6,12.5,20.4,29.2,13.7,5-2.1,6.6-3.3,9.4-7.6C487.1,75.1,488.6,70.3,486.5,62.6ZM466.8,52.4a4.24,4.24,0,1,1,3-5.2A4.24,4.24,0,0,1,466.8,52.4Zm8,9.3a4.24,4.24,0,1,1,3-5.2A4.24,4.24,0,0,1,474.8,61.7Z"/><path class="cls-1" d="M388.4,36.1a28.25,28.25,0,0,1-1.7,4s5.1,4.5,12.3.3a49.26,49.26,0,0,0-3.4-5.4A14.76,14.76,0,0,1,388.4,36.1Z"/><path class="cls-1" d="M451.1,48c1.5,1.9.8,5-1.6,6.9s-5.4,1.7-6.9-.3c-2.2-2.8-1-4.7,1.4-6.6S449.6,46.1,451.1,48Z"/><path class="cls-1" d="M441.8,37.2c1.5,1.9.8,5-1.6,6.9s-5.4,1.7-6.9-.3c-2.2-2.8-1-4.7,1.4-6.6S440.3,35.3,441.8,37.2Z"/><path class="cls-1" d="M433.5,26.7c1.5,1.9.8,5-1.6,6.9s-5.4,1.7-6.9-.3c-2.2-2.8-1-4.7,1.4-6.6S432,24.8,433.5,26.7Z"/><path class="cls-1" d="M324.8,190h0a7.8,7.8,0,0,0,2.2.3,5.24,5.24,0,0,0,4.1-1.8c1.8-1.9,2.6-5.4,2.3-9.1-.5-5.3,1.4-13.7,2.5-18a27.41,27.41,0,0,1-2.8-.5,20,20,0,0,1-2.6-1c-1.3,4.2-4.2,12.3-7.4,16.6-2.5,3.4-3.5,7.1-2.6,9.8A5.64,5.64,0,0,0,324.8,190Zm2.4-3.8c2.9-1.3,2.3-4.9,1.8-7.5-.3-1.4,1.9-2,2.2-.6.7,3.6,1,8.2-2.9,10.1C326.9,188.8,325.8,186.8,327.2,186.2Z"/><path class="cls-1" d="M341.9,129.9a34.69,34.69,0,0,1,12.4,6.3,16.54,16.54,0,0,0-11-11.1,15.4,15.4,0,0,0-4.3-.6,16.34,16.34,0,0,0-10.9,4.2,25.61,25.61,0,0,1,3.9-.3A34.49,34.49,0,0,1,341.9,129.9Z"/><path class="cls-1" d="M328.4,137.2c2.7,1.6,4.3,2.3,7.4,1.8a4.45,4.45,0,0,1,2.3.3c2.1,1.1,4.7,4.9,7.4,3.9a10.24,10.24,0,0,1,3-.8c2-.2,4.3,1.6,6.2,3.3a21.18,21.18,0,0,0,.5-4.4c-2.6-3.4-7.7-6.8-14-8.6a31.29,31.29,0,0,0-9.1-1.3,20,20,0,0,0-7.3,1.2,15.44,15.44,0,0,0-1.7,3.4A10.27,10.27,0,0,1,328.4,137.2Z"/><path class="cls-1" d="M335.9,151a35.21,35.21,0,0,0,9.1,1.4,18,18,0,0,0,7.6-1.4,23.94,23.94,0,0,0,1.3-2.8c-2-1.9-4.6-4.1-7.4-3a7.86,7.86,0,0,1-2.6.8c-1.9.2-3.5-2-4.7-3.1-3.6-3.2-5.2.4-8.5-1.1a7.82,7.82,0,0,1-2.6-1.7,6.68,6.68,0,0,0-5.9-1.7,15.83,15.83,0,0,0-.5,3.8,12.41,12.41,0,0,0,1.8,2.1A29.44,29.44,0,0,0,335.9,151Z"/><path class="cls-1" d="M335,153.9a33.42,33.42,0,0,1-12.9-6.8,16.89,16.89,0,0,0,7.4,10.5,4.35,4.35,0,0,0,.7.4,4.87,4.87,0,0,1,.7.3,12.86,12.86,0,0,0,5.4,1.5l.8.1c.2,0,.5.1.8.1h0a16.5,16.5,0,0,0,11.8-5,23.16,23.16,0,0,1-4.6.4A41.75,41.75,0,0,1,335,153.9Z"/><path class="cls-1" d="M308.3,191.3h0a12.66,12.66,0,0,1-2.6.4,6.61,6.61,0,0,1-5.1-2.3c-2.2-2.4-3.3-6.7-2.9-11.4.6-6.6-1.7-17.1-3-22.4a12.85,12.85,0,0,0,3.4-.7,22.56,22.56,0,0,0,3.3-1.3c1.6,5.2,5.1,15.3,9.1,20.6,3.1,4.2,4.3,8.8,3.2,12.1A7,7,0,0,1,308.3,191.3Zm-3-4.7c-3.6-1.7-2.9-6.1-2.2-9.4.4-1.8-2.3-2.5-2.7-.7-.9,4.5-1.3,10.3,3.6,12.5,1.6.8,3-1.7,1.3-2.4Z"/><path class="cls-1" d="M287.3,116.5a41.49,41.49,0,0,0-15.2,7.8,20.32,20.32,0,0,1,13.5-13.8,18.9,18.9,0,0,1,5.3-.8,20.79,20.79,0,0,1,13.4,5.2,38.66,38.66,0,0,0-4.8-.3A45.68,45.68,0,0,0,287.3,116.5Z"/><path class="cls-1" d="M303.9,125.6c-3.3,2-5.3,2.9-9.1,2.2a4.5,4.5,0,0,0-2.8.4c-2.6,1.4-5.8,6.2-9.1,4.8a9.25,9.25,0,0,0-3.7-1c-2.5-.3-5.3,2-7.6,4.1a25,25,0,0,1-.6-5.5c3.2-4.3,9.5-8.4,17.2-10.7a42.81,42.81,0,0,1,11.2-1.7,23,23,0,0,1,9,1.5,17.15,17.15,0,0,1,2.1,4.3A12,12,0,0,0,303.9,125.6Z"/><path class="cls-1" d="M294.7,142.8a42.81,42.81,0,0,1-11.2,1.7,23.38,23.38,0,0,1-9.4-1.7,37.27,37.27,0,0,1-1.6-3.5c2.5-2.3,5.7-5.1,9.1-3.7a9.18,9.18,0,0,0,3.2,1c2.4.3,4.3-2.5,5.8-3.9,4.5-4,6.5.5,10.5-1.3a8.75,8.75,0,0,0,3.2-2.2c2.3-2.2,4.7-2.3,7.2-2.1a25.25,25.25,0,0,1,.7,4.8,14.93,14.93,0,0,1-2.3,2.7A38.82,38.82,0,0,1,294.7,142.8Z"/><path class="cls-1" d="M295.7,146.4a41.31,41.31,0,0,0,15.9-8.4,21.16,21.16,0,0,1-9.1,13.1,3.51,3.51,0,0,1-.8.5,5.94,5.94,0,0,0-.8.4,17.26,17.26,0,0,1-6.6,1.9c-.3,0-.6.1-.9.1s-.6.1-.9.1h0a20.38,20.38,0,0,1-14.5-6.3,35.32,35.32,0,0,0,5.6.5A46.22,46.22,0,0,0,295.7,146.4Z"/><path class="cls-1" d="M30.5,63.9H36V83.1H19.1V28.2H30.5ZM53.3,28.2H47.8V63.9H42.1V83.1H59V63.9H53.3Zm24,0H70.7V63.9H65.8V83.1H82.6V63.9H77.4Zm17.4,0V63.9H88.9V83.1h16.8V28.2Z"/><rect class="cls-2" x="33.8" y="20.2" width="11" height="39.1"/><rect class="cls-2" x="56.6" y="20.2" width="11" height="39.1"/><rect class="cls-2" x="80.5" y="20.2" width="11" height="39.1"/><polygon class="cls-1" points="168.9 134 176.4 170.1 178.4 163.9 173.2 127.2 168.9 134"/><polygon class="cls-1" points="180 131.5 182.9 168.6 186.2 163 185.5 125.7 180 131.5"/><polygon class="cls-1" points="161.4 131.2 171.1 166.4 176.4 170.1 168.9 134 161.4 131.2"/><polygon class="cls-1" points="173.2 127.2 178.4 163.9 182.9 168.6 180 131.5 173.2 127.2"/><polygon class="cls-1" points="198.1 126.8 194 163.7 196.3 169.8 202.6 133.5 198.1 126.8"/><polygon class="cls-1" points="202.6 133.5 196.3 169.8 201.6 166 210.1 130.4 202.6 133.5"/><polygon class="cls-1" points="185.5 125.7 186.2 163 189.6 168.5 191.4 131.3 185.5 125.7"/><polygon class="cls-1" points="191.4 131.3 189.6 168.5 194 163.7 198.1 126.8 191.4 131.3"/><path class="cls-1" d="M142.6,130.8l1.6,5.6-8.9,2.8L146.4,175l7.9-2.4,1.3,4.7,13.3-3.8-13-46.5ZM160.4,168a3.07,3.07,0,1,1,2.1-3.8,2.89,2.89,0,0,1-1.84,3.65l-.16,0Zm-3.5-12.4a3.07,3.07,0,1,1,2.1-3.8,3,3,0,0,1-2,3.76Zm-3.3-13a3.07,3.07,0,1,1,2.1-3.8A3.07,3.07,0,0,1,153.6,142.6Z"/><path class="cls-1" d="M235.2,135a6.12,6.12,0,0,0-1.2-.5l-4.1-.9-8.2,35.1,4.2,1c2.5.6,5.1-1.6,5.9-4.8l5.4-23.4C237.8,138.8,236.9,136.2,235.2,135Z"/><path class="cls-1" d="M241,142.3a10.07,10.07,0,0,0-3.6-10.6,8,8,0,0,0-2.5-1.1l-4.1-.9.9-4-15.2-3.6L204,175.5l15.2,3.6,1.5-6.6,4.3,1c4.6,1.1,9.4-2.4,10.6-7.8Zm-19.5-9a3.08,3.08,0,1,1-3.7,2.3h0a2.9,2.9,0,0,1,3.38-2.33l.12,0C221.5,133.2,221.5,133.2,221.5,133.3Zm-2.8,12.4a3,3,0,1,1-1.4,5.8,3.06,3.06,0,0,1-2.2-3.6,3,3,0,0,1,3.56-2.31h0c-.1.1-.1.1,0,.1Zm-4.5,19.4a3,3,0,1,1,3.6-2.3h0a2.88,2.88,0,0,1-3.32,2.36Zm11.7,4.5-4.2-1,8.2-35.1,4.1.9a6.12,6.12,0,0,1,1.2.5c1.8,1.2,2.6,3.8,2,6.3l-5.4,23.4c-.8,3.4-3.4,5.6-5.9,5Z"/><path class="cls-1" d="M349.8,59.1a11.81,11.81,0,0,0-5.3-4.3,6.19,6.19,0,0,1-2.5-1.7,6.58,6.58,0,0,1-2-3.4,2.51,2.51,0,0,0-1.6-2.1,2,2,0,0,0-2.2.5l-.3.5c-1,2-4.3,2.4-6.5.9l-3.5-2.3a6.58,6.58,0,0,1-3-4.1,2.08,2.08,0,0,1,.9-1.9l.2-.2a2,2,0,0,0,.4-2.2,2.53,2.53,0,0,0-2.3-1.5,1.19,1.19,0,0,1-.9-.5,3.6,3.6,0,0,1-.8-1.2,11.15,11.15,0,0,0-3.4-4.4c-5.1-4.4-13-4.3-18.8-.3h0L287.3,20.7,285.5,19l1.8-1.8a1.49,1.49,0,1,0-.9-1.91h0a2,2,0,0,0,0,1.1l-1.8,1.8L282.2,16l1.9-1.9a1.49,1.49,0,1,0-.9-1.91h0a2,2,0,0,0,0,1.1l-1.9,1.9-.7-.7a1.5,1.5,0,0,0-.4-1.1l-2.1-2.1a1.34,1.34,0,0,0-1.89-.11l-.11.11h0l-.1.1-2,2-.1.1a1.34,1.34,0,0,0-.11,1.89l.11.11h0l2.1,2.1a1.43,1.43,0,0,0,1,.4l.7.7-1.9,1.9a1.49,1.49,0,1,0,.9,1.91h0a2,2,0,0,0,0-1.1l1.9-1.9,2.2,2.4L279,24a1.49,1.49,0,1,0,.9,1.91h0a2,2,0,0,0,0-1.1l1.8-1.9,1.7,1.8,10.2,10.9h0c-4,5.8-4,13.7.3,18.8a12.43,12.43,0,0,0,4.4,3.5,2.84,2.84,0,0,1,1.1.8,1.35,1.35,0,0,1,.5.9,2.53,2.53,0,0,0,1.5,2.3,2,2,0,0,0,2.2-.4l.2-.2a2,2,0,0,1,1.9-.9,6.58,6.58,0,0,1,4.1,3l2.3,3.5c1.5,2.2,1.1,5.4-.9,6.5l-.5.3a2,2,0,0,0-.5,2.2,2.39,2.39,0,0,0,2.1,1.6,7.17,7.17,0,0,1,3.4,1.9,7.82,7.82,0,0,1,1.7,2.6,12.36,12.36,0,0,0,4.3,5.3c6.8,4.2,15.2,2.3,22.5-5h0l.4-.3.4-.3h0C352.1,74.2,354,65.8,349.8,59.1ZM281.3,17l.7-.7h0Zm-2.6,2.6.7-.7h0Z"/><path class="cls-1" d="M289.3,89.3l-.5-2.7L278.2,34.3l.5-.1a1.29,1.29,0,0,0,1.1-1.3v-.1l-.2-1.2a1.33,1.33,0,0,0-1.5-1l-3.6.6.7,3.5,1.9-.3,10.6,52.3-1.8.3L273.8,27.9l-3.4.6L283,90.2l3.4-.6h0Z"/><rect class="cls-1" x="169.6" y="20.5" width="1.8" height="66.4"/><rect class="cls-1" x="174.6" y="20.5" width="1.8" height="66.4"/><rect class="cls-1" x="179.6" y="20.5" width="1.8" height="66.4"/><rect class="cls-1" x="184.6" y="20.5" width="1.8" height="60.3"/><rect class="cls-1" x="189.5" y="22.5" width="1.8" height="56.5"/><rect class="cls-1" x="194.5" y="35.3" width="1.8" height="40.4"/><rect class="cls-1" x="199.5" y="47.2" width="1.8" height="25.6"/><rect class="cls-1" x="204.4" y="51.3" width="1.8" height="19.7"/><rect class="cls-1" x="209.4" y="51.3" width="1.8" height="16.6"/><rect class="cls-1" x="214.4" y="51.3" width="1.8" height="14.2"/><rect class="cls-1" x="159" y="13.7" width="3.7" height="73.2"/><rect class="cls-1" x="162.7" y="13.7" width="3.7" height="73.2"/><polygon class="cls-1" points="166.4 17.4 159 17.4 156.7 9.5 168.7 9.5 166.4 17.4"/><path class="cls-1" d="M210.6,49a11.93,11.93,0,0,1-11.9-11.9V37a19.63,19.63,0,0,0-19.6-19.6h-9.4v5.4h9.4A14.25,14.25,0,0,1,193.3,37c0,9.6,7.7,16.7,17.2,16.7,2.6,0,7.3-.7,8.3,5.3l2.1-1.1C220.7,53.1,215.9,49,210.6,49Z"/><rect class="cls-1" x="155.4" y="9.5" width="14.6" height="3.1"/><rect class="cls-1" x="153.1" y="86.9" width="13.3" height="3.9"/><path class="cls-1" d="M220.9,58,169.7,85.2v5.6h5.1l40.1-23C222.1,63.6,220.9,58,220.9,58Z"/><rect class="cls-1" x="168.54" y="216.16" width="9.1" height="40.1" transform="translate(-116.33 191.58) rotate(-45)"/><rect class="cls-1" x="172.71" y="214.41" width="4.5" height="41.1" transform="translate(-114.9 192.54) rotate(-45)"/><rect class="cls-1" x="147.72" y="221.57" width="3.1" height="1.4" transform="translate(-113.45 170.65) rotate(-45)"/><circle class="cls-1" cx="147.74" cy="223.81" r="1.3" transform="translate(-114.99 170.02) rotate(-45)"/><rect class="cls-1" x="151.4" y="224.27" width="3.1" height="1.4" transform="translate(-114.28 174.04) rotate(-45)"/><circle class="cls-1" cx="151.42" cy="226.52" r="1.3" transform="translate(-115.83 173.42) rotate(-45)"/><rect class="cls-1" x="155.64" y="227.3" width="3.1" height="1.4" transform="translate(-115.18 177.93) rotate(-45)"/><circle class="cls-1" cx="155.67" cy="229.39" r="1.3" transform="translate(-116.61 177.26) rotate(-45)"/><rect class="cls-1" x="157.6" y="211.67" width="3.1" height="1.4" transform="translate(-103.55 174.74) rotate(-45)"/><circle class="cls-1" cx="160.6" cy="210.9" r="1.3" transform="translate(-102.09 175.33) rotate(-45)"/><rect class="cls-1" x="160.31" y="215.38" width="3.1" height="1.4" transform="translate(-105.38 177.74) rotate(-45)"/><circle class="cls-1" cx="163.31" cy="214.61" r="1.3" transform="translate(-103.92 178.34) rotate(-45)"/><rect class="cls-1" x="163.26" y="219.57" width="3.1" height="1.4" transform="translate(-107.48 181.05) rotate(-45)"/><circle class="cls-1" cx="166.32" cy="218.87" r="1.3" transform="translate(-106.05 181.71) rotate(-45)"/><polygon class="cls-1" points="163.9 227.1 167.1 223.9 156.6 210.4 151.9 215.1 147.2 219.7 160.7 230.3 163.9 227.1"/><path class="cls-1" d="M202.5,277.6l-1.4-1.4,6-6-6.6-6.6a8.42,8.42,0,0,1-11.9-11.9l-12.5-12.5c-6.4,6.4-7.4,15.9-1,22.4,2.4,2.4,4.8,2.5,6.2,4,2.8,3.2,1.3,8.5,4.9,13.6h0a21.79,21.79,0,0,0,29.9,7.4,21.49,21.49,0,0,0,4.1-3.2l-11.7-11.7Z"/><path class="cls-1" d="M220.2,252.6a19.4,19.4,0,0,0-4.2-3.2h0c-5.1-3.6-10.4-2.1-13.6-4.9-1.5-1.3-1.6-3.7-4-6.2-6.4-6.4-15.9-5.5-22.4,1l12.5,12.5a8.42,8.42,0,0,1,12.4,11.4l-.5.5,6.6,6.6,6-6,1.4,1.4-6,6,11.8,11.8A21.91,21.91,0,0,0,220.2,252.6Z"/><circle class="cls-1" cx="194.51" cy="257.73" r="6.4" transform="translate(-125.27 213.03) rotate(-45)"/><polygon class="cls-1" points="151.9 215.1 163.9 227.1 167.1 223.9 156.6 210.4 151.9 215.1"/><path class="cls-1" d="M98.6,145.6a2.06,2.06,0,1,0,.3-2.9,2.22,2.22,0,0,0-.8,1.3l-28.3,5.8,6.2,1.3Z"/><polygon class="cls-1" points="27.5 159.3 28.4 163.3 59.3 155.4 53.1 153.9 27.5 159.3"/><polygon class="cls-1" points="64.7 154.2 101.1 163.3 102 159.3 70.9 152.6 64.7 154.2"/><path class="cls-1" d="M31.3,144.1a2.07,2.07,0,1,0-1.81,2.3h0a1.83,1.83,0,0,0,1.3-.8l27.6,7,6.2-1.3Z"/><polygon class="cls-1" points="64.7 151.3 58.5 152.6 64.7 154.2 70.9 152.6 64.7 151.3"/><path class="cls-1" d="M47.8,187.6a1.34,1.34,0,0,1-1.3-.8l-9.1-16.5a1.41,1.41,0,0,1,.75-1.85l.15-.05a1.57,1.57,0,0,1,1.7.5l9.1,16.5a1.61,1.61,0,0,1-.6,2.1c-.2,0-.5.1-.7.1Z"/><path class="cls-1" d="M43.9,180.5H33.5a1.55,1.55,0,0,1-1.3-1.7,1.72,1.72,0,0,1,1.3-1.3H43.9a1.51,1.51,0,0,1,.4,3Z"/><path class="cls-1" d="M29.6,187.6a1.54,1.54,0,0,1-1.5-1.5,1.45,1.45,0,0,1,.2-.7l9.1-16.5a1.38,1.38,0,0,1,1.92-.35l.18.15a1.57,1.57,0,0,1,.5,1.7l-9.1,16.5A1.71,1.71,0,0,1,29.6,187.6Z"/><path class="cls-1" d="M37.4,168.8l-9.1,16.5a1.71,1.71,0,0,0,0,1.4l1.2-.3,9.3-16.9V168A1.49,1.49,0,0,0,37.4,168.8Z"/><rect class="cls-1" x="24.8" y="185.1" width="9.4" height="2.5"/><rect class="cls-1" x="43.3" y="185.1" width="9.4" height="2.5"/><rect class="cls-1" x="37.2" y="118.9" width="3" height="50.7"/><rect class="cls-1" x="37.2" y="118.9" width="1.5" height="50.7"/><rect class="cls-1" x="35.8" y="112.2" width="5.8" height="1.9"/><rect class="cls-1" x="37.2" y="110.7" width="3" height="1.5"/><path class="cls-1" d="M38.7,117.3H9.2v-1.2s18.4-.4,20-.4,5.5-1.6,9.5-1.6,8,1.6,9.5,1.6,20,.4,20,.4v1.2Z"/><path class="cls-1" d="M29.2,115.7c-1.6,0-20,.4-20,.4v1.2H38.7v-3.2C34.7,114.1,30.7,115.7,29.2,115.7Z"/><path class="cls-1" d="M96.5,187.6a1.34,1.34,0,0,1-1.3-.8L86,170.2a1.53,1.53,0,1,1,2.49-1.78l.11.18c0,.1.1.1.1.2l9.1,16.5a1.61,1.61,0,0,1-.6,2.1,2.54,2.54,0,0,1-.7.2Z"/><path class="cls-1" d="M92.6,180.5H82.2a1.55,1.55,0,0,1-1.3-1.7,1.72,1.72,0,0,1,1.3-1.3H92.6a1.55,1.55,0,0,1,1.3,1.7A1.72,1.72,0,0,1,92.6,180.5Z"/><path class="cls-1" d="M78.3,187.6a1.54,1.54,0,0,1-1.5-1.5,1.45,1.45,0,0,1,.2-.7l9.1-16.5a1.52,1.52,0,0,1,2.7,1.4l-9.1,16.5A1.87,1.87,0,0,1,78.3,187.6Z"/><path class="cls-1" d="M86,168.8l-9.1,16.5a1.71,1.71,0,0,0,0,1.4l1.2-.3,9.3-16.9V168A1.6,1.6,0,0,0,86,168.8Z"/><rect class="cls-1" x="73.4" y="185.1" width="9.4" height="2.5"/><rect class="cls-1" x="91.9" y="185.1" width="9.4" height="2.5"/><rect class="cls-1" x="85.9" y="133.4" width="3" height="36.1"/><rect class="cls-1" x="85.9" y="133.4" width="1.5" height="36.1"/><path class="cls-1" d="M87.4,128.4H57.9v1.2s18.4.4,20,.4,5.5,1.6,9.5,1.6,8-1.6,9.5-1.6,20-.4,20-.4v-1.2Z"/><path class="cls-1" d="M77.8,130c-1.6,0-20-.4-20-.4v-1.2H87.3v3.2C83.3,131.6,79.4,130,77.8,130Z"/><path class="cls-1" d="M87.4,128.4H57.9v-1.2s18.4-.4,20-.4,5.5-1.6,9.5-1.6,8,1.6,9.5,1.6,20,.4,20,.4v1.2Z"/><path class="cls-1" d="M77.8,126.8c-1.6,0-20,.4-20,.4v1.2H87.3v-3.2C83.3,125.2,79.4,126.8,77.8,126.8Z"/><rect class="cls-1" x="84.5" y="123.3" width="5.8" height="1.9"/><rect class="cls-1" x="85.9" y="121.8" width="3" height="1.5"/><path class="cls-1" d="M63.8,221.9h0a4.18,4.18,0,0,0-5.25,2.72l-.05.18a3.67,3.67,0,0,0-.1,1.8,15,15,0,0,1,8.4,0A4.29,4.29,0,0,0,63.8,221.9Z"/><path class="cls-1" d="M57.7,273a4.85,4.85,0,0,0,4.8,4.7V273Z"/><path class="cls-1" d="M67.4,273H62.6v4.7A4.85,4.85,0,0,0,67.4,273Z"/><path class="cls-1" d="M62.5,231.7v-4.2a15.22,15.22,0,0,0-4.2.6A4.3,4.3,0,0,0,62.5,231.7Z"/><path class="cls-1" d="M82.7,265l-.1-.1h0Z"/><path class="cls-1" d="M84.1,268l-.1-.3h0Z"/><path class="cls-1" d="M83.2,265.8l-.1-.1h0Z"/><path class="cls-1" d="M79.7,259.8l.6,1.5Z"/><path class="cls-1" d="M78.6,254.4a25.71,25.71,0,0,0,1.2,5.5A22.68,22.68,0,0,1,78.6,254.4Z"/><path class="cls-1" d="M83,265.5l-.1-.1h0Z"/><path class="cls-1" d="M80.3,261.4a10.93,10.93,0,0,0,.8,1.5C80.8,262.4,80.6,261.9,80.3,261.4Z"/><path class="cls-1" d="M62.5,231.7h0a4.29,4.29,0,0,0,4.2-3.7h0A4.15,4.15,0,0,1,62.5,231.7Z"/><path class="cls-1" d="M66.7,228a15.23,15.23,0,0,0-4.2-.6v4.2A4,4,0,0,0,66.7,228Z"/><path class="cls-1" d="M83.8,267h0l.1.3h0v-.1l-.1-.2Z"/><path class="cls-1" d="M83.7,266.9h0l-.3-.6h0C83.6,266.5,83.6,266.7,83.7,266.9Z"/><path class="cls-1" d="M83.7,266.9l-.1-.3h0l-.1-.3h0a1.42,1.42,0,0,1,.2.6Z"/><path class="cls-1" d="M83.9,267.3l.1.4h0v-.1Z"/><path class="cls-1" d="M83.9,267.5l-.1-.3h0Z"/><path class="cls-1" d="M84.1,268.1c.1.3.1.5.2.8h0a.6.6,0,0,0-.1-.4h0A.76.76,0,0,0,84.1,268.1Z"/><path class="cls-1" d="M84.2,268.5a.76.76,0,0,0-.1-.4A.6.6,0,0,0,84.2,268.5Z"/><path class="cls-1" d="M84.2,268.9h0a.6.6,0,0,0-.1-.4h0A.6.6,0,0,1,84.2,268.9Z"/><path class="cls-1" d="M84,267.7h0l.1.3h0Z"/><path class="cls-1" d="M83.3,266l.1.3h0Z"/><path class="cls-1" d="M83.4,266.2h0l-.1-.2h0Z"/><path class="cls-1" d="M83,265.4l.2.2h0l-.1-.1Z"/><path class="cls-1" d="M83.1,265.7l-.1-.1Z"/><path class="cls-1" d="M83.1,265.7l.2.3h0Z"/><path class="cls-1" d="M83.3,266l-.1-.2Z"/><path class="cls-1" d="M82.7,265h0l-.1-.1Z"/><path class="cls-1" d="M82.9,265.4h0l-.3-.4h0Z"/><path class="cls-1" d="M82.7,265l.3.4h0Z"/><path class="cls-1" d="M80.3,261.4l-.6-1.5h0a25.71,25.71,0,0,1-1.2-5.5,2,2,0,0,0-.1-.7,7.57,7.57,0,0,1-.1-1.5c-.2-2.1-.3-4.5-.3-7.4a24.52,24.52,0,0,0-.2-2.7c-.1-.6-.2-1.1-.3-1.7a21.72,21.72,0,0,0-.7-2.4c-.1-.3-.2-.5-.3-.8a15.93,15.93,0,0,0-1.5-2.9c-.3-.4-.6-.9-.9-1.3s-.7-.8-1-1.2a8,8,0,0,0-1.7-1.5l-.6-.4a16.22,16.22,0,0,0-4.2-2,4.29,4.29,0,0,1-4.2,3.7h0a4.29,4.29,0,0,1-4.2-3.7c-6.8,2-11.3,8.7-11.3,16.8,0,11.4-1.5,15.5-3.1,18H81C80.8,262.3,80.6,261.9,80.3,261.4Z"/><path class="cls-1" d="M42.1,265.4h0l-.2.2h0l-.2.3h0l-.1.2v.1l-.1.3h0l-.1.3v.1l-.1.3v.1l-.1.3v.1l-.2.3v.1a.76.76,0,0,1-.1.4h0a.6.6,0,0,1-.1.4v2.3H67.3v-3h0v3h17V270h0v-.5h0v-.6a1.88,1.88,0,0,0-.2-.8V268h0l-.1-.3h0l-.1-.4v-.1l-.1-.3v-.1h0l-.3-.6h0l-.4-.3h0l-.2-.3h0l-.2-.2h0l-.3-.4h-40Z"/><path class="cls-1" d="M82.6,264.9H42.5l-.1.1H82.7Z"/><rect class="cls-1" x="395.4" y="179.9" width="41.5" height="3.3"/><rect class="cls-1" x="436.9" y="179.9" width="41.5" height="3.3"/><rect class="cls-1" x="436.9" y="142" width="41.5" height="3.1"/><rect class="cls-1" x="395.4" y="142" width="41.5" height="3.1"/><path class="cls-1" d="M436.9,148.4v2.8a3,3,0,0,1,.8,6h-.8V168a3,3,0,0,1,0,6v2.9h41.5V148.5H436.9ZM466.3,174a3,3,0,1,1,3-3,3,3,0,0,1-2.9,3Zm0-16.8a3,3,0,1,1,3-3,3,3,0,0,1-2.9,3Z"/><path class="cls-1" d="M433.9,170.9a3,3,0,0,1,3-3V157.1a3,3,0,0,1-.8-6h.8v-2.8H395.4v28.4h41.5v-2.9a2.81,2.81,0,0,1-3-2.9Zm-25.9,3a3,3,0,1,1,3-3,3,3,0,0,1-2.9,3Zm0-16.8a3,3,0,1,1,3-3A3,3,0,0,1,408,157.1Z"/><path class="cls-1" d="M395.4,173.9V168a3,3,0,1,0-.8,6A2.2,2.2,0,0,1,395.4,173.9Z"/><path class="cls-1" d="M395.4,157.1v-5.9a3,3,0,1,0-.8,6h0A2.2,2.2,0,0,1,395.4,157.1Z"/><path class="cls-1" d="M478.4,151.1v6a3,3,0,0,0,0-6Z"/><path class="cls-1" d="M478.4,167.9v5.9a3,3,0,0,0,.8-6A2.48,2.48,0,0,1,478.4,167.9Z"/><path class="cls-1" d="M473,120.8a2.21,2.21,0,1,0,.4-3.1,2.25,2.25,0,0,0-.8,1.4l-30.2,6.2,6.6,1.4Z"/><polygon class="cls-1" points="397.3 135.3 398.3 139.6 431.2 131.2 424.6 129.5 397.3 135.3"/><polygon class="cls-1" points="437 129.8 475.6 139.6 476.6 135.3 443.6 128.2 437 129.8"/><path class="cls-1" d="M401.4,119.1a2.16,2.16,0,1,0-1.9,2.4,2.19,2.19,0,0,0,1.4-.8l29.4,7.4,6.6-1.4Z"/><polygon class="cls-1" points="437 126.8 430.4 128.2 437 129.8 443.6 128.2 437 126.8"/><path class="cls-1" d="M414.26,265.63a67.3,67.3,0,0,1-8.5,7.35,17.72,17.72,0,0,0-4.72,4,15.13,15.13,0,0,0-3,5.62l1.06,1.06,4.75,4.75,1.06,1.06a15.13,15.13,0,0,0,5.62-3,17.72,17.72,0,0,0,4-4.72,67.3,67.3,0,0,1,7.35-8.5c2.18-2,9.28-8,9.28-8l-3.4-3.4-2-2-3.4-3.4S416.27,263.45,414.26,265.63ZM412,279.11l-2,2-3.77-3.77,2-2a2.67,2.67,0,0,1,3.78,3.78Z"/><path class="cls-1" d="M427.6,258.44l1.47,1.47,3.12,3.12,27.41-28.32L457,232.12l-1.63-1.63-2.58-2.58-28.32,27.41Zm23.88-25.28a2,2,0,1,1,0,2.84A2,2,0,0,1,451.48,233.16Zm-5.29,5.29a2,2,0,1,1,0,2.84A2,2,0,0,1,446.19,238.45ZM441,243.62a2,2,0,1,1,0,2.84A2,2,0,0,1,441,243.62Zm-5.29,5.29a2,2,0,1,1,0,2.84A2,2,0,0,1,435.74,248.9Zm-5.16,5.16a2,2,0,1,1,0,2.84A2,2,0,0,1,430.57,254.07Z"/><path class="cls-1" d="M460.65,220.39c-1.4,1.64-1.48.9-2.5,1.35s-4,4.72-4,4.72l2.46,2.46,2,2,2.46,2.46s4.27-3,4.72-4-.29-1.11,1.35-2.5,4.5-3.44,4.5-3.44L467,218.75l-1.49-1.49-1.38-1.38S462,218.74,460.65,220.39Zm.51,8.2a1.59,1.59,0,1,1,0-2.24A1.59,1.59,0,0,1,461.16,228.58Z"/><rect class="cls-1" x="468.71" y="210.66" width="2.63" height="13.84" transform="translate(-16.19 396.08) rotate(-45)"/></svg>