<svg id="Layer_1" data-name="Layer 1" xmlns="http://www.w3.org/2000/svg" xmlns:xlink="http://www.w3.org/1999/xlink" viewBox="0 0 720 540"><defs><style>.cls-1{fill:url(#linear-gradient);}.cls-2{fill:url(#linear-gradient-2);}.cls-3{fill:url(#linear-gradient-3);}.cls-4{fill:url(#linear-gradient-4);}.cls-5{fill:url(#linear-gradient-5);}.cls-6{fill:url(#linear-gradient-6);}.cls-7{fill:url(#linear-gradient-7);}.cls-8{fill:url(#linear-gradient-8);}.cls-9{fill:url(#linear-gradient-9);}.cls-10{fill:url(#linear-gradient-10);}.cls-11{fill:url(#linear-gradient-11);}.cls-12{fill:url(#linear-gradient-12);}.cls-13{fill:url(#linear-gradient-13);}.cls-14{fill:url(#linear-gradient-14);}.cls-15{fill:url(#linear-gradient-15);}.cls-16{fill:url(#linear-gradient-16);}.cls-17{fill:url(#linear-gradient-17);}.cls-18{fill:none;}.cls-19{fill:url(#linear-gradient-18);}.cls-20{fill:url(#linear-gradient-19);}.cls-21{fill:url(#linear-gradient-20);}.cls-22{fill:url(#linear-gradient-21);}.cls-23{fill:url(#linear-gradient-22);}.cls-24{fill:url(#linear-gradient-23);}.cls-25{fill:url(#linear-gradient-24);}.cls-26{fill:url(#linear-gradient-25);}.cls-27{fill:url(#linear-gradient-26);}.cls-28{fill:url(#linear-gradient-27);}.cls-29{fill:url(#linear-gradient-28);}.cls-30{fill:url(#linear-gradient-29);}.cls-31{fill:url(#linear-gradient-30);}.cls-32{fill:url(#linear-gradient-31);}.cls-33{fill:url(#linear-gradient-32);}.cls-34{fill:url(#linear-gradient-33);}.cls-35{fill:url(#linear-gradient-34);}.cls-36{fill:url(#linear-gradient-35);}.cls-37{fill:url(#linear-gradient-36);}.cls-38{fill:url(#linear-gradient-37);}.cls-39{fill:url(#linear-gradient-38);}.cls-40{fill:url(#linear-gradient-39);}.cls-41{fill:url(#linear-gradient-40);}.cls-42{fill:url(#linear-gradient-41);}.cls-43{fill:url(#linear-gradient-42);}.cls-44{fill:url(#linear-gradient-43);}.cls-45{fill:url(#linear-gradient-44);}.cls-46{fill:url(#linear-gradient-45);}.cls-47{fill:url(#linear-gradient-46);}.cls-48{fill:url(#linear-gradient-47);}.cls-49{fill:url(#linear-gradient-48);}.cls-50{fill:url(#linear-gradient-49);}.cls-51{fill:url(#linear-gradient-50);}.cls-52{fill:url(#linear-gradient-51);}.cls-53{fill:url(#linear-gradient-52);}.cls-54{fill:url(#linear-gradient-53);}</style><linearGradient id="linear-gradient" x1="204.12" y1="430.27" x2="338.88" y2="430.27" gradientTransform="matrix(1, 0, 0, -1, 0, 876.09)" gradientUnits="userSpaceOnUse"><stop offset="0" stop-color="#2af39a"/><stop offset="1" stop-color="#0ab4e3"/></linearGradient><linearGradient id="linear-gradient-2" x1="274.66" y1="415.2" x2="296.12" y2="415.2" gradientTransform="matrix(0.71, 0.71, 0.71, -0.71, -210.44, 551.16)" xlink:href="#linear-gradient"/><linearGradient id="linear-gradient-3" x1="86.63" y1="470.21" x2="86.63" y2="478.78" xlink:href="#linear-gradient"/><linearGradient id="linear-gradient-4" x1="86.5" y1="380.63" x2="86.5" y2="388.95" xlink:href="#linear-gradient"/><linearGradient id="linear-gradient-5" x1="86.54" y1="406.38" x2="86.54" y2="468.64" xlink:href="#linear-gradient"/><linearGradient id="linear-gradient-6" x1="86.56" y1="391.99" x2="86.56" y2="403.12" xlink:href="#linear-gradient"/><linearGradient id="linear-gradient-7" x1="72.04" y1="-2159.99" x2="72.04" y2="-2070.79" gradientTransform="translate(0 2204)" xlink:href="#linear-gradient"/><linearGradient id="linear-gradient-8" x1="34.56" y1="-2159.99" x2="34.56" y2="-2070.79" gradientTransform="translate(0 2204)" xlink:href="#linear-gradient"/><linearGradient id="linear-gradient-9" x1="110.38" y1="-2159.99" x2="110.38" y2="-2070.79" gradientTransform="translate(0 2204)" xlink:href="#linear-gradient"/><linearGradient id="linear-gradient-10" x1="148.04" y1="-2159.99" x2="148.04" y2="-2070.79" gradientTransform="translate(0 2204)" xlink:href="#linear-gradient"/><linearGradient id="linear-gradient-11" x1="640.93" y1="-2180.2" x2="640.93" y2="-2053.09" gradientTransform="translate(0 2204)" xlink:href="#linear-gradient"/><linearGradient id="linear-gradient-12" x1="558.35" y1="-2140.83" x2="558.35" y2="-2128.99" gradientTransform="translate(0 2204)" xlink:href="#linear-gradient"/><linearGradient id="linear-gradient-13" x1="453.26" y1="-2183.78" x2="453.26" y2="-2049.63" gradientTransform="translate(0 2204)" xlink:href="#linear-gradient"/><linearGradient id="linear-gradient-14" x1="394.29" y1="-2150.6" x2="394.29" y2="-2050.99" gradientTransform="translate(0 2204)" xlink:href="#linear-gradient"/><linearGradient id="linear-gradient-15" x1="399.21" y1="-2146.32" x2="399.21" y2="-2051.66" gradientTransform="translate(0 2204)" xlink:href="#linear-gradient"/><linearGradient id="linear-gradient-16" x1="227.8" y1="-2185.3" x2="227.8" y2="-2046.2" gradientTransform="translate(0 2204)" xlink:href="#linear-gradient"/><linearGradient id="linear-gradient-17" x1="285.42" y1="-2171.8" x2="285.42" y2="-2046.3" gradientTransform="translate(0 2204)" xlink:href="#linear-gradient"/><linearGradient id="linear-gradient-18" x1="476.68" y1="-1917.8" x2="476.68" y2="-1867.3" gradientTransform="translate(0 2204)" xlink:href="#linear-gradient"/><linearGradient id="linear-gradient-19" x1="498.4" y1="-1976.43" x2="498.4" y2="-1957.09" gradientTransform="translate(0 2204)" xlink:href="#linear-gradient"/><linearGradient id="linear-gradient-20" x1="494.75" y1="-1964.98" x2="494.75" y2="-1941.27" gradientTransform="translate(0 2204)" xlink:href="#linear-gradient"/><linearGradient id="linear-gradient-21" x1="492.65" y1="-1953.57" x2="492.65" y2="-1930.22" gradientTransform="translate(0 2204)" xlink:href="#linear-gradient"/><linearGradient id="linear-gradient-22" x1="489.7" y1="-1938.9" x2="489.7" y2="-1917.51" gradientTransform="translate(0 2204)" xlink:href="#linear-gradient"/><linearGradient id="linear-gradient-23" x1="437.32" y1="-1927.9" x2="437.32" y2="-1864.9" gradientTransform="translate(0 2204)" xlink:href="#linear-gradient"/><linearGradient id="linear-gradient-24" x1="410.6" y1="-2000.86" x2="410.6" y2="-1976.76" gradientTransform="translate(0 2204)" xlink:href="#linear-gradient"/><linearGradient id="linear-gradient-25" x1="415.05" y1="-1986.57" x2="415.05" y2="-1957.01" gradientTransform="translate(0 2204)" xlink:href="#linear-gradient"/><linearGradient id="linear-gradient-26" x1="417.35" y1="-1972.39" x2="417.35" y2="-1943.29" gradientTransform="translate(0 2204)" xlink:href="#linear-gradient"/><linearGradient id="linear-gradient-27" x1="421.3" y1="-1954.14" x2="421.3" y2="-1927.49" gradientTransform="translate(0 2204)" xlink:href="#linear-gradient"/><linearGradient id="linear-gradient-28" x1="266.6" y1="-1972.6" x2="266.6" y2="-1904" gradientTransform="translate(0 2204)" xlink:href="#linear-gradient"/><linearGradient id="linear-gradient-29" x1="214.6" y1="-1970.5" x2="214.6" y2="-1892.9" gradientTransform="translate(0 2204)" xlink:href="#linear-gradient"/><linearGradient id="linear-gradient-30" x1="323.58" y1="-1978.11" x2="323.58" y2="-1890.11" gradientTransform="translate(0 2204)" xlink:href="#linear-gradient"/><linearGradient id="linear-gradient-31" x1="631.45" y1="-1884.97" x2="631.45" y2="-1879.36" gradientTransform="translate(0 2204)" xlink:href="#linear-gradient"/><linearGradient id="linear-gradient-32" x1="631.45" y1="-1949.85" x2="631.45" y2="-1944.62" gradientTransform="translate(0 2204)" xlink:href="#linear-gradient"/><linearGradient id="linear-gradient-33" x1="631.45" y1="-1938.9" x2="631.45" y2="-1890.4" gradientTransform="translate(0 2204)" xlink:href="#linear-gradient"/><linearGradient id="linear-gradient-34" x1="557.95" y1="-1905.53" x2="557.95" y2="-1895.36" gradientTransform="translate(0 2204)" xlink:href="#linear-gradient"/><linearGradient id="linear-gradient-35" x1="557.95" y1="-1934.22" x2="557.95" y2="-1924.05" gradientTransform="translate(0 2204)" xlink:href="#linear-gradient"/><linearGradient id="linear-gradient-36" x1="705" y1="-1934.22" x2="705" y2="-1924.04" gradientTransform="translate(0 2204)" xlink:href="#linear-gradient"/><linearGradient id="linear-gradient-37" x1="704.95" y1="-1905.53" x2="704.95" y2="-1895.36" gradientTransform="translate(0 2204)" xlink:href="#linear-gradient"/><linearGradient id="linear-gradient-38" x1="670.3" y1="-1992.2" x2="670.3" y2="-1975.9" gradientTransform="translate(0 2204)" xlink:href="#linear-gradient"/><linearGradient id="linear-gradient-39" x1="592.85" y1="-1971.17" x2="592.85" y2="-1953.97" gradientTransform="translate(0 2204)" xlink:href="#linear-gradient"/><linearGradient id="linear-gradient-40" x1="631.48" y1="-1992.23" x2="631.48" y2="-1954" gradientTransform="translate(0 2204)" xlink:href="#linear-gradient"/><linearGradient id="linear-gradient-41" x1="90.04" y1="-1982.8" x2="90.04" y2="-1877.1" gradientTransform="translate(0 2204)" xlink:href="#linear-gradient"/><linearGradient id="linear-gradient-42" x1="52.1" y1="-1990.15" x2="52.1" y2="-1985.23" gradientTransform="translate(0 2204)" xlink:href="#linear-gradient"/><linearGradient id="linear-gradient-43" x1="126.75" y1="-1973.05" x2="126.75" y2="-1963.2" gradientTransform="translate(0 2204)" xlink:href="#linear-gradient"/><linearGradient id="linear-gradient-44" x1="126.75" y1="-1978.36" x2="126.75" y2="-1973.05" gradientTransform="translate(0 2204)" xlink:href="#linear-gradient"/><linearGradient id="linear-gradient-45" x1="458" y1="410.49" x2="518.83" y2="410.49" xlink:href="#linear-gradient"/><linearGradient id="linear-gradient-46" x1="450" y1="484.49" x2="457.71" y2="484.49" xlink:href="#linear-gradient"/><linearGradient id="linear-gradient-47" x1="460.21" y1="468.63" x2="478.12" y2="468.63" xlink:href="#linear-gradient"/><linearGradient id="linear-gradient-48" x1="429.23" y1="469.17" x2="446.78" y2="469.17" xlink:href="#linear-gradient"/><linearGradient id="linear-gradient-49" x1="386.72" y1="405.71" x2="471.47" y2="405.71" xlink:href="#linear-gradient"/><linearGradient id="linear-gradient-50" x1="569.24" y1="480.82" x2="624.98" y2="480.82" gradientTransform="matrix(1, 0, 0, 1, 0, 0)" xlink:href="#linear-gradient"/><linearGradient id="linear-gradient-51" x1="613.74" y1="434.64" x2="672.84" y2="434.64" gradientTransform="matrix(1, 0, 0, 1, 0, 0)" xlink:href="#linear-gradient"/><linearGradient id="linear-gradient-52" x1="663.7" y1="399.54" x2="693.09" y2="399.54" gradientTransform="matrix(1, 0, 0, 1, 0, 0)" xlink:href="#linear-gradient"/><linearGradient id="linear-gradient-53" x1="680.58" y1="387.71" x2="700.17" y2="387.71" gradientTransform="translate(476.36 -374.61) rotate(45)" xlink:href="#linear-gradient"/></defs><title>sound_color</title><path class="cls-1" d="M328.15,450.76a36.75,36.75,0,0,0-7-5.47h0c-8.6-6-17.48-3.56-22.83-8.21-2.57-2.23-2.64-6.3-6.71-10.37-9-9-21.45-9.4-31.65-3.14l-21.15-21.15-3.64-4.64L237,396a2.09,2.09,0,0,0,1.92-.54,2.13,2.13,0,1,0-3-3,2.09,2.09,0,0,0-.54,1.92L233.8,396l-3.91-5,2.14-2.14a2.09,2.09,0,0,0,1.92-.54,2.13,2.13,0,1,0-3-3,2.09,2.09,0,0,0-.54,1.92l-1.94,1.94L225.16,385l2.3-2.3a2.09,2.09,0,0,0,1.92-.54,2.13,2.13,0,1,0-3-3,2.09,2.09,0,0,0-.54,1.92l-2.1,2.1L221,379.72l-7.86,7.86-7.86,7.86,3.35,2.63-2.1,2.1a2.09,2.09,0,0,0-1.92.54,2.13,2.13,0,0,0,3,3,2.09,2.09,0,0,0,.54-1.92l2.3-2.3,4.22,3.31-1.94,1.94a2.09,2.09,0,0,0-1.92.54,2.13,2.13,0,1,0,3,3,2.09,2.09,0,0,0,.54-1.92l2.14-2.14,5,3.91-1.49,1.6a2.09,2.09,0,0,0-1.92.54,2.13,2.13,0,0,0,3,3,2.09,2.09,0,0,0,.54-1.92l1.78-1.78,4.64,3.64,21.15,21.15c-6.26,10.19-5.84,22.67,3.14,31.65,4.07,4.07,8.14,4.15,10.37,6.71,4.65,5.36,2.24,14.24,8.21,22.84h0a36.62,36.62,0,1,0,57.27-44.8ZM274.9,469.41a14.22,14.22,0,1,1,20.11,0h0A14.22,14.22,0,0,1,274.9,469.41Zm33.46,13.35L298.3,492.82l-2.3-2.27,10.06-10.06,10.06-10.06,2.27,2.27Z"/><circle class="cls-2" cx="284.95" cy="459.37" r="10.73" transform="translate(-241.36 336.03) rotate(-45)"/><path class="cls-3" d="M94,405.82a7.45,7.45,0,0,0-5.24-8.12l-.15-.07a7.3,7.3,0,0,0-9.12,4.83v.12a8,8,0,0,0-.22,3.25A27.85,27.85,0,0,1,94,405.82Z"/><path class="cls-4" d="M78,487.12a8.5,8.5,0,1,0,17,0Z"/><path class="cls-5" d="M119.08,469.25h0a28.81,28.81,0,0,1-1.4-2.58,26.16,26.16,0,0,1-1-2.66c-.21-.67-.41-1.35-.59-2,.19.66.38,1.31.59,2q-.37-1.13-.69-2.29a52.15,52.15,0,0,1-1.21-6c-.06-.42-.13-.84-.17-1.26a6.18,6.18,0,0,0,.14,1,10,10,0,0,0-.14-1,6,6,0,0,0-.15-1.18c-.07-.81-.15-1.7-.22-2.58-.3-3.62-.44-7.83-.44-12.92a32.8,32.8,0,0,0-.3-4.65c-.15-1-.3-2-.52-3a40.62,40.62,0,0,0-1.18-4.28c-.15-.44-.37-.89-.52-1.33a32.26,32.26,0,0,0-2.58-5,17.15,17.15,0,0,0-1.62-2.22c-.59-.74-1.18-1.4-1.77-2.07a36.09,36.09,0,0,0-3-2.73c-.37-.3-.74-.52-1.11-.81a27.2,27.2,0,0,0-4.8-2.58c-.81-.3-1.55-.59-2.36-.81a27.85,27.85,0,0,0-14.77,0c-12,3.4-19.87,15.21-19.87,29.39,0,19.94-2.66,27.25-5.39,31.53Z"/><path class="cls-6" d="M124.69,480.92v-.15a2,2,0,0,0-.07-.66v-.22a8.71,8.71,0,0,0-.3-1.48v-.15c-.07-.22-.07-.37-.15-.59v-.07a2.28,2.28,0,0,1-.17-.6v-.07a1,1,0,0,1-.15-.44v-.15c-.15-.37-.3-.74-.44-1v-.07l-.22-.44-.3-.44v-.07l-.3-.44-.44-.66L122,473H51.44l-.15.22-.44.66V474l-.22.37-.07.07-.3.44-.3.44-.07.07a3.61,3.61,0,0,0-.22.52c-.07.15-.15.37-.22.52l-.07.15a1,1,0,0,0-.15.44l-.07.15a1.73,1.73,0,0,0-.15.59v.07c-.07.15-.07.37-.15.52l-.07.15c-.07.22-.07.44-.15.66s-.07.52-.15.74v.1c0,.22-.07.44-.07.66v.15c0,.3-.07.59-.07.81v2.29L95,484h29.76v-2.22C124.77,481.51,124.69,481.22,124.69,480.92Z"/><polygon class="cls-7" points="76.44 44.01 67.64 44.01 67.64 102.03 58.4 102.03 58.4 133.21 85.68 133.21 85.68 102.03 76.44 102.03 76.44 44.01"/><polygon class="cls-8" points="39.36 44.01 20.87 44.01 20.87 133.21 48.24 133.21 48.24 102.03 39.36 102.03 39.36 44.01"/><polygon class="cls-9" points="115.5 44.01 104.72 44.01 104.72 102.03 96.74 102.03 96.74 133.21 124.02 133.21 124.02 102.03 115.5 102.03 115.5 44.01"/><polygon class="cls-10" points="143.78 44.01 143.78 102.03 134.35 102.03 134.35 133.21 161.73 133.21 161.73 44.01 143.78 44.01"/><path class="cls-11" d="M711.8,108.5c-2.4-9-19.1-20.7-20.7-29.3s-.7-12.1,3.2-14.4c7.2-4.5,5.6-8-2.5-7.1-6.3.4-38.3-.7-43.6-1.2-4.7-.7-9,2.4,0,7.1,9.6,4.5,7.2,14.8,13,24.3,3.4,5.5,8.5,12.6,19.7,23.1,6,5.5,6.4,11.8,1.1,13.9-2.3,1.2-7.3-.6-8.6-5.4h0L652.5,94.7c2.8-3.1,3.4-7.3,1.2-10.1s-6.1-3-9.7-1.2l-6.1-7.3c2.2-3,2.6-6.7.6-9.2s-6-3-9.5-1.3l-5.1-6.1c2.5-3.1,3.1-7.1,1-9.7s-6-3-9.5-1.3C613,45.8,605.9,37,600,30.7c-6.5-7.3-19.5-10.3-25.6-1.5-7.4,11,2.3,18.1-5.9,28.7l7,9.1a40.69,40.69,0,0,0,3.7-5.5c2.5-5.2,2.6-14.3,2.6-14.3s-.3-8.3,3.9-2.3c4.6,5.2,58.5,81.1,58.5,81.1l.1.2h0c1.6,2.6,20.5,33.5,47.9,22.5,8.1-3.5,10.8-5.5,15.3-12.5C712.7,128.9,715.2,121.1,711.8,108.5ZM640,95.5a6.62,6.62,0,0,0,4.5,2.5A5.63,5.63,0,0,1,640,95.5Zm39.6-3.8a6.94,6.94,0,1,1,4.9-8.5h0A6.94,6.94,0,0,1,679.6,91.7ZM692.7,107a6.9,6.9,0,1,1,4.8-8.5h0a6.88,6.88,0,0,1-4.76,8.49h0Z"/><path class="cls-12" d="M551.1,65c-1,3.5-2,4.4-2.8,6.6,0,0,8.4,7.4,20.1.4-.3-1.2-5.6-8.8-5.6-8.8A21.18,21.18,0,0,1,551.1,65Z"/><path class="cls-13" d="M516.7,102.4a19.55,19.55,0,0,0-9-7.3,11.85,11.85,0,0,1-4.4-2.8,12.08,12.08,0,0,1-3.3-5.8,4.53,4.53,0,0,0-2.8-3.6,3.45,3.45,0,0,0-3.7.9l-.6.8c-1.8,3.4-7.3,4.1-11.1,1.6l-6-3.9c-2.7-1.8-4.9-4.7-5.1-7a3.43,3.43,0,0,1,1.6-3.2l.3-.3a3.38,3.38,0,0,0,.7-3.7,4.38,4.38,0,0,0-4-2.6,2.75,2.75,0,0,1-1.5-.8,8.58,8.58,0,0,1-1.3-2,19.12,19.12,0,0,0-5.9-7.6c-8.8-7.4-22.3-7.4-32.1-.5h0L409.9,37.2l-3.1-2.9,3.1-3.1a2.51,2.51,0,0,0,3.26-1.4v-.1a2.56,2.56,0,0,0-4.8-1.8h0a3.08,3.08,0,0,0,0,1.9l-3.1,3.1-4.1-3.8,3.3-3.3a2.51,2.51,0,0,0,3.26-1.4v-.1a2.56,2.56,0,0,0-4.8-1.8,3.08,3.08,0,0,0,0,1.9l-3.3,3.3-1.2-1.2a2.41,2.41,0,0,0-.7-1.8L394,21.1a2.48,2.48,0,0,0-3.4,0h0l-.2.2L387,24.8l-.2.2a2.48,2.48,0,0,0,0,3.4h0l3.6,3.6a2.41,2.41,0,0,0,1.8.7l1.2,1.2-3.3,3.4a2.51,2.51,0,0,0-3.26,1.4v.1a2.48,2.48,0,0,0,1.3,3.2l.16.06a2.51,2.51,0,0,0,3.26-1.4v-.1a3.08,3.08,0,0,0,0-1.9l3.3-3.3,3.8,4.1-3.1,3.1a2.56,2.56,0,1,0,1.5,3.3,3.08,3.08,0,0,0,0-1.9l3.1-3.1,2.9,3.1,17.4,18.6h0c-6.9,9.8-6.9,23.4.5,32.1a19.12,19.12,0,0,0,7.6,5.9,8.58,8.58,0,0,1,2,1.3,1.9,1.9,0,0,1,.8,1.5,4.45,4.45,0,0,0,2.5,4,3.38,3.38,0,0,0,3.7-.7l.3-.3a3.18,3.18,0,0,1,3.2-1.5c2.3.2,5.2,2.4,7,5.1l3.9,6c2.5,3.8,1.8,9.3-1.6,11.1l-.8.6a3.65,3.65,0,0,0-.9,3.7,4.39,4.39,0,0,0,3.5,2.8,12.08,12.08,0,0,1,5.8,3.3,10.72,10.72,0,0,1,2.8,4.4,19.55,19.55,0,0,0,7.3,9c11.6,7.1,26,3.9,38.5-8.6h0l.6-.6.6-.6h0C520.6,128.3,523.8,113.9,516.7,102.4Zm-59.5-3.2a2.61,2.61,0,0,0-2-1h0a2.61,2.61,0,0,1,2,1,2.52,2.52,0,0,1,.6,2,1.09,1.09,0,0,1-1.1.9h0a1.17,1.17,0,0,0,1.1-.9A2.32,2.32,0,0,0,457.2,99.2Zm2,18.2a.94.94,0,0,1,1,1c0,.4.5.7.8.8h0c-.3-.1-.8-.4-.8-.8A1,1,0,0,0,459.2,117.4Zm4.7,2.6a2.65,2.65,0,0,0,.5-.6c1.6-2.3.5-5.6-3.1-9.2-1.1-1.1-2.2-2.2-3.3-3.2a33.41,33.41,0,0,1-3.2-3.3c-.7-.9-1.2-2.4-.8-2.9a1.52,1.52,0,0,1,1.1-.6h0a1.74,1.74,0,0,0-1.1.6c-.4.5.1,2,.8,2.9A25,25,0,0,0,458,107c1.1,1,2.2,2.1,3.3,3.2,3.5,3.6,4.7,6.9,3.1,9.2a2.65,2.65,0,0,1-.5.6,3.89,3.89,0,0,1-2.8,1.3,4.86,4.86,0,0,0,2.8-1.3ZM448.5,92h0l4.8-4.8h0l4.8-4.8h0l-4.8,4.8,20,20h0l-20-20Zm34.8,1.2a.94.94,0,0,0,.88,1h.12c.4,0,.7.5.8.8h0c-.1-.3-.4-.8-.8-.8A1,1,0,0,1,483.3,93.2Zm3.8,1.9a3.72,3.72,0,0,1-1.3,2.8,2.65,2.65,0,0,1-.6.5c-2.3,1.6-5.6.5-9.2-3.1-1.1-1.1-2.2-2.2-3.2-3.3a33.41,33.41,0,0,0-3.3-3.2c-.9-.7-2.4-1.2-2.9-.8a1.52,1.52,0,0,0-.6,1.1h0a1.74,1.74,0,0,1,.6-1.1c.5-.4,2,.1,2.9.8a25,25,0,0,1,3.3,3.2c1,1.1,2.1,2.2,3.2,3.3,3.6,3.6,6.9,4.7,9.2,3.1.2-.2.4-.3.6-.5a3.41,3.41,0,0,0,1.3-2.8Zm-23-5.8a2.61,2.61,0,0,0,1,2,2.52,2.52,0,0,0,2,.6,1.09,1.09,0,0,0,.9-1.1h0a1.17,1.17,0,0,1-.9,1.1,3,3,0,0,1-2-.6A2.78,2.78,0,0,1,464.1,89.3Zm7.6,26.1,4.8-4.9h0l4.8-4.9h0l-4.9,4.9,12.9,12.9h0l-12.9-12.9-4.7,4.9Zm-72.1-85,1.3-1.3h0Zm-4.5,4.4,1.3-1.3h0Z"/><polygon class="cls-14" points="382.09 54.11 402.29 153.01 406.5 152.4 386.3 53.4 382.09 54.11"/><path class="cls-15" d="M393.4,63.5l.8-.1a1.85,1.85,0,0,0,1.71-2v-.28l-.4-1.9a2.06,2.06,0,0,0-2.5-1.5h0l-5.8.9,1.1,5.6,2.31-.5,17.1,83.8-2.31.5.9,4.3,4.9-.8-.9-4.3Z"/><polygon class="cls-16" points="242.2 23.9 242.2 18.7 240 18.7 219.5 18.7 217.3 18.7 217.3 23.9 221 23.9 223.4 32.2 223.4 151 213.4 151 213.4 157.8 236.1 157.8 236.1 151 236.1 151 236.1 32.2 238.5 23.9 242.2 23.9"/><path class="cls-17" d="M329.2,101.5h0c-.3-8.4-8.5-15.4-17.6-15.4a20.42,20.42,0,0,1-20.4-20.4,33.5,33.5,0,0,0-33.5-33.5H241.5V148.1h0v9.6h8.6l68.6-39.2C331.4,111.1,329.2,101.5,329.2,101.5Zm-11-6.9v12.8l-5.5,2.9v-16A25.74,25.74,0,0,1,318.2,94.6Zm-8.6,17.3-5.5,2.9V93.5a33.14,33.14,0,0,0,5.5.8Zm-8.5-19.3v23.9l-5.5,2.9V90A39.35,39.35,0,0,0,301.1,92.6Zm-8.5-4.7V121l-5.5,2.9V82.2A29.81,29.81,0,0,0,292.6,87.9ZM282,65.7a29.34,29.34,0,0,0,2.1,10.9v48.9l-5.5,2.9V53.6A22.6,22.6,0,0,1,282,65.7Zm-6.4-16.3V130l-5.5,2.9V45A23.66,23.66,0,0,1,275.6,49.4Zm-8.5,85.2-5.5,2.9V41.8a26.36,26.36,0,0,1,5.5,1.5Zm-8.5-93v97.6l-5.5,2.9V41.5h4.6A2.77,2.77,0,0,1,258.6,41.6Zm-14,0h5.5V143.7l-5.5,2.9Zm76.6,64.3v-10c2.1,1.2,3.8,3.5,4.5,7.7Z"/><path class="cls-18" d="M474.8,467c-.1-.1-.2-.1-.2-.2Z"/><path class="cls-19" d="M485,287.9a23.54,23.54,0,0,1-4.4-1.7c-2.2,7-6.9,20.4-12.2,27.5-4.1,5.6-5.8,11.8-4.3,16.2,1,3.1,3.4,5.2,7.1,6.3h.2a13.45,13.45,0,0,0,3.5.5,9.54,9.54,0,0,0,6.9-3c2.9-3.2,4.4-8.9,3.9-15.1-.8-8.8,2.3-22.8,4.1-29.9A24.05,24.05,0,0,1,485,287.9Zm-8,45.3c-2.2,1-4-2.3-1.8-3.3,4.9-2.2,3.9-8.2,3-12.5-.5-2.4,3.2-3.3,3.6-1,1.3,6,1.8,13.8-4.8,16.8Z"/><path class="cls-20" d="M499.6,236.5a56.06,56.06,0,0,1,20.5,10.4,27.11,27.11,0,0,0-18.3-18.3,24.37,24.37,0,0,0-7.1-1,27.86,27.86,0,0,0-18,6.9,45.83,45.83,0,0,1,6.4-.4A57.79,57.79,0,0,1,499.6,236.5Z"/><path class="cls-21" d="M498.2,241.3a55.31,55.31,0,0,0-15.2-2.2,33.43,33.43,0,0,0-12.1,2,30.57,30.57,0,0,0-2.9,5.7,16,16,0,0,1,9.1,1.9c4.4,2.7,7.2,3.8,12.2,3a7.06,7.06,0,0,1,3.8.5c3.5,1.8,7.8,8.2,12.3,6.4a14.22,14.22,0,0,1,5-1.3c3.4-.4,7.2,2.7,10.3,5.5a35.49,35.49,0,0,0,.8-7.3C517.2,249.8,508.7,244.3,498.2,241.3Z"/><path class="cls-22" d="M507.3,261.9a13.19,13.19,0,0,1-4.4,1.3c-3.2.4-5.8-3.3-7.9-5.1-6-5.4-8.7.7-14.1-1.8a11.3,11.3,0,0,1-4.3-2.9c-3.1-2.9-6.3-3.1-9.7-2.8a34.17,34.17,0,0,0-.9,6.3,26,26,0,0,0,3,3.6c4.9,4.8,12.2,8.7,20.5,11.1a55.15,55.15,0,0,0,15.1,2.2,32,32,0,0,0,12.6-2.3,28.13,28.13,0,0,0,2.1-4.7C516.3,263.8,511.9,260,507.3,261.9Z"/><path class="cls-23" d="M488.3,276.3a55.1,55.1,0,0,1-21.4-11.2,27.89,27.89,0,0,0,12.3,17.5c.4.2.7.5,1.1.7s.7.4,1.1.6a22.63,22.63,0,0,0,4.3,1.7,23.29,23.29,0,0,0,4.6.8c.4,0,.8.1,1.3.1s.8.1,1.3.1h0a27.9,27.9,0,0,0,19.6-8.4,47.72,47.72,0,0,1-7.6.6A61.76,61.76,0,0,1,488.3,276.3Z"/><path class="cls-24" d="M432.4,276.1a25.21,25.21,0,0,1-5.4,2.1,38.19,38.19,0,0,1-5.7,1.1c2.2,8.8,6,26.2,5,37.2-.7,7.8,1.1,14.8,4.7,18.8a11.28,11.28,0,0,0,8.5,3.8,15.93,15.93,0,0,0,4.3-.6h.2c4.6-1.4,7.5-4,8.7-7.9,1.8-5.5-.2-13.2-5.3-20.2C440.9,301.6,435.1,284.8,432.4,276.1Zm4.4,58.6c-8-3.7-7.4-13.3-5.9-20.8.6-3,5.1-1.8,4.5,1.2-1.1,5.4-2.3,12.8,3.7,15.5C441.8,331.9,439.5,336,436.8,334.7Z"/><path class="cls-25" d="M429.4,211.2a52.53,52.53,0,0,1,7.9.6,33.7,33.7,0,0,0-22.2-8.6,28.22,28.22,0,0,0-8.7,1.3c-11.1,3.2-19.1,12-22.5,22.8a68.13,68.13,0,0,1,25.2-13A73.44,73.44,0,0,1,429.4,211.2Z"/><path class="cls-26" d="M395.7,240.1a16.23,16.23,0,0,1,6.1,1.6c5.5,2.3,10.7-5.7,15.1-7.9a7.64,7.64,0,0,1,4.7-.6c6.3,1.1,9.6-.4,15.1-3.7a18.3,18.3,0,0,1,11.2-2.4,39,39,0,0,0-3.5-7.1,39.92,39.92,0,0,0-14.9-2.5,70,70,0,0,0-18.7,2.8C398,224,387.4,230.9,382.2,238a39.66,39.66,0,0,0,1,9.1C386.8,243.5,391.5,239.7,395.7,240.1Z"/><path class="cls-27" d="M421.3,257.9c10.2-3,19.2-7.9,25.2-13.8a40,40,0,0,0,3.8-4.4,41.76,41.76,0,0,0-1.1-7.9c-4.2-.4-8.2-.1-12,3.5a13.89,13.89,0,0,1-5.3,3.6c-6.7,3.1-9.9-4.5-17.4,2.2-2.5,2.2-5.7,6.9-9.7,6.4a14.66,14.66,0,0,1-5.4-1.6c-5.6-2.3-11,2.4-15,6.2a37.94,37.94,0,0,0,2.6,5.8,39.09,39.09,0,0,0,15.5,2.8A70.11,70.11,0,0,0,421.3,257.9Z"/><path class="cls-28" d="M431.5,273.1c.5-.2,1-.5,1.4-.7s.9-.6,1.3-.8a35,35,0,0,0,15.1-21.7c-6.7,6.1-15.9,11-26.4,14a73.34,73.34,0,0,1-20.3,3,57.41,57.41,0,0,1-9.3-.8,34.19,34.19,0,0,0,24.1,10.4h0c.5,0,1-.1,1.6-.1s1-.1,1.6-.1a28.51,28.51,0,0,0,10.9-3.2Z"/><polygon class="cls-29" points="292.6 243.4 285.6 233.1 275.3 240.1 266.3 231.4 257.7 240.4 247.2 233.7 240.6 244.2 229 239.9 243.9 294.4 252.2 300 255.3 290.5 262.2 297.7 267.2 289.1 272.6 297.6 279.4 290.1 282.8 299.5 291 293.6 304.2 238.8 292.6 243.4"/><path class="cls-30" d="M200,239.3l2.4,8.7-13.7,4.3,17.1,55.3,12.2-3.8,2,7.3,20.5-5.8-20.1-71.8Zm11.1,14.9a4.72,4.72,0,1,1,5.8,3.3h0A4.73,4.73,0,0,1,211.1,254.2Zm19.5,36.7a4.72,4.72,0,1,1-5.8-3.3h0a4.57,4.57,0,0,1,5.72,3Zm-5.3-19.2a4.72,4.72,0,1,1-5.8-3.3h0a4.69,4.69,0,0,1,5.78,3.24Z"/><path class="cls-31" d="M346.3,240.7a11.31,11.31,0,0,0-3.9-1.7l-6.3-1.5,1.5-6.2-23.5-5.5-19.3,82.5,23.5,5.5,2.3-10.2,6.6,1.5c7.2,1.6,14.5-3.7,16.4-12l8.3-36.2C353.4,250.5,351.2,244,346.3,240.7Zm-30,5.9a4.67,4.67,0,1,1,3.5,5.6h0a4.52,4.52,0,0,1-3.57-5.3.7.7,0,0,1,.07-.3Zm-.1,42.2a4.67,4.67,0,1,1-3.5-5.6h0a4.59,4.59,0,0,1,3.54,5.44ZM321,268a4.67,4.67,0,1,1-3.5-5.6h0A4.68,4.68,0,0,1,321,268Z"/><polygon class="cls-32" points="560.5 319 560.5 324.6 631.5 324.6 702.4 324.6 702.4 319 631.5 319 560.5 319"/><polygon class="cls-33" points="702.4 259.4 702.4 254.1 631.5 254.1 560.5 254.1 560.5 259.4 631.5 259.4 702.4 259.4"/><path class="cls-34" d="M560.5,265.1v48.5H702.4V265.1Zm21.7,43.5a5.1,5.1,0,1,1,5.1-5.1h0a5.06,5.06,0,0,1-5,5.1Zm0-28.7a5.1,5.1,0,1,1,5.1-5.1h0a5.06,5.06,0,0,1-5,5.1Zm49.3,28.8a5.1,5.1,0,1,1,5.1-5.1h0a5.12,5.12,0,0,1-5.1,5.1ZM681.8,270a5.1,5.1,0,1,1-5.1,5.1h0A5.12,5.12,0,0,1,681.8,270Zm0,28.7a5.1,5.1,0,1,1-5.1,5.1h0A5.12,5.12,0,0,1,681.8,298.7ZM636.6,275a5.1,5.1,0,1,1-5.1-5.1h0a5.06,5.06,0,0,1,5.1,5Z"/><path class="cls-35" d="M560.5,298.5a5.1,5.1,0,0,0,0,10.2Z"/><path class="cls-36" d="M560.5,279.9V269.7a5.12,5.12,0,0,0-5.1,5.1,5.06,5.06,0,0,0,5,5.1h.1Z"/><path class="cls-37" d="M702.4,280a5.1,5.1,0,1,0,.4-10.2h-.5V280Z"/><path class="cls-38" d="M702.4,298.5v10.2a5.12,5.12,0,0,0,5.1-5.1,5.06,5.06,0,0,0-5-5.1Z"/><path class="cls-39" d="M693.2,217.8a3.7,3.7,0,1,0,.6-5.2,3.55,3.55,0,0,0-1.4,2.5l-51.6,10.6,11.3,2.4Z"/><polygon class="cls-40" points="563.9 242.7 565.6 250 621.8 235.7 610.5 232.8 563.9 242.7"/><path class="cls-41" d="M566.3,219.2a3.9,3.9,0,0,0,3.8-1.3l50.3,12.7,11.3,2.8L697.8,250l1.7-7.4L643,230.5l-11.3-2.4L570.9,215a3.73,3.73,0,1,0-7.4,1A3.86,3.86,0,0,0,566.3,219.2Z"/><path class="cls-42" d="M144,262.3a3.13,3.13,0,1,0,.5-4.4,3,3,0,0,0-1.2,2.1l-14.2,2.9V243.5h-4.7v20.4L99.7,269l9.5,2,15.2-3.8V278l-23-4.9L91.9,271l-37.6-8.1V221.2H49.6v40.7l-9-1.9a3.13,3.13,0,1,0-2.71,3.5h0a3,3,0,0,0,2.1-1.2l9.7,2.4v15.4l-15,3.2,1.5,6.2L49.7,286v12.4L36.1,323H30.5v3.9H45V323H41.4l4-7.1H58.7l3.9,7.1H59v3.9H73.5V323H67.9L54.4,298.4V284.8l29.3-7.5-9.5-2.4-19.8,4.2V265.9L82.5,273l9.5,2.4,32.5,8.2v14.8L110.9,323h-5.6v3.9h14.5V323h-3.6l3.9-7.1h13.3l3.9,7.1h-3.6v3.9h14.5V323h-5.6l-13.5-24.6V284.8l18.7,4.7,1.5-6.2L129.2,279V266ZM47.9,311.2l4.1-7.4,4.1,7.4Zm74.8,0,4.1-7.4,4.1,7.4Z"/><path class="cls-43" d="M52,218.8H97.4V217s-28.3-.6-30.7-.6-8.5-2.5-14.6-2.5h0c-6.2,0-12.3,2.5-14.6,2.5s-30.7.6-30.7.6v1.8Z"/><path class="cls-44" d="M141.4,233.4c-2.4,0-8.5-2.5-14.6-2.5h0c-5.4,0-10.7,1.9-13.6,2.4a4.1,4.1,0,0,1-1.1.1c-2.4,0-30.7.6-30.7.6v3.6s28.3.6,30.7.6a4.1,4.1,0,0,1,1.1.1c2.8.5,8.2,2.4,13.6,2.4h0c6.2,0,12.2-2.5,14.6-2.5s30.7-.6,30.7-.6V234C172.1,234.1,143.8,233.4,141.4,233.4Z"/><polygon class="cls-45" points="131.2 231 131.2 228 129.1 228 129.1 225.6 124.4 225.6 124.4 228 122.3 228 122.3 231 126.8 231 126.8 231 131.2 231"/><path class="cls-46" d="M506.51,445.44l4.65-4.49a7.23,7.23,0,0,0,.2-10.22h0a6.17,6.17,0,0,0-2-1.45,7.13,7.13,0,0,0-8.25,1.23L496.4,435a7.27,7.27,0,0,0-10.1-10.46l-9.61,9.28c.42,2.3.22,4.27-1.6,6l5.09,5.16a7.24,7.24,0,0,1-.09,10.24h0l-8.88,8.5,5,5,.26.26h0a7.22,7.22,0,0,1-.28,10.11L458,496.77l6.74,7a16.17,16.17,0,0,0,22.85.4l25.17-24.31a7.27,7.27,0,0,0-10.1-10.46l13.95-13.47a7.27,7.27,0,0,0-10.1-10.46h0Z"/><path class="cls-47" d="M453.61,405.66a3.67,3.67,0,0,0,3.74-3.6h0l.36-20.78a3.67,3.67,0,0,0-7.34-.13h0L450,401.93a3.67,3.67,0,0,0,3.61,3.73Z"/><path class="cls-48" d="M471.9,399.71l-10.57,10.21a3.67,3.67,0,1,0,5.1,5.28L477,405a3.67,3.67,0,0,0-5.1-5.28Z"/><path class="cls-49" d="M430.35,399a3.67,3.67,0,0,0-.09,5.19h0l10.21,10.57a3.67,3.67,0,1,0,5.28-5.1l-10.21-10.57a3.67,3.67,0,0,0-5.19-.09Z"/><path class="cls-50" d="M467,476.21a7.4,7.4,0,0,0-8.18-4,.57.57,0,0,1-.53-1l11-10.64a7.29,7.29,0,0,0-6.68-12.32.56.56,0,0,1-.53-.94l1.61-1.56a7.41,7.41,0,0,0,.21-10.48h0A6,6,0,0,0,462,434a7.13,7.13,0,0,0-8.25,1.23l-3.09,3h0a.17.17,0,0,1-.24,0h0c-.07-.07,0-.15,0-.26a7.24,7.24,0,0,0-1.25-8.62c-2.77-2.78-7.62-2.54-10.44.19L405,462a.51.51,0,0,1-.86-.38l.22-10.6a6.47,6.47,0,0,0-12.87-1.14l-4.61,19.73a13,13,0,0,0,3.46,11l11.23,11.62,15.65,16.2a16.3,16.3,0,0,0,23,.4l25.31-24.45A7.06,7.06,0,0,0,467,476.21Z"/><path class="cls-51" d="M596.53,468.57a113.27,113.27,0,0,1-14.3,12.37,29.83,29.83,0,0,0-7.95,6.7,25.46,25.46,0,0,0-5,9.47L571,498.9l8,8,1.79,1.79a25.46,25.46,0,0,0,9.47-5,29.83,29.83,0,0,0,6.7-7.95,113.27,113.27,0,0,1,12.37-14.3C613,478,625,467.86,625,467.86l-5.73-5.73-3.44-3.44L610.08,453S599.92,464.91,596.53,468.57Zm-3.82,22.68-3.44,3.4-6.34-6.34,3.42-3.42a4.5,4.5,0,1,1,6.36,6.36Z"/><path class="cls-52" d="M619,456.47l2.47,2.47,5.25,5.25,46.14-47.66-4.35-4.35-2.75-2.75-4.35-4.35-47.66,46.14Zm40.19-42.55a3.38,3.38,0,1,1,0,4.78A3.38,3.38,0,0,1,659.18,413.93Zm-8.9,8.9a3.38,3.38,0,1,1,0,4.78A3.38,3.38,0,0,1,650.28,422.82Zm-8.7,8.7a3.38,3.38,0,1,1,0,4.78A3.38,3.38,0,0,1,641.58,431.53Zm-8.9,8.9a3.38,3.38,0,1,1,0,4.78A3.38,3.38,0,0,1,632.68,440.43ZM624,449.12a3.38,3.38,0,1,1,0,4.78A3.38,3.38,0,0,1,624,449.12Z"/><path class="cls-53" d="M674.61,392.43c-2.35,2.76-2.49,1.52-4.21,2.28s-6.7,7.95-6.7,7.95l4.14,4.14,3.3,3.3,4.14,4.14s7.19-5,7.95-6.7-.48-1.87,2.28-4.21,7.58-5.78,7.58-5.78l-7.85-7.85-2.51-2.51-2.32-2.32S677,389.66,674.61,392.43Zm.86,13.8a2.67,2.67,0,1,1,0-3.78A2.67,2.67,0,0,1,675.47,406.23Z"/><rect class="cls-54" x="688.17" y="376.06" width="4.42" height="23.29" transform="translate(-71.94 601.73) rotate(-45)"/></svg>