<svg id="Layer_1" data-name="Layer 1" xmlns="http://www.w3.org/2000/svg" xmlns:xlink="http://www.w3.org/1999/xlink" viewBox="0 0 2048 1280"><defs><linearGradient id="linear-gradient" x1="947.76" y1="-7155.54" x2="1196.88" y2="-7155.54" gradientTransform="translate(0 7466.6)" gradientUnits="userSpaceOnUse"><stop offset="0" stop-color="#fff"/><stop offset="0.19" stop-color="#fff" stop-opacity="0.98"/><stop offset="0.39" stop-color="#fff" stop-opacity="0.94"/><stop offset="0.6" stop-color="#fff" stop-opacity="0.85"/><stop offset="0.8" stop-color="#fff" stop-opacity="0.74"/><stop offset="1" stop-color="#fff" stop-opacity="0.6"/></linearGradient><linearGradient id="linear-gradient-2" x1="770.79" y1="-7047.79" x2="1061.36" y2="-7047.79" xlink:href="#linear-gradient"/><linearGradient id="linear-gradient-3" x1="568.32" y1="-7116.72" x2="907.82" y2="-7116.72" xlink:href="#linear-gradient"/><linearGradient id="linear-gradient-4" x1="1105.32" y1="-7100.16" x2="1481.22" y2="-7100.16" xlink:href="#linear-gradient"/></defs><title>bg_intro</title><rect width="2048" height="1280" fill="#f9b180"/><g id="Layer_1-2" data-name="Layer 1"><rect x="547.95" y="1002.52" width="950.33" height="22.19" rx="6.54" ry="6.54" fill="#7e4c1a" opacity="0.2" style="isolation:isolate"/><rect x="532.11" y="203.82" width="991.84" height="755.49" fill="#eaa475"/><rect x="568.39" y="243.36" width="444.1" height="670.94" fill="#f9b180"/><rect x="1037.12" y="244.73" width="444.1" height="670.94" fill="#f9b180"/><polygon points="1480.85 712.39 1480.85 353.46 1459.95 353.46 1459.95 308.65 1441.65 308.65 1414.95 308.65 1414.95 354.04 1399.77 354.04 1399.77 662.56 1377.79 662.56 1377.79 620.64 1328.99 659.72 1328.99 557.46 1316.34 557.46 1316.34 537.96 1308.68 537.96 1308.68 557.46 1300.89 557.46 1300.89 537.96 1293.22 537.96 1293.22 557.46 1284.54 557.46 1284.54 615.92 1269.19 615.92 1269.19 616.57 1257.04 616.57 1257.04 413.92 1238.85 413.92 1238.85 354 1219.89 354 1219.89 328.68 1205.18 328.68 1203.2 298.35 1167.41 328.31 1167.38 328.68 1152.44 328.68 1152.44 354 1133.47 354 1133.47 413.92 1115.28 413.92 1115.28 457.09 1103.3 468.29 1103.3 591.29 1076.67 591.29 1076.67 630.71 1068.87 630.71 1068.87 387.85 984.56 387.85 984.87 651.86 984.9 671.9 979.98 671.9 898.59 615.98 898.59 327.52 875.56 327.52 875.56 279.03 819.18 279.03 819.18 327.52 769.14 327.52 769.14 457.41 687.98 423.67 687.98 551.63 680.79 551.63 680.79 491.63 662.86 491.63 629.64 491.63 629.64 641.35 567.75 641.35 567.75 916.02 661.7 916.02 683.68 916.02 772.5 916.02 772.5 915.86 895.88 915.86 899.12 915.86 957.51 915.86 984.87 915.86 985.21 915.86 1027.17 915.86 1076.67 915.86 1081.54 915.86 1269.19 915.86 1269.19 915.94 1378.89 915.94 1441.65 915.94 1481.26 915.94 1481.26 712.39 1480.85 712.39" fill="#7e4c1a" opacity="0.05" style="isolation:isolate"/><path d="M1186.5,277.7H1067c-5.72,0-10.35,4.2-10.37,9.37v4h0a3.88,3.88,0,0,1-4,3.66H989.07c-5.21,0-9.45,3.8-9.51,8.51v1.57c0,4.74,4.26,8.58,9.51,8.59h20.36c3.73,0,6.75,2.73,6.75,6.1s-3,6.1-6.75,6.1h-.36l.06.06h-51c-5.72,0-10.35,4.2-10.37,9.37h0c0,5.17,4.65,9.37,10.37,9.38h119.53c5.72,0,10.35-4.2,10.37-9.37h0v-.14h0v-2.63h0a3.89,3.89,0,0,1,4.07-3.67h44.09c5.71,0,10.33-4.21,10.34-9.37h0c0-5.18-4.63-9.39-10.37-9.41h-19.84c-4.1-.23-7.22-3.42-7-7.13a7.09,7.09,0,0,1,6.76-6.29h70.43c5.72,0,10.35-4.2,10.37-9.37h0C1196.89,281.88,1192.23,277.69,1186.5,277.7Z" opacity="0.1" fill="url(#linear-gradient)" style="isolation:isolate"/><path d="M1049.22,375.77H909.82a12.12,12.12,0,0,0-12.09,12.09v5.19h0a4.74,4.74,0,0,1-4.72,4.72H819a11.11,11.11,0,0,0-11.09,11v2A11.11,11.11,0,0,0,819,421.85h23.75a7.87,7.87,0,0,1,.56,15.73h-1l.07.07H782.88a12.12,12.12,0,0,0-12.09,12.09h0a12.12,12.12,0,0,0,12.09,12.1h139.4a12.12,12.12,0,0,0,12.09-12.09h0v-.18h0V446.2h0a4.74,4.74,0,0,1,4.75-4.73h51.42a12.12,12.12,0,0,0,12.06-12.09h0a12.12,12.12,0,0,0-12.09-12.11H967.37a8.68,8.68,0,0,1-.25-17.31h82.15a12.12,12.12,0,0,0,12.09-12.09h0a12.12,12.12,0,0,0-12.14-12.1Z" opacity="0.15" fill="url(#linear-gradient-2)" style="isolation:isolate"/><path d="M568.32,409.81H714.17A16.88,16.88,0,0,0,731,393h0v-.25h0V388h0a6.6,6.6,0,0,1,6.61-6.58h71.6A16.88,16.88,0,0,0,826,364.61h0a16.88,16.88,0,0,0-16.84-16.9H777a12.09,12.09,0,0,1-.35-24.1H891a16.88,16.88,0,0,0,16.84-16.84h0A16.88,16.88,0,0,0,890.91,290H696.83A16.88,16.88,0,0,0,680,306.79V314h0a6.6,6.6,0,0,1-6.57,6.57H568.53v33.53H603.4a11,11,0,0,1,0,21.91h-.65l.1.1H568.32" opacity="0.1" fill="url(#linear-gradient-3)" style="isolation:isolate"/><path d="M1481.14,300.82h-163.9a18.48,18.48,0,0,0-18.43,18.45v7.9h0a7.22,7.22,0,0,1-7.19,7.19H1178.75a16.93,16.93,0,0,0-16.9,16.74v3.08a16.93,16.93,0,0,0,16.9,16.88h36.2a12,12,0,0,1,0,24h-.71l.11.11h-90.6a18.48,18.48,0,0,0-18.43,18.43h0a18.48,18.48,0,0,0,18.43,18.45h212.47a18.48,18.48,0,0,0,18.43-18.43h0v-.27h0v-5.14h0a7.22,7.22,0,0,1,7.23-7.21h78.39a18.48,18.48,0,0,0,18.39-18.43h0a18.48,18.48,0,0,0-18.43-18.5H1405a13.23,13.23,0,0,1-.38-26.39h76.64" opacity="0.13" fill="url(#linear-gradient-4)" style="isolation:isolate"/><polygon points="567.56 762.74 1011.66 318.64 1011.66 244.73 929.36 244.73 567.56 606.53 567.56 762.74" fill="#fff" opacity="0.05" style="isolation:isolate"/><polygon points="567.56 518.41 841.24 244.73 761.62 244.73 567.56 438.8 567.56 518.41" fill="#fff" opacity="0.05" style="isolation:isolate"/><polygon points="1011.66 409.94 567.56 854.04 567.56 915.67 585.54 915.67 1011.66 489.55 1011.66 409.94" fill="#fff" opacity="0.05" style="isolation:isolate"/><polygon points="1481.22 335.17 1037.12 779.27 1037.12 915.67 1056.93 915.67 1481.22 491.38 1481.22 335.17" fill="#fff" opacity="0.05" style="isolation:isolate"/><polygon points="1037.12 691.15 1481.22 247.05 1481.22 244.73 1403.92 244.73 1037.12 611.54 1037.12 691.15" fill="#fff" opacity="0.05" style="isolation:isolate"/><polygon points="1227.84 915.67 1481.22 662.3 1481.22 582.68 1148.23 915.67 1227.84 915.67" fill="#fff" opacity="0.05" style="isolation:isolate"/><polygon points="813.57 998.78 723.04 998.78 711.79 880.68 824.82 880.68 813.57 998.78" fill="#d09269"/><rect x="705.32" y="880.68" width="125.96" height="22.95" fill="#da9b72"/><rect x="1006" y="667.9" width="37.49" height="277.2" fill="#da9b72"/><rect x="1006" y="820.59" width="37.49" height="30.21" fill="#d09269"/><rect x="1006" y="667.9" width="37.49" height="53.87" fill="#da9b72"/><path d="M1146.32,774.08a11.22,11.22,0,0,1-11.25,11.19H914.4a11.22,11.22,0,0,1-11.22-11.22,28.76,28.76,0,0,1,28.76-28.76h185.62a28.76,28.76,0,0,1,28.76,28.76Z" fill="#c3845b"/><path d="M931.94,759.08h185.62a28.77,28.77,0,0,1,27.51,20.19,11.16,11.16,0,0,0,1.29-5.21,28.76,28.76,0,0,0-28.76-28.76H931.94a28.76,28.76,0,0,0-28.76,28.76h0a11.16,11.16,0,0,0,1.29,5.21A28.77,28.77,0,0,1,931.94,759.08Z" fill="#c3845b"/><rect x="1006" y="890.08" width="37.49" height="55.02" fill="#d09269"/><rect x="980.46" y="812.3" width="88.58" height="28.02" fill="#d09269"/><path d="M1135.84,785.27H913.66a30.6,30.6,0,0,0,30.6,30.6h161A30.6,30.6,0,0,0,1135.84,785.27Z" fill="#b9805a"/><path d="M1124.71,970.8H1109V959.64l-84.24-13.78L940,959.64V970.8H924.3V953a7.86,7.86,0,0,1,6.6-7.76l92.59-15.06a7.9,7.9,0,0,1,2.53,0l92.05,15.06a7.86,7.86,0,0,1,6.59,7.76Z" fill="#c3845b"/><circle cx="932.16" cy="976.86" r="12.15" fill="#a7704a"/><path d="M948.85,977.17v-.3a16.7,16.7,0,1,0-33.4,0v.32Z" fill="#c3845b"/><circle cx="1116.85" cy="979.14" r="12.15" fill="#a7704a"/><path d="M1133.53,979.44v-.3a16.7,16.7,0,1,0-33.4,0h0v.3Z" fill="#c3845b"/><circle cx="1024.75" cy="977.48" r="12.15" fill="#a7704a"/><path d="M1041.43,977.78v-.3a16.7,16.7,0,0,0-33.4,0v.3Z" fill="#c3845b"/><rect x="1016.89" y="937.89" width="15.72" height="33.04" fill="#c3845b"/><rect x="931.18" y="500.75" width="187.14" height="209.57" rx="23.53" ry="23.53" fill="#b9805a"/><path d="M1118.32,522.61a21.86,21.86,0,0,0-21.86-21.86H953.07a21.86,21.86,0,0,0-21.86,21.86v29.47a21.86,21.86,0,0,1,21.86-21.86h143.39a21.86,21.86,0,0,1,21.86,21.86Z" fill="#c3845b"/><path d="M1553.25,448.21l6.28-4.45A11.85,11.85,0,0,0,1553.25,448.21Z" fill="#a7704a"/><rect x="696.02" y="689.56" width="638.22" height="30.94" fill="#b47a52"/><rect x="713.08" y="720.5" width="29.29" height="294.27" fill="#b47a52"/><polygon points="742.37 756.03 713.08 740.31 713.08 720.5 742.37 720.5 742.37 756.03" fill="#a46e49"/><rect x="1284.82" y="720.5" width="29.29" height="294.27" fill="#b47a52"/><polygon points="1314.11 756.03 1284.82 740.31 1284.82 720.5 1314.11 720.5 1314.11 756.03" fill="#a46e49"/><polygon points="753.11 880.68 747.37 860.74 768.3 858.45 785.64 850.17 804.58 869.56 811.46 880.68 753.11 880.68" fill="#fff" opacity="0.3" style="isolation:isolate"/><path d="M808.15,642.89h40.63a3.74,3.74,0,0,1,3.74,3.74v20.13a14.81,14.81,0,0,1-14.81,14.81H819.22a14.81,14.81,0,0,1-14.81-14.81V646.63A3.74,3.74,0,0,1,808.15,642.89Z" fill="#d09269"/><path d="M859.71,681.7H795.3A2.15,2.15,0,0,0,795,686h13.38a1.94,1.94,0,0,0,1.16,3.51h35.52a1.94,1.94,0,0,0,1.16-3.51h13.48a2.15,2.15,0,0,0,0-4.29Z" fill="#d09269"/><path d="M806.74,667.87H795.16a8.91,8.91,0,1,1,0-17.83h11.58v3.88H795.16a5,5,0,1,0,0,10.06h11.58Z" fill="#d09269"/><path d="M1242.81,560.35a11.1,11.1,0,0,0-10.24,6.79l-1.14,2.69,5.39,2.28,1.14-2.69a5.27,5.27,0,0,1,10.11,1.36l5.8-.76A11.14,11.14,0,0,0,1242.81,560.35Z" fill="#d09269"/><path d="M1235.27,568.27a12.35,12.35,0,0,0-17.47,0h0l-7.73,7.78,17.45,17.46,7.79-7.78A12.35,12.35,0,0,0,1235.27,568.27Z" fill="#d09269"/><path d="M1230.41,590.58l-17.46-17.46a29.64,29.64,0,0,0-31.44,6.72L1223.68,622A29.65,29.65,0,0,0,1230.41,590.58Z" fill="#d09269"/><path d="M1258,567.83a2.92,2.92,0,0,0-3.74-1.75h0l-8.52,3.1a2.93,2.93,0,0,0-1.75,3.75L1261.85,622l-19.51,53.6a2.92,2.92,0,0,0,2.7,3.92l9.58.17h0a2.93,2.93,0,0,0,2.75-1.92l18.82-51.71v-8.13Zm-5.37,106-3.4-.06,17.51-48.1,3,1.13Zm14.11-55.46-16.26-44.7,3-1.1,16.25,44.64Z" fill="#d09269"/><path d="M1260.85,622a9,9,0,1,0,9-9A9,9,0,0,0,1260.85,622Z" fill="#d09269"/><path d="M1227.51,661.41a2.93,2.93,0,0,0-2.93,2.93V676.6h5.85V664.34A2.93,2.93,0,0,0,1227.51,661.41Z" fill="#d09269"/><polygon points="1208.27 670.92 1196.47 686.71 1268.81 686.71 1268.81 670.92 1208.27 670.92" fill="#d09269"/><path d="M1268.76,689.64h-72.24a2.93,2.93,0,1,1-.34-5.85h72.59a2.93,2.93,0,1,1,.34,5.85h-.35Z" fill="#d09269"/><rect x="971.57" y="638.68" width="98.52" height="51.01" rx="2.05" ry="2.05" fill="#d09269"/><rect x="991.9" y="594.76" width="56.9" height="44.81" fill="#dca17a"/><path d="M972.09,679h97.45a5.37,5.37,0,0,1,5.37,5.37h0a5.37,5.37,0,0,1-5.37,5.37H972.09a5.37,5.37,0,0,1-5.37-5.37h0A5.37,5.37,0,0,1,972.09,679Z" fill="#c58c66"/><rect x="1012.56" y="282.53" width="24.44" height="217.88" fill="#eaa475"/></g></svg>