<svg id="Layer_1" data-name="Layer 1" xmlns="http://www.w3.org/2000/svg" viewBox="0 0 2048 1280"><title>bg_intro</title><rect width="2048" height="1280" fill="#a1dbff"/><rect x="528.06" y="1022.56" width="1011.88" height="23.63" rx="6.96" ry="6.96" fill="#82bfe8"/><rect x="668.67" y="355.73" width="699.51" height="347.91" rx="10.98" ry="10.98" fill="#82bfe8"/><rect x="685.26" y="372.33" width="662.65" height="317.15" rx="10.2" ry="10.2" fill="#a1dbff"/><path d="M827.69,394.4H762a5.72,5.72,0,0,0-5.7,5.7v2.45h0a2.24,2.24,0,0,1-2.23,2.23H719.12a5.24,5.24,0,0,0-5.23,5.18v1a5.24,5.24,0,0,0,5.23,5.22h11.2a3.71,3.71,0,0,1,0,7.42H702.1a5.72,5.72,0,0,0-5.7,5.7h0a5.72,5.72,0,0,0,5.7,5.71h65.73a5.72,5.72,0,0,0,5.7-5.7h0v-.08h0v-1.59h0a2.24,2.24,0,0,1,2.24-2.23H800a5.72,5.72,0,0,0,5.69-5.7h0a5.72,5.72,0,0,0-5.67-5.77H789.1a4.09,4.09,0,0,1-.12-8.16h38.74a5.72,5.72,0,0,0,5.7-5.7h0A5.72,5.72,0,0,0,827.69,394.4Z" fill="#f9fbff" opacity="0.42" style="isolation:isolate"/><path d="M1326,398h-97.33a8.47,8.47,0,0,0-8.45,8.45v3.62h0a3.31,3.31,0,0,1-3.3,3.3h-51.71a7.76,7.76,0,0,0-7.74,7.67v1.41a7.76,7.76,0,0,0,7.74,7.74h16.59a5.5,5.5,0,1,1,0,11h-.33l0,.05H1140a8.47,8.47,0,0,0-8.45,8.45h0a8.47,8.47,0,0,0,8.45,8.45h97.37a8.47,8.47,0,0,0,8.45-8.45h0v-.12h0v-2.37h0a3.31,3.31,0,0,1,3.32-3.3H1285a8.47,8.47,0,0,0,8.43-8.45h0A8.47,8.47,0,0,0,1285,427h-16.16a6.06,6.06,0,0,1-.18-12.07h57.38a8.47,8.47,0,0,0,8.45-8.45h0A8.47,8.47,0,0,0,1326,398Z" fill="#f9fbff" opacity="0.23" style="isolation:isolate"/><path d="M1061.87,404.94H939.09a10.68,10.68,0,0,0-10.65,10.65v4.57h0a4.17,4.17,0,0,1-4.16,4.16H859.07A9.78,9.78,0,0,0,849.3,434v1.78a9.78,9.78,0,0,0,9.77,9.76H880a6.93,6.93,0,0,1,0,13.86h-.41l.06.06H827.29a10.68,10.68,0,0,0-10.65,10.65h0a10.68,10.68,0,0,0,10.65,10.66H950.07a10.68,10.68,0,0,0,10.65-10.65h0v-.17h0v-3h0a4.17,4.17,0,0,1,4.17-4.17h45.3a10.68,10.68,0,0,0,10.62-10.65h0a10.68,10.68,0,0,0-10.65-10.69H989.78a7.65,7.65,0,0,1-.22-15.25h72.35a10.68,10.68,0,0,0,10.65-10.65h0A10.68,10.68,0,0,0,1061.87,404.94Z" fill="#f9fbff" opacity="0.25" style="isolation:isolate"/><path d="M1134.75,477h-67.83a5.9,5.9,0,0,0-5.89,5.89v2.52h0a2.31,2.31,0,0,1-2.3,2.3h-36a5.41,5.41,0,0,0-5.4,5.35v1a5.41,5.41,0,0,0,5.4,5.39h11.56a3.83,3.83,0,1,1,0,7.66h-29.15a5.9,5.9,0,0,0-5.89,5.89h0a5.9,5.9,0,0,0,5.89,5.89H1073a5.9,5.9,0,0,0,5.89-5.89h0v-.1h0V511.3h0a2.31,2.31,0,0,1,2.31-2.3h25a5.9,5.9,0,0,0,5.87-5.89h0a5.9,5.9,0,0,0-5.89-5.91h-11.24a4.22,4.22,0,0,1-.12-8.42h40a5.9,5.9,0,0,0,5.89-5.89h0A5.9,5.9,0,0,0,1134.75,477Z" fill="#f9fbff" opacity="0.42" style="isolation:isolate"/><path d="M685.57,689.26c0-4.42,105.13-137.14,105.13-137.14L896.43,644.3,992,583.09l74.14,57,105-132.2,85.49,117.45,35-19.17,58.85,32.77-.48,43.13-4.5,7.58-282.29.58Z" fill="#82bfe8" opacity="0.28" style="isolation:isolate"/><path d="M1120.8,606.74a8.65,8.65,0,0,0-16,.73l-40.29,111.47H944.75a8.65,8.65,0,1,0-.59,17.29h125a9.38,9.38,0,0,0,9.56-5.86l42.34-117A8.59,8.59,0,0,0,1120.8,606.74Z" fill="#6092b5"/><rect x="405.15" y="312.31" width="1232.65" height="11.21" fill="#82bfe8"/><rect x="931.27" y="230.35" width="215.55" height="80.83" rx="6.8" ry="6.8" fill="#82bfe8"/><rect x="495.46" y="223.05" width="252.03" height="88.13" rx="7.68" ry="7.68" fill="#82bfe8"/><rect x="970.55" y="230.29" width="15.4" height="80.64" fill="#a1dbff" opacity="0.5" style="isolation:isolate"/><rect x="1095.67" y="230.29" width="15.4" height="80.64" fill="#a1dbff" opacity="0.5" style="isolation:isolate"/><g opacity="0.2"><path d="M1039.25,250.13a19.42,19.42,0,0,1-19.4-19.4h4.69a14.71,14.71,0,1,0,29.42,0v0h4.69A19.42,19.42,0,0,1,1039.25,250.13Z" fill="#1d1d1b"/></g><path d="M576.19,656.7l-10.47,2.39a2.32,2.32,0,0,1-2.51-2L544.83,579.8a2.32,2.32,0,0,1,1.38-2.91l11.64-2.29a2.32,2.32,0,0,1,2.51,2l17.21,77.18A2.32,2.32,0,0,1,576.19,656.7Z" fill="#6092b5"/><path d="M646.44,881.11,636,883.5a2.32,2.32,0,0,1-2.51-2l-18.39-77.31a2.32,2.32,0,0,1,1.38-2.91L628.1,799a2.32,2.32,0,0,1,2.51,2l17.21,77.18A2.32,2.32,0,0,1,646.44,881.11Z" fill="#6092b5"/><path d="M651.08,849.94l-35.33,9a6.78,6.78,0,0,1-8.23-4.87l-55-204.78a6.78,6.78,0,0,1,4.87-8.23L596.64,632a6.78,6.78,0,0,1,8.23,4.87L656,841.66a6.78,6.78,0,0,1-4.85,8.27Z" fill="#74a8cb"/><path d="M601.79,608.71,556.71,619c-4.59,1-8.61.8-8.92-.56l-20.62-76.77c-.31-1.36,3.19-3.33,7.79-4.38l49.85-11c4.59-1,8.61-.8,8.92.56l15.85,77.49C609.89,605.69,606.38,607.66,601.79,608.71Z" fill="#80b5d3"/><path d="M819.13,1022.38H633.39a8.35,8.35,0,0,1-8.33-8.33V904.94a8.35,8.35,0,0,1,8.33-8.33H779.56a8.35,8.35,0,0,1,8.32,8.33l39.58,109.14A8.35,8.35,0,0,1,819.13,1022.38Z" fill="#80b5d3"/><path d="M1014.26,754.29h23.11V939.53a8,8,0,0,1-8,8h-7.18a8,8,0,0,1-8-8V754.29h.07Z" fill="#6092b5" opacity="0.49" style="isolation:isolate"/><path d="M721.06,888.17h-83a7,7,0,0,1-7-7v-8.44c0-3.3-.51-6,72.84-6h17.22a7,7,0,0,1,7,7v7.37a7,7,0,0,1-6.93,7.07Z" fill="#6092b5"/><path d="M848,848H661.92a8.85,8.85,0,0,0-8.83,8.83v12.57h64.34a8.07,8.07,0,0,1,0,16.13H653.09v2.69a8.85,8.85,0,0,0,8.83,8.83H848a8.85,8.85,0,0,0,8.83-8.83V856.82A8.85,8.85,0,0,0,848,848Z" fill="#74a8cb"/><path d="M856.8,857.06a8.85,8.85,0,0,0-8.82-8.82H661.92a8.85,8.85,0,0,0-8.83,8.83" fill="#82bfe8"/><path d="M920.18,736.3h217.55a8.14,8.14,0,0,1,8.14,8.14h0v9a1.88,1.88,0,0,1-1.88,1.88H913.92a1.88,1.88,0,0,1-1.88-1.88h0v-9a8.14,8.14,0,0,1,8.14-8.14Z" fill="#74a8cb"/><path d="M1018.9,939.83h13.36a36.15,36.15,0,0,1,36.15,36.11v41.65a4.81,4.81,0,0,1-4.81,4.81h-76a4.81,4.81,0,0,1-4.81-4.81V975.94a36.15,36.15,0,0,1,36.15-36.15h0Z" fill="#74a8cb"/><path d="M650,934.29H766.1a2.72,2.72,0,0,1,2.72,2.72h0a2.72,2.72,0,0,1-2.72,2.72H650a2.72,2.72,0,0,1-2.72-2.72h0A2.72,2.72,0,0,1,650,934.29Z" fill="#6092b5"/><path d="M650,954.65H766.1a2.72,2.72,0,0,1,2.72,2.72h0a2.72,2.72,0,0,1-2.72,2.72H650a2.72,2.72,0,0,1-2.72-2.72h0A2.72,2.72,0,0,1,650,954.65Z" fill="#6092b5"/><path d="M650,975H766.1a2.72,2.72,0,0,1,2.72,2.72h0a2.72,2.72,0,0,1-2.72,2.72H650a2.72,2.72,0,0,1-2.72-2.72h0A2.72,2.72,0,0,1,650,975Z" fill="#6092b5"/><path d="M786.91,897.28v4a8.47,8.47,0,0,1-8.44,8.44H655a8.47,8.47,0,0,1-8.44-8.44v-4" fill="#74a8cb"/><path d="M786.91,897.48v4a8.47,8.47,0,0,1-8.44,8.44H655a8.47,8.47,0,0,1-8.44-8.44v-4" fill="#394f7c" opacity="0.32" style="isolation:isolate"/><path d="M580.13,528.15l9.57-2.07a3.25,3.25,0,0,1,3.81,2.54l15.13,75.73a3.25,3.25,0,0,1-2.54,3.81l-9.57,2.07" fill="#82bfe8"/><path d="M594.82,632.61a8.73,8.73,0,0,1,10.59,6.28l51.33,201a8.73,8.73,0,0,1-6.28,10.59" fill="#82bfe8"/><path d="M1479.68,656.7l10.47,2.39a2.32,2.32,0,0,0,2.51-2L1511,579.8a2.32,2.32,0,0,0-1.38-2.91L1498,574.58a2.32,2.32,0,0,0-2.51,2l-17.21,77.18A2.32,2.32,0,0,0,1479.68,656.7Z" fill="#6092b5"/><path d="M1409.43,881.11l10.47,2.39a2.32,2.32,0,0,0,2.51-2l18.38-77.29a2.32,2.32,0,0,0-1.38-2.91L1427.77,799a2.32,2.32,0,0,0-2.51,2l-17.21,77.18A2.32,2.32,0,0,0,1409.43,881.11Z" fill="#6092b5"/><path d="M1404.8,849.94l35.33,9.07a6.78,6.78,0,0,0,8.23-4.87l55-204.78a6.78,6.78,0,0,0-4.87-8.23l-39.25-9.07a6.78,6.78,0,0,0-8.23,4.87l-51.1,204.78A6.78,6.78,0,0,0,1404.8,849.94Z" fill="#74a8cb"/><path d="M1454.09,608.71,1499.17,619c4.59,1,8.61.8,8.92-.56l20.62-76.77c.31-1.36-3.19-3.33-7.79-4.38l-49.85-11c-4.59-1-8.61-.8-8.92.56l-15.85,77.49C1446,605.69,1449.49,607.66,1454.09,608.71Z" fill="#80b5d3"/><path d="M1236.74,1022.38h185.74a8.35,8.35,0,0,0,8.33-8.33V904.94a8.35,8.35,0,0,0-8.33-8.33H1276.32a8.35,8.35,0,0,0-8.34,8.33l-39.56,109.12A8.35,8.35,0,0,0,1236.74,1022.38Z" fill="#80b5d3"/><path d="M1334.82,888.17h83a7,7,0,0,0,7-7v-8.44c0-3.3.51-6-72.84-6h-17.16a7,7,0,0,0-7,7v7.37a7,7,0,0,0,6.93,7.07Z" fill="#6092b5"/><path d="M1207.9,848H1394a8.85,8.85,0,0,1,8.83,8.83v12.57h-64.37a8.07,8.07,0,0,0,0,16.13h64.34v2.69A8.85,8.85,0,0,1,1394,897h-186a8.85,8.85,0,0,1-8.83-8.83V856.82A8.85,8.85,0,0,1,1207.9,848Z" fill="#74a8cb"/><path d="M1199.07,857.06a8.85,8.85,0,0,1,8.83-8.83H1394a8.85,8.85,0,0,1,8.83,8.83" fill="#82bfe8"/><path d="M1405.87,939.72H1289.77a2.72,2.72,0,0,1-2.72-2.72h0a2.72,2.72,0,0,1,2.72-2.72h116.09a2.72,2.72,0,0,1,2.72,2.72h0A2.72,2.72,0,0,1,1405.87,939.72Z" fill="#6092b5"/><path d="M1405.87,960.09H1289.77a2.72,2.72,0,0,1-2.72-2.72h0a2.72,2.72,0,0,1,2.72-2.72h116.09a2.72,2.72,0,0,1,2.72,2.72h0A2.72,2.72,0,0,1,1405.87,960.09Z" fill="#6092b5"/><path d="M1405.87,980.46H1289.77a2.72,2.72,0,0,1-2.72-2.72h0a2.72,2.72,0,0,1,2.72-2.72h116.09a2.72,2.72,0,0,1,2.72,2.72h0A2.72,2.72,0,0,1,1405.87,980.46Z" fill="#6092b5"/><path d="M1269,897.28v4a8.47,8.47,0,0,0,8.44,8.44H1401a8.47,8.47,0,0,0,8.44-8.44v-4" fill="#74a8cb"/><path d="M1269,897.48v4a8.47,8.47,0,0,0,8.44,8.44H1401a8.47,8.47,0,0,0,8.44-8.44v-4" fill="#394f7c" opacity="0.32" style="isolation:isolate"/><path d="M1475.74,528.15l-9.57-2.07a3.25,3.25,0,0,0-3.81,2.54l-15.13,75.73a3.25,3.25,0,0,0,2.54,3.81l9.57,2.07" fill="#82bfe8"/><path d="M1461.05,632.61a8.73,8.73,0,0,0-10.59,6.28l-51.32,201a8.73,8.73,0,0,0,6.28,10.59" fill="#82bfe8"/><path d="M644.52,933.79H760.61a2.72,2.72,0,0,1,2.72,2.72h0a2.72,2.72,0,0,1-2.72,2.72H644.52a2.72,2.72,0,0,1-2.72-2.72h0A2.72,2.72,0,0,1,644.52,933.79Z" fill="#6092b5"/><path d="M644.52,954.16H760.61a2.72,2.72,0,0,1,2.72,2.72h0a2.72,2.72,0,0,1-2.72,2.72H644.52a2.72,2.72,0,0,1-2.72-2.72h0A2.72,2.72,0,0,1,644.52,954.16Z" fill="#6092b5"/><path d="M644.52,974.52H760.61a2.72,2.72,0,0,1,2.72,2.72h0a2.72,2.72,0,0,1-2.72,2.72H644.52a2.72,2.72,0,0,1-2.72-2.72h0A2.72,2.72,0,0,1,644.52,974.52Z" fill="#6092b5"/><path d="M781.41,896.78v4a8.47,8.47,0,0,1-8.44,8.44H649.44a8.47,8.47,0,0,1-8.44-8.44v-4" fill="#74a8cb"/><path d="M781.41,896.94v4a8.47,8.47,0,0,1-8.44,8.44H649.44a8.47,8.47,0,0,1-8.46-8.44v-4" fill="#394f7c" opacity="0.32" style="isolation:isolate"/><path d="M574.63,527.65l9.57-2.07a3.25,3.25,0,0,1,3.81,2.54l15.13,75.73a3.25,3.25,0,0,1-2.54,3.81L591,609.73" fill="#82bfe8"/><path d="M589.32,632.11a8.73,8.73,0,0,1,10.59,6.28l51.33,201A8.73,8.73,0,0,1,645,850" fill="#82bfe8"/><path d="M499.71,264.34h243.8a3.16,3.16,0,0,1,3.16,3.15h0a3.16,3.16,0,0,1-3.16,3.15H499.71a3.16,3.16,0,0,1-3.16-3.15h0A3.16,3.16,0,0,1,499.71,264.34Z" fill="#74a8cb"/><path d="M640.27,268.71v16.88a9.45,9.45,0,0,1-9.42,9.42H586.36a9.45,9.45,0,0,1-9.38-9.42V268.71" fill="none" stroke="#74a8cb" stroke-miterlimit="10" stroke-width="8.44"/><rect x="1353.61" y="197.69" width="215.7" height="114.62" rx="8.1" ry="8.1" fill="#82bfe8"/><rect x="1363.45" y="229.13" width="196.01" height="7.46" rx="1.88" ry="1.88" fill="#a1dbff" opacity="0.5" style="isolation:isolate"/><rect x="1363.45" y="213.26" width="196.01" height="7.46" rx="1.88" ry="1.88" fill="#a1dbff" opacity="0.5" style="isolation:isolate"/><rect x="1363.46" y="245" width="196.01" height="7.46" rx="1.88" ry="1.88" fill="#a1dbff" opacity="0.5" style="isolation:isolate"/><rect x="1363.46" y="260.87" width="196.01" height="7.46" rx="1.88" ry="1.88" fill="#a1dbff" opacity="0.5" style="isolation:isolate"/><rect x="1363.45" y="276.74" width="196.01" height="7.46" rx="1.88" ry="1.88" fill="#a1dbff" opacity="0.5" style="isolation:isolate"/><rect x="1363.45" y="292.6" width="196.01" height="7.46" rx="1.88" ry="1.88" fill="#a1dbff" opacity="0.5" style="isolation:isolate"/><rect x="1252.4" y="221.66" width="105.65" height="68.06" rx="6.57" ry="6.57" fill="none" stroke="#82bfe8" stroke-miterlimit="10" stroke-width="4.69"/><rect x="1246.67" y="228.22" width="13.09" height="54.93" rx="6.54" ry="6.54" fill="#82bfe8"/></svg>