<svg id="Layer_1" data-name="Layer 1" xmlns="http://www.w3.org/2000/svg" xmlns:xlink="http://www.w3.org/1999/xlink" viewBox="0 0 344.27 266.35"><defs><linearGradient id="linear-gradient" x1="74.3" y1="1221.65" x2="84.46" y2="1221.65" gradientTransform="matrix(1, 0, 0, -1, 0, 1344.16)" gradientUnits="userSpaceOnUse"><stop offset="0" stop-color="#a1dbff"/><stop offset="1" stop-color="#7bbcec"/></linearGradient><linearGradient id="linear-gradient-2" x1="78.29" y1="1230.78" x2="86.08" y2="1230.78" xlink:href="#linear-gradient"/><linearGradient id="linear-gradient-3" x1="135.12" y1="1187.36" x2="179.16" y2="1187.36" xlink:href="#linear-gradient"/><linearGradient id="linear-gradient-4" x1="142.37" y1="1203.31" x2="169.8" y2="1203.31" xlink:href="#linear-gradient"/><linearGradient id="linear-gradient-5" x1="128.69" y1="1176.57" x2="158.55" y2="1176.57" xlink:href="#linear-gradient"/><linearGradient id="linear-gradient-6" x1="134.87" y1="1195.13" x2="141.61" y2="1195.13" xlink:href="#linear-gradient"/><linearGradient id="linear-gradient-7" x1="144.52" y1="1191.42" x2="192.31" y2="1191.42" xlink:href="#linear-gradient"/><linearGradient id="linear-gradient-8" x1="131.04" y1="1198.48" x2="134.96" y2="1198.48" xlink:href="#linear-gradient"/><linearGradient id="linear-gradient-9" x1="131.46" y1="1195.63" x2="146.35" y2="1195.63" xlink:href="#linear-gradient"/><linearGradient id="linear-gradient-10" x1="134.96" y1="1195.1" x2="141.84" y2="1195.1" xlink:href="#linear-gradient"/><linearGradient id="linear-gradient-11" x1="81.24" y1="1215.94" x2="89.04" y2="1215.94" xlink:href="#linear-gradient"/><linearGradient id="linear-gradient-12" x1="97.08" y1="1209.76" x2="139.78" y2="1209.76" gradientTransform="matrix(0.49, 0.87, 0.87, -0.49, -995.44, 626.93)" xlink:href="#linear-gradient"/><linearGradient id="linear-gradient-13" x1="84.94" y1="1224.17" x2="100.87" y2="1224.17" gradientTransform="matrix(0.49, 0.87, 0.87, -0.49, -1020.99, 641.84)" xlink:href="#linear-gradient"/><linearGradient id="linear-gradient-14" x1="78.24" y1="1210.91" x2="141.26" y2="1210.91" xlink:href="#linear-gradient"/><linearGradient id="linear-gradient-15" x1="121.25" y1="1194.76" x2="121.81" y2="1194.76" xlink:href="#linear-gradient"/><linearGradient id="linear-gradient-16" x1="121.75" y1="1197.47" x2="121.91" y2="1197.47" xlink:href="#linear-gradient"/><linearGradient id="linear-gradient-17" x1="129.85" y1="1209.79" x2="130.08" y2="1209.79" xlink:href="#linear-gradient"/><linearGradient id="linear-gradient-18" x1="125.89" y1="1208.23" x2="129.86" y2="1208.23" xlink:href="#linear-gradient"/><linearGradient id="linear-gradient-19" x1="129.86" y1="1209.45" x2="129.99" y2="1209.45" xlink:href="#linear-gradient"/><linearGradient id="linear-gradient-20" x1="121.85" y1="1195.03" x2="121.97" y2="1195.03" xlink:href="#linear-gradient"/><linearGradient id="linear-gradient-21" x1="125.85" y1="1204.6" x2="126.24" y2="1204.6" xlink:href="#linear-gradient"/><linearGradient id="linear-gradient-22" x1="121.87" y1="1200.87" x2="126.03" y2="1200.87" xlink:href="#linear-gradient"/><linearGradient id="linear-gradient-23" x1="121.98" y1="1211.4" x2="123.93" y2="1211.4" xlink:href="#linear-gradient"/><linearGradient id="linear-gradient-24" x1="109.38" y1="1203.49" x2="112.59" y2="1203.49" gradientTransform="matrix(0.49, 0.87, 0.87, -0.49, -993.75, 636.63)" xlink:href="#linear-gradient"/><linearGradient id="linear-gradient-26" x1="114.88" y1="1216.46" x2="121.07" y2="1216.46" xlink:href="#linear-gradient"/><linearGradient id="linear-gradient-28" x1="117.98" y1="1218.85" x2="121.2" y2="1218.85" gradientTransform="matrix(0.49, 0.87, 0.87, -0.49, -1002.77, 621.27)" xlink:href="#linear-gradient"/><linearGradient id="linear-gradient-29" x1="120.3" y1="1224.68" x2="126.4" y2="1224.68" gradientTransform="matrix(0.49, 0.87, 0.87, -0.49, -1005.94, 615)" xlink:href="#linear-gradient"/><linearGradient id="linear-gradient-30" x1="91.61" y1="1207.62" x2="137.92" y2="1207.62" xlink:href="#linear-gradient"/><linearGradient id="linear-gradient-31" x1="115.37" y1="1220.75" x2="125" y2="1220.75" gradientTransform="matrix(0.49, 0.87, 0.87, -0.49, -1004.12, 619.78)" xlink:href="#linear-gradient"/><linearGradient id="linear-gradient-32" x1="117.3" y1="1219.15" x2="121.44" y2="1219.15" xlink:href="#linear-gradient"/><linearGradient id="linear-gradient-33" x1="106.58" y1="1202.99" x2="113.84" y2="1202.99" gradientTransform="matrix(0.49, 0.87, 0.87, -0.49, -993.7, 637.55)" xlink:href="#linear-gradient"/><linearGradient id="linear-gradient-34" x1="109.5" y1="1203.05" x2="112.39" y2="1203.05" gradientTransform="matrix(0.49, 0.87, 0.87, -0.49, -993.38, 636.88)" xlink:href="#linear-gradient"/><linearGradient id="linear-gradient-35" x1="118.13" y1="1203.12" x2="131.64" y2="1203.12" xlink:href="#linear-gradient"/><linearGradient id="linear-gradient-36" x1="97.71" y1="1204.8" x2="105.03" y2="1204.8" xlink:href="#linear-gradient"/><linearGradient id="linear-gradient-37" x1="103.6" y1="1224.97" x2="112.72" y2="1224.97" xlink:href="#linear-gradient"/><linearGradient id="linear-gradient-38" x1="113.56" y1="1209.39" x2="124.38" y2="1209.39" gradientTransform="matrix(0.49, 0.87, 0.87, -0.49, -994.83, 626.63)" xlink:href="#linear-gradient"/><linearGradient id="linear-gradient-39" x1="98.54" y1="1211.18" x2="127.96" y2="1211.18" xlink:href="#linear-gradient"/><linearGradient id="linear-gradient-40" x1="135.39" y1="1169.53" x2="179.18" y2="1169.53" xlink:href="#linear-gradient"/><linearGradient id="linear-gradient-41" x1="134.89" y1="1174.58" x2="172.2" y2="1174.58" xlink:href="#linear-gradient"/><linearGradient id="linear-gradient-42" x1="142.3" y1="1190.93" x2="192.06" y2="1190.93" xlink:href="#linear-gradient"/><linearGradient id="linear-gradient-43" x1="142.36" y1="1194.15" x2="186.24" y2="1194.15" xlink:href="#linear-gradient"/><linearGradient id="linear-gradient-44" x1="123.74" y1="1201.66" x2="133.3" y2="1201.66" xlink:href="#linear-gradient"/><linearGradient id="linear-gradient-45" x1="125.05" y1="1199.59" x2="138.7" y2="1199.59" xlink:href="#linear-gradient"/><linearGradient id="linear-gradient-46" x1="128.71" y1="1161.42" x2="167.07" y2="1161.42" xlink:href="#linear-gradient"/><linearGradient id="linear-gradient-47" x1="148.39" y1="1205.28" x2="195.96" y2="1205.28" xlink:href="#linear-gradient"/><linearGradient id="linear-gradient-48" x1="2213.29" y1="1939.98" x2="2248.97" y2="1939.98" gradientTransform="matrix(1, 0, 0, -1, -2037.3, 2020.18)" gradientUnits="userSpaceOnUse"><stop offset="0" stop-color="#feff2a"/><stop offset="1" stop-color="#ffc515"/></linearGradient><linearGradient id="linear-gradient-49" x1="204.39" y1="1181.85" x2="282.67" y2="1181.85" xlink:href="#linear-gradient"/><linearGradient id="linear-gradient-50" x1="196.83" y1="1231.89" x2="232.14" y2="1231.89" xlink:href="#linear-gradient"/></defs><title>photo</title><g opacity="0.75"><path d="M44,161.91l77.29,43.83,30.16,17.1L127.62,209.3l-7.75-36.35,24.94-11.71s-26.09-69.39-22-67.1l9.94-10.2L99.11,64.86Z" fill="#394f7c"/><polygon points="127.61 209.3 151.47 222.84 171.6 187.35 144.8 161.24 119.86 172.95 127.61 209.3" fill="#394f7c"/><polygon points="151.47 222.84 121.32 205.74 44.03 161.91 99.06 64.85 132.7 83.94 142.91 73.46 94.61 46.26 27.66 165.12 170.56 245.61 192.11 207.34 171.6 187.35 151.47 222.84" fill="#ebe5d9"/><g opacity="0.2"><path id="_Path_" data-name=" Path " d="M75.11,122.81a6.65,6.65,0,0,0-.86,2.91,6.84,6.84,0,0,1,7.27-.49l2.91-5.1A7,7,0,0,0,75.11,122.81Z" fill="url(#linear-gradient)"/><path id="_Path_2" data-name=" Path 2" d="M79.36,109.08a7.13,7.13,0,0,1,2.47-2.7,8.38,8.38,0,0,0,4.28,7.75l-3.52,6.27A8.35,8.35,0,0,1,79.38,109h0Z" fill="url(#linear-gradient-2)"/><polygon id="_Path_3" data-name=" Path 3" points="179.16 171.39 179.16 171.39 135.12 156.7 143.24 142.22 179.16 171.39" fill="url(#linear-gradient-3)"/><path id="_Path_4" data-name=" Path 4" d="M157.27,128.62a6.42,6.42,0,0,0-8,2.87l-6.9,12.29c1.77-3.16,4.81-2.34,8.06-.52l18.34,10.29.11-.53a37.7,37.7,0,0,0-.55-18.72L157.43,129l-.08-.3Z" fill="url(#linear-gradient-4)"/><path id="_Path_5" data-name=" Path 5" d="M134,158.6l-4.56,8.12a6.61,6.61,0,0,0,1.73,8.33h0l11,6.16a37.73,37.73,0,0,0,16-9.45l.39-.37-18.32-10.26c-3.25-1.82-5.53-4-3.76-7.15l-2.07,3.7Z" fill="url(#linear-gradient-5)"/><path id="_Path_6" data-name=" Path 6" d="M141.61,144.13h0l-2.84-.12-3.9,8.86,1.06,1.19h0a20.84,20.84,0,0,1,2.09-5.31A24.76,24.76,0,0,1,141.61,144.13Z" fill="url(#linear-gradient-6)"/><polygon id="_Path_7" data-name=" Path 7" points="192.31 147.94 179.29 171.16 144.52 145 168.03 134.33 192.31 147.94" fill="url(#linear-gradient-7)"/><path id="_Path_8" data-name=" Path 8" d="M132.11,145.13a8.32,8.32,0,0,0-1,4.06l3.93-7A7.77,7.77,0,0,0,132.11,145.13Z" fill="url(#linear-gradient-8)"/><path id="_Path_9" data-name=" Path 9" d="M135.64,144.55,131.46,152l6.64,3.72a6.42,6.42,0,0,0,6.13-10.92l-6.64-3.72Z" fill="url(#linear-gradient-9)"/><path id="_Path_10" data-name=" Path 10" d="M135.55,147.13a4.69,4.69,0,0,0,1.7,6.29l4.59-8.18A4.75,4.75,0,0,0,135.55,147.13Z" fill="url(#linear-gradient-10)"/><path id="_Path_11" data-name=" Path 11" d="M82.32,123.88a7.13,7.13,0,0,1,2.47-2.7A8.38,8.38,0,0,0,89,129l-3.53,6.3a8.35,8.35,0,0,1-3.2-11.37h0Z" fill="url(#linear-gradient-11)"/><rect id="_Path_12" data-name=" Path 12" x="115.93" y="112.59" width="1.77" height="47.94" transform="translate(-59.43 171.63) rotate(-60.71)" fill="url(#linear-gradient-12)"/><g id="_Group_" data-name=" Group "><rect id="_Path_13" data-name=" Path 13" x="90.13" y="113.73" width="2.38" height="16.92" transform="translate(-59.93 142.05) rotate(-60.71)" fill="url(#linear-gradient-13)"/><path id="_Path_14" data-name=" Path 14" d="M113.64,102.57a11.66,11.66,0,0,0-3.1.87c-4.93-3-11-2.85-14.16.38a7,7,0,0,0-2,4.1,11.62,11.62,0,0,0-7.71,3A9.12,9.12,0,0,0,84,117.87c-1.58.07-4,3.37-4.6,6a11.46,11.46,0,0,0,1.34,8.3A7,7,0,0,0,78.32,136a12,12,0,0,0,7.06,12.28,11.21,11.21,0,0,0,.79,3.06.93.93,0,0,0-.2.36c-2.83,7.8.06,15.46,6.4,17a11.72,11.72,0,0,0,8.3-1.34,7,7,0,0,0,3.73,2.54,12,12,0,0,0,12.28-7.06,14.64,14.64,0,0,0,9.43-5.39,19.27,19.27,0,0,0,4.1-8.16s-.13.22-.31.23a1.16,1.16,0,0,1-.4.18l4.19-3.87.72-4.24a19.27,19.27,0,0,0,4.83-7.75,14.29,14.29,0,0,0-.13-10.73c3-4.93,2.85-11-.38-14.16a7,7,0,0,0-4.1-2,11.78,11.78,0,0,0-3.2-7.84C126.81,94.64,118.91,96.06,113.64,102.57Z" fill="url(#linear-gradient-14)"/></g><path id="_Path_15" data-name=" Path 15" d="M121.25,149.47a.45.45,0,0,0,.57-.16A.45.45,0,0,1,121.25,149.47Z" fill="url(#linear-gradient-15)"/><path id="_Path_16" data-name=" Path 16" d="M121.75,144.63l.17,4.36-.17-4.36.13-.22A.32.32,0,0,0,121.75,144.63Z" fill="url(#linear-gradient-16)"/><path id="_Path_17" data-name=" Path 17" d="M130,134.63a.39.39,0,0,0-.19-.51h0A.39.39,0,0,1,130,134.63Z" fill="url(#linear-gradient-17)"/><path id="_Path_18" data-name=" Path 18" d="M125.89,137l.08-.14,3.89-2.09-3.78,2.08A.32.32,0,0,0,125.89,137Z" fill="url(#linear-gradient-18)"/><path id="_Path_19" data-name=" Path 19" d="M129.86,134.83h0a.32.32,0,0,0,.13-.22Z" fill="url(#linear-gradient-19)"/><path id="_Path_20" data-name=" Path 20" d="M121.85,149.25A.32.32,0,0,0,122,149h0Z" fill="url(#linear-gradient-20)"/><path id="_Path_21" data-name=" Path 21" d="M125.85,137.32l.39,4.49a.32.32,0,0,1-.13.22.32.32,0,0,0,.13-.22l-.39-4.49a.32.32,0,0,1,.13-.22A.32.32,0,0,0,125.85,137.32Z" fill="url(#linear-gradient-21)"/><path id="_Path_22" data-name=" Path 22" d="M122,144.19a.32.32,0,0,0-.13.22.32.32,0,0,1,.13-.22l4-2h0Z" fill="url(#linear-gradient-22)"/><path id="_Path_23" data-name=" Path 23" d="M123.93,132.27a7.83,7.83,0,0,0-2,1A6.42,6.42,0,0,0,123.93,132.27Z" fill="url(#linear-gradient-23)"/><circle id="_Path_24" data-name=" Path 24" cx="109.39" cy="142.84" r="1.61" transform="translate(-68.7 168.36) rotate(-60.71)" fill="url(#linear-gradient-24)"/><circle id="_Path_25" data-name=" Path 25" cx="109.39" cy="142.84" r="1.61" transform="translate(-68.7 168.36) rotate(-60.71)" opacity="0.3" fill="url(#linear-gradient-24)" style="isolation:isolate"/><path id="_Compound_Path_" data-name=" Compound Path " d="M115.29,125.88a3.21,3.21,0,0,0,5.6,3.14h0a2.92,2.92,0,0,0-1.61-3.7A2.86,2.86,0,0,0,115.29,125.88Zm4.2,2.36a1.61,1.61,0,1,1-.61-2.19h0A1.61,1.61,0,0,1,119.49,128.24Z" fill="url(#linear-gradient-26)"/><path id="_Compound_Path_2" data-name=" Compound Path 2" d="M115.29,125.88a3.21,3.21,0,0,0,5.6,3.14h0a2.92,2.92,0,0,0-1.61-3.7A2.86,2.86,0,0,0,115.29,125.88Zm4.2,2.36a1.61,1.61,0,1,1-.61-2.19h0A1.61,1.61,0,0,1,119.49,128.24Z" opacity="0.3" fill="url(#linear-gradient-26)" style="isolation:isolate"/><circle id="_Path_26" data-name=" Path 26" cx="118" cy="127.47" r="1.61" transform="translate(-50.9 168.02) rotate(-60.71)" fill="url(#linear-gradient-28)"/><circle id="_Path_27" data-name=" Path 27" cx="121.75" cy="121.62" r="3.05" transform="translate(-43.89 168.31) rotate(-60.71)" fill="url(#linear-gradient-29)"/><path id="_Compound_Path_3" data-name=" Compound Path 3" d="M125.34,115.72a18.38,18.38,0,0,0-1.9-1.07l-.59-.33a1.83,1.83,0,0,0-.22,1.24,14.22,14.22,0,0,0,2.27,2.52,10.2,10.2,0,0,1,1.11,1.1c.37.39,1.27-.36.81,1.12h0a9.25,9.25,0,0,1-.24,8.89l-1.09-.61a8,8,0,0,0-3.15-10.79,7.87,7.87,0,0,0-4.19-1l-2.21-1.24a12.33,12.33,0,0,1,2.4-.79,3.85,3.85,0,0,0,2.11-1.54,20.17,20.17,0,0,0-4.73-1.4c-8.52-1.09-14.75,3.65-20,13-4.51,8-6,17.28-.91,23.94a18.62,18.62,0,0,0,3.77,3.66,4.56,4.56,0,0,0,.28-2.93,19.27,19.27,0,0,1-.55-3l1.62.91a7.9,7.9,0,0,0,3.51,3.92,8,8,0,0,0,10.9-3h0l1.09.61a9.63,9.63,0,0,1-7,4h0c-.31-.17-1.14.32-1.63.34a12.83,12.83,0,0,1-1.69-.07,16.06,16.06,0,0,0-3.33-.62c-.43.05-.87.69-1.07,1.06l.59.33a19.29,19.29,0,0,0,1.9,1.07,5.39,5.39,0,0,0,2.62,5.7,5.3,5.3,0,0,0,7.23-2h0v-.06a5,5,0,0,0,.44-1.11,26.59,26.59,0,0,0,14.72-3.27,23.09,23.09,0,0,0,7-7.43,20.23,20.23,0,0,0,2.63-9.87,27.2,27.2,0,0,0-5-13.82,5.72,5.72,0,0,0,.72-1,5.3,5.3,0,0,0-2.12-7.19h0A5.49,5.49,0,0,0,125.34,115.72Zm-6.23,18.22a8.44,8.44,0,0,1-1.37,0h0a39.29,39.29,0,0,1-4.9-.91,1.19,1.19,0,0,0-.9.56h0s-.27.81,0,1.15a45.6,45.6,0,0,1,3.28,3.79h0a5.39,5.39,0,0,1,.71,1.17l-.77,1.43a8.83,8.83,0,0,0-2-3l.5-.9-5.32-3,.22-.06a2.15,2.15,0,0,0,1.61-1.82h0c.46-.81,1.11-.92.67-2.24-.15-.27-.16-.57-.31-.83l5.74,3.22.2-.36a7.67,7.67,0,0,0,3.59.17Z" fill="url(#linear-gradient-30)"/><circle id="_Path_28" data-name=" Path 28" cx="118.59" cy="125.56" r="4.82" transform="translate(-48.94 167.56) rotate(-60.71)" fill="url(#linear-gradient-31)"/><path id="_Path_29" data-name=" Path 29" d="M119.21,123a2,2,0,0,1,.94,3.84.67.67,0,0,1-.48.14,2,2,0,0,1-1.2-3.77A.77.77,0,0,1,119.21,123Z" fill="url(#linear-gradient-32)"/><circle id="_Path_30" data-name=" Path 30" cx="108.62" cy="143.33" r="3.63" transform="translate(-69.53 167.95) rotate(-60.71)" fill="url(#linear-gradient-33)"/><circle id="_Path_31" data-name=" Path 31" cx="109.36" cy="143.28" r="1.44" transform="translate(-69.1 168.56) rotate(-60.71)" fill="url(#linear-gradient-34)"/><g id="_Group_2" data-name=" Group 2"><path id="_Path_32" data-name=" Path 32" d="M128.89,131.37h0a14.06,14.06,0,0,0-9.1,6.71h0a16.92,16.92,0,0,0-1.16,11.39l.06.22.17.09.2.11c.52.59.24.36.62.6.81.46,2.28.4,2.74-.42l9.09-16.22a2,2,0,0,0-.93-2.47A7.45,7.45,0,0,0,128.89,131.37Z" fill="url(#linear-gradient-35)"/></g><g id="_Group_3" data-name=" Group 3"><g id="_Group_4" data-name=" Group 4"><g id="_Group_5" data-name=" Group 5"><path id="_Path_33" data-name=" Path 33" d="M101.66,145a2.41,2.41,0,0,1-2.37.62,2.28,2.28,0,0,1-1.47-2.87h0v-.07L100.4,135a2.31,2.31,0,1,1,4.3,1.46l-2.59,7.67A4.11,4.11,0,0,1,101.66,145Z" fill="url(#linear-gradient-36)"/></g></g></g><g id="_Group_6" data-name=" Group 6"><g id="_Group_7" data-name=" Group 7"><g id="_Group_8" data-name=" Group 8"><path id="_Path_34" data-name=" Path 34" d="M108.43,124a2.67,2.67,0,0,1-2.29,1.33,2.54,2.54,0,0,1-2.49-2.58v-.07l.12-4.87a2.34,2.34,0,0,1,1.19-2.13l3.89-2.27a2.54,2.54,0,0,1,2.76,4.27h0L109,119.32l-.09,3.45A2.7,2.7,0,0,1,108.43,124Z" fill="url(#linear-gradient-37)"/></g></g></g><ellipse id="_Path_35" data-name=" Path 35" cx="117.38" cy="136.93" rx="3.37" ry="5.91" transform="translate(-59.47 172.31) rotate(-60.71)" fill="url(#linear-gradient-38)"/><path id="_Compound_Path_4" data-name=" Compound Path 4" d="M120.66,113.13a4.62,4.62,0,0,1-2.15,1.59,24.34,24.34,0,0,0-3.42,1.25,2.63,2.63,0,0,0-.77.52l-.13.22a7.8,7.8,0,0,0-3.75,3.6,9.15,9.15,0,0,0-.79,6.92,30.31,30.31,0,0,0,1.06,3.1c.44,1.31-.21,1.43-.67,2.24h0c-.53,1-.34,1.46-1.56,1.74a31.34,31.34,0,0,0-3.24.79,9,9,0,0,0-5.49,4.28,8.41,8.41,0,0,0-1.17,5.16h0a4.72,4.72,0,0,1,0,.79,25.91,25.91,0,0,0,.63,3.74,4.56,4.56,0,0,1-.28,2.93l-.33.59,2.07,1.16.25-.45a2,2,0,0,1,1.07-1.06,15.86,15.86,0,0,1,3.3.67,11.3,11.3,0,0,0,1.6.23,4.59,4.59,0,0,0,1.47-.06h0a9.22,9.22,0,0,0,7.41-4.75,9.63,9.63,0,0,0,1.12-3.05,8,8,0,0,0-.13-3.57,7.39,7.39,0,0,0-.1,2.74,9.63,9.63,0,0,1,.1-2.74,11.5,11.5,0,0,0-1.55-3.48h0c-.62-1.12-3-3.25-3.28-3.79a1.16,1.16,0,0,1,0-1.06h0a1.26,1.26,0,0,1,1-.64,43.45,43.45,0,0,0,4.9.91h0a9,9,0,0,0,4.34-.66,5.84,5.84,0,0,1,2-1,8.83,8.83,0,0,0,2.68-3.06,9.63,9.63,0,0,0,.19-8.8h0a6,6,0,0,0-.76-1.2,5.36,5.36,0,0,0-1.06-1.19,16.06,16.06,0,0,1-2.27-2.52,2.47,2.47,0,0,1,.22-1.24l.33-.59-2.07-1.16A10.27,10.27,0,0,0,120.66,113.13Zm-6,35a8,8,0,1,1-14-7.85,7.9,7.9,0,0,1,3.49-3.27l.88-.39a7.87,7.87,0,0,1,6.64.63,8.12,8.12,0,0,1,2.94,10.88Zm11-19.6a8,8,0,0,1-10.88,3.1h0a7.8,7.8,0,0,1-3.86-5.07h0a9,9,0,0,1-.23-1.3,8,8,0,1,1,15,3.36Z" fill="url(#linear-gradient-39)"/><polygon points="138.75 156.01 136.21 154.62 135.39 156.41 139.03 158.34 141.86 181.06 166.11 194.66 179.18 171.36 138.75 156.01" fill="url(#linear-gradient-40)"/><polygon id="_Path_40" data-name=" Path 40" points="134.89 157.23 144.84 171.13 148.54 169.34 149.09 174.58 172.2 184.51 136.22 154.67 134.89 157.23" fill="url(#linear-gradient-41)"/><polygon points="144.81 145.2 142.3 143.76 143.4 142.13 146.94 144.22 167.8 134.79 192.06 148.39 178.99 171.69 144.81 145.2" fill="url(#linear-gradient-42)"/><polygon id="_Path_41" data-name=" Path 41" points="143.85 141.27 160.91 142.48 161.29 146.6 166.06 144.34 186.24 158.76 142.36 143.72 143.85 141.27" fill="url(#linear-gradient-43)"/><path d="M130,136.5a6.42,6.42,0,0,1-6.28,11.2h0" fill="url(#linear-gradient-44)"/><path d="M128.75,138.79l8,4.49a3.8,3.8,0,0,1,1.45,5.15h0a3.8,3.8,0,0,1-5.15,1.45l-8-4.49" fill="url(#linear-gradient-45)"/><path d="M140,164.93a6.71,6.71,0,0,0-9.6,9.36l26,26.84a4.15,4.15,0,0,0,6.61-.86l4.09-7.3Z" fill="url(#linear-gradient-46)"/><path d="M156.28,128.18a6.71,6.71,0,0,0-3,13.07l38,8.47,4.09-7.3a4.15,4.15,0,0,0-2.71-6.08Z" fill="url(#linear-gradient-47)"/></g><polygon points="151.47 222.84 171.6 187.35 171.6 187.35 151.47 222.84" fill="#394f7c"/><rect x="138.12" y="43.84" width="136.63" height="164.25" transform="translate(-27.85 185.9) rotate(-45.74)" fill="#ebe5d9"/><polygon points="282.67 122.37 204.8 202.27 179.97 178.07 116.33 116.06 194.2 36.16 282.67 122.37" fill="#394f7c"/><circle cx="193.83" cy="80.2" r="17.84" transform="translate(0.06 160.55) rotate(-45)" opacity="0.62" fill="url(#linear-gradient-48)" style="isolation:isolate"/></g><polygon points="204.8 202.27 204.39 161.24 224.29 155.24 224.29 125.96 251.67 125.96 282.67 122.37 204.8 202.27" opacity="0.4" fill="url(#linear-gradient-49)" style="isolation:isolate"/><path d="M227.89,98.4l-9.81,9.81a2.49,2.49,0,0,0-3.42-3.62l-.1.1-17,17a2.49,2.49,0,0,0,3.42,3.62h0l.1-.1,9.81-9.81a2.48,2.48,0,0,0,1.8,4.24l-3,3.05a2.49,2.49,0,0,0,0,3.52h0a2.49,2.49,0,0,0,3.52,0l17-17a2.49,2.49,0,0,0,0-3.52h0a2.48,2.48,0,0,0-1.8-.72l3-3.05A2.49,2.49,0,0,0,228,98.3Z" opacity="0.4" fill="url(#linear-gradient-50)" style="isolation:isolate"/></svg>