<svg id="Layer_1" data-name="Layer 1" xmlns="http://www.w3.org/2000/svg" viewBox="0 0 2048 1280"><title>scrabble</title><rect width="2048" height="1280" fill="#fec260"/><g opacity="0.59"><path d="M1402.87,855.48c10.44-5.83,20.89-5.85,29.39-2.17a46.54,46.54,0,1,1,90.32,22.47q-.43,1.75-1,3.46a18.45,18.45,0,0,1-17.49,12.54h-94A18.45,18.45,0,0,1,1394,864.22l.2-.34A22.92,22.92,0,0,1,1402.87,855.48Z" fill="#b24b2b" opacity="0.3"/><path d="M644.84,861.87a26.62,26.62,0,0,0-24-1.76A38,38,0,0,0,547,878.26q.37,1.55.88,3.09a15.08,15.08,0,0,0,14.29,10.25h76.77A15.08,15.08,0,0,0,652,869.08l-.17-.28A18.73,18.73,0,0,0,644.84,861.87Z" fill="#b24b2b" opacity="0.3"/><rect x="308.86" y="891.06" width="1426.8" height="17.68" fill="#b24b2b" opacity="0.5"/><rect x="895.34" y="824.68" width="8.4" height="23.17" fill="#fec260"/><rect x="915.82" y="746.2" width="8.4" height="80.44" fill="#fec260"/><rect x="1145.54" y="833.6" width="8.4" height="23.17" fill="#cc5e48"/><rect x="1125.73" y="742.37" width="8.4" height="80.42" fill="#fec260"/><rect x="915.49" y="827.2" width="8.4" height="63.98" fill="#cc5e48"/><rect x="1125.66" y="827.2" width="8.4" height="63.98" fill="#cc5e48"/><rect x="1145.54" y="847.85" width="8.4" height="43.35" fill="#cc5e48"/><rect x="1145.54" y="851.16" width="8.4" height="9.68" fill="#cc5e48"/><rect x="895.34" y="847.85" width="8.4" height="43.35" fill="#cc5e48"/><rect x="895.34" y="851.16" width="8.4" height="9.68" fill="#cc5e48"/><rect x="872.25" y="829.92" width="303.88" height="5.65" fill="#b24b2b"/><path d="M1176.13,830.32H872.25v-.11A11.18,11.18,0,0,1,883.43,819h281.49a11.18,11.18,0,0,1,11.18,11.18Z" fill="#b24b2b"/><rect x="872.25" y="834.79" width="303.88" height="17.85" fill="#b24b2b"/><rect x="883.42" y="797.43" width="283.77" height="18.25" fill="#b24b2b"/><rect x="883.42" y="775.81" width="283.77" height="18.25" fill="#b24b2b"/><rect x="883.42" y="754.2" width="283.77" height="18.25" fill="#b24b2b"/><path d="M1159.88,732.59H890.76a7.32,7.32,0,0,0-7.32,7.32v10.93h283.76V739.91a7.32,7.32,0,0,0-7.32-7.32Z" fill="#b24b2b"/><circle cx="919.68" cy="741.72" r="3.17" fill="#fec260"/><circle cx="920.02" cy="763.32" r="3.17" fill="#fec260"/><circle cx="919.85" cy="784.53" r="3.17" fill="#fec260"/><circle cx="920.19" cy="806.14" r="3.17" fill="#fec260"/><ellipse cx="906.89" cy="823.09" rx="3.17" ry="1.59" fill="#fec260"/><circle cx="899.55" cy="843.72" r="3.17" fill="#fec260" opacity="0.55" style="isolation:isolate"/><circle cx="1130.61" cy="741.67" r="3.17" fill="#fec260"/><circle cx="1130.27" cy="763.28" r="3.17" fill="#fec260"/><circle cx="1130.44" cy="784.48" r="3.17" fill="#fec260"/><circle cx="1130.12" cy="806.09" r="3.17" fill="#fec260"/><ellipse cx="1143.4" cy="823.06" rx="3.17" ry="1.59" fill="#fec260"/><circle cx="1150.75" cy="843.67" r="3.17" fill="#fec260" opacity="0.55" style="isolation:isolate"/><g opacity="0.4"><rect x="461.53" y="692.9" width="21.1" height="198.89" fill="#b24b2b"/><path d="M478.12,321.37c-47.26,0-185.11,438.48,0,438.48C635.66,759.86,525.38,321.37,478.12,321.37Z" fill="#b24b2b"/><circle cx="466.16" cy="446.92" r="15.56" fill="#b24b2b"/><circle cx="504.93" cy="513.32" r="10.45" fill="#b24b2b"/><circle cx="475.14" cy="589.38" r="7.49" fill="#b24b2b"/><circle cx="512.81" cy="640.54" r="11.81" fill="#b24b2b"/></g><g opacity="0.4"><rect x="1561.75" y="692.9" width="21.1" height="198.89" fill="#b24b2b"/><path d="M1578.33,321.37c-47.26,0-185.11,438.48,0,438.48C1735.87,759.86,1625.59,321.37,1578.33,321.37Z" fill="#b24b2b"/><path d="M1501.93,486.56c.39,101,55.37,189.08,137,236.38-12.94,22.92-32.48,36.92-60.57,36.92C1470.41,759.86,1472.26,610.85,1501.93,486.56Z" fill="#b24b2b"/><circle cx="1566.37" cy="446.92" r="15.56" fill="#b24b2b"/><circle cx="1605.14" cy="513.32" r="10.45" fill="#b24b2b"/><circle cx="1575.35" cy="589.38" r="7.49" fill="#b24b2b"/><circle cx="1613.02" cy="640.54" r="11.81" fill="#b24b2b"/></g></g><g opacity="0.4"><path d="M738.65,612.36H725.28V506.77a43.73,43.73,0,0,1,87.47,0v13.95H799.37V506.77a30.36,30.36,0,0,0-60.72,0Z" fill="#b24b2b"/><path d="M832.38,520.78a6.44,6.44,0,0,1-6.44,6.44h-37a6.44,6.44,0,0,1-6.44-6.44h0a6.44,6.44,0,0,1,6.44-6.44h37a6.44,6.44,0,0,1,6.44,6.44Z" fill="#b24b2b"/><path d="M826.21,527.22H788.66a28.72,28.72,0,1,0,37.56,0Z" fill="#b24b2b"/><rect x="711.11" y="798.65" width="41.71" height="81.66" fill="#b24b2b"/><rect x="721.23" y="622" width="21.46" height="206.28" fill="#b24b2b"/><rect x="711.11" y="786.93" width="41.71" height="11.72" fill="#b24b2b"/><path d="M754.94,878.56H709a12.14,12.14,0,0,0-12.14,12.14h70.24A12.14,12.14,0,0,0,754.94,878.56Z" fill="#b24b2b"/><rect x="716.56" y="610.7" width="30.81" height="19.12" fill="#b24b2b"/><rect x="716.56" y="596.53" width="30.81" height="9.22" fill="#b24b2b"/></g><g opacity="0.4"><path d="M1306.2,612.36h13.37V506.77a43.73,43.73,0,0,0-87.47,0v13.95h13.37V506.77a30.36,30.36,0,0,1,60.72,0Z" fill="#b24b2b"/><path d="M1212.47,520.78a6.44,6.44,0,0,0,6.44,6.44h37a6.44,6.44,0,0,0,6.44-6.44h0a6.44,6.44,0,0,0-6.44-6.44h-37a6.44,6.44,0,0,0-6.44,6.44Z" fill="#b24b2b"/><path d="M1218.64,527.22h37.56a28.72,28.72,0,1,1-37.56,0Z" fill="#b24b2b"/><rect x="1292.03" y="798.65" width="41.71" height="81.66" fill="#b24b2b"/><rect x="1302.16" y="622" width="21.46" height="206.28" fill="#b24b2b"/><rect x="1292.03" y="786.93" width="41.71" height="11.72" fill="#b24b2b"/><path d="M1289.91,878.56h46A12.14,12.14,0,0,1,1348,890.7h-70.24A12.14,12.14,0,0,1,1289.91,878.56Z" fill="#b24b2b"/><rect x="1297.48" y="610.7" width="30.81" height="19.12" fill="#b24b2b"/><rect x="1297.48" y="596.53" width="30.81" height="9.22" fill="#b24b2b"/></g></svg>