<svg id="Layer_1" data-name="Layer 1" xmlns="http://www.w3.org/2000/svg" xmlns:xlink="http://www.w3.org/1999/xlink" viewBox="0 0 2079.19 1280"><defs><style>.cls-1{fill:#5baaec;opacity:0.2;}.cls-2{fill:#fff;}.cls-3{isolation:isolate;fill:url(#linear-gradient);}.cls-10,.cls-11,.cls-12,.cls-13,.cls-14,.cls-22,.cls-26,.cls-27,.cls-28,.cls-29,.cls-30,.cls-31,.cls-32,.cls-33,.cls-34,.cls-35,.cls-36,.cls-4,.cls-5,.cls-7,.cls-8,.cls-9{opacity:0.6;}.cls-4{fill:url(#linear-gradient-2);}.cls-5{fill:url(#linear-gradient-3);}.cls-16,.cls-17,.cls-18,.cls-19,.cls-20,.cls-21,.cls-22,.cls-23,.cls-24,.cls-25,.cls-6{fill:#b9d7d8;}.cls-7{fill:url(#linear-gradient-4);}.cls-8{fill:url(#linear-gradient-5);}.cls-9{fill:url(#linear-gradient-6);}.cls-10{fill:url(#linear-gradient-7);}.cls-11{fill:url(#linear-gradient-8);}.cls-12{fill:url(#linear-gradient-9);}.cls-13{fill:url(#linear-gradient-10);}.cls-14{fill:url(#linear-gradient-11);}.cls-15,.cls-16{opacity:0.95;}.cls-17{opacity:0.9;}.cls-18{opacity:0.85;}.cls-19{opacity:0.8;}.cls-20{opacity:0.75;}.cls-21{opacity:0.7;}.cls-23{opacity:0.5;}.cls-24{opacity:0.4;}.cls-25{opacity:0.3;}.cls-26{fill:url(#linear-gradient-12);}.cls-27{fill:url(#linear-gradient-13);}.cls-28{fill:url(#linear-gradient-14);}.cls-29{fill:url(#linear-gradient-15);}.cls-30{fill:url(#linear-gradient-16);}.cls-31{fill:url(#linear-gradient-17);}.cls-32{fill:url(#linear-gradient-18);}.cls-33{fill:url(#linear-gradient-19);}.cls-34{fill:url(#linear-gradient-20);}.cls-35{fill:url(#linear-gradient-21);}.cls-36{fill:url(#linear-gradient-22);}</style><linearGradient id="linear-gradient" x1="1039.59" x2="1039.59" y2="1280" gradientUnits="userSpaceOnUse"><stop offset="0.01" stop-color="#6dcaff"/><stop offset="0.04" stop-color="#75cbfc"/><stop offset="0.17" stop-color="#9cd2ed"/><stop offset="0.31" stop-color="#bdd8e0"/><stop offset="0.45" stop-color="#d7dcd6"/><stop offset="0.59" stop-color="#e9e0cf"/><stop offset="0.75" stop-color="#f4e1cb"/><stop offset="0.92" stop-color="#f7e2ca"/></linearGradient><linearGradient id="linear-gradient-2" x1="262.33" y1="1049.95" x2="262.33" y2="320.52" gradientUnits="userSpaceOnUse"><stop offset="0.01" stop-color="#b9c9c9"/><stop offset="0.27" stop-color="#c1babe"/><stop offset="0.57" stop-color="#c5b1b7"/><stop offset="1" stop-color="#c7aeb5"/></linearGradient><linearGradient id="linear-gradient-3" x1="1647.83" y1="1060.36" x2="1647.83" y2="329.18" xlink:href="#linear-gradient-2"/><linearGradient id="linear-gradient-4" x1="2079.46" y1="458.85" x2="1860.7" y2="458.85" gradientTransform="translate(3940.16 917.71) rotate(180)" xlink:href="#linear-gradient-2"/><linearGradient id="linear-gradient-5" x1="2079.46" y1="530.06" x2="1860.7" y2="530.06" gradientTransform="translate(3940.16 1060.13) rotate(180)" xlink:href="#linear-gradient-2"/><linearGradient id="linear-gradient-6" x1="2079.46" y1="606.11" x2="1860.7" y2="606.11" gradientTransform="translate(3940.16 1212.22) rotate(180)" xlink:href="#linear-gradient-2"/><linearGradient id="linear-gradient-7" x1="2079.46" y1="682.15" x2="1860.7" y2="682.15" gradientTransform="translate(3940.16 1364.3) rotate(180)" xlink:href="#linear-gradient-2"/><linearGradient id="linear-gradient-8" x1="2079.46" y1="758.2" x2="1860.7" y2="758.2" gradientTransform="translate(3940.16 1516.39) rotate(180)" xlink:href="#linear-gradient-2"/><linearGradient id="linear-gradient-9" x1="2079.46" y1="834.24" x2="1860.7" y2="834.24" gradientTransform="translate(3940.16 1668.48) rotate(180)" xlink:href="#linear-gradient-2"/><linearGradient id="linear-gradient-10" x1="2079.46" y1="910.28" x2="1860.7" y2="910.28" gradientTransform="translate(3940.16 1820.56) rotate(180)" xlink:href="#linear-gradient-2"/><linearGradient id="linear-gradient-11" x1="2079.46" y1="986.33" x2="1860.7" y2="986.33" gradientTransform="translate(3940.16 1972.65) rotate(180)" xlink:href="#linear-gradient-2"/><linearGradient id="linear-gradient-12" x1="453.92" y1="1060.36" x2="453.92" y2="330.93" xlink:href="#linear-gradient-2"/><linearGradient id="linear-gradient-13" x1="1373.65" y1="1060.36" x2="1373.65" y2="330.93" xlink:href="#linear-gradient-2"/><linearGradient id="linear-gradient-14" x1="697.09" y1="1060.36" x2="697.09" y2="330.93" xlink:href="#linear-gradient-2"/><linearGradient id="linear-gradient-15" x1="0" y1="458.85" x2="218.75" y2="458.85" xlink:href="#linear-gradient-2"/><linearGradient id="linear-gradient-16" x1="0" y1="530.06" x2="218.75" y2="530.06" xlink:href="#linear-gradient-2"/><linearGradient id="linear-gradient-17" x1="0" y1="606.11" x2="218.75" y2="606.11" xlink:href="#linear-gradient-2"/><linearGradient id="linear-gradient-18" x1="0" y1="682.15" x2="218.75" y2="682.15" xlink:href="#linear-gradient-2"/><linearGradient id="linear-gradient-19" x1="0" y1="758.2" x2="218.75" y2="758.2" xlink:href="#linear-gradient-2"/><linearGradient id="linear-gradient-20" x1="0" y1="834.24" x2="218.75" y2="834.24" xlink:href="#linear-gradient-2"/><linearGradient id="linear-gradient-21" x1="0" y1="910.28" x2="218.75" y2="910.28" xlink:href="#linear-gradient-2"/><linearGradient id="linear-gradient-22" x1="0" y1="986.33" x2="218.75" y2="986.33" xlink:href="#linear-gradient-2"/></defs><title>house_new</title><rect class="cls-1" x="400.33" y="280" width="1280" height="720" transform="translate(400.33 1680.33) rotate(-90)"/><rect class="cls-2" y="0.03" width="2079.46" height="1279.07"/><rect class="cls-3" width="2079.19" height="1280"/><polygon class="cls-4" points="282.78 486.01 282.78 632.58 274.54 632.58 274.54 563.86 254.01 563.86 215.95 563.86 215.95 735.35 145.07 735.35 145.07 1049.95 252.68 1049.95 277.85 1049.95 379.59 1049.95 379.59 526.27 282.78 486.01"/><polygon class="cls-5" points="1768.81 827.21 1768.81 416.09 1744.88 416.09 1744.88 364.77 1723.92 364.77 1693.33 364.77 1693.33 416.76 1675.94 416.76 1675.94 770.14 1650.77 770.14 1650.77 722.12 1594.88 766.89 1594.88 649.76 1580.39 649.76 1580.39 627.42 1571.61 627.42 1571.61 649.76 1562.69 649.76 1562.69 627.42 1553.9 627.42 1553.9 649.76 1543.96 649.76 1543.96 716.72 1526.38 716.72 1526.38 1060.36 1652.03 1060.36 1723.92 1060.36 1769.28 1060.36 1769.28 827.21 1768.81 827.21"/><rect class="cls-6" x="1829.17" y="403.59" width="250.29" height="655.53" transform="translate(3908.62 1462.72) rotate(-180)"/><rect class="cls-7" x="1860.7" y="443.66" width="218.75" height="30.39" transform="translate(3940.16 917.71) rotate(-180)"/><rect class="cls-8" x="1860.7" y="514.87" width="218.75" height="30.39" transform="translate(3940.16 1060.13) rotate(-180)"/><rect class="cls-9" x="1860.7" y="590.91" width="218.75" height="30.39" transform="translate(3940.16 1212.22) rotate(-180)"/><rect class="cls-10" x="1860.7" y="666.95" width="218.75" height="30.39" transform="translate(3940.16 1364.3) rotate(-180)"/><rect class="cls-11" x="1860.7" y="743" width="218.75" height="30.39" transform="translate(3940.16 1516.39) rotate(-180)"/><rect class="cls-12" x="1860.7" y="819.04" width="218.75" height="30.39" transform="translate(3940.16 1668.48) rotate(-180)"/><rect class="cls-13" x="1860.7" y="895.08" width="218.75" height="30.39" transform="translate(3940.16 1820.56) rotate(-180)"/><rect class="cls-14" x="1860.7" y="971.13" width="218.75" height="30.39" transform="translate(3940.16 1972.65) rotate(-180)"/><g class="cls-15"><rect class="cls-16" x="1691.08" y="430.57" width="65.45" height="11.29"/><rect class="cls-17" x="1691.08" y="452.44" width="65.45" height="11.29"/><rect class="cls-18" x="1691.08" y="474.32" width="65.45" height="11.29"/><rect class="cls-19" x="1691.08" y="496.19" width="65.45" height="11.29"/><rect class="cls-20" x="1691.08" y="518.07" width="65.45" height="11.29"/><rect class="cls-21" x="1691.08" y="551.34" width="65.45" height="11.29"/><rect class="cls-22" x="1691.08" y="596.59" width="65.45" height="11.29"/><rect class="cls-23" x="1691.08" y="643.33" width="65.45" height="11.29"/><rect class="cls-24" x="1691.08" y="700.56" width="65.45" height="11.29"/><rect class="cls-25" x="1691.08" y="766.77" width="65.45" height="11.29"/></g><polygon class="cls-26" points="527.79 763.94 527.79 386.47 501.41 386.47 501.41 330.93 436.83 330.93 436.83 386.47 379.51 386.47 379.51 763.94 379.45 763.94 379.45 1060.36 528.39 1060.36 528.39 763.94 527.79 763.94"/><rect class="cls-16" x="402.53" y="417.09" width="101.28" height="11.29"/><rect class="cls-17" x="402.53" y="438.97" width="101.28" height="11.29"/><rect class="cls-18" x="402.53" y="460.84" width="101.28" height="11.29"/><rect class="cls-19" x="402.53" y="482.72" width="101.28" height="11.29"/><rect class="cls-20" x="402.53" y="504.59" width="101.28" height="11.29"/><rect class="cls-21" x="402.53" y="537.87" width="101.28" height="11.29"/><rect class="cls-22" x="402.53" y="583.11" width="101.28" height="11.29"/><rect class="cls-23" x="402.53" y="629.86" width="101.28" height="11.29"/><rect class="cls-24" x="402.53" y="687.08" width="101.28" height="11.29"/><rect class="cls-25" x="402.53" y="753.29" width="101.28" height="11.29"/><polygon class="cls-27" points="1468.9 717.55 1468.9 485.43 1448.06 485.43 1448.06 416.8 1426.34 416.8 1426.34 387.8 1409.49 387.8 1407.23 353.06 1366.23 387.37 1366.2 387.8 1349.08 387.8 1349.08 416.8 1327.36 416.8 1327.36 485.43 1306.52 485.43 1306.52 534.88 1292.8 547.71 1292.8 688.59 1262.3 688.59 1262.3 1060.36 1485 1060.36 1485 717.55 1468.9 717.55"/><polygon class="cls-28" points="788.91 733.75 788.91 455.57 692.34 455.57 692.7 757.97 692.73 780.92 687.09 780.92 590.76 714.73 590.76 1060.36 661.36 1060.36 692.7 1060.36 693.08 1060.36 741.14 1060.36 803.42 1060.36 803.42 733.75 788.91 733.75"/><rect class="cls-6" y="403.59" width="250.29" height="655.53"/><rect class="cls-29" y="443.66" width="218.75" height="30.39"/><rect class="cls-30" y="514.87" width="218.75" height="30.39"/><rect class="cls-31" y="590.91" width="218.75" height="30.39"/><rect class="cls-32" y="666.95" width="218.75" height="30.39"/><rect class="cls-33" y="743" width="218.75" height="30.39"/><rect class="cls-34" y="819.04" width="218.75" height="30.39"/><rect class="cls-35" y="895.08" width="218.75" height="30.39"/><rect class="cls-36" y="971.13" width="218.75" height="30.39"/></svg>