<svg id="Layer_1" data-name="Layer 1" xmlns="http://www.w3.org/2000/svg" xmlns:xlink="http://www.w3.org/1999/xlink" viewBox="0 0 2079.19 1280"><defs><style>.cls-1{isolation:isolate;fill:url(#linear-gradient);}.cls-13,.cls-2{opacity:0.6;}.cls-2{fill:url(#linear-gradient-2);}.cls-12,.cls-17,.cls-18,.cls-19,.cls-3{opacity:0.7;}.cls-3{fill:url(#linear-gradient-3);}.cls-4{fill:url(#linear-gradient-4);}.cls-5{fill:#c7aeb5;}.cls-6,.cls-8{opacity:0.9;}.cls-10,.cls-11,.cls-12,.cls-13,.cls-14,.cls-15,.cls-16,.cls-7,.cls-8,.cls-9{fill:#edc1b6;}.cls-7{opacity:0.95;}.cls-9{opacity:0.85;}.cls-10{opacity:0.8;}.cls-11{opacity:0.75;}.cls-14{opacity:0.5;}.cls-15{opacity:0.4;}.cls-16{opacity:0.3;}.cls-17{fill:url(#linear-gradient-5);}.cls-18{fill:url(#linear-gradient-6);}.cls-19{fill:url(#linear-gradient-7);}.cls-20{fill:url(#linear-gradient-8);}</style><linearGradient id="linear-gradient" x1="1039.32" x2="1039.32" y2="1280" gradientUnits="userSpaceOnUse"><stop offset="0.01" stop-color="#efaeb6"/><stop offset="0.03" stop-color="#eaacb6"/><stop offset="0.25" stop-color="#be9eb9"/><stop offset="0.47" stop-color="#9c93bb"/><stop offset="0.67" stop-color="#838bbd"/><stop offset="0.85" stop-color="#7486be"/><stop offset="1" stop-color="#6f84be"/></linearGradient><linearGradient id="linear-gradient-2" x1="262.06" y1="1049.95" x2="262.06" y2="320.52" gradientUnits="userSpaceOnUse"><stop offset="0.01" stop-color="#b9c9c9"/><stop offset="0.27" stop-color="#c1babe"/><stop offset="0.57" stop-color="#c5b1b7"/><stop offset="1" stop-color="#c7aeb5"/></linearGradient><linearGradient id="linear-gradient-3" x1="1647.56" y1="1060.36" x2="1647.56" y2="329.18" xlink:href="#linear-gradient-2"/><linearGradient id="linear-gradient-4" x1="1954.04" y1="403.59" x2="1954.04" y2="1059.13" gradientTransform="translate(3908.08 1462.72) rotate(180)" gradientUnits="userSpaceOnUse"><stop offset="0.01" stop-color="#b9c9c9"/><stop offset="0.49" stop-color="#c1babe"/><stop offset="1" stop-color="#c7aeb5"/></linearGradient><linearGradient id="linear-gradient-5" x1="453.65" y1="1060.36" x2="453.65" y2="330.93" xlink:href="#linear-gradient-2"/><linearGradient id="linear-gradient-6" x1="1373.38" y1="1060.36" x2="1373.38" y2="330.93" xlink:href="#linear-gradient-2"/><linearGradient id="linear-gradient-7" x1="696.82" y1="1060.36" x2="696.82" y2="330.93" xlink:href="#linear-gradient-2"/><linearGradient id="linear-gradient-8" x1="124.87" y1="403.59" x2="124.87" y2="1059.13" gradientTransform="matrix(1, 0, 0, 1, 0, 0)" xlink:href="#linear-gradient-4"/></defs><title>house_new</title><rect class="cls-1" x="-0.27" width="2079.19" height="1280"/><polygon class="cls-2" points="282.51 486.01 282.51 632.58 274.27 632.58 274.27 563.86 253.74 563.86 215.68 563.86 215.68 735.35 144.8 735.35 144.8 1049.95 252.41 1049.95 277.58 1049.95 379.32 1049.95 379.32 526.27 282.51 486.01"/><polygon class="cls-3" points="1768.54 827.21 1768.54 416.09 1744.61 416.09 1744.61 364.77 1723.65 364.77 1693.06 364.77 1693.06 416.76 1675.67 416.76 1675.67 770.14 1650.5 770.14 1650.5 722.12 1594.61 766.89 1594.61 649.76 1580.12 649.76 1580.12 627.42 1571.34 627.42 1571.34 649.76 1562.42 649.76 1562.42 627.42 1553.64 627.42 1553.64 649.76 1543.7 649.76 1543.7 716.72 1526.11 716.72 1526.11 1060.36 1651.76 1060.36 1723.65 1060.36 1769.01 1060.36 1769.01 827.21 1768.54 827.21"/><rect class="cls-4" x="1828.9" y="403.59" width="250.29" height="655.53" transform="translate(3908.08 1462.72) rotate(-180)"/><rect class="cls-5" x="1860.43" y="443.66" width="218.75" height="30.39" transform="translate(3939.62 917.71) rotate(-180)"/><rect class="cls-5" x="1860.43" y="514.87" width="218.75" height="30.39" transform="translate(3939.62 1060.13) rotate(-180)"/><rect class="cls-5" x="1860.43" y="590.91" width="218.75" height="30.39" transform="translate(3939.62 1212.22) rotate(-180)"/><rect class="cls-5" x="1860.43" y="666.95" width="218.75" height="30.39" transform="translate(3939.62 1364.3) rotate(-180)"/><rect class="cls-5" x="1860.43" y="743" width="218.75" height="30.39" transform="translate(3939.62 1516.39) rotate(-180)"/><rect class="cls-5" x="1860.43" y="819.04" width="218.75" height="30.39" transform="translate(3939.62 1668.48) rotate(-180)"/><rect class="cls-5" x="1860.43" y="895.08" width="218.75" height="30.39" transform="translate(3939.62 1820.56) rotate(-180)"/><rect class="cls-5" x="1860.43" y="971.13" width="218.75" height="30.39" transform="translate(3939.62 1972.65) rotate(-180)"/><g class="cls-6"><rect class="cls-7" x="1690.81" y="430.57" width="65.45" height="11.29"/><rect class="cls-8" x="1690.81" y="452.44" width="65.45" height="11.29"/><rect class="cls-9" x="1690.81" y="474.32" width="65.45" height="11.29"/><rect class="cls-10" x="1690.81" y="496.19" width="65.45" height="11.29"/><rect class="cls-11" x="1690.81" y="518.07" width="65.45" height="11.29"/><rect class="cls-12" x="1690.81" y="551.34" width="65.45" height="11.29"/><rect class="cls-13" x="1690.81" y="596.59" width="65.45" height="11.29"/><rect class="cls-14" x="1690.81" y="643.33" width="65.45" height="11.29"/><rect class="cls-15" x="1690.81" y="700.56" width="65.45" height="11.29"/><rect class="cls-16" x="1690.81" y="766.77" width="65.45" height="11.29"/></g><polygon class="cls-17" points="527.52 763.94 527.52 386.47 501.14 386.47 501.14 330.93 436.56 330.93 436.56 386.47 379.24 386.47 379.24 763.94 379.19 763.94 379.19 1060.36 528.12 1060.36 528.12 763.94 527.52 763.94"/><g class="cls-6"><rect class="cls-7" x="402.26" y="417.09" width="101.28" height="11.29"/><rect class="cls-8" x="402.26" y="438.97" width="101.28" height="11.29"/><rect class="cls-9" x="402.26" y="460.84" width="101.28" height="11.29"/><rect class="cls-10" x="402.26" y="482.72" width="101.28" height="11.29"/><rect class="cls-11" x="402.26" y="504.59" width="101.28" height="11.29"/><rect class="cls-12" x="402.26" y="537.87" width="101.28" height="11.29"/><rect class="cls-13" x="402.26" y="583.11" width="101.28" height="11.29"/><rect class="cls-14" x="402.26" y="629.86" width="101.28" height="11.29"/><rect class="cls-15" x="402.26" y="687.08" width="101.28" height="11.29"/><rect class="cls-16" x="402.26" y="753.29" width="101.28" height="11.29"/></g><polygon class="cls-18" points="1468.63 717.55 1468.63 485.43 1447.79 485.43 1447.79 416.8 1426.07 416.8 1426.07 387.8 1409.22 387.8 1406.96 353.06 1365.96 387.37 1365.93 387.8 1348.81 387.8 1348.81 416.8 1327.09 416.8 1327.09 485.43 1306.25 485.43 1306.25 534.88 1292.53 547.71 1292.53 688.59 1262.03 688.59 1262.03 1060.36 1484.73 1060.36 1484.73 717.55 1468.63 717.55"/><polygon class="cls-19" points="788.64 733.75 788.64 455.57 692.07 455.57 692.43 757.97 692.46 780.92 686.82 780.92 590.5 714.73 590.5 1060.36 661.09 1060.36 692.43 1060.36 692.81 1060.36 740.87 1060.36 803.15 1060.36 803.15 733.75 788.64 733.75"/><rect class="cls-20" x="-0.27" y="403.59" width="250.29" height="655.53"/><rect class="cls-5" x="-0.27" y="443.66" width="218.75" height="30.39" transform="translate(218.22 917.71) rotate(-180)"/><rect class="cls-5" x="-0.27" y="514.87" width="218.75" height="30.39" transform="translate(218.22 1060.13) rotate(-180)"/><rect class="cls-5" x="-0.27" y="590.91" width="218.75" height="30.39" transform="translate(218.22 1212.22) rotate(-180)"/><rect class="cls-5" x="-0.27" y="666.95" width="218.75" height="30.39" transform="translate(218.22 1364.3) rotate(-180)"/><rect class="cls-5" x="-0.27" y="743" width="218.75" height="30.39" transform="translate(218.22 1516.39) rotate(-180)"/><rect class="cls-5" x="-0.27" y="819.04" width="218.75" height="30.39" transform="translate(218.22 1668.48) rotate(-180)"/><rect class="cls-5" x="-0.27" y="895.08" width="218.75" height="30.39" transform="translate(218.22 1820.56) rotate(-180)"/><rect class="cls-5" x="-0.27" y="971.13" width="218.75" height="30.39" transform="translate(218.22 1972.65) rotate(-180)"/></svg>