<svg xmlns="http://www.w3.org/2000/svg" xmlns:xlink="http://www.w3.org/1999/xlink" viewBox="0 0 1441.4 1280"><defs><style>.cls-1,.cls-19,.cls-2{isolation:isolate;}.cls-2{fill:url(#linear-gradient);}.cls-11,.cls-15,.cls-16,.cls-17,.cls-21,.cls-22,.cls-23,.cls-24,.cls-25,.cls-26,.cls-27,.cls-28,.cls-29,.cls-3,.cls-30,.cls-31,.cls-32,.cls-33,.cls-34,.cls-35,.cls-36,.cls-37,.cls-38,.cls-39,.cls-40,.cls-41,.cls-42,.cls-43,.cls-44,.cls-48,.cls-49,.cls-50,.cls-51,.cls-52,.cls-53,.cls-54,.cls-55{opacity:0.6;}.cls-3{fill:url(#linear-gradient-2);}.cls-4,.cls-5{opacity:0.95;}.cls-10,.cls-11,.cls-12,.cls-13,.cls-14,.cls-20,.cls-5,.cls-6,.cls-7,.cls-8,.cls-9{fill:#b9d7d8;}.cls-6{opacity:0.9;}.cls-7{opacity:0.85;}.cls-8{opacity:0.8;}.cls-9{opacity:0.75;}.cls-10{opacity:0.7;}.cls-12{opacity:0.5;}.cls-13{opacity:0.4;}.cls-14{opacity:0.3;}.cls-15{fill:url(#linear-gradient-3);}.cls-16{fill:url(#linear-gradient-4);}.cls-17{fill:url(#linear-gradient-5);}.cls-18{fill:#fff;}.cls-19{fill:url(#linear-gradient-6);}.cls-21{fill:url(#linear-gradient-7);}.cls-22{fill:url(#linear-gradient-8);}.cls-23{fill:url(#linear-gradient-9);}.cls-24{fill:url(#linear-gradient-10);}.cls-25{fill:url(#linear-gradient-11);}.cls-26{fill:url(#linear-gradient-12);}.cls-27{fill:url(#linear-gradient-13);}.cls-28{fill:url(#linear-gradient-14);}.cls-29{fill:url(#linear-gradient-15);}.cls-30{fill:url(#linear-gradient-16);}.cls-31{fill:url(#linear-gradient-17);}.cls-32{fill:url(#linear-gradient-18);}.cls-33{fill:url(#linear-gradient-19);}.cls-34{fill:url(#linear-gradient-20);}.cls-35{fill:url(#linear-gradient-21);}.cls-36{fill:url(#linear-gradient-22);}.cls-37{fill:url(#linear-gradient-23);}.cls-38{fill:url(#linear-gradient-24);}.cls-39{fill:url(#linear-gradient-25);}.cls-40{fill:url(#linear-gradient-26);}.cls-41{fill:url(#linear-gradient-27);}.cls-42{fill:url(#linear-gradient-28);}.cls-43{fill:url(#linear-gradient-29);}.cls-44{fill:url(#linear-gradient-30);}.cls-45{fill:#4b5a66;}.cls-46{fill:#35363a;}.cls-47{fill:#70772f;}.cls-48{fill:url(#linear-gradient-31);}.cls-49{fill:url(#linear-gradient-32);}.cls-50{fill:url(#linear-gradient-33);}.cls-51{fill:url(#linear-gradient-34);}.cls-52{fill:url(#linear-gradient-35);}.cls-53{fill:url(#linear-gradient-36);}.cls-54{fill:url(#linear-gradient-37);}.cls-55{fill:url(#linear-gradient-38);}.cls-56{fill:url(#linear-gradient-39);}.cls-57{opacity:0.2;}.cls-58,.cls-59{fill:none;stroke:#fff;stroke-miterlimit:10;stroke-width:10px;}.cls-59{stroke-dasharray:51.46 51.46;}.cls-60{fill:#626b2f;}.cls-61{fill:#cd7339;}.cls-62{fill:#aa6555;}.cls-63{fill:#517114;}.cls-64{fill:#85913d;}.cls-65{fill:#c16d2f;}.cls-66{fill:#e07d4b;}.cls-67{fill:#92a251;}.cls-68{fill:#a9b562;}.cls-69{fill:#9b4c28;}.cls-70{fill:#ca672e;}.cls-71{fill:#f8e9cb;}.cls-72{fill:#4e4237;}.cls-73{fill:#60574a;}.cls-74{fill:#2d2924;}.cls-75{fill:#3f3931;}.cls-76{fill:#bc7744;}.cls-77,.cls-78{fill:#d6a454;}.cls-78{opacity:0.55;mix-blend-mode:multiply;}</style><linearGradient id="linear-gradient" x1="720.7" x2="720.7" y2="1280" gradientUnits="userSpaceOnUse"><stop offset="0.01" stop-color="#6dcaff"/><stop offset="0.04" stop-color="#75cbfc"/><stop offset="0.17" stop-color="#9cd2ed"/><stop offset="0.31" stop-color="#bdd8e0"/><stop offset="0.45" stop-color="#d7dcd6"/><stop offset="0.59" stop-color="#e9e0cf"/><stop offset="0.75" stop-color="#f4e1cb"/><stop offset="0.92" stop-color="#f7e2ca"/></linearGradient><linearGradient id="linear-gradient-2" x1="1031.52" y1="1050.51" x2="1031.52" y2="205.83" gradientUnits="userSpaceOnUse"><stop offset="0.01" stop-color="#b9c9c9"/><stop offset="0.27" stop-color="#c1babe"/><stop offset="0.57" stop-color="#c5b1b7"/><stop offset="1" stop-color="#c7aeb5"/></linearGradient><linearGradient id="linear-gradient-3" x1="278.72" y1="1050.51" x2="278.72" y2="318.71" xlink:href="#linear-gradient-2"/><linearGradient id="linear-gradient-4" x1="1323.26" y1="1050.51" x2="1323.26" y2="321.08" xlink:href="#linear-gradient-2"/><linearGradient id="linear-gradient-5" x1="556.09" y1="1050.51" x2="556.09" y2="145.76" xlink:href="#linear-gradient-2"/><linearGradient id="linear-gradient-6" x1="2480.92" x2="2480.92" y2="1280" gradientUnits="userSpaceOnUse"><stop offset="0.01" stop-color="#b9d7d8"/><stop offset="0.66" stop-color="#e5dfa7"/><stop offset="1" stop-color="#f7e293"/></linearGradient><linearGradient id="linear-gradient-7" x1="1441.33" y1="458.85" x2="1660.08" y2="458.85" xlink:href="#linear-gradient-2"/><linearGradient id="linear-gradient-8" x1="1441.33" y1="530.06" x2="1660.08" y2="530.06" xlink:href="#linear-gradient-2"/><linearGradient id="linear-gradient-9" x1="1441.33" y1="606.11" x2="1660.08" y2="606.11" xlink:href="#linear-gradient-2"/><linearGradient id="linear-gradient-10" x1="1441.33" y1="682.15" x2="1660.08" y2="682.15" xlink:href="#linear-gradient-2"/><linearGradient id="linear-gradient-11" x1="1441.33" y1="758.2" x2="1660.08" y2="758.2" xlink:href="#linear-gradient-2"/><linearGradient id="linear-gradient-12" x1="1441.33" y1="834.24" x2="1660.08" y2="834.24" xlink:href="#linear-gradient-2"/><linearGradient id="linear-gradient-13" x1="1441.33" y1="910.28" x2="1660.08" y2="910.28" xlink:href="#linear-gradient-2"/><linearGradient id="linear-gradient-14" x1="1441.33" y1="986.33" x2="1660.08" y2="986.33" xlink:href="#linear-gradient-2"/><linearGradient id="linear-gradient-15" x1="634.25" y1="458.85" x2="853" y2="458.85" xlink:href="#linear-gradient-2"/><linearGradient id="linear-gradient-16" x1="634.25" y1="530.06" x2="853" y2="530.06" xlink:href="#linear-gradient-2"/><linearGradient id="linear-gradient-17" x1="634.25" y1="606.11" x2="853" y2="606.11" xlink:href="#linear-gradient-2"/><linearGradient id="linear-gradient-18" x1="634.25" y1="682.15" x2="853" y2="682.15" xlink:href="#linear-gradient-2"/><linearGradient id="linear-gradient-19" x1="634.25" y1="758.2" x2="853" y2="758.2" xlink:href="#linear-gradient-2"/><linearGradient id="linear-gradient-20" x1="634.25" y1="834.24" x2="853" y2="834.24" xlink:href="#linear-gradient-2"/><linearGradient id="linear-gradient-21" x1="634.25" y1="910.28" x2="853" y2="910.28" xlink:href="#linear-gradient-2"/><linearGradient id="linear-gradient-22" x1="634.25" y1="986.33" x2="853" y2="986.33" xlink:href="#linear-gradient-2"/><linearGradient id="linear-gradient-23" x1="1152.77" y1="569.87" x2="1331.07" y2="569.87" xlink:href="#linear-gradient-2"/><linearGradient id="linear-gradient-24" x1="1152.77" y1="627.91" x2="1331.07" y2="627.91" xlink:href="#linear-gradient-2"/><linearGradient id="linear-gradient-25" x1="1152.77" y1="689.89" x2="1331.07" y2="689.89" xlink:href="#linear-gradient-2"/><linearGradient id="linear-gradient-26" x1="1152.77" y1="751.87" x2="1331.07" y2="751.87" xlink:href="#linear-gradient-2"/><linearGradient id="linear-gradient-27" x1="1152.77" y1="813.85" x2="1331.07" y2="813.85" xlink:href="#linear-gradient-2"/><linearGradient id="linear-gradient-28" x1="1152.77" y1="875.83" x2="1331.07" y2="875.83" xlink:href="#linear-gradient-2"/><linearGradient id="linear-gradient-29" x1="1152.77" y1="937.81" x2="1331.07" y2="937.81" xlink:href="#linear-gradient-2"/><linearGradient id="linear-gradient-30" x1="1152.77" y1="999.79" x2="1331.07" y2="999.79" xlink:href="#linear-gradient-2"/><linearGradient id="linear-gradient-31" x1="29.21" y1="526.1" x2="223.49" y2="526.1" xlink:href="#linear-gradient-2"/><linearGradient id="linear-gradient-32" x1="29.21" y1="589.34" x2="223.49" y2="589.34" xlink:href="#linear-gradient-2"/><linearGradient id="linear-gradient-33" x1="29.21" y1="656.88" x2="223.49" y2="656.88" xlink:href="#linear-gradient-2"/><linearGradient id="linear-gradient-34" x1="29.21" y1="724.41" x2="223.49" y2="724.41" xlink:href="#linear-gradient-2"/><linearGradient id="linear-gradient-35" x1="29.21" y1="791.94" x2="223.49" y2="791.94" xlink:href="#linear-gradient-2"/><linearGradient id="linear-gradient-36" x1="29.21" y1="859.47" x2="223.49" y2="859.47" xlink:href="#linear-gradient-2"/><linearGradient id="linear-gradient-37" x1="29.21" y1="927.01" x2="223.49" y2="927.01" xlink:href="#linear-gradient-2"/><linearGradient id="linear-gradient-38" x1="29.21" y1="994.54" x2="223.49" y2="994.54" xlink:href="#linear-gradient-2"/><linearGradient id="linear-gradient-39" x1="720.73" y1="1280" x2="720.73" y2="1087.95" gradientUnits="userSpaceOnUse"><stop offset="0.01" stop-color="#4b5a66"/><stop offset="0.3" stop-color="#4f606d"/><stop offset="0.71" stop-color="#59727f"/><stop offset="1" stop-color="#638290"/></linearGradient></defs><title>house_new</title><g class="cls-1"><g id="Layer_1" data-name="Layer 1"><rect class="cls-2" width="1441.4" height="1280"/><polygon class="cls-3" points="1171.29 781.17 1171.29 306.23 1143.64 306.23 1143.64 246.95 1119.43 246.95 1084.08 246.95 1084.08 307.01 1064 307.01 1064 715.24 1034.92 715.24 1034.92 659.76 970.36 711.48 970.36 576.17 953.62 576.17 953.62 550.36 943.47 550.36 943.47 576.17 933.17 576.17 933.17 550.36 923.02 550.36 923.02 576.17 911.54 576.17 911.54 653.53 891.22 653.53 891.22 1050.51 1036.38 1050.51 1119.43 1050.51 1171.82 1050.51 1171.82 781.17 1171.29 781.17"/><g class="cls-4"><rect class="cls-5" x="1081.48" y="322.95" width="75.61" height="13.05"/><rect class="cls-6" x="1081.48" y="348.22" width="75.61" height="13.05"/><rect class="cls-7" x="1081.48" y="373.49" width="75.61" height="13.05"/><rect class="cls-8" x="1081.48" y="398.76" width="75.61" height="13.05"/><rect class="cls-9" x="1081.48" y="424.04" width="75.61" height="13.05"/><rect class="cls-10" x="1081.48" y="462.47" width="75.61" height="13.05"/><rect class="cls-11" x="1081.48" y="514.74" width="75.61" height="13.05"/><rect class="cls-12" x="1081.48" y="568.75" width="75.61" height="13.05"/><rect class="cls-13" x="1081.48" y="634.85" width="75.61" height="13.05"/><rect class="cls-14" x="1081.48" y="711.34" width="75.61" height="13.05"/></g><polygon class="cls-15" points="352.83 753.13 352.83 374.43 326.36 374.43 326.36 318.71 261.58 318.71 261.58 374.43 204.07 374.43 204.07 753.13 204.01 753.13 204.01 1050.51 353.43 1050.51 353.43 753.13 352.83 753.13"/><rect class="cls-5" x="227.16" y="405.15" width="101.61" height="11.33"/><rect class="cls-6" x="227.16" y="427.1" width="101.61" height="11.33"/><rect class="cls-7" x="227.16" y="449.04" width="101.61" height="11.33"/><rect class="cls-8" x="227.16" y="470.99" width="101.61" height="11.33"/><rect class="cls-9" x="227.16" y="492.94" width="101.61" height="11.33"/><rect class="cls-10" x="227.16" y="526.32" width="101.61" height="11.33"/><rect class="cls-11" x="227.16" y="571.71" width="101.61" height="11.33"/><rect class="cls-12" x="227.16" y="618.61" width="101.61" height="11.33"/><rect class="cls-13" x="227.16" y="676.02" width="101.61" height="11.33"/><rect class="cls-14" x="227.16" y="742.44" width="101.61" height="11.33"/><polygon class="cls-16" points="1418.51 707.7 1418.51 475.58 1397.67 475.58 1397.67 406.94 1375.95 406.94 1375.95 377.95 1359.1 377.95 1356.85 343.2 1315.84 377.52 1315.82 377.95 1298.69 377.95 1298.69 406.94 1276.97 406.94 1276.97 475.58 1256.13 475.58 1256.13 525.03 1242.41 537.85 1242.41 678.74 1211.91 678.74 1211.91 1050.51 1434.61 1050.51 1434.61 707.7 1418.51 707.7"/><polygon class="cls-17" points="683 645.39 683 300.37 563.22 300.37 563.67 675.44 563.7 703.9 556.71 703.9 411.19 621.81 411.19 1050.51 524.79 1050.51 563.67 1050.51 564.14 1050.51 623.75 1050.51 701 1050.51 701 645.39 683 645.39"/><rect class="cls-18" x="1441.33" y="0.03" width="2079.46" height="1279.07"/><rect class="cls-19" x="1441.33" width="2079.19" height="1280"/><rect class="cls-20" x="1441.33" y="403.59" width="250.29" height="655.53"/><rect class="cls-21" x="1441.33" y="443.66" width="218.75" height="30.39"/><rect class="cls-22" x="1441.33" y="514.87" width="218.75" height="30.39"/><rect class="cls-23" x="1441.33" y="590.91" width="218.75" height="30.39"/><rect class="cls-24" x="1441.33" y="666.95" width="218.75" height="30.39"/><rect class="cls-25" x="1441.33" y="743" width="218.75" height="30.39"/><rect class="cls-26" x="1441.33" y="819.04" width="218.75" height="30.39"/><rect class="cls-27" x="1441.33" y="895.08" width="218.75" height="30.39"/><rect class="cls-28" x="1441.33" y="971.13" width="218.75" height="30.39"/><rect class="cls-20" x="634.25" y="403.59" width="250.29" height="655.53"/><rect class="cls-29" x="634.25" y="443.66" width="218.75" height="30.39"/><rect class="cls-30" x="634.25" y="514.87" width="218.75" height="30.39"/><rect class="cls-31" x="634.25" y="590.91" width="218.75" height="30.39"/><rect class="cls-32" x="634.25" y="666.95" width="218.75" height="30.39"/><rect class="cls-33" x="634.25" y="743" width="218.75" height="30.39"/><rect class="cls-34" x="634.25" y="819.04" width="218.75" height="30.39"/><rect class="cls-35" x="634.25" y="895.08" width="218.75" height="30.39"/><rect class="cls-36" x="634.25" y="971.13" width="218.75" height="30.39"/><rect class="cls-20" x="602.79" y="403.59" width="31.53" height="655.53"/><rect class="cls-20" x="1152.77" y="524.84" width="204" height="534.29"/><rect class="cls-37" x="1152.77" y="557.49" width="178.3" height="24.77"/><rect class="cls-38" x="1152.77" y="615.53" width="178.3" height="24.77"/><rect class="cls-39" x="1152.77" y="677.51" width="178.3" height="24.77"/><rect class="cls-40" x="1152.77" y="739.49" width="178.3" height="24.77"/><rect class="cls-41" x="1152.77" y="801.47" width="178.3" height="24.77"/><rect class="cls-42" x="1152.77" y="863.45" width="178.3" height="24.77"/><rect class="cls-43" x="1152.77" y="925.42" width="178.3" height="24.77"/><rect class="cls-44" x="1152.77" y="987.4" width="178.3" height="24.77"/><rect class="cls-20" x="1127.13" y="524.84" width="25.7" height="534.29"/><g id="street"><rect id="_Path_180" data-name=" Path 180" class="cls-45" x="1441.33" y="1060.1" width="2079.46" height="26.47"/><rect id="_Path_182" data-name=" Path 182" class="cls-46" x="1441.33" y="1079.19" width="2079.46" height="14.8"/></g><rect class="cls-47" x="1441.33" y="1049.55" width="743.44" height="11.43"/><path class="cls-47" d="M1309.17,1045.59a18.12,18.12,0,0,0,.59,4.61h50.13c0-.25,0-.5,0-.76a14.35,14.35,0,0,0-17.44-14,18.18,18.18,0,0,0-13-7.92,18.45,18.45,0,0,0-2.13-.12A18.2,18.2,0,0,0,1309.17,1045.59Z"/><path class="cls-47" d="M871.59,1027.84c6.75-3.77,13.51-3.78,19-1.4a30.1,30.1,0,1,1,57.77,16.77,11.93,11.93,0,0,1-11.31,8.11H876.28a11.93,11.93,0,0,1-10.38-17.83l.13-.22A14.82,14.82,0,0,1,871.59,1027.84Z"/><path class="cls-47" d="M563.38,1033.91a17.22,17.22,0,0,0-15.52-1.14,24.6,24.6,0,1,0-47.21,13.7,9.75,9.75,0,0,0,9.24,6.63h49.66a9.75,9.75,0,0,0,8.48-14.57l-.11-.18A12.11,12.11,0,0,0,563.38,1033.91Z"/><rect class="cls-20" x="29.21" y="477.03" width="222.28" height="582.16"/><rect class="cls-48" x="29.21" y="512.6" width="194.27" height="26.99"/><rect class="cls-49" x="29.21" y="575.85" width="194.27" height="26.99"/><rect class="cls-50" x="29.21" y="643.38" width="194.27" height="26.99"/><rect class="cls-51" x="29.21" y="710.91" width="194.27" height="26.99"/><rect class="cls-52" x="29.21" y="778.44" width="194.27" height="26.99"/><rect class="cls-53" x="29.21" y="845.98" width="194.27" height="26.99"/><rect class="cls-54" x="29.21" y="913.51" width="194.27" height="26.99"/><rect class="cls-55" x="29.21" y="981.04" width="194.27" height="26.99"/><rect class="cls-20" x="1.27" y="477.03" width="28" height="582.16"/><rect class="cls-20" x="1409.87" y="403.66" width="31.53" height="655.53"/><g id="street-2" data-name="street"><rect id="_Path_180-2" data-name=" Path 180" class="cls-45" x="-0.05" y="1060.1" width="1441.45" height="26.47"/><rect id="_Path_181" data-name=" Path 181" class="cls-56" x="0.05" y="1087.95" width="1441.35" height="192.05"/><rect id="_Path_182-2" data-name=" Path 182" class="cls-46" x="-0.05" y="1079.19" width="1441.45" height="14.8"/></g><rect class="cls-47" x="-0.05" y="1049.55" width="1441.45" height="11.43"/><g class="cls-57"><line class="cls-58" x1="-0.05" y1="1130.39" x2="25.93" y2="1130.39"/><line class="cls-59" x1="77.39" y1="1130.39" x2="1389.69" y2="1130.39"/><line class="cls-58" x1="1415.42" y1="1130.39" x2="1441.4" y2="1130.39"/></g><path class="cls-47" d="M211.55,1048.41a14.8,14.8,0,0,1-.48,3.77h-41c0-.2,0-.41,0-.62a11.72,11.72,0,0,1,14.25-11.44,14.85,14.85,0,0,1,10.6-6.47,15.07,15.07,0,0,1,1.74-.1A14.87,14.87,0,0,1,211.55,1048.41Z"/><path class="cls-60" d="M1158,838.32c-.54,54.75,15.45,58.58-102.24,58.58-56.47,0-102.24-3.82-102.24-58.58s45.78-99.15,102.24-99.15S1158.72,767,1158,838.32Z"/><path class="cls-61" d="M1086.42,907.72V919c-14.78,0-23.67-2.74-29.72-9.17-8.15-8.65-10-22.69-10.3-47.06,0-3.7-.06-7.63,0-11.81l10.71.36c0,5.32,0,10.2.1,14.68.36,18.83,1.89,30.31,7.14,35.88C1068.15,906,1074.76,907.72,1086.42,907.72Z"/><path class="cls-62" d="M1086.42,907.72v5.33c-13.13,0-20.82-2.22-25.71-7.41-6.71-7.13-8.23-19.89-8.61-39.53-.08-4-.11-8.61-.1-14.8h5.06c0,5.32,0,10.2.1,14.68.36,18.83,1.89,30.31,7.14,35.88C1068.15,906,1074.76,907.72,1086.42,907.72Z"/><path class="cls-62" d="M1057.16,866l-10.76-3.23c0-3.7-.06-7.63,0-11.81l10.71.36C1057.05,856.66,1057.07,861.54,1057.16,866Z"/><path class="cls-61" d="M1163.22,932.83l-12.11,37c0-15.9-8.13-17.31-17-18.44-19.52-2.5-34.75-8.62-44.88-22.12-9.77-13-13.68-31.59-15-57.41-.46-8.77-.63-18.39-.63-28.9h19.05c0,48.69,4.42,64.35,11.54,73.86C1112.74,928.18,1129.84,932.83,1163.22,932.83Z"/><path class="cls-62" d="M1163.22,932.83v8.88c-28.73-.78-51.1-2.4-64.3-18.74-7.86-9.72-11.74-25.29-13.59-44.32-.13-1.36-10.82-3.22-10.82-3.22s-1.64-20.4-.89-32.48h19.05c0,48.69,4.42,64.35,11.54,73.86C1112.74,928.18,1129.84,932.83,1163.22,932.83Z"/><rect class="cls-60" x="1001.73" y="837.38" width="96.45" height="19.77"/><path class="cls-47" d="M946.93,840.88c5.28-13.56,19.45-21,19.45-21s5.61,14.52.33,28.08-19.45,21-19.45,21S941.65,854.44,946.93,840.88Z"/><path class="cls-63" d="M1195.62,735.12c2.19-11.06,12.8-18.74,12.8-18.74s7.05,10.26,4.86,21.32-12.8,18.74-12.8,18.74S1193.43,746.18,1195.62,735.12Z"/><path class="cls-63" d="M1149.52,675c3.5,10.56-2.3,21.81-2.3,21.81s-11.46-5.88-15-16.44,2.3-21.81,2.3-21.81S1146,664.44,1149.52,675Z"/><path class="cls-47" d="M940.43,831c8.55-3.3,18.56,1.3,18.56,1.3s-3.85,10-12.39,13.27-18.56-1.3-18.56-1.3S931.89,834.31,940.43,831Z"/><path class="cls-60" d="M1250.94,738.57c0,63.28-52.9,67.7-118.16,67.7s-118.16-4.42-118.16-67.7S1067.52,624,1132.78,624,1250.94,675.29,1250.94,738.57Z"/><path class="cls-60" d="M1350.89,822.68c0,64.56-41,62.45-94.76,62.45-104.7,0-94.76.71-94.76-62.45,0-52.16,43.6-94.44,97.39-94.44S1350.89,770.52,1350.89,822.68Z"/><path class="cls-47" d="M1119.87,846.77h-103c-84,0-109.75-4-109.75-65.1S962.26,671,1025.27,671c55.3,0,115.44,40.07,83.88,40.07C1086.07,711.09,1119.87,846.77,1119.87,846.77Z"/><path class="cls-60" d="M1081,828.25c0,9.62,1.19,18.41-15.08,18.41l7.14,13.81,34.72-.23-13.68-37Z"/><path class="cls-47" d="M1312.66,662.61c0,20.87-16.06,37.8-35.86,37.8h-71.89c-17.42,0-31.94-13.09-35.18-30.45a40.3,40.3,0,0,1-.68-7.3v-.06a21.5,21.5,0,0,1,5.83-14.84,19.32,19.32,0,0,1,14.07-6.14h103.82C1303.75,641.63,1312.66,651,1312.66,662.61Z"/><path class="cls-60" d="M1262.47,679.71c-18.46,0-35.43,20.7-24.31,20.7h0c-7.41,0-41.28,14.87-41.28,14.87-17.42,0-23.91-28-27.15-45.31-.19-3.7-.38-6.39-.55-7.17C1172.48,665,1276.37,679.71,1262.47,679.71Z"/><path class="cls-60" d="M1312.66,660.06c0,10.92-8.4,19.78-18.76,19.78H1187.81c-10.36,0-18.76-8.85-18.76-19.78v-.4c0-10.92,8.4-19.78,18.76-19.78H1293.9c10.36,0,18.76,8.85,18.76,19.78Z"/><path class="cls-64" d="M1079.83,758.72s-21.35,4.07-10.08,28.07c-12.72,12-36.22,12.69-63.1,12.69-40.42,0-73.18-1.56-73.18-40.75s32.76-71,73.18-71S1079.83,719.53,1079.83,758.72Z"/><path class="cls-60" d="M1134.22,731.23a39.09,39.09,0,0,0-35.37,21.87,5.81,5.81,0,0,1-5.25,3.28h-.11a5.66,5.66,0,0,1-5.72-6.32,49.1,49.1,0,0,0,.44-6.6c0-28.27-24-51.11-53.28-50.44-27.6.63-50.11,22.46-50.75,49.22-.05,2.26,0,4.49.06,6.67-7.67-1.26-11.43,21.06,3.8,33.72,9.34,7.77,21.49,10.23,29.49,11a49.55,49.55,0,0,0,5.52.3h111.17c21.54,0,39-4,39-24.86S1155.76,731.23,1134.22,731.23Z"/><path class="cls-60" d="M1142.46,851.06c-1.36-.4-2.7-.85-4-1.33l-.47-.19c-.43-.18-1.48-.62-1.87-.79a72.25,72.25,0,0,1-9.16-5.14c-.52-.34-1-.69-1.51-1.06l-.21-.17c-.74-.58-1.47-1.19-2.19-1.8a67.31,67.31,0,0,1-7-7l-.61-.73-1-1.28c-1-1.33-1.86-2.72-2.73-4.12s-1.77-3.08-2.58-4.66c-.26-.53-.52-1.06-.76-1.59v0l-.15-.37a62.73,62.73,0,0,1-3.13-10.29c-.15-.71-.28-1.42-.41-2.14l-.16-1.09c-.16-1.5-.26-3-.32-4.5-.08-2,0-4,.07-6,0-.93.14-1.86.22-2.79l.12-.88c0-.11,0-.24.06-.4a63.1,63.1,0,0,1,3.37-12c.07-.18.26-.64.43-1,.57-1.21,1.18-2.4,1.8-3.58.91-1.72,2-3.36,3.06-5,3.62-5.49,1.16-13.16-4.44-16.35a12.74,12.74,0,0,0-16.88,4.29c-11.78,17.76-54,8.82-54.28,14.89-2.21,45.65,36.27,54.24,47.31,54.79a72.59,72.59,0,0,0,7.7,14.3A78.5,78.5,0,0,0,1106,857.74a15,15,0,0,1,5.21,11.31m80.54-37.1c0,.08-.11.27-.2.49C1191.65,832.16,1191.71,832,1191.75,831.94Z"/><path class="cls-65" d="M1174.36,877.59V867.26a4.67,4.67,0,0,0-4.74-4.59H1160a4.67,4.67,0,0,0-4.74,4.59v54.49a4.67,4.67,0,0,0,4.74,4.59h.1a4.67,4.67,0,0,1,4.74,4.59v10.34a4.67,4.67,0,0,0,4.74,4.59h9.67a4.67,4.67,0,0,0,4.74-4.59V886.78a4.67,4.67,0,0,0-4.74-4.59h-.1A4.67,4.67,0,0,1,1174.36,877.59Z"/><path class="cls-65" d="M1168.77,798.22h-7.3a5.08,5.08,0,0,1-5.16-5v-40a5.08,5.08,0,0,1,5.16-5h7.3a5.08,5.08,0,0,1,5.16,5v40A5.08,5.08,0,0,1,1168.77,798.22Z"/><path class="cls-62" d="M1181.45,730.13l4.76-18.83-4.42,3.37c16-.19,33.58-8.49,43.67-21,4.62-5.72,7.57-12.29,7.68-19.72.07-4.53,0-9.06,0-13.59,0-5.9-9.17-5.91-9.17,0V672.8a22.69,22.69,0,0,1-5.09,14.52c-8.4,10.7-23.53,18-37.09,18.17a4.67,4.67,0,0,0-4.42,3.37l-4.76,18.83c-1.45,5.72,7.39,8.16,8.84,2.44Z"/><path class="cls-61" d="M1107.13,818.66a43.39,43.39,0,0,1-16.34,3.18c-22.51,0-41.27-17.28-45-39.92-.43-2.65,1.35-6.23,1.35-9,0-5.54-1.12-10.13.63-15.31l11.22,4.22a37.46,37.46,0,0,0-.73,21.45c4,15,17,26,32.48,26a32,32,0,0,0,12.07-2.35Z"/><path class="cls-62" d="M1091.52,815.64a36.94,36.94,0,0,0,13.56-2.58l-2.31-6.35a32,32,0,0,1-12.07,2.35c-18.58,0-33.7-15.94-33.7-35.52a37.16,37.16,0,0,1,1.95-11.94l-8.55-3.22c-.51,3,.66,6.09.42,9.19C1048.41,798.22,1068.41,815.64,1091.52,815.64Z"/><path class="cls-62" d="M1057.08,773.76a37.24,37.24,0,0,0,1.23,9.51l-12.47-1.35a113.92,113.92,0,0,1-1.63-22.87c0-5.54,1.86,3.73,3.61-1.45l11.22,4.22A37,37,0,0,0,1057.08,773.76Z"/><path class="cls-61" d="M1111.79,759.46c.14,0,.21-.09.19-.25C1111.9,758.5,1111.83,758.66,1111.79,759.46Zm-10.63-1.08c-.18,9-.28,21.63.27,33.71.47,10.52,3.26,16.71,5,23.46l.73,2.27a71.1,71.1,0,0,0,8.12,17.23c.33.51.67,1,1,1.52a78.88,78.88,0,0,0,13.26,14.66,15,15,0,0,1,5.21,11.31v189.39h96.51c0-7.53-7.58-15.08-14.71-15.08h0l-31.91.25V864.16a1.4,1.4,0,0,1,.75-1.26h0A55.7,55.7,0,0,0,1204,844.69c7.61-11.79,11.25-38.84,12.28-52.79h-11.75c0,.41-.49,10.58-.52,11-.09,1.44-.23,2.86-.37,4.3-.07.64-.15,1.28-.23,1.91l-.08.48a79,79,0,0,1-4.21,16c-.13.35-.28.68-.41,1a1.29,1.29,0,0,1-.07.14c-.52,1.11-1.08,2.19-1.68,3.27s-1.21,2.08-1.86,3.1c-.36.55-1.61,2.22-1.92,2.67a44.16,44.16,0,0,1-3.8,3.82c-.35.32-1.27,1-1.83,1.46-.78.51-1.58,1-2.4,1.47s-1.53.84-2.33,1.22v-195l-32.9-.35V845.82c-1.64,0-4.8-1.71-7.9-3.65s-6.17-4.12-7.63-5.07c-.52-.34-1-.7-1.51-1.07l-.21-.16c-.74-.59-1.47-1.19-2.19-1.8a66.94,66.94,0,0,1-7-7c-.15-.17-.4-.47-.61-.73-.32-.43-.63-.85-.95-1.28-1-1.33-1.86-2.72-2.74-4.12s-1.76-3.08-2.58-4.66c-.26-.53-.52-1.05-.76-1.59v0c0-.12-.1-.25-.16-.37a64,64,0,0,1-3.13-10.29c-.15-.71-.27-1.43-.41-2.14,0-.3-.12-.79-.16-1.09-.16-1.5-.26-3-.32-4.51,0-.32,0-1.64,0-3.61,0-3.39,0-8.69-.06-14.1,0-8.2,0-16.66.2-19.1-.68.07-3-1.36-6-3.42"/><path class="cls-66" d="M1149.91,658.3v197c0,8.85,13.75,8.86,13.75,0v-197c0-8.85-13.75-8.86-13.75,0Z"/><path class="cls-66" d="M1135.18,854.65V956.13c0,8.85,13.75,8.86,13.75,0V854.65c0-8.85-13.75-8.86-13.75,0Z"/><path class="cls-62" d="M1150,781.13c14.37-2,26.72-13,26.72-28.91S1164.38,727.57,1150,722Z"/><polygon class="cls-62" points="1174.71 660.69 1184.64 660.69 1184.64 842.94 1183.29 843.76 1174.71 843.76 1174.71 660.69"/><polygon class="cls-62" points="1182.85 690.06 1148.74 660.69 1182.85 660.69 1182.85 690.06"/><path class="cls-62" d="M1184,1037.11V936c0-.42,0-.83.05-1.25v-26.4l-.05,0V864.18a1.4,1.4,0,0,1,.75-1.26h0a55.7,55.7,0,0,0,18.61-18.21c3.54-5.49,6.22-14.29,8.18-23.54h-8.27c-1.31,16.23-11.18,29.89-24.83,35.92-4.81,2.13-13.86,7.14-13.86,12.65l.36,167.38Z"/><path class="cls-62" d="M1195.13,833.11c.56.57,13.23,3.3,13.23,3.3l6.35-24.69-11.87,5.64-4.16,9.38Z"/><path class="cls-67" d="M1061.74,548.63c6.67,5.25,8.67,15,8.67,15s-8.82,1.26-15.5-4-8.67-15-8.67-15S1055.07,543.38,1061.74,548.63Z"/><path class="cls-67" d="M1071.54,544.16c2.27,6.86-1.15,14.8-1.15,14.8s-7.12-3.19-9.39-10,1.15-14.8,1.15-14.8S1069.27,537.3,1071.54,544.16Z"/><path class="cls-67" d="M1272,576.65c-2.92,10.62.54,21.56.54,21.56a34.93,34.93,0,0,0,11.13-16.9c2.92-10.62-.54-21.56-.54-21.56A34.93,34.93,0,0,0,1272,576.65Z"/><path class="cls-67" d="M1265.54,579c3.09,5.35,9.65,6.09,9.65,6.09s1.54-7.93-1.56-13.28-9.65-6.09-9.65-6.09S1262.45,573.66,1265.54,579Z"/><path class="cls-67" d="M1231.47,591c3.94-10.51,15.63-16.17,15.63-16.17s5.3,11.38,1.35,21.89-15.63,16.17-15.63,16.17S1227.53,601.53,1231.47,591Z"/><path class="cls-67" d="M1288.55,570.82a46.72,46.72,0,0,0-39.29,19.52,6.92,6.92,0,0,1-5.66,2.85h-.13a6.77,6.77,0,0,1-6.83-7.84,81.07,81.07,0,0,0,1.32-15.89c-.67-44.67-38.21-81.11-84.28-81.78-43.13-.63-79.07,29.68-85.79,69.51a56.15,56.15,0,0,0-17.56-1.57c-27.33,1.84-49.15,23.58-50.34,50.12-1.35,30.12,23.43,54.95,54.19,54.95h233.29c25.82,0,46.71-20.48,46.34-45.6C1333.45,591.08,1313.3,571.37,1288.55,570.82Z"/><path class="cls-68" d="M1294.86,587.9c6.81,8.85,2.42,19.08-6.71,26.88s-19.53,10.22-26.34,1.37S1256.88,593.8,1266,586,1288.05,579,1294.86,587.9Z"/><path class="cls-68" d="M1206.06,557.06c0-32.63-27.28-59.09-60.93-59.09s-60.93,26.45-60.93,59.09a49,49,0,0,0,1.88,13.83h-2a38.79,38.79,0,0,0-28.68-12.5c-21.19,0-38.36,16.66-38.36,37.2s17.18,29.61,38.36,29.61h81.1c38.42,0,69.56-30.2,69.56-67.46v-.68Z"/><path class="cls-69" d="M1112,759.21c0,.16-.05.24-.2.24C1111.83,758.66,1111.9,758.5,1112,759.21Z"/><path class="cls-63" d="M1169.18,662.8a.3.3,0,0,1-.13-.13v-.06C1169.09,662.52,1169.14,662.59,1169.18,662.8Z"/><path class="cls-62" d="M1166.57,946.23l5.39-34.31c48.11,0,58.21-48.46,58.21-89.12h8.44c0,38.92-7.78,68.76-27.92,86.42-10.4,9.11-20.66,17.22-34,20C1172,930.25,1166.57,934.1,1166.57,946.23Z"/><rect class="cls-60" x="1223.19" y="818.82" width="96.45" height="19.77"/><path class="cls-67" d="M1122.78,701.42a41.68,41.68,0,0,0-37.71,23.32,6.2,6.2,0,0,1-5.6,3.5h-.12a6,6,0,0,1-6.1-6.74,52.35,52.35,0,0,0,.47-7c0-30.14-25.56-54.49-56.81-53.77-29.42.67-53.42,23.94-54.12,52.48-.74,30.3,10.36,55.09,41.44,55.09h118.53c23,0,41.58-4.24,41.58-26.51S1145.75,701.42,1122.78,701.42Z"/><path class="cls-67" d="M966.93,756.23c-16.24-13.5-18.37-36.91-18.37-36.91s24.19-1.53,40.42,12,18.37,36.91,18.37,36.91S983.17,769.73,966.93,756.23Z"/><path class="cls-68" d="M1142.06,728c0,12.44-10.4,17.93-23.23,17.93s-23.23-5.49-23.23-17.93,10.4-22.53,23.23-22.53S1142.06,715.56,1142.06,728Z"/><path class="cls-68" d="M1050.42,701.77c0,19.93-16.66,28.73-37.22,28.73S976,721.7,976,701.77s16.66-36.09,37.22-36.09S1050.42,681.83,1050.42,701.77Z"/><path class="cls-67" d="M1342.64,733A62.38,62.38,0,0,0,1293,708.79c-34.15,0-61.82,26.84-61.82,60,0,2,.1,3.92.3,5.85h-2.74a35,35,0,0,0-27.51-13.16c-19.15,0-34.68,15.06-34.68,33.63s15.53,33.63,34.68,33.63h132.49c27.48,0,49.76-21.6,49.76-48.26C1383.5,756.74,1365.87,737,1342.64,733Z"/><path class="cls-67" d="M1346.75,736.5c-4,4.23-10.5,4.69-10.5,4.69s.07-6.4,4.1-10.63,10.5-4.69,10.5-4.69S1350.78,732.26,1346.75,736.5Z"/><path class="cls-68" d="M1207.65,774.13c6.12,7.6,2.47,16.64-5.37,23.65s-16.89,9.35-23,1.75-4.73-19.44,3.1-26.46S1201.53,766.53,1207.65,774.13Z"/><path class="cls-67" d="M1219,769.49c-4.76-7.29-2.59-17.11-2.59-17.11s9.88,2,14.64,9.31,2.59,17.11,2.59,17.11S1223.77,776.78,1219,769.49Z"/><path class="cls-68" d="M1300.59,731.06c11.05,13.72,4.46,30-9.69,42.7s-30.5,16.88-41.55,3.16-8.54-35.11,5.61-47.77S1289.54,717.34,1300.59,731.06Z"/><path class="cls-70" d="M1111.78,759.46c.14,0,.21-.09.2-.24C1111.9,758.5,1111.83,758.66,1111.78,759.46Z"/><path class="cls-61" d="M1229.2,1051.92H1091.93c0-7.53,7.58-15.08,14.71-15.08h0l38.84.23,5,0,53.77,10.13Z"/><path class="cls-62" d="M1231.08,1051.92h-53.63c0-6.65-5.91-13.31-12.19-14.78L1184.41,970v67.09l31.91-.25h0C1223.5,1036.84,1231.08,1044.39,1231.08,1051.92Z"/><path class="cls-60" d="M341.47,838.32c-.54,54.75,15.45,58.58-102.24,58.58-56.47,0-102.24-3.82-102.24-58.58s45.78-99.15,102.24-99.15S342.18,767,341.47,838.32Z"/><path class="cls-61" d="M269.88,907.72V919c-14.78,0-23.67-2.74-29.72-9.17-8.15-8.65-10-22.69-10.3-47.06,0-3.7-.06-7.63,0-11.81l10.71.36c0,5.32,0,10.2.1,14.68.36,18.83,1.89,30.31,7.14,35.88C251.61,906,258.22,907.72,269.88,907.72Z"/><path class="cls-62" d="M269.88,907.72v5.33c-13.13,0-20.82-2.22-25.71-7.41-6.71-7.13-8.23-19.89-8.61-39.53-.08-4-.11-8.61-.1-14.8h5.06c0,5.32,0,10.2.1,14.68.36,18.83,1.89,30.31,7.14,35.88C251.61,906,258.22,907.72,269.88,907.72Z"/><path class="cls-62" d="M240.62,866l-10.76-3.23c0-3.7-.06-7.63,0-11.81l10.71.36C240.51,856.66,240.53,861.54,240.62,866Z"/><path class="cls-61" d="M346.68,932.83l-12.11,37c0-15.9-8.13-17.31-17-18.44-19.52-2.5-34.75-8.62-44.88-22.12-9.77-13-13.68-31.59-15-57.41-.46-8.77-.63-18.39-.63-28.9h19.05c0,48.69,4.42,64.35,11.54,73.86C296.2,928.18,313.3,932.83,346.68,932.83Z"/><path class="cls-62" d="M346.68,932.83v8.88c-28.73-.78-51.1-2.4-64.3-18.74-7.86-9.72-11.74-25.29-13.59-44.32-.13-1.36-10.82-3.22-10.82-3.22s-1.64-20.4-.89-32.48h19.05c0,48.69,4.42,64.35,11.54,73.86C296.2,928.18,313.3,932.83,346.68,932.83Z"/><rect class="cls-60" x="185.19" y="837.38" width="96.45" height="19.77"/><path class="cls-47" d="M130.39,840.88c5.28-13.56,19.45-21,19.45-21s5.61,14.52.33,28.08-19.45,21-19.45,21S125.11,854.44,130.39,840.88Z"/><path class="cls-63" d="M379.08,735.12c2.19-11.06,12.8-18.74,12.8-18.74s7.05,10.26,4.86,21.32-12.8,18.74-12.8,18.74S376.89,746.18,379.08,735.12Z"/><path class="cls-63" d="M333,675c3.5,10.56-2.3,21.81-2.3,21.81s-11.46-5.88-15-16.44,2.3-21.81,2.3-21.81S329.49,664.44,333,675Z"/><path class="cls-47" d="M123.89,831c8.55-3.3,18.56,1.3,18.56,1.3s-3.85,10-12.39,13.27-18.56-1.3-18.56-1.3S115.35,834.31,123.89,831Z"/><path class="cls-60" d="M434.4,738.57c0,63.28-52.9,67.7-118.16,67.7s-118.16-4.42-118.16-67.7S251,624,316.24,624,434.4,675.29,434.4,738.57Z"/><path class="cls-60" d="M534.35,822.68c0,64.56-41,62.45-94.76,62.45-104.7,0-94.76.71-94.76-62.45,0-52.16,43.6-94.44,97.39-94.44S534.35,770.52,534.35,822.68Z"/><path class="cls-47" d="M303.33,846.77h-103c-84,0-109.75-4-109.75-65.1S145.72,671,208.73,671c55.3,0,115.44,40.07,83.88,40.07C269.53,711.09,303.33,846.77,303.33,846.77Z"/><path class="cls-60" d="M264.43,828.25c0,9.62,1.19,18.41-15.08,18.41l7.14,13.81,34.72-.23-13.68-37Z"/><path class="cls-47" d="M496.12,662.61c0,20.87-16.06,37.8-35.86,37.8H388.37c-17.42,0-31.94-13.09-35.18-30.45a40.3,40.3,0,0,1-.68-7.3v-.06a21.5,21.5,0,0,1,5.83-14.84,19.32,19.32,0,0,1,14.07-6.14H476.22C487.21,641.63,496.12,651,496.12,662.61Z"/><path class="cls-60" d="M445.93,679.71c-18.46,0-35.43,20.7-24.31,20.7h0c-7.41,0-41.28,14.87-41.28,14.87-17.42,0-23.91-28-27.15-45.31-.19-3.7-.38-6.39-.55-7.17C355.94,665,459.83,679.71,445.93,679.71Z"/><path class="cls-60" d="M496.12,660.06c0,10.92-8.4,19.78-18.76,19.78H371.27c-10.36,0-18.76-8.85-18.76-19.78v-.4c0-10.92,8.4-19.78,18.76-19.78H477.36c10.36,0,18.76,8.85,18.76,19.78Z"/><path class="cls-64" d="M263.29,758.72s-21.35,4.07-10.08,28.07c-12.72,12-36.22,12.69-63.1,12.69-40.42,0-73.18-1.56-73.18-40.75s32.76-71,73.18-71S263.29,719.53,263.29,758.72Z"/><path class="cls-60" d="M317.68,731.23a39.09,39.09,0,0,0-35.37,21.87,5.81,5.81,0,0,1-5.25,3.28H277a5.66,5.66,0,0,1-5.72-6.32,49.1,49.1,0,0,0,.44-6.6c0-28.27-24-51.11-53.28-50.44-27.6.63-50.11,22.46-50.75,49.22-.05,2.26,0,4.49.06,6.67-7.67-1.26-11.43,21.06,3.8,33.72,9.34,7.77,21.49,10.23,29.49,11a49.55,49.55,0,0,0,5.52.3H317.68c21.54,0,39-4,39-24.86S339.22,731.23,317.68,731.23Z"/><path class="cls-60" d="M325.92,851.06c-1.36-.4-2.7-.85-4-1.33l-.47-.19c-.43-.18-1.48-.62-1.87-.79a72.25,72.25,0,0,1-9.16-5.14c-.52-.34-1-.69-1.51-1.06l-.21-.17c-.74-.58-1.47-1.19-2.19-1.8a67.31,67.31,0,0,1-7-7l-.61-.73-1-1.28c-1-1.33-1.86-2.72-2.73-4.12s-1.77-3.08-2.58-4.66c-.26-.53-.52-1.06-.76-1.59v0l-.15-.37a62.73,62.73,0,0,1-3.13-10.29c-.15-.71-.28-1.42-.41-2.14l-.16-1.09c-.16-1.5-.26-3-.32-4.5-.08-2,0-4,.07-6,0-.93.14-1.86.22-2.79l.12-.88c0-.11,0-.24.06-.4a63.1,63.1,0,0,1,3.37-12c.07-.18.26-.64.43-1,.57-1.21,1.18-2.4,1.8-3.58.91-1.72,2-3.36,3.06-5,3.62-5.49,1.16-13.16-4.44-16.35a12.74,12.74,0,0,0-16.88,4.29c-11.78,17.76-54,8.82-54.28,14.89-2.21,45.65,36.27,54.24,47.31,54.79a72.59,72.59,0,0,0,7.7,14.3,78.5,78.5,0,0,0,13.25,14.67A15,15,0,0,1,294.67,869m80.54-37.1c0,.08-.11.27-.2.49C375.11,832.16,375.17,832,375.21,831.94Z"/><path class="cls-65" d="M357.82,877.59V867.26a4.67,4.67,0,0,0-4.74-4.59h-9.67a4.67,4.67,0,0,0-4.74,4.59v54.49a4.67,4.67,0,0,0,4.74,4.59h.1a4.67,4.67,0,0,1,4.74,4.59v10.34a4.67,4.67,0,0,0,4.74,4.59h9.67a4.67,4.67,0,0,0,4.74-4.59V886.78a4.67,4.67,0,0,0-4.74-4.59h-.1A4.67,4.67,0,0,1,357.82,877.59Z"/><path class="cls-65" d="M352.23,798.22h-7.3a5.08,5.08,0,0,1-5.16-5v-40a5.08,5.08,0,0,1,5.16-5h7.3a5.08,5.08,0,0,1,5.16,5v40A5.08,5.08,0,0,1,352.23,798.22Z"/><path class="cls-62" d="M364.91,730.13l4.76-18.83-4.42,3.37c16-.19,33.58-8.49,43.67-21,4.62-5.72,7.57-12.29,7.68-19.72.07-4.53,0-9.06,0-13.59,0-5.9-9.17-5.91-9.17,0V672.8a22.69,22.69,0,0,1-5.09,14.52c-8.4,10.7-23.53,18-37.09,18.17a4.67,4.67,0,0,0-4.42,3.37l-4.76,18.83c-1.45,5.72,7.39,8.16,8.84,2.44Z"/><path class="cls-61" d="M290.59,818.66a43.39,43.39,0,0,1-16.34,3.18c-22.51,0-41.27-17.28-45-39.92-.43-2.65,1.35-6.23,1.35-9,0-5.54-1.12-10.13.63-15.31l11.22,4.22a37.46,37.46,0,0,0-.73,21.45c4,15,17,26,32.48,26a32,32,0,0,0,12.07-2.35Z"/><path class="cls-62" d="M275,815.64a36.94,36.94,0,0,0,13.56-2.58l-2.31-6.35a32,32,0,0,1-12.07,2.35c-18.58,0-33.7-15.94-33.7-35.52a37.16,37.16,0,0,1,1.95-11.94l-8.55-3.22c-.51,3,.66,6.09.42,9.19C231.87,798.22,251.87,815.64,275,815.64Z"/><path class="cls-62" d="M240.54,773.76a37.24,37.24,0,0,0,1.23,9.51l-12.47-1.35a113.92,113.92,0,0,1-1.63-22.87c0-5.54,1.86,3.73,3.61-1.45l11.22,4.22A37,37,0,0,0,240.54,773.76Z"/><path class="cls-61" d="M295.25,759.46c.14,0,.21-.09.19-.25C295.36,758.5,295.29,758.66,295.25,759.46Zm-10.63-1.08c-.18,9-.28,21.63.27,33.71.47,10.52,3.26,16.71,5,23.46l.73,2.27A71.1,71.1,0,0,0,298.78,835c.33.51.67,1,1,1.52a78.88,78.88,0,0,0,13.26,14.66,15,15,0,0,1,5.21,11.31v189.39h96.51c0-7.53-7.58-15.08-14.71-15.08h0l-31.91.25V864.16a1.4,1.4,0,0,1,.75-1.26h0a55.7,55.7,0,0,0,18.61-18.21c7.61-11.79,11.25-38.84,12.28-52.79H388c0,.41-.49,10.58-.52,11-.09,1.44-.23,2.86-.37,4.3-.07.64-.15,1.28-.23,1.91l-.08.48a79,79,0,0,1-4.21,16c-.13.35-.28.68-.41,1a1.29,1.29,0,0,1-.07.14c-.52,1.11-1.08,2.19-1.68,3.27s-1.21,2.08-1.86,3.1c-.36.55-1.61,2.22-1.92,2.67a44.16,44.16,0,0,1-3.8,3.82c-.35.32-1.27,1-1.83,1.46-.78.51-1.58,1-2.4,1.47s-1.53.84-2.33,1.22v-195l-32.9-.35V845.82c-1.64,0-4.8-1.71-7.9-3.65s-6.17-4.12-7.63-5.07c-.52-.34-1-.7-1.51-1.07l-.21-.16c-.74-.59-1.47-1.19-2.19-1.8a66.94,66.94,0,0,1-7-7c-.15-.17-.4-.47-.61-.73-.32-.43-.63-.85-.95-1.28-1-1.33-1.86-2.72-2.74-4.12s-1.76-3.08-2.58-4.66c-.26-.53-.52-1.05-.76-1.59v0c0-.12-.1-.25-.16-.37A64,64,0,0,1,296,804c-.15-.71-.27-1.43-.41-2.14,0-.3-.12-.79-.16-1.09-.16-1.5-.26-3-.32-4.51,0-.32,0-1.64,0-3.61,0-3.39,0-8.69-.06-14.1,0-8.2,0-16.66.2-19.1-.68.07-3-1.36-6-3.42"/><path class="cls-66" d="M333.37,658.3v197c0,8.85,13.75,8.86,13.75,0v-197c0-8.85-13.75-8.86-13.75,0Z"/><path class="cls-66" d="M318.64,854.65V956.13c0,8.85,13.75,8.86,13.75,0V854.65c0-8.85-13.75-8.86-13.75,0Z"/><path class="cls-62" d="M333.47,781.13c14.37-2,26.72-13,26.72-28.91S347.84,727.57,333.47,722Z"/><polygon class="cls-62" points="358.17 660.69 368.1 660.69 368.1 842.94 366.75 843.76 358.17 843.76 358.17 660.69"/><polygon class="cls-62" points="366.31 690.06 332.2 660.69 366.31 660.69 366.31 690.06"/><path class="cls-62" d="M367.44,1037.11V936c0-.42,0-.83.05-1.25v-26.4l-.05,0V864.18a1.4,1.4,0,0,1,.75-1.26h0a55.7,55.7,0,0,0,18.61-18.21c3.54-5.49,6.22-14.29,8.18-23.54h-8.27c-1.31,16.23-11.18,29.89-24.83,35.92-4.81,2.13-13.86,7.14-13.86,12.65l.36,167.38Z"/><path class="cls-62" d="M378.59,833.11c.56.57,13.23,3.3,13.23,3.3l6.35-24.69-11.87,5.64-4.16,9.38Z"/><path class="cls-67" d="M245.2,548.63c6.67,5.25,8.67,15,8.67,15s-8.82,1.26-15.5-4-8.67-15-8.67-15S238.53,543.38,245.2,548.63Z"/><path class="cls-67" d="M255,544.16c2.27,6.86-1.15,14.8-1.15,14.8s-7.12-3.19-9.39-10,1.15-14.8,1.15-14.8S252.73,537.3,255,544.16Z"/><path class="cls-67" d="M455.47,576.65c-2.92,10.62.54,21.56.54,21.56a34.93,34.93,0,0,0,11.13-16.9c2.92-10.62-.54-21.56-.54-21.56A34.93,34.93,0,0,0,455.47,576.65Z"/><path class="cls-67" d="M449,579c3.09,5.35,9.65,6.09,9.65,6.09s1.54-7.93-1.56-13.28-9.65-6.09-9.65-6.09S445.91,573.66,449,579Z"/><path class="cls-67" d="M414.93,591c3.94-10.51,15.63-16.17,15.63-16.17s5.3,11.38,1.35,21.89-15.63,16.17-15.63,16.17S411,601.53,414.93,591Z"/><path class="cls-67" d="M472,570.82a46.72,46.72,0,0,0-39.29,19.52,6.92,6.92,0,0,1-5.66,2.85h-.13a6.77,6.77,0,0,1-6.83-7.84,81.07,81.07,0,0,0,1.32-15.89c-.67-44.67-38.21-81.11-84.28-81.78-43.13-.63-79.07,29.68-85.79,69.51a56.15,56.15,0,0,0-17.56-1.57c-27.33,1.84-49.15,23.58-50.34,50.12-1.35,30.12,23.43,54.95,54.19,54.95H470.93c25.82,0,46.71-20.48,46.34-45.6C516.91,591.08,496.76,571.37,472,570.82Z"/><path class="cls-68" d="M478.32,587.9c6.81,8.85,2.42,19.08-6.71,26.88s-19.53,10.22-26.34,1.37-4.93-22.35,4.19-30.15S471.51,579,478.32,587.9Z"/><path class="cls-68" d="M389.52,557.06c0-32.63-27.28-59.09-60.93-59.09s-60.93,26.45-60.93,59.09a49,49,0,0,0,1.88,13.83h-2a38.79,38.79,0,0,0-28.68-12.5c-21.19,0-38.36,16.66-38.36,37.2s17.18,29.61,38.36,29.61H320c38.42,0,69.56-30.2,69.56-67.46v-.68Z"/><path class="cls-69" d="M295.44,759.21c0,.16-.05.24-.2.24C295.29,758.66,295.36,758.5,295.44,759.21Z"/><path class="cls-63" d="M352.64,662.8a.3.3,0,0,1-.13-.13v-.06C352.55,662.52,352.6,662.59,352.64,662.8Z"/><path class="cls-62" d="M350,946.23l5.39-34.31c48.11,0,58.21-48.46,58.21-89.12h8.44c0,38.92-7.78,68.76-27.92,86.42-10.4,9.11-20.66,17.22-34,20C355.46,930.25,350,934.1,350,946.23Z"/><rect class="cls-60" x="406.65" y="818.82" width="96.45" height="19.77"/><path class="cls-67" d="M306.24,701.42a41.68,41.68,0,0,0-37.71,23.32,6.2,6.2,0,0,1-5.6,3.5h-.12a6,6,0,0,1-6.1-6.74,52.35,52.35,0,0,0,.47-7c0-30.14-25.56-54.49-56.81-53.77-29.42.67-53.42,23.94-54.12,52.48-.74,30.3,10.36,55.09,41.44,55.09H306.24c23,0,41.58-4.24,41.58-26.51S329.21,701.42,306.24,701.42Z"/><path class="cls-67" d="M150.39,756.23C134.15,742.74,132,719.32,132,719.32s24.19-1.53,40.42,12,18.37,36.91,18.37,36.91S166.63,769.73,150.39,756.23Z"/><path class="cls-68" d="M325.52,728c0,12.44-10.4,17.93-23.23,17.93s-23.23-5.49-23.23-17.93,10.4-22.53,23.23-22.53S325.52,715.56,325.52,728Z"/><path class="cls-68" d="M233.88,701.77c0,19.93-16.66,28.73-37.22,28.73s-37.22-8.79-37.22-28.73,16.66-36.09,37.22-36.09S233.88,681.83,233.88,701.77Z"/><path class="cls-67" d="M526.1,733a62.38,62.38,0,0,0-49.62-24.18c-34.15,0-61.82,26.84-61.82,60,0,2,.1,3.92.3,5.85h-2.74a35,35,0,0,0-27.51-13.16c-19.15,0-34.68,15.06-34.68,33.63s15.53,33.63,34.68,33.63H517.2c27.48,0,49.76-21.6,49.76-48.26C567,756.74,549.33,737,526.1,733Z"/><path class="cls-67" d="M530.21,736.5c-4,4.23-10.5,4.69-10.5,4.69s.07-6.4,4.1-10.63,10.5-4.69,10.5-4.69S534.24,732.26,530.21,736.5Z"/><path class="cls-68" d="M391.11,774.13c6.12,7.6,2.47,16.64-5.37,23.65s-16.89,9.35-23,1.75-4.73-19.44,3.1-26.46S385,766.53,391.11,774.13Z"/><path class="cls-67" d="M402.47,769.49c-4.76-7.29-2.59-17.11-2.59-17.11s9.88,2,14.64,9.31,2.59,17.11,2.59,17.11S407.23,776.78,402.47,769.49Z"/><path class="cls-68" d="M484,731.06c11.05,13.72,4.46,30-9.69,42.7s-30.5,16.88-41.55,3.16-8.54-35.11,5.61-47.77S473,717.34,484,731.06Z"/><path class="cls-70" d="M295.24,759.46c.14,0,.21-.09.2-.24C295.36,758.5,295.29,758.66,295.24,759.46Z"/><path class="cls-61" d="M412.66,1051.92H275.39c0-7.53,7.58-15.08,14.71-15.08h0l38.84.23,5,0,53.77,10.13Z"/><path class="cls-62" d="M414.54,1051.92H360.92c0-6.65-5.91-13.31-12.19-14.78L367.87,970v67.09l31.91-.25h0C407,1036.84,414.54,1044.39,414.54,1051.92Z"/><g id="_Group_52" data-name=" Group 52"><polygon id="_Path_179" data-name=" Path 179" class="cls-71" points="972.31 815.25 991.88 815.25 999.24 771.94 964.93 771.94 972.31 815.25"/><path id="_Compound_Path_8" data-name=" Compound Path 8" class="cls-72" d="M998.72,769.74l-13.37-12.21v-7.84h-6.14v7.81l-13.34,12.21h-7.66v4.4h5.56l7.54,42.73H978V995.29h-6.65v66.36h22.13v-66.3h-6.62V816.84h6.62L1001,774.1h5.56v-4.24ZM972.38,811l-6.53-36.94h15.26v37.06ZM992,811H983.3V774.1h15.26Z"/></g><g id="_Group_52-2" data-name=" Group 52"><polygon id="_Path_179-2" data-name=" Path 179" class="cls-71" points="465.05 815.25 484.61 815.25 491.97 771.94 457.66 771.94 465.05 815.25"/><path id="_Compound_Path_8-2" data-name=" Compound Path 8" class="cls-72" d="M491.45,769.74l-13.37-12.21v-7.84h-6.14v7.81l-13.34,12.21h-7.66v4.4h5.56L464,816.84h6.65V995.29H464v66.36h22.13v-66.3h-6.62V816.84h6.62l7.57-42.73h5.56v-4.24ZM465.11,811l-6.53-36.94h15.26v37.06Zm19.66,0H476V774.1H491.3Z"/></g><rect class="cls-73" x="637.39" y="1018.27" width="5.43" height="14.98"/><rect class="cls-74" x="650.64" y="967.53" width="5.43" height="52.01"/><rect class="cls-73" x="799.21" y="1024.04" width="5.43" height="14.98"/><rect class="cls-74" x="786.4" y="965.05" width="5.43" height="52"/><rect class="cls-75" x="650.43" y="1019.9" width="5.43" height="41.37"/><rect class="cls-75" x="786.36" y="1019.9" width="5.43" height="41.37"/><rect class="cls-75" x="799.21" y="1033.25" width="5.43" height="28.03"/><rect class="cls-74" x="799.21" y="1035.39" width="5.43" height="6.26"/><rect class="cls-75" x="637.39" y="1033.25" width="5.43" height="28.03"/><rect class="cls-74" x="637.39" y="1035.39" width="5.43" height="6.26"/><rect class="cls-76" x="622.46" y="1021.66" width="196.54" height="3.65"/><path class="cls-66" d="M819,1021.92H622.46v-.07a7.23,7.23,0,0,1,7.23-7.23H811.77a7.23,7.23,0,0,1,7.23,7.23Z"/><rect class="cls-62" x="622.46" y="1024.81" width="196.54" height="11.54"/><rect class="cls-66" x="629.68" y="1000.65" width="183.54" height="11.8"/><rect class="cls-66" x="629.68" y="986.67" width="183.54" height="11.8"/><rect class="cls-66" x="629.68" y="972.7" width="183.54" height="11.8"/><path class="cls-66" d="M808.49,958.73H634.42a4.73,4.73,0,0,0-4.73,4.73v7.07H813.22v-7.07A4.73,4.73,0,0,0,808.49,958.73Z"/><circle class="cls-77" cx="653.14" cy="964.63" r="2.05"/><circle class="cls-77" cx="653.36" cy="978.6" r="2.05"/><circle class="cls-77" cx="653.25" cy="992.31" r="2.05"/><circle class="cls-77" cx="653.47" cy="1006.28" r="2.05"/><ellipse class="cls-77" cx="644.87" cy="1017.24" rx="2.05" ry="1.03"/><circle class="cls-78" cx="640.11" cy="1030.58" r="2.05"/><circle class="cls-77" cx="789.56" cy="964.6" r="2.05"/><circle class="cls-77" cx="789.34" cy="978.57" r="2.05"/><circle class="cls-77" cx="789.45" cy="992.28" r="2.05"/><circle class="cls-77" cx="789.24" cy="1006.25" r="2.05"/><ellipse class="cls-77" cx="797.83" cy="1017.22" rx="2.05" ry="1.03"/><circle class="cls-78" cx="802.59" cy="1030.55" r="2.05"/></g></g></svg>