<svg id="Layer_1" data-name="Layer 1" xmlns="http://www.w3.org/2000/svg" xmlns:xlink="http://www.w3.org/1999/xlink" viewBox="0 0 2079.19 1280"><defs><style>.cls-1{fill:#fff;}.cls-2{isolation:isolate;fill:url(#linear-gradient);}.cls-14,.cls-3{opacity:0.6;}.cls-3{fill:url(#linear-gradient-2);}.cls-4{fill:url(#linear-gradient-3);}.cls-10,.cls-11,.cls-12,.cls-13,.cls-14,.cls-15,.cls-16,.cls-17,.cls-5,.cls-8,.cls-9{fill:#edc1b6;}.cls-6{fill:#c7aeb5;}.cls-7,.cls-9{opacity:0.9;}.cls-8{opacity:0.95;}.cls-10{opacity:0.85;}.cls-11{opacity:0.8;}.cls-12{opacity:0.75;}.cls-13{opacity:0.7;}.cls-15{opacity:0.5;}.cls-16{opacity:0.4;}.cls-17{opacity:0.3;}.cls-18{fill:url(#linear-gradient-4);}.cls-19{fill:url(#linear-gradient-5);}.cls-20{fill:url(#linear-gradient-6);}.cls-21{fill:url(#linear-gradient-7);}</style><linearGradient id="linear-gradient" x1="1039.59" x2="1039.59" y2="1280" gradientUnits="userSpaceOnUse"><stop offset="0.01" stop-color="#edc1b6"/><stop offset="0.6" stop-color="#d3b4b5"/><stop offset="1" stop-color="#c7aeb5"/></linearGradient><linearGradient id="linear-gradient-2" x1="262.33" y1="1049.95" x2="262.33" y2="320.52" gradientUnits="userSpaceOnUse"><stop offset="0.01" stop-color="#b9c9c9"/><stop offset="0.27" stop-color="#c1babe"/><stop offset="0.57" stop-color="#c5b1b7"/><stop offset="1" stop-color="#c7aeb5"/></linearGradient><linearGradient id="linear-gradient-3" x1="1647.83" y1="1060.36" x2="1647.83" y2="329.18" xlink:href="#linear-gradient-2"/><linearGradient id="linear-gradient-4" x1="453.92" y1="1060.36" x2="453.92" y2="330.93" xlink:href="#linear-gradient-2"/><linearGradient id="linear-gradient-5" x1="1373.65" y1="1060.36" x2="1373.65" y2="330.93" xlink:href="#linear-gradient-2"/><linearGradient id="linear-gradient-6" x1="697.09" y1="1060.36" x2="697.09" y2="330.93" xlink:href="#linear-gradient-2"/><linearGradient id="linear-gradient-7" x1="1027.78" y1="1008.94" x2="1027.78" y2="279.51" xlink:href="#linear-gradient-2"/></defs><title>house_new</title><rect class="cls-1" y="0.03" width="2079.46" height="1279.07"/><rect class="cls-2" width="2079.19" height="1280"/><polygon class="cls-3" points="282.78 486.01 282.78 632.58 274.54 632.58 274.54 563.86 254.01 563.86 215.95 563.86 215.95 735.35 145.07 735.35 145.07 1049.95 252.68 1049.95 277.85 1049.95 379.59 1049.95 379.59 526.27 282.78 486.01"/><polygon class="cls-4" points="1768.81 827.21 1768.81 416.09 1744.88 416.09 1744.88 364.77 1723.92 364.77 1693.33 364.77 1693.33 416.76 1675.94 416.76 1675.94 770.14 1650.77 770.14 1650.77 722.12 1594.88 766.89 1594.88 649.76 1580.39 649.76 1580.39 627.42 1571.61 627.42 1571.61 649.76 1562.69 649.76 1562.69 627.42 1553.9 627.42 1553.9 649.76 1543.96 649.76 1543.96 716.72 1526.38 716.72 1526.38 1060.36 1652.03 1060.36 1723.92 1060.36 1769.28 1060.36 1769.28 827.21 1768.81 827.21"/><rect class="cls-5" x="1829.17" y="403.59" width="250.29" height="655.53" transform="translate(3908.62 1462.72) rotate(-180)"/><rect class="cls-6" x="1860.7" y="443.66" width="218.75" height="30.39" transform="translate(3940.16 917.71) rotate(-180)"/><rect class="cls-6" x="1860.7" y="514.87" width="218.75" height="30.39" transform="translate(3940.16 1060.13) rotate(-180)"/><rect class="cls-6" x="1860.7" y="590.91" width="218.75" height="30.39" transform="translate(3940.16 1212.22) rotate(-180)"/><rect class="cls-6" x="1860.7" y="666.95" width="218.75" height="30.39" transform="translate(3940.16 1364.3) rotate(-180)"/><rect class="cls-6" x="1860.7" y="743" width="218.75" height="30.39" transform="translate(3940.16 1516.39) rotate(-180)"/><rect class="cls-6" x="1860.7" y="819.04" width="218.75" height="30.39" transform="translate(3940.16 1668.48) rotate(-180)"/><rect class="cls-6" x="1860.7" y="895.08" width="218.75" height="30.39" transform="translate(3940.16 1820.56) rotate(-180)"/><rect class="cls-6" x="1860.7" y="971.13" width="218.75" height="30.39" transform="translate(3940.16 1972.65) rotate(-180)"/><g class="cls-7"><rect class="cls-8" x="1691.08" y="430.57" width="65.45" height="11.29"/><rect class="cls-9" x="1691.08" y="452.44" width="65.45" height="11.29"/><rect class="cls-10" x="1691.08" y="474.32" width="65.45" height="11.29"/><rect class="cls-11" x="1691.08" y="496.19" width="65.45" height="11.29"/><rect class="cls-12" x="1691.08" y="518.07" width="65.45" height="11.29"/><rect class="cls-13" x="1691.08" y="551.34" width="65.45" height="11.29"/><rect class="cls-14" x="1691.08" y="596.59" width="65.45" height="11.29"/><rect class="cls-15" x="1691.08" y="643.33" width="65.45" height="11.29"/><rect class="cls-16" x="1691.08" y="700.56" width="65.45" height="11.29"/><rect class="cls-17" x="1691.08" y="766.77" width="65.45" height="11.29"/></g><polygon class="cls-18" points="527.79 763.94 527.79 386.47 501.41 386.47 501.41 330.93 436.83 330.93 436.83 386.47 379.51 386.47 379.51 763.94 379.45 763.94 379.45 1060.36 528.39 1060.36 528.39 763.94 527.79 763.94"/><g class="cls-7"><rect class="cls-8" x="402.53" y="417.09" width="101.28" height="11.29"/><rect class="cls-9" x="402.53" y="438.97" width="101.28" height="11.29"/><rect class="cls-10" x="402.53" y="460.84" width="101.28" height="11.29"/><rect class="cls-11" x="402.53" y="482.72" width="101.28" height="11.29"/><rect class="cls-12" x="402.53" y="504.59" width="101.28" height="11.29"/><rect class="cls-13" x="402.53" y="537.87" width="101.28" height="11.29"/><rect class="cls-14" x="402.53" y="583.11" width="101.28" height="11.29"/><rect class="cls-15" x="402.53" y="629.86" width="101.28" height="11.29"/><rect class="cls-16" x="402.53" y="687.08" width="101.28" height="11.29"/><rect class="cls-17" x="402.53" y="753.29" width="101.28" height="11.29"/></g><polygon class="cls-19" points="1468.9 717.55 1468.9 485.43 1448.06 485.43 1448.06 416.8 1426.34 416.8 1426.34 387.8 1409.49 387.8 1407.23 353.06 1366.23 387.37 1366.2 387.8 1349.08 387.8 1349.08 416.8 1327.36 416.8 1327.36 485.43 1306.52 485.43 1306.52 534.88 1292.8 547.71 1292.8 688.59 1262.3 688.59 1262.3 1060.36 1485 1060.36 1485 717.55 1468.9 717.55"/><polygon class="cls-20" points="788.91 733.75 788.91 455.57 692.34 455.57 692.7 757.97 692.73 780.92 687.09 780.92 590.76 714.73 590.76 1060.36 661.36 1060.36 692.7 1060.36 693.08 1060.36 741.14 1060.36 803.42 1060.36 803.42 733.75 788.91 733.75"/><rect class="cls-5" y="403.59" width="250.29" height="655.53"/><rect class="cls-6" y="443.66" width="218.75" height="30.39" transform="translate(218.75 917.71) rotate(-180)"/><rect class="cls-6" y="514.87" width="218.75" height="30.39" transform="translate(218.75 1060.13) rotate(-180)"/><rect class="cls-6" y="590.91" width="218.75" height="30.39" transform="translate(218.75 1212.22) rotate(-180)"/><rect class="cls-6" y="666.95" width="218.75" height="30.39" transform="translate(218.75 1364.3) rotate(-180)"/><rect class="cls-6" y="743" width="218.75" height="30.39" transform="translate(218.75 1516.39) rotate(-180)"/><rect class="cls-6" y="819.04" width="218.75" height="30.39" transform="translate(218.75 1668.48) rotate(-180)"/><rect class="cls-6" y="895.08" width="218.75" height="30.39" transform="translate(218.75 1820.56) rotate(-180)"/><rect class="cls-6" y="971.13" width="218.75" height="30.39" transform="translate(218.75 1972.65) rotate(-180)"/><polygon class="cls-21" points="1152.98 637.17 1152.98 547.3 1033.65 497.37 1033.65 301.7 1005.75 301.7 1005.75 288.55 921.44 288.55 921.44 301.7 902.04 301.7 902.04 682.33 901.64 682.33 901.64 1008.94 1153.92 1008.94 1153.92 637.17 1152.98 637.17"/></svg>