<svg id="Layer_1" data-name="Layer 1" xmlns="http://www.w3.org/2000/svg" viewBox="0 0 1420 800"><defs><style>.cls-1{fill:#fff;}.cls-2{fill:#3c3c3b;}.cls-3{fill:#151516;}.cls-16,.cls-3{opacity:0.6;isolation:isolate;}.cls-4{fill:#1a2026;}.cls-5{fill:#95afcd;}.cls-6{fill:#bbcad8;}.cls-7{fill:#7f95ad;}.cls-8{fill:#fff0ff;}.cls-9{fill:#39424b;}.cls-10{fill:#454f58;}.cls-11{opacity:0.7;}.cls-12{fill:#434c54;}.cls-13{fill:#88a59c;}.cls-14{fill:#7f7f89;}.cls-15{fill:#93939d;}.cls-16{fill:#dfdfdf;}.cls-17{fill:#eee;}</style></defs><title>house_new</title><rect class="cls-1" x="522.91" y="10.73" width="781.59" height="645.68"/><path class="cls-2" d="M1315.14,667H512.27V.09h802.86ZM533.55,645.77h760.32V21.36H533.55Z"/><g id="gruz"><ellipse class="cls-3" cx="748.02" cy="793.49" rx="671.31" ry="6.41"/><rect class="cls-2" x="663.59" y="656.4" width="126.46" height="31.13"/><rect class="cls-2" x="1032.6" y="654" width="126.46" height="31.13"/><path class="cls-4" d="M282.07,682.37v4.72H224.83L218.07,775H12.89C3,775.08.67,763.85.67,756.44V685.5Z"/><polygon class="cls-4" points="1418.15 732.6 831.27 732.6 831.27 697.46 370.02 697.46 370.02 685.13 1418.15 685.13 1418.15 732.6"/><rect class="cls-4" x="409.59" y="685.13" width="176.62" height="47.47"/><path class="cls-5" d="M282.47,534.29l1-23.58-6.72-49.17s-110.07,31.15-106.32,58.56,21.74,23.58,21.74,23.58Z"/><path class="cls-6" d="M171.23,514.55c9.79-25.94,105.56-53.06,105.56-53.06l6.72,49.17v2.59l-4.25-31.08"/><path class="cls-7" d="M283.51,510.63l-1,23.58-90.23,9.43s-18,3.77-21.74-23.58c-.73-5.21,2.71-10.57,8.68-15.82l102.5-7.08Z"/><path class="cls-8" d="M117.65,718.22a61.06,61.06,0,1,1,122.12,0"/><path class="cls-5" d="M283.51,728.1V507.92c-102.14,0-111.48-1.6-150.16,3.35a21,21,0,0,0-8.68,3.14C104.2,526.6,89.3,575.72,81.61,622c0,.14-65.85,5.73-66.62,12.52-1.37,11.6-7.24,44.31-9.6,62.76a98.2,98.2,0,0,0-.94,10.49c0,9.27,17,10,16.93,19.08Z"/><path class="cls-5" d="M93.69,711.4c-.14,27.1-.4,50.14-.4,50.14H283.51V704.09Z"/><path class="cls-6" d="M106.66,621.92l.14-6.25c2.85-18,8-33.28,14-50.92l2.08-6.11,3.49-7.17H111.51l-1.46,2.95L108,560.49c-6.18,18.23-11.53,34-14.55,53.18l-12.78,8.56Z"/><path class="cls-5" d="M170.19,616.9l11.46-.17c-.4-26.63-.83-70.47-.21-74.76a5.64,5.64,0,0,1-3.73,4.2l-1.82-5.42,4-4.1-6.32-1.25c-3.58,1.51-3.68,4.72-3.82,8.49,0,2.05-.12,5-.14,8.84V579C169.91,597.75,170.19,616.71,170.19,616.9Z"/><path class="cls-5" d="M282.07,676.47V688H224.83v37.14H83c-9.74,0-17.52,2.36-17.52-5s5.33-12.19,5.45-40.54Z"/><polygon class="cls-7" points="23.15 682.37 93.73 681.92 177.01 669.77 252.19 669.8 252.19 666.14 176.75 666.14 93.47 678.29 23.15 678.71 23.15 682.37"/><polygon class="cls-4" points="93.47 760.19 93.47 732.65 93.47 727.72 99.35 727.72 103.14 760.19 93.47 760.19"/><path class="cls-6" d="M134.39,518.72a21.23,21.23,0,0,0-8.73,3.14c-27.24,16.23-45.42,99.55-49,152.87H75.17C77.53,622,96.09,530.49,124.7,513.51a21.23,21.23,0,0,1,8.68-3.14c38.68-5,48-3.35,150.16-3.35v8.35"/><path class="cls-7" d="M92.86,675.74c0-34.13,10.42-87.52,26.56-124.36h55.07v115L93.9,676.47h-.68Z"/><path class="cls-9" d="M93.4,613.57l-1.2,5.24-11.56,3.42A365.31,365.31,0,0,1,99.3,551.48h12.22c-.45,1.3-3.09,7.74-3.54,9C101.75,578.62,96.42,594.38,93.4,613.57Z"/><path class="cls-9" d="M182.05,556.48h40.3c6.79,0-6.13,42.1-18.87,43-9.1.66-15.35,1.2-21.23,1.65C182.27,585.65,182,568.41,182.05,556.48Z"/><path class="cls-7" d="M103.64,617.75h37s8.54-10.61,16.06-11.34c2.36-.24,9.13-.47,12.52-.78v52.64L97.79,670.74C98.71,656.52,100,635.25,103.64,617.75Z"/><path class="cls-9" d="M107.53,601.45h0l1-4.22a.82.82,0,0,1,.14-.54c.75-2.88,1.56-5.73,2.36-8.56l.14-.47c.85-2.85,1.75-5.68,2.66-8.56a.67.67,0,0,1,.19-.57c.92-2.85,1.89-5.71,2.88-8.63l.31-.92,1.42-4.15,2.05-6.11.73-2.17h48.23V588c0,4.83,0,9.43.14,13.58h0v.61c-6.08.52-12,.87-15.35,1.2-7.52.73-16.06,11.34-16.06,11.34H104.89C105.62,610.08,106.52,605.72,107.53,601.45Z"/><path class="cls-5" d="M102.58,621.92h38.09s8.54-10.61,16.06-11.34c2.36-.24,9.13-.47,12.52-.78v52.52l-72.5,11.56C97.65,659.66,98.92,639.42,102.58,621.92Z"/><polygon class="cls-7" points="91.85 678.34 176.94 665.79 283.44 665.81 283.44 663.08 176.75 663.08 91.44 675.62 91.85 678.34"/><path class="cls-4" d="M23,674.4v50.19h96.27c3.4,0,4.43-.66,5.09-1.84.14-.26.28-.57.42-.85,6.34-19.88,23.4-45.14,38-45.14H205.5c12,0,24.1,14.81,32,30.52a33.33,33.33,0,0,0,4.83,0V697H283s.14,33.63.14,39.76c0,12.9-36.65,20.73-36.65,20.73H122V734.87c.26-3.33.78-6.23-2.19-6.23H.67V677.75l7.74-3.37Z"/><rect class="cls-10" x="216.75" y="713.19" width="446.84" height="50.12"/><g class="cls-11"><rect class="cls-4" x="230.57" y="713.19" width="171.36" height="50.12"/></g><g class="cls-11"><rect class="cls-4" x="510.5" y="713.19" width="135.82" height="50.12"/></g><path class="cls-12" d="M126.73,762.53V737.79c0-17.76,20.21-57.62,38.23-57.62H205c19.62,0,37.73,41.11,37.73,57.62V763.5Z"/><path class="cls-4" d="M135.1,775.08V741.66c0-15,17.92-48.54,33.91-48.54h31.84c17.38,0,35,34.62,35,48.54v21.79l-71.11,3.82-16.65,7.78Z"/><polygon class="cls-4" points="127.67 736.02 94.58 736.02 94.58 728.85 94.58 728.64 129.6 728.64 127.67 736.02"/><rect class="cls-9" x="148.87" y="646.69" width="15.14" height="7.31"/><g class="cls-11"><path class="cls-13" d="M124.91,737.79c0-17.76,20.21-57.62,38.25-57.62H205c6.18,0,12.36,4.08,17.95,10.16-4.72-4.32-9.76-7.08-14.81-7.08-19.62,0-25,.33-43,.33s-36.55,39.86-36.55,57.62v21.67h-3.63Z"/></g><path class="cls-7" d="M178.73,609.49l-.28-57.26h53.11c7.71,0-9.06,54.24-23.58,55.37"/><path class="cls-7" d="M178.8,606.1c6.6-.52,16.25-1.13,26.58-1.86,14.5-1.06,29.2-52,21.48-52H178.26Z"/><path class="cls-12" d="M515.88,772.25V746.3a62.67,62.67,0,1,1,125.35,0h0v25.94Z"/><path class="cls-9" d="M182.27,556.48h40.09c6.79,0-6.13,42.1-18.87,43-9.1.66-15.35,1.2-21.23,1.65-.19-15.49-.33-32.73-.31-44.67Z"/><path class="cls-4" d="M522.91,772.17V746.07a55.65,55.65,0,0,1,111.29,0h0v26.11Z"/><rect class="cls-7" x="249.9" y="505.96" width="4.55" height="191.31"/><circle class="cls-14" cx="185.64" cy="748.5" r="21.91"/><circle class="cls-14" cx="578.54" cy="748.5" r="21.91"/><path class="cls-12" d="M1196.82,772.25V746.3a62.66,62.66,0,1,1,125.32,0v25.94Z"/><path class="cls-4" d="M1203.84,772.17V746.07a55.65,55.65,0,0,1,111.29,0v26.11Z"/><circle class="cls-14" cx="1259.5" cy="748.5" r="21.91"/><path class="cls-12" d="M1078.17,772.25V746.3a62.66,62.66,0,1,1,125.32,0v25.94Z"/><path class="cls-4" d="M1085.19,772.17V746.07a55.65,55.65,0,0,1,111.29,0h0v26.11Z"/><circle class="cls-14" cx="1140.83" cy="748.5" r="21.91"/><rect class="cls-15" x="249.03" y="702.91" width="145.28" height="64.71"/><rect class="cls-16" x="249.03" y="702.91" width="145.28" height="9.74"/><rect class="cls-14" x="249.03" y="756.94" width="145.28" height="11.01"/><rect class="cls-4" x="372.12" y="701.52" width="7.31" height="67.85"/><rect class="cls-4" x="264.22" y="701.21" width="7.31" height="67.85"/><polygon class="cls-17" points="0.67 727.72 0.67 694 7.32 694 7.32 724.42 0.67 727.72"/><rect class="cls-13" x="93.47" y="758.5" width="33.51" height="4.39"/></g></svg>