<svg xmlns="http://www.w3.org/2000/svg" xmlns:xlink="http://www.w3.org/1999/xlink" viewBox="0 0 763 627"><defs><style>.cls-1{isolation:isolate;}.cls-2{fill:url(#linear-gradient);}.cls-13,.cls-3,.cls-4{fill:#fff;}.cls-3{opacity:0.4;}.cls-4{opacity:0.79;}.cls-5,.cls-6,.cls-7{fill:none;stroke:#c8dce8;stroke-linecap:round;stroke-linejoin:round;stroke-width:0.4px;}.cls-5{stroke-dasharray:3.91 3.91;}.cls-6{stroke-dasharray:3.89 3.89;}.cls-7{stroke-dasharray:3.94 3.94;}.cls-8{mix-blend-mode:overlay;}.cls-9{fill:#f7f4ae;}.cls-10{opacity:0.8;}.cls-11{fill:#4e5c7b;}.cls-12{fill:#8aa9c2;}.cls-14{fill:#c8dce8;}.cls-15{fill:#2662ea;}.cls-16,.cls-17{fill:#53b748;}.cls-17{opacity:0.3;}.cls-18{fill:#192244;}.cls-19{fill:#ec8b2c;}.cls-20{fill:#ffaf3c;}.cls-21{fill:#f6f6f6;}.cls-22{fill:#b4cedb;}.cls-23{fill:#a1bec9;}</style><linearGradient id="linear-gradient" x1="34" y1="661" x2="729" y2="-34" gradientUnits="userSpaceOnUse"><stop offset="0.01" stop-color="#192244"/><stop offset="0.5" stop-color="#203158"/><stop offset="1" stop-color="#294470"/></linearGradient></defs><title>house_new</title><g class="cls-1"><g id="Layer_1" data-name="Layer 1"><rect class="cls-2" width="763" height="627"/><g id="_Group_" data-name="&lt;Group&gt;"><polygon id="_Path_" data-name="&lt;Path&gt;" class="cls-3" points="163.03 49.34 163.59 50.48 164.86 50.67 163.94 51.56 164.16 52.82 163.03 52.23 161.89 52.82 162.11 51.56 161.19 50.67 162.46 50.48 163.03 49.34"/><polygon id="_Path_2" data-name="&lt;Path&gt;" class="cls-3" points="404.67 337.01 405.24 338.16 406.5 338.35 405.59 339.24 405.8 340.5 404.67 339.9 403.54 340.5 403.75 339.24 402.84 338.35 404.1 338.16 404.67 337.01"/><polygon id="_Path_3" data-name="&lt;Path&gt;" class="cls-3" points="131.68 126.84 132.25 127.99 133.52 128.18 132.6 129.07 132.82 130.33 131.68 129.74 130.55 130.33 130.77 129.07 129.85 128.18 131.12 127.99 131.68 126.84"/><polygon id="_Path_4" data-name="&lt;Path&gt;" class="cls-3" points="587.65 37.06 588.21 38.21 589.48 38.39 588.57 39.29 588.78 40.55 587.65 39.95 586.51 40.55 586.73 39.29 585.81 38.39 587.08 38.21 587.65 37.06"/><polygon id="_Path_5" data-name="&lt;Path&gt;" class="cls-3" points="557.81 217.91 558.37 219.06 559.64 219.24 558.72 220.13 558.94 221.4 557.81 220.8 556.67 221.4 556.89 220.13 555.97 219.24 557.24 219.06 557.81 217.91"/><polygon id="_Path_6" data-name="&lt;Path&gt;" class="cls-3" points="145.11 208.59 145.68 209.74 146.95 209.92 146.03 210.81 146.25 212.08 145.11 211.48 143.98 212.08 144.19 210.81 143.28 209.92 144.54 209.74 145.11 208.59"/><polygon id="_Path_7" data-name="&lt;Path&gt;" class="cls-3" points="355.98 41.27 356.54 42.41 357.81 42.6 356.89 43.49 357.11 44.76 355.98 44.16 354.84 44.76 355.06 43.49 354.14 42.6 355.41 42.41 355.98 41.27"/><polygon id="_Path_8" data-name="&lt;Path&gt;" class="cls-3" points="299.06 75.84 299.63 76.99 300.9 77.17 299.98 78.07 300.2 79.33 299.06 78.73 297.93 79.33 298.15 78.07 297.23 77.17 298.5 76.99 299.06 75.84"/><polygon id="_Path_9" data-name="&lt;Path&gt;" class="cls-3" points="600.41 315.29 600.98 316.44 602.25 316.62 601.33 317.52 601.54 318.78 600.41 318.18 599.28 318.78 599.5 317.52 598.58 316.62 599.84 316.44 600.41 315.29"/><polygon id="_Path_10" data-name="&lt;Path&gt;" class="cls-3" points="250.53 35.12 251.1 36.27 252.37 36.45 251.45 37.34 251.66 38.61 250.53 38.01 249.4 38.61 249.61 37.34 248.7 36.45 249.96 36.27 250.53 35.12"/><polygon id="_Path_11" data-name="&lt;Path&gt;" class="cls-3" points="423.86 65.67 424.42 66.82 425.69 67 424.77 67.89 424.99 69.16 423.86 68.56 422.72 69.16 422.94 67.89 422.02 67 423.29 66.82 423.86 65.67"/><polygon id="_Path_12" data-name="&lt;Path&gt;" class="cls-3" points="371.27 132.5 371.84 133.65 373.1 133.83 372.19 134.72 372.4 135.99 371.27 135.39 370.14 135.99 370.35 134.72 369.44 133.83 370.7 133.65 371.27 132.5"/><polygon id="_Path_13" data-name="&lt;Path&gt;" class="cls-3" points="672.94 212.78 673.51 213.93 674.77 214.11 673.86 215 674.07 216.27 672.94 215.67 671.81 216.27 672.02 215 671.11 214.11 672.37 213.93 672.94 212.78"/><polygon id="_Path_14" data-name="&lt;Path&gt;" class="cls-3" points="643.1 393.62 643.67 394.77 644.93 394.96 644.02 395.85 644.23 397.11 643.1 396.52 641.97 397.11 642.18 395.85 641.27 394.96 642.53 394.77 643.1 393.62"/><polygon id="_Path_15" data-name="&lt;Path&gt;" class="cls-3" points="441.27 216.98 441.83 218.13 443.1 218.31 442.19 219.21 442.4 220.47 441.27 219.88 440.13 220.47 440.35 219.21 439.43 218.31 440.7 218.13 441.27 216.98"/><polygon id="_Path_16" data-name="&lt;Path&gt;" class="cls-3" points="384.36 251.56 384.92 252.71 386.19 252.89 385.27 253.78 385.49 255.04 384.36 254.45 383.22 255.04 383.44 253.78 382.52 252.89 383.79 252.71 384.36 251.56"/><polygon id="_Path_17" data-name="&lt;Path&gt;" class="cls-3" points="335.82 210.83 336.39 211.98 337.66 212.16 336.74 213.06 336.96 214.32 335.82 213.73 334.69 214.32 334.91 213.06 333.99 212.16 335.26 211.98 335.82 210.83"/><polygon id="_Path_18" data-name="&lt;Path&gt;" class="cls-3" points="509.15 241.38 509.71 242.53 510.98 242.72 510.06 243.61 510.28 244.87 509.15 244.28 508.01 244.87 508.23 243.61 507.31 242.72 508.58 242.53 509.15 241.38"/><polygon id="_Path_19" data-name="&lt;Path&gt;" class="cls-3" points="456.56 308.21 457.13 309.36 458.4 309.55 457.48 310.44 457.69 311.7 456.56 311.11 455.43 311.7 455.64 310.44 454.73 309.55 456 309.36 456.56 308.21"/><polygon id="_Path_20" data-name="&lt;Path&gt;" class="cls-3" points="389.49 279.47 390.05 280.62 391.32 280.81 390.4 281.7 390.62 282.96 389.49 282.37 388.35 282.96 388.57 281.7 387.65 280.81 388.92 280.62 389.49 279.47"/><polygon id="_Path_21" data-name="&lt;Path&gt;" class="cls-3" points="359.65 460.32 360.21 461.47 361.48 461.65 360.56 462.54 360.78 463.81 359.65 463.21 358.51 463.81 358.73 462.54 357.81 461.65 359.08 461.47 359.65 460.32"/><polygon id="_Path_22" data-name="&lt;Path&gt;" class="cls-3" points="157.81 283.68 158.38 284.83 159.65 285.01 158.73 285.9 158.95 287.17 157.81 286.57 156.68 287.17 156.9 285.9 155.98 285.01 157.25 284.83 157.81 283.68"/><polygon id="_Path_23" data-name="&lt;Path&gt;" class="cls-3" points="100.9 318.25 101.47 319.4 102.74 319.58 101.82 320.48 102.03 321.74 100.9 321.14 99.77 321.74 99.98 320.48 99.07 319.58 100.33 319.4 100.9 318.25"/><polygon id="_Path_24" data-name="&lt;Path&gt;" class="cls-3" points="52.37 277.53 52.94 278.68 54.2 278.86 53.29 279.75 53.5 281.02 52.37 280.42 51.24 281.02 51.45 279.75 50.54 278.86 51.8 278.68 52.37 277.53"/><polygon id="_Path_25" data-name="&lt;Path&gt;" class="cls-3" points="366.32 356.52 366.88 357.67 368.15 357.85 367.23 358.74 367.45 360 366.32 359.41 365.18 360 365.4 358.74 364.48 357.85 365.75 357.67 366.32 356.52"/><polygon id="_Path_26" data-name="&lt;Path&gt;" class="cls-3" points="334.98 434.02 335.54 435.17 336.81 435.36 335.89 436.25 336.11 437.51 334.98 436.92 333.84 437.51 334.06 436.25 333.14 435.36 334.41 435.17 334.98 434.02"/><polygon id="_Path_27" data-name="&lt;Path&gt;" class="cls-3" points="348.4 515.77 348.97 516.92 350.24 517.1 349.32 518 349.54 519.26 348.4 518.66 347.27 519.26 347.49 518 346.57 517.1 347.84 516.92 348.4 515.77"/><polygon id="_Path_28" data-name="&lt;Path&gt;" class="cls-3" points="502.35 383.02 502.92 384.17 504.19 384.36 503.27 385.25 503.49 386.51 502.35 385.92 501.22 386.51 501.44 385.25 500.52 384.36 501.79 384.17 502.35 383.02"/><polygon id="_Path_29" data-name="&lt;Path&gt;" class="cls-3" points="453.82 342.3 454.39 343.45 455.66 343.63 454.74 344.53 454.96 345.79 453.82 345.19 452.69 345.79 452.9 344.53 451.99 343.63 453.26 343.45 453.82 342.3"/><polygon id="_Path_30" data-name="&lt;Path&gt;" class="cls-3" points="137.09 495.81 137.66 496.96 138.93 497.14 138.01 498.04 138.23 499.3 137.09 498.7 135.96 499.3 136.18 498.04 135.26 497.14 136.53 496.96 137.09 495.81"/><polygon id="_Path_31" data-name="&lt;Path&gt;" class="cls-3" points="116.78 410.36 117.35 411.5 118.61 411.69 117.7 412.58 117.91 413.84 116.78 413.25 115.65 413.84 115.86 412.58 114.95 411.69 116.21 411.5 116.78 410.36"/><polygon id="_Path_32" data-name="&lt;Path&gt;" class="cls-3" points="121.91 438.27 122.48 439.42 123.74 439.6 122.83 440.5 123.04 441.76 121.91 441.16 120.78 441.76 120.99 440.5 120.08 439.6 121.34 439.42 121.91 438.27"/><polygon id="_Path_33" data-name="&lt;Path&gt;" class="cls-3" points="466.6 503.75 467.17 504.9 468.44 505.08 467.52 505.98 467.74 507.24 466.6 506.64 465.47 507.24 465.69 505.98 464.77 505.08 466.04 504.9 466.6 503.75"/><polygon id="_Path_34" data-name="&lt;Path&gt;" class="cls-3" points="619.74 384.65 620.31 385.8 621.57 385.98 620.65 386.87 620.87 388.13 619.74 387.54 618.61 388.13 618.82 386.87 617.9 385.98 619.17 385.8 619.74 384.65"/><polygon id="_Path_35" data-name="&lt;Path&gt;" class="cls-3" points="446.29 418.3 446.85 419.44 448.12 419.63 447.2 420.52 447.42 421.78 446.29 421.19 445.15 421.78 445.37 420.52 444.45 419.63 445.72 419.44 446.29 418.3"/><polygon id="_Path_36" data-name="&lt;Path&gt;" class="cls-3" points="571.08 408.12 571.65 409.27 572.91 409.45 572 410.35 572.21 411.61 571.08 411.02 569.95 411.61 570.16 410.35 569.24 409.45 570.51 409.27 571.08 408.12"/><polygon id="_Path_37" data-name="&lt;Path&gt;" class="cls-3" points="451.42 446.21 451.98 447.36 453.25 447.54 452.33 448.44 452.55 449.7 451.42 449.1 450.28 449.7 450.5 448.44 449.58 447.54 450.85 447.36 451.42 446.21"/><polygon id="_Path_38" data-name="&lt;Path&gt;" class="cls-4" points="123.41 257.95 124.61 260.38 127.3 260.77 125.36 262.66 125.81 265.34 123.41 264.07 121.01 265.34 121.47 262.66 119.53 260.77 122.21 260.38 123.41 257.95"/><polygon id="_Path_39" data-name="&lt;Path&gt;" class="cls-4" points="425.61 197.54 426.81 199.97 429.49 200.36 427.55 202.25 428.01 204.93 425.61 203.66 423.2 204.93 423.66 202.25 421.72 200.36 424.4 199.97 425.61 197.54"/><polygon id="_Path_40" data-name="&lt;Path&gt;" class="cls-3" points="107.14 498.16 107.71 499.31 108.98 499.49 108.06 500.39 108.28 501.65 107.14 501.05 106.01 501.65 106.22 500.39 105.31 499.49 106.58 499.31 107.14 498.16"/><polygon id="_Path_41" data-name="&lt;Path&gt;" class="cls-3" points="533.26 589.22 533.83 590.37 535.1 590.56 534.18 591.45 534.4 592.71 533.26 592.12 532.13 592.71 532.35 591.45 531.43 590.56 532.7 590.37 533.26 589.22"/><polygon id="_Path_42" data-name="&lt;Path&gt;" class="cls-3" points="120.57 579.91 121.14 581.05 122.4 581.24 121.49 582.13 121.7 583.39 120.57 582.8 119.44 583.39 119.65 582.13 118.74 581.24 120 581.05 120.57 579.91"/><polygon id="_Path_43" data-name="&lt;Path&gt;" class="cls-3" points="346.73 503.81 347.3 504.96 348.56 505.15 347.64 506.04 347.86 507.3 346.73 506.71 345.59 507.3 345.81 506.04 344.89 505.15 346.16 504.96 346.73 503.81"/><polygon id="_Path_44" data-name="&lt;Path&gt;" class="cls-3" points="648.4 584.09 648.96 585.24 650.23 585.43 649.32 586.32 649.53 587.58 648.4 586.99 647.26 587.58 647.48 586.32 646.56 585.43 647.83 585.24 648.4 584.09"/><polygon id="_Path_45" data-name="&lt;Path&gt;" class="cls-3" points="416.73 588.3 417.29 589.45 418.56 589.63 417.64 590.53 417.86 591.79 416.73 591.19 415.59 591.79 415.81 590.53 414.89 589.63 416.16 589.45 416.73 588.3"/><polygon id="_Path_46" data-name="&lt;Path&gt;" class="cls-3" points="311.28 582.15 311.85 583.3 313.12 583.48 312.2 584.38 312.42 585.64 311.28 585.04 310.15 585.64 310.37 584.38 309.45 583.48 310.71 583.3 311.28 582.15"/><polygon id="_Path_47" data-name="&lt;Path&gt;" class="cls-4" points="401.06 568.85 402.26 571.29 404.95 571.67 403.01 573.57 403.46 576.24 401.06 574.98 398.66 576.24 399.12 573.57 397.18 571.67 399.86 571.29 401.06 568.85"/><polygon id="_Path_48" data-name="&lt;Path&gt;" class="cls-4" points="414.1 72.36 415.3 74.79 417.99 75.18 416.04 77.07 416.5 79.75 414.1 78.48 411.7 79.75 412.16 77.07 410.21 75.18 412.9 74.79 414.1 72.36"/><polygon id="_Path_49" data-name="&lt;Path&gt;" class="cls-4" points="185.79 27.51 186.99 29.94 189.68 30.33 187.74 32.23 188.19 34.9 185.79 33.64 183.39 34.9 183.85 32.23 181.91 30.33 184.59 29.94 185.79 27.51"/><polygon id="_Path_50" data-name="&lt;Path&gt;" class="cls-4" points="402.56 414.18 403.75 416.62 406.44 417.01 404.5 418.9 404.95 421.57 402.56 420.31 400.15 421.57 400.61 418.9 398.67 417.01 401.35 416.62 402.56 414.18"/><polygon id="_Path_51" data-name="&lt;Path&gt;" class="cls-4" points="657.43 19.57 658.63 22 661.31 22.39 659.37 24.29 659.83 26.96 657.43 25.7 655.02 26.96 655.48 24.29 653.54 22.39 656.23 22 657.43 19.57"/><polygon id="_Path_52" data-name="&lt;Path&gt;" class="cls-4" points="669.89 278.66 671.09 281.09 673.77 281.48 671.83 283.38 672.29 286.05 669.89 284.79 667.49 286.05 667.94 283.38 666 281.48 668.69 281.09 669.89 278.66"/></g><g id="_Group_2" data-name="&lt;Group&gt;"><g id="_Ellipse_" data-name="&lt;Ellipse&gt;"><circle class="cls-5" cx="567.79" cy="148.04" r="34.83"/></g><g id="_Ellipse_2" data-name="&lt;Ellipse&gt;"><circle class="cls-6" cx="567.79" cy="148.04" r="47.08"/></g><g id="_Ellipse_3" data-name="&lt;Ellipse&gt;"><circle class="cls-7" cx="567.79" cy="148.04" r="58.91"/></g></g><g id="_Group_3" data-name="&lt;Group&gt;" class="cls-8"><path class="cls-9" d="M152.39,452.68l152.9-66.84L153.77,455.78a1.7,1.7,0,1,1-1.42-3.08Z"/></g><g id="_Group_4" data-name="&lt;Group&gt;" class="cls-8"><path class="cls-9" d="M521.78,278.5l152.9-66.84L523.17,281.59a1.7,1.7,0,1,1-1.42-3.08Z"/></g><g id="_Group_5" data-name="&lt;Group&gt;" class="cls-8"><path class="cls-9" d="M98.94,233.88,251.84,167,100.33,237a1.7,1.7,0,1,1-1.42-3.08Z"/></g><g id="_Group_6" data-name="&lt;Group&gt;" class="cls-10"><path id="_Path_53" data-name="&lt;Path&gt;" class="cls-11" d="M673.76,136.46c1.29-.33-117.47,58.69-120.2,61a3.15,3.15,0,1,1-2.73-5.2C555.27,191.18,669.93,137.45,673.76,136.46Z"/><path id="_Path_54" data-name="&lt;Path&gt;" class="cls-12" d="M669,138.87c1-.25-113.33,55.79-115.7,57.64-1.59,1.24-3.14.57-3.61-.42s0-2.51,1.88-3.14C554.75,191.92,666.17,139.61,669,138.87Z"/><ellipse id="_Path_55" data-name="&lt;Path&gt;" class="cls-13" cx="551.66" cy="195.15" rx="3.03" ry="2.11" transform="translate(-29.77 261.06) rotate(-25.95)"/></g><g id="_Group_7" data-name="&lt;Group&gt;" class="cls-10"><path id="_Path_56" data-name="&lt;Path&gt;" class="cls-11" d="M247.9,256.2c1.29-.33-117.47,58.69-120.2,61A3.15,3.15,0,1,1,125,312C129.41,310.93,244.06,257.19,247.9,256.2Z"/><path id="_Path_57" data-name="&lt;Path&gt;" class="cls-12" d="M243.14,258.62c1-.25-113.33,55.79-115.7,57.64-1.59,1.24-3.14.57-3.61-.42s0-2.51,1.88-3.14C128.88,311.66,240.3,259.35,243.14,258.62Z"/><ellipse id="_Path_58" data-name="&lt;Path&gt;" class="cls-13" cx="125.79" cy="314.89" rx="3.03" ry="2.11" transform="translate(-125.11 86.79) rotate(-25.95)"/></g><g id="_Group_8" data-name="&lt;Group&gt;"><g id="_Group_9" data-name="&lt;Group&gt;"><g id="_Group_10" data-name="&lt;Group&gt;"><path id="_Path_59" data-name="&lt;Path&gt;" class="cls-14" d="M578.1,148.21l-4.18-3.34a.72.72,0,0,1-.11-1h0a.72.72,0,0,1,1-.11l4.18,3.34a.72.72,0,0,1,.11,1h0A.72.72,0,0,1,578.1,148.21Z"/><path id="_Path_60" data-name="&lt;Path&gt;" class="cls-14" d="M579,147.09l-2.09-1.67-.9,1.12,2.09,1.67a.72.72,0,0,0,.9-1.12Z"/></g><g id="_Group_11" data-name="&lt;Group&gt;"><path id="_Path_61" data-name="&lt;Path&gt;" class="cls-14" d="M571.43,156.54l-4.18-3.34a.72.72,0,0,1-.11-1h0a.72.72,0,0,1,1-.11l4.18,3.34a.72.72,0,0,1,.11,1h0A.72.72,0,0,1,571.43,156.54Z"/><path id="_Path_62" data-name="&lt;Path&gt;" class="cls-14" d="M572.32,155.42l-2.09-1.67-.9,1.12,2.09,1.67a.72.72,0,0,0,.9-1.12Z"/></g><g id="_Group_12" data-name="&lt;Group&gt;"><path id="_Path_63" data-name="&lt;Path&gt;" class="cls-14" d="M565,137.74l-4.18-3.34a.72.72,0,0,1-.11-1h0a.72.72,0,0,1,1-.11l4.18,3.34a.72.72,0,0,1,.11,1h0A.72.72,0,0,1,565,137.74Z"/><path id="_Path_64" data-name="&lt;Path&gt;" class="cls-14" d="M565.92,136.62,563.83,135l-.9,1.12,2.09,1.67a.72.72,0,0,0,.9-1.12Z"/></g><g id="_Group_13" data-name="&lt;Group&gt;"><path id="_Path_65" data-name="&lt;Path&gt;" class="cls-14" d="M558.36,146.08l-4.18-3.34a.72.72,0,0,1-.11-1h0a.72.72,0,0,1,1-.11l4.18,3.34a.72.72,0,0,1,.11,1h0A.72.72,0,0,1,558.36,146.08Z"/><path id="_Path_66" data-name="&lt;Path&gt;" class="cls-14" d="M559.25,145l-2.09-1.67-.9,1.12,2.09,1.67a.72.72,0,0,0,.9-1.12Z"/></g></g><g id="_Group_14" data-name="&lt;Group&gt;"><g id="_Group_15" data-name="&lt;Group&gt;"><rect id="_Rectangle_" data-name="&lt;Rectangle&gt;" class="cls-13" x="531.87" y="118.43" width="29.93" height="20.57" rx="2.11" ry="2.11" transform="translate(200.35 -313.49) rotate(38.68)"/><path id="_Path_67" data-name="&lt;Path&gt;" class="cls-13" d="M535.15,119.37,530,125.75a2.12,2.12,0,0,0,.33,3l20.07,16.06a2.12,2.12,0,0,0,3-.33l5.11-6.38Z"/></g><g id="_Group_16" data-name="&lt;Group&gt;"><rect id="_Rectangle_2" data-name="&lt;Rectangle&gt;" class="cls-15" x="539.71" y="114.79" width="5.2" height="5.2" transform="translate(192.29 -313.15) rotate(38.68)"/><rect id="_Rectangle_3" data-name="&lt;Rectangle&gt;" class="cls-15" x="545.15" y="119.15" width="5.2" height="5.2" transform="translate(196.2 -315.59) rotate(38.68)"/><rect id="_Rectangle_4" data-name="&lt;Rectangle&gt;" class="cls-15" x="550.59" y="123.5" width="5.2" height="5.2" transform="translate(200.12 -318.04) rotate(38.68)"/><rect id="_Rectangle_5" data-name="&lt;Rectangle&gt;" class="cls-15" x="556.03" y="127.86" width="5.2" height="5.2" transform="translate(204.03 -320.48) rotate(38.68)"/><rect id="_Rectangle_6" data-name="&lt;Rectangle&gt;" class="cls-15" x="535.95" y="119.49" width="5.2" height="5.2" transform="translate(194.4 -309.77) rotate(38.67)"/><rect id="_Rectangle_7" data-name="&lt;Rectangle&gt;" class="cls-15" x="541.39" y="123.84" width="5.2" height="5.2" transform="translate(198.31 -312.21) rotate(38.67)"/><rect id="_Rectangle_8" data-name="&lt;Rectangle&gt;" class="cls-15" x="546.83" y="128.2" width="5.2" height="5.2" transform="translate(202.22 -314.66) rotate(38.67)"/><rect id="_Rectangle_9" data-name="&lt;Rectangle&gt;" class="cls-15" x="552.27" y="132.55" width="5.2" height="5.2" transform="translate(206.14 -317.1) rotate(38.67)"/><rect id="_Rectangle_10" data-name="&lt;Rectangle&gt;" class="cls-15" x="535.14" y="121.8" width="5.2" height="2.6" transform="translate(194.85 -309.04) rotate(38.67)"/><rect id="_Rectangle_11" data-name="&lt;Rectangle&gt;" class="cls-15" x="540.58" y="126.16" width="5.2" height="2.6" transform="translate(198.77 -311.48) rotate(38.67)"/><rect id="_Rectangle_12" data-name="&lt;Rectangle&gt;" class="cls-15" x="546.02" y="130.51" width="5.2" height="2.6" transform="translate(202.68 -313.93) rotate(38.67)"/><rect id="_Rectangle_13" data-name="&lt;Rectangle&gt;" class="cls-15" x="551.46" y="134.87" width="5.2" height="2.6" transform="translate(206.59 -316.37) rotate(38.67)"/><rect id="_Rectangle_14" data-name="&lt;Rectangle&gt;" class="cls-15" x="532.19" y="124.19" width="5.2" height="5.2" transform="translate(196.5 -306.39) rotate(38.67)"/><rect id="_Rectangle_15" data-name="&lt;Rectangle&gt;" class="cls-15" x="537.63" y="128.54" width="5.2" height="5.2" transform="translate(200.42 -308.83) rotate(38.67)"/><rect id="_Rectangle_16" data-name="&lt;Rectangle&gt;" class="cls-15" x="543.07" y="132.89" width="5.2" height="5.2" transform="translate(204.33 -311.28) rotate(38.67)"/><rect id="_Rectangle_17" data-name="&lt;Rectangle&gt;" class="cls-15" x="548.51" y="137.25" width="5.2" height="5.2" transform="translate(208.25 -313.72) rotate(38.68)"/></g></g><g id="_Group_17" data-name="&lt;Group&gt;"><g id="_Group_18" data-name="&lt;Group&gt;"><rect id="_Rectangle_18" data-name="&lt;Rectangle&gt;" class="cls-13" x="571.82" y="150.41" width="29.93" height="20.57" rx="2.11" ry="2.11" transform="translate(229.1 -331.44) rotate(38.68)"/><path id="_Path_68" data-name="&lt;Path&gt;" class="cls-13" d="M575.1,151.35,570,157.73a2.12,2.12,0,0,0,.33,3l20.07,16.06a2.12,2.12,0,0,0,3-.33l5.11-6.38Z"/></g><g id="_Group_19" data-name="&lt;Group&gt;"><rect id="_Rectangle_19" data-name="&lt;Rectangle&gt;" class="cls-15" x="579.66" y="146.77" width="5.2" height="5.2" transform="translate(221.03 -331.1) rotate(38.68)"/><rect id="_Rectangle_20" data-name="&lt;Rectangle&gt;" class="cls-15" x="585.1" y="151.13" width="5.2" height="5.2" transform="translate(224.95 -333.55) rotate(38.68)"/><rect id="_Rectangle_21" data-name="&lt;Rectangle&gt;" class="cls-15" x="590.54" y="155.48" width="5.2" height="5.2" transform="translate(228.86 -335.99) rotate(38.68)"/><rect id="_Rectangle_22" data-name="&lt;Rectangle&gt;" class="cls-15" x="595.98" y="159.84" width="5.2" height="5.2" transform="translate(232.77 -338.43) rotate(38.68)"/><rect id="_Rectangle_23" data-name="&lt;Rectangle&gt;" class="cls-15" x="575.9" y="151.47" width="5.2" height="5.2" transform="translate(223.14 -327.72) rotate(38.68)"/><rect id="_Rectangle_24" data-name="&lt;Rectangle&gt;" class="cls-15" x="581.34" y="155.82" width="5.2" height="5.2" transform="translate(227.05 -330.16) rotate(38.67)"/><rect id="_Rectangle_25" data-name="&lt;Rectangle&gt;" class="cls-15" x="586.78" y="160.18" width="5.2" height="5.2" transform="translate(230.97 -332.61) rotate(38.67)"/><rect id="_Rectangle_26" data-name="&lt;Rectangle&gt;" class="cls-15" x="592.22" y="164.53" width="5.2" height="5.2" transform="translate(234.88 -335.05) rotate(38.67)"/><rect id="_Rectangle_27" data-name="&lt;Rectangle&gt;" class="cls-15" x="575.09" y="153.78" width="5.2" height="2.6" transform="translate(223.6 -326.99) rotate(38.68)"/><rect id="_Rectangle_28" data-name="&lt;Rectangle&gt;" class="cls-15" x="580.53" y="158.14" width="5.2" height="2.6" transform="translate(227.51 -329.43) rotate(38.67)"/><rect id="_Rectangle_29" data-name="&lt;Rectangle&gt;" class="cls-15" x="585.97" y="162.49" width="5.2" height="2.6" transform="translate(231.42 -331.88) rotate(38.67)"/><rect id="_Rectangle_30" data-name="&lt;Rectangle&gt;" class="cls-15" x="591.41" y="166.85" width="5.2" height="2.6" transform="translate(235.34 -334.32) rotate(38.67)"/><rect id="_Rectangle_31" data-name="&lt;Rectangle&gt;" class="cls-15" x="572.14" y="156.17" width="5.2" height="5.2" transform="matrix(0.78, 0.62, -0.62, 0.78, 225.25, -324.34)"/><rect id="_Rectangle_32" data-name="&lt;Rectangle&gt;" class="cls-15" x="577.58" y="160.52" width="5.2" height="5.2" transform="translate(229.16 -326.79) rotate(38.67)"/><rect id="_Rectangle_33" data-name="&lt;Rectangle&gt;" class="cls-15" x="583.02" y="164.87" width="5.2" height="5.2" transform="translate(233.08 -329.23) rotate(38.67)"/><rect id="_Rectangle_34" data-name="&lt;Rectangle&gt;" class="cls-15" x="588.46" y="169.23" width="5.2" height="5.2" transform="translate(236.99 -331.67) rotate(38.67)"/></g></g><g id="_Group_20" data-name="&lt;Group&gt;"><g id="_Group_21" data-name="&lt;Group&gt;"><g id="_Group_22" data-name="&lt;Group&gt;"><rect id="_Rectangle_35" data-name="&lt;Rectangle&gt;" class="cls-13" x="553.55" y="151" width="6.26" height="12.38" transform="translate(220.31 -313.4) rotate(38.67)"/><rect id="_Rectangle_36" data-name="&lt;Rectangle&gt;" class="cls-13" x="556.33" y="151.98" width="3.13" height="12.38" transform="translate(221.18 -313.95) rotate(38.67)"/></g><g id="_Group_23" data-name="&lt;Group&gt;"><rect id="_Rectangle_37" data-name="&lt;Rectangle&gt;" class="cls-13" x="559.65" y="134.05" width="12.46" height="23.22" transform="translate(215.12 -321.68) rotate(38.68)"/><rect id="_Rectangle_38" data-name="&lt;Rectangle&gt;" class="cls-13" x="565.2" y="136" width="6.23" height="23.22" transform="translate(216.87 -322.77) rotate(38.68)"/></g><g id="_Group_24" data-name="&lt;Group&gt;"><path id="_Path_69" data-name="&lt;Path&gt;" class="cls-16" d="M578.65,141l-11-8.83a1.67,1.67,0,0,1-.26-2.35h0a1.67,1.67,0,0,1,2.35-.26l11,8.83a1.67,1.67,0,0,1,.26,2.35h0A1.67,1.67,0,0,1,578.65,141Z"/><path id="_Path_70" data-name="&lt;Path&gt;" class="cls-17" d="M581,140.76a1.67,1.67,0,0,0-.26-2.35L575.22,134l-2.09,2.61,5.52,4.42A1.67,1.67,0,0,0,581,140.76Z"/></g><g id="_Group_25" data-name="&lt;Group&gt;"><path id="_Path_71" data-name="&lt;Path&gt;" class="cls-16" d="M563.16,160.37l-11-8.83a1.67,1.67,0,0,1-.26-2.35h0a1.67,1.67,0,0,1,2.35-.26l11,8.83a1.67,1.67,0,0,1,.26,2.35h0A1.67,1.67,0,0,1,563.16,160.37Z"/><path id="_Path_72" data-name="&lt;Path&gt;" class="cls-17" d="M565.51,160.11a1.67,1.67,0,0,0-.26-2.35l-5.52-4.42L557.65,156l5.52,4.42A1.67,1.67,0,0,0,565.51,160.11Z"/></g><g id="_Group_26" data-name="&lt;Group&gt;"><path id="_Path_73" data-name="&lt;Path&gt;" class="cls-15" d="M579.4,128.8a6.67,6.67,0,0,0-9.37,1l10.41,8.33A6.67,6.67,0,0,0,579.4,128.8Z"/><path id="_Path_74" data-name="&lt;Path&gt;" class="cls-15" d="M580.44,138.17a6.67,6.67,0,0,0-1-9.37L575.24,134Z"/></g><g id="_Group_27" data-name="&lt;Group&gt;"><rect id="_Rectangle_39" data-name="&lt;Rectangle&gt;" class="cls-14" x="553.68" y="151.54" width="13.37" height="2.02" transform="translate(218.22 -316.72) rotate(38.68)"/><rect id="_Rectangle_40" data-name="&lt;Rectangle&gt;" class="cls-14" x="559.63" y="153.63" width="6.69" height="2.02" transform="translate(220.09 -317.89) rotate(38.67)"/></g><g id="_Group_28" data-name="&lt;Group&gt;"><rect id="_Rectangle_41" data-name="&lt;Rectangle&gt;" class="cls-14" x="565.82" y="136.38" width="13.37" height="2.02" transform="translate(211.4 -327.63) rotate(38.67)"/><rect id="_Rectangle_42" data-name="&lt;Rectangle&gt;" class="cls-14" x="571.77" y="138.47" width="6.69" height="2.02" transform="translate(213.28 -328.8) rotate(38.67)"/></g></g><g id="_Group_29" data-name="&lt;Group&gt;"><g id="_Group_30" data-name="&lt;Group&gt;"><path id="_Path_75" data-name="&lt;Path&gt;" class="cls-13" d="M538.49,179.91h0a1.23,1.23,0,0,1-.24-1.66l7.8-11.37a1.23,1.23,0,0,1,1.77-.25l1.59,1.27a1.23,1.23,0,0,1,.12,1.8l-9.38,10.1A1.23,1.23,0,0,1,538.49,179.91Z"/><path id="_Path_76" data-name="&lt;Path&gt;" class="cls-13" d="M549.4,167.9l-.79-.63-10.12,12.65h0a1.23,1.23,0,0,0,1.66-.11l9.38-10.1A1.23,1.23,0,0,0,549.4,167.9Z"/></g><g id="_Group_31" data-name="&lt;Group&gt;"><path id="_Path_77" data-name="&lt;Path&gt;" class="cls-16" d="M553.94,160.61a12.19,12.19,0,0,0-17.14,1.9l19,15.24A12.19,12.19,0,0,0,553.94,160.61Z"/><path id="_Path_78" data-name="&lt;Path&gt;" class="cls-17" d="M555.84,177.75a12.19,12.19,0,0,0-1.9-17.14l-7.62,9.52Z"/></g><g id="_Group_32" data-name="&lt;Group&gt;"><circle id="_Ellipse_4" data-name="&lt;Ellipse&gt;" class="cls-15" cx="537.73" cy="180.84" r="2.54" transform="translate(60.52 487.64) rotate(-51.33)"/><path id="_Path_79" data-name="&lt;Path&gt;" class="cls-15" d="M539.71,182.42a2.54,2.54,0,0,0-.4-3.56l-3.17,4A2.54,2.54,0,0,0,539.71,182.42Z"/></g></g></g><g id="_Group_33" data-name="&lt;Group&gt;"><path id="_Path_80" data-name="&lt;Path&gt;" class="cls-16" d="M570.21,150l-9.48-7.59a1.63,1.63,0,0,1-.25-2.29h0a1.63,1.63,0,0,1,2.29-.25l9.48,7.59a1.63,1.63,0,0,1,.25,2.29h0A1.63,1.63,0,0,1,570.21,150Z"/><path id="_Path_81" data-name="&lt;Path&gt;" class="cls-16" d="M572.24,147.43l-4.74-3.79-2,2.54,4.74,3.79a1.63,1.63,0,0,0,2-2.54Z"/></g></g><g id="_Group_34" data-name="&lt;Group&gt;"><g id="_Group_35" data-name="&lt;Group&gt;"><path id="_Path_82" data-name="&lt;Path&gt;" class="cls-14" d="M279.87,318.83s-31.12,19-45,22.15c-16.59,3.73-45.43,2.36-65.27,24.07l36.57,33.71Z"/><path id="_Path_83" data-name="&lt;Path&gt;" class="cls-18" d="M179.15,356.71l35.58,32.79,8.87-9.62-32.27-29.74A62.61,62.61,0,0,0,179.15,356.71Z"/></g><g id="_Group_36" data-name="&lt;Group&gt;"><path id="_Path_84" data-name="&lt;Path&gt;" class="cls-14" d="M331.39,366.31S314.95,398.88,313,412.93c-2.37,16.84,1.34,45.47-18.68,67l-36.57-33.71Z"/><path id="_Path_85" data-name="&lt;Path&gt;" class="cls-18" d="M301.82,469.78,266.24,437l8.87-9.62,32.27,29.74A62.61,62.61,0,0,1,301.82,469.78Z"/></g><path id="_Path_86" data-name="&lt;Path&gt;" class="cls-19" d="M201.1,429.63S187.72,429.5,169,446l6.84-1.11s-15.49,9.66-19.9,27.37c0,0,12.24-7.58,17-9.09,0,0-13.7,20.19-14.36,39.69,0,0,17.78-2.19,33.94-19.58,0,0-3.42,13.37-6.7,17.14,0,0,18.69-7.64,28.17-24.49l.27,8.69s13.79-17.41,13.9-30C228.32,437.51,215.84,426.94,201.1,429.63Z"/><path id="_Path_87" data-name="&lt;Path&gt;" class="cls-20" d="M204.39,440.22s-6-.06-14.36,7.32l3.06-.5s-6.94,4.33-8.92,12.26c0,0,5.49-3.4,7.61-4.07,0,0-6.14,9-6.43,17.78,0,0,8-1,15.21-8.77,0,0-1.53,6-3,7.68,0,0,8.37-3.42,12.62-11l.12,3.89s6.18-7.8,6.23-13.46C216.59,443.75,211,439,204.39,440.22Z"/><path id="_Path_88" data-name="&lt;Path&gt;" class="cls-14" d="M230.22,462.84l-39-36c-1.51-1.39-1.07-4.07.89-5.41l12.64-8.64a3.24,3.24,0,0,1,4,.06l34.14,31.46a3.25,3.25,0,0,1,.36,4.08l-7.76,13.14C234.31,463.59,231.71,464.22,230.22,462.84Z"/><path id="_Path_89" data-name="&lt;Path&gt;" class="cls-14" d="M243.27,448.43a3.25,3.25,0,0,0-.36-4.08l-16.81-15.5-15,16.32,19.16,17.66c1.49,1.38,4.09.75,5.29-1.27Z"/><path id="_Path_90" data-name="&lt;Path&gt;" class="cls-21" d="M338,358.67c16.92-21.87,26.7-54,13.69-66s-44.28.37-64.7,19a8.49,8.49,0,0,0-1.8,1.44l-80.31,87.13a8.68,8.68,0,0,0,.5,12.22l38.8,35.76a8.68,8.68,0,0,0,12.22-.5l80.31-87.13A8.5,8.5,0,0,0,338,358.67Z"/><path id="_Path_91" data-name="&lt;Path&gt;" class="cls-21" d="M244.13,448.22a8.68,8.68,0,0,0,12.22-.5l80.31-87.13a8.5,8.5,0,0,0,1.29-1.91c16.92-21.87,26.7-54,13.69-66L224.73,430.34Z"/><g id="_Group_37" data-name="&lt;Group&gt;"><rect id="_Rectangle_43" data-name="&lt;Rectangle&gt;" class="cls-14" x="271.48" y="340.32" width="70.06" height="2.59" transform="translate(312.67 -117.31) rotate(42.67)"/><rect id="_Rectangle_44" data-name="&lt;Rectangle&gt;" class="cls-14" x="252.72" y="360.67" width="70.06" height="2.59" transform="translate(321.49 -99.21) rotate(42.67)"/><rect id="_Rectangle_45" data-name="&lt;Rectangle&gt;" class="cls-14" x="233.96" y="381.02" width="70.06" height="2.59" transform="translate(330.32 -81.11) rotate(42.67)"/><rect id="_Rectangle_46" data-name="&lt;Rectangle&gt;" class="cls-14" x="215.2" y="401.38" width="70.06" height="2.59" transform="translate(339.15 -63.01) rotate(42.67)"/></g><g id="_Group_38" data-name="&lt;Group&gt;"><rect id="_Rectangle_47" data-name="&lt;Rectangle&gt;" class="cls-22" x="301.88" y="352.19" width="35.03" height="2.59" transform="matrix(0.74, 0.68, -0.68, 0.74, 324.12, -122.9)"/><rect id="_Rectangle_48" data-name="&lt;Rectangle&gt;" class="cls-14" x="283.12" y="372.54" width="35.03" height="2.59" transform="translate(332.95 -104.8) rotate(42.67)"/><rect id="_Rectangle_49" data-name="&lt;Rectangle&gt;" class="cls-14" x="264.36" y="392.89" width="35.03" height="2.59" transform="translate(341.78 -86.69) rotate(42.67)"/><rect id="_Rectangle_50" data-name="&lt;Rectangle&gt;" class="cls-14" x="245.6" y="413.25" width="35.03" height="2.59" transform="translate(350.61 -68.59) rotate(42.67)"/></g><g id="_Group_39" data-name="&lt;Group&gt;"><path id="_Path_92" data-name="&lt;Path&gt;" class="cls-18" d="M341.92,303.08c-7.56-7-23-3.61-35.62,1.73l-.48,13.14c7.72-2.15,16.86-3.48,21.6.88s4.19,13.74,2.59,21.72l13-1.4C347.4,326,349.55,310.12,341.92,303.08Z"/><path id="_Path_93" data-name="&lt;Path&gt;" class="cls-18" d="M342,303.14l-14.51,15.74c4.72,4.44,4.12,13.71,2.53,21.66l13-1.4C347.39,326,349.53,310.21,342,303.14Z"/></g><g id="_Group_40" data-name="&lt;Group&gt;"><path id="_Path_94" data-name="&lt;Path&gt;" class="cls-18" d="M219.65,435.85h0a3.47,3.47,0,0,1-.2-4.89L256,391.32a3.47,3.47,0,0,1,4.89-.2h0a3.47,3.47,0,0,1,.2,4.89l-36.54,39.64A3.47,3.47,0,0,1,219.65,435.85Z"/><path id="_Path_95" data-name="&lt;Path&gt;" class="cls-18" d="M224.54,435.65,261.08,396a3.47,3.47,0,0,0-.2-4.89l-41.23,44.73A3.47,3.47,0,0,0,224.54,435.65Z"/></g><g id="_Group_41" data-name="&lt;Group&gt;"><g id="_Group_42" data-name="&lt;Group&gt;"><circle id="_Ellipse_5" data-name="&lt;Ellipse&gt;" class="cls-14" cx="294.71" cy="330.52" r="4.53" transform="translate(-146.53 293) rotate(-43.42)"/><path id="_Path_96" data-name="&lt;Path&gt;" class="cls-14" d="M299.1,331.61l-8.77-2.18a4.52,4.52,0,1,0,8.77,2.18Z"/><circle id="_Ellipse_6" data-name="&lt;Ellipse&gt;" class="cls-23" cx="294.71" cy="330.52" r="2.34" transform="translate(-146.53 292.99) rotate(-43.42)"/></g><g id="_Group_43" data-name="&lt;Group&gt;"><circle id="_Ellipse_7" data-name="&lt;Ellipse&gt;" class="cls-14" cx="319.18" cy="353.08" r="4.53" transform="translate(-155.96 380.97) rotate(-51.25)"/><path id="_Path_97" data-name="&lt;Path&gt;" class="cls-14" d="M317.74,348.79l2.89,8.57a4.52,4.52,0,1,1-2.89-8.57Z"/><circle id="_Ellipse_8" data-name="&lt;Ellipse&gt;" class="cls-23" cx="319.18" cy="353.08" r="2.34" transform="translate(-155.96 380.98) rotate(-51.25)"/></g></g></g></g></g></svg>