<svg id="Layer_1" data-name="Layer 1" xmlns="http://www.w3.org/2000/svg" viewBox="0 0 444 222"><defs><style>.cls-1{fill:#adc460;}.cls-2{fill:#402639;}.cls-3{fill:#e6e7e8;}.cls-4{fill:#404041;}.cls-5{fill:#303233;}.cls-6{fill:#d1f08f;}.cls-7{fill:#f79821;}.cls-8{fill:#ec1c24;}.cls-9{fill:#4b4a43;}.cls-10{fill:#1f261f;}.cls-11{fill:#58574b;}.cls-12{fill:#363638;opacity:0.6;isolation:isolate;}</style></defs><title>house_new</title><path class="cls-1" d="M31.5,84.52V24.15c-10.09.35-8.59-23.1-8.59-23.1L41.43.35h238c2.84,0,7.59,2.68,10.09,9,9.63,24.17,33.16,74.48,33.16,74.48Z"/><path class="cls-1" d="M434.51,166.91V91.52c-.27-.38-.54-.75-.78-1.15q-1.18-1.9-2.39-3.76c-3.86-5.9-11-8.34-18.43-9.39-5.53-.8-318,0-346.8,0H31.5v89.69h403Z"/><path class="cls-2" d="M431.88,157.76c0,.91,1,1.64,2.17,1.64s2.17-.72,2.17-1.64V111.3c0-.91-1-1.64-2.17-1.64s-2.17.72-2.17,1.64Z"/><path class="cls-3" d="M434.21,121.3c3.43-1.45,6.12-7.62,6.12-14.86s-2.63-13.31-6.12-14.86Z"/><path class="cls-4" d="M131.36,9.8c49,0,96.08.13,144.88,1.07L307,76.47H41.05V32.93c0-18.3,10.46-23.13,15.83-23.13h74.48Z"/><rect class="cls-5" x="31.5" y="166.91" width="403.01" height="12.8"/><path class="cls-6" d="M417.58,76.26l-102-9.63L307,76.36H31.5v12.8H434.13l-.4-.59c-.78-1.26-1.58-2.52-2.39-3.76A21.65,21.65,0,0,0,417.58,76.26Z"/><rect class="cls-4" x="218.29" y="82" width="20.01" height="4.59"/><rect class="cls-7" x="424.74" y="96.7" width="7.06" height="17.36"/><polygon class="cls-8" points="43.84 135.2 43.84 113.44 30.67 113.44 30.69 135.6 43.84 135.2"/><rect class="cls-7" x="30.67" y="100.75" width="13.17" height="12.72"/><polygon class="cls-5" points="162.88 175.74 144.88 131.47 72.82 131.01 55.7 175.07 162.88 175.74"/><polygon class="cls-9" points="61.04 166.91 72.79 135.52 143.3 135.52 156.15 168.01 163.13 168.01 146.46 128.2 69.62 128.2 54.04 166.91 61.04 166.91"/><path class="cls-10" d="M.24,129.46a3.7,3.7,0,0,0,3.49,3.89H27.07a3.7,3.7,0,0,0,3.49-3.89V58.12a3.7,3.7,0,0,0-3.49-3.89H3.73A3.7,3.7,0,0,0,.24,58.12Z"/><polygon class="cls-5" points="415.54 175.74 397.54 131.47 325.5 131.01 308.35 175.07 415.54 175.74"/><polygon class="cls-9" points="313.69 166.91 325.44 135.52 395.98 135.52 408.8 168.01 415.78 168.01 399.12 128.2 322.28 128.2 306.69 166.91 313.69 166.91"/><rect class="cls-9" x="155.24" y="165.71" width="158.46" height="15.64"/><rect class="cls-9" x="23.91" y="164.42" width="37.53" height="15.64"/><rect class="cls-9" x="408.8" y="154.57" width="34.96" height="25.49"/><polygon class="cls-4" points="312.59 70.14 284.88 9.8 289.84 9.8 315.62 66.73 312.59 70.14"/><path class="cls-1" d="M210.94,76.36c0-1.29-9.77-72-9.77-72l-6.73.21s4.77,73.77,4.77,71.73"/><rect class="cls-4" x="110.22" y="82" width="20.01" height="4.59"/><path class="cls-1" d="M87.09,76.36c0-1.37.29-69.54.29-69.54L80.73,7S75.84,78.4,75.84,76.36"/><path class="cls-4" d="M296.33,83h3.19a3.22,3.22,0,0,0,3.19-3.19V54a3.22,3.22,0,0,0-3.22-3.17h-3.19Z"/><path class="cls-11" d="M286.84,4.59,298.1,9.8H284.88s-6.36-3.33-6.68-3.33Z"/><ellipse class="cls-12" cx="233.82" cy="214.51" rx="209.94" ry="7.14"/></svg>