<svg id="Layer_1" data-name="Layer 1" xmlns="http://www.w3.org/2000/svg" xmlns:xlink="http://www.w3.org/1999/xlink" viewBox="0 0 430 171"><defs><style>.cls-1{fill:#363638;opacity:0.6;isolation:isolate;}.cls-2{fill:#e6e7e8;}.cls-3{fill:#ffb8b8;}.cls-4{fill:#905cc3;}.cls-5{fill:#4b0000;}.cls-6{fill:#937bae;}.cls-7{fill:#564670;}.cls-8{fill:#ddbaeb;}.cls-9{fill:url(#linear-gradient);}.cls-10{fill:#df7223;}.cls-11{fill:#050000;}.cls-12{fill:#404041;}.cls-13{fill:#c481da;}.cls-14{fill:#35aade;}.cls-15{fill:#fff;}.cls-16{fill:#525458;}.cls-17{fill:#d5dadc;}.cls-18{fill:#ec1c24;}</style><linearGradient id="linear-gradient" x1="416.04" y1="-15077.3" x2="416.04" y2="-15097.42" gradientTransform="matrix(1, 0, 0, -1, 0, -14956.42)" gradientUnits="userSpaceOnUse"><stop offset="0" stop-color="#4c3f4f"/><stop offset="0.23" stop-color="#474e64"/><stop offset="1" stop-color="#475c7b"/></linearGradient></defs><title>house_new</title><ellipse class="cls-1" cx="215" cy="163.75" rx="214.96" ry="7.14"/><ellipse class="cls-2" cx="18.98" cy="95.42" rx="8.59" ry="7.78" transform="translate(-78.3 97.31) rotate(-79.86)"/><path class="cls-3" d="M66.42,73.09c28.22,0,54.36,20.15,62.92,58.49-.13.86-.43.86-.8,1.07-2.31,2-4.45,3.17-4.32,8.56H110.47s-4-1.23-4.83-4S102,118.6,97.08,110.12,80.4,87.47,61.75,87.47,31.38,101.67,18.82,120c-3.38,5-6.55,7.57-6.84,9.44-.43,1.45-1.15,1.15-1.5,1A2.31,2.31,0,0,1,9,127.61c.64-1.88,3.76-11.38,4.75-14a68.52,68.52,0,0,0,3-14.84,31.23,31.23,0,0,1,5-13.41,14.54,14.54,0,0,1,5.37-3.81A100.56,100.56,0,0,1,66.42,73.09Z"/><path class="cls-4" d="M50.59,74.46A133.5,133.5,0,0,1,84,64.75a258,258,0,0,1,39.6-3.38,21.76,21.76,0,0,0,5.18-5.85c1-1.8,0-4.61-1.23-7.83,0,0-9.5.64-16.1,1.23-28,2.17-42.71,6.73-55.11,11.78A77.94,77.94,0,0,0,31.7,76.79a32.2,32.2,0,0,0-3.35,4.05A100.75,100.75,0,0,1,50.59,74.46Z"/><path class="cls-3" d="M400.61,109.37c-4-5.55-12.82-26.51-25.14-31.26L370.1,76h0A81.16,81.16,0,0,0,349,71.62c-15.45-.86-30.13,1.56-39.57,8.48-9,6.57-23.77,19.21-26.56,52.29h0a10.25,10.25,0,0,0,.4,2.5c.35.94,1.88,3.25.13,5-.35.51-.21.8.13.86a14.86,14.86,0,0,0,8,0c3.3-1.15,4-6,4.53-9.23a71.15,71.15,0,0,1,5.37-18.22,42.47,42.47,0,0,1,37.21-21.95c25.62,0,34.64,17.41,40.81,27.8s15.43,17.76,36.41,17.55h3.68C414.93,128.9,404.66,114.92,400.61,109.37Z"/><path class="cls-3" d="M369.67,75.43a329.38,329.38,0,0,0-30.51-30.93c-6-5.18-26.21-21-48-26.7a187.3,187.3,0,0,0-50.76-6.63l-.78,121.32h43.2c2.68-33.08,17.6-45.61,26.56-52.29,9.44-6.92,24.15-9.34,39.57-8.48a81.16,81.16,0,0,1,21.11,4.37l-.4-.7Zm-46-24.33h0c-1,2.5-2.87,7.49-12.77,7.59s-58.17-1-61.44-1a5.55,5.55,0,0,1-6.14-5.58v-31a6.17,6.17,0,0,1,6.17-6.17l.53,0a146.46,146.46,0,0,1,45.4,7.86c19.1,7,23.91,14,26.4,17.47A12.56,12.56,0,0,1,323.63,51.09Z"/><path class="cls-3" d="M139.8,50.77l-2.68-1.88A37.29,37.29,0,0,1,133.22,47l-4.83.56a19.13,19.13,0,0,1,1.66,6.71,19.85,19.85,0,0,1-5.77,7.78,364.88,364.88,0,0,0-37.56,3.09,144.24,144.24,0,0,0-31.9,8.67,93,93,0,0,1,11.54-.75c28.2,0,54.22,20.12,62.89,58.33h3.41s-.51-47.65-.86-69.25C131.86,62.15,137.44,54.45,139.8,50.77Z"/><path class="cls-5" d="M379.3,61.29l9.6,9.36c1.31,1.26.54,3.78.54,3.78l-3.38,1.45-7.14-3.11L376.65,66Z"/><polygon class="cls-6" points="372.19 55.04 374.13 56.56 373.16 62.71 370.29 67.7 396.37 81.33 402.62 103.22 407.34 117.09 401.33 120.5 368.36 78.65 360.01 77.09 364.9 66.95 365.86 59.65 372.19 55.04"/><path class="cls-7" d="M109.28,141.86a29.35,29.35,0,0,1-13.14,9.07,8.75,8.75,0,0,1-2.27.43c-12.29.79-38.61-.35-49.84-.9a9.14,9.14,0,0,1-7.66-4.91l-4.57-8.79a8.93,8.93,0,0,0-8.91-4.83h-.06c-.55.2-2-1.23-3.58-3a9.12,9.12,0,0,1-.81-11l8.48-13a9.15,9.15,0,0,1,.74-1l9.61-11.14a9.15,9.15,0,0,1,4.43-2.82l21.79-6.19a9.15,9.15,0,0,1,4.83,0L84.7,88a9.15,9.15,0,0,1,5,3.35l12.67,16.86a9.15,9.15,0,0,1,1.12,2l7.8,18.61a9.15,9.15,0,0,1,.56,5.16l-.68,3.76A9,9,0,0,1,109.28,141.86Z"/><path class="cls-7" d="M292.48,138.37s3.35,4.8,4.8,6.33a21.46,21.46,0,0,0,6.92,5.37c3.35,1.53,65.87,1.57,65.87,1.57,7.78.08,15-13.77,22.75-14.47,4.21-.3,23.4-1.21,23.4-1.21l-11.32-2.87-12.58-5.37L381,113.2l-8-9.31L357.71,92.09,345.12,88,324,91.34l-12.29,4.51L300.1,108.32l-7,12.58-1.53,13.41Z"/><path class="cls-8" d="M132.12,130.78h-4.21l-3.65,4.8-4.35,5.61h6.17c45.61-.3,163.66.21,163.66.21L285.24,136l-1.26-2.2v-2.44l-3.76-1.58L232.12,128l-48.29-2.2-46.42,3.84-2.87.78-.3.48Z"/><polygon class="cls-6" points="130.89 127.05 131.64 132.98 285.19 133.03 296.7 101.5 374.74 71.43 321.78 24.61 306.33 17.29 292.32 14.04 266.67 9.83 247.52 5.08 239.55 8 188.87 9.53 164.08 16.08 154.69 22.98 136.25 52.16 128.96 62.71 127.62 104.78 130.89 127.05"/><path class="cls-9" d="M419.58,125.79s1.4,7.35.72,8.83a2.68,2.68,0,0,1-2.36,1.48l-6.33-8.77Z"/><polygon class="cls-10" points="127.24 48.03 128.82 53.75 123.38 60.56 101.59 61.53 73.23 65.26 49.25 73.84 50.43 75.35 55.77 74.86 78.65 67.75 109.37 64.27 125.12 63.16 130.97 56.75 130.84 50.85 129.09 47.9 127.24 48.03"/><path class="cls-11" d="M230.35,57.53m3.3-.8h0l-.3.16Zm-2.87-40.89h0A4.64,4.64,0,0,1,236,21V52.35a4.61,4.61,0,0,1-2.33,4.37V25.82c0-3.65-2-5-4.53-5s-23-.16-31.9.72a87.28,87.28,0,0,0-24.71,5.82,19,19,0,0,0-9.39,9.1c-1,1.82-6.55,11.83-7.43,13.66a11.75,11.75,0,0,0-1.45,5.18,8.37,8.37,0,0,0,.19,1.77H151a5.37,5.37,0,0,1-5.82-5.77A11.16,11.16,0,0,1,146.85,46c1-1.88,7.35-12.18,8.5-14a20.74,20.74,0,0,1,10.73-9.36,109.09,109.09,0,0,1,28.2-5.85c10.22-1,33.62-.86,36.49-.86Zm1.69,41.37h0a7.32,7.32,0,0,1-1.48.3,7.24,7.24,0,0,0,1.48-.27Z"/><path class="cls-11" d="M321.81,40.36c-2.5-3.46-7.3-10.46-26.4-17.47a146.46,146.46,0,0,0-45.4-8,6.17,6.17,0,0,0-6.68,5.61q0,.27,0,.53v31a5.55,5.55,0,0,0,6.25,5.58c3.27,0,51.54,1.15,61.44,1s11.7-5.1,12.77-7.59a12.56,12.56,0,0,0-1.82-10.73Zm-13,10.49h0c-.89,2-2.44,5-10.92,5.12-7.32,0-40-.75-50.63-1a4.1,4.1,0,0,1-1.66-3.22V21.47a130.63,130.63,0,0,1,38.85,6.17C300.83,33.3,305,39,307.13,41.86a10,10,0,0,1,1.66,8.88Z"/><path class="cls-12" d="M323.63,17.61a6,6,0,0,0,2.68,6c3.35,2.87,19.29,17.28,22.94,20.44a49.93,49.93,0,0,0,8.26,6.44c1,.3,3.17,1,4.51-.19a10.17,10.17,0,0,0,2.68-4,166.13,166.13,0,0,0-22.62-18.16c-6-3.89-16.1-10.25-18.22-11.51A4.35,4.35,0,0,1,323.63,17.61Z"/><path class="cls-13" d="M139.8,50.77l-2.68-1.88s4.05-1.8,1.82-3c0,0-7.49,1.37-10.52,1.74a19.13,19.13,0,0,1,1.66,6.71,19.85,19.85,0,0,1-5.77,7.78,364.88,364.88,0,0,0-37.56,3.09,144.24,144.24,0,0,0-31.9,8.67,93,93,0,0,1,11.54-.75c28.2,0,54.22,20.12,62.89,58.33h3.41s-.51-47.65-.86-69.25C131.86,62.15,137.44,54.45,139.8,50.77Z"/><path class="cls-14" d="M321.81,40.36c-2.5-3.46-7.3-10.46-26.4-17.47a146.46,146.46,0,0,0-45.4-8,6.17,6.17,0,0,0-6.68,5.61q0,.27,0,.53v31a5.55,5.55,0,0,0,6.25,5.58c3.27,0,51.54,1.15,61.44,1s11.7-5.1,12.77-7.59A12.56,12.56,0,0,0,321.81,40.36Z"/><path class="cls-13" d="M369.14,64.05A23.64,23.64,0,0,0,373,55s-6.25-7.38-8-9.31a10,10,0,0,1-3,4.61c-1.34,1.26-3.46.48-4.51.19a49.93,49.93,0,0,1-8.26-6.44c-3.65-3.17-19.59-17.57-22.94-20.44a6,6,0,0,1-2.68-6c0-.48.67-1.26-.38-1.82C295.41,1,201.08-6,172.13,6.85c-9.6,4.27-17.73,12.07-25.41,26.19-1.53,2.82-8.21,13.41-9.77,15.8h0l1.13.78c-3.54,5.71-7.16,11.27-7.16,11.27l.59,70.51,108.28.43H283c2.68-33.08,17.52-45,26.51-51.62,9.44-6.92,24.15-9.34,39.57-8.48a81.16,81.16,0,0,1,21.11,4.37l-.4-.7a325.81,325.81,0,0,0-22.62-23.72,324.94,324.94,0,0,1,22.83,24c-1-1.64-3.76-7.19-.78-11.62Zm-99-50.71h0l2.41.4Zm16.1,3.19h0l2,.48Z"/><path class="cls-14" d="M236,21a4.64,4.64,0,0,0-5.18-5.12c-2.87,0-26.27-.13-36.49.86a109.09,109.09,0,0,0-28.22,6A20.74,20.74,0,0,0,155.33,32c-1.15,1.88-7.49,12.18-8.5,14a11.16,11.16,0,0,0-1.66,5.37A5.37,5.37,0,0,0,151,57.21l79.33.35a5.2,5.2,0,0,0,5.59-4.79q0-.2,0-.39Z"/><path class="cls-13" d="M55.77,74.86c10.41-5,21.46-5.74,30.61-7.22a223.89,223.89,0,0,1,38.74-4.51,34.13,34.13,0,0,0,6.39-7.62c1-1.8,0-4.61-1.26-7.83,0,0-9.77.64-16.63,1.23C84.93,51.09,69.8,55.65,57.08,60.7a80.14,80.14,0,0,0-25.35,16.1,32.52,32.52,0,0,0-3.43,4.05A201.22,201.22,0,0,1,55.77,74.86Z"/><path class="cls-8" d="M27.11,81.36a14.54,14.54,0,0,0-5.37,3.81,31.23,31.23,0,0,0-5,13.41,68.52,68.52,0,0,1-3,14.84c-1,2.68-4.1,12.18-4.75,14a2.31,2.31,0,0,0,1.5,2.87c.35.13,1.07.43,1.5-1,.3-1.88,3.46-4.45,6.84-9.44,12.45-18.35,24.92-28,43.49-28s29.91,9.71,34.74,18.24,7.7,24.41,8.56,27.15,4.83,4,4.83,4h13.76c-.13-5.37,2-6.55,4.32-8.56a1.17,1.17,0,0,0,.8-1.07c-8.59-38.37-34.72-58.52-62.94-58.52A100.56,100.56,0,0,0,27.11,81.36Z"/><path class="cls-8" d="M400.61,109.37c1.37,1.88,3.46,4.72,5.8,8l5.37-1.34c-3.73-1.93-6.52-37.72-38.37-60.77a15.83,15.83,0,0,1-1.45,5.9,58.63,58.63,0,0,0-2.87,5.12c-.43.89-1.48,3.54,1.74,10C386.76,84.25,389.93,94.69,400.61,109.37Z"/><path class="cls-15" d="M424.08,135.87H408.47a5.63,5.63,0,0,1-5.88-5.37V121a5.63,5.63,0,0,1,5.88-5.37h15.61A5.63,5.63,0,0,1,430,121v9.5a5.63,5.63,0,0,1-5.87,5.39Z"/><path class="cls-16" d="M215.83,69A38,38,0,0,1,224.5,68c6.14-.27,9.93-.46,11.89-.38.54,0,.78.21.78.89v2.09c0,.35-.27.46-.72.46s-9.79-.94-14.06-.89-6,.27-6.39.27S215.08,69.31,215.83,69Z"/><path class="cls-17" d="M397.87,104.75a9.28,9.28,0,0,0,.86-3.33c.24-2.36-.13-11.27-.13-11.27a18.14,18.14,0,0,0-2-5.66,3.43,3.43,0,0,0-2.5-1.82,55.62,55.62,0,0,0-7-.38c-1.74,0-3.84-.16-5.37-.3C388.75,88.14,394.22,98.42,397.87,104.75Z"/><path class="cls-18" d="M398.51,89.65a21.28,21.28,0,0,0-1.93-5,3.43,3.43,0,0,0-2.5-1.82,55.62,55.62,0,0,0-7-.38c-1.74,0-3.84-.16-5.37-.3a46.63,46.63,0,0,1,6.9,7.78,113.6,113.6,0,0,1,6.57,10.41,30.49,30.49,0,0,0,3.51,0c0-3.27-.21-10.14-.21-10.14Q398.51,89.9,398.51,89.65Z"/><rect class="cls-2" x="0.04" y="109.55" width="27.63" height="22.35" rx="5.93" ry="5.93"/><path class="cls-12" d="M233.65,56.73A4.61,4.61,0,0,0,236,52.35V21a4.64,4.64,0,0,0-5.2-5.12c-2.87,0-26.27-.13-36.49.86s-20.42,1.5-27.53,4.45A24.15,24.15,0,0,0,155.36,32c-1.15,1.88-7.49,12.18-8.5,14a11.16,11.16,0,0,0-1.66,5.37A5.37,5.37,0,0,0,151,57.18h3.38l76,.35a7,7,0,0,0,3.11-.64Z"/><path class="cls-12" d="M243.28,21.07v31a5.55,5.55,0,0,0,6.28,5.58c3.27,0,51.54,1.15,61.44,1s11.7-5.1,12.77-7.59a12.56,12.56,0,0,0-1.82-10.73c-2.5-3.46-7.3-10.46-26.4-17.47a146.46,146.46,0,0,0-45.53-8,6.17,6.17,0,0,0-6.71,5.58Q243.28,20.79,243.28,21.07Z"/><path class="cls-16" d="M147.36,60.24c-4.4,0-8-4.48-8-9.9s3.54-9.79,8-9.9Z"/><path class="cls-8" d="M400.18,109.66c-15.67-21.46-21-35.36-51.27-37.24-15.45-.86-28.6,1.34-38,8.24a62,62,0,0,0-26.29,52.29H283c.35.94,2,5.2.3,7-.35.51-.21.8.13.86a14.86,14.86,0,0,0,8,0c3.3-1.15,4-6,4.53-9.23a71.15,71.15,0,0,1,5.37-18.22,42.47,42.47,0,0,1,37.21-21.95c25.62,0,34.64,17.41,40.81,27.8s15.56,17.71,36.54,17.49h3.68C414.1,127.34,406.56,118.41,400.18,109.66Z"/></svg>