<svg id="Layer_1" data-name="Layer 1" xmlns="http://www.w3.org/2000/svg" xmlns:xlink="http://www.w3.org/1999/xlink" viewBox="0 0 325 110"><defs><style>.cls-1{opacity:0.55;isolation:isolate;fill:url(#linear-gradient);}</style><linearGradient id="linear-gradient" x1="81.04" y1="55" x2="258.47" y2="55" gradientUnits="userSpaceOnUse"><stop offset="0" stop-color="#fff"/><stop offset="0.19" stop-color="#fff" stop-opacity="0.98"/><stop offset="0.39" stop-color="#fff" stop-opacity="0.94"/><stop offset="0.6" stop-color="#fff" stop-opacity="0.85"/><stop offset="0.8" stop-color="#fff" stop-opacity="0.74"/><stop offset="1" stop-color="#fff" stop-opacity="0.6"/></linearGradient></defs><title>house_new</title><path class="cls-1" d="M246.82,53.57H225.09a8.37,8.37,0,0,1-.28-16.74l-.05,0h4.31a11.69,11.69,0,0,0,11.66-11.66h0a11.69,11.69,0,0,0-11.66-11.66H133.7A11.69,11.69,0,0,0,122,25.14v5h0a4.57,4.57,0,0,1-4.55,4.55H91.72A10.71,10.71,0,0,0,81,45.33v1.95a10.72,10.72,0,0,0,9.71,10.64v0H132a7.3,7.3,0,0,1,0,14.61H103.56a7.51,7.51,0,0,1-2.85.56s-.39.07-.35.11a11.66,11.66,0,0,0,.83,23.28h96a11.69,11.69,0,0,0,11.66-11.66c0-.06,0-.12,0-.17h0V81.45a4.57,4.57,0,0,1,4.55-4.55h33.39a11.69,11.69,0,0,0,11.66-11.66h0A11.69,11.69,0,0,0,246.82,53.57Z"/></svg>