<svg id="Layer_1" data-name="Layer 1" xmlns="http://www.w3.org/2000/svg" xmlns:xlink="http://www.w3.org/1999/xlink" viewBox="0 0 325 110"><defs><style>.cls-1{opacity:0.45;isolation:isolate;fill:url(#linear-gradient);}</style><linearGradient id="linear-gradient" x1="72.56" y1="54.76" x2="266.95" y2="54.76" gradientUnits="userSpaceOnUse"><stop offset="0" stop-color="#fff"/><stop offset="0.19" stop-color="#fff" stop-opacity="0.98"/><stop offset="0.39" stop-color="#fff" stop-opacity="0.94"/><stop offset="0.6" stop-color="#fff" stop-opacity="0.85"/><stop offset="0.8" stop-color="#fff" stop-opacity="0.74"/><stop offset="1" stop-color="#fff" stop-opacity="0.6"/></linearGradient></defs><title>house_new</title><path class="cls-1" d="M258.86,26H165.59A8.11,8.11,0,0,0,157.5,34v3.44h0a3.17,3.17,0,0,1-3.16,3.16H104.79a7.44,7.44,0,0,0-7.41,7.41v1.35a7.44,7.44,0,0,0,7.41,7.41h15.9a5.26,5.26,0,0,1,0,10.53h-.31l0,.05H80.65a8.11,8.11,0,0,0-8.09,8.09h0a8.11,8.11,0,0,0,8.09,8.09h93.28A8.11,8.11,0,0,0,182,75.49h0s0-.08,0-.12h0V73.12h0A3.17,3.17,0,0,1,185.17,70h34.41a8.11,8.11,0,0,0,8.09-8.09h0a8.11,8.11,0,0,0-8.09-8.09H204.1a5.81,5.81,0,0,1-.2-11.61l0,0h55A8.11,8.11,0,0,0,267,34h0A8.11,8.11,0,0,0,258.86,26Z"/></svg>