<svg id="Layer_1" data-name="Layer 1" xmlns="http://www.w3.org/2000/svg" xmlns:xlink="http://www.w3.org/1999/xlink" viewBox="0 0 325 110"><defs><style>.cls-1{opacity:0.95;isolation:isolate;fill:url(#linear-gradient);}</style><linearGradient id="linear-gradient" x1="29.7" y1="52.47" x2="309.81" y2="52.47" gradientUnits="userSpaceOnUse"><stop offset="0" stop-color="#fff"/><stop offset="0.19" stop-color="#fff" stop-opacity="0.98"/><stop offset="0.39" stop-color="#fff" stop-opacity="0.94"/><stop offset="0.6" stop-color="#fff" stop-opacity="0.85"/><stop offset="0.8" stop-color="#fff" stop-opacity="0.74"/><stop offset="1" stop-color="#fff" stop-opacity="0.6"/></linearGradient></defs><title>house_new</title><path class="cls-1" d="M298.15,11H163.75a11.69,11.69,0,0,0-11.66,11.66v5h0a4.57,4.57,0,0,1-4.55,4.55H76.15A10.71,10.71,0,0,0,65.46,42.8v1.95A10.71,10.71,0,0,0,76.15,55.43H99.05a7.58,7.58,0,0,1,0,15.17H98.6l.07.07H41.36A11.69,11.69,0,0,0,29.7,82.33h0A11.69,11.69,0,0,0,41.36,94h134.4a11.69,11.69,0,0,0,11.66-11.66h0c0-.06,0-.12,0-.17h0V78.92h0A4.57,4.57,0,0,1,192,74.36h49.58A11.69,11.69,0,0,0,253.21,62.7h0A11.69,11.69,0,0,0,241.55,51H219.24A8.37,8.37,0,0,1,219,34.31l-.05,0h79.25a11.69,11.69,0,0,0,11.66-11.66h0A11.69,11.69,0,0,0,298.15,11Z"/></svg>