<svg id="Layer_1" data-name="Layer 1" xmlns="http://www.w3.org/2000/svg" xmlns:xlink="http://www.w3.org/1999/xlink" viewBox="0 0 325 110"><defs><style>.cls-1{opacity:0.75;isolation:isolate;fill:url(#linear-gradient);}</style><linearGradient id="linear-gradient" x1="57.54" y1="56.42" x2="267.46" y2="56.42" gradientUnits="userSpaceOnUse"><stop offset="0" stop-color="#fff"/><stop offset="0.19" stop-color="#fff" stop-opacity="0.98"/><stop offset="0.39" stop-color="#fff" stop-opacity="0.94"/><stop offset="0.6" stop-color="#fff" stop-opacity="0.85"/><stop offset="0.8" stop-color="#fff" stop-opacity="0.74"/><stop offset="1" stop-color="#fff" stop-opacity="0.6"/></linearGradient></defs><title>house_new</title><path class="cls-1" d="M255.8,55H201.59a8.37,8.37,0,0,1-.28-16.74l-.05,0h40.21a11.66,11.66,0,0,0,0-23.31H146.1a11.69,11.69,0,0,0-11.66,11.66v5h0a4.57,4.57,0,0,1-4.55,4.55H68.22A10.71,10.71,0,0,0,57.54,46.75V48.7A10.71,10.71,0,0,0,68.22,59.38H106.7a7.58,7.58,0,0,1,0,15.17h-.45l.07.07H84.75A11.69,11.69,0,0,0,73.09,86.28h0A11.69,11.69,0,0,0,84.75,97.94h134.4a11.69,11.69,0,0,0,11.66-11.66h0c0-.06,0-.12,0-.17h0V82.87a4.57,4.57,0,0,1,4.55-4.55H255.8a11.69,11.69,0,0,0,11.66-11.66h0A11.69,11.69,0,0,0,255.8,55Z"/></svg>