<svg id="Layer_1" data-name="Layer 1" xmlns="http://www.w3.org/2000/svg" viewBox="0 0 58 90"><defs><style>.cls-1{fill:#2ab5b5;}.cls-2{fill:#f2d7bc;}.cls-3{fill:#d9a78c;}.cls-4{fill:#2a9c9e;}.cls-5{fill:#fff;}</style></defs><title>house_new</title><path class="cls-1" d="M6.14,60.56H51.86a4.58,4.58,0,0,1,4.58,4.58V90H1.57V65.13A4.58,4.58,0,0,1,6.14,60.56Z"/><path class="cls-2" d="M9.93,13H47.74V50.58a3.29,3.29,0,0,1-3.29,3.29H13.22a3.29,3.29,0,0,1-3.29-3.29Z"/><rect class="cls-2" x="41.71" y="24.76" width="12.04" height="12.71" rx="2.1" ry="2.1"/><rect class="cls-2" x="3.91" y="24.76" width="12.04" height="12.71" rx="2.1" ry="2.1"/><g id="men_2" data-name="men 2"><rect class="cls-3" x="20.97" y="53.87" width="15.72" height="7.7"/><polygon class="cls-4" points="28 64.57 25.99 84.31 29 89.67 32.01 84.31 30 64.57 28 64.57"/><path class="cls-4" d="M31.68,64.24,29,66.91l-2.68-2.68L29,61.56Z"/><polygon class="cls-5" points="29 61.56 20.97 58.55 18.96 60.56 22.98 68.92 29 61.56"/><polygon class="cls-5" points="29 61.56 37.03 58.55 39.04 60.56 35.02 68.92 29 61.56"/><rect class="cls-4" x="11.6" y="81.3" width="10.04" height="2.01"/><rect class="cls-4" x="36.36" y="81.3" width="10.04" height="2.01"/></g><path class="cls-4" d="M39.37,1.51h0A1.51,1.51,0,0,1,37.87,3H36.19a1.51,1.51,0,0,1-1.51-1.51h0A1.51,1.51,0,0,0,33.18,0H9.76A1.51,1.51,0,0,0,8.26,1.51v27.6H9.93V18.9a1.51,1.51,0,0,1,1.51-1.51h34.8a1.51,1.51,0,0,1,1.51,1.51v10.2h1.67V1.51A1.51,1.51,0,0,0,47.9,0h-7A1.51,1.51,0,0,0,39.37,1.51Z"/><rect class="cls-5" x="21.97" y="44.16" width="14.05" height="2.34"/></svg>