<svg id="Layer_1" data-name="Layer 1" xmlns="http://www.w3.org/2000/svg" viewBox="0 0 58 90"><defs><style>.cls-1{fill:#d64c6a;}.cls-2{fill:#f26273;}</style></defs><title>house_new</title><path class="cls-1" d="M57.59,63l-.88-24.23a.27.27,0,0,0-.55,0L53.6,61a2.9,2.9,0,0,1-.71,1.58l-11.51,13-15.29-48L5.88,90H46L41.81,77,57.16,64A1.19,1.19,0,0,0,57.59,63Z"/><path class="cls-2" d="M14,88.5,25.06,57.27a1.12,1.12,0,0,1,2.11,0L38.88,88.48A1.12,1.12,0,0,1,37.83,90H15A1.12,1.12,0,0,1,14,88.5Z"/><path class="cls-2" d="M40.55.74,32.36,14.58a1.52,1.52,0,0,1-1.3.74H20.79a1.52,1.52,0,0,1-1.3-.74L11.3.74a1.52,1.52,0,0,0-2.61,0L.62,14.37A1.52,1.52,0,0,0,.8,16.15L25,43.17a1.52,1.52,0,0,0,2.27,0l23.83-27a1.52,1.52,0,0,0,.17-1.77L43.15.74A1.52,1.52,0,0,0,40.55.74Z"/><path class="cls-1" d="M3.15,13,8.69,3.79a1.52,1.52,0,0,1,2.6,0L16.84,13a1.52,1.52,0,0,1-1.3,2.3H4.45A1.52,1.52,0,0,1,3.15,13Z"/><path class="cls-1" d="M35.28,13.05l5.29-9.19a1.52,1.52,0,0,1,2.61,0L48.69,13a1.52,1.52,0,0,1-1.3,2.3H36.59A1.52,1.52,0,0,1,35.28,13.05Z"/><path class="cls-1" d="M30.45,29.6l-4,3.28a.51.51,0,0,1-.64,0l-4.29-3.28a.51.51,0,0,1,.31-.92h8.33A.51.51,0,0,1,30.45,29.6Z"/></svg>