<svg id="Layer_1" data-name="Layer 1" xmlns="http://www.w3.org/2000/svg" viewBox="0 0 58 90"><defs><style>.cls-1{fill:#2ab5b5;}.cls-2{fill:#eac8ad;}.cls-3{fill:#2a9c9e;}.cls-4{fill:#eed3b8;}.cls-5{fill:#f2d7bc;}.cls-6{fill:#fff;}</style></defs><title>house_new</title><path class="cls-1" d="M52.06,90c0-15.37-10.25-28.83-23.06-28.83S5.94,74.63,5.94,90"/><polygon class="cls-2" points="36.05 67.58 29 70.46 22.27 67.58 22.27 53.49 36.05 53.49 36.05 67.58"/><circle class="cls-3" cx="29" cy="29.79" r="20.5"/><ellipse class="cls-4" cx="29" cy="35.23" rx="17.94" ry="24.66"/><g id="women_1" data-name="women 1"><g id="women_1-2" data-name="women 1"><path class="cls-5" d="M8.82,40c-.32-2.88,1-5.44,2.88-5.44,1.92-.32,3.84,1.92,4.16,4.48.32,2.88-1,5.44-2.88,5.44C10.74,44.84,9.14,42.92,8.82,40Z"/><path class="cls-5" d="M49.5,40c.32-2.88-1-5.44-2.88-5.44-1.92-.32-3.84,1.92-4.16,4.48-.32,2.88,1,5.44,2.88,5.44C47.26,44.84,49.18,42.92,49.5,40Z"/><path class="cls-6" d="M29,53.49c2.56,0,4.8-1.6,4.8-3.52H24.52C24.52,51.89,26.44,53.49,29,53.49Z"/><path class="cls-3" d="M28,9.29C16.19,9.29,12.35,19.86,12.35,25c-4.48,6.09.32,11.53,3.84,13.45V35.55c0-3.84,3.84-7.69,9.29-7,5.12.32,8.33-2.56,10.89-7.37C39.89,14.73,35.73,9.29,28,9.29Z"/><path class="cls-3" d="M36,19.22s2.88,11.53,10.57,15.37c1.28-10.25,2.24-8,0-13.45S36,11.53,36,11.53Z"/><path class="cls-3" d="M20,63.42a9.07,9.07,0,0,0,17.94,0,13.93,13.93,0,0,1-2.24-1.28A6.77,6.77,0,0,1,29,68.86a6.57,6.57,0,0,1-6.73-6.73A5.16,5.16,0,0,1,20,63.42Z"/><circle class="cls-3" cx="29" cy="6.73" r="6.73"/></g></g></svg>