<svg id="Layer_1" data-name="Layer 1" xmlns="http://www.w3.org/2000/svg" viewBox="0 0 162 203"><defs><style>.cls-1{fill:#937bae;}.cls-2{fill:#f7e293;}</style></defs><title>house_new</title><g id="shar"><g id="_Group_" data-name=" Group "><g id="_Group_2" data-name=" Group 2"><rect id="_Path_" data-name=" Path " class="cls-1" x="78.96" y="171.31" width="13.67" height="1.2" transform="translate(-96.61 232.25) rotate(-81.78)"/><rect id="_Path_2" data-name=" Path 2" class="cls-1" x="72.29" y="164.91" width="1.2" height="13.67" transform="translate(-19.68 9.76) rotate(-6.75)"/><rect id="_Path_3" data-name=" Path 3" class="cls-1" x="72.32" y="170.78" width="14.49" height="1.2" transform="translate(-92.85 248.67) rotate(-89.24)"/><polygon id="_Path_4" data-name=" Path 4" class="cls-1" points="68.07 178.58 65.17 164.69 66.37 164.44 69.27 178.36 68.07 178.58"/><polygon id="_Path_5" data-name=" Path 5" class="cls-1" points="90.94 178.9 89.78 178.61 93.02 164.78 94.19 165.07 90.94 178.9"/></g><rect id="_Rectangle_" data-name=" Rectangle " class="cls-1" x="67.24" y="174.7" width="24.1" height="31.72" rx="2.96" ry="2.96" transform="translate(-112.31 267.32) rotate(-89.24)"/></g><g id="_Group_3" data-name=" Group 3"><g id="_Group_4" data-name=" Group 4"><g id="_Group_5" data-name=" Group 5"><path id="_Path_6" data-name=" Path 6" class="cls-1" d="M35.28,58.87C32,20.54,50.84,7,59.06,3A118.23,118.23,0,0,0,42.56,7.78c-7.75,4.79-24.16,18.37-22.81,48.51C21.54,95.92,44.95,131,44.95,131s16.95,24.19,22.59,34.65l.54-.5,1.51,1.26,1.48-1.07A77.71,77.71,0,0,0,64.76,152C61.14,144.31,39.4,107.64,35.28,58.87Z"/><path id="_Path_7" data-name=" Path 7" class="cls-1" d="M79.41.22a69.6,69.6,0,0,0-8.57.72c-5.7,3.15-18.4,14.36-17,54,1.64,47.25,18.59,102.6,21,110.26l.41-.25,2,1.26L79.7,165,81.84.22Z"/><path id="_Path_8" data-name=" Path 8" class="cls-1" d="M9.38,61c-1.29-24.57,9.67-38.75,14.46-43.6A52.92,52.92,0,0,0,.15,62.15s-2.61,30.24,33.68,69.08c0,0,27.38,27.09,30.78,34.34l.66-.38c-2.43-5.36-19.66-24.76-19.66-24.76C26,115.58,11,92.11,9.38,61Z"/><path id="_Path_9" data-name=" Path 9" class="cls-1" d="M152.24,62.91C154.32,36.57,141.85,22,138,18a86.47,86.47,0,0,0-18.18-9.64c7.34,4.47,24.38,18.49,22.05,49.58-2.84,39.57-27.25,74-27.25,74S97,155.71,91.19,165.82l.79.76,1.13-1.23.41.19c2.58-5.32,20.26-24.22,20.26-24.22C134.26,117,149.82,93.94,152.24,62.91Z"/><path id="_Path_10" data-name=" Path 10" class="cls-1" d="M126.44,60.07c4.32-38.81-14.74-52.64-22.65-56.7-4.41-1-8.35-1.7-11.53-2.17,5.54,3.15,18.15,14.59,15.75,54.5-2.9,47.6-21.55,102.82-23.94,109.82l1.35,1,2.17-1.2.19.16a73.68,73.68,0,0,1,6.87-13.2C98.31,144.81,121,108.74,126.44,60.07Z"/></g><g id="_Group_6" data-name=" Group 6"><path id="_Path_11" data-name=" Path 11" class="cls-2" d="M19.75,56.29C18.39,26.14,34.81,12.57,42.56,7.78a84,84,0,0,0-18.71,9.64C19.05,22.27,8.09,36.45,9.38,61,11,92.11,26,115.58,45.67,140.4c0,0,17.23,19.41,19.66,24.76l.35-.19,1.23,1.26.72-.69C62,155.21,45,130.89,45,130.89S21.57,95.92,19.75,56.29Z"/><path id="_Path_12" data-name=" Path 12" class="cls-2" d="M70.84,1c-3.15.41-7.31,1-11.78,2C50.84,7,32,20.51,35.28,58.84c4.16,48.8,25.89,85.43,29.42,93A77.71,77.71,0,0,1,71,165.19h.19l2,1.26,1.58-.95c-2.46-7.75-19.41-63-21-110.26C52.45,15.34,65.14,4.06,70.84,1Z"/><path id="_Path_13" data-name=" Path 13" class="cls-2" d="M161.85,64.29A53.14,53.14,0,0,0,138,18c3.87,3.84,16.29,18.55,14.21,44.89-2.46,31-18,54.09-38.37,78.41,0,0-17.67,18.9-20.26,24.22l.85.41c3.59-7.15,31.88-33.42,31.88-33.42C163.68,94.72,161.85,64.29,161.85,64.29Z"/><path id="_Path_14" data-name=" Path 14" class="cls-2" d="M92.26,1.19c-4.88-.72-8-1-8-1H81.84L79.66,165.16l2.11,1.26,1.89-1.2.41.28c2.39-7,21-62.22,23.94-109.82C110.41,15.78,97.81,4.28,92.26,1.19Z"/><path id="_Path_15" data-name=" Path 15" class="cls-2" d="M141.91,57.93c2.33-31.09-14.71-45.11-22.05-49.58a119.9,119.9,0,0,0-16.07-5c7.91,4,27,17.86,22.65,56.7-5.45,48.67-28.13,84.74-31.79,92.17a73.68,73.68,0,0,0-6.8,13.17l1.29,1.1,1.73-1.2.54.5c5.83-10.11,23.47-33.9,23.47-33.9S139.17,97.5,141.91,57.93Z"/></g></g></g></g></svg>