<svg xmlns="http://www.w3.org/2000/svg" viewBox="0 0 558.91 352.26" width="558.91" height="352.26"><defs><style>.cls-1{fill:#3c3c3b;}.cls-2,.cls-23{fill:#fff;}.cls-2{stroke:#3c3c3b;stroke-miterlimit:10;stroke-width:8px;}.cls-3{fill:#2a2f38;}.cls-4{fill:#1a2026;}.cls-5{fill:#f55640;}.cls-13,.cls-6{fill:#ff8c71;}.cls-7{fill:#c74137;}.cls-8{fill:#fff0ff;}.cls-9{fill:#fd4001;}.cls-10{fill:#434c54;}.cls-11,.cls-13{opacity:0.7;}.cls-12{fill:#39424b;}.cls-14{fill:#454f58;}.cls-15{fill:#a19faa;}.cls-16{fill:#88a59c;}.cls-17{fill:#6499a1;opacity:0.4;}.cls-18{fill:#7f7f89;}.cls-19{fill:#93939d;}.cls-20{fill:#dfdfdf;opacity:0.6;}.cls-21{fill:#eee;}.cls-22{opacity:0.5;}</style></defs><title>good_adaptiv_house</title><g id="Layer_4" data-name="Layer 4"><rect class="cls-1" x="246.04" y="295.42" width="52.43" height="12.91"/><rect class="cls-1" x="399.05" y="294.42" width="52.43" height="12.91"/><rect class="cls-2" x="140.72" y="4" width="400.53" height="291.47"/><circle class="cls-3" cx="514.84" cy="329.98" r="18.66"/><circle class="cls-3" cx="465.64" cy="329.98" r="18.66"/><polygon class="cls-4" points="558.91 327.01 315.57 327.01 315.57 312.44 124.31 312.44 124.31 307.32 558.91 307.33 558.91 327.01"/><rect class="cls-4" x="140.72" y="307.33" width="73.23" height="19.68"/><path class="cls-5" d="M88,244.78l.43-9.8-2.79-20.39S40,227.53,41.58,238.9s9,9.8,9,9.8Z"/><path class="cls-6" d="M86.64,223.16s-27.83,6-44.75,13.43c4.06-10.74,43.77-22,43.77-22L88.44,235l0,1.07Z"/><path class="cls-7" d="M88.44,235l-.43,9.8L50.6,248.69s-7.45,1.57-9-9.8c-.3-2.16,1.12-4.38,3.6-6.56l42.5-2.94Z"/><circle class="cls-8" cx="44.99" cy="321.05" r="25.32"/><path class="cls-9" d="M88.44,325.14v-91.3c-42.36,0-46.22-.66-62.26,1.39a8.7,8.7,0,0,0-3.59,1.3c-12.67,7.55-20.24,49.25-20.24,70.1,0,3.84-.39,7.8-.41,11.58Z"/><path class="cls-5" d="M1.94,318.22C1.88,329.45,1.77,339,1.77,339H88.44V315.19Z"/><path class="cls-5" d="M14.73,281.31l.44-2.78c1.18-7.48,3.32-13.8,5.81-21.11l.86-2.53.9-2.67-5.33-1.8-.9,2.67-.86,2.52c-2.56,7.56-4.78,14.09-6,22.05l-.44,2.78Z"/><path class="cls-9" d="M41.46,279l4.76-.07c-.17-11-.34-29.22-.09-31a2.34,2.34,0,0,1-1.54,1.74l-.75-2.24,1.69-1.69-2.62-.52c-1.48.63-1.53,2-1.58,3.52,0,.85-.05,2.09-.06,3.67,0,2.64,0,6.3,0,10.88C41.34,271.09,41.45,279,41.46,279Z"/><path class="cls-10" d="M87.85,306.18v2H64.12l-2.81,36.46h-56c-4,0-5-4.65-5-7.72s-.06-17.66,0-29.42Z"/><path class="cls-9" d="M87.85,303.72v4.79H64.12v15.4H5.32c-4,0-5,.26-5-2.81S.27,316.78.32,305Z"/><g class="cls-11"><polygon class="cls-6" points="0.27 305.99 9.76 305.99 44.28 300.96 75.45 300.96 75.45 299.45 44.17 299.45 9.65 304.49 0.27 304.48 0.27 305.99"/></g><polygon class="cls-4" points="9.65 338.45 9.65 327.02 9.65 324.98 12.08 324.98 13.66 338.45 9.65 338.45"/><polygon class="cls-10" points="0.31 328.02 0.31 308.35 4.95 308.27 4.95 326.21 0.31 328.02"/><path class="cls-6" d="M2.07,303c1-21.87,8.68-59.81,20.51-66.85a8.76,8.76,0,0,1,3.59-1.3c16-2.05,19.91-1.39,62.26-1.39v3.46c-41.95,0-45.85-.66-61.83,1.39a8.8,8.8,0,0,0-3.6,1.3C11.72,246.35,4.18,280.9,2.68,303Z"/><path class="cls-6" d="M9.11,279.82,8.68,282l-4.63,1.45a182.09,182.09,0,0,1,6.66-27.29h4.62l-.55,1.62A126.14,126.14,0,0,0,9.11,279.82Z"/><path class="cls-7" d="M9.39,303.43c0-14.15,4.32-36.29,11-51.56H43.23v47.67L9.83,303.72H9.54Z"/><path class="cls-12" d="M9.61,277.65l-.5,2.17-4.79,1.45a151.47,151.47,0,0,1,7.74-29.41h5c-.18.54-1.28,3.21-1.46,3.74C13.08,263.16,10.87,269.69,9.61,277.65Z"/><path class="cls-12" d="M46.38,254H63.11c2.81,0-2.54,17.46-7.83,17.84-3.77.27-6.37.49-8.78.68C46.42,266.08,46.37,258.93,46.38,254Z"/><path class="cls-13" d="M13.86,279.39H29.21s3.54-4.4,6.66-4.7c1-.1,3.78-.2,5.2-.33v21.82l-29.63,5.18C11.81,295.46,12.34,286.64,13.86,279.39Z"/><path class="cls-12" d="M15.47,272.63h0v0q.21-.88.43-1.75c0-.07,0-.15.06-.22.31-1.19.64-2.37,1-3.55l.06-.2c.35-1.18.72-2.36,1.11-3.55,0-.08,0-.16.08-.24.38-1.18.78-2.37,1.19-3.58l.13-.38.58-1.72.86-2.53.3-.9h20c0,2.46,0,5.58,0,9.33,0,.84,0,1.69,0,2.52,0,.19,0,.39,0,.59s0,.39,0,.58c0,2,0,3.93.06,5.63h0c0,.08,0,.17,0,.25-2.53.21-5,.36-6.36.5-3.12.3-6.66,4.7-6.66,4.7h-14C14.69,276.21,15.05,274.41,15.47,272.63Z"/><path class="cls-9" d="M13.42,281.12H29.21s3.54-4.4,6.66-4.7c1-.1,3.78-.2,5.2-.33v21.82L11,302.66C11.38,296.76,11.91,288.37,13.42,281.12Z"/><polygon class="cls-7" points="8.97 304.5 44.26 299.31 88.42 299.31 88.42 298.18 44.17 298.18 8.81 303.38 8.97 304.5"/><path class="cls-10" d="M9.49,302.87v20.81H20.34c1.41,0,1.84-.27,2.11-.76.06-.11.12-.23.17-.35,2.63-8.24,9.7-18.72,15.78-18.72h17.7c5,0,10,6.14,13.27,12.65a13.82,13.82,0,0,0,2,0v-4.27H88.25s.06,13.95.06,16.49c0,5.35-15.19,8.59-15.19,8.59H21.46v-8.59c0-.15,0-.31,0-.46s0-.22,0-.31c.11-1.38.32-2.59-.91-2.59H.23v-21.1L2,302.86Z"/><rect class="cls-14" x="60.76" y="318.96" width="185.28" height="20.78"/><g class="cls-11"><rect class="cls-4" x="66.49" y="318.96" width="71.06" height="20.78"/></g><g class="cls-11"><rect class="cls-4" x="182.56" y="318.96" width="56.32" height="20.78"/></g><path class="cls-10" d="M23.44,339.42V329.14c0-7.36,8.38-23.89,15.86-23.89H55.88c8.13,0,15.64,17,15.64,23.89V339.8Z"/><path class="cls-4" d="M26.95,344.62V330.77c0-6.2,7.43-20.12,14.07-20.12h13.2c7.21,0,14.5,14.35,14.5,20.12v9l-29.52,1.59-6.91,3.23Z"/><polygon class="cls-4" points="23.82 328.43 10.1 328.43 10.1 325.45 10.1 325.36 24.62 325.36 23.82 328.43"/><circle class="cls-3" cx="47.86" cy="333.6" r="18.66"/><path class="cls-15" d="M47.86,347A13.36,13.36,0,1,0,34.5,333.6,13.38,13.38,0,0,0,47.86,347Z"/><rect class="cls-12" x="32.62" y="291.39" width="6.27" height="3.03"/><g class="cls-11"><path class="cls-16" d="M22.68,329.14c0-7.36,8.38-23.89,15.86-23.89H55.88c2.56,0,5.12,1.69,7.44,4.21-2-1.79-4-2.91-6.14-2.91-8.13,0-10.35.14-17.83.14s-15.15,16.53-15.15,23.89v9H22.68Z"/></g><path class="cls-13" d="M66.91,252.23c3.2,0-3.76,22.52-9.78,23-4.29.31-9.4.57-12.14.78l-.11-23.74Z"/><path class="cls-7" d="M45,274.56c2.74-.21,6.74-.46,11-.77,6-.44,12.11-21.58,8.91-21.58H44.8Z"/><path class="cls-10" d="M184.79,343.45l0-10.78a26,26,0,1,1,52,0v10.78Z"/><path class="cls-12" d="M46.5,254H63.11c2.81,0-2.54,17.46-7.83,17.84-3.77.27-6.37.49-8.78.68-.08-6.42-.14-13.57-.13-18.52Z"/><path class="cls-4" d="M187.71,343.42l0-10.82a23.07,23.07,0,1,1,46.14,0v10.82Z"/><rect class="cls-7" x="74.51" y="233.04" width="1.89" height="79.33"/><path class="cls-17" d="M14,254c-.26.67-.5,1.27-.58,1.49-2.67,7.86-5,14.65-6.27,22.93l-.51,2.19-2.32.7a150.82,150.82,0,0,1,7-27.32Z"/><circle class="cls-18" cx="47.86" cy="333.6" r="9.09"/><circle class="cls-3" cx="210.78" cy="333.6" r="18.66"/><path class="cls-15" d="M210.78,347a13.36,13.36,0,1,0-13.36-13.36A13.38,13.38,0,0,0,210.78,347Z"/><circle class="cls-18" cx="210.78" cy="333.6" r="9.08"/><path class="cls-10" d="M467.14,343.45l0-10.78a26,26,0,1,1,52,0v10.78Z"/><path class="cls-4" d="M470.06,343.42l0-10.82a23.07,23.07,0,1,1,46.14,0v10.82Z"/><path class="cls-3" d="M511.79,333.6a18.66,18.66,0,1,0-18.66,18.66A18.66,18.66,0,0,0,511.79,333.6Z"/><path class="cls-15" d="M493.13,347a13.36,13.36,0,1,0-13.36-13.36A13.38,13.38,0,0,0,493.13,347Z"/><circle class="cls-18" cx="493.13" cy="333.6" r="9.08"/><path class="cls-10" d="M417.94,343.45l0-10.78a26,26,0,1,1,52,0v10.78Z"/><path class="cls-4" d="M420.85,343.42l0-10.82a23.07,23.07,0,1,1,46.14,0v10.82Z"/><circle class="cls-3" cx="443.93" cy="333.6" r="18.66"/><path class="cls-15" d="M443.93,347a13.36,13.36,0,1,0-13.36-13.36A13.38,13.38,0,0,0,443.93,347Z"/><circle class="cls-18" cx="443.93" cy="333.6" r="9.08"/><rect class="cls-19" x="74.15" y="314.7" width="60.24" height="26.83"/><rect class="cls-20" x="74.15" y="314.7" width="60.24" height="4.04"/><rect class="cls-18" x="74.15" y="337.1" width="60.24" height="4.56"/><rect class="cls-4" x="125.18" y="314.12" width="3.03" height="28.13"/><rect class="cls-4" x="80.45" y="314" width="3.03" height="28.13"/><polygon class="cls-21" points="0 324.99 0 311 2.75 311 2.75 323.62 0 324.99"/><rect class="cls-16" x="9.65" y="337.75" width="13.89" height="1.82"/><g class="cls-22"><path class="cls-23" d="M26.18,234.86a8.76,8.76,0,0,0-3.59,1.3c-2.44,1.45-4.71,4.2-6.77,7.85l1.68,1.37A18.31,18.31,0,0,1,23,239.62a8.8,8.8,0,0,1,3.6-1.3Z"/></g></g></svg>