<svg id="Layer_1" data-name="Layer 1" xmlns="http://www.w3.org/2000/svg" xmlns:xlink="http://www.w3.org/1999/xlink" viewBox="0 0 104 132"><defs><style>.cls-1{fill:url(#linear-gradient);}.cls-2{fill:#fff;}.cls-3{fill:#897d81;}.cls-4{fill:#d6d0d3;}</style><linearGradient id="linear-gradient" x1="52.03" y1="125.54" x2="52.03" y2="6.46" gradientUnits="userSpaceOnUse"><stop offset="0.01" stop-color="#897d81"/><stop offset="0.28" stop-color="#a08b90"/><stop offset="1" stop-color="#d9aeb5"/></linearGradient></defs><title>house_new</title><rect class="cls-1" x="6.39" y="6.46" width="91.29" height="119.08"/><rect class="cls-2" x="3.23" y="125.54" width="97.53" height="6.46"/><rect class="cls-2" x="-62.77" y="62.77" width="132" height="6.47" transform="translate(69.23 62.77) rotate(90)"/><polygon class="cls-3" points="97.53 10.04 97.53 6.46 6.39 6.46 6.39 10.04 93.94 10.04 93.94 47.58 6.39 47.58 6.39 51.16 93.94 51.16 93.94 88.7 6.39 88.7 6.39 92.28 93.94 92.28 93.94 125.54 97.52 125.54 97.52 92.28 97.53 92.28 97.53 88.7 97.52 88.7 97.52 51.16 97.53 51.16 97.53 47.58 97.52 47.58 97.52 10.04 97.53 10.04"/><rect class="cls-2" x="-13.84" y="64.54" width="131.69" height="3.23" transform="translate(118.16 14.16) rotate(90)"/><rect class="cls-2" x="3.88" y="85.47" width="96.3" height="3.23"/><rect class="cls-2" x="3.88" y="44.35" width="96.3" height="3.23"/><polygon class="cls-4" points="97.53 0 0 0 0 6.46 97.53 6.46 97.53 132 104 132 104 6.46 104 0 97.53 0"/></svg>