<svg id="Layer_1" data-name="Layer 1" xmlns="http://www.w3.org/2000/svg" xmlns:xlink="http://www.w3.org/1999/xlink" viewBox="0 0 104 132"><defs><style>.cls-1{fill:url(#linear-gradient);}.cls-2{fill:#fff;}.cls-3{fill:#897d81;}.cls-4{fill:#d6d0d3;}.cls-5{fill:#35363a;}</style><linearGradient id="linear-gradient" x1="52.03" y1="26.37" x2="52.03" y2="6.46" gradientUnits="userSpaceOnUse"><stop offset="0.01" stop-color="#897d81"/><stop offset="0.28" stop-color="#a08b90"/><stop offset="1" stop-color="#d9aeb5"/></linearGradient></defs><title>house_new</title><rect class="cls-1" x="6.39" y="6.46" width="91.29" height="19.9"/><rect class="cls-2" x="3.23" y="125.54" width="97.53" height="6.46"/><rect class="cls-2" x="-62.77" y="62.77" width="132" height="6.47" transform="translate(69.23 62.77) rotate(90)"/><polygon class="cls-3" points="97.53 6.46 6.39 6.46 6.39 10.04 93.94 10.04 93.94 26.37 6.39 26.37 6.39 29.95 93.94 29.95 93.94 125.54 97.52 125.54 97.52 92.28 97.53 6.46"/><rect class="cls-2" x="3.88" y="23.14" width="96.3" height="3.23"/><rect class="cls-2" x="42.89" y="13.99" width="18.29" height="3.23" transform="translate(67.64 -36.42) rotate(90)"/><polygon class="cls-4" points="97.53 0 0 0 0 6.46 97.53 6.46 97.53 132 104 132 104 6.46 104 0 97.53 0"/><rect class="cls-5" x="6.61" y="29.95" width="87.55" height="95.59"/></svg>