<svg id="Layer_1" data-name="Layer 1" xmlns="http://www.w3.org/2000/svg" xmlns:xlink="http://www.w3.org/1999/xlink" viewBox="0 0 2048 1280"><defs><style>.cls-1{fill:#4bc4f9;}.cls-1,.cls-10,.cls-14,.cls-18,.cls-20,.cls-21,.cls-23,.cls-3,.cls-5,.cls-8,.cls-9{isolation:isolate;}.cls-2{opacity:0.67;}.cls-12,.cls-3,.cls-9{fill:#3b86cf;}.cls-17,.cls-3,.cls-5{opacity:0.6;}.cls-22,.cls-4{opacity:0.34;}.cls-4{fill:url(#linear-gradient);}.cls-5{fill:#4699d7;}.cls-6{fill:#a7704a;}.cls-7{opacity:0.8;}.cls-8{fill:#97cf4e;}.cls-10,.cls-23,.cls-8,.cls-9{opacity:0.7;}.cls-10{fill:#2f74c8;}.cls-11{opacity:0.5;}.cls-13{fill:#3c8ed3;}.cls-14{fill:#78c8ff;opacity:0.05;}.cls-15,.cls-18,.cls-20{fill:#4ca3db;}.cls-16{fill:none;stroke:#4ca3db;stroke-miterlimit:10;stroke-width:5px;}.cls-18{opacity:0.57;}.cls-19{fill:#48b1e0;}.cls-20{opacity:0.6;}.cls-21{fill:#58c7ed;opacity:0.62;}.cls-22{fill:url(#linear-gradient-2);}</style><linearGradient id="linear-gradient" x1="1024.58" y1="1056.99" x2="1024.58" y2="249.72" gradientUnits="userSpaceOnUse"><stop offset="0" stop-color="#ffcd37" stop-opacity="0"/><stop offset="0.45" stop-color="#ffcd37" stop-opacity="0.48"/><stop offset="0.83" stop-color="#ffcd37" stop-opacity="0.85"/><stop offset="1" stop-color="#ffcd37"/></linearGradient><linearGradient id="linear-gradient-2" x1="1206.36" y1="980.94" x2="1206.36" y2="764.14" gradientTransform="translate(846.79 -737.63) rotate(45)" xlink:href="#linear-gradient"/></defs><title>bg_intro</title><rect class="cls-1" width="2048" height="1280"/><g class="cls-2"><polygon class="cls-3" points="1210.03 308.12 1052.95 308.12 638.66 308.12 638.66 713.92 1052.95 713.92 1210.03 713.92 1408.08 713.92 1408.08 308.12 1210.03 308.12"/></g><g class="cls-2"><polygon class="cls-3" points="1200.86 327.92 1052.23 327.92 660.18 327.92 660.18 693.28 1052.23 693.28 1200.86 693.28 1388.28 693.28 1388.28 327.92 1200.86 327.92"/></g><polygon class="cls-4" points="741.79 249.72 598.27 1056.99 1029.71 1056.99 1450.88 1056.99 1306.77 249.72 741.79 249.72"/><rect class="cls-5" x="589.28" y="1056.99" width="852.61" height="19.91" rx="5.87" ry="5.87"/><path class="cls-6" d="M1489.41,548.68l5.63-4A10.63,10.63,0,0,0,1489.41,548.68Z"/><g class="cls-7"><path class="cls-8" d="M992.65,755.75h87.42a4.82,4.82,0,0,1,4.82,4.82h0a4.82,4.82,0,0,1-4.82,4.82H992.65a4.82,4.82,0,0,1-4.82-4.82h0a4.82,4.82,0,0,1,4.82-4.82Z"/><rect class="cls-9" x="737.07" y="765.21" width="572.6" height="27.76"/><rect class="cls-9" x="752.37" y="792.98" width="26.27" height="264.01"/><polygon class="cls-10" points="778.65 824.86 752.37 810.75 752.37 792.98 778.65 792.98 778.65 824.86"/><rect class="cls-9" x="1265.33" y="792.98" width="26.27" height="264.01"/><polygon class="cls-10" points="1291.6 824.86 1265.33 810.75 1265.33 792.98 1291.6 792.98 1291.6 824.86"/></g><g class="cls-11"><rect class="cls-12" x="292.65" y="258.12" width="249.8" height="19.5"/><rect class="cls-12" x="292.65" y="230.22" width="249.8" height="19.5"/><rect class="cls-12" x="292.65" y="286.03" width="249.8" height="19.5"/><rect class="cls-12" x="292.65" y="313.93" width="249.8" height="19.5"/><rect class="cls-12" x="292.65" y="341.83" width="249.8" height="19.5"/><rect class="cls-12" x="292.65" y="369.51" width="249.8" height="15.5"/><rect class="cls-12" x="292.65" y="397.41" width="249.8" height="14.5"/><rect class="cls-12" x="292.65" y="425.32" width="249.8" height="12.5"/><polygon class="cls-12" points="542.46 476.72 292.64 461.72 292.64 453.22 542.46 468.22 542.46 476.72"/><polygon class="cls-12" points="542.46 504.46 292.64 489.46 292.64 480.96 542.46 495.96 542.46 504.46"/><polygon class="cls-12" points="542.46 532.36 292.64 517.36 292.64 508.86 542.46 523.86 542.46 532.36"/><polygon class="cls-12" points="542.46 560.27 292.64 545.27 292.64 536.77 542.46 551.77 542.46 560.27"/><polygon class="cls-12" points="542.46 587.94 292.64 572.94 292.64 564.44 542.46 579.44 542.46 587.94"/><polygon class="cls-12" points="542.46 615.84 292.64 600.84 292.64 592.35 542.46 607.35 542.46 615.84"/><polygon class="cls-12" points="542.46 643.75 292.64 628.75 292.64 620.25 542.46 635.25 542.46 643.75"/><rect class="cls-12" x="555.27" y="216.35" width="5.34" height="362.12"/><rect class="cls-12" x="551.52" y="571.76" width="13.02" height="41.18"/><rect class="cls-12" x="279.24" y="203.1" width="291.88" height="20.62"/></g><g class="cls-11"><rect class="cls-12" x="1490.31" y="258.12" width="249.8" height="19.5"/><rect class="cls-12" x="1490.31" y="230.22" width="249.8" height="19.5"/><rect class="cls-12" x="1490.31" y="286.03" width="249.8" height="19.5"/><rect class="cls-12" x="1490.31" y="313.93" width="249.8" height="19.5"/><rect class="cls-12" x="1490.31" y="341.83" width="249.8" height="19.5"/><rect class="cls-12" x="1490.31" y="369.51" width="249.8" height="15.5"/><rect class="cls-12" x="1490.31" y="397.41" width="249.8" height="14.5"/><rect class="cls-12" x="1490.31" y="425.32" width="249.8" height="12.5"/><polygon class="cls-12" points="1740.11 476.72 1490.31 461.72 1490.31 453.22 1740.11 468.22 1740.11 476.72"/><polygon class="cls-12" points="1740.11 504.46 1490.31 489.46 1490.31 480.96 1740.11 495.96 1740.11 504.46"/><polygon class="cls-12" points="1740.11 532.36 1490.31 517.36 1490.31 508.86 1740.11 523.86 1740.11 532.36"/><polygon class="cls-12" points="1740.11 560.27 1490.31 545.27 1490.31 536.77 1740.11 551.77 1740.11 560.27"/><polygon class="cls-12" points="1740.11 587.94 1490.31 572.94 1490.31 564.44 1740.11 579.44 1740.11 587.94"/><polygon class="cls-12" points="1740.11 615.84 1490.31 600.84 1490.31 592.35 1740.11 607.35 1740.11 615.84"/><polygon class="cls-12" points="1740.11 643.75 1490.31 628.75 1490.31 620.25 1740.11 635.25 1740.11 643.75"/><rect class="cls-12" x="1752.93" y="216.35" width="5.34" height="362.12"/><rect class="cls-12" x="1749.18" y="571.76" width="13.02" height="41.18"/><rect class="cls-12" x="1476.89" y="203.1" width="291.88" height="20.62"/></g><path class="cls-3" d="M963.19,757.22h0a8.25,8.25,0,0,1,8.24,8.25v58.19a8.25,8.25,0,0,1-8.24,8.25h0a8.25,8.25,0,0,1-8.24-8.25V765.47A8.25,8.25,0,0,1,963.19,757.22Z"/><path class="cls-3" d="M1025.19,757.22h0a8.25,8.25,0,0,1,8.24,8.25v58.19a8.25,8.25,0,0,1-8.24,8.25h0a8.25,8.25,0,0,1-8.24-8.25V765.47A8.25,8.25,0,0,1,1025.19,757.22Z"/><rect class="cls-3" x="1074.41" y="757.22" width="16.49" height="74.69"/><path class="cls-13" d="M1133.07,853A10.06,10.06,0,0,1,1123,863.06H925a10.06,10.06,0,0,1-10.08-10h0a25.8,25.8,0,0,1,25.8-25.8h166.54A25.8,25.8,0,0,1,1133.07,853Z"/><path class="cls-13" d="M931.95,839h166.54a25.81,25.81,0,0,1,24.64,18.14,10,10,0,0,0,1.16-4.68,25.8,25.8,0,0,0-25.8-25.8H931.95a25.8,25.8,0,0,0-25.8,25.8,10,10,0,0,0,1.16,4.68A25.81,25.81,0,0,1,931.95,839Z"/><path class="cls-12" d="M1123.67,863.11H924.33A27.32,27.32,0,0,0,930.19,880a7.87,7.87,0,0,0-.37,2.39V1049a8,8,0,0,0,7.94,7.94h3.43a8,8,0,0,0,7.94-7.94V890.43a26.23,26.23,0,0,0,2.67.13h145.52V1049a8,8,0,0,0,7.87,8h3.43a8,8,0,0,0,7.94-7.94V882.42a8,8,0,0,0,0-.87A27.35,27.35,0,0,0,1123.67,863.11Z"/><path class="cls-14" d="M1099.17,626.86a19.61,19.61,0,0,0-19.61-19.61H950.88a19.61,19.61,0,0,0-19.61,19.61V653.3a19.61,19.61,0,0,1,19.61-19.61h128.68a19.61,19.61,0,0,1,19.61,19.61Z"/><rect class="cls-15" x="806.91" y="725.2" width="39.89" height="33.02" rx="7" ry="7"/><rect class="cls-15" x="794.2" y="758.21" width="65.49" height="4.19" rx="2.09" ry="2.09"/><rect class="cls-15" x="810.83" y="761.45" width="33.24" height="3.93" rx="1.57" ry="1.57"/><rect class="cls-16" x="794.2" y="733.48" width="25.94" height="16.12" rx="7" ry="7"/><g class="cls-17"><rect class="cls-12" x="311.65" y="673.71" width="218.03" height="324.21"/><rect class="cls-18" x="319.88" y="684.1" width="95" height="95"/><rect class="cls-18" x="426.13" y="684.1" width="95" height="95"/><rect class="cls-18" x="319.88" y="788.32" width="95" height="95"/><rect class="cls-18" x="426.13" y="788.32" width="95" height="95"/><rect class="cls-18" x="319.88" y="892.17" width="95" height="95"/><rect class="cls-18" x="426.13" y="892.17" width="95" height="95"/><rect class="cls-12" x="311.65" y="997.92" width="15.11" height="60.4"/><rect class="cls-12" x="514.57" y="997.92" width="15.11" height="60.4"/><rect class="cls-5" x="302.8" y="1058.32" width="235.45" height="18.58" rx="7" ry="7"/><path class="cls-19" d="M353.76,741.54h26.06a4,4,0,0,1,4,4h0a4,4,0,0,1-4,4H353.76a4,4,0,0,1-4-4h0A4,4,0,0,1,353.76,741.54Z"/><path class="cls-19" d="M460.79,741.7H487a4,4,0,0,1,4,4h0a4,4,0,0,1-4,4H460.79a4,4,0,0,1-4-4h0A4,4,0,0,1,460.79,741.7Z"/><path class="cls-19" d="M353.76,853.13h26.06a4,4,0,0,1,4,4h0a4,4,0,0,1-4,4H353.76a4,4,0,0,1-4-4h0A4,4,0,0,1,353.76,853.13Z"/><path class="cls-19" d="M460.79,853.29H487a4,4,0,0,1,4,4h0a4,4,0,0,1-4,4H460.79a4,4,0,0,1-4-4h0A4,4,0,0,1,460.79,853.29Z"/><path class="cls-19" d="M353.76,955.72h26.06a4,4,0,0,1,4,4h0a4,4,0,0,1-4,4H353.76a4,4,0,0,1-4-4h0A4,4,0,0,1,353.76,955.72Z"/><path class="cls-19" d="M460.79,955.89H487a4,4,0,0,1,4,4h0a4,4,0,0,1-4,4H460.79a4,4,0,0,1-4-4h0A4,4,0,0,1,460.79,955.89Z"/></g><g class="cls-17"><rect class="cls-12" x="1511.09" y="673.71" width="218.03" height="324.21"/><rect class="cls-18" x="1519.33" y="684.1" width="95" height="95"/><rect class="cls-18" x="1625.58" y="684.1" width="95" height="95"/><rect class="cls-18" x="1519.33" y="788.32" width="95" height="95"/><rect class="cls-18" x="1625.58" y="788.32" width="95" height="95"/><rect class="cls-18" x="1519.33" y="892.17" width="95" height="95"/><rect class="cls-18" x="1625.58" y="892.17" width="95" height="95"/><rect class="cls-12" x="1511.09" y="997.92" width="15.11" height="60.4"/><rect class="cls-12" x="1714.02" y="997.92" width="15.11" height="60.4"/><rect class="cls-5" x="1502.24" y="1058.32" width="235.45" height="18.58" rx="7" ry="7"/><path class="cls-19" d="M1553.21,741.54h26.06a4,4,0,0,1,4,4h0a4,4,0,0,1-4,4h-26.06a4,4,0,0,1-4-4h0A4,4,0,0,1,1553.21,741.54Z"/><path class="cls-19" d="M1660.23,741.7h26.17a4,4,0,0,1,3.95,4h0a4,4,0,0,1-3.95,4h-26.22a4,4,0,0,1-3.95-4h0A4,4,0,0,1,1660.23,741.7Z"/><path class="cls-19" d="M1553.21,853.13h26.06a4,4,0,0,1,4,4h0a4,4,0,0,1-4,4h-26.06a4,4,0,0,1-4-4h0A4,4,0,0,1,1553.21,853.13Z"/><path class="cls-19" d="M1660.23,853.29h26.17a4,4,0,0,1,3.95,4h0a4,4,0,0,1-3.95,4h-26.22a4,4,0,0,1-3.95-4h0A4,4,0,0,1,1660.23,853.29Z"/><path class="cls-19" d="M1553.21,955.72h26.06a4,4,0,0,1,4,4h0a4,4,0,0,1-4,4h-26.06a4,4,0,0,1-4-4h0A4,4,0,0,1,1553.21,955.72Z"/><path class="cls-19" d="M1660.23,955.89h26.17a4,4,0,0,1,3.95,4h0a4,4,0,0,1-3.95,4h-26.22a4,4,0,0,1-3.95-4h0A4,4,0,0,1,1660.23,955.89Z"/></g><rect class="cls-20" x="704.63" y="213.41" width="640.47" height="36.31" rx="7" ry="7"/><rect class="cls-21" x="973.38" y="347.96" width="103" height="103"/><rect class="cls-21" x="723.79" y="470.99" width="103" height="103"/><rect class="cls-21" x="879.92" y="470.99" width="103" height="103"/><rect class="cls-21" x="1223.73" y="470.99" width="103" height="103"/><rect class="cls-21" x="1066.73" y="470.99" width="103" height="103"/><rect class="cls-21" x="727.99" y="382.41" width="182.67" height="41.38"/><rect class="cls-21" x="724.88" y="632.71" width="131.79" height="41.38"/><rect class="cls-21" x="1139.07" y="382.41" width="182.67" height="41.38"/><rect class="cls-21" x="1265.76" y="624.97" width="59.66" height="41.38"/><polygon class="cls-22" points="1146.48 642.72 962.64 765.47 1105.5 765.21 1136.92 765.39 1191.23 687.47 1146.48 642.72"/><g class="cls-23"><path class="cls-12" d="M1214.67,619a12.6,12.6,0,0,0-11.63,7.71l-1.29,3.06,6.12,2.59,1.29-3.06a6,6,0,0,1,11.44,1.54l6.59-.86A12.65,12.65,0,0,0,1214.67,619Z"/><path class="cls-12" d="M1206.11,628a14,14,0,0,0-19.83,0l-8.82,8.83,19.81,19.82,8.85-8.83A14,14,0,0,0,1206.11,628Z"/><path class="cls-12" d="M1200.59,653.36l-19.82-19.82a33.65,33.65,0,0,0-35.69,7.63L1193,689A33.66,33.66,0,0,0,1200.59,653.36Z"/><path class="cls-12" d="M1231.92,627.52a3.32,3.32,0,0,0-4.26-2l-9.67,3.52a3.32,3.32,0,0,0-2,4.26l20.27,55.7-22.15,60.84a3.32,3.32,0,0,0,3.06,4.46l10.88.2h.06a3.32,3.32,0,0,0,3.12-2.18l21.36-58.7V684.4Zm-6.09,120.3-3.85-.07,19.87-54.6,3.41,1.29Zm16-63-18.46-50.71,3.43-1.25,18.44,50.67Z"/><path class="cls-12" d="M1235.15,689a10.26,10.26,0,1,0,10.26-10.26A10.25,10.25,0,0,0,1235.15,689Z"/><path class="cls-12" d="M1197.3,733.76a3.32,3.32,0,0,0-3.32,3.32V751h6.64V737.08A3.32,3.32,0,0,0,1197.3,733.76Z"/><polygon class="cls-12" points="1175.46 744.55 1162.07 762.48 1244.18 762.48 1244.18 744.55 1175.46 744.55"/><path class="cls-12" d="M1244.13,765.8h-82a3.32,3.32,0,1,1,0-6.64h82a3.32,3.32,0,1,1,0,6.64Z"/></g><rect class="cls-12" x="940.05" y="607.25" width="167.9" height="188.02" rx="21.11" ry="21.11"/></svg>