<svg id="Layer_1" data-name="Layer 1" xmlns="http://www.w3.org/2000/svg" viewBox="0 0 2048 1280"><defs><style>.cls-1{fill:#4ca3db;}.cls-2{fill:#05386b;opacity:0.36;}.cls-3{opacity:0.5;}.cls-4{fill:#e5e6e8;stroke:#e5e6e8;stroke-width:7.12px;}.cls-15,.cls-4{stroke-miterlimit:10;}.cls-5{fill:#fff;}.cls-6{fill:#b7b8ba;}.cls-7{fill:#fdfbfd;}.cls-8{fill:#11537c;}.cls-9{fill:#0f375c;}.cls-10{fill:#edead4;}.cls-11{fill:#fec260;}.cls-12{fill:#e0decd;}.cls-13{fill:#efeed8;}.cls-14{fill:#fdfde2;}.cls-15{fill:none;stroke:#b2b2b2;stroke-width:1.79px;}.cls-16,.cls-17{fill:#3c3c3b;}.cls-16{opacity:0.2;}.cls-17{opacity:0.05;}</style></defs><title>Xudoznik_game [Recovered]</title><rect class="cls-1" width="2048" height="1280"/><rect class="cls-2" width="2048" height="1280"/><g class="cls-3"><path class="cls-4" d="M1107.81,336.31a132.53,132.53,0,0,1-1.38,19,131,131,0,0,1-129.63,112c-1.9,0-3.78-.05-5.66-.13a131,131,0,1,1,136.67-130.88Z"/><path class="cls-5" d="M976.8,201.54C902.48,201.54,842,262,842,336.31A134.4,134.4,0,0,0,971,470.95c1.4.05,2.8.1,4.21.1l-3.83-3.86-4-4a126.88,126.88,0,0,1-117.89-126.9c0-70.16,57.09-127.25,127.28-127.25a127.4,127.4,0,0,1,127.25,127.25,125.14,125.14,0,0,1-.93,15.3l3.35,3.35,3.28,3.28c.15-.78.25-1.55.38-2.35a135.36,135.36,0,0,0,1.43-19.58C1111.56,262,1051.12,201.54,976.8,201.54Z"/><path class="cls-6" d="M1103.12,351.61c-.1,1.05-.25,2.13-.4,3.18-9,62-63.15,108.77-125.92,108.77-1.85,0-3.68-.05-5.51-.13-1.3-.05-2.6-.13-3.88-.23L852.1,346.8,1038.32,287Z"/><path class="cls-7" d="M856.51,326.42h43.58a1.77,1.77,0,0,1,1.77,1.77v18.49a.13.13,0,0,1-.13.13H856.25a10.07,10.07,0,0,1-10.07-10.07v0a10.32,10.32,0,0,1,10.32-10.32Z"/><circle class="cls-7" cx="976.79" cy="336.31" r="78.49"/><path class="cls-8" d="M1041.55,336.31a64.8,64.8,0,1,1-7-29.35A64.77,64.77,0,0,1,1041.55,336.31Z"/><path class="cls-9" d="M1041.55,336.31a64.75,64.75,0,0,1-115,40.81,64.75,64.75,0,0,1,108-70.16A64.23,64.23,0,0,1,1041.55,336.31Z"/></g><g class="cls-3"><ellipse class="cls-10" cx="641.19" cy="737.53" rx="5.66" ry="4.56" transform="matrix(0.27, -0.96, 0.96, 0.27, -241.87, 1156.2)"/><rect class="cls-10" x="727.28" y="403.85" width="9.69" height="17.62" transform="translate(137.4 1006.47) rotate(-74.36)"/><path class="cls-5" d="M744.35,390a6.84,6.84,0,0,0-.22-4.5,4.42,4.42,0,0,0-2.84-2.63l-2-.55a4.43,4.43,0,0,0-3.79.78,6.84,6.84,0,0,0-2.52,3.73l-5.46,19.52,11.33,3.17Z"/><path class="cls-5" d="M645.59,738.76c3.06-3,6.41-7.19,7.85-12.32L657,713.7l-8.48-2.37L640,709l-3.57,12.74c-1.44,5.13-.76,10.46.31,14.6Z"/><path class="cls-9" d="M739.29,419.7l-8.48-2.37L722.33,415s-19.81,56.78-39.19,123.41l25.58,7.16C726.74,478.51,739.29,419.7,739.29,419.7Z"/><path class="cls-9" d="M677.18,559.24C656.13,634.44,640,709,640,709l8.48,2.37L657,713.7s24.93-72,46-147.24q1.85-6.59,3.63-13.13l-25.71-7.19Q679,552.64,677.18,559.24Z"/><path class="cls-10" d="M683.14,538.37q-1.12,3.86-2.24,7.76l25.71,7.19q1.07-3.91,2.11-7.8Z"/><path class="cls-10" d="M717.12,538.48a4.5,4.5,0,0,1-3-2.69c-1.55-3.64.12-9.58,4.17-23.93l1.43-5.08C725.49,486,738,451.89,744.89,436.4a12.85,12.85,0,0,0,1-8.62c-1.47-5.77-7.32-9.76-9.46-10.81a3,3,0,0,1-1-3.86,2.58,2.58,0,0,1,3.35-1.7c.39.19,9.55,4.8,11.91,14.05a20,20,0,0,1-1.44,13.27c-6.65,15-19.21,49.23-24.85,69.36l-1.43,5.1c-2.72,9.65-5.07,18-4.38,19.43a2.85,2.85,0,0,1,1.63,3.59C719.73,537.81,718.41,538.85,717.12,538.48Z"/></g><g class="cls-3"><rect class="cls-11" x="925.74" y="574.83" width="402.72" height="434.35" rx="5.78" ry="5.78" transform="translate(890.15 -565.01) rotate(45)"/><path class="cls-11" d="M1215.08,643.32,1107.14,535.38a5.78,5.78,0,0,1,0-8.18l46.48-46.48a5.8,5.8,0,0,1,8.18,0L1246,564.95c2.64,2.64,3.06,5.14,2.06,9.7a5.92,5.92,0,0,1-.17.62l-22.37,66.15a5.65,5.65,0,0,1-4.2,3.79A7,7,0,0,1,1215.08,643.32Z"/><rect class="cls-12" x="954.69" y="594.52" width="349.84" height="399.99" rx="5.54" ry="5.54" transform="translate(892.66 -566.05) rotate(45)"/><rect class="cls-13" x="948.76" y="588.59" width="349.84" height="399.99" rx="5.54" ry="5.54" transform="translate(886.73 -563.59) rotate(45)"/><rect class="cls-14" x="950.16" y="585.21" width="340.29" height="399.99" rx="5.47" ry="5.47" transform="translate(883.35 -562.19) rotate(45)"/><rect class="cls-15" x="1302.39" y="659.6" width="14.49" height="50.81" rx="6.17" ry="6.17" transform="translate(867.95 -725.42) rotate(45)"/><rect class="cls-16" x="1129.23" y="557.52" width="38.18" height="28.26" transform="translate(740.55 -644.56) rotate(45)"/><rect class="cls-16" x="1136.39" y="680.3" width="245" height="2.91" transform="translate(850.8 -690.48) rotate(45)"/><rect class="cls-11" x="925.74" y="574.83" width="402.72" height="434.35" rx="5.78" ry="5.78" transform="translate(890.15 -565.01) rotate(45)"/><path class="cls-11" d="M1215.08,643.32,1107.14,535.38a5.78,5.78,0,0,1,0-8.18l46.48-46.48a5.8,5.8,0,0,1,8.18,0L1246,564.95c2.64,2.64,3.06,5.14,2.06,9.7a5.92,5.92,0,0,1-.17.62l-22.37,66.15a5.65,5.65,0,0,1-4.2,3.79A7,7,0,0,1,1215.08,643.32Z"/><rect class="cls-12" x="954.69" y="594.52" width="349.84" height="399.99" rx="5.54" ry="5.54" transform="translate(892.66 -566.05) rotate(45)"/><rect class="cls-13" x="948.76" y="588.59" width="349.84" height="399.99" rx="5.54" ry="5.54" transform="translate(886.73 -563.59) rotate(45)"/><rect class="cls-14" x="950.16" y="585.21" width="340.29" height="399.99" rx="5.47" ry="5.47" transform="translate(883.35 -562.19) rotate(45)"/><rect class="cls-15" x="1302.39" y="659.6" width="14.49" height="50.81" rx="6.17" ry="6.17" transform="translate(867.95 -725.42) rotate(45)"/><rect class="cls-16" x="1129.23" y="557.52" width="38.18" height="28.26" transform="translate(740.55 -644.56) rotate(45)"/><rect class="cls-16" x="1136.39" y="680.3" width="245" height="2.91" transform="translate(850.8 -690.48) rotate(45)"/><rect class="cls-17" x="1011.65" y="740.88" width="305.68" height="13.8" transform="translate(869.83 -604.4) rotate(45)"/><rect class="cls-17" x="1036.23" y="716.3" width="305.68" height="13.8" transform="translate(859.65 -628.98) rotate(45)"/><rect class="cls-17" x="1060.81" y="691.72" width="305.68" height="13.8" transform="translate(849.47 -653.56) rotate(45)"/><rect class="cls-17" x="934.73" y="817.8" width="305.68" height="13.8" transform="translate(901.69 -527.48) rotate(45)"/><rect class="cls-17" x="959.31" y="793.22" width="305.68" height="13.8" transform="translate(891.51 -552.06) rotate(45)"/><rect class="cls-17" x="983.89" y="768.64" width="305.68" height="13.8" transform="translate(881.33 -576.64) rotate(45)"/><rect class="cls-17" x="861.66" y="890.87" width="305.68" height="13.8" transform="translate(931.96 -454.41) rotate(45)"/><rect class="cls-17" x="886.24" y="866.29" width="305.68" height="13.8" transform="translate(921.78 -478.99) rotate(45)"/><rect class="cls-17" x="910.82" y="841.71" width="305.68" height="13.8" transform="translate(911.59 -503.57) rotate(45)"/></g></svg>