<svg id="Layer_1" data-name="Layer 1" xmlns="http://www.w3.org/2000/svg" xmlns:xlink="http://www.w3.org/1999/xlink" viewBox="0 0 1036.94 1280"><defs><style>.cls-1{fill:none;}.cls-2{clip-path:url(#clip-path);}.cls-3{fill:#5baaec;}.cls-4{fill:#3d7aad;}.cls-17,.cls-18,.cls-21,.cls-22,.cls-23,.cls-5{opacity:0.16;}.cls-5{fill:url(#linear-gradient);}.cls-6{fill:#468ec9;}.cls-7{opacity:0.6;fill:url(#linear-gradient-2);}.cls-8{clip-path:url(#clip-path-2);}.cls-16,.cls-20,.cls-9{opacity:0.2;}.cls-10{fill:#67b7f9;}.cls-11{fill:#80cfff;}.cls-12{opacity:0.1;fill:url(#linear-gradient-3);}.cls-13{fill:#175e92;}.cls-14{fill:#4b9bd1;}.cls-15,.cls-24{fill:#93d7ff;}.cls-16{fill:url(#linear-gradient-4);}.cls-17{fill:url(#linear-gradient-5);}.cls-18{fill:url(#linear-gradient-6);}.cls-19{opacity:0.4;fill:url(#linear-gradient-7);}.cls-20{fill:url(#linear-gradient-8);}.cls-21{fill:url(#linear-gradient-9);}.cls-22{fill:url(#linear-gradient-10);}.cls-23{fill:url(#linear-gradient-11);}.cls-24{opacity:0.44;}</style><clipPath id="clip-path"><rect class="cls-1" x="-2.78" y="-2.34" width="1039.98" height="1283"/></clipPath><linearGradient id="linear-gradient" x1="-2024.35" y1="-9073.47" x2="-1651.24" y2="-9073.47" gradientTransform="translate(1837.16 10170.57)" gradientUnits="userSpaceOnUse"><stop offset="0" stop-color="#fff" stop-opacity="0"/><stop offset="0.14" stop-color="#ced6e7" stop-opacity="0.23"/><stop offset="0.33" stop-color="#94a4ca" stop-opacity="0.5"/><stop offset="0.51" stop-color="#667db3" stop-opacity="0.72"/><stop offset="0.69" stop-color="#4562a3" stop-opacity="0.87"/><stop offset="0.86" stop-color="#315199" stop-opacity="0.97"/><stop offset="1" stop-color="#2a4b96"/></linearGradient><linearGradient id="linear-gradient-2" x1="-2.66" y1="906.87" x2="-2.66" gradientUnits="userSpaceOnUse"><stop offset="0" stop-color="#fff" stop-opacity="0.1"/><stop offset="0.11" stop-color="#e0effb" stop-opacity="0.27"/><stop offset="0.28" stop-color="#b8daf7" stop-opacity="0.49"/><stop offset="0.44" stop-color="#96c9f3" stop-opacity="0.67"/><stop offset="0.6" stop-color="#7dbbf0" stop-opacity="0.82"/><stop offset="0.75" stop-color="#6ab2ee" stop-opacity="0.92"/><stop offset="0.88" stop-color="#5facec" stop-opacity="0.98"/><stop offset="1" stop-color="#5baaec"/></linearGradient><clipPath id="clip-path-2"><rect class="cls-1" x="-1042.25" width="2079.19" height="879.87"/></clipPath><linearGradient id="linear-gradient-3" x1="-2028.38" y1="-9071.78" x2="-1655.27" y2="-9071.78" gradientTransform="translate(1839.51 10164.85)" gradientUnits="userSpaceOnUse"><stop offset="0" stop-color="#fff"/><stop offset="1"/></linearGradient><linearGradient id="linear-gradient-4" x1="791.88" y1="794.15" x2="791.88" y2="641.38" gradientUnits="userSpaceOnUse"><stop offset="0" stop-color="#fff" stop-opacity="0"/><stop offset="0.15" stop-color="#fff" stop-opacity="0.16"/><stop offset="0.57" stop-color="#fff" stop-opacity="0.61"/><stop offset="0.87" stop-color="#fff" stop-opacity="0.89"/><stop offset="1" stop-color="#fff"/></linearGradient><linearGradient id="linear-gradient-5" x1="567.21" y1="794.15" x2="567.21" y2="641.38" gradientUnits="userSpaceOnUse"><stop offset="0" stop-color="#fff" stop-opacity="0"/><stop offset="1" stop-color="#2a4b96"/></linearGradient><linearGradient id="linear-gradient-6" x1="800.07" y1="794.15" x2="800.07" y2="641.38" xlink:href="#linear-gradient-5"/><linearGradient id="linear-gradient-7" x1="411.38" y1="882.04" x2="411.38" y2="712.15" xlink:href="#linear-gradient-4"/><linearGradient id="linear-gradient-8" x1="940.04" y1="882.04" x2="940.04" y2="712.15" xlink:href="#linear-gradient-4"/><linearGradient id="linear-gradient-9" x1="944.67" y1="882.04" x2="944.67" y2="712.15" xlink:href="#linear-gradient-5"/><linearGradient id="linear-gradient-10" x1="417.07" y1="882.04" x2="417.07" y2="712.15" xlink:href="#linear-gradient-5"/><linearGradient id="linear-gradient-11" x1="178.69" y1="922.46" x2="178.69" y2="518.5" xlink:href="#linear-gradient-5"/></defs><title>room_ellements</title><g class="cls-2"><rect class="cls-3" x="-1042.25" y="0.66" width="2079.19" height="1280"/><rect class="cls-4" x="-1042.25" y="906.87" width="2079.19" height="373.79"/><rect class="cls-5" x="-187.19" y="58.52" width="373.11" height="2077.17" transform="translate(1096.47 1097.73) rotate(90)"/><rect class="cls-4" x="-0.46" y="1154.99" width="347.87" height="62.03"/><rect class="cls-6" x="345.6" y="1154.99" width="347.87" height="62.03"/><rect class="cls-4" x="693.47" y="1154.99" width="343.47" height="62.03"/><rect class="cls-6" x="-174.39" y="1217.02" width="347.87" height="62.03"/><rect class="cls-4" x="173.48" y="1217.02" width="347.87" height="62.03"/><rect class="cls-6" x="519.54" y="1217.02" width="347.87" height="62.03"/><rect class="cls-4" x="867.41" y="1217.02" width="169.53" height="62.03"/><rect class="cls-4" x="-0.46" y="906.87" width="347.87" height="62.03"/><rect class="cls-6" x="345.6" y="906.87" width="347.87" height="62.03"/><rect class="cls-4" x="693.47" y="906.87" width="343.49" height="62.03"/><rect class="cls-6" x="-174.39" y="968.9" width="347.87" height="62.03"/><rect class="cls-4" x="173.48" y="968.9" width="347.87" height="62.03"/><rect class="cls-6" x="519.54" y="968.9" width="347.87" height="62.03"/><rect class="cls-4" x="867.41" y="968.9" width="169.53" height="62.03"/><rect class="cls-6" x="-0.46" y="1030.93" width="347.87" height="62.03"/><rect class="cls-4" x="345.6" y="1030.93" width="347.87" height="62.03"/><rect class="cls-6" x="693.47" y="1030.93" width="343.47" height="62.03"/><rect class="cls-4" x="-174.39" y="1092.96" width="347.87" height="62.03"/><rect class="cls-6" x="173.48" y="1092.96" width="347.87" height="62.03"/><rect class="cls-4" x="519.54" y="1092.96" width="347.87" height="62.03"/><rect class="cls-6" x="867.41" y="1092.96" width="169.53" height="62.03"/><rect class="cls-7" x="-1042.25" width="2079.19" height="906.87"/><g class="cls-8"><g class="cls-9"><circle class="cls-6" cx="948.95" cy="781.91" r="25.45"/><circle class="cls-6" cx="948.95" cy="675.95" r="25.45"/><circle class="cls-6" cx="948.95" cy="569.99" r="25.45"/><circle class="cls-6" cx="948.95" cy="464.02" r="25.45"/><circle class="cls-6" cx="948.95" cy="358.06" r="25.45"/><circle class="cls-6" cx="948.95" cy="252.1" r="25.45"/><circle class="cls-6" cx="948.95" cy="146.13" r="25.45"/><circle class="cls-6" cx="948.95" cy="40.17" r="25.45"/><circle class="cls-6" cx="1006.82" cy="839.78" r="25.45"/><circle class="cls-6" cx="1006.82" cy="733.82" r="25.45"/><circle class="cls-6" cx="1006.82" cy="627.85" r="25.45"/><circle class="cls-6" cx="1006.82" cy="521.89" r="25.45"/><circle class="cls-6" cx="1006.82" cy="415.93" r="25.45"/><circle class="cls-6" cx="1006.82" cy="309.96" r="25.45"/><circle class="cls-6" cx="1006.82" cy="204" r="25.45"/><circle class="cls-6" cx="1006.82" cy="98.04" r="25.45"/><path class="cls-6" d="M814.83,784a25.45,25.45,0,1,1,23.29,23.31A25.45,25.45,0,0,1,814.83,784Z"/><path class="cls-6" d="M814.83,678a25.45,25.45,0,1,1,23.29,23.31A25.45,25.45,0,0,1,814.83,678Z"/><path class="cls-6" d="M814.83,572a25.45,25.45,0,1,1,23.29,23.31A25.45,25.45,0,0,1,814.83,572Z"/><path class="cls-6" d="M814.83,466.08a25.45,25.45,0,1,1,23.29,23.31A25.45,25.45,0,0,1,814.83,466.08Z"/><path class="cls-6" d="M814.83,360.12a25.45,25.45,0,1,1,23.29,23.31A25.45,25.45,0,0,1,814.83,360.12Z"/><path class="cls-6" d="M814.83,254.15a25.45,25.45,0,1,1,23.29,23.31A25.45,25.45,0,0,1,814.83,254.15Z"/><path class="cls-6" d="M814.83,148.19a25.45,25.45,0,1,1,23.29,23.31A25.45,25.45,0,0,1,814.83,148.19Z"/><path class="cls-6" d="M814.83,42.23a25.45,25.45,0,1,1,23.29,23.31A25.45,25.45,0,0,1,814.83,42.23Z"/><circle class="cls-6" cx="898.06" cy="839.78" r="25.45"/><circle class="cls-6" cx="898.06" cy="733.82" r="25.45"/><circle class="cls-6" cx="898.06" cy="627.85" r="25.45"/><circle class="cls-6" cx="898.06" cy="521.89" r="25.45"/><circle class="cls-6" cx="898.06" cy="415.93" r="25.45"/><circle class="cls-6" cx="898.06" cy="309.96" r="25.45"/><circle class="cls-6" cx="898.06" cy="204" r="25.45"/><circle class="cls-6" cx="898.06" cy="98.04" r="25.45"/><circle class="cls-6" cx="731.44" cy="781.91" r="25.45"/><circle class="cls-6" cx="731.44" cy="675.95" r="25.45"/><circle class="cls-6" cx="731.44" cy="569.99" r="25.45"/><circle class="cls-6" cx="731.44" cy="464.02" r="25.45"/><circle class="cls-6" cx="731.44" cy="358.06" r="25.45"/><circle class="cls-6" cx="731.44" cy="252.1" r="25.45"/><circle class="cls-6" cx="731.44" cy="146.13" r="25.45"/><circle class="cls-6" cx="731.44" cy="40.17" r="25.45"/><circle class="cls-6" cx="789.3" cy="839.78" r="25.45"/><circle class="cls-6" cx="789.3" cy="733.82" r="25.45"/><circle class="cls-6" cx="789.3" cy="627.85" r="25.45"/><circle class="cls-6" cx="789.3" cy="521.89" r="25.45"/><circle class="cls-6" cx="789.3" cy="415.93" r="25.45"/><circle class="cls-6" cx="789.3" cy="309.96" r="25.45"/><circle class="cls-6" cx="789.3" cy="204" r="25.45"/><circle class="cls-6" cx="789.3" cy="98.04" r="25.45"/><circle class="cls-6" cx="622.68" cy="781.91" r="25.45"/><circle class="cls-6" cx="622.68" cy="675.95" r="25.45"/><circle class="cls-6" cx="622.68" cy="569.99" r="25.45"/><circle class="cls-6" cx="622.68" cy="464.02" r="25.45"/><circle class="cls-6" cx="622.68" cy="358.06" r="25.45"/><circle class="cls-6" cx="622.68" cy="252.1" r="25.45"/><circle class="cls-6" cx="622.68" cy="146.13" r="25.45"/><circle class="cls-6" cx="622.68" cy="40.17" r="25.45"/><circle class="cls-6" cx="680.55" cy="839.78" r="25.45"/><circle class="cls-6" cx="680.55" cy="733.82" r="25.45"/><circle class="cls-6" cx="680.55" cy="627.85" r="25.45"/><circle class="cls-6" cx="680.55" cy="521.89" r="25.45"/><circle class="cls-6" cx="680.55" cy="415.93" r="25.45"/><circle class="cls-6" cx="680.55" cy="309.96" r="25.45"/><circle class="cls-6" cx="680.55" cy="204" r="25.45"/><circle class="cls-6" cx="680.55" cy="98.04" r="25.45"/><circle class="cls-6" cx="513.92" cy="781.91" r="25.45"/><circle class="cls-6" cx="513.92" cy="675.95" r="25.45"/><circle class="cls-6" cx="513.92" cy="569.99" r="25.45"/><circle class="cls-6" cx="513.92" cy="464.02" r="25.45"/><circle class="cls-6" cx="513.92" cy="358.06" r="25.45"/><circle class="cls-6" cx="513.92" cy="252.1" r="25.45"/><circle class="cls-6" cx="513.92" cy="146.13" r="25.45"/><circle class="cls-6" cx="513.92" cy="40.17" r="25.45"/><circle class="cls-6" cx="571.79" cy="839.78" r="25.45"/><circle class="cls-6" cx="571.79" cy="733.82" r="25.45"/><circle class="cls-6" cx="571.79" cy="627.85" r="25.45"/><circle class="cls-6" cx="571.79" cy="521.89" r="25.45"/><circle class="cls-6" cx="571.79" cy="415.93" r="25.45"/><circle class="cls-6" cx="571.79" cy="309.96" r="25.45"/><circle class="cls-6" cx="571.79" cy="204" r="25.45"/><circle class="cls-6" cx="571.79" cy="98.04" r="25.45"/><circle class="cls-6" cx="405.17" cy="781.91" r="25.45"/><circle class="cls-6" cx="405.17" cy="675.95" r="25.45"/><circle class="cls-6" cx="405.17" cy="569.99" r="25.45"/><circle class="cls-6" cx="405.17" cy="464.02" r="25.45"/><circle class="cls-6" cx="405.17" cy="358.06" r="25.45"/><circle class="cls-6" cx="405.17" cy="252.1" r="25.45"/><circle class="cls-6" cx="405.17" cy="146.13" r="25.45"/><circle class="cls-6" cx="405.17" cy="40.17" r="25.45"/><circle class="cls-6" cx="463.03" cy="839.78" r="25.45"/><circle class="cls-6" cx="463.03" cy="733.82" r="25.45"/><circle class="cls-6" cx="463.03" cy="627.85" r="25.45"/><circle class="cls-6" cx="463.03" cy="521.89" r="25.45"/><circle class="cls-6" cx="463.03" cy="415.93" r="25.45"/><circle class="cls-6" cx="463.03" cy="309.96" r="25.45"/><circle class="cls-6" cx="463.03" cy="204" r="25.45"/><circle class="cls-6" cx="463.03" cy="98.04" r="25.45"/><circle class="cls-6" cx="296.41" cy="781.91" r="25.45"/><circle class="cls-6" cx="296.41" cy="675.95" r="25.45"/><circle class="cls-6" cx="296.41" cy="569.99" r="25.45"/><circle class="cls-6" cx="296.41" cy="464.02" r="25.45"/><circle class="cls-6" cx="296.41" cy="358.06" r="25.45"/><circle class="cls-6" cx="296.41" cy="252.1" r="25.45"/><circle class="cls-6" cx="296.41" cy="146.13" r="25.45"/><circle class="cls-6" cx="296.41" cy="40.17" r="25.45"/><circle class="cls-6" cx="354.27" cy="839.78" r="25.45"/><circle class="cls-6" cx="354.27" cy="733.82" r="25.45"/><circle class="cls-6" cx="354.27" cy="627.85" r="25.45"/><circle class="cls-6" cx="354.27" cy="521.89" r="25.45"/><circle class="cls-6" cx="354.27" cy="415.93" r="25.45"/><circle class="cls-6" cx="354.27" cy="309.96" r="25.45"/><circle class="cls-6" cx="354.27" cy="204" r="25.45"/><circle class="cls-6" cx="354.27" cy="98.04" r="25.45"/><circle class="cls-6" cx="187.65" cy="781.91" r="25.45"/><circle class="cls-6" cx="187.65" cy="675.95" r="25.45"/><circle class="cls-6" cx="187.65" cy="569.99" r="25.45"/><circle class="cls-6" cx="187.65" cy="464.02" r="25.45"/><circle class="cls-6" cx="187.65" cy="358.06" r="25.45"/><circle class="cls-6" cx="187.65" cy="252.1" r="25.45"/><circle class="cls-6" cx="187.65" cy="146.13" r="25.45"/><circle class="cls-6" cx="187.65" cy="40.17" r="25.45"/><circle class="cls-6" cx="245.52" cy="839.78" r="25.45"/><circle class="cls-6" cx="245.52" cy="733.82" r="25.45"/><circle class="cls-6" cx="245.52" cy="627.85" r="25.45"/><circle class="cls-6" cx="245.52" cy="521.89" r="25.45"/><circle class="cls-6" cx="245.52" cy="415.93" r="25.45"/><circle class="cls-6" cx="245.52" cy="309.96" r="25.45"/><circle class="cls-6" cx="245.52" cy="204" r="25.45"/><circle class="cls-6" cx="245.52" cy="98.04" r="25.45"/><circle class="cls-6" cx="78.89" cy="781.91" r="25.45"/><circle class="cls-6" cx="78.89" cy="675.95" r="25.45"/><circle class="cls-6" cx="78.89" cy="569.99" r="25.45"/><circle class="cls-6" cx="78.89" cy="464.02" r="25.45"/><circle class="cls-6" cx="78.89" cy="358.06" r="25.45"/><circle class="cls-6" cx="78.89" cy="252.1" r="25.45"/><circle class="cls-6" cx="78.89" cy="146.13" r="25.45"/><circle class="cls-6" cx="78.89" cy="40.17" r="25.45"/><circle class="cls-6" cx="136.76" cy="839.78" r="25.45"/><circle class="cls-6" cx="136.76" cy="733.82" r="25.45"/><circle class="cls-6" cx="136.76" cy="627.85" r="25.45"/><circle class="cls-6" cx="136.76" cy="521.89" r="25.45"/><circle class="cls-6" cx="136.76" cy="415.93" r="25.45"/><circle class="cls-6" cx="136.76" cy="309.96" r="25.45"/><circle class="cls-6" cx="136.76" cy="204" r="25.45"/><circle class="cls-6" cx="136.76" cy="98.04" r="25.45"/><circle class="cls-6" cx="26.76" cy="839.78" r="25.45"/><circle class="cls-6" cx="26.76" cy="733.82" r="25.45"/><circle class="cls-6" cx="26.76" cy="627.85" r="25.45"/><circle class="cls-6" cx="26.76" cy="521.89" r="25.45"/><circle class="cls-6" cx="26.76" cy="415.93" r="25.45"/><circle class="cls-6" cx="26.76" cy="309.96" r="25.45"/><circle class="cls-6" cx="26.76" cy="204" r="25.45"/><circle class="cls-6" cx="26.76" cy="98.04" r="25.45"/></g></g><rect class="cls-10" x="-1042.25" y="877.98" width="2079.19" height="28.54"/><rect class="cls-11" x="-1042.25" y="885.77" width="2079.19" height="7.22"/><rect class="cls-11" x="-1042.25" y="874.11" width="2079.19" height="3.61"/><rect class="cls-12" x="-188.88" y="53.81" width="373.11" height="2078.51" transform="translate(1090.75 1095.39) rotate(90)"/></g><polygon class="cls-4" points="925.45 748.48 904.78 748.48 904.78 735.74 925.45 735.74 925.45 748.48 925.45 748.48"/><polygon class="cls-13" points="925.45 878.31 904.78 878.31 904.78 865.58 925.45 865.58 925.45 878.31 925.45 878.31"/><polyline class="cls-4" points="444.59 748.48 428.66 748.48 428.66 735.74 444.59 735.74"/><polyline class="cls-4" points="428.66 878.31 428.66 865.58 444.58 865.58 444.58 878.31"/><polygon class="cls-4" points="890.75 841.76 476.53 841.76 476.53 655.2 890.75 655.2 890.75 841.76 890.75 841.76"/><path class="cls-6" d="M661.58,794.15H472.85a18,18,0,0,1-18-18V659.35a18,18,0,0,1,18-18H661.58a18,18,0,0,1,18,18V776.18a18,18,0,0,1-18,18Z"/><path class="cls-14" d="M658.68,841.76H475.75a20.87,20.87,0,0,1-20.87-20.87V815a20.87,20.87,0,0,1,20.87-20.87H658.68A20.87,20.87,0,0,1,679.55,815v5.86a20.87,20.87,0,0,1-20.87,20.87Z"/><path class="cls-14" d="M891.54,841.76H708.61a20.87,20.87,0,0,1-20.87-20.87V815a20.87,20.87,0,0,1,20.87-20.87H891.54A20.87,20.87,0,0,1,912.41,815v5.86a20.87,20.87,0,0,1-20.87,20.87Z"/><path class="cls-14" d="M912.39,848.24v34.62a6.51,6.51,0,0,1-6.47,6.53H461.4a6.52,6.52,0,0,1-6.52-6.53V848.24a6.5,6.5,0,0,1,6.52-6.47H905.91a6.49,6.49,0,0,1,6.47,6.47Z"/><polygon class="cls-4" points="494.4 923.53 483.27 923.53 483.27 889.38 499.45 889.38 499.45 908.14 494.4 923.53 494.4 923.53"/><polygon class="cls-4" points="874.32 923.53 885.44 923.53 885.44 889.38 869.27 889.38 869.27 908.14 874.32 923.53 874.32 923.53"/><path class="cls-6" d="M912.39,848.24v11H454.88v-11a6.5,6.5,0,0,1,6.52-6.47H905.91a6.49,6.49,0,0,1,6.47,6.47Z"/><path class="cls-15" d="M886.24,794.15H697.52a18,18,0,0,1-18-18V659.35a18,18,0,0,1,18-18H886.24a18,18,0,0,1,18,18V776.18a18,18,0,0,1-18,18Z"/><path class="cls-16" d="M886.24,794.15H697.52a18,18,0,0,1-18-18V659.35a18,18,0,0,1,18-18H886.24a18,18,0,0,1,18,18V776.18a18,18,0,0,1-18,18Z"/><path class="cls-6" d="M894.43,794.15H705.71a18,18,0,0,1-18-18V659.35a18,18,0,0,1,18-18H894.43a18,18,0,0,1,18,18V776.18a18,18,0,0,1-18,18Z"/><path class="cls-17" d="M661.58,794.15H472.85a18,18,0,0,1-18-18V659.35a18,18,0,0,1,18-18H661.58a18,18,0,0,1,18,18V776.18a18,18,0,0,1-18,18Z"/><path class="cls-18" d="M894.43,794.15H705.71a18,18,0,0,1-18-18V659.35a18,18,0,0,1,18-18H894.43a18,18,0,0,1,18,18V776.18a18,18,0,0,1-18,18Z"/><circle class="cls-11" cx="505.09" cy="701.78" r="6.25"/><circle class="cls-11" cx="567.21" cy="701.78" r="6.25"/><circle class="cls-11" cx="629.22" cy="701.78" r="6.25"/><circle class="cls-11" cx="738.38" cy="701.78" r="6.25"/><circle class="cls-11" cx="800.5" cy="701.78" r="6.25"/><circle class="cls-11" cx="862.51" cy="701.78" r="6.25"/><path class="cls-15" d="M438.83,739.6a27.45,27.45,0,1,0-41.52,23.57v107A11.87,11.87,0,0,0,409.15,882H427a11.87,11.87,0,0,0,11.83-11.83V767h0Z"/><path class="cls-19" d="M438.83,739.6a27.45,27.45,0,1,0-41.52,23.57v107A11.87,11.87,0,0,0,409.15,882H427a11.87,11.87,0,0,0,11.83-11.83V767h0Z"/><path class="cls-15" d="M967.31,739.6a27.45,27.45,0,1,0-54.9,0V767h0V870.2A11.87,11.87,0,0,0,924.24,882h17.85a11.87,11.87,0,0,0,11.84-11.83v-107A27.43,27.43,0,0,0,967.31,739.6Z"/><path class="cls-20" d="M967.49,739.6a27.45,27.45,0,1,0-54.9,0V767h0V870.2A11.87,11.87,0,0,0,924.42,882h17.85a11.87,11.87,0,0,0,11.84-11.83v-107A27.43,27.43,0,0,0,967.49,739.6Z"/><path class="cls-14" d="M972.12,739.6a27.45,27.45,0,1,0-54.9,0V767h0V870.2A11.87,11.87,0,0,0,929.05,882H946.9a11.87,11.87,0,0,0,11.84-11.83v-107A27.43,27.43,0,0,0,972.12,739.6Z"/><path class="cls-21" d="M972.12,739.6a27.45,27.45,0,1,0-54.9,0V767h0V870.2A11.87,11.87,0,0,0,929.05,882H946.9a11.87,11.87,0,0,0,11.84-11.83v-107A27.43,27.43,0,0,0,972.12,739.6Z"/><path class="cls-14" d="M444.59,739.6a27.45,27.45,0,1,0-41.52,23.57v107A11.87,11.87,0,0,0,414.91,882h17.85a11.87,11.87,0,0,0,11.83-11.83V767h0Z"/><path class="cls-22" d="M444.52,739.6A27.45,27.45,0,1,0,403,763.17v107A11.87,11.87,0,0,0,414.84,882h17.85a11.87,11.87,0,0,0,11.83-11.83V767h0Z"/><circle class="cls-11" cx="417.14" cy="739.6" r="6.63"/><circle class="cls-11" cx="946.49" cy="739.6" r="6.63"/><path class="cls-6" d="M111.77,518.5H242.25a15,15,0,0,1,15,15V855.52a0,0,0,0,1,0,0H100.16a0,0,0,0,1,0,0V530.11A11.61,11.61,0,0,1,111.77,518.5Z"/><path class="cls-15" d="M108.12,518.5h-7.45A8.64,8.64,0,0,0,92,527.14V906.51l8.13,15.95,8-387.87"/><path class="cls-14" d="M248.58,518.5H108.8a8.64,8.64,0,0,0-8.64,8.64V922.46h16.09V855.52H241.13v66.94h16.09V527.14A8.64,8.64,0,0,0,248.58,518.5Zm-7.45,320.93H116.25V778.75H241.13Zm0-76.77H116.25V693.88H241.13Zm0-84.87H116.25V616.08H241.13ZM116.25,600v-65.4H241.13V600Z"/><path class="cls-23" d="M248.58,518.5H108.8a8.64,8.64,0,0,0-8.64,8.64V922.46h16.09V855.52H241.13v66.94h16.09V527.14A8.64,8.64,0,0,0,248.58,518.5Zm-7.45,320.93H116.25V778.75H241.13Zm0-76.77H116.25V693.88H241.13Zm0-84.87H116.25V616.08H241.13ZM116.25,600v-65.4H241.13V600Z"/><rect class="cls-6" x="232.97" y="534.59" width="8.21" height="65.4"/><rect class="cls-6" x="232.78" y="616.08" width="8.4" height="61.71"/><rect class="cls-6" x="232.78" y="693.88" width="8.4" height="68.78"/><rect class="cls-6" x="232.78" y="778.75" width="8.4" height="60.73"/><polygon class="cls-6" points="241.19 922.46 232.74 906.78 232.74 855.52 241.19 855.52 241.19 922.46"/><g class="cls-9"><rect class="cls-6" x="232.97" y="534.59" width="8.21" height="65.4"/><rect class="cls-6" x="232.78" y="616.08" width="8.4" height="61.71"/><rect class="cls-6" x="232.78" y="693.88" width="8.4" height="68.78"/><rect class="cls-6" x="232.78" y="778.75" width="8.4" height="60.73"/><polygon class="cls-6" points="241.19 922.46 232.74 906.78 232.74 855.52 241.19 855.52 241.19 922.46"/></g><g class="cls-9"><rect class="cls-13" x="232.97" y="534.59" width="8.21" height="65.4"/><rect class="cls-13" x="232.78" y="616.08" width="8.4" height="61.71"/><rect class="cls-13" x="232.78" y="693.88" width="8.4" height="68.78"/><rect class="cls-13" x="232.78" y="778.75" width="8.4" height="60.73"/><polygon class="cls-13" points="241.19 922.46 232.74 906.78 232.74 855.52 241.19 855.52 241.19 922.46"/></g><polygon class="cls-14" points="140.69 599.98 128.03 599.98 128.03 543.59 140.69 543.59 140.69 599.98 140.69 599.98"/><polygon class="cls-6" points="140.69 552.71 128.03 552.71 128.03 551.52 140.69 551.52 140.69 552.71 140.69 552.71"/><polygon class="cls-6" points="140.69 595.11 128.03 595.11 128.03 593.92 140.69 593.92 140.69 595.11 140.69 595.11"/><polygon class="cls-6" points="135.22 588.27 133.5 588.27 133.5 555.26 135.22 555.26 135.22 588.27 135.22 588.27"/><polygon class="cls-14" points="159.1 599.98 146.44 599.98 146.44 550.09 159.1 550.09 159.1 599.98 159.1 599.98"/><polygon class="cls-14" points="159.1 552.71 146.44 552.71 146.44 551.52 159.1 551.52 159.1 552.71 159.1 552.71"/><polygon class="cls-6" points="153.63 588.27 151.91 588.27 151.91 555.26 153.63 555.26 153.63 588.27 153.63 588.27"/><polygon class="cls-14" points="177.52 599.98 164.86 599.98 164.86 564.71 177.52 564.71 177.52 599.98 177.52 599.98"/><polygon class="cls-14" points="195.93 599.98 183.27 599.98 183.27 543.59 195.93 543.59 195.93 599.98 195.93 599.98"/><polygon class="cls-14" points="195.93 552.71 183.27 552.71 183.27 551.52 195.93 551.52 195.93 552.71 195.93 552.71"/><polygon class="cls-6" points="190.46 588.27 188.73 588.27 188.73 555.26 190.46 555.26 190.46 588.27 190.46 588.27"/><polygon class="cls-14" points="229.07 595.63 217.26 599.96 195.93 547.35 207.74 543.02 229.07 595.63 229.07 595.63"/><polygon class="cls-14" points="211.19 551.53 199.38 555.85 198.93 554.75 210.74 550.42 211.19 551.53 211.19 551.53"/><polygon class="cls-14" points="226.09 588.27 214.28 592.6 213.83 591.5 225.64 587.17 226.09 588.27 226.09 588.27"/><polygon class="cls-6" points="219.54 586.57 217.93 587.16 205.44 556.36 207.05 555.77 219.54 586.57 219.54 586.57"/><polygon class="cls-14" points="216.41 839.43 229.07 839.43 229.07 804.42 216.41 804.42 216.41 839.43 216.41 839.43"/><polygon class="cls-24" points="221.87 827.72 223.6 827.72 223.6 817.07 221.87 817.07 221.87 827.72 221.87 827.72"/><polygon class="cls-14" points="198 839.43 210.66 839.43 210.66 783.04 198 783.04 198 839.43 198 839.43"/><polygon class="cls-14" points="198 792.16 210.66 792.16 210.66 790.98 198 790.98 198 792.16 198 792.16"/><polygon class="cls-24" points="203.46 827.72 205.19 827.72 205.19 794.72 203.46 794.72 203.46 827.72 203.46 827.72"/><polygon class="cls-14" points="179.58 839.43 192.24 839.43 192.24 794.72 179.58 794.72 179.58 839.43 179.58 839.43"/><polygon class="cls-24" points="185.05 827.72 186.78 827.72 186.78 804.42 185.05 804.42 185.05 827.72 185.05 827.72"/><polygon class="cls-14" points="161.17 839.43 173.83 839.43 173.83 783.04 161.17 783.04 161.17 839.43 161.17 839.43"/><polygon class="cls-14" points="161.17 792.16 173.83 792.16 173.83 790.98 161.17 790.98 161.17 792.16 161.17 792.16"/><polygon class="cls-24" points="166.64 827.72 168.37 827.72 168.37 794.72 166.64 794.72 166.64 827.72 166.64 827.72"/><polygon class="cls-14" points="128.03 835.08 139.84 839.41 161.17 786.8 149.36 782.47 128.03 835.08 128.03 835.08"/><polygon class="cls-14" points="145.91 790.98 157.72 795.31 158.17 794.2 146.36 789.87 145.91 790.98 145.91 790.98"/><polygon class="cls-14" points="131.01 827.73 142.82 832.05 143.27 830.95 131.46 826.62 131.01 827.73 131.01 827.73"/><polygon class="cls-24" points="137.56 826.03 139.17 826.62 151.66 795.82 150.05 795.23 137.56 826.03 137.56 826.03"/><path class="cls-24" d="M207.68,746.29H152a39.35,39.35,0,0,1,0-11.37h55.66v11.37Z"/><path class="cls-14" d="M152,737.16h58.09v-2.33H149.82a28.39,28.39,0,0,0,0,13.51h60.29V746H152a26.66,26.66,0,0,1,0-8.84Z"/><path class="cls-24" d="M207.68,760.62H152a39.35,39.35,0,0,1,0-11.37h55.66v11.37Z"/><path class="cls-14" d="M152,751.49h58.09v-2.33H149.82a28.38,28.38,0,0,0,0,13.5h60.29v-2.33H152a26.68,26.68,0,0,1,0-8.84Z"/><path class="cls-24" d="M207.78,731.91H152.12a39.48,39.48,0,0,1,0-11.37h55.66v11.37Z"/><path class="cls-14" d="M152.12,722.78H210.2v-2.33H149.91a28.37,28.37,0,0,0,0,13.5H210.2v-2.33H152.11a26.67,26.67,0,0,1,0-8.84Z"/><path class="cls-14" d="M194.38,640c0,3.66-6.7,6.63-15,6.63s-15-3-15-6.63,6.7-6.62,15-6.62,15,3,15,6.62Z"/><path class="cls-14" d="M188.43,629.47c0,2.39-4,4.34-9,4.34s-9-1.95-9-4.34,4-4.34,9-4.34,9,1.94,9,4.34Z"/><polygon class="cls-14" points="189.26 667.53 169.94 667.53 169.94 661.26 189.26 661.26 189.26 667.53 189.26 667.53"/><polygon class="cls-14" points="191.78 677.79 166.63 677.79 166.63 667.22 191.78 667.22 191.78 677.79 191.78 677.79"/><path class="cls-14" d="M199.35,655.12c0,4.87-8.93,8.83-19.93,8.83s-19.93-4-19.93-8.83,8.92-8.83,19.93-8.83,19.93,4,19.93,8.83Z"/><polygon class="cls-14" points="213.66 486.58 211.71 480.25 211.71 455.04 213.66 461.38 213.66 486.58 213.66 486.58"/><path class="cls-14" d="M204.22,481.73c3.5,2.82,8.58,2.59,9.17,1.92s0-5.47-3.51-8.29-8.83-2.37-9.18-1.92,0,5.47,3.51,8.29Z"/><path class="cls-14" d="M221.26,481.76c-3.54,2.78-8.62,2.5-9.21,1.82s.07-5.47,3.61-8.26,8.86-2.27,9.21-1.82-.07,5.47-3.61,8.25Z"/><path class="cls-14" d="M222.41,460c-3.34,1.16-7.05-1.19-7.31-2.06s1.44-5.09,4.78-6.24,7.18,1.5,7.32,2.06-1.44,5.09-4.79,6.24Z"/><path class="cls-14" d="M210.23,468.63c-2.17,2.67-6.62,2.58-7.33,2s-1.65-5,.52-7.71,6.91-2.38,7.34-2,1.64,5-.53,7.71Z"/><path class="cls-14" d="M215.15,468.08c-2.23-2.64-1.08-6.73-.29-7.25s5.53-.34,7.76,2.31.81,6.95.29,7.25-5.54.34-7.75-2.31Z"/><path class="cls-14" d="M201.57,459.76c-3.25-1.38-4.2-5.51-3.75-6.32s4.76-2.7,8-1.33,4.06,5.82,3.75,6.32-4.76,2.7-8,1.33Z"/><path class="cls-14" d="M207.71,450.25c0-3.38,3.53-5.92,4.49-5.87s4.56,3,4.6,6.37-3.88,5.93-4.48,5.87-4.56-3-4.6-6.37Z"/><path class="cls-14" d="M217.45,459.2a5,5,0,1,1-5-4.76,4.88,4.88,0,0,1,5,4.76Z"/><polygon class="cls-14" points="232.21 518.5 194.16 518.5 189.06 480.87 237.31 480.87 232.21 518.5 232.21 518.5"/><path class="cls-14" d="M234.92,490.23H191.11a7.48,7.48,0,0,1-7.48-7.48v-1.88h58.78v1.88a7.49,7.49,0,0,1-7.49,7.48Z"/><path class="cls-14" d="M167.14,488.33c-.56-16.08-11-25.58-11-36.75,0-5.53,5.64-13,7.64-16.92a2.67,2.67,0,0,0-.92-5.17H129.79a2.67,2.67,0,0,0-1,5.15c2,3.89,7.65,11.4,7.65,16.94,0,11.17-10.42,20.67-11,36.75-.3,8.38,2.4,20.87,5.58,26.89A6.62,6.62,0,0,0,137,518.5h18.64a6.62,6.62,0,0,0,5.93-3.27C164.73,509.2,167.44,496.71,167.14,488.33Z"/><path class="cls-14" d="M531.57,112.08,498.12,82.49s0-.05,0-.08a4.77,4.77,0,0,0-9.31-1.48l-35.6,31.15h-25.9V209.7H557.47V112.08ZM488.67,83.4a4.77,4.77,0,0,0,9,1.1l30.65,27.58h-71.8Z"/><rect class="cls-11" x="438.79" y="123.57" width="107.19" height="72.74"/><path class="cls-11" d="M424.11,112.16h3.2a0,0,0,0,1,0,0v97.59a0,0,0,0,1,0,0h-3.84a0,0,0,0,1,0,0v-97A.64.64,0,0,1,424.11,112.16Z"/><path class="cls-14" d="M456.43,278.57l-21.7-19.2s0,0,0-.05a3.1,3.1,0,0,0-6-1l-23.11,20.21H388.78v63.35h84.47V278.57ZM428.6,260a3.1,3.1,0,0,0,5.82.71l19.89,17.9H407.71Z"/><rect class="cls-15" x="396.23" y="286.02" width="69.56" height="47.2"/><path class="cls-11" d="M386.7,278.61h2.08a0,0,0,0,1,0,0v63.33a0,0,0,0,1,0,0h-2.49a0,0,0,0,1,0,0V279A.41.41,0,0,1,386.7,278.61Z"/><rect class="cls-11" x="517.95" y="278.67" width="84.44" height="63.24" rx="4.92" ry="4.92"/><path class="cls-14" d="M589.45,278.57a3.36,3.36,0,0,1-2.23-.84l-20.75-18.36s0,0,0-.05a3.1,3.1,0,0,0-6-1l-22.15,19.38a3.36,3.36,0,0,1-2.21.83H523.88a3.36,3.36,0,0,0-3.36,3.36v56.62a3.36,3.36,0,0,0,3.36,3.36h77.74a3.36,3.36,0,0,0,3.36-3.36V281.93a3.36,3.36,0,0,0-3.36-3.36Zm-31.7-16.3a3.47,3.47,0,0,1,4.09-.25,3.1,3.1,0,0,0,2.74.17,3.53,3.53,0,0,1,3.8.48l11.16,10a3.36,3.36,0,0,1-2.25,5.86h-29a3.36,3.36,0,0,1-2.24-5.87Z"/><rect class="cls-11" x="527.97" y="286.02" width="69.56" height="47.2" rx="4.06" ry="4.06"/><rect class="cls-11" x="455.46" y="391.59" width="97.27" height="203.53"/><rect class="cls-14" x="459.89" y="391.59" width="97.27" height="203.53"/><rect class="cls-15" x="469.48" y="399.99" width="78.19" height="186.22"/><path class="cls-11" d="M547.75,457.11a15.73,15.73,0,1,1,0-17.64"/><path class="cls-11" d="M547.75,528.63a15.73,15.73,0,1,1,0-17.64"/><path class="cls-11" d="M469.48,414.35a15.73,15.73,0,1,1,0,17.64"/><path class="cls-11" d="M469.48,550.73a15.73,15.73,0,1,1,0,17.64"/><path class="cls-11" d="M469.48,483.75a15.73,15.73,0,1,1,0,17.64"/><polygon class="cls-15" points="467.76 139.83 473.91 152.28 487.65 154.28 477.71 163.97 480.06 177.65 467.76 171.19 455.47 177.65 457.82 163.97 447.88 154.28 461.62 152.28 467.76 139.83"/><polygon class="cls-15" points="516.69 139.83 522.83 152.28 536.58 154.28 526.63 163.97 528.98 177.65 516.69 171.19 504.4 177.65 506.75 163.97 496.8 154.28 510.54 152.28 516.69 139.83"/><rect class="cls-11" x="396.23" y="297.83" width="69.56" height="9.13"/><rect class="cls-11" x="396.23" y="313.2" width="69.56" height="9.13"/><polygon class="cls-15" points="567.73 327.48 563.46 318.37 560.98 328.12 560.08 318.1 554.41 326.41 556.99 316.69 548.83 322.56 554.58 314.31 544.89 317.03 553.12 311.24 543.09 310.49 552.8 307.87 543.63 303.73 553.66 304.58 546.45 297.56 555.58 301.79 551.22 292.72 558.35 299.82 557.35 289.81 561.62 298.92 564.1 289.17 565 299.19 570.67 290.88 568.08 300.6 576.25 294.73 570.5 302.99 580.18 300.26 571.96 306.05 581.99 306.8 572.28 309.43 581.45 313.57 571.42 312.71 578.62 319.74 569.5 315.5 573.86 324.57 566.73 317.47 567.73 327.48"/><path class="cls-14" d="M792.12,140.44l-21.7-19.2s0,0,0-.05a3.1,3.1,0,0,0-6-1l-23.11,20.21H724.46v63.35h84.47V140.44Zm-27.84-18.61a3.1,3.1,0,0,0,5.82.71L790,140.44H743.4Z"/><rect class="cls-15" x="731.92" y="147.9" width="69.56" height="47.2"/><path class="cls-11" d="M722.39,140.49h2.08a0,0,0,0,1,0,0v63.33a0,0,0,0,1,0,0H722a0,0,0,0,1,0,0V140.9a.41.41,0,0,1,.41-.41Z"/><rect class="cls-11" x="853.64" y="140.55" width="84.44" height="63.24" rx="4.92" ry="4.92"/><path class="cls-14" d="M925.14,140.44a3.36,3.36,0,0,1-2.23-.84l-20.75-18.36s0,0,0-.05a3.1,3.1,0,0,0-6-1L874,139.61a3.36,3.36,0,0,1-2.21.83H859.57a3.36,3.36,0,0,0-3.36,3.36v56.62a3.36,3.36,0,0,0,3.36,3.36h77.74a3.36,3.36,0,0,0,3.36-3.36V143.81a3.36,3.36,0,0,0-3.36-3.36Zm-31.7-16.3a3.47,3.47,0,0,1,4.09-.25,3.1,3.1,0,0,0,2.74.17,3.53,3.53,0,0,1,3.8.48l11.16,10a3.36,3.36,0,0,1-2.25,5.86H884a3.36,3.36,0,0,1-2.24-5.87Z"/><rect class="cls-11" x="863.66" y="147.9" width="69.56" height="47.2" rx="4.06" ry="4.06"/><rect class="cls-11" x="731.92" y="159.7" width="69.56" height="9.13"/><rect class="cls-11" x="731.92" y="175.08" width="69.56" height="9.13"/><polygon class="cls-15" points="903.42 189.36 899.15 180.25 896.66 190 895.76 179.98 890.1 188.29 892.68 178.57 884.51 184.44 890.26 176.18 880.58 178.91 888.81 173.12 878.77 172.37 888.49 169.74 879.32 165.6 889.34 166.46 882.14 159.43 891.27 163.67 886.9 154.6 894.03 161.7 893.03 151.69 897.3 160.8 899.79 151.05 900.68 161.07 906.35 152.76 903.77 162.48 911.94 156.61 906.19 164.86 915.87 162.14 907.64 167.93 917.67 168.68 907.96 171.3 917.13 175.44 907.11 174.59 914.31 181.61 905.18 177.38 909.55 186.44 902.42 179.35 903.42 189.36"/><path class="cls-14" d="M765.08,471.22l-28.25-25s0,0,0-.07a4,4,0,0,0-7.87-1.25L698.9,471.22H677v82.45H787V471.22ZM728.84,447a4,4,0,0,0,7.58.93l25.89,23.3H701.67Z"/><rect class="cls-15" x="686.72" y="480.92" width="90.54" height="61.44"/><path class="cls-11" d="M674.32,471.28H677a0,0,0,0,1,0,0v82.43a0,0,0,0,1,0,0h-3.24a0,0,0,0,1,0,0V471.81A.54.54,0,0,1,674.32,471.28Z"/><rect class="cls-11" x="845.15" y="471.36" width="109.91" height="82.31" rx="6.41" ry="6.41"/><path class="cls-14" d="M938.21,471.22a4.38,4.38,0,0,1-2.9-1.1l-27-23.89s0,0,0-.07a4,4,0,0,0-7.87-1.25l-28.84,25.23a4.38,4.38,0,0,1-2.88,1.08H852.87a4.38,4.38,0,0,0-4.38,4.38v73.7a4.38,4.38,0,0,0,4.38,4.38H954.06a4.38,4.38,0,0,0,4.38-4.38v-73.7a4.38,4.38,0,0,0-4.38-4.38ZM896.95,450a4.51,4.51,0,0,1,5.32-.33,4,4,0,0,0,3.56.22,4.6,4.6,0,0,1,4.94.63l14.53,13.08a4.38,4.38,0,0,1-2.93,7.63H884.63a4.38,4.38,0,0,1-2.91-7.65Z"/><rect class="cls-11" x="858.2" y="480.92" width="90.54" height="61.44" rx="5.28" ry="5.28"/><rect class="cls-11" x="686.72" y="496.29" width="90.54" height="11.88"/><rect class="cls-11" x="686.72" y="516.3" width="90.54" height="11.88"/><polygon class="cls-15" points="909.95 534.88 904.38 523.03 901.15 535.72 899.98 522.67 892.61 533.49 895.97 520.84 885.33 528.48 892.82 517.74 880.22 521.28 890.93 513.75 877.87 512.77 890.51 509.35 878.58 503.96 891.62 505.08 882.25 495.93 894.13 501.44 888.45 489.64 897.73 498.88 896.42 485.85 901.99 497.71 905.22 485.02 906.39 498.06 913.76 487.24 910.4 499.9 921.03 492.26 913.55 503 926.15 499.45 915.44 506.99 928.5 507.97 915.86 511.38 927.79 516.77 914.75 515.66 924.12 524.8 912.24 519.29 917.92 531.09 908.64 521.85 909.95 534.88"/><path class="cls-11" d="M230,147.91H133.14a7,7,0,1,0-10.05,6.24V364.47a7,7,0,1,0,10,7.13H230Z"/><path class="cls-14" d="M237,363.88V154.75a7,7,0,0,0-1.39-13.8h0a7,7,0,0,0-7,7H137a7,7,0,1,0-7,7V363.74A7,7,0,1,0,137,371.6h91.69a7,7,0,0,0,6.91,6.09h0a7,7,0,0,0,1.39-13.8Z"/><rect class="cls-15" x="140.61" y="157.15" width="85.94" height="204.66"/><polygon class="cls-11" points="140.61 313.21 189.49 264.33 201.23 276.08 226.49 250.82 226.49 361.81 140.61 361.81 140.61 313.21"/><path class="cls-11" d="M226.62,229.59a34.57,34.57,0,1,1-.07-38.76"/><path class="cls-11" d="M727.24,268.21v90.36a6.5,6.5,0,1,0,5.82,9.38H929.27a6.5,6.5,0,1,0,6.65-9.32V268.21Z"/><path class="cls-14" d="M928.72,261.71H733.61a6.5,6.5,0,0,0-12.88,1.3h0a6.52,6.52,0,0,0,6.5,6.5v85.43a6.5,6.5,0,1,0,6.5,6.5H928.59a6.5,6.5,0,1,0,7.33-6.45V269.45A6.52,6.52,0,0,0,941.6,263h0a6.5,6.5,0,0,0-12.88-1.3Z"/><rect class="cls-15" x="791.24" y="216.04" width="80.18" height="190.94" transform="translate(519.81 1142.84) rotate(-90)"/><polygon class="cls-11" points="881.45 351.6 835.85 306 846.81 295.05 823.24 271.48 926.79 271.48 926.79 351.6 881.45 351.6"/><path class="cls-11" d="M803.44,271.36a32.25,32.25,0,1,1-36.16.07"/></svg>