<svg id="Layer_1" data-name="Layer 1" xmlns="http://www.w3.org/2000/svg" xmlns:xlink="http://www.w3.org/1999/xlink" viewBox="0 0 366 122"><defs><style>.cls-1{fill:none;}.cls-2{clip-path:url(#clip-path);}.cls-3{clip-path:url(#clip-path-2);}.cls-4{fill:#3d7aad;}.cls-5{fill:#468ec9;}.cls-6{clip-path:url(#clip-path-3);}.cls-7{opacity:0.33;}.cls-10,.cls-8,.cls-9{fill:#175e92;}.cls-9{opacity:0.7;}.cls-10{opacity:0.9;}</style><clipPath id="clip-path"><rect class="cls-1" x="-865.28" y="-1999.3" width="2079.19" height="373.17"/></clipPath><clipPath id="clip-path-2"><rect class="cls-1" x="-1633.87" y="-1999.3" width="3582.94" height="525.81"/></clipPath><clipPath id="clip-path-3"><rect class="cls-1" x="1300.45" y="-1999.25" width="2079.19" height="373.12"/></clipPath></defs><title>room_ellements</title><g class="cls-2"><g class="cls-3"><polygon class="cls-4" points="34.65 7.66 -33.83 60.3 -102.3 7.66 -33.83 -44.98 34.65 7.66"/><polygon class="cls-5" points="103.12 -44.98 34.65 7.66 -33.83 -44.98 34.65 -97.62 103.12 -44.98"/><polygon class="cls-5" points="103.12 60.3 34.65 112.94 -33.83 60.3 34.65 7.66 103.12 60.3"/><polygon class="cls-4" points="171.59 7.66 103.12 60.3 34.65 7.66 103.12 -44.98 171.59 7.66"/><polygon class="cls-5" points="240.07 -44.98 171.59 7.66 103.12 -44.98 171.59 -97.62 240.07 -44.98"/><polygon class="cls-4" points="171.59 112.94 103.12 165.58 34.65 112.94 103.12 60.3 171.59 112.94"/><polygon class="cls-5" points="240.07 60.3 171.59 112.94 103.12 60.3 171.59 7.66 240.07 60.3"/><polygon class="cls-4" points="308.54 7.66 240.07 60.3 171.59 7.66 240.07 -44.98 308.54 7.66"/><polygon class="cls-5" points="377.01 -44.98 308.54 7.66 240.07 -44.98 308.54 -97.62 377.01 -44.98"/></g></g><g class="cls-7"><rect class="cls-8" x="277.69" y="24.62" width="23.8" height="97.21"/><rect class="cls-8" x="282.02" y="31.16" width="15.14" height="77.17"/><rect class="cls-8" x="244.28" y="33.14" width="33.41" height="88.7"/><rect class="cls-8" x="250.3" y="39.32" width="21.38" height="28.56"/><rect class="cls-8" x="250.3" y="113.52" width="21.38" height="4.03"/><rect class="cls-8" x="250.3" y="106.5" width="21.38" height="4.03"/><rect class="cls-8" x="310.09" y="103.96" width="55.62" height="18.04"/><circle class="cls-8" cx="355.98" cy="112.98" r="4.52"/><rect class="cls-8" x="325.25" y="108.65" width="30.73" height="8.61"/><rect class="cls-8" x="314.85" y="89.53" width="46.11" height="14.95"/><circle class="cls-8" cx="352.89" cy="97.01" r="3.74"/><rect class="cls-8" x="319.53" y="93.42" width="25.48" height="7.14"/></g><g class="cls-7"><rect class="cls-8" x="173.89" y="16.58" width="22.04" height="105.2"/><rect class="cls-8" x="178.74" y="23.73" width="12.89" height="66.45"/><rect class="cls-8" x="178.74" y="99.72" width="12.89" height="3.25"/><rect class="cls-8" x="178.74" y="94.74" width="12.89" height="3.25"/><rect class="cls-8" x="129.81" y="42.57" width="22.04" height="79.21"/><rect class="cls-8" x="137.22" y="47.56" width="6.55" height="70.38"/><rect class="cls-8" x="217.97" y="0.78" width="22.04" height="121"/><rect class="cls-8" x="221.22" y="6.2" width="15.54" height="105.39"/><rect class="cls-9" x="221.22" y="114.69" width="15.54" height="3.84"/><rect class="cls-8" x="151.85" y="0.78" width="22.04" height="121"/><rect class="cls-8" x="195.93" y="0.78" width="22.04" height="121"/><circle class="cls-8" cx="206.95" cy="19.08" r="4.82"/><rect class="cls-8" x="200.04" y="100.42" width="13.83" height="3.84"/><rect class="cls-8" x="200.04" y="107.31" width="13.83" height="3.84"/><rect class="cls-8" x="200.04" y="114.17" width="13.83" height="3.84"/></g><g class="cls-7"><rect class="cls-8" x="34.71" y="90.07" width="68.59" height="15.96"/><path class="cls-8" d="M52.31,60.61H87.13a7.58,7.58,0,0,0,0,11.62H52.31a.89.89,0,0,0,0,1.77H92.17a7.58,7.58,0,0,0,0-15.15H52.31a.89.89,0,0,0,0,1.77Z"/><path class="cls-8" d="M92.2,72.23h0a5.81,5.81,0,0,0,0-11.6H53.71V72.23Z"/><path class="cls-8" d="M45.77,45.44H80.59a7.58,7.58,0,0,0,0,11.62H45.77a.89.89,0,0,0,0,1.77H85.63a7.58,7.58,0,0,0,0-15.15H45.77a.89.89,0,0,0,0,1.77Z"/><path class="cls-8" d="M85.66,57.06h0a5.81,5.81,0,0,0,0-11.6H47.17V57.06Z"/><rect class="cls-8" x="38.25" y="74.11" width="68.59" height="15.96"/><ellipse class="cls-10" cx="45.87" cy="82.09" rx="2.59" ry="2.69"/><rect class="cls-8" x="51.38" y="79.4" width="41.56" height="5.38"/><rect class="cls-10" x="96.05" y="79.4" width="2.22" height="5.38"/><rect class="cls-10" x="99.6" y="79.4" width="2.22" height="5.38"/><rect class="cls-8" x="34.71" y="90.07" width="2.03" height="15.96"/><rect class="cls-8" x="101.22" y="90.07" width="2.03" height="15.96"/><rect class="cls-8" x="96.79" y="90.07" width="2.03" height="15.96"/><rect class="cls-8" x="49.25" y="92.34" width="39.49" height="11.33"/><rect class="cls-8" x="47.27" y="106.04" width="74.72" height="15.96"/><rect class="cls-8" x="63.76" y="109.39" width="39.49" height="9.25"/><ellipse class="cls-8" cx="95.22" cy="114.02" rx="2.59" ry="2.69"/><rect class="cls-8" x="-10.79" y="73.95" width="79.53" height="14.85" transform="matrix(0.18, -0.98, 0.98, 0.18, -56.24, 95.46)"/><rect class="cls-8" x="-1.81" y="84.3" width="59.5" height="5.55" transform="translate(-62.7 99.15) rotate(-79.79)"/><circle class="cls-8" cx="34.71" cy="49.54" r="3.91" transform="translate(-20.2 74.91) rotate(-79.79)"/><rect class="cls-8" x="-28.12" y="68.06" width="86.14" height="14.85" transform="translate(-61.99 76.82) rotate(-79.79)"/><rect class="cls-8" x="8.04" y="99.68" width="2.59" height="9.32" transform="translate(-95.01 95.04) rotate(-79.79)"/><rect class="cls-8" x="-5.51" y="56.96" width="45.91" height="9.32" transform="translate(-46.29 67.87) rotate(-79.79)"/><rect class="cls-8" x="7.22" y="104.25" width="2.59" height="9.32" transform="translate(-100.18 97.98) rotate(-79.79)"/><line class="cls-8" x1="47.25" y1="103.24" x2="47.25" y2="93.4"/></g></svg>