<svg id="Layer_1" data-name="Layer 1" xmlns="http://www.w3.org/2000/svg" xmlns:xlink="http://www.w3.org/1999/xlink" viewBox="0 0 111.17 105.32"><defs><style>.cls-1{fill:none;}.cls-2{clip-path:url(#clip-path);}.cls-3{clip-path:url(#clip-path-2);}.cls-4{fill:#3d7aad;}.cls-5{fill:#468ec9;}.cls-6{clip-path:url(#clip-path-3);}.cls-7{clip-path:url(#clip-path-4);}.cls-8{fill:#406fa0;}.cls-9{fill:#ebe67c;}.cls-10{fill:#0f3e5b;}.cls-11{fill:#fa9852;}</style><clipPath id="clip-path"><rect class="cls-1" x="-1562.99" y="1127.47" width="2079.19" height="373.17"/></clipPath><clipPath id="clip-path-2"><rect class="cls-1" x="-2331.58" y="1127.47" width="3582.94" height="525.81"/></clipPath><clipPath id="clip-path-3"><rect class="cls-1" x="602.74" y="1127.52" width="2079.19" height="373.12"/></clipPath><clipPath id="clip-path-4"><rect class="cls-1" x="-165.85" y="1127.52" width="3582.94" height="525.73"/></clipPath></defs><title>room_ellements</title><g class="cls-2"><g class="cls-3"><polygon class="cls-4" points="21.76 -23.93 -46.71 28.71 -115.19 -23.93 -46.71 -76.57 21.76 -23.93"/><polygon class="cls-4" points="21.76 81.35 -46.71 133.99 -115.19 81.35 -46.71 28.71 21.76 81.35"/><polygon class="cls-5" points="90.23 28.71 21.76 81.35 -46.71 28.71 21.76 -23.93 90.23 28.71"/><polygon class="cls-4" points="158.71 -23.93 90.23 28.71 21.76 -23.93 90.23 -76.57 158.71 -23.93"/><polygon class="cls-5" points="90.23 133.99 21.76 186.63 -46.71 133.99 21.76 81.35 90.23 133.99"/><polygon class="cls-4" points="158.71 81.35 90.23 133.99 21.76 81.35 90.23 28.71 158.71 81.35"/><polygon class="cls-5" points="227.18 28.71 158.71 81.35 90.23 28.71 158.71 -23.93 227.18 28.71"/><polygon class="cls-5" points="227.18 133.99 158.71 186.63 90.23 133.99 158.71 81.35 227.18 133.99"/></g></g><path class="cls-8" d="M1.73.09,14,4.9a18.69,18.69,0,0,1,8.46-2.44A18.67,18.67,0,0,1,30.9,4.9L43.14.09a1.27,1.27,0,0,1,1.65,1.65L40.71,12.1C42.76,14,44,15.46,44,15.46s-7.91,9-16.48,12c0,11.11.07,10.71,5.25,20.47a44.23,44.23,0,0,1,15.67-.27c6.68,1,13.48,4,19,6.38a60.8,60.8,0,0,0,8.47,3.28,6.89,6.89,0,0,0,5.33-1.18l.55-.58c2.09-2.21,2.89-5.19,2.43-9.13-.09-.73-.16-1.44-.23-2.15l0,.07c-.09-3.16-.47-5.88-.47-5.88-.85-13.18.76-21.44,5-26.26C91.25,9.17,95,7.62,99.62,7.62a11.21,11.21,0,0,1,11.1,8.15,10.18,10.18,0,0,1-4.16,11.64,3,3,0,1,1-3.22-5.17,4.15,4.15,0,0,0,1.52-4.79,5.11,5.11,0,0,0-5.24-3.74c-2.91,0-5,.81-6.54,2.56-3.73,4.19-4.65,13.83-2.82,29.46.68,5.78-.7,10.5-4.08,14.05a17.74,17.74,0,0,1-5.46,3.8l-.09.77a22.72,22.72,0,0,1-4.88,11.9c-.86,1.08-1.43,1.85-1.81,2.4a13.41,13.41,0,0,0,4.75,1.56,4.21,4.21,0,0,1,3.48,3.11l1.93,7.41a3.92,3.92,0,0,1-.22,2.61,5.94,5.94,0,0,0-.33,4l.15.56a7,7,0,0,1-.76,5.43,4.4,4.4,0,0,1-4,2h-.31l-4.8,0a1.52,1.52,0,0,1-1.42-1.52v-2A4.16,4.16,0,0,1,75,97.88l.42-3.9a4.86,4.86,0,0,0-3.91-5.28l-2.28-.43a5.65,5.65,0,0,1-2,3.05h0L56,105a1.52,1.52,0,0,1-.9.3H49.94a2.39,2.39,0,0,1-2-3.63,6.24,6.24,0,0,1,4.77-3l.41,0,6.61-12.42a7.68,7.68,0,0,1-3.35-2.87l-3.41-5.32-9.77.53a51.08,51.08,0,0,1-1.66,8.58c-1,3.7-2.52,8.65-2.52,8.67L37.75,102a4.06,4.06,0,0,1-4,3.25h0l-6.4,0h-3a1.63,1.63,0,0,1-1.4-1.63v-1.26a4.52,4.52,0,0,1,1.35-3.23c.87-.86,4.4-1.33,5.62-1.32.32-3.85-.31-12.79-1.41-15.47s-6.93-7.87-7.83-9.21L19,72.26l0,0c-5.21-2.91-7.71-8.8-7.25-17a2,2,0,0,1,.3-.89c3.42-10,5.26-16.1,5.28-26.83-8.57-3-16.48-12-16.48-12S2.12,14,4.16,12.1L.09,1.73A1.27,1.27,0,0,1,1.73.09Z"/><path class="cls-9" d="M33.78,14.31s-4.2-7.83-9.7,0C24.08,14.31,29,20.84,33.78,14.31Z"/><path class="cls-9" d="M11.48,14.31s4.2-7.83,9.7,0C21.18,14.31,16.24,20.84,11.48,14.31Z"/><rect class="cls-10" x="21.76" y="35.51" width="1.53" height="4.54" transform="translate(45.06 75.55) rotate(-180)"/><circle class="cls-9" cx="22.57" cy="42.83" r="3.94"/><rect class="cls-11" x="12.41" y="29.71" width="20.32" height="6.48" rx="2.67" ry="2.67" transform="translate(45.13 65.9) rotate(180)"/></svg>