<svg id="Layer_1" data-name="Layer 1" xmlns="http://www.w3.org/2000/svg" xmlns:xlink="http://www.w3.org/1999/xlink" viewBox="0 0 112.08 106.91"><defs><style>.cls-1{fill:none;}.cls-2{clip-path:url(#clip-path);}.cls-3{clip-path:url(#clip-path-2);}.cls-4{fill:#468ec9;}.cls-5{fill:#3d7aad;}.cls-6{clip-path:url(#clip-path-3);}.cls-7{clip-path:url(#clip-path-4);}</style><clipPath id="clip-path"><rect class="cls-1" x="-814.25" y="1219.16" width="2079.19" height="373.17"/></clipPath><clipPath id="clip-path-2"><rect class="cls-1" x="-1582.83" y="1219.16" width="3582.94" height="525.81"/></clipPath><clipPath id="clip-path-3"><rect class="cls-1" x="1351.49" y="1219.21" width="2079.19" height="373.12"/></clipPath><clipPath id="clip-path-4"><rect class="cls-1" x="582.9" y="1219.21" width="3582.94" height="525.73"/></clipPath></defs><title>room_svg_png</title><g class="cls-2"><g class="cls-3"><polygon class="cls-4" points="17.29 15.12 -51.18 67.76 -119.66 15.12 -51.18 -37.52 17.29 15.12"/><polygon class="cls-5" points="85.77 -37.52 17.29 15.12 -51.18 -37.52 17.29 -90.16 85.77 -37.52"/><polygon class="cls-4" points="17.29 120.4 -51.18 173.04 -119.66 120.4 -51.18 67.76 17.29 120.4"/><polygon class="cls-5" points="85.77 67.76 17.29 120.4 -51.18 67.76 17.29 15.12 85.77 67.76"/><polygon class="cls-4" points="154.24 15.12 85.77 67.76 17.29 15.12 85.77 -37.52 154.24 15.12"/><polygon class="cls-5" points="222.71 -37.52 154.24 15.12 85.77 -37.52 154.24 -90.16 222.71 -37.52"/><polygon class="cls-4" points="154.24 120.4 85.77 173.04 17.29 120.4 85.77 67.76 154.24 120.4"/><polygon class="cls-5" points="222.71 67.76 154.24 120.4 85.77 67.76 154.24 15.12 222.71 67.76"/></g></g><path class="cls-4" d="M60.7,105.94a5.26,5.26,0,0,1-4.8.71c-2.93-.74-5.58-3-7.6-5.5,4.22.67,9-1.32,10.12-5.14a22.06,22.06,0,0,1,2.66,5.13C61.72,103,62.53,104.56,60.7,105.94Z"/><path class="cls-4" d="M84.18,93c3.29,2.16,6.47,6.86.26,7.36-3.4.32-7.21-.75-10.49-1.71a13.92,13.92,0,0,1-4.11-1.75v0c1-.21,11.19-2.72,12-5.25A21.59,21.59,0,0,1,84.18,93Z"/><path class="cls-4" d="M58.41,96c-1.12,3.82-5.9,5.81-10.12,5.14A26,26,0,0,1,46.66,99C44,95.08,43.1,91.18,42.32,86.76v-.11A52.92,52.92,0,0,1,48,87l0,.34c2.75.36,5.87,3.21,7.52,4.92A25.35,25.35,0,0,1,58.41,96Z"/><path class="cls-4" d="M69.86,96.87v0a18.62,18.62,0,0,1-5.53-6.06,22.21,22.21,0,0,0-1.47-1.67l0-.48a94,94,0,0,0,10,.11h0a26.42,26.42,0,0,1,8.87,2.84C81.05,94.15,70.87,96.66,69.86,96.87Z"/><path class="cls-4" d="M102.7,88.11c-4.79,1.24-9.21,0-14.27-1.24-2.17.42-4.28.78-6.35,1.08-.59-.8-1.17-1.59-1.79-2.38,2.13-.26,4.3-.59,6.52-1h.05a8.49,8.49,0,0,0,1.59-.31h0c3.11-1,5.82-3.67,8.93-5.13C101.52,79.95,105.25,85.41,102.7,88.11Z"/><polygon class="cls-4" points="30.47 102.79 12.33 103.06 8.5 84.22 25.32 77.47 27.31 87.26 27.81 89.73 30.47 102.79"/><path class="cls-4" d="M106.76,86.52a16,16,0,0,1-4.06,1.58c2.55-2.7-1.18-8.16-5.3-9a10.23,10.23,0,0,1,2.37-.82,18.94,18.94,0,0,1,10.82,1.51c1.94.95,1.75,2.2.76,3.39A15.32,15.32,0,0,1,106.76,86.52Z"/><path class="cls-4" d="M41.86,99.73a2,2,0,0,1-2.14.47c-1.91-.55-4.17-3-5.65-5.61,2.07-.19,4.76-.83,6-2.13C41.8,95.3,43,98.58,41.86,99.73Z"/><path class="cls-4" d="M82.08,88c-3.12.42-6.14.7-9.13.82h0a94,94,0,0,1-10-.11c-3.42-.2-6.92-.58-10.6-1.12-1.51-.22-2.94-.41-4.3-.55a52.92,52.92,0,0,0-5.65-.35,31.54,31.54,0,0,0-7.32.73q-1.12.23-2.26.57a37.22,37.22,0,0,0-4.92,1.78l-.5-2.47a40.69,40.69,0,0,1,4.17-1.57v0a30.5,30.5,0,0,1,4.68-1.13,29.76,29.76,0,0,1,3-.36,34.62,34.62,0,0,1,4.89,0c1.79.08,3.68.27,5.69.55.7.09,1.41.17,2.15.28q2.53.36,4.94.63t4.68.42c2.27.17,4.51.26,6.75.27s4.69-.07,7.06-.26c1.63-.12,3.25-.27,4.92-.49C80.91,86.36,81.5,87.16,82.08,88Z"/><path class="cls-4" d="M40,92.46c-1.2,1.3-3.89,1.94-6,2.13-1.37-2.42-2.07-5-1.22-6.27L32.74,88q1.15-.34,2.26-.57l.09.35C36.38,87.76,38.44,89.93,40,92.46Z"/><path class="cls-4" d="M68.32,86.17v.14c-2.24,0-4.47-.09-6.75-.27.46-1.36.65-2.84,1.17-4.18.69-2.59,2.6-5,4.29-7A14.46,14.46,0,0,1,71.26,74q3.05,3.71,6,7.54l-1.14.8C73.68,84,71.2,85.71,68.32,86.17Z"/><path class="cls-4" d="M77.5,81.38a2.54,2.54,0,0,1-.28.2q-2.92-3.82-6-7.54a15.29,15.29,0,0,1,3.22.08c4.11.71,5.85,1.77,6.77,4.47A43.81,43.81,0,0,1,77.5,81.38Z"/><path class="cls-4" d="M49.81,84.62l0,.09c-2-.28-3.9-.48-5.69-.55-1.48-2.94.54-7,2.72-9.92,4.41-3.24,11.88-.74,12.6,4A23.75,23.75,0,0,1,57,81.06,11.12,11.12,0,0,1,49.81,84.62Z"/><path class="cls-4" d="M31.48,85.67l-.09-.28c-1-1.51-1.06-4.61-.69-6.41,0-.1.06-.21.12-.34,2-1.65,5.33-2.21,7.35-.95a19.32,19.32,0,0,1-.41,2.65,8.92,8.92,0,0,1-1.62,4.08l0,.12A30.5,30.5,0,0,0,31.48,85.67Z"/><path class="cls-4" d="M81.25,78.59c-.92-2.7-2.67-3.75-6.77-4.47A15.29,15.29,0,0,0,71.26,74c-.48-.64-1-1.26-1.51-1.88a16.53,16.53,0,0,1,8.92-4.44c4.12-.45,8,.86,6.58,5.6C84.74,75.22,83.12,77,81.25,78.59Z"/><path class="cls-4" d="M59.41,78.25c-.72-4.75-8.18-7.25-12.6-4a27.69,27.69,0,0,1,2.3-2.72c2.78-2.8,6.06-4.95,10.08-5.27,3.76-.39,3.89,1.45,3.45,4.86A13.8,13.8,0,0,1,60.4,76.8,16.91,16.91,0,0,1,59.41,78.25Z"/><path class="cls-4" d="M67,74.9l.08-.11a30.21,30.21,0,0,1,2.63-2.63c.51.62,1,1.24,1.51,1.88A14.46,14.46,0,0,0,67,74.9Z"/><path class="cls-4" d="M38.17,77.69c-2-1.26-5.36-.71-7.35.95.8-2.06,3.9-7.42,6.42-5.82C38.19,73.39,38.4,75.44,38.17,77.69Z"/></svg>