<svg id="Layer_1" data-name="Layer 1" xmlns="http://www.w3.org/2000/svg" xmlns:xlink="http://www.w3.org/1999/xlink" viewBox="0 0 112.08 106.91"><defs><style>.cls-1{fill:none;}.cls-2{clip-path:url(#clip-path);}.cls-3{clip-path:url(#clip-path-2);}.cls-4{fill:#468ec9;}.cls-5{fill:#3d7aad;}.cls-6{clip-path:url(#clip-path-3);}.cls-7{clip-path:url(#clip-path-4);}</style><clipPath id="clip-path"><rect class="cls-1" x="-689.68" y="1219.16" width="2079.19" height="373.17"/></clipPath><clipPath id="clip-path-2"><rect class="cls-1" x="-1458.27" y="1219.16" width="3582.94" height="525.81"/></clipPath><clipPath id="clip-path-3"><rect class="cls-1" x="1476.05" y="1219.21" width="2079.19" height="373.12"/></clipPath><clipPath id="clip-path-4"><rect class="cls-1" x="707.46" y="1219.21" width="3582.94" height="525.73"/></clipPath></defs><title>room_svg_png</title><g class="cls-2"><g class="cls-3"><polygon class="cls-4" points="4.91 15.12 -63.56 67.76 -132.04 15.12 -63.56 -37.52 4.91 15.12"/><polygon class="cls-5" points="73.38 -37.52 4.91 15.12 -63.56 -37.52 4.91 -90.16 73.38 -37.52"/><polygon class="cls-4" points="4.91 120.4 -63.56 173.04 -132.04 120.4 -63.56 67.76 4.91 120.4"/><polygon class="cls-5" points="73.38 67.76 4.91 120.4 -63.56 67.76 4.91 15.12 73.38 67.76"/><polygon class="cls-4" points="141.86 15.12 73.38 67.76 4.91 15.12 73.38 -37.52 141.86 15.12"/><polygon class="cls-5" points="210.33 -37.52 141.86 15.12 73.38 -37.52 141.86 -90.16 210.33 -37.52"/><polygon class="cls-4" points="141.86 120.4 73.38 173.04 4.91 120.4 73.38 67.76 141.86 120.4"/><polygon class="cls-5" points="210.33 67.76 141.86 120.4 73.38 67.76 141.86 15.12 210.33 67.76"/></g></g><path class="cls-4" d="M39.25,55.33A5.26,5.26,0,0,1,39,60.17C37.63,62.89,34.84,65,32,66.48c1.53-4,.56-9.07-2.95-11A22.06,22.06,0,0,1,34.64,54C36.59,53.72,38.28,53.25,39.25,55.33Z"/><path class="cls-4" d="M31.41,29.68c2.8-2.78,8-4.92,7.26,1.26-.38,3.4-2.22,6.91-3.83,9.92a13.92,13.92,0,0,1-2.56,3.66l0,0c0-1-.36-11.51-2.68-12.79A21.59,21.59,0,0,1,31.41,29.68Z"/><path class="cls-4" d="M29.07,55.52c3.51,1.89,4.48,7,2.95,11a26,26,0,0,1-2.44,1.16c-4.38,1.78-8.38,1.88-12.87,1.73l-.1,0a52.92,52.92,0,0,1,1.5-5.46l.33.11c.91-2.62,4.35-5.08,6.36-6.34A25.35,25.35,0,0,1,29.07,55.52Z"/><path class="cls-4" d="M32.27,44.49l0,0a18.62,18.62,0,0,1-7.07,4.17,22.21,22.21,0,0,0-1.94,1.09l-.47-.12A94,94,0,0,0,25,39.84v0a26.42,26.42,0,0,1,4.61-8.1C31.91,33,32.27,43.46,32.27,44.49Z"/><path class="cls-4" d="M30.45,10.55c.23,4.94-1.91,9-4.15,13.71,0,2.21-.12,4.35-.25,6.44-.9.41-1.8.82-2.7,1.26.19-2.14.3-4.33.35-6.59v-.05a8.49,8.49,0,0,0,0-1.62v0c-.31-3.25-2.39-6.45-3.18-9.79C22.22,10,28.33,7.5,30.45,10.55Z"/><polygon class="cls-4" points="29.95 84.26 26.49 102.06 7.26 101.94 4.12 84.09 14.11 84.16 16.63 84.17 29.95 84.26"/><path class="cls-4" d="M29.74,6.25a16,16,0,0,1,.71,4.3c-2.12-3.05-8.23-.52-9.89,3.34a10.23,10.23,0,0,1-.31-2.49A18.94,18.94,0,0,1,24,1.12c1.32-1.7,2.51-1.26,3.47,0A15.32,15.32,0,0,1,29.74,6.25Z"/><path class="cls-4" d="M29.3,72.48a2,2,0,0,1,0,2.19c-.93,1.75-3.8,3.46-6.66,4.37.24-2.07.17-4.83-.86-6.27C25,71.63,28.42,71.13,29.3,72.48Z"/><path class="cls-4" d="M26.06,30.7c-.23,3.14-.58,6.16-1.08,9.11v0a94,94,0,0,1-2.17,9.81c-.9,3.31-2,6.65-3.28,10.14-.53,1.43-1,2.79-1.42,4.1a52.92,52.92,0,0,0-1.5,5.46,31.54,31.54,0,0,0-.79,7.31q0,1.14.09,2.33a37.22,37.22,0,0,0,.73,5.18l-2.52,0a40.69,40.69,0,0,1-.68-4.4h0a30.5,30.5,0,0,1-.14-4.82,29.76,29.76,0,0,1,.28-3.05,34.62,34.62,0,0,1,1-4.79c.44-1.74,1-3.55,1.71-5.46.23-.67.46-1.34.72-2q.87-2.4,1.64-4.7T20,50.38c.64-2.19,1.19-4.36,1.65-6.55s.89-4.6,1.2-7c.22-1.62.4-3.24.53-4.92C24.26,31.51,25.16,31.11,26.06,30.7Z"/><path class="cls-4" d="M21.81,72.78c1,1.44,1.09,4.2.86,6.27-2.65.85-5.29,1-6.39-.09l-.38,0q-.09-1.19-.09-2.33l.36,0C16.46,75.39,19,73.82,21.81,72.78Z"/><path class="cls-4" d="M21.48,43.8l.14,0c-.46,2.19-1,4.36-1.65,6.55-1.24-.73-2.65-1.23-3.85-2-2.39-1.21-4.39-3.58-5.93-5.63a14.46,14.46,0,0,1,0-4.31q4.26-2.22,8.6-4.29l.54,1.28C20.43,38.1,21.62,40.89,21.48,43.8Z"/><path class="cls-4" d="M18.68,33.83a2.54,2.54,0,0,1,.14.31q-4.34,2.07-8.6,4.29A15.29,15.29,0,0,1,11,35.29c1.54-3.87,2.93-5.37,5.77-5.71A43.81,43.81,0,0,1,18.68,33.83Z"/><path class="cls-4" d="M16.16,61.6l.09,0c-.69,1.91-1.27,3.72-1.71,5.46-3.18.84-6.7-2-9.15-4.7-2.26-5,1.72-11.78,6.51-11.5a23.75,23.75,0,0,1,2.26,2.95A11.12,11.12,0,0,1,16.16,61.6Z"/><path class="cls-4" d="M13.41,79.75l-.29,0c-1.7.71-4.73.09-6.42-.65-.09-.05-.19-.1-.31-.19-1.21-2.29-1.07-5.67.58-7.38a19.32,19.32,0,0,1,2.51.95,8.92,8.92,0,0,1,3.66,2.42h.12A30.5,30.5,0,0,0,13.41,79.75Z"/><path class="cls-4" d="M16.73,29.58c-2.83.34-4.22,1.84-5.77,5.71a15.29,15.29,0,0,0-.75,3.14c-.73.34-1.44.72-2.15,1.09a16.53,16.53,0,0,1-2.51-9.65C6,25.75,8,22.25,12.39,24.59,14.15,25.48,15.57,27.44,16.73,29.58Z"/><path class="cls-4" d="M11.89,50.88c-4.8-.27-8.78,6.52-6.51,11.5a27.69,27.69,0,0,1-2.19-2.81C1,56.28-.41,52.63.1,48.63c.39-3.76,2.21-3.51,5.47-2.38a13.8,13.8,0,0,1,5.1,3.36A16.91,16.91,0,0,1,11.89,50.88Z"/><path class="cls-4" d="M10.19,42.74l-.09-.1a30.21,30.21,0,0,1-2-3.12c.71-.37,1.42-.75,2.15-1.09A14.46,14.46,0,0,0,10.19,42.74Z"/><path class="cls-4" d="M7,71.56c-1.65,1.72-1.79,5.1-.58,7.38C4.54,77.74-.06,73.61,2,71.46,2.77,70.65,4.83,70.88,7,71.56Z"/></svg>