<svg id="Layer_1" data-name="Layer 1" xmlns="http://www.w3.org/2000/svg" xmlns:xlink="http://www.w3.org/1999/xlink" viewBox="0 0 170.27 167.88"><defs><style>.cls-1{fill:none;}.cls-2{clip-path:url(#clip-path);}.cls-3{clip-path:url(#clip-path-2);}.cls-4{fill:#468ec9;}.cls-5{fill:#3d7aad;}.cls-6{fill:#80cfff;}.cls-7{fill:#5baaec;}</style><clipPath id="clip-path"><rect class="cls-1" x="-415.18" y="1396.22" width="2079.19" height="373.17"/></clipPath><clipPath id="clip-path-2"><rect class="cls-1" x="-1183.76" y="1396.22" width="3582.94" height="525.81"/></clipPath></defs><title>room_svg_png</title><g class="cls-2"><g class="cls-3"><polygon class="cls-4" points="142.47 192.17 73.99 244.81 5.52 192.17 73.99 139.53 142.47 192.17"/><polygon class="cls-5" points="210.94 139.53 142.47 192.17 73.99 139.53 142.47 86.89 210.94 139.53"/><polygon class="cls-4" points="279.41 86.89 210.94 139.53 142.47 86.89 210.94 34.25 279.41 86.89"/><polygon class="cls-4" points="279.41 192.17 210.94 244.81 142.47 192.17 210.94 139.53 279.41 192.17"/></g></g><path class="cls-5" d="M137.35,43.78,94.86,6.18s0-.07,0-.1A6.06,6.06,0,0,0,83,4.2L37.79,43.78H4.87v124H170.27v-124ZM82.84,7.34a6.06,6.06,0,0,0,11.4,1.39l39,35.05H42Z"/><rect class="cls-6" x="19.47" y="58.37" width="136.21" height="92.43"/><polygon class="cls-6" points="19.47 100.71 61.77 58.4 88.54 58.4 19.47 127.47 19.47 100.71"/><polygon class="cls-6" points="122.19 150.8 155.67 117.31 155.67 96.13 101 150.8 122.19 150.8"/><polygon class="cls-6" points="19.29 136.31 19.21 150.41 88.28 150.8 155.66 84.17 155.81 58.76 97.03 58.43 19.29 136.31"/><path class="cls-7" d="M.81,43.87H4.87a0,0,0,0,1,0,0v124a0,0,0,0,1,0,0H0a0,0,0,0,1,0,0V44.68A.81.81,0,0,1,.81,43.87Z"/><g id="_Группа_89" data-name=" Группа 89"><g id="_Группа_90" data-name=" Группа 90"><g id="_Группа_91" data-name=" Группа 91"><path id="_Контур_104" data-name=" Контур 104" class="cls-7" d="M87.92,138.63c30.7,0,55.54-10.28,55.54-22.89s-25-24.19-55.54-22.89C58.39,94,47.47,99.09,44,102.34c-4.29,3.9-5.59,13.4-5.59,13.4"/><path id="_Контур_105" data-name=" Контур 105" class="cls-7" d="M87.92,92.71c30.7,0,55.54,10.28,55.54,22.89s-25,24.19-55.54,22.89c-29.53-1.17-40.45-6.37-44-9.5-4.29-3.9-5.59-13.4-5.59-13.4"/></g><path id="_Контур_106" data-name=" Контур 106" class="cls-7" d="M44.6,123.15l15.09,7h0a16.79,16.79,0,0,1-22.24,8.06Z"/><path id="_Контур_107" data-name=" Контур 107" class="cls-7" d="M44.6,127.18l10.15,4.68a11.12,11.12,0,0,1-14.83,5.33Z"/><path id="_Контур_108" data-name=" Контур 108" class="cls-7" d="M44.73,108.45l15.09-7h0a16.79,16.79,0,0,0-22.24-8.06Z"/><path id="_Контур_109" data-name=" Контур 109" class="cls-7" d="M29.39,102.47c8.32,0,15.09,5.85,15.09,13.14s-6.76,13.14-15.09,13.14"/><polygon id="_Контур_110" data-name=" Контур 110" class="cls-7" points="94.94 75.67 99.23 65.66 107.82 65.66 107.82 85.56 99.23 85.56 94.94 75.67"/><ellipse id="_Контур_111" data-name=" Контур 111" class="cls-7" cx="90.91" cy="92.06" rx="11.06" ry="4.42"/><ellipse id="_Контур_112" data-name=" Контур 112" class="cls-7" cx="90.91" cy="94.53" rx="14.83" ry="5.98"/><path id="_Контур_113" data-name=" Контур 113" class="cls-7" d="M103.92,67.22h0a8.45,8.45,0,0,1,0,16.91"/><path id="_Контур_114" data-name=" Контур 114" class="cls-7" d="M105.35,80H98.19a2.94,2.94,0,0,0-3,3v7.8l-8.58,3.51V77.62a6.24,6.24,0,0,1,6.24-6.24H105"/><g id="_Группа_92" data-name=" Группа 92"><path id="_Контур_115" data-name=" Контур 115" class="cls-7" d="M87.27,136.42c29.66,0,54-9.23,54-20.68s-23.93-22-53.46-20.81c-28.48,1.17-39,5.85-42.4,8.71-4.16,3.51-5.33,12.1-5.33,12.1"/><path id="_Контур_116" data-name=" Контур 116" class="cls-7" d="M87.79,94.79c29.53,0,53.46,9.36,53.46,20.81s-23.93,22-53.46,20.81c-28.48-1.17-39-5.85-42.4-8.71-4.16-3.51-5.33-12.1-5.33-12.1"/></g><g id="_Группа_93" data-name=" Группа 93"><path id="_Контур_117" data-name=" Контур 117" class="cls-7" d="M141.25,115.6c0,11.45-23.93,22-53.46,20.81-28.48-1.17-39-5.85-42.4-8.71-4.16-3.51-5.33-12.1-5.33-12.1"/></g><ellipse id="_Контур_118" data-name=" Контур 118" class="cls-7" cx="90.91" cy="95.7" rx="14.18" ry="5.07"/><ellipse id="_Контур_119" data-name=" Контур 119" class="cls-7" cx="90.91" cy="93.23" rx="10.67" ry="3.77"/><circle id="_Контур_120" data-name=" Контур 120" class="cls-6" cx="77.9" cy="115.6" r="7.54"/><circle id="_Контур_121" data-name=" Контур 121" class="cls-6" cx="103.4" cy="115.6" r="7.54"/><path id="_Контур_122" data-name=" Контур 122" class="cls-7" d="M104.18,68.91h.65a6.77,6.77,0,0,1-.52,13.53"/><polygon id="_Контур_123" data-name=" Контур 123" class="cls-7" points="96.63 75.8 100.27 67.22 106.78 67.22 106.78 84.26 100.27 84.26 96.63 75.8"/><path id="_Контур_124" data-name=" Контур 124" class="cls-7" d="M31.34,104.55h0a11.12,11.12,0,1,1-.13,22.24"/><path id="_Контур_125" data-name=" Контур 125" class="cls-7" d="M44.86,104.42,55,99.74h0A11.12,11.12,0,0,0,40.18,94.4Z"/><g id="_Группа_94" data-name=" Группа 94"><circle id="_Контур_126" data-name=" Контур 126" class="cls-7" cx="103.4" cy="108.06" r="0.91"/><circle id="_Контур_127" data-name=" Контур 127" class="cls-7" cx="103.4" cy="123.15" r="0.91"/><circle id="_Контур_128" data-name=" Контур 128" class="cls-7" cx="95.85" cy="115.47" r="0.91"/><circle id="_Контур_129" data-name=" Контур 129" class="cls-7" cx="110.94" cy="115.47" r="0.91"/><circle id="_Контур_130" data-name=" Контур 130" class="cls-7" cx="108.7" cy="110.24" r="0.91" transform="translate(-46.11 109.15) rotate(-45)"/><circle id="_Контур_131" data-name=" Контур 131" class="cls-7" cx="98.05" cy="120.92" r="0.91" transform="translate(-56.79 104.75) rotate(-45)"/><circle id="_Контур_132" data-name=" Контур 132" class="cls-7" cx="98.03" cy="110.24" r="0.91" transform="translate(-49.24 101.6) rotate(-45)"/><circle id="_Контур_133" data-name=" Контур 133" class="cls-7" cx="108.72" cy="120.89" r="0.91" transform="translate(-53.64 112.28) rotate(-45)"/></g><g id="_Группа_95" data-name=" Группа 95"><circle id="_Контур_134" data-name=" Контур 134" class="cls-7" cx="77.9" cy="108.06" r="0.91"/><circle id="_Контур_135" data-name=" Контур 135" class="cls-7" cx="77.9" cy="123.15" r="0.91"/><circle id="_Контур_136" data-name=" Контур 136" class="cls-7" cx="70.36" cy="115.47" r="0.91"/><circle id="_Контур_137" data-name=" Контур 137" class="cls-7" cx="85.45" cy="115.47" r="0.91"/><circle id="_Контур_138" data-name=" Контур 138" class="cls-7" cx="83.22" cy="110.22" r="0.91" transform="translate(-53.56 91.13) rotate(-45)"/><circle id="_Контур_139" data-name=" Контур 139" class="cls-7" cx="72.56" cy="120.91" r="0.91" transform="translate(-64.25 86.72) rotate(-45)"/><circle id="_Контур_140" data-name=" Контур 140" class="cls-7" cx="72.63" cy="110.13" r="0.91" transform="translate(-56.6 83.61) rotate(-45)"/><circle id="_Контур_141" data-name=" Контур 141" class="cls-7" cx="83.32" cy="120.97" r="0.91" transform="translate(-61.13 94.35) rotate(-45)"/></g><polygon id="_Контур_142" data-name=" Контур 142" class="cls-7" points="100.27 67.22 96.63 75.8 100.27 84.26 101.58 84.26 101.58 67.22 100.27 67.22"/><rect id="_Прямоугольник_4" data-name=" Прямоугольник 4" class="cls-7" x="95.2" y="72.16" width="2.99" height="7.15"/><rect id="_Прямоугольник_5" data-name=" Прямоугольник 5" class="cls-7" x="87.4" y="85.04" width="7.15" height="1.04"/><rect id="_Прямоугольник_6" data-name=" Прямоугольник 6" class="cls-7" x="87.4" y="87.25" width="7.15" height="1.04"/><rect id="_Прямоугольник_7" data-name=" Прямоугольник 7" class="cls-7" x="121.61" y="98.7" width="2.47" height="34.08"/><rect id="_Прямоугольник_8" data-name=" Прямоугольник 8" class="cls-7" x="57.09" y="97" width="2.47" height="37.07"/></g></g></svg>