<svg id="Layer_1" data-name="Layer 1" xmlns="http://www.w3.org/2000/svg" viewBox="0 0 1241 64"><defs><style>.cls-1{fill:#468ec9;}.cls-2{fill:none;}</style></defs><title>toktok</title><rect class="cls-1" y="49.56" width="73" height="14.44"/><ellipse class="cls-1" cx="18.01" cy="35.28" rx="6.21" ry="6.27"/><ellipse class="cls-1" cx="30.43" cy="35.28" rx="6.21" ry="6.27"/><ellipse class="cls-1" cx="42.86" cy="35.28" rx="6.21" ry="6.27"/><ellipse class="cls-1" cx="55.29" cy="35.28" rx="6.21" ry="6.27"/><rect class="cls-1" x="17.6" y="5.98" width="0.81" height="27.4"/><rect class="cls-1" x="30.03" y="5.98" width="0.81" height="27.4"/><rect class="cls-1" x="42.46" y="5.98" width="0.81" height="27.4"/><rect class="cls-1" x="54.88" y="5.98" width="0.81" height="27.4"/><rect class="cls-1" x="0.93" width="72.07" height="5.98"/><rect class="cls-1" width="0.94" height="62.48"/><rect class="cls-1" x="72.06" width="0.94" height="62.48"/><rect class="cls-1" x="292.08" y="49.56" width="73" height="14.44"/><path class="cls-1" d="M304.41,34.85a6.19,6.19,0,0,1-8.11,3.3l-.06,0A6.3,6.3,0,0,1,293,29.88a6.19,6.19,0,0,1,8.11-3.3l.06,0A6.3,6.3,0,0,1,304.41,34.85Z" transform="translate(-0.06 -0.17)"/><ellipse class="cls-1" cx="322.51" cy="35.28" rx="6.21" ry="6.27"/><ellipse class="cls-1" cx="334.94" cy="35.28" rx="6.21" ry="6.27"/><ellipse class="cls-1" cx="347.37" cy="35.28" rx="6.21" ry="6.27"/><line class="cls-2" x1="299.39" y1="30.44" x2="310.72" y2="3.93"/><polygon class="cls-1" points="299.76 30.61 299.01 30.28 310.35 3.77 311.09 4.09 299.76 30.61"/><rect class="cls-1" x="322.11" y="5.98" width="0.81" height="27.4"/><rect class="cls-1" x="334.54" y="5.98" width="0.81" height="27.4"/><rect class="cls-1" x="346.96" y="5.98" width="0.81" height="27.4"/><rect class="cls-1" x="293.01" width="72.07" height="5.98"/><rect class="cls-1" x="292.08" width="0.94" height="62.48"/><rect class="cls-1" x="364.14" width="0.94" height="62.48"/><rect class="cls-1" x="17.21" y="5.54" width="1.65" height="24.48"/><rect class="cls-1" x="0.11" y="5.54" width="1.65" height="44.41"/><rect class="cls-1" x="71.36" y="5.54" width="1.65" height="44.41"/><rect class="cls-1" x="73.11" y="5.54" width="1.65" height="44.41"/><rect class="cls-1" x="290.39" y="5.54" width="1.65" height="44.41"/><rect class="cls-1" x="292.15" y="5.54" width="1.65" height="44.41"/><rect class="cls-1" x="363.38" y="5.54" width="1.65" height="44.41"/><rect class="cls-1" x="365.13" y="5.54" width="1.65" height="44.41"/><rect class="cls-1" x="217.36" y="5.54" width="1.65" height="44.41"/><rect class="cls-1" x="219.12" y="5.54" width="1.65" height="44.41"/><rect class="cls-1" x="29.61" y="5.54" width="1.65" height="24.48"/><rect class="cls-1" x="42.04" y="5.54" width="1.65" height="24.48"/><rect class="cls-1" x="54.46" y="5.54" width="1.65" height="24.48"/><rect class="cls-1" x="583.94" y="49.56" width="73" height="14.44"/><ellipse class="cls-1" cx="601.95" cy="35.28" rx="6.21" ry="6.27"/><ellipse class="cls-1" cx="614.38" cy="35.28" rx="6.21" ry="6.27"/><ellipse class="cls-1" cx="626.81" cy="35.28" rx="6.21" ry="6.27"/><ellipse class="cls-1" cx="639.23" cy="35.28" rx="6.21" ry="6.27"/><rect class="cls-1" x="601.55" y="5.98" width="0.81" height="27.4"/><rect class="cls-1" x="613.97" y="5.98" width="0.81" height="27.4"/><rect class="cls-1" x="626.4" y="5.98" width="0.81" height="27.4"/><rect class="cls-1" x="638.83" y="5.98" width="0.81" height="27.4"/><rect class="cls-1" x="584.88" width="72.07" height="5.98"/><rect class="cls-1" x="583.94" width="0.94" height="62.48"/><rect class="cls-1" x="656.01" width="0.94" height="62.48"/><rect class="cls-1" x="601.15" y="5.54" width="1.65" height="24.48"/><rect class="cls-1" x="613.55" y="5.54" width="1.65" height="24.48"/><rect class="cls-1" x="625.98" y="5.54" width="1.65" height="24.48"/><rect class="cls-1" x="638.41" y="5.54" width="1.65" height="24.48"/><rect class="cls-1" x="102.61" y="5.54" width="1.65" height="24.48"/><rect class="cls-1" x="115.04" y="5.54" width="1.65" height="24.48"/><rect class="cls-1" x="127.47" y="5.54" width="1.65" height="24.48"/><rect class="cls-1" x="146.01" y="49.56" width="73" height="14.44"/><path class="cls-1" d="M166.1,36.22a6.22,6.22,0,1,1,0-.06Z" transform="translate(-0.06 -0.17)"/><ellipse class="cls-1" cx="176.44" cy="35.28" rx="6.21" ry="6.27"/><ellipse class="cls-1" cx="188.87" cy="35.28" rx="6.21" ry="6.27"/><ellipse class="cls-1" cx="201.3" cy="35.28" rx="6.21" ry="6.27"/><rect class="cls-1" x="176.04" y="5.98" width="0.81" height="27.4"/><rect class="cls-1" x="188.47" y="5.98" width="0.81" height="27.4"/><rect class="cls-1" x="200.89" y="5.98" width="0.81" height="27.4"/><rect class="cls-1" x="146.94" width="72.07" height="5.98"/><rect class="cls-1" x="146.01" width="0.94" height="62.48"/><rect class="cls-1" x="218.07" width="0.94" height="62.48"/><rect class="cls-1" x="146.12" y="5.54" width="1.65" height="44.41"/><polygon class="cls-1" points="161.52 30.02 159.89 29.79 163.25 5.55 164.88 5.78 161.52 30.02"/><rect class="cls-1" x="219.04" y="49.56" width="73" height="14.44"/><path class="cls-1" d="M234.44,35.28a6.2,6.2,0,0,1-7.75,4.09h0a6.29,6.29,0,0,1-4-7.88,6.2,6.2,0,0,1,7.75-4.09h0A6.29,6.29,0,0,1,234.44,35.28Z" transform="translate(-0.06 -0.17)"/><ellipse class="cls-1" cx="249.47" cy="35.28" rx="6.21" ry="6.27"/><ellipse class="cls-1" cx="261.9" cy="35.28" rx="6.21" ry="6.27"/><ellipse class="cls-1" cx="274.33" cy="35.28" rx="6.21" ry="6.27"/><rect class="cls-1" x="249.07" y="5.98" width="0.81" height="27.4"/><rect class="cls-1" x="261.5" y="5.98" width="0.81" height="27.4"/><rect class="cls-1" x="273.92" y="5.98" width="0.81" height="27.4"/><rect class="cls-1" x="219.97" width="72.07" height="5.98"/><rect class="cls-1" x="219.04" width="0.94" height="62.48"/><rect class="cls-1" x="291.1" width="0.94" height="62.48"/><polygon class="cls-1" points="230.91 28.41 229.33 27.91 236.59 4.55 238.16 5.05 230.91 28.41"/><rect class="cls-1" x="73" y="49.56" width="73" height="14.44"/><path class="cls-1" d="M95.06,35.7a6.23,6.23,0,1,1,0-.08Z" transform="translate(-0.06 -0.17)"/><ellipse class="cls-1" cx="103.44" cy="35.28" rx="6.21" ry="6.27"/><ellipse class="cls-1" cx="115.87" cy="35.28" rx="6.21" ry="6.27"/><ellipse class="cls-1" cx="128.29" cy="35.28" rx="6.21" ry="6.27"/><rect class="cls-1" x="103.03" y="5.98" width="0.81" height="27.4"/><rect class="cls-1" x="115.46" y="5.98" width="0.81" height="27.4"/><rect class="cls-1" x="127.89" y="5.98" width="0.81" height="27.4"/><rect class="cls-1" x="73.94" width="72.07" height="5.98"/><rect class="cls-1" x="73" width="0.94" height="62.48"/><rect class="cls-1" x="145.07" width="0.94" height="62.48"/><rect class="cls-1" x="102.61" y="5.54" width="1.65" height="24.48"/><polygon class="cls-1" points="90.02 29.87 88.38 29.77 89.83 5.33 91.48 5.44 90.02 29.87"/><rect class="cls-1" x="115.04" y="5.54" width="1.65" height="24.48"/><rect class="cls-1" x="127.47" y="5.54" width="1.65" height="24.48"/><rect class="cls-1" x="511.04" y="49.56" width="73" height="14.44"/><path class="cls-1" d="M533.1,35.7a6.23,6.23,0,1,1,0-.08Z" transform="translate(-0.06 -0.17)"/><ellipse class="cls-1" cx="541.48" cy="35.28" rx="6.21" ry="6.27"/><ellipse class="cls-1" cx="553.91" cy="35.28" rx="6.21" ry="6.27"/><ellipse class="cls-1" cx="566.33" cy="35.28" rx="6.21" ry="6.27"/><rect class="cls-1" x="541.07" y="5.98" width="0.81" height="27.4"/><rect class="cls-1" x="553.5" y="5.98" width="0.81" height="27.4"/><rect class="cls-1" x="565.93" y="5.98" width="0.81" height="27.4"/><rect class="cls-1" x="511.98" width="72.07" height="5.98"/><rect class="cls-1" x="511.04" width="0.94" height="62.48"/><rect class="cls-1" x="583.11" width="0.94" height="62.48"/><rect class="cls-1" x="540.65" y="5.54" width="1.65" height="24.48"/><polygon class="cls-1" points="528.06 29.87 526.42 29.77 527.87 5.33 529.52 5.44 528.06 29.87"/><rect class="cls-1" x="553.08" y="5.54" width="1.65" height="24.48"/><rect class="cls-1" x="565.51" y="5.54" width="1.65" height="24.48"/><rect class="cls-1" x="175.62" y="5.54" width="1.65" height="24.48"/><rect class="cls-1" x="188.05" y="5.54" width="1.65" height="24.48"/><rect class="cls-1" x="200.47" y="5.54" width="1.65" height="24.48"/><rect class="cls-1" x="438.01" y="49.56" width="73" height="14.44"/><path class="cls-1" d="M458.11,36.22a6.22,6.22,0,1,1,0-.06Z" transform="translate(-0.06 -0.17)"/><ellipse class="cls-1" cx="468.45" cy="35.28" rx="6.21" ry="6.27"/><ellipse class="cls-1" cx="480.88" cy="35.28" rx="6.21" ry="6.27"/><ellipse class="cls-1" cx="493.31" cy="35.28" rx="6.21" ry="6.27"/><rect class="cls-1" x="468.05" y="5.98" width="0.81" height="27.4"/><rect class="cls-1" x="480.47" y="5.98" width="0.81" height="27.4"/><rect class="cls-1" x="492.9" y="5.98" width="0.81" height="27.4"/><rect class="cls-1" x="438.95" width="72.07" height="5.98"/><rect class="cls-1" x="438.01" width="0.94" height="62.48"/><rect class="cls-1" x="510.08" width="0.94" height="62.48"/><polygon class="cls-1" points="453.53 30.02 451.9 29.79 455.25 5.55 456.89 5.78 453.53 30.02"/><rect class="cls-1" x="467.63" y="5.54" width="1.65" height="24.48"/><rect class="cls-1" x="480.05" y="5.54" width="1.65" height="24.48"/><rect class="cls-1" x="492.48" y="5.54" width="1.65" height="24.48"/><rect class="cls-1" x="248.65" y="5.54" width="1.65" height="24.48"/><rect class="cls-1" x="261.08" y="5.54" width="1.65" height="24.48"/><rect class="cls-1" x="273.5" y="5.54" width="1.65" height="24.48"/><rect class="cls-1" x="363.38" y="5.54" width="1.65" height="44.41"/><rect class="cls-1" x="365.13" y="5.54" width="1.65" height="44.41"/><rect class="cls-1" x="436.35" y="5.54" width="1.65" height="44.41"/><rect class="cls-1" x="438.11" y="5.54" width="1.65" height="44.41"/><rect class="cls-1" x="509.45" y="5.54" width="1.65" height="44.41"/><rect class="cls-1" x="511.21" y="5.54" width="1.65" height="44.41"/><rect class="cls-1" x="581.87" y="5.54" width="1.65" height="44.41"/><rect class="cls-1" x="583.63" y="5.54" width="1.65" height="44.41"/><rect class="cls-1" x="365.05" y="49.56" width="73" height="14.44"/><path class="cls-1" d="M380.45,35.28a6.2,6.2,0,0,1-7.75,4.09h0a6.29,6.29,0,0,1-4-7.88,6.2,6.2,0,0,1,7.75-4.09h0A6.29,6.29,0,0,1,380.45,35.28Z" transform="translate(-0.06 -0.17)"/><ellipse class="cls-1" cx="395.49" cy="35.28" rx="6.21" ry="6.27"/><ellipse class="cls-1" cx="407.92" cy="35.28" rx="6.21" ry="6.27"/><ellipse class="cls-1" cx="420.34" cy="35.28" rx="6.21" ry="6.27"/><rect class="cls-1" x="395.08" y="5.98" width="0.81" height="27.4"/><rect class="cls-1" x="407.51" y="5.98" width="0.81" height="27.4"/><rect class="cls-1" x="419.94" y="5.98" width="0.81" height="27.4"/><rect class="cls-1" x="365.99" width="72.07" height="5.98"/><rect class="cls-1" x="365.05" width="0.94" height="62.48"/><rect class="cls-1" x="437.12" width="0.94" height="62.48"/><polygon class="cls-1" points="376.92 28.41 375.35 27.91 382.6 4.55 384.18 5.05 376.92 28.41"/><rect class="cls-1" x="394.66" y="5.54" width="1.65" height="24.48"/><rect class="cls-1" x="407.09" y="5.54" width="1.65" height="24.48"/><rect class="cls-1" x="419.52" y="5.54" width="1.65" height="24.48"/><rect class="cls-1" x="321.69" y="5.54" width="1.65" height="24.48"/><rect class="cls-1" x="334.12" y="5.54" width="1.65" height="24.48"/><rect class="cls-1" x="346.54" y="5.54" width="1.65" height="24.48"/><polygon class="cls-1" points="301.5 27.34 299.99 26.68 309.59 4.2 311.1 4.86 301.5 27.34"/><rect class="cls-1" x="1168" y="49.56" width="73" height="14.44"/><ellipse class="cls-1" cx="1222.99" cy="35.28" rx="6.21" ry="6.27"/><ellipse class="cls-1" cx="1210.56" cy="35.28" rx="6.21" ry="6.27"/><ellipse class="cls-1" cx="1198.13" cy="35.28" rx="6.21" ry="6.27"/><ellipse class="cls-1" cx="1185.7" cy="35.28" rx="6.21" ry="6.27"/><line class="cls-2" x1="1222.99" y1="33.38" x2="1222.99" y2="5.98"/><rect class="cls-1" x="1222.58" y="5.98" width="0.81" height="27.4"/><line class="cls-2" x1="1210.56" y1="33.38" x2="1210.56" y2="5.98"/><rect class="cls-1" x="1210.15" y="5.98" width="0.81" height="27.4"/><line class="cls-2" x1="1198.13" y1="33.38" x2="1198.13" y2="5.98"/><rect class="cls-1" x="1197.73" y="5.98" width="0.81" height="27.4"/><line class="cls-2" x1="1185.7" y1="33.38" x2="1185.7" y2="5.98"/><rect class="cls-1" x="1185.3" y="5.98" width="0.81" height="27.4"/><rect class="cls-1" x="1167.99" width="72.07" height="5.98"/><rect class="cls-1" x="1240.06" width="0.94" height="62.48"/><rect class="cls-1" x="1167.99" width="0.94" height="62.48"/><rect class="cls-1" x="875.92" y="49.56" width="73" height="14.44"/><path class="cls-1" d="M936.71,34.85a6.19,6.19,0,0,0,8.11,3.3l.06,0a6.3,6.3,0,0,0,3.24-8.25,6.19,6.19,0,0,0-8.11-3.3l-.06,0A6.3,6.3,0,0,0,936.71,34.85Z" transform="translate(-0.06 -0.17)"/><ellipse class="cls-1" cx="918.48" cy="35.28" rx="6.21" ry="6.27"/><ellipse class="cls-1" cx="906.05" cy="35.28" rx="6.21" ry="6.27"/><ellipse class="cls-1" cx="893.62" cy="35.28" rx="6.21" ry="6.27"/><line class="cls-2" x1="941.6" y1="30.44" x2="930.27" y2="3.93"/><polygon class="cls-1" points="941.23 30.61 941.98 30.28 930.65 3.77 929.9 4.09 941.23 30.61"/><line class="cls-2" x1="918.48" y1="33.38" x2="918.48" y2="5.98"/><rect class="cls-1" x="918.07" y="5.98" width="0.81" height="27.4"/><line class="cls-2" x1="906.05" y1="33.38" x2="906.05" y2="5.98"/><rect class="cls-1" x="905.65" y="5.98" width="0.81" height="27.4"/><line class="cls-2" x1="893.62" y1="33.38" x2="893.62" y2="5.98"/><rect class="cls-1" x="893.22" y="5.98" width="0.81" height="27.4"/><rect class="cls-1" x="875.91" width="72.07" height="5.98"/><rect class="cls-1" x="947.98" width="0.94" height="62.48"/><rect class="cls-1" x="875.91" width="0.94" height="62.48"/><rect class="cls-1" x="1222.14" y="5.54" width="1.65" height="24.48"/><rect class="cls-1" x="1239.24" y="5.55" width="1.65" height="44.41"/><rect class="cls-1" x="1167.98" y="5.55" width="1.65" height="44.41"/><rect class="cls-1" x="1166.23" y="5.55" width="1.65" height="44.41"/><rect class="cls-1" x="948.95" y="5.55" width="1.65" height="44.41"/><rect class="cls-1" x="947.2" y="5.55" width="1.65" height="44.41"/><rect class="cls-1" x="875.96" y="5.55" width="1.65" height="44.41"/><rect class="cls-1" x="874.21" y="5.55" width="1.65" height="44.41"/><rect class="cls-1" x="1021.98" y="5.55" width="1.65" height="44.41"/><rect class="cls-1" x="1020.23" y="5.55" width="1.65" height="44.41"/><rect class="cls-1" x="1209.74" y="5.54" width="1.65" height="24.48"/><rect class="cls-1" x="1197.3" y="5.54" width="1.65" height="24.48"/><rect class="cls-1" x="1184.88" y="5.54" width="1.65" height="24.48"/><rect class="cls-1" x="1136.73" y="5.54" width="1.65" height="24.48"/><rect class="cls-1" x="1124.3" y="5.54" width="1.65" height="24.48"/><rect class="cls-1" x="1111.88" y="5.54" width="1.65" height="24.48"/><rect class="cls-1" x="1021.99" y="49.56" width="73" height="14.44"/><path class="cls-1" d="M1075,36.22a6.22,6.22,0,1,0,0-.06Z" transform="translate(-0.06 -0.17)"/><ellipse class="cls-1" cx="1064.55" cy="35.28" rx="6.21" ry="6.27"/><ellipse class="cls-1" cx="1052.12" cy="35.28" rx="6.21" ry="6.27"/><ellipse class="cls-1" cx="1039.69" cy="35.28" rx="6.21" ry="6.27"/><line class="cls-2" x1="1064.55" y1="33.38" x2="1064.55" y2="5.98"/><rect class="cls-1" x="1064.14" y="5.98" width="0.81" height="27.4"/><line class="cls-2" x1="1052.12" y1="33.38" x2="1052.12" y2="5.98"/><rect class="cls-1" x="1051.72" y="5.98" width="0.81" height="27.4"/><line class="cls-2" x1="1039.69" y1="33.38" x2="1039.69" y2="5.98"/><rect class="cls-1" x="1039.29" y="5.98" width="0.81" height="27.4"/><rect class="cls-1" x="1021.98" width="72.07" height="5.98"/><rect class="cls-1" x="1094.05" width="0.94" height="62.48"/><rect class="cls-1" x="1021.98" width="0.94" height="62.48"/><rect class="cls-1" x="1093.23" y="5.55" width="1.65" height="44.41"/><polygon class="cls-1" points="1079.47 30.02 1081.1 29.79 1077.75 5.55 1076.11 5.78 1079.47 30.02"/><rect class="cls-1" x="948.96" y="49.56" width="73" height="14.44"/><path class="cls-1" d="M1006.67,35.28a6.2,6.2,0,0,0,7.75,4.09h0a6.29,6.29,0,0,0,4-7.88,6.2,6.2,0,0,0-7.75-4.09h0A6.29,6.29,0,0,0,1006.67,35.28Z" transform="translate(-0.06 -0.17)"/><ellipse class="cls-1" cx="991.52" cy="35.28" rx="6.21" ry="6.27"/><ellipse class="cls-1" cx="979.09" cy="35.28" rx="6.21" ry="6.27"/><ellipse class="cls-1" cx="966.66" cy="35.28" rx="6.21" ry="6.27"/><line class="cls-2" x1="991.52" y1="33.38" x2="991.52" y2="5.98"/><rect class="cls-1" x="991.11" y="5.98" width="0.81" height="27.4"/><line class="cls-2" x1="979.09" y1="33.38" x2="979.09" y2="5.98"/><rect class="cls-1" x="978.69" y="5.98" width="0.81" height="27.4"/><line class="cls-2" x1="966.66" y1="33.38" x2="966.66" y2="5.98"/><rect class="cls-1" x="966.26" y="5.98" width="0.81" height="27.4"/><rect class="cls-1" x="948.95" width="72.07" height="5.98"/><rect class="cls-1" x="1021.02" width="0.94" height="62.48"/><rect class="cls-1" x="948.95" width="0.94" height="62.48"/><polygon class="cls-1" points="1010.09 28.41 1011.66 27.91 1004.4 4.55 1002.83 5.05 1010.09 28.41"/><rect class="cls-1" x="1094.99" y="49.56" width="73" height="14.44"/><path class="cls-1" d="M1146.05,35.7a6.21,6.21,0,1,0,5.81-6.66,6.21,6.21,0,0,0-5.81,6.66Z" transform="translate(-0.06 -0.17)"/><ellipse class="cls-1" cx="1137.55" cy="35.28" rx="6.21" ry="6.27"/><ellipse class="cls-1" cx="1125.13" cy="35.28" rx="6.21" ry="6.27"/><ellipse class="cls-1" cx="1112.7" cy="35.28" rx="6.21" ry="6.27"/><line class="cls-2" x1="1137.55" y1="33.38" x2="1137.55" y2="5.98"/><rect class="cls-1" x="1137.15" y="5.98" width="0.81" height="27.4"/><line class="cls-2" x1="1125.13" y1="33.38" x2="1125.13" y2="5.98"/><rect class="cls-1" x="1124.72" y="5.98" width="0.81" height="27.4"/><line class="cls-2" x1="1112.7" y1="33.38" x2="1112.7" y2="5.98"/><rect class="cls-1" x="1112.29" y="5.98" width="0.81" height="27.4"/><rect class="cls-1" x="1094.98" width="72.07" height="5.98"/><rect class="cls-1" x="1167.06" width="0.94" height="62.48"/><rect class="cls-1" x="1094.98" width="0.94" height="62.48"/><rect class="cls-1" x="1136.73" y="5.54" width="1.65" height="24.48"/><polygon class="cls-1" points="1150.97 29.87 1152.61 29.77 1151.16 5.33 1149.52 5.44 1150.97 29.87"/><rect class="cls-1" x="1124.3" y="5.54" width="1.65" height="24.48"/><rect class="cls-1" x="1111.87" y="5.54" width="1.65" height="24.48"/><rect class="cls-1" x="656.95" y="49.56" width="73" height="14.44"/><path class="cls-1" d="M708,35.7a6.23,6.23,0,1,0,0-.09Z" transform="translate(-0.06 -0.17)"/><ellipse class="cls-1" cx="699.51" cy="35.28" rx="6.21" ry="6.27"/><ellipse class="cls-1" cx="687.09" cy="35.28" rx="6.21" ry="6.27"/><ellipse class="cls-1" cx="674.66" cy="35.28" rx="6.21" ry="6.27"/><line class="cls-2" x1="699.51" y1="33.38" x2="699.51" y2="5.98"/><rect class="cls-1" x="699.11" y="5.98" width="0.81" height="27.4"/><line class="cls-2" x1="687.09" y1="33.38" x2="687.09" y2="5.98"/><rect class="cls-1" x="686.68" y="5.98" width="0.81" height="27.4"/><line class="cls-2" x1="674.66" y1="33.38" x2="674.66" y2="5.98"/><rect class="cls-1" x="674.25" y="5.98" width="0.81" height="27.4"/><rect class="cls-1" x="656.94" width="72.07" height="5.98"/><rect class="cls-1" x="729.02" width="0.94" height="62.48"/><rect class="cls-1" x="656.94" width="0.94" height="62.48"/><rect class="cls-1" x="698.69" y="5.54" width="1.65" height="24.48"/><polygon class="cls-1" points="712.93 29.87 714.57 29.77 713.12 5.33 711.48 5.44 712.93 29.87"/><rect class="cls-1" x="686.26" y="5.54" width="1.65" height="24.48"/><rect class="cls-1" x="673.84" y="5.54" width="1.65" height="24.48"/><rect class="cls-1" x="1063.73" y="5.54" width="1.65" height="24.48"/><rect class="cls-1" x="1051.29" y="5.54" width="1.65" height="24.48"/><rect class="cls-1" x="1038.86" y="5.54" width="1.65" height="24.48"/><rect class="cls-1" x="729.98" y="49.56" width="73" height="14.44"/><path class="cls-1" d="M783,36.22a6.22,6.22,0,1,0,0-.06Z" transform="translate(-0.06 -0.17)"/><ellipse class="cls-1" cx="772.54" cy="35.28" rx="6.21" ry="6.27"/><ellipse class="cls-1" cx="760.11" cy="35.28" rx="6.21" ry="6.27"/><ellipse class="cls-1" cx="747.68" cy="35.28" rx="6.21" ry="6.27"/><line class="cls-2" x1="772.54" y1="33.38" x2="772.54" y2="5.98"/><rect class="cls-1" x="772.14" y="5.98" width="0.81" height="27.4"/><line class="cls-2" x1="760.11" y1="33.38" x2="760.11" y2="5.98"/><rect class="cls-1" x="759.71" y="5.98" width="0.81" height="27.4"/><line class="cls-2" x1="747.68" y1="33.38" x2="747.68" y2="5.98"/><rect class="cls-1" x="747.28" y="5.98" width="0.81" height="27.4"/><rect class="cls-1" x="729.97" width="72.07" height="5.98"/><rect class="cls-1" x="802.04" width="0.94" height="62.48"/><rect class="cls-1" x="729.97" width="0.94" height="62.48"/><polygon class="cls-1" points="787.46 30.02 789.09 29.79 785.74 5.55 784.1 5.78 787.46 30.02"/><rect class="cls-1" x="771.71" y="5.54" width="1.65" height="24.48"/><rect class="cls-1" x="759.28" y="5.54" width="1.65" height="24.48"/><rect class="cls-1" x="746.86" y="5.54" width="1.65" height="24.48"/><rect class="cls-1" x="990.7" y="5.54" width="1.65" height="24.48"/><rect class="cls-1" x="978.26" y="5.54" width="1.65" height="24.48"/><rect class="cls-1" x="965.84" y="5.54" width="1.65" height="24.48"/><rect class="cls-1" x="875.96" y="5.55" width="1.65" height="44.41"/><rect class="cls-1" x="874.21" y="5.55" width="1.65" height="44.41"/><rect class="cls-1" x="802.99" y="5.55" width="1.65" height="44.41"/><rect class="cls-1" x="801.24" y="5.55" width="1.65" height="44.41"/><rect class="cls-1" x="729.89" y="5.55" width="1.65" height="44.41"/><rect class="cls-1" x="728.13" y="5.55" width="1.65" height="44.41"/><rect class="cls-1" x="802.94" y="49.56" width="73" height="14.44"/><path class="cls-1" d="M860.66,35.28a6.2,6.2,0,0,0,7.75,4.09h0a6.29,6.29,0,0,0,4-7.88,6.2,6.2,0,0,0-7.75-4.09h0A6.29,6.29,0,0,0,860.66,35.28Z" transform="translate(-0.06 -0.17)"/><ellipse class="cls-1" cx="845.5" cy="35.28" rx="6.21" ry="6.27"/><ellipse class="cls-1" cx="833.08" cy="35.28" rx="6.21" ry="6.27"/><ellipse class="cls-1" cx="820.65" cy="35.28" rx="6.21" ry="6.27"/><line class="cls-2" x1="845.5" y1="33.38" x2="845.5" y2="5.98"/><rect class="cls-1" x="845.1" y="5.98" width="0.81" height="27.4"/><line class="cls-2" x1="833.08" y1="33.38" x2="833.08" y2="5.98"/><rect class="cls-1" x="832.67" y="5.98" width="0.81" height="27.4"/><line class="cls-2" x1="820.65" y1="33.38" x2="820.65" y2="5.98"/><rect class="cls-1" x="820.24" y="5.98" width="0.81" height="27.4"/><rect class="cls-1" x="802.93" width="72.07" height="5.98"/><rect class="cls-1" x="875" width="0.94" height="62.48"/><rect class="cls-1" x="802.93" width="0.94" height="62.48"/><polygon class="cls-1" points="864.07 28.41 865.65 27.91 858.39 4.55 856.81 5.05 864.07 28.41"/><rect class="cls-1" x="844.68" y="5.54" width="1.65" height="24.48"/><rect class="cls-1" x="832.25" y="5.54" width="1.65" height="24.48"/><rect class="cls-1" x="819.82" y="5.54" width="1.65" height="24.48"/><rect class="cls-1" x="917.66" y="5.54" width="1.65" height="24.48"/><rect class="cls-1" x="905.22" y="5.54" width="1.65" height="24.48"/><rect class="cls-1" x="892.8" y="5.54" width="1.65" height="24.48"/><polygon class="cls-1" points="939.49 27.34 941 26.68 931.4 4.2 929.89 4.86 939.49 27.34"/><rect class="cls-1" x="655.23" y="5.54" width="1.65" height="44.41"/><rect class="cls-1" x="656.99" y="5.54" width="1.65" height="44.41"/><rect class="cls-1" x="1093.23" y="5.71" width="1.65" height="44.41"/><rect class="cls-1" x="1094.99" y="5.71" width="1.65" height="44.41"/><rect class="cls-1" x="144.3" y="5.33" width="1.65" height="44.41"/><rect class="cls-1" x="146.07" y="5.33" width="1.65" height="44.41"/></svg>