<svg id="Layer_1" data-name="Layer 1" xmlns="http://www.w3.org/2000/svg" xmlns:xlink="http://www.w3.org/1999/xlink" viewBox="0 0 20.43 20.43"><defs><style>.cls-1{fill:none;}.cls-2{clip-path:url(#clip-path);}.cls-3{clip-path:url(#clip-path-2);}.cls-4{clip-path:url(#clip-path-3);}.cls-5{clip-path:url(#clip-path-4);}.cls-6{fill:#c32622;}</style><clipPath id="clip-path"><rect class="cls-1" x="-2240.29" y="1259.52" width="2079.19" height="373.17"/></clipPath><clipPath id="clip-path-2"><rect class="cls-1" x="-3008.88" y="1259.52" width="3582.94" height="525.81"/></clipPath><clipPath id="clip-path-3"><rect class="cls-1" x="-74.56" y="1259.57" width="2079.19" height="373.12"/></clipPath><clipPath id="clip-path-4"><rect class="cls-1" x="-843.15" y="1259.57" width="3582.94" height="525.73"/></clipPath></defs><title>room_ellements</title><path class="cls-6" d="M14.52,20.43l-4.38-4.37-4.29,4.3L.08,14.59l4.29-4.3L0,5.92,5.92,0l4.37,4.37,4.3-4.3,5.76,5.76-4.3,4.3,4.37,4.37Z"/><path class="cls-6" d="M16.05,10.14l4.3-4.3L14.59.07l-4.3,4.3L5.92,0,0,5.92l4.37,4.37L.08,14.59l5.76,5.76,4.29-4.3,4.38,4.37,5.91-5.92Zm-5.92,4.44-4.29,4.3L1.56,14.59l4.3-4.3L1.49,5.92,5.92,1.49l4.37,4.37,4.3-4.3,4.27,4.27-4.29,4.3,4.37,4.37-4.42,4.42Z"/></svg>