<svg id="Layer_1" data-name="Layer 1" xmlns="http://www.w3.org/2000/svg" viewBox="0 0 47.19 47.19" width="47.19" height="47.19"><defs><style>.cls-1,.cls-2{fill:#f0f0f2;}.cls-1{opacity:0.2;}</style></defs><title>domick detals</title><rect class="cls-1" width="31.46" height="31.46" rx="2" ry="2"/><path class="cls-2" d="M11.18,22.81c-1-1-1.73-2.64-1.73-5.33,0-4.4,2.14-7.75,6.56-7.75a7.28,7.28,0,0,1,4.7,1.55l-1.84,2.76A4.44,4.44,0,0,0,16.06,13c-1.65,0-2.48,1.23-2.66,3a4.75,4.75,0,0,1,3-1.09,4.35,4.35,0,0,1,4.66,4.44c0,3.17-2.52,5.08-5.61,5.08A5.68,5.68,0,0,1,11.18,22.81Zm6.11-3.29a1.83,1.83,0,0,0-2-1.82,1.79,1.79,0,0,0-2,1.84,1.84,1.84,0,0,0,2,1.84A1.8,1.8,0,0,0,17.29,19.52Z"/></svg>