<svg id="Layer_1" data-name="Layer 1" xmlns="http://www.w3.org/2000/svg" viewBox="0 0 47.19 47.19" width="47.19" height="47.19"><defs><style>.cls-1,.cls-2{fill:#f0f0f2;}.cls-1{opacity:0.2;}</style></defs><title>domick detals</title><rect class="cls-1" width="31.46" height="31.46" rx="2" ry="2"/><path class="cls-2" d="M10.67,22.75,12.5,20a4.64,4.64,0,0,0,3,1.13c1.61,0,2.48-1.13,2.66-2.95a4.26,4.26,0,0,1-3,1.15c-2.74,0-4.74-1.69-4.74-4.5,0-3.13,2.4-5.14,5.63-5.14a5.53,5.53,0,0,1,4.34,1.65c1,1,1.7,2.62,1.7,5.27,0,4.62-2.3,7.77-6.54,7.77A7.62,7.62,0,0,1,10.67,22.75Zm7.58-8a1.88,1.88,0,0,0-2-1.92,1.9,1.9,0,1,0,0,3.79A1.83,1.83,0,0,0,18.25,14.7Z"/></svg>