<svg id="Layer_1" data-name="Layer 1" xmlns="http://www.w3.org/2000/svg" viewBox="0 0 47.19 47.19" width="47.19" height="47.19"><defs><style>.cls-1,.cls-2{fill:#f0f0f2;}.cls-1{opacity:0.2;}</style></defs><title>domick detals</title><rect class="cls-1" width="31.46" height="31.46" rx="2" ry="2"/><path class="cls-2" d="M9.34,22.18l2.24-2.62A5.37,5.37,0,0,0,15,21.1c1.29,0,2.08-.65,2.08-1.69s-.85-1.63-2.08-1.63a4.28,4.28,0,0,0-2.26.71l-2.32-1.29.4-7.16h9.44v3.23H13.92l-.12,2.14a5,5,0,0,1,2.26-.5c2.54,0,4.84,1.41,4.84,4.52s-2.4,5-5.83,5A7.92,7.92,0,0,1,9.34,22.18Z"/></svg>