<svg id="Layer_1" data-name="Layer 1" xmlns="http://www.w3.org/2000/svg" viewBox="0 0 47.19 47.19" width="47.19" height="47.19"><defs><style>.cls-1,.cls-2{fill:#f0f0f2;}.cls-1{opacity:0.2;}</style></defs><title>domick detals</title><rect class="cls-1" width="31.46" height="31.46" rx="2" ry="2"/><path class="cls-2" d="M10.44,20.21a3.47,3.47,0,0,1,2.42-3.39,3.37,3.37,0,0,1-1.94-3.11c0-2.26,2.16-3.93,5.33-3.93s5.33,1.67,5.33,4a3.36,3.36,0,0,1-1.94,3.07,3.54,3.54,0,0,1,2.42,3.41c0,2.52-2.42,4.16-5.81,4.16S10.44,22.71,10.44,20.21Zm7.85-.38c0-.91-.85-1.53-2-1.53s-2,.63-2,1.57.73,1.59,2,1.59S18.29,20.71,18.29,19.82ZM18,14.18a1.58,1.58,0,0,0-1.73-1.49,1.54,1.54,0,1,0,0,3.07A1.57,1.57,0,0,0,18,14.18Z"/></svg>