<svg id="Layer_1" data-name="Layer 1" xmlns="http://www.w3.org/2000/svg" viewBox="0 0 480 480"><title>Iitems</title><path d="M353.59,311.15c-8.08-8.08-19.13-12.09-30.56-12.09a18.47,18.47,0,0,1-18.43-19.65c.64-10-2.59-19.84-9.67-26.92l-.61-.61-6.38,6.38-21.36-21.36-9,9L138.22,126.53l-4.61-32.72L80.89,67.52,54.45,94l26.29,52.73,32.72,4.61L232.82,270.66l-9,9L245.19,301l-6.37,6.37.61.61c7.08,7.08,16.93,10.31,26.92,9.67A18.47,18.47,0,0,1,286,336.11c0,11.42,4,22.48,12.09,30.56l60.11,60.11a39.25,39.25,0,0,0,55.51-55.51Z" fill="#f1f2f2"/><path d="M386,450.76a51.4,51.4,0,0,1-36.59-15.15l-60.11-60.11c-10.16-10.16-15.75-24.14-15.75-39.39a6,6,0,0,0-6.36-6,47.26,47.26,0,0,1-36.54-13.31l-9.44-9.44,6.37-6.37-21.36-21.36,9-9L107.58,163.08,72.5,158.14,39.26,91.49,78.42,52.33l66.65,33.23L150,120.65,257.59,228.23l9-9,21.36,21.36,6.38-6.38,9.44,9.44a47.26,47.26,0,0,1,13.31,36.54,6,6,0,0,0,6,6.37c15.25,0,29.23,5.59,39.39,15.75l60.11,60.11A51.74,51.74,0,0,1,386,450.76ZM267.52,305.16a31,31,0,0,1,31,31c0,8.57,3,16.29,8.43,21.73L367,417.94a26.76,26.76,0,1,0,37.85-37.85L344.76,320c-5.44-5.44-13.15-8.43-21.73-8.43h0a31,31,0,0,1-30.88-32.93,25,25,0,0,0-.42-6.48l-3.78,3.78-21.36-21.36-9,9L126.44,132.4l-4.27-30.35L83.36,82.71,69.64,96.43,89,135.24l30.35,4.27L250.48,270.66l-9,9L262.85,301l-3.78,3.78a25,25,0,0,0,6.48.42Q266.54,305.15,267.52,305.16Z" fill="#fff"/><polygon points="133.62 93.81 80.89 67.52 54.45 93.96 80.74 146.69 113.46 151.29 243.51 281.34 268.27 256.57 138.22 126.53 133.62 93.81" fill="#dadada"/><rect x="229.96" y="252.07" width="60.48" height="42.4" transform="translate(-117.02 264.02) rotate(-45)" fill="#ffe01a"/><path d="M310,293.65a18.42,18.42,0,0,1-5.37-14.24c.64-10-2.59-19.84-9.67-26.92l-.61-.61-55.51,55.51.61.61c7.08,7.08,16.93,10.31,26.92,9.67A18.47,18.47,0,0,1,286,336.11c0,11.42,4,22.48,12.09,30.56l60.11,60.11a39.25,39.25,0,0,0,55.51,0h0a39.25,39.25,0,0,0,0-55.51l-60.11-60.11c-8.08-8.08-19.13-12.09-30.56-12.09A18.4,18.4,0,0,1,310,293.65Z" fill="#d14253"/><polygon points="80.74 146.69 118.62 146.69 232.82 270.66 113.46 151.29 80.74 146.69" fill="#bdbdbd"/><polygon points="133.55 93.83 133.55 131.7 257.52 245.91 138.15 126.54 133.55 93.83" fill="#bdbdbd"/></svg>