<svg id="Layer_1" data-name="Layer 1" xmlns="http://www.w3.org/2000/svg" viewBox="0 0 480 480"><title>Iitems</title><path d="M323.78,411.5H155.2L116.64,170.17a36,36,0,0,1-8.76-23.67,36.52,36.52,0,0,1,2.34-12.84A36.38,36.38,0,0,1,139,84.82,42.77,42.77,0,0,1,210.55,78a36.5,36.5,0,0,1,10,1.56,42.78,42.78,0,0,1,49.2-.4,50.41,50.41,0,0,1,51.45,6.61,36.38,36.38,0,0,1,43.94,47.84,36.38,36.38,0,0,1-5,34.73Zm-152.38-19h136L340.1,174.25h-11l14.8-16a17.37,17.37,0,0,0,2.53-20.09l-2.48-4.55,2.48-4.55a17.14,17.14,0,0,0,2.1-8.29,17.39,17.39,0,0,0-17.37-17.37,17.18,17.18,0,0,0-7.71,1.81l-6.18,3.07-4.83-4.93a31.37,31.37,0,0,0-38.82-4.79l-6.29,3.87L262,97.33a23.75,23.75,0,0,0-33.09,0l-4.9,4.75L218,99a17.24,17.24,0,0,0-10.69-1.7l-6.45,1-3.27-5.65A23.78,23.78,0,0,0,154.42,97l-2.26,6.77-7.13-.29-.78,0a17.39,17.39,0,0,0-17.37,17.37,17.12,17.12,0,0,0,2.1,8.29l2.48,4.55L129,138.2A17.37,17.37,0,0,0,132.17,159l2.27,2.2Z" fill="#fff"/><polyline points="125.56 165.79 163.3 402 315.6 402 351.13 164.75 350.86 164.75" fill="#54368e"/><circle cx="331.74" cy="120.81" r="26.87" fill="#f4cc21"/><circle cx="144.83" cy="120.81" r="26.87" fill="#f4cc21"/><circle cx="290.6" cy="125.36" r="40.88" fill="#f4cc21"/><circle cx="246.06" cy="114.4" r="33.28" fill="#f4cc21"/><circle cx="177.56" cy="104.52" r="33.28" fill="#f4cc21"/><circle cx="210.62" cy="114.4" r="26.87" fill="#f4cc21"/><circle cx="144.83" cy="146.49" r="26.87" fill="#fbe399"/><circle cx="331.74" cy="146.49" r="26.87" fill="#fbe399"/><circle cx="185.97" cy="132.48" r="40.88" fill="#fbe399"/><circle cx="230.51" cy="140.08" r="33.28" fill="#fbe399"/><circle cx="304.87" cy="140.08" r="33.28" fill="#fbe399"/><circle cx="265.94" cy="146.49" r="26.87" fill="#fbe399"/><polygon points="314.83 402 162.53 402 124.63 164.75 350.36 164.75 314.83 402" fill="#e78334" fill-rule="evenodd"/><rect x="224.71" y="178.2" width="28.27" height="210.35" rx="11.52" ry="11.52" fill="#eea636"/><path d="M206,374.16a11.52,11.52,0,0,1-9.8,13l-5.18.73a11.51,11.51,0,0,1-13-9.8L151.93,192.6a11.51,11.51,0,0,1,9.8-13l5.18-.73a11.51,11.51,0,0,1,13,9.8Z" fill="#eea636" fill-rule="evenodd"/><path d="M325.77,192.59a11.52,11.52,0,0,0-9.8-13l-5.18-.73a11.51,11.51,0,0,0-13,9.8l-26.07,185.5a11.51,11.51,0,0,0,9.8,13l5.18.73a11.51,11.51,0,0,0,13-9.8Z" fill="#eea636" fill-rule="evenodd"/><ellipse cx="238.85" cy="286.35" rx="59.89" ry="40.32" fill="#e78334"/><path d="M238.85,331.28c-16.9,0-32.86-4.47-44.92-12.59-12.62-8.5-19.58-20-19.58-32.33s7-23.83,19.58-32.33c12.06-8.12,28-12.59,44.92-12.59s32.86,4.47,44.92,12.59c12.62,8.5,19.58,20,19.58,32.33s-7,23.83-19.58,32.33C271.71,326.8,255.75,331.28,238.85,331.28Zm0-80.63c-30.48,0-55.28,16-55.28,35.71s24.8,35.71,55.28,35.71,55.28-16,55.28-35.71S269.33,250.64,238.85,250.64Z" fill="#eea636"/><polygon points="176.6 402 162.77 402 124.63 164.75 138.46 164.75 176.6 402" fill="#f78e48" fill-rule="evenodd"/></svg>