<svg id="Layer_1" data-name="Layer 1" xmlns="http://www.w3.org/2000/svg" viewBox="0 0 480 480"><title>item_35</title><g id="Layer_1-2" data-name="Layer 1"><path d="M244.82,404h-5l-2.52-.1-1.07-.06h-.72l-2-.13-1.14-.09-.69-.06-1.89-.17-1.24-.13-.58-.06-1.87-.21-1.53-.2h-.18l-2-.27-1.73-.27-1.91-.32-1.75-.32-1.85-.35-1.77-.36-1.79-.39-1.79-.41-1.74-.43-1.8-.46-1.68-.45-1.85-.52-1.46-.43h-.13l-1.89-.58-1.35-.44-.16,0-1.93-.64-1.06-.37-.45-.16-1.89-.68-.85-.32-.47-.18L189,393.6l-.85-.35a151,151,0,0,1-14.84-7h-.08c-1-.52-1.85-1-2.74-1.52l-.4-.22c-.84-.48-1.67-1-2.5-1.46l-.55-.33c-.79-.48-1.58-1-2.37-1.46l-.63-.39c-.76-.48-1.53-1-2.29-1.48l-.63-.41c-.76-.51-1.51-1-2.26-1.53l-.64-.44c-.73-.51-1.47-1-2.2-1.57l-.61-.44c-.74-.55-1.47-1.09-2.19-1.64l-.59-.45q-1.09-.84-2.16-1.7l-.54-.44L147.77,369l-.51-.43c-.72-.61-1.44-1.22-2.15-1.85l-.44-.39c-.72-.63-1.43-1.28-2.15-1.93l-.08-.08-23.31-27.24a151,151,0,0,1,27.73-199l.53-.45c1-.84,2-1.67,3-2.48l.51-.41a149.49,149.49,0,0,1,93.83-32.67,152.9,152.9,0,0,1,20.53,1.39h.06a150.67,150.67,0,0,1,58.51,21L356,151q1,1.07,1.94,2.16l.34.39c.65.74,1.27,1.46,1.89,2.19l.4.47q.91,1.09,1.79,2.18l.42.52q.87,1.09,1.72,2.19l.43.57c.55.72,1.11,1.46,1.65,2.21l.39.54,1.64,2.29.41.6q.79,1.14,1.55,2.29l.39.59c.51.77,1,1.55,1.51,2.34l.35.56c.5.8,1,1.61,1.49,2.42l.3.5c.5.84,1,1.68,1.48,2.53l.16.29c.54,1,1,1.87,1.54,2.78l.25.47a151,151,0,0,1,6.81,14.57l.09.22.23.58c.28.71.56,1.45.84,2.18l.14.37.3.8c.25.68.49,1.36.73,2l.13.36.36,1c.22.64.43,1.27.63,1.91l.11.32.39,1.21c.21.65.4,1.29.59,1.92l.47,1.57c.15.51.35,1.24.52,1.86l.45,1.66c.15.56.32,1.22.47,1.83l.42,1.71c.14.57.28,1.21.42,1.82s.26,1.18.39,1.78.21,1,.31,1.5l.07.36c.11.57.23,1.17.34,1.76s.22,1.17.32,1.76.21,1.26.31,1.9v.11c.09.54.17,1.09.26,1.63s.19,1.3.27,2v.19c.07.51.14,1,.2,1.52l.21,1.84.06.55c0,.43.1.87.14,1.3.06.65.12,1.3.17,2v.56c0,.4.07.8.1,1.2,0,.63.09,1.27.12,1.91v.8a5.38,5.38,0,0,0,.06,1c0,.77.06,1.53.09,2.3v5.27A151.15,151.15,0,0,1,378.68,323l.08.16-3.35,5.74q-3.09,5.29-6.55,10.26l-.43.62-13.79,16.84A151.94,151.94,0,0,1,270,401.92h-.14q-2.5.42-4.79.72h-.15c-3.13.42-6.33.74-9.49,1l-1.13.07q-1.79.11-3.57.18h-1.3C247.74,404,246.22,404,244.82,404Zm-60.7-38.36h.07a128.18,128.18,0,0,0,12.66,6l.73.3,1.7.66,1.14.44,1.57.56.5.18.82.29,1.58.53.24.08,1.09.36,1.59.49h.12l1.23.37,1.56.44,1.42.38,1.53.39,1.47.36,1.52.35,1.52.33,1.5.31,1.57.3,1.48.27,1.61.27,1.47.23,1.66.23h.19l1.26.17,1.56.18.6.07,1,.1,1.57.14.75.06.83.07,1.62.1.82,0h.73l2.06.08h1.14c2.24.06,4.32.06,7.17,0h1.08c1,0,2-.09,3-.15l1-.06c2.7-.19,5.41-.46,8.06-.81h.14c1.26-.17,2.6-.37,4-.6h.13a128.79,128.79,0,0,0,83.45-52.64l.37-.53c2-2.81,3.82-5.72,5.52-8.64l.22-.38a127.92,127.92,0,0,0,17.15-64v-4.5a17.6,17.6,0,0,0-.07-1.92v-.72l0-.89c0-.52-.06-1-.1-1.56a3.9,3.9,0,0,0-.07-.9l0-.64c0-.54-.09-1.08-.14-1.61a7.65,7.65,0,0,0-.11-1l-.06-.57c-.06-.51-.11-1-.18-1.54s-.11-.83-.16-1.25v-.2c-.07-.56-.15-1.1-.23-1.65s-.14-.92-.22-1.38v-.1c-.09-.53-.17-1.07-.26-1.6s-.18-1-.27-1.49-.2-1-.3-1.56l-.06-.29-.25-1.22c-.08-.39-.21-1-.33-1.5s-.23-1-.35-1.54-.23-1-.35-1.45-.26-1-.4-1.56-.25-.93-.38-1.4l-.44-1.58c-.15-.53-.26-.87-.38-1.29s-.34-1.12-.51-1.66l-.32-1-.08-.25c-.2-.61-.37-1.14-.55-1.67l-.4-1.12c-.22-.63-.42-1.2-.63-1.76l-.36-1c-.25-.67-.49-1.28-.73-1.9l-.27-.66a127.78,127.78,0,0,0-6-12.73l-.11-.2q-.58-1.07-1.18-2.13l-.12-.22c-.45-.79-.87-1.51-1.3-2.23l-.25-.43c-.41-.68-.83-1.36-1.25-2l-.3-.49-1.28-2-.33-.49c-.44-.66-.88-1.3-1.32-1.95l-.35-.51q-.66-.95-1.35-1.89l-.37-.5c-.46-.62-.92-1.24-1.4-1.86l-.37-.48c-.48-.62-1-1.24-1.46-1.86l-.35-.43c-.51-.63-1-1.25-1.53-1.86l-.33-.39c-.53-.63-1.06-1.25-1.6-1.86l-.3-.34-1.44-1.61-.29-.32a128.09,128.09,0,0,0-76.67-40.13h-.2A129.7,129.7,0,0,0,244.82,125a126.64,126.64,0,0,0-79.49,27.68l-.44.35c-.84.67-1.69,1.37-2.53,2.08l-.45.38a128,128,0,0,0-14.67,180.33l.18.21q1.7,2,3.49,3.93l.18.2c2.26,2.43,4.64,4.8,7.06,7h0l.14.12c.54.5,1.15,1,1.77,1.59l.37.32c.61.53,1.21,1,1.83,1.57l.44.37,1.82,1.49.44.36,1.85,1.45.5.39,1.84,1.38.52.38,1.88,1.34.54.38,1.9,1.29.53.35,2,1.27.52.33,2,1.24.46.27c.71.42,1.4.83,2.11,1.23l.35.2,2.16,1.19Z" fill="#fff"/><circle cx="244.82" cy="252.62" r="139.54" fill="#f68340"/><path d="M169.87,269.91a933.41,933.41,0,0,0,134.87,17.17c-2.27,15-8.71,28.21-18.94,38-16.26,15.6-58,37.14-96.1,33.83C168.12,357,143,341.64,131.24,333.66a139.93,139.93,0,0,0,15.44,18.11c12.61,6.78,28,13.28,42.39,14.53,2.91.25,5.85.37,8.78.37,38.06,0,76.61-20.43,93.09-36.24,11.62-11.15,18.85-26.16,21.25-43,7.68.3,14.89.46,21.52.46h2.57c-6.52,38.64-22.13,67.32-46.44,85.3-15.08,11.15-31.43,16.52-45.32,19h.32a139.61,139.61,0,0,0,36.5-4.84,107.67,107.67,0,0,0,12.83-8.13c26.24-19.37,42.94-50.13,49.65-91.44,5.79-.16,11-.45,15.46-.89A299.63,299.63,0,0,0,358.21,322c.15,3.7.43,7.33.78,10.83q3.55-5,6.66-10.41v-.74a297.35,297.35,0,0,1,1.14-35.79,80.06,80.06,0,0,0,14.41-3.52c.62-2.85,1.16-5.73,1.6-8.64a58,58,0,0,1-15.24,4.52c1.75-15.29,4.8-30.89,9.77-41.86a105.24,105.24,0,0,0,4.35-11.27,138.82,138.82,0,0,0-3.87-15,102.3,102.3,0,0,1-7.22,23.17c-5.49,12.11-8.75,29.39-10.56,46-4.32.46-9.39.78-15.1,1,3.74-28.59,2.2-55.27-4.59-79.35a155.16,155.16,0,0,0-55.93-82.15,138.46,138.46,0,0,0-20.56-4.41c5.84,3.05,25.08,14.17,42.63,36.2,19,23.87,39.66,65.67,31,129.85-7.4.06-15.62-.09-24.48-.44a102,102,0,0,0-3.17-31c-5-19.36-24.09-39.43-39.27-52.86A333.18,333.18,0,0,0,207,152.5c-20-10.5-35.13-12.58-45.54-11.78A139.63,139.63,0,0,0,148.18,152l.13.17c.17-.13,17.23-13,55.3,6.92,42.84,22.42,91.56,62.89,99,91.8a94.54,94.54,0,0,1,3,28.78,938.76,938.76,0,0,1-134.15-17c-45.74-9.4-60.28-21.34-64.87-28.36q-.66,5-1,10.09C114.53,252.62,132.87,262.3,169.87,269.91Z" fill="#231f20"/><ellipse cx="295.67" cy="177.7" rx="41.2" ry="58.62" transform="translate(-22.52 310.95) rotate(-53.73)" fill="#fff" opacity="0.3" style="isolation:isolate"/></g></svg>