<svg xmlns="http://www.w3.org/2000/svg" viewBox="0 0 480 480"><title>Iitems</title><g style="isolation:isolate"><g id="Layer_1" data-name="Layer 1"><path d="M272.26,412.48l-22-12-17.88,11.93L214.5,400.44l-22,12L178.11,401l-26,11.12L138,398.38,109.12,407l-19.9-24.42,80.37-229.14v-8.11c-.6-5.29-.73-19.85-.73-20A64.23,64.23,0,0,1,290.31,96.16l.06.13a64.42,64.42,0,0,1,3.25,7.57l.18.52c.36,1,.7,2.13,1,3.23l.24.84c.34,1.27.63,2.44.87,3.55l0,.19c.27,1.29.49,2.57.69,4,0,.27.07.56.11.84l0,.19c.13,1,.23,2,.31,3v.18c0,.32.05.65.07,1,.09,1.43.13,2.74.13,4,0,.15-.14,14.77-.73,20v12.1l79,225.16L355.65,407l-28.93-8.62-14.09,13.7-26-11.12Zm-27.91-271h22V128.67h.69c0-1.44,0-2.65,0-3.36s0-1.29-.08-2.13l0-.61q-.06-.8-.16-1.59l-.07-.55c-.1-.69-.2-1.3-.31-1.85l-.05-.25c-.12-.58-.28-1.22-.48-2l-.12-.43q-.25-.87-.54-1.71l-.11-.33a34.06,34.06,0,0,0-1.68-3.9l-.08-.15A34,34,0,0,0,199,125.32c0,.71,0,1.92,0,3.36h.61l.07,12.75Z" fill="#fff"/><path d="M278.49,151l-6.89,2.12,11.33,39.74h-7.66l-9.11-40.3-7.08,1.32,6.36,39h-8.53L252,153.35l-7.18.63,2.41,38.89H237.13L236,156.1h-7.21l-1.15,36.76H217.52l2.4-38.89-7.17-.63-4.9,39.51h-8.52l6.36-39-7.08-1.32-9.11,40.3h-7.66l11.33-39.74L186.28,151l-80,228.16,8.2,10.06,12.44-3.71,37.9-132.93H176L146.14,384.76l9.31,9.06,11.94-5.11,22.2-136.12h10.87L183.94,385.87,194.08,394l11.39-6.24,8.36-135.16h11.94l-4.18,134,10.8,7.21,10.8-7.21-4.18-134h11.94l8.36,135.16L270.69,394l10.14-8.11L264.31,252.59h10.87l22.2,136.12,11.94,5.11,9.31-9.06L288.76,252.59H300l37.9,132.93,12.44,3.71,8.2-10.06ZM167.22,244.09l12.19-42.74h8.16l-9.66,42.74Zm23.74,0,7-42.74h8.86l-5.29,42.74Zm23.38,0L217,201.35h10.38L226,244.09Zm24.38,0-1.34-42.74h10.37l2.65,42.74Zm24.53,0L258,201.35h8.85l7,42.74Zm23.58,0-9.66-42.74h8.16l12.19,42.74Z" fill="#dbdbdb"/><path d="M192.3,156.14l.87-3-6.65-2A47.82,47.82,0,0,0,192.3,156.14Z" fill="#dbdbdb"/><path d="M219.32,163.72l.6-9.75-7.17-.63-1.26,10.1C214.49,163.66,217.07,163.74,219.32,163.72Z" fill="#dbdbdb"/><path d="M198.6,152.57l-1.5,6.63a36.91,36.91,0,0,0,7.24,3l1.35-8.27Z" fill="#dbdbdb"/><path d="M239,252.59h15.74l13,139.77,2.95,1.62,10.14-8.11L264.31,252.59H278.9l25,138.91,5.41,2.32,9.31-9.06L288.76,252.59H302l39.78,134.1,8.52,2.54,8.2-10.06L278.49,151l-6.89,2.12,13.16,39.29-9.48.45-9.11-40.3-7.08,1.32,10.36,38.83-12.53.15L252,153.35l-7.18.63,5.39,38.89h-13.1L236,156.1h-7.21l-.21,6.8c7.75-1.57,3.52-3.84,4.51,7.61,1.21,14,3.84,175.82,4.53,219.8l5.58-3.72Zm47.81-51.23,12.94,42.74H286.84l-9.66-42.74Zm-16.76.21,8.25,42.32-15,.21L258,201.35Zm-32.65-.21,12.24.06,4.2,42.61-15.1.06Z" fill="#dbdbdb"/><path d="M281.56,143.34c.39-2.5.65-15.85.65-18.45a49.14,49.14,0,0,0-98.28,0c0,2.61.26,16,.65,18.45Z" fill="#dbdbdb"/><rect x="184.67" y="143.34" width="96.81" height="12.76" fill="#a20000"/><rect x="246.18" y="143.34" width="35.3" height="12.76" fill="#750000"/><ellipse cx="248.55" cy="102.29" rx="15.51" ry="22.07" transform="translate(19.04 242.16) rotate(-53.73)" fill="#fff" opacity="0.56" style="mix-blend-mode:screen"/></g></g></svg>