<svg id="Layer_1" data-name="Layer 1" xmlns="http://www.w3.org/2000/svg" viewBox="0 0 480 480"><title>item_40</title><g id="Layer_1-2" data-name="Layer 1"><path d="M244.71,69a121.41,121.41,0,0,0-48.56,232.67v21h97.11v-21A121.41,121.41,0,0,0,244.71,69Z" fill="#ee4453"/><path d="M303.27,332.69H186.15V308a131.44,131.44,0,0,1-72.83-117.64C113.32,117.94,172.26,59,244.71,59S376.1,117.94,376.1,190.39A131.44,131.44,0,0,1,303.27,308Zm-97.11-20h77.11V295.13l6-2.62a111.39,111.39,0,1,0-89.1,0l6,2.62Z" fill="#fff"/><path d="M182.8,365.18v21.25h26.12a37.33,37.33,0,0,0,71.57,0h26.12V322.69H182.8Z" fill="#ee4453"/><path d="M244.71,423.13a47.66,47.66,0,0,1-42.59-26.71H172.8V312.69H316.62v83.74H287.3A47.66,47.66,0,0,1,244.71,423.13Zm-51.91-46.7h23.59l2.12,7.16a27.33,27.33,0,0,0,52.4,0l2.12-7.16h23.59V332.69H192.8Z" fill="#fff"/><circle cx="244.71" cy="375.81" r="37.33" fill="#facc25"/><path d="M366.1,190.39a121.39,121.39,0,1,0-170,111.29v21h97.11v-21A121.41,121.41,0,0,0,366.1,190.39Z" fill="#edb926"/><path d="M244.71,97.07a93.33,93.33,0,0,0-27.8,182.43v43.19h56.45V279.22A93.32,93.32,0,0,0,244.71,97.07Z" fill="#f4cc21"/><rect x="182.8" y="322.69" width="123.82" height="42.49" fill="#882f3e"/><rect x="182.8" y="365.18" width="123.82" height="21.25" fill="#ee4453"/><ellipse cx="289.19" cy="137.6" rx="41.2" ry="58.62" transform="translate(7.17 289.36) rotate(-53.73)" fill="#fff" opacity="0.3" style="isolation:isolate"/></g></svg>