<svg id="Layer_1" data-name="Layer 1" xmlns="http://www.w3.org/2000/svg" viewBox="0 0 480 480"><title>Iitems</title><path d="M69.88,363.6a7.67,7.67,0,0,0,2.22,4.74,7.13,7.13,0,0,0,1,.82,99,99,0,0,0,23.81,11.92c9.79,3.27,18,3.94,24.73,3.06-.88,6.77-.21,14.94,3.06,24.74a99.39,99.39,0,0,0,11.93,23.81,7.23,7.23,0,0,0,.82,1,7.71,7.71,0,0,0,10.78.11L269.35,317.17l.1.11a7.7,7.7,0,0,0,11-10.78L437,155.82a7.7,7.7,0,0,0-8.33-12.64L314.19,191.56,362.57,77.07a7.7,7.7,0,0,0-12.64-8.32L201.32,223.16l-5,.39a7.69,7.69,0,0,0-7.85,12.74l.1.1L72,357.55A7.7,7.7,0,0,0,69.88,363.6Zm94.75-33.36c1.34-1.35,6.16-.83,10.38.51,1.34,4.21,1.83,9,.5,10.37-2.06,2.06-9.35,4.56-17.38,6.5C160.09,339.63,162.61,332.26,164.63,330.24ZM299.72,216.91a7.7,7.7,0,1,1,0-10.88A7.7,7.7,0,0,1,299.72,216.91Z" fill="#f1f2f2"/><path d="M142.89,448.41q-.93,0-1.87-.09a20.15,20.15,0,0,1-12.41-5.8,19.72,19.72,0,0,1-2.2-2.6,112.18,112.18,0,0,1-13.6-27.1,78.84,78.84,0,0,1-3.66-16.23,78.84,78.84,0,0,1-16.22-3.66A111.54,111.54,0,0,1,65.77,379.3a19.41,19.41,0,0,1-2.54-2.17A20.2,20.2,0,0,1,63,348.89L173.91,233.62a20.55,20.55,0,0,1-.19-2.76,20.2,20.2,0,0,1,22.19-20.1l145-150.68a20.2,20.2,0,0,1,33.16,21.85l-36.39,86.13,86.12-36.39a20.2,20.2,0,0,1,21.85,33.18L295,309.88a20.12,20.12,0,0,1-22.81,22L156.87,442.77A20.2,20.2,0,0,1,142.89,448.41Zm-6.79-78.74L134,385.74c-.72,5.55.13,12,2.52,19.18a86.21,86.21,0,0,0,7.25,15.75l265.9-255.89L313.55,205.4a20.28,20.28,0,0,1,.92,6.07,20.19,20.19,0,1,1-20.2-20.2,20.27,20.27,0,0,1,6.08.92L341,96.08,207,235.25l-1.92.15.9.91L85.08,362a85.69,85.69,0,0,0,15.74,7.23c7.18,2.4,13.63,3.24,19.19,2.53ZM80.31,359h0ZM291,214.95a4.81,4.81,0,0,0,8.13-3.43Zm3.28-8.28a4.81,4.81,0,0,0-3.43,8.13Zm134.1-59.85h0ZM359,77.39h0ZM141.14,364.61,146,344.66c4.34-17.81,8.16-21.63,9.8-23.27,6.19-6.2,15.93-4.81,23-2.56l6.16,2,2,6.16c2.25,7.07,3.63,16.8-2.57,23-1.65,1.65-5.51,5.51-23.27,9.81Z" fill="#fff"/><path d="M181,324.79,283.39,222.36h0a15.4,15.4,0,0,1,19.44-23.69L355.48,74.08,77.55,362.9s38.1,27.21,59.88,5.44l10.89-10.88s4.08-25.86,10.88-32.66S181,324.79,181,324.79Z" fill="#ffe01a"/><path d="M307.09,202.92a15.4,15.4,0,0,1-23.69,19.44L181,324.79s6.81,15,0,21.78-32.66,10.88-32.66,10.88l-10.89,10.88c-21.78,21.78,5.44,59.88,5.44,59.88L431.68,150.28Z" fill="#ffe01a"/><path d="M164.63,330.24c1.65-1.66,8.55-.5,13.15,1.56a7.69,7.69,0,0,0,8.63-1.56L290.3,226.34a15.37,15.37,0,0,1-10.88-10.88L179,315.88c-6.62-2-17.91-3.86-25.24,3.46-2.47,2.47-6.18,7.48-10,22.42-1.24,4.85-2.12,9.31-2.6,12L132,362.9c-11.81,11.81-31.38,4.14-42.19-1.61L332.21,109.34l-36.66,86.79a15.35,15.35,0,0,1,12.83,9.18L362.57,77.07a7.7,7.7,0,0,0-12.64-8.32L72,357.55a7.7,7.7,0,0,0,.11,10.78,7.15,7.15,0,0,0,1,.82,99,99,0,0,0,23.81,11.92c24,8,38.24.45,46-7.3l10.89-10.88a7.7,7.7,0,0,0,2.16-4.25C157.66,347.59,161.67,333.2,164.63,330.24Z" fill="#edb926"/><path d="M438.1,146a7.71,7.71,0,0,0-9.43-2.85L300.44,197.37a15.35,15.35,0,0,1,9.18,12.83l86.78-36.66L144.47,416a79.27,79.27,0,0,1-5.19-12c-4.42-13.26-3.21-23.42,3.58-30.22l9.16-9.16c2.66-.49,7.12-1.36,12-2.6,14.95-3.82,20-7.54,22.42-10,7.32-7.32,5.47-18.62,3.47-25.24L290.3,226.34a15.37,15.37,0,0,1-10.88-10.88L175.52,319.34A7.69,7.69,0,0,0,174,328c2.07,4.56,3.2,11.51,1.56,13.15-3,3-17.12,6.94-28.41,8.73a7.67,7.67,0,0,0-4.25,2.15L132,362.9c-7.74,7.74-15.29,22-7.3,46a99.37,99.37,0,0,0,11.93,23.81,7.21,7.21,0,0,0,.82,1,7.71,7.71,0,0,0,10.78.11L437,155.82A7.69,7.69,0,0,0,438.1,146Z" fill="#edb926"/><path d="M293,223.7a7.7,7.7,0,0,0-8.28-7.07l-88.41,6.92a7.69,7.69,0,0,0-7.85,12.74l.49.5.06.07.05,0L207.2,255a7.7,7.7,0,1,0,10.88-10.88l-6.34-6.35,74.2-5.81A7.71,7.71,0,0,0,293,223.7Z" fill="#616161"/><path d="M269.46,317.28h0l-18.71-18.72a7.7,7.7,0,1,1,10.89-10.88h0l18.7,18.71a7.7,7.7,0,1,1-10.88,10.89Z" fill="#616161"/><path d="M277.95,227.81h0a23.09,23.09,0,1,1,32.66,0A23.13,23.13,0,0,1,277.95,227.81ZM299.72,206a7.7,7.7,0,1,0,0,10.88A7.64,7.64,0,0,0,299.72,206Z" fill="#616161"/></svg>