<svg id="Layer_1" data-name="Layer 1" xmlns="http://www.w3.org/2000/svg" viewBox="0 0 480 480"><title>Iitems</title><path d="M402.83,155.37c-.32-1.18-.65-2.32-1-3.43-.1-.33-.21-.64-.31-1-.25-.78-.5-1.55-.76-2.29-.12-.35-.25-.68-.38-1-.25-.69-.51-1.37-.77-2-.14-.36-.29-.69-.44-1-.25-.6-.51-1.21-.77-1.79l-.16-.36v0c-11.1-24.2-29.33-26.77-33.63-20.63,10.49,12.25,8.56,28.37,13.08,53.51-7.75-18.7-18.06-20-17.41-32.89-9.17-1.22-14.28,19-11.48,36.54l.06.35c.14.82.28,1.63.46,2.44,2.38,11.14,11.14,21.77,17.51,28.29a138.37,138.37,0,0,0-2.21,25.23,145.87,145.87,0,0,0,1.14,18.28,45.19,45.19,0,0,0-7.22-3.15,41.35,41.35,0,0,0-15.38-2c-4.78-20.3-20.17-37.84-41.83-49.39a23.58,23.58,0,0,0,.94-6.27,23.8,23.8,0,0,0-46.42-7.43,142.48,142.48,0,0,0-15.47-.95h-.65a142.22,142.22,0,0,0-15.47.95,23.79,23.79,0,0,0-46.42,7.43,23.29,23.29,0,0,0,.94,6.27c-21.67,11.55-37.06,29.1-41.83,49.39a41.4,41.4,0,0,0-15.39,2,45.38,45.38,0,0,0-7.21,3.15,143.69,143.69,0,0,0,1.14-18.28,141.43,141.43,0,0,0-1.7-22.28h0v0q-.24-1.48-.51-2.9c6.37-6.53,15.11-17.16,17.5-28.3.14-.64.26-1.29.37-1.94,0-.21.07-.43.11-.65.07-.44.14-.88.2-1.32q.05-.38.1-.77.08-.63.15-1.26c0-.25.05-.5.08-.75q.08-.81.13-1.62c0-.11,0-.21,0-.32h0c1-15.85-4-31.79-12.13-30.7.66,12.9-9.66,14.19-17.39,32.89,4.5-25.15,2.57-41.26,13.06-53.51C110.65,115,88.42,119,78.25,152h0l0,.05,0,.11c-.32,1-.63,2.11-.92,3.21-6.91,25.81,2.62,40.71,8.64,47.13-2.48,8.86-4,20.31-4,32.83,0,28.12,7.35,45,16.75,50.93s22.9,4.87,34.83,1c.16-.05.28-.13.43-.16-1,1.19-2,2.4-2.92,3.67a72.89,72.89,0,0,0-11,65.54c1.41,4.52,5,7.68,8.83,7.68a6.28,6.28,0,0,0,2.58-.53c3.94-1.71,5.61-6.71,4-11.91a57,57,0,0,1,8.59-51.26c.83-1.16,1.85-2.15,2.77-3.23a80.94,80.94,0,0,0,11.1,12.77,72.8,72.8,0,0,0-9.9,63.88c1.43,4.53,5,7.69,8.81,7.69a6.51,6.51,0,0,0,2.61-.54c3.92-1.7,5.59-6.7,4-11.9a56.83,56.83,0,0,1,7.27-49.21A111.78,111.78,0,0,0,193.28,331,72.6,72.6,0,0,0,190,383.36c1.4,4.5,5,7.67,8.81,7.67a6.36,6.36,0,0,0,2.59-.53c3.94-1.7,5.62-6.71,4-11.9a56.87,56.87,0,0,1,3.57-42.93,137.38,137.38,0,0,0,30.81,3.44h.65a137.3,137.3,0,0,0,30.8-3.44,56.86,56.86,0,0,1,3.57,42.93c-1.62,5.18.06,10.19,4,11.9a6.34,6.34,0,0,0,2.59.53c3.78,0,7.4-3.16,8.82-7.67A72.72,72.72,0,0,0,286.82,331a112.17,112.17,0,0,0,22.57-11.24,56.84,56.84,0,0,1,7.26,49.21c-1.62,5.2.06,10.2,4,11.9a6.41,6.41,0,0,0,2.57.54c3.77,0,7.4-3.16,8.82-7.69a72.76,72.76,0,0,0-9.91-63.88A80,80,0,0,0,333.25,297c.93,1.08,1.93,2.08,2.78,3.23a57,57,0,0,1,8.61,51.26c-1.63,5.2,0,10.21,4,11.91a6.5,6.5,0,0,0,2.59.53c3.78,0,7.4-3.16,8.81-7.68a72.83,72.83,0,0,0-11-65.54c-.92-1.27-1.94-2.48-2.94-3.67a3.72,3.72,0,0,1,.46.16c11.93,3.9,25.39,5,34.81-1s16.77-22.8,16.77-50.93c0-12.52-1.48-24-3.94-32.83C400.21,196.08,409.74,181.18,402.83,155.37Z" fill="#fff"/><path d="M281.34,400.53a15.72,15.72,0,0,1-6.43-1.34c-8.43-3.69-12.31-13.53-9.23-23.42a47.48,47.48,0,0,0-.25-29.26,148.65,148.65,0,0,1-25.06,2.11h-.65a148.7,148.7,0,0,1-25.06-2.11,47.45,47.45,0,0,0-.25,29.26c3.11,9.88-.77,19.73-9.23,23.43a15.76,15.76,0,0,1-6.41,1.33c-8,0-15.21-5.76-17.88-14.34a82.41,82.41,0,0,1,.17-50q-3.46-1.58-6.77-3.34a47.42,47.42,0,0,0-1.78,33.23c3.07,9.95-.83,19.8-9.27,23.46a16,16,0,0,1-6.39,1.32c-8,0-15.17-5.76-17.87-14.33q-.87-2.76-1.53-5.55a16.66,16.66,0,0,1-2.16,1.13,15.71,15.71,0,0,1-6.4,1.33c-8,0-15.21-5.76-17.89-14.34a82.11,82.11,0,0,1,3.65-59.18c-7.05,0-14.46-1.5-21-5.65-13.66-8.66-21.17-29.59-21.17-59a141.83,141.83,0,0,1,3.08-30.46c-.84-1.12-1.68-2.35-2.5-3.69l-4.29-8.81c-3.58-9.62-5.15-22.64-.65-39.45.3-1.13.63-2.3,1-3.54l0-.07.07-.21q.65-2.1,1.35-4.05l10.2-20.19,7-6.58c7.27-6.21,14.08-8,17.11-8.43,7.77-1.23,14.65,1.22,18.4,6.56l4.25,6L122.7,128a22.51,22.51,0,0,0-3.2,4.93,15.84,15.84,0,0,1,12,4.45c8.39,7.83,10.58,24.21,9.9,36v3.68l-.35.35c0,.28-.07.57-.1.85s-.08.62-.12.91c-.07.49-.15,1-.23,1.51l-.13.78c-.13.75-.28,1.51-.44,2.26-2.43,11.32-9.83,21.75-16.65,29.37A151.82,151.82,0,0,1,125,235.33q0,2.23-.06,4.45,2.43-.47,4.87-.7c6.24-17.84,19.64-33.49,38.57-45q0-.64,0-1.27A33.29,33.29,0,0,1,230,175.27c3.48-.26,6.66-.38,9.74-.38h.65c3.07,0,6.26.12,9.74.38a33.29,33.29,0,0,1,61.66,17.5q0,.63,0,1.27c18.93,11.54,32.33,27.2,38.58,45q2.44.23,4.87.7-.06-2.23-.06-4.45a153.85,153.85,0,0,1,1.57-22.17c-6.83-7.63-14.24-18.06-16.66-29.37-.2-.95-.37-1.9-.54-2.86l-.06-.36c-2.32-14.47-.15-33.67,8.45-42.5A16,16,0,0,1,360.6,133a22.51,22.51,0,0,0-3.2-4.93l-4.79-5.59,4.22-6c3.42-4.89,9.65-7.43,16.68-6.79,2.94.27,10.15,1.58,17.94,7.92l7.8,7.61,7.64,13.38.19.44c.27.6.56,1.27.84,2l.12.29.37.89c.3.75.59,1.52.87,2.29l.12.31.3.82c.29.84.58,1.69.85,2.55l.1.3c.08.25.17.5.25.76.4,1.3.76,2.53,1.09,3.78h0c6.89,25.74-.46,42.59-7.43,52a142.44,142.44,0,0,1,3.07,30.45c0,29.36-7.52,50.3-21.19,59-6.56,4.15-14,5.61-21,5.66a82,82,0,0,1,3.63,59.18c-2.69,8.57-9.87,14.33-17.88,14.33a16,16,0,0,1-6.33-1.3,16.93,16.93,0,0,1-2.24-1.17q-.67,2.78-1.53,5.54c-2.68,8.58-9.86,14.35-17.88,14.35a15.83,15.83,0,0,1-6.38-1.33c-8.44-3.64-12.36-13.5-9.27-23.43a47.46,47.46,0,0,0-1.77-33.25q-3.31,1.77-6.77,3.35a82.63,82.63,0,0,1,.18,50C296.52,394.78,289.33,400.53,281.34,400.53Zm-77.21-75.71,6.92,1.59a127.93,127.93,0,0,0,28.53,3.2c.33,0,.66,0,1,0a127.84,127.84,0,0,0,28.52-3.2l7-1.61,7.53-2.77a102.76,102.76,0,0,0,20.66-10.28l6.38-4.16,5.06-4.73a70.74,70.74,0,0,0,9.8-11.25l5.47-7.88L321,272l27.09,5.83a10.78,10.78,0,0,1,1.67.51c11,3.53,20.86,3.51,26.5-.06s12.35-17,12.35-42.9c0-3.21-.11-6.4-.31-9.5L368.92,179a53.85,53.85,0,0,0-9.38-15c-.51-.62-1-1.26-1.55-1.91a52.83,52.83,0,0,0,.2,15.37l.06.37c.1.6.22,1.28.36,1.94,1.46,6.82,6.79,15.21,15,23.63l3.45,3.54-.91,4.86a129.46,129.46,0,0,0-2,23.48,136.45,136.45,0,0,0,1.06,17.08l2.3,18.17L361.31,262a35.81,35.81,0,0,0-5.7-2.51,31.68,31.68,0,0,0-11.86-1.58l-8,.49-1.84-7.79c-4.07-17.28-17.23-32.62-37.06-43.19l-6.7-3.57,2-7.32a14.26,14.26,0,0,0-27.3-8.21l-2.41,7.3-7.64-.83a133.17,133.17,0,0,0-14.26-.89c-.33,0-.68,0-1,0a132.8,132.8,0,0,0-14.25.89l-7.63.83-2.41-7.29a14.29,14.29,0,0,0-27.9,4.44,13.91,13.91,0,0,0,.59,3.73l2,7.34-6.72,3.58c-19.83,10.57-33,25.91-37.05,43.19l-1.83,7.8-8-.49a31.72,31.72,0,0,0-11.86,1.57,35.68,35.68,0,0,0-5.72,2.52l-16.21,8.58,2.34-18.19A134.45,134.45,0,0,0,106,235.33a131.09,131.09,0,0,0-1.58-20.77l0-.21q-.21-1.26-.43-2.48L103,207l3.46-3.54c8.21-8.41,13.54-16.81,15-23.66.11-.52.21-1,.3-1.58l.09-.57c.05-.33.11-.7.16-1.07l.09-.68c0-.32.08-.67.12-1l.07-.65c0-.45.08-.91.11-1.37l0-.28a53.37,53.37,0,0,0-.34-10.45c-.52.65-1,1.28-1.55,1.91a53.66,53.66,0,0,0-9.37,15L91.76,226.05c-.2,3-.3,6.13-.3,9.27,0,25.89,6.65,39.29,12.34,42.9s15.51,3.59,26.47.07a10.48,10.48,0,0,1,1.57-.5l27.34-6.31-10.06,12.16,5.52,7.94a71.71,71.71,0,0,0,9.8,11.27l4.92,4.62,6.54,4.27A102.45,102.45,0,0,0,196.55,322ZM87.3,154.89l0,.06c-.29.93-.56,1.88-.82,2.87-4.55,17-.83,27.94,3.32,34.28l3.29-18.39c1.27-7.12,2-13.66,2.7-19.43.86-7.39,1.65-14.28,3.38-20.67-4.08,3.93-8.53,10.55-11.82,21.21ZM381,133.62c1.71,6.36,2.51,13.22,3.36,20.57.67,5.79,1.43,12.34,2.72,19.49l3.3,18.38c4.13-6.34,7.84-17.28,3.31-34.23h0c-.27-1-.56-2-.89-3.08l-.28-.86c-.22-.68-.44-1.37-.68-2l-.33-.89c-.22-.61-.45-1.21-.68-1.79l-.23-.55-.15-.35c-.18-.42-.35-.84-.53-1.25l-.27-.59A41.32,41.32,0,0,0,381,133.62Zm-249.38,39.2-6.37-6.37Z" fill="#fff"/><path d="M402.83,155.12c-9.67-36.11-33.25-40.62-38.21-33.52,10.49,12.25,8.56,28.37,13.08,53.51-7.75-18.7-18.06-20-17.41-32.89-9.67-1.29-14.82,21.28-11,39.32,2.38,11.14,11.14,21.77,17.51,28.29a138.39,138.39,0,0,0-2.21,25.23,145.9,145.9,0,0,0,1.14,18.28,45.18,45.18,0,0,0-7.22-3.15,41.35,41.35,0,0,0-15.38-2c-4.78-20.3-20.17-37.84-41.83-49.39a23.57,23.57,0,0,0,.94-6.27,23.8,23.8,0,0,0-46.42-7.43,142.49,142.49,0,0,0-15.47-.95h-.65a142.23,142.23,0,0,0-15.47.95,23.79,23.79,0,0,0-46.42,7.43,23.3,23.3,0,0,0,.94,6.27c-21.67,11.55-37.06,29.1-41.83,49.39a41.41,41.41,0,0,0-15.39,2,45.36,45.36,0,0,0-7.21,3.15,143.71,143.71,0,0,0,1.14-18.28,138,138,0,0,0-2.21-25.23c6.37-6.53,15.11-17.16,17.5-28.3,3.86-18-1.29-40.61-11-39.32.66,12.9-9.66,14.19-17.39,32.89,4.5-25.15,2.57-41.26,13.06-53.51-5-7.1-28.55-2.59-38.21,33.52-6.91,25.81,2.62,40.71,8.64,47.13-2.48,8.86-4,20.31-4,32.83,0,28.12,7.35,45,16.75,50.93s22.9,4.87,34.83,1c.16-.05.28-.13.43-.16-1,1.19-2,2.4-2.92,3.67a72.89,72.89,0,0,0-11,65.54c1.41,4.52,5,7.68,8.83,7.68a6.28,6.28,0,0,0,2.58-.53c3.94-1.7,5.61-6.71,4-11.91A57,57,0,0,1,144.07,300c.83-1.16,1.85-2.15,2.77-3.23a80.94,80.94,0,0,0,11.1,12.77,72.8,72.8,0,0,0-9.9,63.88c1.43,4.53,5,7.69,8.81,7.69a6.51,6.51,0,0,0,2.61-.54c3.92-1.7,5.59-6.7,4-11.9a56.83,56.83,0,0,1,7.27-49.21,111.77,111.77,0,0,0,22.56,11.24A72.6,72.6,0,0,0,190,383.11c1.4,4.5,5,7.67,8.81,7.67a6.36,6.36,0,0,0,2.59-.53c3.94-1.7,5.62-6.71,4-11.9a56.87,56.87,0,0,1,3.57-42.93,137.38,137.38,0,0,0,30.81,3.44h.65a137.3,137.3,0,0,0,30.8-3.44,56.86,56.86,0,0,1,3.57,42.93c-1.62,5.18.06,10.19,4,11.9a6.34,6.34,0,0,0,2.59.53c3.78,0,7.4-3.16,8.82-7.67a72.72,72.72,0,0,0-3.33-52.41,112.16,112.16,0,0,0,22.57-11.24,56.84,56.84,0,0,1,7.26,49.21c-1.62,5.2.06,10.2,4,11.9a6.41,6.41,0,0,0,2.57.54c3.77,0,7.4-3.16,8.82-7.69a72.76,72.76,0,0,0-9.91-63.88,80,80,0,0,0,11.11-12.77c.93,1.08,1.93,2.08,2.78,3.23a57,57,0,0,1,8.61,51.26c-1.63,5.2,0,10.21,4,11.91a6.5,6.5,0,0,0,2.59.53c3.78,0,7.4-3.16,8.81-7.68a72.83,72.83,0,0,0-11-65.54c-.92-1.27-1.94-2.48-2.94-3.67a3.72,3.72,0,0,1,.46.16c11.93,3.9,25.39,5,34.81-1s16.77-22.8,16.77-50.93c0-12.52-1.48-24-3.94-32.83,6-6.42,15.54-21.31,8.64-47.13" fill="#fd3d00"/><path d="M402.83,155.12a81.73,81.73,0,0,0-4.58-12.92c-1.29,16.89-5.68,35.32-12.48,45-9.88,3.52-25.75,3.67-36.69-14.26,0,0-.28,1.29-.61,3.34.21,1.79.49,3.56.86,5.28,2.38,11.14,11.14,21.77,17.51,28.29-.16.84-.31,1.7-.45,2.58,4.69,2.09,9.73,4.15,14.26,6-.25,20.22-2.49,45.8-11.87,50.89,0,0-20.52.92-28.73-3.19,0,0-20,31.15-102.31,31.22-82.29-.08-102.31-31.22-102.31-31.22-8.21,4.11-28.73,3.19-28.73,3.19-9-4.9-11.44-28.74-11.83-48.54,5.38-2.37,12.44-5.16,18.93-8-.16-1-.33-2-.51-2.95,6.37-6.53,15.11-17.16,17.5-28.3a58.81,58.81,0,0,0,1.17-8.63c-16,26.25-42.6,13.74-45.5,8.64-3.84-7.94-6.63-18.8-8.19-29.82-.34,1.1-.66,2.22-1,3.38-6.91,25.81,2.62,40.71,8.64,47.13-2.48,8.86-4,20.31-4,32.83,0,28.12,7.35,45,16.75,50.93s22.9,4.87,34.83,1c.16-.05.28-.13.43-.16-1,1.19-2,2.4-2.92,3.67a72.89,72.89,0,0,0-11,65.54c1.41,4.52,5,7.68,8.83,7.68a6.28,6.28,0,0,0,2.58-.53c3.94-1.7,5.61-6.71,4-11.91A57,57,0,0,1,144.07,300c.83-1.16,1.85-2.15,2.77-3.23a80.94,80.94,0,0,0,11.1,12.77,72.8,72.8,0,0,0-9.9,63.88c1.43,4.53,5,7.69,8.81,7.69a6.51,6.51,0,0,0,2.61-.54c3.92-1.7,5.59-6.7,4-11.9a56.83,56.83,0,0,1,7.27-49.21,111.77,111.77,0,0,0,22.56,11.24A72.6,72.6,0,0,0,190,383.11c1.4,4.5,5,7.67,8.81,7.67a6.36,6.36,0,0,0,2.59-.53c3.94-1.7,5.62-6.71,4-11.9a56.87,56.87,0,0,1,3.57-42.93,137.38,137.38,0,0,0,30.81,3.44h.65a137.3,137.3,0,0,0,30.8-3.44,56.86,56.86,0,0,1,3.57,42.93c-1.62,5.18.06,10.19,4,11.9a6.34,6.34,0,0,0,2.59.53c3.78,0,7.4-3.16,8.82-7.67a72.72,72.72,0,0,0-3.33-52.41,112.16,112.16,0,0,0,22.57-11.24,56.84,56.84,0,0,1,7.26,49.21c-1.62,5.2.06,10.2,4,11.9a6.41,6.41,0,0,0,2.57.54c3.77,0,7.4-3.16,8.82-7.69a72.76,72.76,0,0,0-9.91-63.88,80,80,0,0,0,11.11-12.77c.93,1.08,1.93,2.08,2.78,3.23a57,57,0,0,1,8.61,51.26c-1.63,5.2,0,10.21,4,11.91a6.5,6.5,0,0,0,2.59.53c3.78,0,7.4-3.16,8.81-7.68a72.83,72.83,0,0,0-11-65.54c-.92-1.27-1.94-2.48-2.94-3.67a3.72,3.72,0,0,1,.46.16c11.93,3.9,25.39,5,34.81-1s16.77-22.8,16.77-50.93c0-12.52-1.48-24-3.94-32.83C400.21,195.83,409.74,180.93,402.83,155.12ZM87.55,183.73q-.57-1-1.11-2.18S86.9,182.36,87.55,183.73Z" fill="#ce2d02"/></svg>