<svg id="Layer_1" data-name="Layer 1" xmlns="http://www.w3.org/2000/svg" viewBox="0 0 480 480"><title>Iitems</title><path d="M426,106.58,404.47,96.45l-87,184.78-10.27-4.83c.6-2,1.16-3.95,1.69-5.78,0,0,.21-.44,1.23-3.77,4-13.9,5.85-22.82,3.3-30.91-2.62-8.31-9.51-14.1-22.66-20.83-14-7.15-28.39-14.44-43-21.52-3.35-1.76-6.76-3.36-10.32-5-3.27-1.54-6.62-3.29-10.18-5l-12.92-6.08c-12.92-6.08-25.91-12-38.75-17.87-4.53-1.95-8.68-3.9-13.06-5.79s-8.68-3.9-12.91-5.71l-12.83-5.5c-8.91-3.83-15.78-5.79-21.73-5.87a22.36,22.36,0,0,0-8.56,1.59.16.16,0,0,0-.22.08c-7.86,3.19-13.71,10.23-21.72,22.24A35.06,35.06,0,0,1,82.3,164c-4.46,6.79-10.21,15.16-14.76,24.07L64,195.47c-5.36,12.54-7.62,25.44-1.84,36.68l.15.07a51.89,51.89,0,0,0,4.5,7c.22.29.6.65.83.93a65.85,65.85,0,0,0,7.76,8.56,131.82,131.82,0,0,0,11.47,9.92c.68.51,1.5,1.07,2.47,1.71.67.5,1.58,1.29,2.54,1.93,9,6.24,16.28,8.93,23.7,8.61s14.24-3.64,22.66-10c2.39-1.6,4.47-3.34,6.78-5.16,4.33-3.4,9.3-7.41,16.75-12.43,5.77-3.81,11.09-5.84,15.84-6.33a14.74,14.74,0,0,1,8.18,1.13,15.27,15.27,0,0,1,6.23,5.65c2.51,3.9,4.33,9.29,5.08,16.17.87,8.94,1.1,15.39,1.23,20.89-.08,2.87.05,5.65.19,8.44.62,10.64,2.41,18,6.89,23.92S216.63,323,227.2,326a115.88,115.88,0,0,0,15.34,3.23,23.08,23.08,0,0,0,2.88.44,14.15,14.15,0,0,0,2.58.31,68.8,68.8,0,0,0,11.69.6,53.25,53.25,0,0,0,9.52-1C281.48,327,290,316.9,296.45,304.85l3.28-7,8.14,3.83-13.39,28.45S272.81,370.23,225,350.29l-1.18,2.51-4.78-2a13.4,13.4,0,0,0,2-2.91c2.78-5.74,1.07-12.32-3.81-14.67s-11.08.39-13.85,6.13c-.34.69-1.57,4.31-4.6,3.93l-4.73-2.29a14.22,14.22,0,0,1-2.9-8.12l-.06.09c.13-4.39-2.27-8.34-6.21-9.52-4.82-1.44-10.06,1.81-11.69,7.26a11.37,11.37,0,0,0-.45,4.27c-.06,5.43,5.75,26.75,43.08,34.91l-1.12,2.39S279.36,402.39,316,340.28l13.39-28.45,1.88.89,9.63-20.47-1.88-.89Z" fill="#fff"/><path d="M250.72,389c-22.16,0-63-19.27-68.32-23l-1.71-1.27c-13.07-10.08-17.34-22.12-17.43-29.46a20.79,20.79,0,0,1,.86-7.4,20.4,20.4,0,0,1,8.72-11.5,18.18,18.18,0,0,1,14.78-2.07,17.82,17.82,0,0,1,2.87,1.14l2.76-4.61c-2.92-6.94-3.78-14.33-4.17-21v-.24c-.14-2.8-.28-5.69-.2-8.77-.13-5.12-.34-11.3-1.18-19.9-.71-6.38-2.36-10.05-3.62-12a5.77,5.77,0,0,0-2.29-2.2,5.52,5.52,0,0,0-3-.29l-.18,0c-3.32.34-7.33,2-11.58,4.8-6.36,4.29-10.86,7.84-14.83,11l-2.59,2.05c-1.81,1.44-3.68,2.94-5.82,4.39C133.37,276.47,125.05,280,116,280.39c-9.5.41-18.58-2.75-29.43-10.24-1-.64-1.8-1.31-2.42-1.8l-.32-.25c-1-.69-1.9-1.29-2.64-1.84l-.11-.08A141.39,141.39,0,0,1,68.88,255.6a75.64,75.64,0,0,1-8.56-9.41c-.24-.26-.61-.66-1-1.14l-.07-.1a64.08,64.08,0,0,1-3.69-5.43l-.34-.16-1.48-2.88c-6.37-12.38-5.84-27.44,1.56-44.75l.14-.31,3.63-7.7a231.76,231.76,0,0,1,13.45-22.19l1.83-2.78,1.06-1.61,0,.08c.27-.39.65-1,1.17-1.75,8.58-12.86,15.5-21.2,25.2-25.45a9.43,9.43,0,0,1,1.36-.61c.25-.09.5-.17.76-.24a32,32,0,0,1,11.12-1.9h.12c7.05.09,14.87,2.13,25.36,6.63l10.1,4.33,2.73,1.17c2.14.92,4.31,1.89,6.5,2.88s4.25,1.91,6.4,2.83,4.35,1.92,6.51,2.88,4.3,1.94,6.56,2.91l.19.08c12,5.46,25.53,11.65,38.86,17.92L231.31,175c1.88.89,3.71,1.8,5.5,2.69,1.59.79,3.14,1.56,4.68,2.29,3.46,1.63,7,3.31,10.55,5.15,15,7.24,29.89,14.83,43.06,21.53,20,10.24,25,18.76,27.41,26.44a36.36,36.36,0,0,1,1.59,11.8L399.92,83.81,438.63,102l-87,184.78,1.88.88-17.73,37.66-1.88-.88-9.76,20.63C303,381,273.09,388.81,251.72,389Zm-23-22.22c17.3,5,55.41,10,79.84-31l17.24-36.63,1.88.88,1.54-3.28-1.88-.88,87-184.79-4.33-2-87,184.78-26.27-12.36,2.35-7.84c.59-2,1.14-3.86,1.65-5.65l.4-1.42.09,0c.15-.45.39-1.21.77-2.44,3.59-12.47,5.09-19.82,3.35-25.36-1.36-4.32-4.93-8.57-17.93-15.22s-28-14.25-42.83-21.42l-.29-.14c-3.18-1.67-6.47-3.22-9.95-4.86-1.66-.78-3.33-1.61-5-2.46s-3.37-1.68-5.13-2.51L210.3,186.1c-13.19-6.21-26.66-12.36-38.56-17.78-2.32-1-4.55-2-6.76-3s-4.11-1.85-6.21-2.75-4.47-2-6.69-3-4.15-1.87-6.2-2.74l-2.74-1.18-10.08-4.32c-8-3.41-13.68-5-18.05-5.1a12.94,12.94,0,0,0-4.94.9l-.42.17c-4.89,2.08-9.42,7-17.17,18.62-1.24,1.89-2,2.94-2.49,3.61L88.37,172a214.86,214.86,0,0,0-12.31,20.21l-3.35,7.12c-4.71,11.09-5.64,19.9-2.8,26.85l.83,1.57a42.17,42.17,0,0,0,3.5,5.49c.3.33.6.66.83.94l.19.24a56.78,56.78,0,0,0,6.66,7.34l.14.13a121.92,121.92,0,0,0,10.57,9.15c.49.36,1.13.8,2,1.34l.49.34,1,.74c.39.31.83.66,1.12.85l.18.12c7.36,5.09,12.74,7.16,17.88,6.94,4.94-.22,10.13-2.64,17.34-8.1L133,253c1.58-1.05,3.05-2.23,4.76-3.6l2.69-2.13c4-3.17,9-7.11,16-11.84,6.94-4.58,13.68-7.22,20.11-7.89a24.06,24.06,0,0,1,13.28,2A24.73,24.73,0,0,1,200,238.61c3.45,5.36,5.65,12.18,6.53,20.28V259c.92,9.4,1.14,16.07,1.28,21.58v.52c-.07,2.45,0,4.93.18,7.56v.14c.54,9.27,2,14.7,5,18.65,3.13,4.13,8.13,6.93,16.75,9.36a106,106,0,0,0,14.08,3l.73.13a11.6,11.6,0,0,0,1.5.24l1.07.12.48.12.89.07.68.06a59.49,59.49,0,0,0,10.06.53h.41a43.33,43.33,0,0,0,7.69-.78c7.66-1.65,14.39-8.08,20.58-19.66l7.23-15.36,25.33,11.92-17.67,37.51a63.71,63.71,0,0,1-19.92,21c-11,7.3-28.82,13.85-53,6.53l-.44.94h0Zm-31.26-14.3c5.09,3.09,12,6,21.3,8l-14.37-6.14,4.08-4.75a12.9,12.9,0,0,1-9.89,3Zm35.38-9.76c15.14,5.53,28.57,4.65,40-2.61,1.18-.75,2.29-1.54,3.32-2.34a39.42,39.42,0,0,1-4,1.06l-.23,0a62.42,62.42,0,0,1-11,1.12,78.31,78.31,0,0,1-12.8-.63,23.54,23.54,0,0,1-3.22-.39,29.83,29.83,0,0,1-3-.47c-3.2-.46-6.49-1.07-9.69-1.78l0,.09A21.15,21.15,0,0,1,231.88,342.77Zm-19.9.6a20.8,20.8,0,0,1-1.51,2.85l1.41-1.64a4.44,4.44,0,0,0,.62-.84,3.62,3.62,0,0,0,.39-1.53A3.54,3.54,0,0,0,212,343.36ZM74.92,158h0Z" fill="#fff"/><path d="M404.29,96.45l-110,233.7s-21.67,40.08-69.44,20.14l-10.32,21.93s64.64,30.17,101.28-31.95l110-233.7Z" fill="#54368e"/><path d="M218.91,350.76a13.39,13.39,0,0,0,2-2.91c2.78-5.74,1.07-12.32-3.81-14.67s-11.08.39-13.85,6.13c-.34.69-1.57,4.31-4.6,3.93l-4.73-2.29a14.22,14.22,0,0,1-2.9-8.12l-.06.09c.13-4.39-2.27-8.34-6.21-9.52-4.82-1.44-10.06,1.81-11.69,7.26a11.37,11.37,0,0,0-.45,4.27c-.06,5.47,5.82,27.05,43.83,35.08l8.15-16.83Z" fill="#54368e"/><path d="M264.8,203.45h0L159.5,153.9l0,0c-32.31-14.32-65.61-9.88-75.13,10.34-9.74,20.69-44.69,70.38,19.91,95,22.7,8.65,62-33.36,82.46-23.71s7.65,70.28,29.74,80.38c71.44,32.66,80.7-26.24,90.43-46.92s-9.11-50-42.09-65.56" fill="#36a9e1"/><path d="M159.48,153.93l0,0,54.17,25.49-26.54,56.4c-.14-.07-.26-.16-.4-.23-20.5-9.65-59.77,32.36-82.46,23.71-64.6-24.61-29.64-74.31-19.91-95C93.88,144.05,127.17,139.62,159.48,153.93Z" fill="#36a9e1"/><path d="M262.35,325.09c-7.86-1.58-24.94-3.06-35.44-7.88-2.28-1,1.69,1.84,0,0l-9.27-131.1L251,202.15Z" fill="#6ecef4"/><path d="M293.9,295.21c-7.86-1.58-11.78,26.82-22.28,22-2.28-1,1.69,1.84,0,0l-9.27-110.83,24.34,13.48Z" fill="#6ecef4"/><rect x="306" y="273.18" width="22.62" height="41.1" transform="translate(-83.58 455.75) rotate(-64.8)" fill="#a886c8"/><path d="M62.17,232.21l-.15-.07c-5.78-11.24-3.51-24.14,1.84-36.68l3.5-7.43c4.56-8.92,10.3-17.29,14.76-24.07a35,35,0,0,0,2.27-3.28c8-12,13.86-19.05,21.72-22.24a.16.16,0,0,1,.22-.08L88.86,175.49c-7.59,11.12-16.49,25.79-18,38.31Zm4.5,7a51.91,51.91,0,0,1-4.5-7l8.66-18.41c-.55,4.64-.23,9,1.78,12.81Zm39.67-100.87a22.36,22.36,0,0,1,8.56-1.59l-6.5,13.81c-4.12,2.59-8.4,8.2-14.07,16.78-2.35,3.43-.07.15-2.2,3.13-1.06,1.5-2.05,3.21-3.26,5Zm8.56-1.59-6.5,13.81h0Zm0,0-6.5,13.81h0ZM66.67,239.23l5.94-12.62h0ZM155,233.46c7.59-5,14.72-7.76,21.18-8.36a27.12,27.12,0,0,1,14.58,2.15l-5.1,10.84a14.74,14.74,0,0,0-8.18-1.13c-4.75.48-10.07,2.52-15.84,6.33-7.45,5-12.41,9-16.75,12.43-2.3,1.82-4.39,3.56-6.78,5.16-8.43,6.38-15.26,9.68-22.66,10s-14.66-2.37-23.7-8.61c-1-.64-1.87-1.42-2.54-1.93-1-.64-1.79-1.2-2.47-1.71a131.84,131.84,0,0,1-11.47-9.92,65.86,65.86,0,0,1-7.76-8.56c-.23-.28-.6-.64-.83-.93l5.94-12.62a38.57,38.57,0,0,0,4.18,6.13,58.39,58.39,0,0,0,6.86,7.41c2.85,2.79,6.44,5.93,10.27,9,.82.57,1.63,1.13,2.31,1.63s1.64,1.14,2.17,1.56l.14.07c6.72,4.61,11.69,6.77,16.31,6.59s9.62-2.73,16.27-7.58c1.94-1.44,4-3.18,6.34-5,4.68-3.78,10.09-7.95,17.52-13m-40.1-96.69c5.94.07,12.81,2,21.73,5.87l12.83,5.5c4.23,1.81,8.53,3.84,12.91,5.71s8.53,3.84,13.06,5.79c12.85,5.86,25.84,11.8,38.75,17.87l-5.1,10.84c-12.77-6-25.76-11.95-38.6-17.81-4.31-2-8.53-3.84-12.91-5.71-4.16-2-8.54-3.84-12.92-5.72l-12.83-5.5c-10.38-4.52-16.58-6-21.24-4.2a19.58,19.58,0,0,0-2.17,1.16Zm99.27,40.73,12.92,6.08c3.56,1.68,6.91,3.43,10.18,5,3.56,1.68,7,3.28,10.32,5,14.64,7.07,29,14.36,43,21.52,13.15,6.73,20,12.52,22.66,20.83,2.54,8.09.7,17-3.3,30.91-1,3.33-1.23,3.77-1.23,3.77a254.82,254.82,0,0,1-9,26.8l-3.5,7.43c-6.4,12-15,22.16-27.24,24.72a53.26,53.26,0,0,1-9.52,1,68.79,68.79,0,0,1-11.69-.6,14.13,14.13,0,0,1-2.58-.31,23.06,23.06,0,0,1-2.88-.44A115.86,115.86,0,0,1,227,326c-10.57-3-17.27-6.86-21.74-12.77s-6.27-13.29-6.89-23.92c-.14-2.79-.27-5.58-.19-8.44-.14-5.51-.36-12-1.23-20.89-.75-6.88-2.57-12.27-5.08-16.17a15.27,15.27,0,0,0-6.23-5.65l5.1-10.84a27.28,27.28,0,0,1,11.11,9.94c3.64,5.35,6,12.64,6.9,21.57a204.62,204.62,0,0,1,1.33,21.85c.07,2.94.06,5.65.19,8.07.49,8.21,1.57,13.62,4.52,17.37,2.65,3.61,7.49,6.07,15.47,8.37,4.65,1.28,9.45,2.28,13.95,3.12.37,0,1.18.19,2.57.3a13.28,13.28,0,0,0,2.43.24,65.43,65.43,0,0,0,10.07.56,31,31,0,0,0,7.25-.75c17.1-3.57,25.66-32.91,30.81-50.81,1.09-3.48,0,.37,1.16-3.62,3.47-11.61,5.06-18.84,3.47-23.95-1.58-4.73-6.67-8.57-16.77-13.7-14.12-7.37-28.53-14.52-42.81-21.6l-10.24-4.82c-3.35-1.75-6.77-3.36-10.18-5l-12.92-6.08Z" fill="#54368e"/><path d="M294.3,330.15l110-233.7,12.06,5.68L310.07,327.94c-27.85,47.21-71.86,41.11-91.38,35.47l6.17-13.12C272.63,370.23,294.3,330.15,294.3,330.15Z" fill="#4e2f7f"/><rect x="310.23" y="279.84" width="22.62" height="31.75" transform="translate(-82.99 460.62) rotate(-64.78)" fill="#a886c8"/></svg>