<svg id="Layer_1" data-name="Layer 1" xmlns="http://www.w3.org/2000/svg" viewBox="0 0 480 480"><title>Iitems</title><path d="M381.43,264.59h-15V235.65A18.12,18.12,0,0,0,353,217.91,77.45,77.45,0,1,0,249.7,102.67H203.31A77.45,77.45,0,1,0,100,217.91,18.12,18.12,0,0,0,86.6,235.65v49.82H76.92L56.16,271.82v64l20.76-13.65H86.6v46.55c0,10.09,7.84,18.27,17.52,18.27H348.89c9.68,0,17.52-8.18,17.52-18.27V343h15l44.39,29.2V235.39Zm-236.89-47.2-5.92-5.24a55.16,55.16,0,0,0,26.09-1.28,16.36,16.36,0,0,1-3.82,6.52Zm41.4-18.4a55.14,55.14,0,0,0,17.12-29.63A17.64,17.64,0,0,1,185.94,199Zm17.27-51.75a55.14,55.14,0,0,0-17.84-30.87,18.28,18.28,0,0,1,17.84,30.87Zm-65.74,70.15h-.28c-.33-.34-.64-.7-.94-1.07Zm61.22,0a77.4,77.4,0,0,0,8.75-110.33h38.15a77.41,77.41,0,0,0,8.75,110.33Zm93.43,0a16.35,16.35,0,0,1-3.82-6.52,55.15,55.15,0,0,0,26.09,1.28l-5.92,5.24Zm-42.35-69.94a18.46,18.46,0,0,1,18-31.22A55.14,55.14,0,0,0,249.77,147.45ZM249.69,168a55.13,55.13,0,0,0,18.43,31.9A18.82,18.82,0,0,1,249.69,168Zm67.07,48.32c-.3.37-.61.72-.94,1.07h-.28ZM361,190.85A17.65,17.65,0,0,1,340.87,199,55.14,55.14,0,0,0,358,169.36,17.65,17.65,0,0,1,361,190.85Zm.55-66.15a18.3,18.3,0,0,1-3.4,22.55,55.14,55.14,0,0,0-17.84-30.87A18.29,18.29,0,0,1,361.53,124.69ZM304,92.2a17.56,17.56,0,0,1,17,13.2,55.13,55.13,0,0,0-17-2.68v0H287.91A17.56,17.56,0,0,1,304,92.2ZM149,92.2a17.56,17.56,0,0,1,16.06,10.47H149v0a55.13,55.13,0,0,0-17,2.68A17.56,17.56,0,0,1,149,92.2ZM91.32,124.61a18.48,18.48,0,0,1,21.55-8.37,55.14,55.14,0,0,0-18,31.22A18.47,18.47,0,0,1,91.32,124.61ZM91,191.42A18.82,18.82,0,0,1,94.77,168a55.13,55.13,0,0,0,18.42,31.9A18.82,18.82,0,0,1,91,191.42Z" fill="#fff" stroke="#fff" stroke-miterlimit="10" stroke-width="19"/><rect x="75.49" y="284.12" width="11.8" height="36.69" fill="#0d264a"/><polygon points="76.92 284.12 76.92 302.46 76.92 320.81 56.16 334.46 56.16 302.46 56.16 270.47 76.92 284.12" fill="#4e2f7f"/><rect x="366.41" y="263.23" width="15.02" height="78.45" fill="#091a33"/><polygon points="346.11 189.27 276.63 250.1 273.74 246.8 352.75 176.81 346.11 189.27" fill="#091a33"/><polygon points="106.9 189.27 176.38 250.1 179.27 246.8 100.27 176.81 106.9 189.27" fill="#0d264a"/><path d="M366.41,367.36c0,10.09-7.84,18.27-17.52,18.27H104.12c-9.68,0-17.52-8.18-17.52-18.27V234.3c0-10.09,7.84-18.27,17.52-18.27H348.89c9.68,0,17.52,8.18,17.52,18.27Z" fill="#54368e"/><rect x="149.04" y="101.32" width="154.93" height="4.38" fill="#091a33"/><circle cx="149.04" cy="156.57" r="55.21" fill="#0d264a"/><path d="M149,79.11a77.46,77.46,0,1,0,77.47,77.46A77.47,77.47,0,0,0,149,79.11ZM91.32,123.25a18.47,18.47,0,1,1,6.76,25.24A18.48,18.48,0,0,1,91.32,123.25ZM116.73,197a18.82,18.82,0,1,1,6.88-25.71A18.82,18.82,0,0,1,116.73,197ZM149,221.13a16.38,16.38,0,1,1,16.38-16.38A16.38,16.38,0,0,1,149,221.13ZM149,126a17.56,17.56,0,1,1,17.56-17.56A17.57,17.57,0,0,1,149,126Zm32.57-9.32a18.3,18.3,0,1,1-6.7,25A18.3,18.3,0,0,1,181.61,116.64Zm24.45,72.85a17.66,17.66,0,1,1-6.47-24.13A17.67,17.67,0,0,1,206.06,189.49Z" fill="#f4cc21"/><circle cx="149.04" cy="156.58" r="13.63" fill="#edb926"/><circle cx="303.97" cy="156.57" r="55.21" fill="#0d264a"/><path d="M304,79.11a77.46,77.46,0,1,0,77.46,77.46A77.46,77.46,0,0,0,304,79.11Zm-57.72,44.14A18.48,18.48,0,1,1,253,148.49,18.49,18.49,0,0,1,246.25,123.25ZM271.66,197a18.82,18.82,0,1,1,6.89-25.71A18.82,18.82,0,0,1,271.66,197ZM304,221.13a16.38,16.38,0,1,1,16.38-16.38A16.38,16.38,0,0,1,304,221.13ZM304,126a17.56,17.56,0,1,1,17.56-17.56A17.56,17.56,0,0,1,304,126Zm32.57-9.32a18.3,18.3,0,1,1-6.7,25A18.3,18.3,0,0,1,336.54,116.64ZM361,189.49a17.66,17.66,0,1,1-6.47-24.13A17.67,17.67,0,0,1,361,189.49Z" fill="#f4cc21"/><circle cx="303.97" cy="156.58" r="13.63" fill="#edb926"/><polygon points="381.43 263.23 381.43 302.46 381.43 341.69 425.82 370.88 425.82 302.46 425.82 234.04 381.43 263.23" fill="#4e2f7f"/><path d="M213.07,358a4.9,4.9,0,0,1-4.88,4.88H119.55a4.9,4.9,0,0,1-4.88-4.88V315.67a4.89,4.89,0,0,1,4.88-4.87h88.64a4.9,4.9,0,0,1,4.88,4.87Z" fill="#0d264a"/><rect x="119.99" y="316.11" width="87.76" height="41.46" fill="#f4cc21"/><rect x="119.19" y="253.05" width="20.37" height="20.37" rx="5.32" ry="5.32" fill="#0d264a"/><rect x="124.51" y="258.37" width="9.73" height="9.73" fill="#ffe145"/><rect x="153.68" y="253.05" width="20.37" height="20.37" rx="5.32" ry="5.32" fill="#0d264a"/><rect x="159" y="258.37" width="9.73" height="9.73" fill="#ffe145"/><rect x="188.18" y="253.05" width="20.37" height="20.37" rx="5.32" ry="5.32" fill="#0d264a"/><rect x="193.5" y="258.37" width="9.73" height="9.73" fill="#ffe145"/><circle cx="332.83" cy="348.29" r="14.6" fill="#091a33"/><circle cx="332.83" cy="318.77" r="8.08" fill="#091a33"/><circle cx="332.83" cy="348.29" r="9.54" fill="#ffc533"/></svg>