<svg id="Layer_1" data-name="Layer 1" xmlns="http://www.w3.org/2000/svg" viewBox="0 0 480 480"><title>Iitems</title><path d="M415.06,141.46,392.81,74.7a13.32,13.32,0,0,0-22.06-5.21L291.22,149l-4.71-4.71a6.66,6.66,0,0,0-9.42,0L206.43,215,197,205.55a6.66,6.66,0,0,0-9.42,0l-33,33L79.24,313.9a33.31,33.31,0,0,0,0,47.11l66,66a33.31,33.31,0,0,0,47.11,0l75.37-75.37,33-33a6.66,6.66,0,0,0,0-9.42l-9.42-9.42,70.66-70.66a6.66,6.66,0,0,0,0-9.42L357.17,215l53.06-53.06A19.88,19.88,0,0,0,415.06,141.46Z" fill="#f1f2f2"/><path d="M168.74,449.19a45.67,45.67,0,0,1-32.39-13.4l-66-66a45.86,45.86,0,0,1,0-64.79L178.75,196.71a19.18,19.18,0,0,1,27.1,0l.58.58,61.82-61.82A19.19,19.19,0,0,1,290.59,132l71.33-71.33a25.82,25.82,0,0,1,42.76,10.09l22.25,66.76a32.31,32.31,0,0,1-7.85,33.24l-44.86,44.86a19.19,19.19,0,0,1-3.49,22.33L308.9,299.76l.58.58a19.18,19.18,0,0,1,0,27.1L201.14,435.79A45.67,45.67,0,0,1,168.74,449.19ZM192.3,218.52,88.08,322.74a20.83,20.83,0,0,0,0,29.43l66,66a20.83,20.83,0,0,0,29.43,0L287.68,313.9l-14.13-14.13,75.37-75.37L339.5,215l61.9-61.9a7.35,7.35,0,0,0,1.81-7.66h0L381,78.65a.9.9,0,0,0-.67-.56.88.88,0,0,0-.7.23L291.22,166.7l-9.42-9.42-75.37,75.37Z" fill="#fff"/><path d="M214,336.43a6.39,6.39,0,0,0-6.4-6.4h-6.4a6.4,6.4,0,1,0,0,12.8h6.4A6.39,6.39,0,0,0,214,336.43Z" fill="#f1f2f2"/><path d="M207.62,355.33h-6.4a18.9,18.9,0,1,1,0-37.8h6.4a18.9,18.9,0,0,1,0,37.8Zm-3.2-24.09a6.1,6.1,0,0,0,0,10.39,6.1,6.1,0,0,0,0-10.39Z" fill="#fff"/><path d="M226.81,342.83h6.4a6.4,6.4,0,0,0,0-12.8h-6.4a6.4,6.4,0,0,0,0,12.8Z" fill="#f1f2f2"/><path d="M233.21,355.33h-6.4a18.9,18.9,0,0,1,0-37.8h6.4a18.9,18.9,0,0,1,0,37.8ZM230,331.24a6.1,6.1,0,0,0,0,10.39,6.1,6.1,0,0,0,0-10.39Z" fill="#fff"/><path d="M252.41,342.83h6.4a6.4,6.4,0,1,0,0-12.8h-6.4a6.4,6.4,0,1,0,0,12.8Z" fill="#f1f2f2"/><path d="M258.8,355.33h-6.4a18.9,18.9,0,1,1,0-37.8h6.4a18.9,18.9,0,1,1,0,37.8Zm-3.2-24.09a6.1,6.1,0,0,0,0,10.39,6.1,6.1,0,0,0,0-10.39Z" fill="#fff"/><path d="M235.82,299.88l-6.25-1.38A6.4,6.4,0,1,0,226.8,311l6.25,1.39a6.93,6.93,0,0,0,1.4.15,6.4,6.4,0,0,0,1.38-12.65Z" fill="#f1f2f2"/><path d="M234.44,325a19.47,19.47,0,0,1-3.9-.4l-.21,0-6.25-1.39a18.9,18.9,0,0,1,8-36.93l.13,0,6.29,1.39A18.9,18.9,0,0,1,234.44,325Zm-2-24.67a6.06,6.06,0,0,0-3.94,4.43,6.12,6.12,0,0,0,1.73,5.74,6.14,6.14,0,0,0,2.21-10.17Z" fill="#fff"/><path d="M260.8,305.43,254.56,304a6.4,6.4,0,1,0-2.78,12.5l6.25,1.39a6.86,6.86,0,0,0,1.39.15,6.4,6.4,0,0,0,1.38-12.64Z" fill="#f1f2f2"/><path d="M259.42,330.58a19.43,19.43,0,0,1-3.91-.4l-.19,0-6.25-1.39a18.9,18.9,0,0,1,8-36.94l.17,0,6.25,1.39a18.9,18.9,0,0,1-4.1,37.35Zm-2-24.67a6.05,6.05,0,0,0-3.94,4.43,6.12,6.12,0,0,0,1.73,5.74,6.14,6.14,0,0,0,2.21-10.17Z" fill="#fff"/><path d="M276.76,322.09l6.25,1.39a6.47,6.47,0,0,0,1.4.15A6.4,6.4,0,0,0,285.78,311l-6.25-1.39a6.4,6.4,0,1,0-2.78,12.5Z" fill="#f1f2f2"/><path d="M284.41,336.13a19,19,0,0,1-4.07-.44L274,334.3a18.9,18.9,0,0,1,8-36.93l.16,0,6.25,1.39a18.9,18.9,0,0,1-4.09,37.35Zm-2-24.66a6.11,6.11,0,0,0-2.23,10.16,6.11,6.11,0,0,0,2.23-10.16Z" fill="#fff"/><path d="M233,360.48l-6.25,1.39a6.4,6.4,0,0,0,2.77,12.5l6.25-1.39a6.4,6.4,0,1,0-2.78-12.5Z" fill="#f1f2f2"/><path d="M228.17,387a18.9,18.9,0,0,1-4.09-37.35l6.37-1.42a18.9,18.9,0,0,1,8.09,36.93l-6.26,1.39A19.08,19.08,0,0,1,228.17,387Zm2-24.66a6.11,6.11,0,0,0,2.24,10.15,6.11,6.11,0,0,0-2.24-10.15Z" fill="#fff"/><path d="M415.06,141.46,392.81,74.7a13.32,13.32,0,0,0-22.06-5.21L251.18,189.06a6.66,6.66,0,0,0,0,9.42L307.71,255a6.66,6.66,0,0,0,9.42,0l93.1-93.1A19.87,19.87,0,0,0,415.06,141.46Z" fill="#d14253"/><path d="M361.88,219.68l-75.37-75.37a6.66,6.66,0,0,0-9.42,0l-89.5,89.5a6.66,6.66,0,0,0,0,9.42L263,318.61a6.66,6.66,0,0,0,9.42,0l89.5-89.5A6.66,6.66,0,0,0,361.88,219.68Z" fill="#fbe399"/><path d="M267.67,351.58V332.74l-94.22-94.22H154.61L79.24,313.9a33.31,33.31,0,0,0,0,47.11l66,66a33.31,33.31,0,0,0,47.11,0Z" fill="#ffe01a"/><path d="M300.65,309.19,197,205.55a6.66,6.66,0,0,0-9.42,0l-33,33L267.67,351.58l33-33A6.66,6.66,0,0,0,300.65,309.19Z" fill="#d14253"/></svg>