<svg id="Layer_1" data-name="Layer 1" xmlns="http://www.w3.org/2000/svg" viewBox="0 0 480 480"><title>Iitems</title><polygon points="121.73 158.88 163.3 225.33 229.74 266.9 262.07 234.57 220.5 168.12 154.06 126.56 121.73 158.88" fill="#fafafa" stroke="#fff" stroke-miterlimit="10" stroke-width="20"/><polygon points="57.07 223.54 98.64 289.99 165.08 331.56 197.41 299.23 155.84 232.78 89.4 191.21 57.07 223.54" fill="#fafafa" stroke="#fff" stroke-miterlimit="10" stroke-width="20"/><rect x="72.06" y="217.34" width="45.72" height="152.75" transform="translate(-179.89 153.14) rotate(-45)" fill="#fafafa" stroke="#fff" stroke-miterlimit="10" stroke-width="20"/><rect x="136.71" y="152.69" width="45.72" height="152.75" transform="translate(-115.24 179.92) rotate(-45)" fill="#fafafa" stroke="#fff" stroke-miterlimit="10" stroke-width="20"/><polygon points="186.38 94.23 227.95 160.67 294.4 202.24 326.73 169.91 218.71 61.9 186.38 94.23" fill="#fafafa" stroke="#fff" stroke-miterlimit="10" stroke-width="20"/><rect x="201.37" y="88.03" width="45.72" height="152.75" transform="translate(-50.58 206.71) rotate(-45)" fill="#fafafa" stroke="#fff" stroke-miterlimit="10" stroke-width="20"/><path d="M353.77,163.69a23.52,23.52,0,0,0-33.26,0l-194,194a23.52,23.52,0,1,0,33.26,33.26l175.3-175.3A97.09,97.09,0,0,1,320.51,334a23.52,23.52,0,1,0,33.26,33.26C409.9,311.15,409.9,219.82,353.77,163.69Z" fill="#fafafa" stroke="#fff" stroke-miterlimit="10" stroke-width="20"/><polygon points="120.7 158.88 162.27 225.33 228.71 266.9 261.04 234.57 219.47 168.12 153.03 126.56 120.7 158.88" fill="#ffe01a"/><polygon points="56.04 223.54 97.61 289.99 164.05 331.56 196.38 299.23 154.81 232.78 88.37 191.21 56.04 223.54" fill="#ffe01a"/><rect x="71.03" y="217.34" width="45.72" height="152.75" transform="translate(-180.19 152.42) rotate(-45)" fill="#edb926"/><rect x="135.68" y="152.69" width="45.72" height="152.75" transform="translate(-115.54 179.19) rotate(-45)" fill="#edb926"/><polygon points="185.35 94.23 226.93 160.67 293.37 202.24 325.7 169.91 217.69 61.9 185.35 94.23" fill="#ffe01a"/><rect x="200.34" y="88.03" width="45.72" height="152.75" transform="translate(-50.88 205.98) rotate(-45)" fill="#edb926"/><path d="M352.74,163.69a23.52,23.52,0,0,0-33.26,0l-194,194a23.52,23.52,0,1,0,33.26,33.26l175.3-175.3A97.09,97.09,0,0,1,319.48,334a23.52,23.52,0,0,0,33.26,33.26C408.87,311.15,408.87,219.82,352.74,163.69Z" fill="#24b8ac"/></svg>