<svg id="Layer_1" data-name="Layer 1" xmlns="http://www.w3.org/2000/svg" viewBox="0 0 480 480"><title>Iitems</title><path d="M410.65,276,243.26,108.57l-20,20L149.77,55.09l-93,93,73.48,73.48-20,20L277.68,408.93a57.81,57.81,0,0,0,81.75,0l51.22-51.22A57.81,57.81,0,0,0,410.65,276Z" fill="#f1f2f2"/><path d="M318.55,438.37a69.85,69.85,0,0,1-49.71-20.59L92.61,241.54l20-20L39.14,148.05,149.77,37.42l73.48,73.48,20-20L419.49,267.13a70.31,70.31,0,0,1,0,99.43l-51.22,51.22A69.85,69.85,0,0,1,318.55,438.37ZM128,241.54,286.52,400.1a45.31,45.31,0,0,0,64.07,0l51.22-51.22a45.31,45.31,0,0,0,0-64.07L243.26,126.25l-20,20L149.77,72.77,74.49,148.05,148,221.53Z" fill="#fff"/><rect x="74.31" y="86.35" width="131.46" height="103.92" transform="translate(-56.79 139.53) rotate(-45)" fill="#fafafa"/><path d="M243.26,108.57l-133,133L277.68,408.93a57.81,57.81,0,0,0,81.75,0l51.22-51.22a57.81,57.81,0,0,0,0-81.75L243.26,108.57Z" fill="#691f2f"/><rect x="109.82" y="140.09" width="14.23" height="41.42" transform="translate(-79.45 129.78) rotate(-45)" fill="#bdbdbd"/><rect x="155.39" y="94.51" width="14.23" height="41.42" transform="translate(-33.87 148.66) rotate(-45)" fill="#bdbdbd"/><path d="M287.19,218.6l-19,19,19,19,5.51-5.51,9.53,9.53-10.7,19.11-39-39,13.14-13.14L218,214.13l13.49,47.68,13.71-13.71,50.52,50.52-21,12.27-8.4-8.4a15.3,15.3,0,1,0-7.34,7.34L273,323.9l30.23-17.68,8.63,8.63a19.71,19.71,0,1,0,7.34-7.34l-20.1-20.1,16-28.52L300,243.81l6.18-6.18Z" fill="#f7e221"/></svg>