<svg id="Layer_1" data-name="Layer 1" xmlns="http://www.w3.org/2000/svg" viewBox="0 0 480 480"><title>Iitems</title><path d="M298.92,188.45c-.88-1-1.81-1.86-2.74-2.74h0c-11.29-10.55-26.15-15.59-41.33-15.16h0L202,168c-3.52-7.85-11.82-20.67-28.15-19.17-12.18,1.13-13.54,12.1-13.32,18.3a68.17,68.17,0,0,0-35.41,17.53C99,209,95.94,248.23,118.36,272.33c11,11.85,26.14,17.82,41.77,17.94l74.29,3.08a62.09,62.09,0,0,0,19.52.74l32.22,34.62L372,333l32.8-30.53L301.45,191.38Q300.24,189.89,298.92,188.45ZM179.4,166.85a61.46,61.46,0,0,0-7.65-.6l.1-.3.06-.16q.1-.25.22-.5l.05-.11c.09-.18.19-.36.3-.54l.14-.21.26-.37.15-.19c.13-.16.27-.32.42-.47l.2-.19.35-.31.21-.17a7,7,0,0,1,.59-.4l.22-.12.52-.26.26-.12a8.46,8.46,0,0,1,.8-.29l.18,0q.37-.11.77-.19l.29-.05c.34-.06.68-.11,1.05-.14a9.65,9.65,0,0,1,1.29,0h.23a9.25,9.25,0,0,1,1.16.16l.23.05a9.55,9.55,0,0,1,1.11.32l.09,0a10.12,10.12,0,0,1,1.08.48l0,0a11.17,11.17,0,0,1,1.06.63l.05,0a14.64,14.64,0,0,1,2.79,2.5v0a20.33,20.33,0,0,1,1.57,2Z" fill="#fff"/><path d="M376.64,345.71l-96.18-4.78L248.87,307A73.76,73.76,0,0,1,233,305.79l-73.15-3c-19.68-.21-37.65-8-50.61-21.92-27.07-29.1-23.75-76.37,7.4-105.37A81.06,81.06,0,0,1,149,156.9c2-8.07,6.67-14.25,13.4-17.68l8.19-2.46,8.44-.51c12.49.83,23.21,7.69,30.61,19.56L255.1,158a69.88,69.88,0,0,1,49.61,18.54l6.82,6.37-.3.6L422.45,303.08Zm-84.8-29.25,75.49,3.75,19.78-18.41L292,199.58l-.27-.33c-.64-.8-1.31-1.57-2-2.31s-1.34-1.38-2.11-2.1l-.42-.4a45.16,45.16,0,0,0-32-11.4l-5.64.16-.4-.43L214,181.06h0l-6-.29,20.81,49.95-44.9-51.13-5.71-.28-.56-.08a49.27,49.27,0,0,0-6.1-.48l-4.47-.07-4.55.74a55.54,55.54,0,0,0-28.9,14.34c-21.06,19.61-23.81,51-6.13,70,8.28,8.9,19.89,13.86,32.71,14h.42l75.27,3.12,1,.19a49.52,49.52,0,0,0,15.59.58l6.3-.75ZM178.21,173.22l0,0Z" fill="#fff"/><path d="M161,169.74s-4.2-21,12.89-22.53c23.35-2.15,30.29,25,30.29,25l-11.8-1.12s-4.23-12.33-13.46-11.56-7.59,10.36-7.59,10.36Z" fill="#545454"/><path d="M177.93,155.12c-8.62-2.07-12.37,10.66-12.37,10.66.06,1.76,2.43,2.33,5.63,2.31,0-2.82,1-8,7.7-8.57,3.94-.34,7,1.74,9.15,4.22A14.64,14.64,0,0,0,177.93,155.12Z" fill="#303030"/><path d="M254.62,265.62a160.35,160.35,0,0,0-33.27-30,242.29,242.29,0,0,0-56-28.42L160,288.67l74.43,3.08a63.61,63.61,0,0,0,32.84-2.27c.51-.09,1-.21,1.56-.33l5.28,7.34C269.72,284.66,258.78,270.63,254.62,265.62Z" fill="#545454"/><path d="M301.45,189.8q-1.21-1.5-2.54-2.93c-.89-1-1.81-1.86-2.74-2.74h0C284.89,173.57,270,168.53,254.85,169h0l-86.72-4.23-2.21,33.71c29.24,9.89,56.82,24.08,79.9,45.72,12.26,11.49,22.63,24.38,30.21,39.46,4,7.9,8.93,15.79,8.14,23.89l19.14,13.65,55.22-4.24L372,331.38l32.8-30.53Z" fill="#9e9e9e"/><path d="M215.62,185.53c-.81-1-1.65-2-2.54-2.93s-1.8-1.86-2.74-2.74h0c-22.78-21.3-60.09-20.19-85.22,3.18-26.16,24.35-29.19,63.61-6.77,87.7,16,17.23,40.72,22,63.06,14.48,17.77-3.38,44.48-22.87,59-7.25l45.73,49.15L319,296.59Z" fill="#696969"/><polygon points="318.96 296.59 404.78 300.86 371.99 331.38 286.15 327.12 318.96 296.59" fill="#545454"/><polygon points="325.81 303.33 309.31 320.12 369.01 323.63 386.82 307.74 325.81 303.33" fill="#303030"/><polygon points="242.45 201.46 300.86 203.81 325.68 230.66 267.83 230.51 242.45 201.46" fill="#303030"/><path d="M192,258.5c-17.33,16-43.94,15.46-59.42-1.28s-14-43.32,3.35-59.35,43.93-15.45,59.42,1.3S209.34,242.47,192,258.5Z" fill="#ffd11a"/><path d="M186.93,253c-14.19,13.12-36,12.65-48.65-1.05s-11.45-35.46,2.74-48.58,36-12.65,48.63,1.06S201.11,239.88,186.93,253Z" fill="#ffe01a"/><polygon points="249.13 209.11 295.75 212.78 312.05 230.63 267.83 230.51 249.13 209.11" fill="#545454"/></svg>