<svg xmlns="http://www.w3.org/2000/svg" viewBox="0 0 480 480"><title>Iitems</title><g style="isolation:isolate"><g id="Layer_1" data-name="Layer 1"><path d="M382,152.74C382,119.25,367.87,92.5,340.17,73.2l-.05,0-.71-.49h0A144.87,144.87,0,0,0,309.3,57.13l-.06,0-.83-.31a197,197,0,0,0-25.33-7.56l0,0-1.16-.26h0l-15.14-3.38-22.44-3.32-21.72,3.49-15.26,3.5h0l-1.19.27,0,0a194.27,194.27,0,0,0-25.94,8h0l-.84.33-.06,0a141.09,141.09,0,0,0-30.43,16.35l-.78.56,0,.05c-26.13,19.18-39.43,45.37-39.5,77.86-.26,5.55-.8,54.61,57,114.86l.27.28c20.31,19.57,44,44.39,46.93,50.36l1.57,3.24,1.3,5.87a14.63,14.63,0,0,0-5.26,11.23v28.48a14.68,14.68,0,0,0,14.66,14.66h40.44a14.68,14.68,0,0,0,14.66-14.66V338.57a14.62,14.62,0,0,0-5.12-11.11l1.61-7.28.95-2c2.89-6,26.75-30.77,47.19-50.34l.3-.3C382.83,207.35,382.3,158.29,382,152.74Z" fill="#fff"/><rect x="244.26" y="322.91" width="21.45" height="1.9" transform="translate(-99.26 534.61) rotate(-82.54)" fill="#217e76"/><rect x="233.79" y="313.13" width="1.9" height="21.45" transform="translate(-40.28 33.43) rotate(-7.5)" fill="#217e76"/><rect x="244.28" y="311.78" width="1.9" height="22.71" fill="#217e76"/><polygon points="227.31 334.7 222.5 312.93 224.36 312.52 229.17 334.29 227.31 334.7" fill="#217e76"/><polygon points="263.19 334.7 261.34 334.29 266.15 312.52 268 312.93 263.19 334.7" fill="#217e76"/><rect x="220.29" y="334.35" width="49.77" height="37.81" rx="4.66" ry="4.66" fill="#217e76"/><path d="M173.37,147.57c-5.91-60.07,23.35-81.65,36.15-88.15a185.39,185.39,0,0,0-25.77,7.86C171.5,74.95,146.22,96.61,149,143.88,152.64,206,190.19,260.5,190.19,260.5s27.08,37.61,36.13,53.72l.82-.82,2.39,1.94,2.3-1.7c-1.67-6.51-10.39-20.8-10.39-20.8C215.75,281.06,180.89,224,173.37,147.57Z" fill="#f4cc21"/><path d="M241.38,54.71s-5.19.2-13.42,1.33c-8.88,4.92-28.55,22.9-25.59,85.06,3.53,74.13,31.3,160.58,35.3,172.69l.63-.4,3.19,1.94,3.73-1.94V54.62C244,54.61,242.58,54.63,241.38,54.71Z" fill="#f4cc21"/><path d="M132.82,151.5c-2.52-38.52,14.53-61,21.79-68.68-20.32,14.65-36.18,36.89-36.18,70.64,0,0-3.49,47.5,54.26,107.65,0,0,43.52,41.92,49,53.2l1-.6c-3.92-8.37-31.35-38.43-31.35-38.43C159.93,236.72,136,200.23,132.82,151.5Z" fill="#f4cc21"/><path d="M357,151.5c2.71-41.37-17.16-64.2-23.23-70.16a135.66,135.66,0,0,0-28.86-14.76c11.74,7,38.77,28.51,35.91,77.29C337.15,206,299.6,260.5,299.6,260.5s-27.17,37.68-36.11,53.67l1.26,1.16,1.77-1.94.65.3c3.93-8.38,31.25-38.41,31.25-38.41C329.85,236.72,353.78,200.23,357,151.5Z" fill="#f4cc21"/><path d="M316.41,147.57c6-61-24.23-82.29-36.71-88.43-6.91-1.54-13.1-2.56-18.09-3.22,8.77,4.75,28.79,22.5,25.8,85.18-3.56,74.72-31.65,161.76-35.28,172.75l2.13,1.48,3.38-1.94.29.24c1.51-6.36,10.42-20.81,10.42-20.81C274,281.06,308.89,224,316.41,147.57Z" fill="#f4cc21"/><path d="M149,143.88c-2.77-47.27,22.5-68.93,34.76-76.59A131.82,131.82,0,0,0,154.6,82.81c-7.26,7.72-24.31,30.16-21.79,68.68,3.19,48.73,27.11,85.22,58.55,123.79,0,0,27.43,30.06,31.35,38.43l.55-.31,1.94,1.94,1.11-1.11c-9.05-16.1-36.13-53.72-36.13-53.72S152.64,206,149,143.88Z" fill="#24b8ac"/><path d="M228,56c-5.13.71-11.45,1.78-18.43,3.38-12.81,6.49-42.06,28.07-36.15,88.15,7.52,76.44,42.38,133.49,48.07,145.26,0,0,8.72,14.28,10.39,20.8l.32-.23,3.08,1.94,2.44-1.54c-4-12.11-31.77-98.56-35.3-172.69C199.41,78.94,219.08,61,228,56Z" fill="#24b8ac"/><path d="M372,153.45c0-34.91-17-57.5-38.29-72.12,6.07,6,25.93,28.79,23.23,70.16-3.19,48.73-27.11,85.22-58.55,123.79,0,0-27.31,30-31.25,38.41l1.33.61c5.47-11.28,49.28-53.2,49.28-53.2C375.53,201,372,153.45,372,153.45Z" fill="#24b8ac"/><path d="M261.61,55.92c-7.71-1-12.53-1.21-12.53-1.21s-1.76-.08-3.85-.09V313.4l3.33,1.94,2.92-1.94.65.45c3.63-11,31.72-98,35.28-172.75C290.4,78.43,270.38,60.67,261.61,55.92Z" fill="#24b8ac"/><path d="M340.79,143.88c2.86-48.79-24.17-70.3-35.91-77.29a188.12,188.12,0,0,0-25.18-7.44c12.49,6.14,42.71,27.47,36.71,88.43C308.89,224,274,281.06,268.34,292.84c0,0-8.91,14.44-10.42,20.81l2,1.69,2.69-1.94.84.78c8.94-16,36.11-53.67,36.11-53.67S337.15,206,340.79,143.88Z" fill="#24b8ac"/><ellipse cx="312.62" cy="139.28" rx="37.02" ry="54.37" transform="translate(-27.3 99.49) rotate(-17.34)" fill="#ffdc8e" opacity="0.46" style="mix-blend-mode:screen"/></g></g></svg>