<svg id="Layer_1" data-name="Layer 1" xmlns="http://www.w3.org/2000/svg" viewBox="0 0 480 480"><title>Iitems</title><path d="M271.18,105.62V84.52a8.33,8.33,0,0,0-8.33-8.33H255a8.33,8.33,0,0,0-8.33,8.33v19.8a151.82,151.82,0,0,0-69.29,18.92l-5.93-9a38.43,38.43,0,1,0-20.42,13.48l5.93,9A151.82,151.82,0,0,0,112.4,193l-18.21-7.77a8.33,8.33,0,0,0-10.93,4.39l-3.07,7.19a8.33,8.33,0,0,0,4.39,10.93L104,216A152.77,152.77,0,1,0,271.18,105.62Zm-149.41-2.15a23.31,23.31,0,1,1,40.58-3.06L153,86.29a8.33,8.33,0,0,0-11.54-2.36L135,88.24a8.33,8.33,0,0,0-2.36,11.54l9.32,14.12A23.29,23.29,0,0,1,121.77,103.47Z" fill="#d32f2f" stroke="#fff" stroke-miterlimit="10" stroke-width="20"/><path d="M162.4,122.7A38.43,38.43,0,1,1,173.3,69.45,38.48,38.48,0,0,1,162.4,122.7Zm-34-51.53a23.31,23.31,0,1,0,32.3,6.61A23.34,23.34,0,0,0,128.38,71.17Z" fill="#00acc1"/><rect x="143.01" y="80.97" width="24.47" height="61.77" rx="8.33" ry="8.33" transform="translate(-35.94 104.06) rotate(-33.44)" fill="#424242"/><rect x="246.71" y="76.19" width="24.47" height="61.77" rx="8.33" ry="8.33" fill="#424242"/><rect x="97.89" y="174.47" width="24.47" height="61.77" rx="8.33" ry="8.33" transform="translate(-121.97 226.04) rotate(-66.89)" fill="#424242"/><circle cx="251.12" cy="257.02" r="152.77" transform="translate(-100.06 180.92) rotate(-33.44)" fill="#00838f"/><circle cx="251.1" cy="257.02" r="120.81" transform="translate(-100.07 180.91) rotate(-33.44)" fill="#fff8e1"/><circle cx="251.1" cy="257.02" r="17.46" transform="translate(-100.07 180.91) rotate(-33.44)" fill="#424242"/><line x1="251.1" y1="257.02" x2="212.4" y2="198.41" fill="none" stroke="#424242" stroke-linecap="round" stroke-linejoin="round" stroke-width="8.83"/><line x1="251.1" y1="257.02" x2="305.53" y2="251.27" fill="none" stroke="#424242" stroke-linecap="round" stroke-linejoin="round" stroke-width="14.71"/><path d="M297.19,338.77a6.81,6.81,0,0,1,1.91-9.44h0a6.78,6.78,0,0,1,9.4,1.9h0a6.78,6.78,0,0,1-1.89,9.43h0l0,0h0A6.8,6.8,0,0,1,297.19,338.77ZM257.43,357.2a6.77,6.77,0,0,1-7.2-6.36h0a6.79,6.79,0,0,1,6.36-7.2h0a6.77,6.77,0,0,1,7.2,6.36h0a6.76,6.76,0,0,1-3,6.11h0A6.63,6.63,0,0,1,257.43,357.2Zm74.44-52.38a6.8,6.8,0,0,1-3.08-9.11h0a6.83,6.83,0,0,1,9.12-3.06h0a6.81,6.81,0,0,1,3.06,9.13h0a6.67,6.67,0,0,1-2.33,2.64h0A6.78,6.78,0,0,1,331.87,304.82ZM206.57,347h0a6.8,6.8,0,0,1-3.08-9.11h0a6.83,6.83,0,0,1,9.11-3.08h0a6.82,6.82,0,0,1,3.08,9.11h0a6.83,6.83,0,0,1-2.35,2.66h0A6.79,6.79,0,0,1,206.57,347Zm138.36-88.86a6.82,6.82,0,0,1-7.19-6.4h0a6.75,6.75,0,0,1,6.37-7.17h0a6.78,6.78,0,0,1,7.2,6.36h0a6.83,6.83,0,0,1-3.05,6.09h0A7,7,0,0,1,344.93,258.14ZM167.61,312.73a6.76,6.76,0,0,1,1.87-9.41h0a6.82,6.82,0,0,1,9.43,1.85h0a6.84,6.84,0,0,1-1.87,9.45h0A6.78,6.78,0,0,1,167.61,312.73ZM323.5,209.2c-.07-.11-.13-.24-.22-.38h0a1.82,1.82,0,0,0-.23-.3h0a6.8,6.8,0,0,1,1.85-9.43h0a6.76,6.76,0,0,1,9.42,1.83h0l.24.36h0c.09.14.22.28.31.42h0a6.8,6.8,0,0,1-1.93,9.42h0A6.81,6.81,0,0,1,323.5,209.2ZM158.16,269.93a6.78,6.78,0,0,1-7.22-6.34h0a6.77,6.77,0,0,1,6.34-7.22h0a6.82,6.82,0,0,1,7.22,6.34h0a6.8,6.8,0,0,1-3.06,6.13h0A6.79,6.79,0,0,1,158.16,269.93Zm131.1-90.87h0a6.82,6.82,0,0,1-3.12-9.12h0a6.78,6.78,0,0,1,9.08-3.13h0a6.81,6.81,0,0,1,3.14,9.1h0a7,7,0,0,1-2.36,2.7h0A6.77,6.77,0,0,1,289.26,179.06ZM164.14,221.8a6.79,6.79,0,0,1-3.1-9.09h0a6.79,6.79,0,0,1,9.09-3.1h0a6.79,6.79,0,0,1,3.1,9.09h0a6.94,6.94,0,0,1-2.37,2.67h0A6.77,6.77,0,0,1,164.14,221.8Zm81.07-51.38a6.81,6.81,0,0,1-7.24-6.33h0a6.81,6.81,0,0,1,6.33-7.24h0a6.81,6.81,0,0,1,7.24,6.33h0a6.83,6.83,0,0,1-3,6.15h0A6.76,6.76,0,0,1,245.2,170.42ZM193.33,183.1a6.82,6.82,0,0,1,1.87-9.45h0a6.76,6.76,0,0,1,9.41,1.86h0a6.8,6.8,0,0,1-1.85,9.43h0l0,0h0A6.81,6.81,0,0,1,193.33,183.1Z" fill="#f9a825"/><polygon points="122.48 92.11 125.85 78.63 133.37 72.66 144.78 72.66 153.59 74.01 122.48 92.11" fill="#fff"/></svg>