<svg id="Layer_1" data-name="Layer 1" xmlns="http://www.w3.org/2000/svg" viewBox="0 0 480 480"><title>Iitems</title><path d="M143.83,271v12.19H128.38a7.21,7.21,0,0,0-5.43,2.41,7.29,7.29,0,0,0-1,1.27L85.52,350.08a7.38,7.38,0,0,0-1,3.68h0a7.36,7.36,0,0,0,1,3.69L122,420.64a7.39,7.39,0,0,0,6.38,3.69h73a7.39,7.39,0,0,0,6.38-3.69l36.48-63.19a7.37,7.37,0,0,0,1-3.68h0a7.39,7.39,0,0,0-1-3.69L207.72,286.9a7.31,7.31,0,0,0-.54-.81,7.39,7.39,0,0,0-5.84-2.87H185.89V271a3.9,3.9,0,0,0-2.68-3.69,3.9,3.9,0,0,0,2.68-3.69V248.08a3.92,3.92,0,0,0-3.9-3.9H170.63V214.59a36.4,36.4,0,1,0-42.16-35.95,5.77,5.77,0,0,0,11.53,0,24.87,24.87,0,1,1,24.87,24.87,5.76,5.76,0,0,0-5.76,5.76v34.89H147.73a3.92,3.92,0,0,0-3.9,3.9v15.56a3.9,3.9,0,0,0,2.68,3.69A3.9,3.9,0,0,0,143.83,271Z" fill="#f1f2f2"/><path d="M201.34,436.83h-73a19.92,19.92,0,0,1-17.2-9.94L74.69,363.71a19.89,19.89,0,0,1,0-19.87l36.48-63.19a20.62,20.62,0,0,1,5.14-5.85,20,20,0,0,1,12.07-4.09h2.95a16.37,16.37,0,0,1,.42-3.38,16.38,16.38,0,0,1-.42-3.69V248.08a16.42,16.42,0,0,1,15.27-16.37V209.29A18.29,18.29,0,0,1,164.86,191a12.37,12.37,0,1,0-12.37-12.37,18.27,18.27,0,0,1-36.53,0A48.9,48.9,0,1,1,183.13,224v7.67a16.43,16.43,0,0,1,15.27,16.37v15.56a16.38,16.38,0,0,1-.42,3.69,16.36,16.36,0,0,1,.42,3.38h2.95a19.88,19.88,0,0,1,17.22,9.94L255,343.83a19.9,19.9,0,0,1,0,19.86l-36.49,63.2A19.93,19.93,0,0,1,201.34,436.83ZM97.82,353.77l33.52,58.06h67l33.52-58.06-33.52-58.06h-25V277.22l-8.54-2.86-8.53,2.86v18.49h-25Zm58.5-96.33,8.53,2.86,8.54-2.86v-.76H156.33Z" fill="#fff"/><path d="M293.32,182.08v12.66H277.88a7.4,7.4,0,0,0-5.2,2.15l-.08.09a7.31,7.31,0,0,0-1.11,1.45L235,261.62a7.4,7.4,0,0,0,0,7.37l36.48,63.19a7.39,7.39,0,0,0,6.38,3.69h73a7.39,7.39,0,0,0,6.38-3.69L393.7,269a7.37,7.37,0,0,0,1-3.68h0a7.42,7.42,0,0,0-.23-1.82v-.07c0-.09-.06-.18-.09-.27a7.31,7.31,0,0,0-.65-1.52l-36.48-63.19a7.39,7.39,0,0,0-6.38-3.69H335.39V182.08a3.91,3.91,0,0,0-3.31-3.84,3.91,3.91,0,0,0,3.31-3.84V158.83a3.92,3.92,0,0,0-3.9-3.9h-11.4V125.56a36.4,36.4,0,1,0-42.17-35.95,5.77,5.77,0,0,0,11.53,0,24.87,24.87,0,1,1,24.87,24.87,5.76,5.76,0,0,0-5.76,5.76v34.68H297.23a3.92,3.92,0,0,0-3.9,3.9V174.4a3.91,3.91,0,0,0,3.31,3.84A3.91,3.91,0,0,0,293.32,182.08Z" fill="#f1f2f2"/><path d="M350.83,348.36h-73a19.92,19.92,0,0,1-17.21-9.93l-36.48-63.19a19.94,19.94,0,0,1,0-19.87l36.48-63.19a19.79,19.79,0,0,1,2.74-3.67l.43-.45a20.08,20.08,0,0,1,13.07-5.79l3.93-4,0-4.73V158.83A16.43,16.43,0,0,1,296,142.47V120.25A18.29,18.29,0,0,1,314.31,102a12.37,12.37,0,1,0-12.37-12.37,18.27,18.27,0,0,1-36.53,0A48.9,48.9,0,1,1,332.58,135v7.46a16.43,16.43,0,0,1,15.31,16.37v14.75l-.11,4.71,4.11,4A19.93,19.93,0,0,1,368,192.18l36.48,63.19a19.78,19.78,0,0,1,1.69,3.85c.11.32.21.63.29,1l.2.85a19.86,19.86,0,0,1-2.18,14.22L368,338.43A19.93,19.93,0,0,1,350.83,348.36ZM247.32,265.3l33.52,58.06h67l33.52-58.06-33.52-58.06h-25V189.45l-8.52-1.33-8.55,1.33v17.79h-25Zm61.11-97.87,5.92.92,5.93-.92Z" fill="#fff"/><path d="M185.89,285.42V271a3.92,3.92,0,0,0-3.9-3.9H147.73a3.92,3.92,0,0,0-3.9,3.9v14.4Z" fill="#e8d442"/><path d="M164.86,142.25a36.44,36.44,0,0,0-36.4,36.4,5.77,5.77,0,0,0,11.53,0,24.87,24.87,0,1,1,24.87,24.87,5.76,5.76,0,0,0-5.76,5.76v42.54h11.53V214.59a36.4,36.4,0,0,0-5.77-72.35Z" fill="#dadada"/><path d="M314.31,53.21a36.44,36.44,0,0,0-36.4,36.4,5.77,5.77,0,0,0,11.53,0,24.87,24.87,0,1,1,24.87,24.87,5.76,5.76,0,0,0-5.76,5.76v42.54h11.53V125.56a36.4,36.4,0,0,0-5.77-72.35Z" fill="#dadada"/><path d="M185.89,263.64a3.92,3.92,0,0,1-3.9,3.9H147.73a3.92,3.92,0,0,1-3.9-3.9V248.08a3.92,3.92,0,0,1,3.9-3.9H182a3.92,3.92,0,0,1,3.9,3.9Z" fill="#f7ec69"/><path d="M335.39,197v-15a3.92,3.92,0,0,0-3.9-3.9H297.22a3.92,3.92,0,0,0-3.9,3.9v15Z" fill="#e8d442"/><path d="M335.39,174.4a3.92,3.92,0,0,1-3.9,3.9H297.23a3.92,3.92,0,0,1-3.9-3.9V158.83a3.92,3.92,0,0,1,3.9-3.9h34.26a3.92,3.92,0,0,1,3.9,3.9V174.4Z" fill="#f7ec69"/><path d="M128.38,424.33a7.39,7.39,0,0,1-6.38-3.69L85.52,357.46a7.4,7.4,0,0,1,0-7.37L122,286.9a7.39,7.39,0,0,1,6.38-3.69h73a7.39,7.39,0,0,1,6.38,3.69l36.48,63.19a7.4,7.4,0,0,1,0,7.37l-36.48,63.19a7.39,7.39,0,0,1-6.38,3.69h-73Z" fill="#ff9e78"/><path d="M244.2,350.08,207.72,286.9a7.39,7.39,0,0,0-6.38-3.69H201L174.73,328.8h4.55l14.42,25h51.5A7.39,7.39,0,0,0,244.2,350.08Z" fill="#f96328"/><path d="M136,353.77H84.53a7.37,7.37,0,0,0,1,3.69L122,420.64a7.39,7.39,0,0,0,6.38,3.69h.16l26.32-45.59h-4.41Z" fill="#f96328"/><path d="M128.38,283.21A7.39,7.39,0,0,0,122,286.9L85.52,350.09a7.38,7.38,0,0,0-1,3.68H136l14.41-25h4.41l-26.32-45.59Z" fill="#ff8242"/><path d="M245.17,353.77H193.69l-14.42,25h-4.55L201,424.33h.29a7.39,7.39,0,0,0,6.38-3.69l36.48-63.19a7.37,7.37,0,0,0,1-3.68h0Z" fill="#ff8242"/><path d="M151.24,381.18a3.81,3.81,0,0,1-3.3-1.9l-13.62-23.6a3.81,3.81,0,0,1,0-3.81l13.62-23.6a3.81,3.81,0,0,1,3.3-1.91h27.25a3.81,3.81,0,0,1,3.3,1.9l13.62,23.6a3.81,3.81,0,0,1,0,3.81l-13.62,23.6a3.81,3.81,0,0,1-3.3,1.9H151.24Z" fill="#edb926"/><path d="M277.88,335.86a7.39,7.39,0,0,1-6.38-3.69L235,269a7.4,7.4,0,0,1,0-7.37l36.48-63.19a7.39,7.39,0,0,1,6.38-3.69h73a7.39,7.39,0,0,1,6.38,3.69l36.48,63.19a7.4,7.4,0,0,1,0,7.37l-36.48,63.19a7.39,7.39,0,0,1-6.38,3.69h-73Z" fill="#ff9e78"/><path d="M393.7,261.62l-36.48-63.19a7.39,7.39,0,0,0-6.38-3.69h-.29l-26.32,45.59h4.55l14.41,25h51.5A7.37,7.37,0,0,0,393.7,261.62Z" fill="#f96328"/><path d="M285.53,265.3H234a7.38,7.38,0,0,0,1,3.69l36.48,63.19a7.39,7.39,0,0,0,6.38,3.69H278l26.32-45.59h-4.41Z" fill="#f96328"/><path d="M277.88,194.74a7.39,7.39,0,0,0-6.38,3.69L235,261.62a7.38,7.38,0,0,0-1,3.69h51.5l14.41-25h4.41L278,194.74Z" fill="#ff8242"/><path d="M394.66,265.3H343.18l-14.41,25h-4.55l26.32,45.59h.29a7.39,7.39,0,0,0,6.38-3.69L393.7,269a7.37,7.37,0,0,0,1-3.68h0Z" fill="#ff8242"/><path d="M300.73,292.71a3.81,3.81,0,0,1-3.3-1.91l-13.62-23.6a3.81,3.81,0,0,1,0-3.81l13.62-23.6a3.81,3.81,0,0,1,3.3-1.91H328a3.81,3.81,0,0,1,3.3,1.9l13.62,23.6a3.81,3.81,0,0,1,0,3.81l-13.62,23.6a3.81,3.81,0,0,1-3.3,1.9Z" fill="#edb926"/></svg>