<svg id="Layer_1" data-name="Layer 1" xmlns="http://www.w3.org/2000/svg" viewBox="0 0 480 480"><title>Iitems</title><path d="M415.31,128.89l-37.86-1.07L367,91.41l-19.85,32.26-36.75-9.18,18,33.32-12,12.38c-11.68-8.66-22.11-8.56-28.86-6.88a39.73,39.73,0,0,0-16.91,9.51l-1.5-1.17h0l-11.62-9a13.61,13.61,0,0,0-19.1,2.41L219.16,179.9q-2.24-.73-4.51-1.37l-.29-.08q-4.13-1.15-8.32-2l-.32-.06q-4.19-.83-8.42-1.36l-.26,0q-2.11-.26-4.23-.44h-.17q-2.1-.18-4.21-.28h-.1q-2.1-.1-4.21-.12h-.38q-4.16,0-8.31.23l-.5,0q-4.1.28-8.17.84l-.53.07q-2,.29-4,.64l-.2,0q-1.94.35-3.86.76l-.47.1q-2,.43-3.93.93l-.48.12q-1.86.48-3.71,1l-.3.09q-1.93.57-3.84,1.22l-.63.21q-3.81,1.3-7.55,2.87l-.67.29c-1.24.53-2.47,1.07-3.69,1.65l-.11.05c-1.18.56-2.35,1.14-3.51,1.73l-.65.33q-1.77.92-3.51,1.9l-.45.26q-1.6.91-3.17,1.87l-.55.33q-1.69,1-3.35,2.16l-.6.41q-1.55,1-3.07,2.15l-.34.24q-1.63,1.19-3.21,2.44l-.64.51A117.35,117.35,0,0,0,92,217.14q-1,1.17-1.89,2.37c-.81,1-1.59,2.1-2.36,3.16l-.58.81q-1.06,1.5-2.08,3l-.15.21c-.74,1.11-1.45,2.23-2.14,3.36l-.39.63q-1,1.64-1.93,3.29l-.06.1q-1,1.82-2,3.67l-.12.23a117.27,117.27,0,1,0,203.41-9.48l19.31-24.88a13.61,13.61,0,0,0-2.41-19.1l-6.47-5h0l-7.6-5.9A20.12,20.12,0,0,1,291.8,170c4-1,8.14-.1,12.56,2.71L302.11,175l5.71.16c12.35,9.15,22.76,8.84,29.4,6.91a29.51,29.51,0,0,0,4-1.52l9.14,31.93,19.86-32.26L407,189.44l-18-33.32Z" fill="#47332d"/><path d="M198.69,417.68A127.28,127.28,0,0,1,69.48,233.43l.12-.24c.72-1.39,1.44-2.73,2.15-4l.09-.15c.63-1.12,1.31-2.28,2.07-3.53l.42-.7c.81-1.32,1.57-2.51,2.32-3.64l.16-.23q1.1-1.65,2.26-3.27l.63-.87c1-1.33,1.78-2.42,2.57-3.44q1-1.3,2-2.57a127.65,127.65,0,0,1,19.18-19l.7-.55c1.22-1,2.36-1.83,3.49-2.65l.31-.22c1.16-.84,2.27-1.62,3.39-2.38l.64-.43c1.22-.82,2.44-1.61,3.65-2.35l.59-.36q1.71-1,3.44-2l.5-.29c1.21-.68,2.45-1.36,3.8-2.06l.71-.37c1.36-.7,2.61-1.31,3.81-1.88l.08,0c1.27-.6,2.58-1.18,4-1.81l.72-.31c2.69-1.13,5.45-2.18,8.2-3.12l.65-.22c1.48-.5,2.84-.93,4.19-1.33l.29-.08q2-.59,4.07-1.13l.53-.14c1.37-.35,2.81-.69,4.25-1l.5-.11c1.49-.32,2.86-.59,4.21-.83l.13,0c1.49-.27,2.93-.49,4.47-.71l.58-.08c2.93-.41,5.91-.71,8.86-.91l.5,0c3-.19,6.05-.27,9-.25h.4c1.58,0,3.12.06,4.58.13H189c1.52.07,3,.17,4.52.3l-.73,10,.89-10c1.53.13,3.08.29,4.61.48l.23,0c3.11.39,6.19.88,9.2,1.48l.33.07c2.48.5,5,1.08,7.43,1.73l15.13-19.49a23.61,23.61,0,0,1,33.13-4.17l7,5.42a46,46,0,0,1,14.51-6.54,41.57,41.57,0,0,1,29.7,3.83l1.26-1.3L290.84,99.28l51.65,12.9L370.4,66.85,385,118l53.21,1.5-37,38.28,25.31,46.83-51.65-12.9L347,237.08l-12.65-44.18a40.15,40.15,0,0,1-21-3,24,24,0,0,1,.44,2.47A23.46,23.46,0,0,1,309,209.77l-15.13,19.49a127.29,127.29,0,0,1-95.18,188.42ZM89.16,239c-.61,1.09-1.2,2.18-1.78,3.31l-.11.21a107.27,107.27,0,1,0,186.07-8.68l-3.77-5.94L293.2,197.5a3.62,3.62,0,0,0-.64-5.07l-10.24-7.95-3.17-.09,1.31-1.36-12.3-9.55h0l-16.72-13a3.53,3.53,0,0,0-2-.75,3.62,3.62,0,0,0-3.1,1.39l-23.63,30.44-6.69-2.18c-1.33-.43-2.72-.86-4.12-1.25l-.27-.08c-2.49-.7-5.05-1.31-7.59-1.82l-.31-.06c-2.52-.5-5.11-.92-7.68-1.24l-.17,0c-1.37-.17-2.67-.3-3.94-.41l-.23,0c-1.22-.1-2.51-.19-3.78-.25h-.13c-1.25-.06-2.52-.09-3.82-.11h-.33c-2.55,0-5.11.05-7.63.21l-.46,0c-2.48.17-5,.42-7.47.77l-.48.07c-1.31.19-2.53.38-3.71.59l-.19,0c-1.17.21-2.35.45-3.53.7l-.45.1c-1.19.26-2.4.55-3.58.85l-.44.12q-1.7.44-3.4.94l-.24.07c-1.17.35-2.32.71-3.55,1.13l-.56.19c-2.33.8-4.65,1.68-6.92,2.63l-.63.27c-1.22.52-2.3,1-3.31,1.48l-.11.05c-1.11.52-2.18,1.05-3.24,1.6l-.6.31c-1.13.59-2.18,1.16-3.2,1.73l-.41.24q-1.45.83-2.89,1.71l-.5.3c-1,.63-2,1.29-3.06,2l-.54.37q-1.42,1-2.8,2l-.23.17c-1,.74-2,1.47-3,2.29l-.52.41a107.87,107.87,0,0,0-16.24,16q-.88,1.07-1.73,2.17c-.74,1-1.46,1.93-2.17,2.9l-.53.74q-1,1.37-1.91,2.76l-.15.22c-.6.9-1.24,1.91-1.94,3l-.35.58c-.6,1-1.19,2-1.76,3Zm258.5-72.38,6.1,21.3,11.8-19.18,21.85,5.46-10.7-19.81,15.65-16.19-22.51-.63L363.65,116l-11.8,19.18L330,129.68l10.7,19.81-20.65,21.36h0l-.08.08c5,2.37,9.88,2.9,14.44,1.57a19.52,19.52,0,0,0,2.68-1Z" fill="#fff"/><path d="M256.73,196.13a8.6,8.6,0,0,1-2.56-10.32c1.26-2.79,12.86-27.4,33.45-32.51,6.92-1.72,17.7-1.81,29.75,7.54,8.54,6.63,13.43,5.21,15,4.74,8.62-2.51,15-15.35,16.51-19.65a8.61,8.61,0,0,1,16.2,5.82c-.91,2.54-9.46,25-27.91,30.36-6.81,2-17.62,2.26-30.41-7.67-5.35-4.16-10.26-5.61-15-4.44-10.64,2.62-19.45,17.42-21.94,22.9a8.62,8.62,0,0,1-13.13,3.23Z" fill="#c6c4c4"/><path d="M280.38,230.33l-62.63-48.62L238.47,155a13.61,13.61,0,0,1,19.1-2.41l41.12,31.92a13.61,13.61,0,0,1,2.41,19.1Z" fill="#882f3e"/><path d="M301.1,203.64a13.61,13.61,0,0,0-2.41-19.1l-6.47-5-2,2.52a27,27,0,0,1-36.73,5.77A102.94,102.94,0,0,0,224,173.61l-6.29,8.1,62.63,48.62Z" fill="#691f2f"/><circle cx="182.79" cy="291.41" r="117.26" transform="translate(-159.49 257.11) rotate(-52.18)" fill="#691f2f"/><path d="M90.15,219.5a116.68,116.68,0,0,0-24.24,62.45A117.26,117.26,0,0,0,288,239.5a117.3,117.3,0,0,0-197.8-20Z" fill="#691f2f"/><polygon points="377.45 127.82 415.31 128.89 388.99 156.12 407 189.44 370.25 180.26 350.39 212.52 339.97 176.1 302.11 175.04 328.43 147.8 310.42 114.48 347.17 123.66 367.03 91.41 377.45 127.82" fill="#fccc00"/><polygon points="367.94 140.07 386.58 140.6 373.62 154.01 382.48 170.42 364.39 165.9 354.61 181.78 349.48 163.85 330.84 163.32 343.8 149.91 334.93 133.51 353.03 138.03 362.8 122.14 367.94 140.07" fill="#c46d05"/><ellipse cx="154.93" cy="230.33" rx="58.62" ry="41.2" transform="translate(-84.2 89.36) rotate(-25.55)" fill="#882f3e"/></svg>