<svg id="Layer_1" data-name="Layer 1" xmlns="http://www.w3.org/2000/svg" viewBox="0 0 480 480"><title>Iitems</title><path d="M400.46,306.23a64.55,64.55,0,0,0-1.67-13.07l31.68-29.39A61.85,61.85,0,0,0,361,249.18c-14.82-11-35.24-23.74-63.21-38,0-5.52-4.21-12.1-11.45-18.59-2.74-4.85-8.52-10.17-16.28-14.93L284.39,142A23.1,23.1,0,0,0,271.69,112l-13.4-5.4-.47-23.07L228.44,71.65l-3.55,8.8a31.37,31.37,0,0,0-20.62,51.18l-3.4,8.43,29.37,11.84,15.29-15.1a10.88,10.88,0,0,1,2.09,11.71l-7,17.29c-8.84-1.92-16.62-2.09-21.94-.5-9.58-.34-17.11,1.43-21,5.31C139,155,86.56,156.73,57.77,172.87c-9.12,4.95-15.83,11.43-19.62,19.45-.37.76-.72,1.53-1,2.31-3.95,9.8-3.38,20.94,1.06,32.8,14.16,39.85,69.75,88.29,146.56,118q5.32,2.29,10.76,4.49l1.21-.06c49.67,17.7,85.64,26.1,111.36,29.39a61.84,61.84,0,0,0,60.7,39L366.22,374a65.22,65.22,0,0,0,10.54-8.53c5.66,13.33,17.21,25,32.76,31.22l36.39-90.31C430.25,300.08,413.8,300.48,400.46,306.23Z" fill="#fff" stroke="#fff" stroke-miterlimit="10" stroke-width="10"/><g id="_Группа_89" data-name=" Группа 89"><g id="_Группа_90" data-name=" Группа 90"><g id="_Группа_91" data-name=" Группа 91"><path id="_Контур_104" data-name=" Контур 104" d="M396.81,338.4s8.71-34.44-.59-53.76c-7.57-16-37.77-48.48-137.31-93.3-102.83-46.62-204.33-41.27-221.81,2.1s53.32,113,158.38,155.3" fill="#fff"/><path id="_Контур_105" data-name=" Контур 105" d="M397,338s-17.6,30.85-37.66,38.35c-16.41,5.87-60.86,8.75-163.63-28C89.27,310.61,19.84,236.38,37.32,193s116.67-44.46,221.77-2.1" fill="#fff"/></g><path id="_Контур_106" data-name=" Контур 106" d="M368.76,417a61.83,61.83,0,0,1-65-58.42h0l61.42-3.32Z" fill="#fff"/><path id="_Контур_107" data-name=" Контур 107" d="M361.71,410a41,41,0,0,1-43.3-38.49v-.2l0-.08,41.2-2.11Z" fill="#ea3f5c"/><path id="_Контур_108" data-name=" Контур 108" d="M430.47,262.57a61.83,61.83,0,0,0-87.31-3h0l42,45Z" fill="#fff"/><path id="_Контур_109" data-name=" Контур 109" d="M409.51,395.5C381,384,365.9,354.53,376,329.5s41.35-35.82,69.92-24.31" fill="#fff"/><polygon id="_Контур_110" data-name=" Контур 110" points="230.25 150.69 200.88 138.85 228.44 70.44 257.82 82.28 258.65 122.65 230.25 150.69" fill="#fff"/><ellipse id="_Контур_111" data-name=" Контур 111" cx="249.77" cy="184.56" rx="16.4" ry="40.8" transform="translate(-14.78 347.23) rotate(-68.05)" fill="#fff"/><ellipse id="_Контур_112" data-name=" Контур 112" cx="246.35" cy="193.07" rx="22.18" ry="54.72" transform="translate(-24.81 349.38) rotate(-68.05)" fill="#fff"/><path id="_Контур_113" data-name=" Контур 113" d="M216.22,139.31a31.37,31.37,0,0,1,23.45-58.18h0" fill="#fff"/><path id="_Контур_114" data-name=" Контур 114" d="M230.31,94.07l41.38,16.68a23.1,23.1,0,0,1,12.7,30.07h0l-23.08,57.27-24.51-23.91,10.82-26.87A10.89,10.89,0,0,0,241.87,133h0l-.33-.13L217.1,123" fill="#f04f62" stroke="#fff" stroke-miterlimit="10" stroke-width="7.73"/><g id="_Группа_92" data-name=" Группа 92"><path id="_Контур_115" data-name=" Контур 115" d="M391,336.06s7.87-31.12-1.5-48.92c-7.61-14.48-37.13-45.11-133.06-88.45C157,153.93,60.5,157.14,44.64,196.5S99.25,301.14,200.73,342.09" fill="#f04f62"/><path id="_Контур_116" data-name=" Контур 116" d="M391.19,335.62s-15.91,27.89-35,34.21c-15.53,5.16-58,6.76-157.21-28.53C96.3,304.61,29,235.37,44.89,196s110.74-38.54,211.81,2.2" fill="#f04f62"/></g><g id="_Группа_93" data-name=" Группа 93"><path id="_Контур_117" data-name=" Контур 117" d="M391.19,335.62s-15.91,27.89-35,34.21c-15.53,5.16-58,6.76-157.21-28.53C96.3,304.61,29,235.37,44.89,196" fill="#f04f62"/></g><ellipse id="_Контур_118" data-name=" Контур 118" cx="244.73" cy="197.1" rx="18.8" ry="52.33" transform="translate(-29.57 350.4) rotate(-68.05)" fill="#ea3f5c"/><ellipse id="_Контур_119" data-name=" Контур 119" cx="248.15" cy="188.6" rx="13.98" ry="39.37" transform="translate(-19.55 348.25) rotate(-68.05)" fill="#f04f62"/><ellipse id="_Контур_120" data-name=" Контур 120" cx="261.67" cy="283.46" rx="27.96" ry="27.84" transform="translate(-99.06 420.19) rotate(-68.05)" fill="#71d3d3" stroke="#306d85" stroke-miterlimit="10" stroke-width="19.42"/><ellipse id="_Контур_121" data-name=" Контур 121" cx="174.4" cy="248.29" rx="27.96" ry="27.84" transform="translate(-121.08 317.22) rotate(-68.05)" fill="#71d3d3" stroke="#306d85" stroke-miterlimit="10" stroke-width="19.42"/><path id="_Контур_122" data-name=" Контур 122" d="M217.23,133a25.11,25.11,0,0,1,17-47.25l2.24.89" fill="#71d3d3"/><polygon id="_Контур_123" data-name=" Контур 123" points="228.49 144.79 206.23 135.81 229.84 77.24 252.1 86.21 252.68 120.74 228.49 144.79" fill="#f04f62"/><path id="_Контур_124" data-name=" Контур 124" d="M406,386.29a41.22,41.22,0,0,1,30.35-76.65h0" fill="#f04f62"/><path id="_Контур_125" data-name=" Контур 125" d="M420.13,262.56a41,41,0,0,0-57.89-2.37l-.14.13-.1.09h0l28.23,30.1Z" fill="#f04f62"/><g id="_Группа_94" data-name=" Группа 94"><ellipse id="_Контур_126" data-name=" Контур 126" cx="184.86" cy="222.35" rx="3.38" ry="3.37" transform="translate(-90.47 310.68) rotate(-68.05)" fill="#4c8f9e"/><ellipse id="_Контур_127" data-name=" Контур 127" cx="163.95" cy="274.22" rx="3.38" ry="3.37" transform="translate(-151.68 323.77) rotate(-68.05)" fill="#4c8f9e"/><ellipse id="_Контур_128" data-name=" Контур 128" cx="200.42" cy="258.24" rx="3.38" ry="3.37" transform="translate(-114.03 347.59) rotate(-68.05)" fill="#4c8f9e"/><ellipse id="_Контур_129" data-name=" Контур 129" cx="148.77" cy="237.42" rx="3.38" ry="3.37" transform="translate(-127.05 286.64) rotate(-68.05)" fill="#4c8f9e"/><path id="_Контур_130" data-name=" Контур 130" d="M162.35,219.34a3.36,3.36,0,0,1,4.4,1.75,3.4,3.4,0,0,1-1.77,4.44,3.36,3.36,0,0,1-4.4-1.75A3.4,3.4,0,0,1,162.35,219.34Z" fill="#4c8f9e"/><path id="_Контур_131" data-name=" Контур 131" d="M184,270.8a3.36,3.36,0,0,1,4.4,1.75,3.4,3.4,0,0,1-1.77,4.44,3.36,3.36,0,0,1-4.4-1.75A3.4,3.4,0,0,1,184,270.8Z" fill="#4c8f9e"/><path id="_Контур_132" data-name=" Контур 132" d="M198.89,234.1a3.36,3.36,0,0,1,4.4,1.75,3.4,3.4,0,0,1-1.77,4.44,3.36,3.36,0,0,1-4.4-1.75A3.4,3.4,0,0,1,198.89,234.1Z" fill="#4c8f9e"/><path id="_Контур_133" data-name=" Контур 133" d="M147.56,256a3.36,3.36,0,0,1,4.4,1.75,3.4,3.4,0,0,1-1.77,4.44,3.36,3.36,0,0,1-4.4-1.75A3.4,3.4,0,0,1,147.56,256Z" fill="#4c8f9e"/></g><g id="_Группа_95" data-name=" Группа 95"><ellipse id="_Контур_134" data-name=" Контур 134" cx="272.14" cy="257.52" rx="3.38" ry="3.37" transform="translate(-68.45 413.65) rotate(-68.05)" fill="#4c8f9e"/><ellipse id="_Контур_135" data-name=" Контур 135" cx="251.23" cy="309.38" rx="3.38" ry="3.37" transform="matrix(0.37, -0.93, 0.93, 0.37, -129.64, 426.74)" fill="#4c8f9e"/><ellipse id="_Контур_136" data-name=" Контур 136" cx="287.69" cy="293.4" rx="3.38" ry="3.37" transform="translate(-91.99 450.54) rotate(-68.05)" fill="#4c8f9e"/><ellipse id="_Контур_137" data-name=" Контур 137" cx="236.03" cy="272.59" rx="3.38" ry="3.37" transform="matrix(0.37, -0.93, 0.93, 0.37, -105.03, 389.6)" fill="#4c8f9e"/><path id="_Контур_138" data-name=" Контур 138" d="M249.59,254.45a3.36,3.36,0,0,1,4.4,1.75,3.4,3.4,0,0,1-1.77,4.44,3.36,3.36,0,0,1-4.4-1.75A3.4,3.4,0,0,1,249.59,254.45Z" fill="#4c8f9e"/><path id="_Контур_139" data-name=" Контур 139" d="M271.27,305.92a3.36,3.36,0,0,1,4.4,1.75,3.4,3.4,0,0,1-1.77,4.44,3.36,3.36,0,0,1-4.4-1.75A3.4,3.4,0,0,1,271.27,305.92Z" fill="#4c8f9e"/><path id="_Контур_140" data-name=" Контур 140" d="M286,268.76a3.36,3.36,0,0,1,4.4,1.75,3.4,3.4,0,0,1-1.77,4.44,3.36,3.36,0,0,1-4.4-1.75A3.4,3.4,0,0,1,286,268.76Z" fill="#4c8f9e"/><path id="_Контур_141" data-name=" Контур 141" d="M234.33,291.28a3.36,3.36,0,0,1,4.4,1.75,3.4,3.4,0,0,1-1.77,4.44,3.36,3.36,0,0,1-4.4-1.75A3.4,3.4,0,0,1,234.33,291.28Z" fill="#4c8f9e"/></g><polygon id="_Контур_142" data-name=" Контур 142" points="247.65 84.42 224.04 143 228.49 144.79 252.68 120.74 252.1 86.21 247.65 84.42" fill="#ea3f5c"/><rect id="_Прямоугольник_4" data-name=" Прямоугольник 4" x="238" y="113.66" width="26.52" height="11.05" transform="translate(47.67 308.63) rotate(-68.32)" fill="#f04f62"/><rect id="_Прямоугольник_5" data-name=" Прямоугольник 5" x="256.62" y="148.9" width="3.85" height="26.41" transform="translate(11.54 341.3) rotate(-68.05)" fill="#ea3f5c"/><rect id="_Прямоугольник_6" data-name=" Прямоугольник 6" x="253.56" y="156.5" width="3.85" height="26.41" transform="translate(2.57 343.22) rotate(-68.05)" fill="#ea3f5c"/><rect id="_Прямоугольник_7" data-name=" Прямоугольник 7" x="44.49" y="217.34" width="126.31" height="9.12" transform="translate(-138.41 238.78) rotate(-68.05)" fill="#fff"/><rect id="_Прямоугольник_8" data-name=" Прямоугольник 8" x="260.06" y="305.66" width="137.4" height="9.12" transform="translate(-81.88 499.17) rotate(-68.05)" fill="#fff"/></g></g></svg>