<svg id="Layer_1" data-name="Layer 1" xmlns="http://www.w3.org/2000/svg" viewBox="0 0 480 480"><title>Iitems</title><path d="M386.4,236c0-1.69,0-3.36-.1-5,0-.34,0-.69,0-1q-.22-5.26-.83-10.42l0-.19a140.05,140.05,0,1,0,.87,22.39q0-.47,0-.94C386.36,239.19,386.4,237.6,386.4,236Z" fill="#fff"/><path d="M246.42,388.48c-84.08,0-152.48-68.4-152.48-152.48S162.35,83.52,246.42,83.52a152.44,152.44,0,0,1,151.4,134.34l0,.22c.44,3.73.74,7.55.9,11.33l0,1.1c.07,2.09.11,3.83.11,5.49s0,3.22-.1,5.2l0,1A152.47,152.47,0,0,1,246.42,388.48Zm0-280a127.48,127.48,0,1,0,127.36,132.7l0-.86c.06-1.69.08-3.08.08-4.36s0-2.82-.09-4.59l0-.92c-.14-3.18-.39-6.37-.76-9.51l0-.17A127.43,127.43,0,0,0,246.42,108.52Z" fill="#fff"/><circle cx="246.42" cy="234.41" r="139.98" fill="#f2f2f2"/><path d="M257.54,113.53l-54.05,23.84H161l3-16.1q-2.62,1.91-5.14,3.94l-1.61,14.56-30.4,46.63L109.84,203.8q-.71,3.16-1.26,6.37l18-19.67,20.55,37-.86,60.1L132.4,304l-12.67-10c1.48,3.15,3.09,6.23,4.8,9.25l4.29,2.81-1.11,2.53c1,1.54,1.94,3.07,3,4.57,0-1,.09-2.12.2-3.22L166,349a139.62,139.62,0,0,0,30.65,16.29l20,3.49,34.43,5.52a141.3,141.3,0,0,0,15.79-1.38l-49.22-9.05-7.08-35.58,53.19-28.67,55.78,9.67V347.6l-36.34,21.87a139.58,139.58,0,0,0,53.1-27.78l-12.4,3.69V307.05l26.77-57,28.49-11.92,5.71,16.94a140.23,140.23,0,0,0-5.2-63.59l-.8,41.65-28.49,11.92-32.64-47.84-4-53.19,29.62-5,23.44,24a140.27,140.27,0,0,0-11.43-16.43l-9.63-8.74.49-1.52a139.53,139.53,0,0,0-86.43-41.24Zm-50,210.95-57.51-36.27.86-60.1,47-31.78,59.41,30.05,3.45,69.43Zm105.68-128.4L259.9,221.82l-59.41-30.05L205.84,140l54.06-23.83,49.39,26.77Z" fill="#303030"/><ellipse cx="307.47" cy="177.23" rx="41.2" ry="58.62" transform="translate(-17.32 320.26) rotate(-53.73)" fill="#fff" opacity="0.8"/></svg>