<svg xmlns="http://www.w3.org/2000/svg" viewBox="0 0 480 480"><title>Iitems</title><g style="isolation:isolate"><g id="Layer_1" data-name="Layer 1"><path d="M242.5,409a148.42,148.42,0,0,1-32.8-3.68l-.73-.17c-.93-.21-1.86-.44-2.79-.67L204,403.9l-1.24-.33c-1-.27-1.94-.55-2.91-.84l-.45-.13c-1-.31-2.06-.64-3.08-1l-.28-.09A148.88,148.88,0,0,1,173.37,392l-.53-.28-2.09-1.13-1.49-.83-1.38-.79-2.29-1.35-.63-.38a149,149,0,0,1-66.21-86.9q-.58-2-1.1-4.08c-.08-.31-.15-.62-.23-.92l-.09-.38c-.23-.93-.45-1.87-.67-2.81-.11-.47-.21-.94-.31-1.41l0-.1c-.19-.87-.37-1.76-.54-2.65-.1-.51-.2-1-.29-1.51q-.25-1.37-.48-2.75l-.05-.33c-.06-.34-.11-.69-.17-1q-.26-1.65-.48-3.3l-.11-.8c-.18-1.39-.34-2.8-.48-4.21l0-.22c-.13-1.34-.24-2.63-.33-3.92l-.06-.92q-.11-1.63-.18-3.26l0-1q-.06-1.62-.08-3.24v-.91c0-1.21,0-2.44,0-3.66v-.41c.08-4,.33-8.1.74-12.13h0l.06-.52v-.13l.15-1.38q.17-1.43.36-2.85l0-.19a150.36,150.36,0,0,1,74.33-109.87l.2-.11c2.83-1.6,5.77-3.14,8.69-4.54l.42-.2c1.28-.61,2.55-1.19,3.82-1.76l.89-.4c1.5-.66,2.88-1.23,4.2-1.76l.16-.06c1.33-.53,2.76-1.07,4.32-1.64l.85-.3.33-.12q1.64-.58,3.3-1.13l1.32-.43c1.63-.52,3.09-1,4.46-1.35s2.75-.76,4.36-1.16l1-.24.3-.07c1.06-.26,2.14-.51,3.22-.75l1.28-.28q1.93-.41,3.87-.77l.49-.09c1.5-.27,3.07-.53,4.65-.76l.27,0q2-.29,4.36-.57l.51-.06a149.25,149.25,0,0,1,146.25,74.07l.12.21c.67,1.17,1.31,2.34,1.94,3.51l.29.53c.61,1.15,1.2,2.29,1.77,3.44l.23.45q.88,1.78,1.71,3.58l.11.23.46,1,.18.39a148.53,148.53,0,0,1,11.4,38.7c.06.39.12.8.18,1.22l.12.85c.06.43.12.86.18,1.3a148.43,148.43,0,0,1-1.1,45.52l-.08.45c-.17,1-.35,1.89-.54,2.82-.13.64-.27,1.31-.42,2l-.27,1.26a148.12,148.12,0,0,1-24.76,54.79l-.42.58c-.51.7-1,1.36-1.5,2l-1,1.31-1,1.23c-.53.67-1.07,1.34-1.62,2l-.42.51a148.39,148.39,0,0,1-40.65,34.32l-.5.29c-.81.46-1.59.9-2.37,1.33l-1.59.85-.52.27-.81.43a148.34,148.34,0,0,1-46.52,15.07l-.54.08c-1,.14-1.88.27-2.8.39A148.73,148.73,0,0,1,242.5,409Zm-38.83-31.26.27.09c.83.27,1.74.56,2.64.83l.41.12c.79.23,1.59.47,2.4.69l1.06.28,1.82.48c.79.2,1.57.38,2.34.56l.59.14a123.41,123.41,0,0,0,43.15,2c.8-.1,1.56-.21,2.33-.32l.49-.07A123.43,123.43,0,0,0,299.88,370l1.12-.59,1.31-.7,2-1.1.42-.24a123.55,123.55,0,0,0,33.86-28.59l.36-.44c.44-.53.89-1.09,1.33-1.66l.8-1,.84-1.1c.43-.56.84-1.12,1.24-1.67l.35-.48a123.31,123.31,0,0,0,20.63-45.63l.21-1c.14-.63.25-1.17.36-1.72.16-.8.31-1.58.45-2.36l.07-.36a123.55,123.55,0,0,0,.92-37.91c0-.34-.09-.65-.13-1l-.13-.93c0-.3-.08-.61-.13-.91a123.61,123.61,0,0,0-9.49-32.23L356,208l-.31-.7-.07-.15c-.49-1.06-1-2.06-1.45-3l-.19-.38q-.72-1.44-1.47-2.86l-.25-.47c-.51-1-1-1.92-1.6-2.88l-.08-.14a124.3,124.3,0,0,0-121.82-61.72l-.39,0c-1.24.14-2.47.3-3.71.48l-.22,0c-1.26.19-2.57.4-3.82.63l-.42.08c-1.06.2-2.14.41-3.22.64l-1.06.23q-1.34.3-2.7.63l-1.07.26c-1.22.31-2.43.63-3.65,1s-2.49.74-3.72,1.13l-1.11.36c-.9.3-1.82.61-2.74.93l-1,.35c-1.22.44-2.43.9-3.62,1.37l-.11,0c-1.18.47-2.35,1-3.52,1.47l-.74.33q-1.6.71-3.16,1.45l-.36.17c-2.43,1.17-4.88,2.45-7.28,3.81l-.06,0a125.22,125.22,0,0,0-62,91.65l0,.17c-.13.94-.24,1.85-.34,2.75V247l-.2.61c-.3,3.11-.48,6.25-.54,9.34v.33c0,1,0,2,0,3.06v.75q0,1.35.07,2.7l0,.85c0,.91.09,1.81.15,2.72l0,.76q.12,1.66.28,3.32l0,.2q.17,1.72.39,3.45l.09.66c.12.91.25,1.82.4,2.74l.19,1.13q.19,1.15.4,2.3c.08.42.16.84.24,1.26q.22,1.1.46,2.21l0,.12c.08.38.16.75.25,1.13.18.78.36,1.56.56,2.35l.26,1.09c.29,1.14.59,2.28.92,3.41a124.12,124.12,0,0,0,55.13,72.37l.54.33,1.9,1.12,1.15.66,1.24.69,1.73.94.42.22A124.23,124.23,0,0,0,203.67,377.74Z" fill="#fff"/><path d="M374.41,221.59a137,137,0,1,1-169.3-94.34A137,137,0,0,1,374.41,221.59Z" fill="#fff"/><path d="M274.49,125.8a137,137,0,0,0-131.35,39c4.22,6.45,8.5,13.46,12.75,21.1,10,17.89,13.28,37.64,16.79,58.55C174.79,257,177,270,180.73,283.3l.77,2.73a64.62,64.62,0,0,0,78.67,41.85l.57-.17a64.6,64.6,0,0,0,44.62-77.93l-.55-1.77c-3.77-13.25-8.77-25.46-13.59-37.28-8-19.63-15.6-38.18-16.53-58.63C274.28,142.74,274.25,134,274.49,125.8Z" fill="#d9d50b"/><path d="M289.33,130.27c-.12,6.66,0,13.73.31,21.16.81,17.88,7.92,35.26,15.43,53.66,4.66,11.39,9.47,23.15,13.33,36.1l0,0,.86,2.78a79.58,79.58,0,0,1-54.72,98.19l-.27.08a79.58,79.58,0,0,1-98-54.78l-.71-2.84c-3.52-13.05-5.62-25.58-7.66-37.72-3.29-19.6-6.4-38.12-15.1-53.74-3.26-5.85-6.54-11.28-9.79-16.41a137,137,0,1,0,156.29-46.49Z" fill="#d9d50b"/><ellipse cx="284.45" cy="188.92" rx="41.2" ry="58.62" transform="translate(-36.15 306.48) rotate(-53.73)" fill="#fff" opacity="0.4" style="mix-blend-mode:screen"/></g></g></svg>