<svg id="Layer_1" data-name="Layer 1" xmlns="http://www.w3.org/2000/svg" viewBox="0 0 480 480"><title>Iitems</title><path d="M412,196.21a8.64,8.64,0,0,0-4.09,16.26l-.27.29-.61.65-.44.46-.68.7-.46.47-.87.86-.39.39-1.36,1.29-.35.32-1.15,1.05-.54.48-1.09,1-.6.51-1.25,1-.53.44c-.61.5-1.24,1-1.89,1.51l-.17.13q-.89.69-1.83,1.39l-.64.47L391.31,227l-.75.53-1.26.86c-4.61-39.26-61.31-70.87-133.2-74.9-6.7-14.73-11.52-27.29-13.95-33.92a12.83,12.83,0,1,0-3.28,0c-2.43,6.63-7.25,19.19-13.95,33.92-71.89,4-128.59,35.65-133.2,74.9a105.12,105.12,0,0,1-19.89-17.27,8.61,8.61,0,1,0-1.24,1c2.56,9.09,9.45,33.57,17.16,61.35h0c4.84,17.43,10,36.13,14.63,53.15h0c1.36,5,2.67,9.86,3.92,14.49l.58,2.17.41,1.52.63,2.37.35,1.32.73,2.75.24.91.84,3.2H370.93c6.17-23.46,15.46-57.19,23.59-86.42h0l3.35-12,.56-2,.18-.63c1.92-6.89,3.72-13.32,5.33-19.07h0c1.95-6.94,3.62-12.9,4.89-17.41h0l1.26-4.47A8.64,8.64,0,1,0,412,196.21Z" fill="#fff"/><path d="M378.25,364.8H102.77l-5.64-21.27c-1.24-4.63-2.55-9.48-3.91-14.47-4.06-14.95-9-32.81-14.61-53.1-6-21.5-11.47-41.09-14.83-53.07A18.11,18.11,0,1,1,83.4,209.42c.88.85,1.84,1.76,2.9,2.7,6.79-16.22,21.3-31,42.15-42.73,24.25-13.6,56.07-22.43,90.14-25.06,3.37-7.64,6.15-14.5,8.26-19.9a22.33,22.33,0,1,1,27.33,0c2.11,5.4,4.89,12.26,8.26,19.9,34.07,2.63,65.89,11.45,90.14,25.05,20.85,11.7,35.35,26.51,42.15,42.73l.26-.23.22-.2a18.14,18.14,0,1,1,22.25,10.47l-4.37,15.56c-1.61,5.75-3.41,12.17-5.33,19.06l-4.08,14.64C393.23,309,385.3,338,380.11,357.71Zm-260.84-19H363.61c5.16-19.39,12.46-46.06,21.75-79.47l4.09-14.68,4.12-14.75-11.9,8-1.81-15.44C378,213.59,365,198.15,343.28,186c-23.15-13-54.3-21.17-87.71-23l-5.74-.32-2.38-5.23c-2.6-5.72-4.93-11.12-6.94-16-2,4.86-4.34,10.27-6.94,16l-2.38,5.23-5.74.32C192,164.79,160.9,173,137.74,186,116,198.15,103,213.59,101.16,229.44l-1.82,15.47-11.89-8c2.79,10,6.05,21.65,9.47,34,5.66,20.37,10.58,38.27,14.64,53.21,1.36,5,2.68,9.88,3.92,14.52Zm123.1-242.32a3.32,3.32,0,0,0-.43,6.61l.43.05.43-.05a3.32,3.32,0,0,0-.43-6.61Z" fill="#fff"/><ellipse cx="240.4" cy="233.51" rx="149.1" ry="80.52" fill="#54368e"/><path d="M240.57,115.4v-.95l-.17.47-.16-.47v.95c-4.18,11.94-48.15,133.93-100.18,130C94.54,242,69.43,208.29,69.43,208.29s27.37,96.9,40.56,147H240.4" fill="#f4cc21"/><path d="M240.4,355.3H370.82c13.18-50.11,40.56-147,40.56-147S386.26,242,340.75,245.41c-52,3.92-96-118.07-100.18-130" fill="#f4cc21"/><path d="M240.4,119.63a12.83,12.83,0,0,1,0-25.65" fill="#54368e"/><path d="M240.4,94a12.83,12.83,0,1,1,0,25.65" fill="#54368e"/><circle cx="411.9" cy="204.85" r="8.64" fill="#54368e"/><circle cx="65.73" cy="204.85" r="8.64" fill="#54368e"/><path d="M258.63,306.48a25.78,25.78,0,1,1,7.56-18.9h0A25.73,25.73,0,0,1,258.63,306.48ZM231.19,279a13,13,0,1,0,8.89-3.82A13,13,0,0,0,231.19,279Z" fill="#f2b122"/><circle cx="240.41" cy="288.25" r="19.42" transform="translate(-7.39 6.33) rotate(-1.49)" fill="#54368e"/><ellipse cx="232.28" cy="281.34" rx="7.39" ry="4.18" transform="translate(-131.68 256.03) rotate(-46.48)" fill="#fff"/><path d="M69.43,208.29s27.37,96.9,40.56,147h28.4L105.91,236.43C82.16,225.35,69.43,208.29,69.43,208.29Z" fill="#e5bc0e"/></svg>