<svg id="Layer_1" data-name="Layer 1" xmlns="http://www.w3.org/2000/svg" viewBox="0 0 480 480"><title>Iitems</title><path d="M74.54,319.22,98,310l-8.84,23.8,49.28,49.31,37.84-22L157,401.74l16.33,16.35a19.22,19.22,0,0,0,27.19,0L301.09,317.47a8.35,8.35,0,0,0,11.64-.15l33.42-33.44a8.37,8.37,0,0,0,0-11.82c-15.57-15.58-30.64-41.76-27-62.44,1.92-10.78,8.77-18.74,20.94-24.36C384,165,413,136.94,417.8,110.16c2.36-13.25-1.34-25.21-10.71-34.58L407,75.5c-9.37-9.37-21.32-13.08-34.56-10.72-26.75,4.78-54.81,33.83-75,77.72-5.61,12.18-13.57,19-24.34,20.95-20.66,3.69-46.83-11.39-62.4-27a8.35,8.35,0,0,0-11.81,0l-16.18,16.19-11.24,11.25-6,6a8.35,8.35,0,0,0-.15,11.65L64.73,282.2a19.25,19.25,0,0,0,0,27.21ZM371.21,90.81a14.55,14.55,0,1,1,0,20.58A14.54,14.54,0,0,1,371.21,90.81Z" fill="#f1f2f2"/><path d="M186.93,435.84h0a31.14,31.14,0,0,1-22.16-9.19L142.4,404.26l6.16-13-12.11,7-61.36-61.4,2.13-5.73-5.65,2.21L56.16,318a31.41,31.41,0,0,1,0-44.33L151,178.7a20.37,20.37,0,0,1,5.83-17.34l33.42-33.44a20.46,20.46,0,0,1,28.95,0c13.5,13.51,36.21,26.37,51.7,23.6,4.56-.81,10.43-3.15,15.47-14.09,22.22-48.19,52.8-79,83.92-84.57,17.07-3,33.14,2,45.26,14.08l.21.22c12,12.11,17,28.13,13.93,45.14-5.55,31.13-36.35,61.73-84.51,84-10.94,5-13.28,10.93-14.09,15.49-2.76,15.51,10.09,38.24,23.6,51.75a20.51,20.51,0,0,1,0,28.94L321.3,325.88A20.38,20.38,0,0,1,304,331.71l-94.89,94.94A31.13,31.13,0,0,1,186.93,435.84Zm-15.33-36.62,10.3,10.31a7.07,7.07,0,0,0,5,2.08h0a7.06,7.06,0,0,0,5-2.08l108.9-109,5.9,5.59L335,277.92c-17.22-18.44-32-46.53-27.7-70.43,2.63-14.76,12-25.94,27.79-33.23,34.9-16.11,60.1-37.7,68.39-58a26.67,26.67,0,1,1-40.8-34h0a27,27,0,0,1,3.73-3.12c-20.29,8.29-41.87,33.51-58,68.44-7.29,15.82-18.47,25.17-33.22,27.8a49,49,0,0,1-8.62.74c-21.76,0-45.5-13.25-61.76-28.45L176.59,175.9l5.6,5.9-108.9,109a7.15,7.15,0,0,0,0,10.08l4.2,4.21,41.25-16.15-15.54,41.87L140.4,368,204,331.05ZM379.78,99.38a2.45,2.45,0,0,0,0,3.46,2.43,2.43,0,0,0,3.43,0,2.45,2.45,0,0,0,0-3.46,2.43,2.43,0,0,0-3.44,0Z" fill="#fff"/><path d="M64.73,282.2a19.25,19.25,0,0,0,0,27.21l9.81,9.81L98,310l-8.84,23.8,49.28,49.31,37.84-22L157,401.74l16.33,16.35a19.22,19.22,0,0,0,27.19,0L302.82,315.73,167,179.84Zm0,0" fill="#dadada"/><path d="M407.08,75.58,407,75.5c-9.37-9.37-21.32-13.08-34.56-10.72-26.75,4.78-54.81,33.83-75,77.72-5.61,12.18-13.57,19-24.34,20.95-20.67,3.69-46.83-11.39-62.4-27a8.35,8.35,0,0,0-11.81,0l-16.18,16.19-11.24,11.25-6,6a8.36,8.36,0,0,0,0,11.82L300.92,317.31a8.36,8.36,0,0,0,11.81,0l33.42-33.44a8.37,8.37,0,0,0,0-11.82c-15.57-15.58-30.64-41.76-27-62.44,1.92-10.78,8.77-18.74,20.94-24.36C384,165,413,136.94,417.8,110.16c2.36-13.25-1.34-25.21-10.71-34.58ZM391.79,111.4a14.55,14.55,0,1,1,0-20.58,14.54,14.54,0,0,1,0,20.58Zm0,0" fill="#d14253"/><polygon points="74.54 319.22 118.75 288.9 89.15 333.84 94.34 313.72 74.54 319.22" fill="#bdbdbd"/><polygon points="138.43 383.15 208.7 330.85 157 401.74 176.26 361.16 138.43 383.15" fill="#bdbdbd"/></svg>