<svg id="Layer_1" data-name="Layer 1" xmlns="http://www.w3.org/2000/svg" viewBox="0 0 480 480"><title>item_43</title><g id="Layer_1-2" data-name="Layer 1"><path d="M179.41,212.39c-14.86,23.28-55.19,41.11-76.42,33.33s-7.64-34.25-22.5-20.09,4.67,55.26,4.67,55.26A103,103,0,0,0,103,354.82c59.86,84,182.2,64.81,229.18-.92S308.4,196.82,308.4,196.82l-3.26-.46a78.06,78.06,0,0,0,31.52-26.12,96.9,96.9,0,0,0,19.5,3.94c29.72,3.4,60-13.58,38.77-16,0,0-30.57,4.6-43.3-14.15-1.11,1.09-2.26,2.15-3.42,3.18A88.11,88.11,0,0,0,352.48,120c0-45.64-34.4-82.64-76.84-82.64S198.8,74.39,198.8,120c0,24.87,10.23,47.16,26.4,62.31C206.14,183.13,190.88,194.42,179.41,212.39Z" fill="#f1f2f2"/><path d="M213.66,423.25h-.11c-49.76,0-92.64-21.76-120.73-61.18a115,115,0,0,1-20.5-79.25c-5.66-13-18.79-48.78-.45-66.26,3.31-3.15,10.19-9.71,19-6.87,8.33,2.68,9.84,10.63,10.65,14.9,1.17,6.15,2,8,5.76,9.38,14.24,5.23,49.12-8.8,61.58-28.32h0c9.37-14.68,20.83-25,33.81-30.74A99.43,99.43,0,0,1,186.3,120c0-52.46,40.08-95.14,89.34-95.14S365,67.58,365,120a101,101,0,0,1-1.72,18.61c8.88,9.8,29.6,7.21,29.82,7.18l1.63-.25,1.64.19c8.74,1,14.46,4.45,17,10.28a15.06,15.06,0,0,1-2,15.07c-8,10.78-34.43,18-56.61,15.47a134.63,134.63,0,0,1-13.36-2.15,91.61,91.61,0,0,1-16.1,14.69,249.09,249.09,0,0,1,24.3,47.13c17,44.73,14.51,84.46-7.24,114.9-13.47,18.84-32.78,34.61-55.86,45.61A170.37,170.37,0,0,1,213.66,423.25ZM88.49,251.62a105.4,105.4,0,0,0,8,23.9l1.62,3.4-.53,3.73a90.11,90.11,0,0,0,15.67,65c23.25,32.62,58.9,50.62,100.36,50.65,43.43,0,86-20.23,108.44-51.62,35.85-50.16-8.55-120.77-20.63-138.18l-41-5.75L300,185a65.6,65.6,0,0,0,26.45-22l5.37-7.53.5.17,4-12.26A75.62,75.62,0,0,0,340,120c0-38.68-28.86-70.14-64.34-70.14S211.3,81.36,211.3,120c0,20.44,8.18,39.82,22.44,53.19l21.76,20.39-29.8,1.22c-13.8.56-25.83,8.73-35.76,24.28h0c-8.4,13.16-23.47,25.2-41.34,33-18.64,8.17-36.83,10.1-49.92,5.3A33.32,33.32,0,0,1,88.49,251.62Z" fill="#fff"/><ellipse cx="275.64" cy="120.04" rx="76.84" ry="82.64" fill="#ffe01a"/><path d="M394.93,158.19s-30.57,4.6-43.3-14.15a90.78,90.78,0,0,1-26.89,18.25s1.7,8.49,31.42,11.89S416.16,160.59,394.93,158.19Z" fill="#f68340"/><path d="M308.4,196.82s70.76,91.35,23.77,157.08-169.32,84.91-229.18.92a103,103,0,0,1-17.83-73.94s-19.53-41.11-4.67-55.26,1.27,12.31,22.5,20.09,61.56-10,76.42-33.33S215.5,177,243.09,184.51A640.54,640.54,0,0,0,308.4,196.82Z" fill="#ffe01a"/><path d="M291,244.37s-22.08-30.85-93.33,8.42-86.18,35.38-86.18,35.38a162.74,162.74,0,0,0,107.69,58C287.6,352.62,320.14,298.85,291,244.37Z" fill="#db6b3a"/><path d="M282.86,235.17s-28.3-24.62-89.15,31.06-76.35,56-76.35,56a157,157,0,0,0,117.1,30.14C302.38,341.09,322.55,280.81,282.86,235.17Z" fill="#f68340"/><ellipse cx="311.16" cy="117.93" rx="14.72" ry="15.85" fill="#414042"/><ellipse cx="315.61" cy="117.93" rx="6.44" ry="6.93" fill="#f1f2f2"/></g></svg>