<svg id="Layer_1" data-name="Layer 1" xmlns="http://www.w3.org/2000/svg" viewBox="0 0 480 480"><title>Iitems</title><path d="M361.39,92.49H350.44l-.66-4.64a19,19,0,0,0-18.56-16.24H241.55A19,19,0,0,0,223,87.85l-.64,4.64h-11A15.51,15.51,0,0,0,195.93,108v26.68a152.32,152.32,0,0,0,0,245.09V406.4a15.51,15.51,0,0,0,15.46,15.46h11l.64,4.64a19,19,0,0,0,18.56,16.24H332a19,19,0,0,0,18.56-16.24l.64-4.64h11a15.51,15.51,0,0,0,15.46-15.46V379.15a152.24,152.24,0,0,0,59.2-98h14.3a3,3,0,0,0,3-3V235.49a3,3,0,0,0-3-3H436.69a152.25,152.25,0,0,0-59.07-97.24V108C376.85,99.45,369.89,92.49,361.39,92.49Z" fill="#f1f2f2"/><path d="M332,455.24H241.55a31.29,31.29,0,0,1-29.37-20.88h-.79a28,28,0,0,1-28-28V385.87a164.73,164.73,0,0,1,0-257.38V108a28,28,0,0,1,28-28h.79a31.29,31.29,0,0,1,29.37-20.88h89.69A31.29,31.29,0,0,1,360.6,80h.78c14.72,0,27.32,11.79,28.69,26.83l.05.56V129.1A163.81,163.81,0,0,1,447,219.94h4.15a15.57,15.57,0,0,1,15.55,15.55V278.1a15.57,15.57,0,0,1-15.55,15.55h-4a163.73,163.73,0,0,1-57,91.61V406.4a28,28,0,0,1-28,28h-.79A31.29,31.29,0,0,1,332,455.24Zm-96.66-30.65a6.56,6.56,0,0,0,6.2,5.65H332a6.56,6.56,0,0,0,6.2-5.66l2.09-15.22h21.87a3,3,0,0,0,3-3V372.9l5-3.75a139,139,0,0,0,54.35-90l1.67-10.55h15.53V244.94h-15.6l-1.71-10.48a139.09,139.09,0,0,0-54.23-89.25l-5-3.75V108.7c-.36-2-2-3.71-3.74-3.71h-21.8l-2.15-15.2a6.56,6.56,0,0,0-6.21-5.68H241.55a6.56,6.56,0,0,0-6.2,5.65L233.26,105H211.39a3,3,0,0,0-3,3v33l-5.07,3.75A141.15,141.15,0,0,0,162,193.2a140.07,140.07,0,0,0,0,128,141.15,141.15,0,0,0,41.32,48.51l5.07,3.75v33a3,3,0,0,0,3,3h21.87Z" fill="#fff"/><rect x="432.52" y="232.44" width="21.65" height="48.71" rx="3.05" ry="3.05" fill="#ede7f6"/><path d="M349.79,87.85a19,19,0,0,0-18.56-16.24H241.54A19,19,0,0,0,223,87.85l-23.2,169.32L223,426.5a19,19,0,0,0,18.56,16.24H332a19,19,0,0,0,18.56-16.24l23.2-169.32Z" fill="#24b8ac"/><path d="M361.39,92.49h-150A15.51,15.51,0,0,0,195.93,108V406.4a15.51,15.51,0,0,0,15.46,15.46H362.16a15.51,15.51,0,0,0,15.46-15.46V108C376.85,99.45,369.89,92.49,361.39,92.49Z" fill="#ede7f6"/><circle cx="286.39" cy="257.18" r="152.31" fill="#00838f"/><path d="M286.39,380.89c-68,0-123.71-55.67-123.71-123.71s55.67-123.71,123.71-123.71S410.1,189.14,410.1,257.18,354.43,380.89,286.39,380.89Z" fill="#fff"/><path d="M286.39,343.77A86.59,86.59,0,1,1,373,257.18,86.45,86.45,0,0,1,286.39,343.77Z" fill="#ede7f6"/><circle cx="286.39" cy="152.03" r="10.05" fill="#882f3e"/><circle cx="286.39" cy="362.33" r="10.05" fill="#882f3e"/><circle cx="391.54" cy="257.18" r="10.05" fill="#882f3e"/><circle cx="181.24" cy="257.18" r="10.05" fill="#882f3e"/><path d="M335.78,264.34a7.46,7.46,0,0,1-6,2.89H285.62a10.08,10.08,0,0,1-10.05-10.05V189.91a10.23,10.23,0,0,1,10.05-10.05c5.41,0,9.28,4.64,9.28,10.05v58h34C336.89,247.7,341.28,256.86,335.78,264.34Z" fill="#691f2f"/></svg>