<svg xmlns="http://www.w3.org/2000/svg" viewBox="0 0 480 480"><title>Iitems</title><g style="isolation:isolate"><g id="Layer_1" data-name="Layer 1"><path d="M258.68,122.4l-.66-.11q-4.59-.74-9.28-1.15l-.27,0c-3.64-.31-7.31-.48-11-.48a128,128,0,0,0-124,96.22l0,.06h0a127.78,127.78,0,0,0-3.76,24.75h0q-.18,3.44-.19,6.91A128,128,0,1,0,258.68,122.4Z" fill="#a20000" stroke="#fff" stroke-miterlimit="10" stroke-width="20"/><ellipse cx="281.28" cy="189.63" rx="41.2" ry="58.62" transform="translate(-38.01 304.21) rotate(-53.73)" fill="#ed5965" opacity="0.56" style="mix-blend-mode:screen"/><circle cx="237.44" cy="248.59" r="127.95" fill="#ededed"/><path d="M188.65,347.25c39.6,19.74,102.43,22.35,126.78-19.56s-22-91.81-43.92-111-59-34.32-39.4-74.05c5-10.16,17.32-16.06,31-19.46a128,128,0,0,0-19.46-2.42c-13,6.64-25.81,17.22-28.69,33.69-6.27,35.82,31.65,54.26,50.77,71S325.19,285.6,304,322.12s-76,34.25-110.46,17c-32.17-16-74.21-48-77.69-119.64-.17-3.45-.24-6.77-.25-10a127.69,127.69,0,0,0-6,37.42C122.62,303.72,157.82,331.89,188.65,347.25Z" fill="#ff8c00"/><path d="M311.79,292.79a2.27,2.27,0,1,0-4.51.6,48.53,48.53,0,0,1,.42,5.8,2.28,2.28,0,0,0,2.28,2.25h0a2.28,2.28,0,0,0,2.25-2.3A53.23,53.23,0,0,0,311.79,292.79Z" fill="#a20000"/><path d="M283.87,342a2.28,2.28,0,0,0-3.07-1c-1.71.89-3.5,1.71-5.34,2.45a2.28,2.28,0,0,0,.86,4.39,2.23,2.23,0,0,0,.85-.17c2-.79,3.9-1.68,5.74-2.63A2.28,2.28,0,0,0,283.87,342Z" fill="#a20000"/><path d="M293.76,334.84a2.27,2.27,0,0,0-3.2-.3,53.33,53.33,0,0,1-4.7,3.48,2.27,2.27,0,0,0,1.25,4.17,2.25,2.25,0,0,0,1.25-.37,57.06,57.06,0,0,0,5.1-3.78A2.27,2.27,0,0,0,293.76,334.84Z" fill="#a20000"/><path d="M283.55,356.92a2.28,2.28,0,0,0,.85-.16c1.95-.78,3.88-1.65,5.72-2.57a2.27,2.27,0,0,0-2-4.07c-1.73.86-3.53,1.67-5.37,2.41a2.27,2.27,0,0,0,.85,4.39Z" fill="#a20000"/><path d="M273.89,229.87a2.27,2.27,0,1,0-3.17,3.27c1.44,1.39,2.87,2.83,4.26,4.27a2.28,2.28,0,1,0,3.27-3.17C276.84,232.75,275.36,231.29,273.89,229.87Z" fill="#a20000"/><path d="M287.13,228.57a2.27,2.27,0,1,0-3.29,3.13c1.39,1.46,2.76,2.95,4.08,4.42a2.28,2.28,0,0,0,3.39-3C290,231.58,288.55,230.06,287.13,228.57Z" fill="#a20000"/><path d="M282.49,238.74a2.27,2.27,0,0,0-3.37,3.06c1.36,1.5,2.7,3,4,4.53a2.28,2.28,0,1,0,3.47-2.94C285.25,241.84,283.88,240.28,282.49,238.74Z" fill="#a20000"/><path d="M308.87,280.51a2.27,2.27,0,0,0-4.31,1.46c.65,1.9,1.2,3.8,1.64,5.66a2.27,2.27,0,0,0,2.2,1.74,2.13,2.13,0,0,0,.54-.06,2.28,2.28,0,0,0,1.68-2.75C310.15,284.58,309.56,282.55,308.87,280.51Z" fill="#a20000"/><path d="M290.47,248.18a2.28,2.28,0,1,0-3.58,2.81c1.26,1.6,2.47,3.21,3.61,4.8a2.28,2.28,0,0,0,1.85.94,2.25,2.25,0,0,0,1.32-.42,2.27,2.27,0,0,0,.52-3.18C293,251.49,291.76,249.83,290.47,248.18Z" fill="#a20000"/><path d="M297.71,258.24a2.27,2.27,0,1,0-3.81,2.49c1.11,1.7,2.17,3.41,3.15,5.09a2.28,2.28,0,0,0,2,1.12,2.28,2.28,0,0,0,2-3.42C300,261.78,298.87,260,297.71,258.24Z" fill="#a20000"/><path d="M294.41,351.47a2.29,2.29,0,0,0,1.19-.33c1.79-1.11,3.54-2.3,5.2-3.55a2.27,2.27,0,1,0-2.74-3.63c-1.55,1.16-3.17,2.27-4.84,3.31a2.27,2.27,0,0,0,1.2,4.21Z" fill="#a20000"/><path d="M309.91,257.63A2.28,2.28,0,0,0,306,260c1.07,1.72,2.09,3.45,3,5.16a2.27,2.27,0,0,0,2,1.17,2.27,2.27,0,0,0,2-3.38C312.07,261.2,311,259.4,309.91,257.63Z" fill="#a20000"/><path d="M315.92,268.46a2.27,2.27,0,1,0-4.09,2c.88,1.81,1.71,3.63,2.46,5.42a2.27,2.27,0,0,0,2.1,1.4,2.33,2.33,0,0,0,.88-.18,2.28,2.28,0,0,0,1.23-3C317.71,272.26,316.85,270.35,315.92,268.46Z" fill="#a20000"/><path d="M303,247.4a2.28,2.28,0,0,0-3.67,2.69c1.21,1.63,2.37,3.28,3.46,4.9a2.28,2.28,0,0,0,1.89,1,2.28,2.28,0,0,0,1.88-3.55C305.42,250.78,304.22,249.08,303,247.4Z" fill="#a20000"/><path d="M295.35,237.73a2.27,2.27,0,1,0-3.47,2.94c1.3,1.54,2.58,3.11,3.8,4.66a2.28,2.28,0,0,0,3.57-2.83C298,240.92,296.68,239.31,295.35,237.73Z" fill="#a20000"/><path d="M320.7,280a2.28,2.28,0,0,0-4.32,1.46c.65,1.89,1.22,3.8,1.68,5.66a2.28,2.28,0,0,0,4.42-1.12C322,284,321.38,282,320.7,280Z" fill="#a20000"/><path d="M301.78,325.68a2.28,2.28,0,0,0-3.19.45,51.85,51.85,0,0,1-3.77,4.44,2.27,2.27,0,0,0,1.64,3.84,2.3,2.3,0,0,0,1.65-.7,56,56,0,0,0,4.11-4.85A2.28,2.28,0,0,0,301.78,325.68Z" fill="#a20000"/><path d="M321.16,290.23a2.27,2.27,0,0,0-1.88,2.61c.31,2,.53,3.91.65,5.82a2.28,2.28,0,0,0,2.27,2.13h.15a2.27,2.27,0,0,0,2.12-2.41,61.61,61.61,0,0,0-.71-6.26A2.28,2.28,0,0,0,321.16,290.23Z" fill="#a20000"/><path d="M312.13,335.06a2.27,2.27,0,0,0,1.85-.95c1.21-1.68,2.36-3.46,3.42-5.27l0,0a2.27,2.27,0,0,0-3.93-2.28l0,0c-1,1.68-2.05,3.33-3.18,4.9a2.27,2.27,0,0,0,.52,3.17A2.23,2.23,0,0,0,312.13,335.06Z" fill="#a20000"/><path d="M304.09,344.15a2.26,2.26,0,0,0,1.55-.6A60.81,60.81,0,0,0,310,339a2.27,2.27,0,1,0-3.41-3,56.66,56.66,0,0,1-4.1,4.18,2.28,2.28,0,0,0,1.55,3.95Z" fill="#a20000"/><path d="M323.87,311a54,54,0,0,0,.67-6.31,2.27,2.27,0,0,0-4.54-.21,50.7,50.7,0,0,1-.61,5.78,2.27,2.27,0,1,0,4.49.75Z" fill="#a20000"/><path d="M320.27,323.17a52.17,52.17,0,0,0,2.17-6,2.28,2.28,0,0,0-4.37-1.29,46.14,46.14,0,0,1-2,5.45,2.27,2.27,0,1,0,4.17,1.81Z" fill="#a20000"/><path d="M304,269a2.28,2.28,0,0,0-4.06,2.07c.92,1.8,1.77,3.61,2.52,5.38a2.27,2.27,0,1,0,4.18-1.79C305.83,272.79,304.94,270.88,304,269Z" fill="#a20000"/><path d="M224.79,157.54a39.74,39.74,0,0,0-.48,6V164a2.28,2.28,0,0,0,2.27,2.25h0a2.28,2.28,0,0,0,2.24-2.3v-.36a34,34,0,0,1,.43-5.32,2.28,2.28,0,0,0-4.5-.7Z" fill="#a20000"/><path d="M231.35,144.16a2.27,2.27,0,0,0-3,1.21,58.12,58.12,0,0,0-2.16,5.95,2.27,2.27,0,0,0,1.52,2.83,2.19,2.19,0,0,0,.66.1,2.27,2.27,0,0,0,2.18-1.62,52,52,0,0,1,2-5.48A2.28,2.28,0,0,0,231.35,144.16Z" fill="#a20000"/><path d="M221.22,180.78a2.27,2.27,0,1,0-4,2.11,55.81,55.81,0,0,0,3.28,5.44,2.27,2.27,0,1,0,3.75-2.57A52,52,0,0,1,221.22,180.78Z" fill="#a20000"/><path d="M209.62,355.45a2.28,2.28,0,0,0,1.59,2.8c2,.55,4,1.06,6,1.52a2.28,2.28,0,1,0,1-4.43c-1.94-.45-3.89-.94-5.81-1.47A2.29,2.29,0,0,0,209.62,355.45Z" fill="#a20000"/><path d="M222.31,351.16a2.27,2.27,0,0,0,.45-4.5c-2-.39-3.92-.84-5.84-1.32a2.27,2.27,0,0,0-1.12,4.41c2,.5,4,1,6.06,1.38A2.62,2.62,0,0,0,222.31,351.16Z" fill="#a20000"/><path d="M217.3,170a2.28,2.28,0,0,0-4.46.91A43.74,43.74,0,0,0,214.6,177a2.27,2.27,0,0,0,2.14,1.49,2.09,2.09,0,0,0,.78-.14,2.27,2.27,0,0,0,1.36-2.91A38.73,38.73,0,0,1,217.3,170Z" fill="#a20000"/><path d="M235.51,125.5a2.27,2.27,0,0,0,3.13.72c1.63-1,3.36-2,5.14-2.95a2.25,2.25,0,0,0,1.15-2.4c-1.91-.11-3.83-.16-5.77-.19-1,.56-2,1.1-2.93,1.68A2.27,2.27,0,0,0,235.51,125.5Z" fill="#a20000"/><path d="M237,184.73a43.66,43.66,0,0,1-3.34-4.71,2.27,2.27,0,1,0-3.88,2.36,49,49,0,0,0,3.68,5.2,2.28,2.28,0,1,0,3.54-2.86Z" fill="#a20000"/><path d="M224.29,193.36c1.28,1.54,2.7,3.1,4.2,4.65a2.27,2.27,0,1,0,3.27-3.17c-1.43-1.47-2.76-2.95-4-4.4a2.28,2.28,0,1,0-3.5,2.91Z" fill="#a20000"/><path d="M229,178.07a2.22,2.22,0,0,0,.85-.17,2.27,2.27,0,0,0,1.26-3,30.67,30.67,0,0,1-1.63-5.4,2.27,2.27,0,1,0-4.45.89,34.23,34.23,0,0,0,1.86,6.21A2.26,2.26,0,0,0,229,178.07Z" fill="#a20000"/><path d="M307.43,314.9a2.27,2.27,0,0,0-3,1.21A45,45,0,0,1,302,321l-.18.31a2.27,2.27,0,0,0,.81,3.11,2.17,2.17,0,0,0,1.15.32,2.29,2.29,0,0,0,2-1.12l.18-.33a46.63,46.63,0,0,0,2.69-5.38A2.27,2.27,0,0,0,307.43,314.9Z" fill="#a20000"/><path d="M237.64,206.42a2.27,2.27,0,1,0,2.92-3.49c-1.63-1.37-3.11-2.66-4.53-3.94a2.27,2.27,0,1,0-3.07,3.35C234.43,203.68,236,205,237.64,206.42Z" fill="#a20000"/><path d="M260.94,349.88a2.28,2.28,0,0,0-2.58-1.93c-1.92.28-3.91.5-5.91.66a2.27,2.27,0,0,0,.17,4.54h.18c2.1-.16,4.18-.39,6.21-.69A2.27,2.27,0,0,0,260.94,349.88Z" fill="#a20000"/><path d="M260,362.64h.25c2.07-.23,4.14-.52,6.15-.86a2.27,2.27,0,0,0-.77-4.48c-1.93.33-3.9.61-5.89.83a2.27,2.27,0,0,0,.25,4.53Z" fill="#a20000"/><path d="M247.87,363.31h0c2.07,0,4.15-.06,6.2-.17a2.27,2.27,0,0,0-.25-4.54c-2,.11-4,.16-6,.17a2.27,2.27,0,1,0,0,4.55Z" fill="#a20000"/><path d="M310.71,311.81a45.9,45.9,0,0,0,1.21-6.29,2.27,2.27,0,1,0-4.52-.55,40.78,40.78,0,0,1-1.09,5.67,2.27,2.27,0,0,0,4.4,1.17Z" fill="#a20000"/><path d="M272.76,346.92a2.27,2.27,0,0,0-2.84-1.52c-1.84.57-3.77,1.07-5.72,1.49a2.28,2.28,0,0,0,.49,4.5,2.23,2.23,0,0,0,.48-.05c2.07-.46,4.11-1,6.07-1.58A2.28,2.28,0,0,0,272.76,346.92Z" fill="#a20000"/><path d="M246.58,353.43a2.27,2.27,0,0,0-.07-4.55h-1.65c-1.42,0-2.88,0-4.32-.09a2.27,2.27,0,0,0-.18,4.54c1.53.07,3.07.1,4.58.1Z" fill="#a20000"/><path d="M235.51,362.74c2.05.19,4.13.34,6.17.44h.11a2.27,2.27,0,0,0,.11-4.55c-2-.09-4-.23-6-.42a2.27,2.27,0,1,0-.43,4.53Z" fill="#a20000"/><path d="M234.36,352.94a2.27,2.27,0,0,0,.22-4.54c-2-.19-4-.43-5.94-.73a2.27,2.27,0,0,0-.66,4.5c2,.3,4.13.56,6.17.75Z" fill="#a20000"/><path d="M223.26,361c2,.37,4.07.71,6.11,1l.31,0a2.27,2.27,0,0,0,.32-4.53c-2-.28-4-.6-5.91-1a2.27,2.27,0,0,0-.82,4.47Z" fill="#a20000"/><path d="M248.69,214.5a2.28,2.28,0,0,0,1.37-4.09c-1.86-1.4-3.38-2.57-4.81-3.69a2.27,2.27,0,0,0-2.8,3.58c1.45,1.13,3,2.32,4.87,3.74A2.32,2.32,0,0,0,248.69,214.5Z" fill="#a20000"/><path d="M272,360.58a2.29,2.29,0,0,0,.53-.06c2-.49,4.06-1.05,6-1.66a2.27,2.27,0,0,0-1.37-4.34c-1.84.58-3.76,1.11-5.7,1.58a2.27,2.27,0,0,0,.52,4.48Z" fill="#a20000"/><path d="M152.25,325.66a2.27,2.27,0,0,0,3-3.4c-1.48-1.33-3-2.7-4.38-4.07a2.27,2.27,0,1,0-3.16,3.26C149.18,322.87,150.71,324.29,152.25,325.66Z" fill="#a20000"/><path d="M147.29,300.76a2.28,2.28,0,1,0-3.51,2.9c1.31,1.58,2.68,3.16,4.07,4.68a2.28,2.28,0,1,0,3.37-3.06C149.86,303.81,148.54,302.29,147.29,300.76Z" fill="#a20000"/><path d="M134,280.91a2.28,2.28,0,1,0-4,2.14c1,1.82,2,3.64,3.06,5.4a2.29,2.29,0,0,0,2,1.11,2.25,2.25,0,0,0,1.17-.32,2.28,2.28,0,0,0,.79-3.12C135.93,284.41,134.94,282.66,134,280.91Z" fill="#a20000"/><path d="M143.38,317a2.27,2.27,0,0,0,3.31-3.12c-1.36-1.45-2.71-2.94-4-4.44a2.28,2.28,0,0,0-3.45,3C140.58,314,142,315.55,143.38,317Z" fill="#a20000"/><path d="M128.89,270.09a2.28,2.28,0,1,0-4.2,1.75c.79,1.91,1.64,3.81,2.52,5.67a2.27,2.27,0,0,0,4.11-1.94C130.47,273.77,129.65,271.94,128.89,270.09Z" fill="#a20000"/><path d="M140.15,291.17a2.27,2.27,0,1,0-3.78,2.53c1.14,1.71,2.35,3.41,3.58,5.07a2.25,2.25,0,0,0,1.82.92,2.28,2.28,0,0,0,1.82-3.64C142.42,294.46,141.25,292.81,140.15,291.17Z" fill="#a20000"/><path d="M116.5,275.88a2.29,2.29,0,0,0,2.09,1.37,2.35,2.35,0,0,0,.9-.19,2.28,2.28,0,0,0,1.18-3c-.78-1.81-1.53-3.68-2.25-5.55a2.27,2.27,0,1,0-4.24,1.63C114.91,272.09,115.7,274,116.5,275.88Z" fill="#a20000"/><path d="M116.38,262.9c-.64-1.87-1.25-3.79-1.82-5.71a2.28,2.28,0,0,0-4.36,1.3c.59,2,1.22,4,1.88,5.87a2.27,2.27,0,0,0,2.15,1.54,2.2,2.2,0,0,0,.74-.12A2.27,2.27,0,0,0,116.38,262.9Z" fill="#a20000"/><path d="M135.32,307.69a2.27,2.27,0,0,0,1.78.86,2.3,2.3,0,0,0,1.41-.48,2.27,2.27,0,0,0,.38-3.19c-1.22-1.56-2.43-3.17-3.59-4.78a2.27,2.27,0,1,0-3.7,2.65C132.8,304.41,134.05,306.07,135.32,307.69Z" fill="#a20000"/><path d="M121.84,287a2.28,2.28,0,0,0,4-2.14c-.93-1.74-1.84-3.54-2.7-5.34a2.28,2.28,0,1,0-4.1,2C119.94,283.35,120.88,285.21,121.84,287Z" fill="#a20000"/><path d="M155.35,309.61a2.28,2.28,0,0,0-3.22,3.22c1.45,1.45,3,2.89,4.49,4.28a2.3,2.3,0,0,0,1.53.59,2.27,2.27,0,0,0,1.53-4C158.21,312.39,156.75,311,155.35,309.61Z" fill="#a20000"/><path d="M128.12,297.64a2.27,2.27,0,1,0,3.81-2.48c-1.08-1.66-2.14-3.37-3.14-5.08a2.28,2.28,0,1,0-3.92,2.31C125.91,294.15,127,295.92,128.12,297.64Z" fill="#a20000"/><path d="M124.81,258.83a2.28,2.28,0,0,0-4.35,1.35c.62,2,1.28,4,2,5.88a2.28,2.28,0,0,0,2.14,1.5,2.22,2.22,0,0,0,.77-.13,2.27,2.27,0,0,0,1.36-2.92C126,262.65,125.4,260.74,124.81,258.83Z" fill="#a20000"/><path d="M261.75,123.52a2.26,2.26,0,0,0,2.74,1.68c1.2-.29,2.5-.54,3.76-.8-2.16-.54-4.33-1-6.53-1.43A2.3,2.3,0,0,0,261.75,123.52Z" fill="#a20000"/><path d="M110.3,239.71c-.12-.61-.21-1.24-.32-1.86-.11,1.27-.23,2.54-.3,3.83A2.2,2.2,0,0,0,110.3,239.71Z" fill="#a20000"/><path d="M251.51,124.46a2.27,2.27,0,0,0,.84,4.39,2.37,2.37,0,0,0,.83-.15c1.74-.69,3.63-1.34,5.58-1.94a2.27,2.27,0,0,0,1.51-2.84,2.22,2.22,0,0,0-1.62-1.5l-.47-.08a2.1,2.1,0,0,0-.74.07C255.36,123,253.37,123.73,251.51,124.46Z" fill="#a20000"/><path d="M117.87,205.38c0-.86.06-1.71.08-2.58q-.88,2.32-1.67,4.67A2.26,2.26,0,0,0,117.87,205.38Z" fill="#a20000"/><path d="M111.31,254.19a2.27,2.27,0,0,0,1.63-2.77c-.5-1.92-1-3.88-1.42-5.83a2.27,2.27,0,0,0-1.92-1.73c-.06,1.57-.12,3.15-.12,4.74,0,1.79.06,3.58.13,5.35a2.22,2.22,0,0,0,1.11.33A2.18,2.18,0,0,0,111.31,254.19Z" fill="#a20000"/><path d="M117,233.49a2.27,2.27,0,0,0-1.93,2.57c.29,2.05.62,4.1,1,6.1a2.27,2.27,0,0,0,2.23,1.87,2.58,2.58,0,0,0,.4,0,2.27,2.27,0,0,0,1.84-2.64c-.35-1.95-.67-3.94-1-5.93A2.27,2.27,0,0,0,117,233.49Z" fill="#a20000"/><path d="M115.7,209.19c-.82,2.54-1.59,5.11-2.26,7.73,0,.24,0,.47,0,.71a2.27,2.27,0,0,0,2.27,2.18h.09a2.27,2.27,0,0,0,2.18-2.36c-.08-2-.13-4.05-.16-6A2.24,2.24,0,0,0,115.7,209.19Z" fill="#a20000"/><path d="M121.72,247.24a2.27,2.27,0,0,0-4.44,1c.45,2,.94,4.05,1.46,6a2.27,2.27,0,1,0,4.4-1.17C122.64,251.17,122.16,249.2,121.72,247.24Z" fill="#a20000"/><path d="M115.91,221.36a2.27,2.27,0,0,0-2.11,2.43c.14,2.06.33,4.13.53,6.15a2.28,2.28,0,0,0,2.26,2h.24a2.28,2.28,0,0,0,2-2.5c-.21-2-.38-4-.52-6A2.28,2.28,0,0,0,115.91,221.36Z" fill="#a20000"/><path d="M259.56,204.46l-.18-.13a2.28,2.28,0,0,0-2.72,3.65l.18.12c1.57,1.17,3.14,2.34,4.69,3.5a2.22,2.22,0,0,0,1.37.46,2.28,2.28,0,0,0,1.37-4.09Z" fill="#a20000"/><path d="M235.29,134.45a29,29,0,0,0-4.09,5.16,2.28,2.28,0,0,0,.75,3.12,2.27,2.27,0,0,0,3.13-.75,24,24,0,0,1,3.43-4.33,2.27,2.27,0,1,0-3.23-3.21Z" fill="#a20000"/><path d="M245.76,127a47.48,47.48,0,0,0-5.48,3.27,2.27,2.27,0,1,0,2.6,3.74,43,43,0,0,1,5-3,2.27,2.27,0,1,0-2.07-4Z" fill="#a20000"/><path d="M237.67,189.07a2.27,2.27,0,0,0,0,3.21c1.38,1.41,2.87,2.81,4.54,4.28a2.28,2.28,0,0,0,3-3.41c-1.59-1.4-3-2.73-4.32-4.06A2.28,2.28,0,0,0,237.67,189.07Z" fill="#a20000"/><path d="M231,125.94A60.87,60.87,0,0,0,226.2,130a2.27,2.27,0,0,0-.09,3.21,2.25,2.25,0,0,0,1.65.71,2.28,2.28,0,0,0,1.56-.62,56,56,0,0,1,4.47-3.77,2.27,2.27,0,1,0-2.75-3.62Z" fill="#a20000"/><path d="M221.83,134.67a44.75,44.75,0,0,0-3.74,5.21,2.27,2.27,0,0,0,1.94,3.46,2.25,2.25,0,0,0,1.93-1.09,40.68,40.68,0,0,1,3.37-4.69,2.28,2.28,0,0,0-3.51-2.9Z" fill="#a20000"/><path d="M251.75,214.53a2.28,2.28,0,0,0,.46,3.18c1.57,1.17,3.23,2.42,4.85,3.65a2.23,2.23,0,0,0,1.38.47,2.27,2.27,0,0,0,1.38-4.08c-1.63-1.25-3.31-2.51-4.89-3.69A2.27,2.27,0,0,0,251.75,214.53Z" fill="#a20000"/><path d="M273,215c-1.19-1-2.47-2.11-3.89-3.25a2.28,2.28,0,0,0-2.85,3.55c1.38,1.1,2.61,2.13,3.76,3.13l.82.72a2.28,2.28,0,0,0,3.21-.19,2.28,2.28,0,0,0-.19-3.21Z" fill="#a20000"/><path d="M261.47,221.89a2.27,2.27,0,0,0,.32,3.2c.86.71,1.68,1.4,2.43,2.05s1.38,1.21,2.1,1.86a2.23,2.23,0,0,0,1.52.59,2.27,2.27,0,0,0,1.53-4c-.74-.67-1.47-1.31-2.16-1.92s-1.63-1.41-2.53-2.14A2.28,2.28,0,0,0,261.47,221.89Z" fill="#a20000"/><path d="M215.16,145.61a40,40,0,0,0-2,6.14,2.27,2.27,0,0,0,1.69,2.73,2.43,2.43,0,0,0,.53.06,2.28,2.28,0,0,0,2.22-1.75,34.68,34.68,0,0,1,1.76-5.44,2.28,2.28,0,0,0-4.21-1.74Z" fill="#a20000"/><path d="M278.41,219.89a2.28,2.28,0,0,0-3.11,3.32c1.44,1.36,2.91,2.77,4.33,4.19a2.27,2.27,0,0,0,3.21-3.22C281.38,222.72,279.89,221.29,278.41,219.89Z" fill="#a20000"/><path d="M249.77,197a2.27,2.27,0,1,0-2.84,3.55c1.43,1.15,3,2.38,4.85,3.77a2.28,2.28,0,0,0,3.19-.43,2.28,2.28,0,0,0-.44-3.19C252.73,199.33,251.17,198.12,249.77,197Z" fill="#a20000"/><path d="M189.16,334.34c-1.77-1-3.54-2-5.25-3a2.28,2.28,0,0,0-2.3,3.93c1.75,1,3.57,2,5.39,3a2.27,2.27,0,1,0,2.16-4Z" fill="#a20000"/><path d="M176.42,340.57a2.27,2.27,0,0,0,.82,3.11c1.75,1,3.55,2,5.37,3a2.27,2.27,0,1,0,2.15-4c-1.77-1-3.53-1.93-5.23-2.93A2.27,2.27,0,0,0,176.42,340.57Z" fill="#a20000"/><path d="M156.62,326.47a2.28,2.28,0,0,0,.33,3.2c1.58,1.29,3.21,2.57,4.86,3.8a2.26,2.26,0,0,0,1.36.46A2.31,2.31,0,0,0,165,333a2.28,2.28,0,0,0-.47-3.18c-1.59-1.19-3.17-2.44-4.71-3.69A2.28,2.28,0,0,0,156.62,326.47Z" fill="#a20000"/><path d="M178.78,328.25c-1.71-1.08-3.39-2.2-5-3.33a2.27,2.27,0,1,0-2.59,3.74c1.67,1.16,3.4,2.31,5.15,3.43a2.31,2.31,0,0,0,1.22.36,2.28,2.28,0,0,0,1.23-4.2Z" fill="#a20000"/><path d="M166.24,333.91a2.27,2.27,0,0,0,.58,3.17c1.67,1.15,3.4,2.3,5.15,3.4a2.24,2.24,0,0,0,1.22.36,2.27,2.27,0,0,0,1.22-4.2c-1.69-1.08-3.37-2.19-5-3.31A2.28,2.28,0,0,0,166.24,333.91Z" fill="#a20000"/><path d="M164.21,317.67a2.27,2.27,0,0,0-2.9,3.5c1.57,1.3,3.21,2.6,4.85,3.85a2.27,2.27,0,1,0,2.75-3.62C167.31,320.18,165.73,318.93,164.21,317.67Z" fill="#a20000"/><path d="M212.17,158.08c-.13,1.39-.19,2.8-.19,4.16,0,.75,0,1.51.06,2.25a2.27,2.27,0,0,0,2.26,2.16h.12a2.28,2.28,0,0,0,2.16-2.39c0-.67-.06-1.34-.06-2,0-1.23.06-2.49.18-3.75a2.28,2.28,0,0,0-4.53-.41Z" fill="#a20000"/><path d="M211.14,343.71c-1.91-.59-3.81-1.23-5.66-1.9a2.27,2.27,0,0,0-1.56,4.27c1.93.7,3.91,1.37,5.9,2a2.36,2.36,0,0,0,.66.1,2.28,2.28,0,0,0,.66-4.45Z" fill="#a20000"/><path d="M198.13,351.5a2.27,2.27,0,0,0,1.32,2.93c1.91.71,3.88,1.41,5.84,2a2.26,2.26,0,0,0,.7.11,2.28,2.28,0,0,0,.7-4.44c-1.9-.62-3.8-1.28-5.64-2A2.27,2.27,0,0,0,198.13,351.5Z" fill="#a20000"/><path d="M187.06,346.47a2.27,2.27,0,0,0,1,3c1.82.9,3.71,1.77,5.63,2.59a2.26,2.26,0,0,0,.9.19,2.28,2.28,0,0,0,.9-4.37c-1.84-.79-3.66-1.63-5.41-2.5A2.27,2.27,0,0,0,187.06,346.47Z" fill="#a20000"/><path d="M199.92,339.61c-1.83-.78-3.64-1.62-5.39-2.49a2.28,2.28,0,0,0-2.14,4l.1.05c1.82.9,3.72,1.78,5.64,2.6a2.27,2.27,0,0,0,1.79-4.18Z" fill="#a20000"/><ellipse cx="274.64" cy="210.36" rx="41.2" ry="58.62" transform="translate(-57.44 307.33) rotate(-53.73)" fill="#fff" opacity="0.56"/></g></g></svg>