<svg id="Layer_1" data-name="Layer 1" xmlns="http://www.w3.org/2000/svg" viewBox="0 0 480 480"><title>Iitems</title><path d="M418.58,368.15,277.13,197.26a5.79,5.79,0,0,0-8.16-.77l-1.93,1.6-24.6-29.72,5.76-4.77a12.23,12.23,0,0,0,1.62-17.22l-4.2-5.08h0c16-22.54,56.67-53.08,91.23-64.68C302.69,52,257.71,55.78,227.15,81.08L208.57,96.46h0l-3.93-4.76a12.23,12.23,0,0,0-17.22-1.63l-59.88,49.56a16.4,16.4,0,0,1,2.56,4.41h0c3.32,8.51-.24,19.75-9.31,27.26s-20.38,8.85-28.12,4.27h0A16.2,16.2,0,0,1,88.4,172L54.69,199.93l42.94,51.88h0l17.9,21.63h0l33.72-27.91h0a2.22,2.22,0,0,1-.26-1.75l-.67.44a16.4,16.4,0,0,1-1.65-3.25l-.92.32h0l.92-.32c-3.19-8.48.37-19.6,9.38-27.05s20.73-8.89,28.47-4.08l1.57-1.94h0l-1.57,1.94a16.53,16.53,0,0,1,3.85,3.31l14.37-11.89L227.32,231l-1.93,1.6a5.79,5.79,0,0,0-.77,8.16l141,170.4c11.87,14.34,33.14,17.05,47.75,5.53A34.12,34.12,0,0,0,418.58,368.15Zm-286.13-225-1.16.46,1.16-.46h0Z" fill="#f1f2f2"/><path d="M392.67,436.26A47.52,47.52,0,0,1,356,419.1L215,248.7a18.29,18.29,0,0,1-3.37-17.09l-10.55-12.75-14.22,11.77-8-9.36a4,4,0,0,0-.89-.78l-.06,0c-2.58-1.6-7.7-1.21-12.4,2l-3.3,18.39,5.58,5.58L113.87,291,37.09,198.27,90,154.5,98,164a3.72,3.72,0,0,0,1,.83c2.89,1.71,8.68,1.18,13.86-3.1s6.86-10,5.64-13.09a3.9,3.9,0,0,0-.63-1.08L110,137.9l69.41-57.45a24.76,24.76,0,0,1,30.16-1.07l9.64-8c36.11-29.89,87.51-31.92,125-4.91l19.74,14.24-23.08,7.74c-29,9.72-62.3,33.91-79.26,52.93a24.8,24.8,0,0,1-1.87,28.23l10.88,13.15a18.3,18.3,0,0,1,16.16,6.51L428.21,360.18a46.33,46.33,0,0,1-35.55,76.07ZM238.53,237.92,375.29,403.16c7.63,9.22,21.26,10.88,30.39,3.68A21.62,21.62,0,0,0,409,376.12L271.78,210.4l-6.39,5.29-40.54-49L240,154.15l-10.15-12.26,5.56-7.82c14.45-20.32,43.52-43.34,72-58.25a78.06,78.06,0,0,0-72.36,14.88l-18.58,15.38-9.64,8L195.16,99.88l-52.27,43.26c3.29,13-2.1,27.82-14.15,37.79S101.19,193.41,89,187.76l-16.7,13.82,44.9,54.25L133.91,242c-3.24-13,2.18-27.79,14.16-37.7s27.49-12.49,39.69-6.87l16.63-13.76,40.54,49Z" fill="#fff"/><rect x="209.11" y="159.68" width="51.56" height="79.99" transform="translate(-73.38 195.63) rotate(-39.61)" fill="#dadada"/><rect x="212.73" y="169.76" width="19.93" height="79.99" transform="translate(-82.6 190.17) rotate(-39.61)" fill="#bdbdbd"/><path d="M277.13,197.26,418.58,368.15a34.12,34.12,0,0,1-5.16,48.5c-14.61,11.52-35.89,8.81-47.75-5.53l-141-170.4a5.79,5.79,0,0,1,.77-8.16l1.93-1.6L267,198.1l1.93-1.6A5.79,5.79,0,0,1,277.13,197.26Z" fill="#882f3e"/><path d="M336.87,76.63c-34.57,11.6-75.21,42.15-91.23,64.68l-39.22,17.33-22.09-18.79,24.22-43.39h0l18.58-15.38C257.71,55.78,302.69,52,336.87,76.63Z" fill="#dadada"/><path d="M336.87,76.63c-34.57,11.6-75.21,42.15-91.23,64.68L233.9,127.13l-2.07-2.51,3.54-6.08C255.36,84.29,296.28,65.23,336.87,76.63Z" fill="#bdbdbd"/><path d="M132.45,143.11l49.33,17.39,4.29,47.4-1.57,1.94c-7.74-4.81-19.41-3.42-28.47,4.08s-12.57,18.57-9.38,27.05l-.92.32-43.12-13.08L92.11,176.5l.53-.92c7.74,4.58,19.2,3.11,28.12-4.27s12.63-18.75,9.31-27.26Z" fill="#bdbdbd"/><path d="M92.65,175.58l-.53.92,53.63,64.79.92-.32a16.41,16.41,0,0,0,2.58,4.55l-33.72,27.91L54.69,199.93,88.4,172A16.21,16.21,0,0,0,92.65,175.58Z" fill="#dadada"/><path d="M133.14,224.5l-.7.72,15.78,19.06.77-.51a2.22,2.22,0,0,0,.26,1.75l-33.72,27.91-17.9-21.63,33.72-27.91A2.24,2.24,0,0,0,133.14,224.5Z" fill="#bdbdbd"/><path d="M187.4,90.08a12.23,12.23,0,0,1,17.22,1.63l3.93,4.76,25.35,30.66,11.74,14.18,4.2,5.08a12.23,12.23,0,0,1-1.62,17.22l-5.77,4.77h0l-39.72,32.88h0l-14.37,11.89a16.54,16.54,0,0,0-3.85-3.31l1.57-1.94-53.63-64.79-2.37.94a16.4,16.4,0,0,0-2.56-4.41Z" fill="#dadada"/></svg>