<svg id="Layer_1" data-name="Layer 1" xmlns="http://www.w3.org/2000/svg" viewBox="0 0 480 480"><title>Iitems</title><path d="M237.3,270l-58.75,43.17a44.51,44.51,0,0,0-19.83,37V421H127.18v18.9H102a6.31,6.31,0,0,0,0,12.63h302.7a6.31,6.31,0,0,0,0-12.63H379.45V421H347.91V350.24a44.51,44.51,0,0,0-19.83-37L269.33,270a8.3,8.3,0,0,1,0-13.37l58.75-43.17a44.51,44.51,0,0,0,19.83-37V105.67h31.53V86.77h25.22a6.31,6.31,0,0,0,0-12.63H102a6.31,6.31,0,0,0,0,12.63h25.22v18.9h31.53v70.77a44.51,44.51,0,0,0,19.83,37l58.75,43.17a8.3,8.3,0,0,1,0,13.37Z" fill="#f1f2f2"/><path d="M404.67,465H102a18.81,18.81,0,0,1,0-37.63h12.72v-18.9h31.53V350.24A56.9,56.9,0,0,1,171.37,303l53.93-39.62-53.93-39.62a56.9,56.9,0,0,1-25.15-47.28V118.18H114.68V99.27H102a18.81,18.81,0,0,1,0-37.63h302.7a18.81,18.81,0,0,1,0,37.63H391.95v18.9H360.41v58.27a56.9,56.9,0,0,1-25.15,47.28l-53.93,39.62L335.26,303a56.9,56.9,0,0,1,25.15,47.28v58.27h31.53v18.9h12.72a18.81,18.81,0,0,1,0,37.63Zm-265-25H366.95v-6.53H335.41V350.24a32,32,0,0,0-14.27-26.64l-.47-.33L261.92,280.1a20.8,20.8,0,0,1,0-33.55l59.18-43.47a32,32,0,0,0,14.27-26.64V93.18h31.53V86.64H139.68v6.53h31.53v83.27a32,32,0,0,0,14.27,26.64l.47.33,58.75,43.17a20.8,20.8,0,0,1,0,33.52L185.48,323.6a32,32,0,0,0-14.27,26.64v83.27H139.68Zm90.23-173.3,0,0Zm46.84,0,0,0Zm-.06-6.79,0,0Z" fill="#fff"/><path d="M328.08,213.49a44.51,44.51,0,0,0,19.83-37V105.67H158.72v70.77a44.51,44.51,0,0,0,19.83,37l58.75,43.17a8.3,8.3,0,0,1,0,13.37l-58.75,43.17a44.51,44.51,0,0,0-19.83,37V421h189.2V350.24a44.51,44.51,0,0,0-19.83-37L269.33,270a8.3,8.3,0,0,1,0-13.37Zm0,0" fill="#fbe399"/><rect x="127.18" y="421.01" width="252.27" height="25.22" fill="#882f3e"/><rect x="127.18" y="80.46" width="252.27" height="25.22" fill="#882f3e"/><path d="M404.67,439.91H102a6.31,6.31,0,0,0,0,12.63h302.7a6.31,6.31,0,0,0,0-12.63Zm0,0" fill="#691f2f"/><path d="M102,86.77h302.7a6.31,6.31,0,0,0,0-12.63H102a6.31,6.31,0,0,0,0,12.63Zm0,0" fill="#691f2f"/><path d="M317.58,197.75A25.58,25.58,0,0,0,329,176.44,17.94,17.94,0,0,0,315.4,159L220.46,135.3a34.48,34.48,0,0,0-42.84,33.44v7.7a25.58,25.58,0,0,0,11.43,21.31l58,42.55V340.42a31.34,31.34,0,0,1-44.49,28.46c-11.21-5.18-24.76,2.49-24.86,14.81V421H329V350c-.13-12.16-11.92-20.94-23.93-18.84l-12.9,2.25A27.79,27.79,0,0,1,259.63,306V240.31Zm0,0" fill="#edb926"/></svg>