<svg id="Layer_1" data-name="Layer 1" xmlns="http://www.w3.org/2000/svg" viewBox="0 0 480 480"><title>Iitems</title><path d="M161.86,177.75c0-39,35-70.7,78.19-70.7s78.19,31.65,78.19,70.7" fill="#71d0d9" fill-rule="evenodd"/><path d="M327.74,177.75h-19c0-33.74-30.81-61.2-68.69-61.2s-68.69,27.45-68.69,61.2h-19c0-44.22,39.34-80.2,87.69-80.2S327.74,133.53,327.74,177.75Z" fill="#fff"/><rect x="235.09" y="54.17" width="9.93" height="214.22" fill="#13b0bf"/><rect x="225.59" y="44.67" width="28.93" height="233.22" fill="#fff"/><g opacity="0.4"><path d="M262.55,177.75c0-39-65.68-70.7-22.5-70.7s78.19,31.65,78.19,70.7" fill="#fff" fill-rule="evenodd"/><path d="M327.74,177.75h-19c0-33.74-30.81-61.2-68.69-61.2l-1.91,0c1.89,2.37,4.24,5.08,6.21,7.34,11.69,13.48,27.7,31.95,27.7,53.83h-19c0-14.79-13.33-30.16-23.06-41.38S212.71,116.44,217,107c3.79-8.31,13.77-9.43,23-9.43C288.41,97.56,327.74,133.53,327.74,177.75Z" fill="#fff"/></g><polygon points="291.7 422.22 188.41 422.22 162.92 209.03 317.19 209.03 291.7 422.22" fill="#71d0d9" fill-rule="evenodd"/><path d="M300.13,431.72H180l-27.76-232.2H327.9Zm-103.29-19h86.43l23.22-194.2H173.62Z" fill="#fff"/><polygon points="284.99 406.67 195.12 406.67 172.94 211.73 307.17 211.73 284.99 406.67" fill="#ff5e65" fill-rule="evenodd"/><path d="M293.47,416.17H186.64L162.3,202.23H317.81Zm-89.87-19h72.91l20-175.94H183.58Z" fill="#fff"/><g opacity="0.4"><polygon points="211.59 422.22 188.41 422.22 162.92 209.03 186.09 209.03 211.59 422.22" fill="#fff" fill-rule="evenodd"/><path d="M222.29,431.72H180l-27.76-232.2h42.31Zm-25.45-19h4l-23.22-194.2h-4Z" fill="#fff"/></g><rect x="157.58" y="175.61" width="164.95" height="17.14" fill="#d9d9d9"/><rect x="148.08" y="166.11" width="183.95" height="36.14" fill="#fff"/><rect x="275.69" y="175.61" width="46.84" height="17.14" fill="#c5c5c5"/><rect x="266.19" y="166.11" width="65.84" height="36.14" fill="#fff"/><rect x="153.29" y="190.6" width="173.53" height="23.56" fill="#c5c5c5"/><path d="M336.32,223.67H143.79V181.11H336.32Zm-173.53-19H317.32v-4.56H162.79Z" fill="#fff"/><rect x="283.9" y="190.6" width="42.92" height="23.56" fill="#b1b1b1"/><path d="M336.32,223.67H274.4V181.11h61.92Zm-42.92-19h23.92v-4.56H293.4Z" fill="#fff"/><g opacity="0.5"><path d="M201.16,236.19c6.91,0,6.91-10.71,0-10.71s-6.91,10.71,0,10.71Z" fill="#fff"/><path d="M201.16,245.69a14.61,14.61,0,0,1-14.69-14.86,15.12,15.12,0,0,1,3.6-9.88,14.37,14.37,0,0,1,11.09-5,14.61,14.61,0,0,1,14.68,14.86,15.13,15.13,0,0,1-3.59,9.88A14.37,14.37,0,0,1,201.16,245.69Zm0-19a4.61,4.61,0,0,0-3.32,1.63,3.9,3.9,0,0,0-1,2.51,4.53,4.53,0,0,0,4.32,4.14,4.6,4.6,0,0,0,3.31-1.63,3.9,3.9,0,0,0,1-2.51A4.53,4.53,0,0,0,201.16,226.69Z" fill="#fff"/><path d="M282.3,274.05c6.91,0,6.91-10.71,0-10.71s-6.91,10.71,0,10.71Z" fill="#fff"/><path d="M282.3,283.55a14.61,14.61,0,0,1-14.68-14.86,15.12,15.12,0,0,1,3.59-9.88,14.37,14.37,0,0,1,11.09-5A14.61,14.61,0,0,1,297,268.7a15.13,15.13,0,0,1-3.59,9.88A14.37,14.37,0,0,1,282.3,283.55Zm0-19a4.61,4.61,0,0,0-3.32,1.63,3.9,3.9,0,0,0-1,2.51,4.53,4.53,0,0,0,4.32,4.14,4.61,4.61,0,0,0,3.32-1.63,3.9,3.9,0,0,0,1-2.51A4.53,4.53,0,0,0,282.3,264.55Z" fill="#fff"/><path d="M213,358.35c6.91,0,6.91-10.71,0-10.71s-6.91,10.71,0,10.71Z" fill="#fff"/><path d="M213,367.85A14.61,14.61,0,0,1,198.37,353a15.13,15.13,0,0,1,3.59-9.87,14.37,14.37,0,0,1,11.09-5A14.61,14.61,0,0,1,227.73,353a15.13,15.13,0,0,1-3.59,9.88A14.37,14.37,0,0,1,213,367.85Zm0-19a4.61,4.61,0,0,0-3.32,1.63,3.9,3.9,0,0,0-1,2.51,4.53,4.53,0,0,0,4.32,4.14,4.61,4.61,0,0,0,3.32-1.63,3.9,3.9,0,0,0,1-2.51A4.53,4.53,0,0,0,213,348.85Z" fill="#fff"/><path d="M269.32,401.72c6.91,0,6.91-10.71,0-10.71s-6.91,10.71,0,10.71Z" fill="#fff"/><path d="M269.32,411.22a14.61,14.61,0,0,1-14.68-14.86,15.13,15.13,0,0,1,3.59-9.87,14.37,14.37,0,0,1,11.09-5A14.61,14.61,0,0,1,284,396.37a15.12,15.12,0,0,1-3.59,9.88A14.37,14.37,0,0,1,269.32,411.22Zm0-19a4.61,4.61,0,0,0-3.31,1.63,3.9,3.9,0,0,0-1,2.51,4.53,4.53,0,0,0,4.32,4.14,4.61,4.61,0,0,0,3.32-1.63,3.9,3.9,0,0,0,1-2.51A4.53,4.53,0,0,0,269.32,392.22Z" fill="#fff"/><path d="M270.4,340.88c5.18,0,5.18-8,0-8s-5.18,8,0,8Z" fill="#fff"/><path d="M270.4,350.38A13.31,13.31,0,0,1,257,336.86a13.72,13.72,0,0,1,3.27-9,13.12,13.12,0,0,1,10.12-4.56,13.31,13.31,0,0,1,13.38,13.52,13.72,13.72,0,0,1-3.27,9A13.11,13.11,0,0,1,270.4,350.38Zm0-19a5.86,5.86,0,0,0-4.29,2.05,5.3,5.3,0,0,0-1.32,3.43,5.77,5.77,0,0,0,5.62,5.48,5.86,5.86,0,0,0,4.29-2.05,5.3,5.3,0,0,0,1.32-3.43A5.77,5.77,0,0,0,270.4,331.38Z" fill="#fff"/><path d="M254.17,239.17c5.18,0,5.18-8,0-8s-5.18,8,0,8Z" fill="#fff"/><path d="M254.17,248.67a13.31,13.31,0,0,1-13.39-13.52,13.72,13.72,0,0,1,3.27-9,13.12,13.12,0,0,1,10.12-4.56,13.31,13.31,0,0,1,13.38,13.52,13.72,13.72,0,0,1-3.27,9A13.12,13.12,0,0,1,254.17,248.67Zm0-19a5.86,5.86,0,0,0-4.29,2.05,5.3,5.3,0,0,0-1.32,3.43,5.77,5.77,0,0,0,5.62,5.48,5.85,5.85,0,0,0,4.29-2,5.3,5.3,0,0,0,1.33-3.43A5.77,5.77,0,0,0,254.17,229.67Z" fill="#fff"/><path d="M220.63,392.81c5.18,0,5.18-8,0-8s-5.18,8,0,8Z" fill="#fff"/><path d="M220.63,402.31a13.31,13.31,0,0,1-13.38-13.52,13.72,13.72,0,0,1,3.27-9,13.12,13.12,0,0,1,10.12-4.56A13.31,13.31,0,0,1,234,388.79a13.73,13.73,0,0,1-3.26,9A13.11,13.11,0,0,1,220.63,402.31Zm0-19a5.86,5.86,0,0,0-4.29,2.05,5.3,5.3,0,0,0-1.32,3.43,5.77,5.77,0,0,0,5.62,5.48,5.86,5.86,0,0,0,4.29-2.05,5.3,5.3,0,0,0,1.32-3.43A5.77,5.77,0,0,0,220.63,383.31Z" fill="#fff"/><path d="M257.3,361.26c3.45,0,3.45-5.36,0-5.36s-3.45,5.36,0,5.36Z" fill="#fff"/><path d="M257.3,370.76a12,12,0,0,1-12.09-12.18,12.32,12.32,0,0,1,2.95-8,12.11,12.11,0,0,1,21.24,8,12.32,12.32,0,0,1-2.94,8A12,12,0,0,1,257.3,370.76Zm0-19a7.06,7.06,0,0,0-5.26,2.47,6.7,6.7,0,0,0-1.65,4.35,7,7,0,0,0,6.91,6.82,7.05,7.05,0,0,0,5.26-2.47,6.69,6.69,0,0,0,1.65-4.35A7,7,0,0,0,257.3,351.76Z" fill="#fff"/><path d="M204.4,260.56c3.45,0,3.45-5.35,0-5.35s-3.45,5.35,0,5.35Z" fill="#fff"/><path d="M204.4,270.06a12,12,0,0,1-12.09-12.18,12.31,12.31,0,0,1,2.94-8,12.11,12.11,0,0,1,21.24,8,12.32,12.32,0,0,1-2.94,8A12,12,0,0,1,204.4,270.06Zm0-19a7.06,7.06,0,0,0-5.26,2.47,6.7,6.7,0,0,0-1.65,4.35,7,7,0,0,0,6.91,6.82,7.06,7.06,0,0,0,5.26-2.47,6.7,6.7,0,0,0,1.65-4.35A7,7,0,0,0,204.4,251.06Z" fill="#fff"/><path d="M228.2,244.33c3.45,0,3.45-5.35,0-5.35s-3.45,5.35,0,5.35Z" fill="#fff"/><path d="M228.2,253.83a12,12,0,0,1-12.09-12.18,12.31,12.31,0,0,1,2.94-8,12.11,12.11,0,0,1,21.24,8,12.31,12.31,0,0,1-2.95,8A12,12,0,0,1,228.2,253.83Zm0-19a7.05,7.05,0,0,0-5.26,2.47,6.7,6.7,0,0,0-1.65,4.35,7,7,0,0,0,6.91,6.82,7.06,7.06,0,0,0,5.26-2.47,6.7,6.7,0,0,0,1.65-4.35A7,7,0,0,0,228.2,234.83Z" fill="#fff"/><path d="M284.47,243.24c3.45,0,3.45-5.35,0-5.35s-3.45,5.35,0,5.35Z" fill="#fff"/><path d="M284.47,252.74a12,12,0,0,1-12.09-12.18,12.32,12.32,0,0,1,2.94-8,12.11,12.11,0,0,1,21.24,8,12.31,12.31,0,0,1-2.94,8A12,12,0,0,1,284.47,252.74Zm0-19a7.06,7.06,0,0,0-5.26,2.47,6.7,6.7,0,0,0-1.65,4.35,7,7,0,0,0,6.91,6.82,7.06,7.06,0,0,0,5.26-2.47,6.7,6.7,0,0,0,1.65-4.35A7,7,0,0,0,284.47,233.74Z" fill="#fff"/><path d="M283.38,316.82c3.45,0,3.45-5.35,0-5.35s-3.45,5.35,0,5.35Z" fill="#fff"/><path d="M283.38,326.32a12,12,0,0,1-12.09-12.18,12.31,12.31,0,0,1,2.95-8,12.11,12.11,0,0,1,21.23,8,12.31,12.31,0,0,1-2.94,8A12,12,0,0,1,283.38,326.32Zm0-19a7.06,7.06,0,0,0-5.26,2.47,6.7,6.7,0,0,0-1.65,4.35,7,7,0,0,0,6.91,6.82,7.05,7.05,0,0,0,5.26-2.47,6.7,6.7,0,0,0,1.65-4.36A7,7,0,0,0,283.38,307.32Z" fill="#fff"/><path d="M237.94,385c3.45,0,3.45-5.35,0-5.35s-3.45,5.35,0,5.35Z" fill="#fff"/><path d="M237.94,394.48a12,12,0,0,1-12.09-12.18,12.31,12.31,0,0,1,2.95-8,12.11,12.11,0,0,1,21.24,8,12.31,12.31,0,0,1-2.94,8A12,12,0,0,1,237.94,394.48Zm0-19a7.05,7.05,0,0,0-5.26,2.47A6.7,6.7,0,0,0,231,382.3a7,7,0,0,0,6.91,6.82,7.06,7.06,0,0,0,5.26-2.47,6.7,6.7,0,0,0,1.65-4.35A7,7,0,0,0,237.94,375.48Z" fill="#fff"/><path d="M210.9,337.37c3.45,0,3.45-5.36,0-5.36s-3.45,5.36,0,5.36Z" fill="#fff"/><path d="M210.9,346.87a12,12,0,0,1-12.09-12.18,12.31,12.31,0,0,1,2.94-8,12.11,12.11,0,0,1,21.24,8,12.31,12.31,0,0,1-2.94,8A12,12,0,0,1,210.9,346.87Zm0-19a7.06,7.06,0,0,0-5.26,2.47A6.69,6.69,0,0,0,204,334.7a7,7,0,0,0,6.91,6.82,7.06,7.06,0,0,0,5.26-2.47,6.69,6.69,0,0,0,1.65-4.35A7,7,0,0,0,210.9,327.87Z" fill="#fff"/></g><path d="M161.86,177.75c0-39,35-70.7,78.19-70.7s78.19,31.65,78.19,70.7" fill="#36a9e1" fill-rule="evenodd"/><rect x="235.09" y="54.17" width="9.93" height="214.22" fill="#54368e"/><path d="M296.56,175.61c-6.49-63.7-99.69-68.55-56.5-68.55s78.19,31.65,78.19,70.7" fill="#fff" fill-rule="evenodd" opacity="0.2"/><polygon points="291.7 422.22 188.41 422.22 162.92 209.03 317.19 209.03 291.7 422.22" fill="#36a9e1" fill-rule="evenodd"/><polygon points="284.99 406.67 195.12 406.67 172.94 211.73 307.17 211.73 284.99 406.67" fill="#e78334" fill-rule="evenodd"/><polygon points="211.59 422.22 188.41 422.22 162.92 209.03 186.09 209.03 211.59 422.22" fill="#fff" fill-rule="evenodd" opacity="0.3"/><rect x="157.58" y="175.61" width="164.95" height="17.14" fill="#d9d9d9"/><rect x="275.69" y="175.61" width="46.84" height="17.14" fill="#c5c5c5"/><rect x="153.29" y="190.6" width="173.53" height="23.56" fill="#c5c5c5"/><rect x="283.9" y="190.6" width="42.92" height="23.56" fill="#b1b1b1"/><g opacity="0.5"><path d="M201.16,236.19c6.91,0,6.91-10.71,0-10.71s-6.91,10.71,0,10.71Z" fill="#fff"/><path d="M282.3,274.05c6.91,0,6.91-10.71,0-10.71s-6.91,10.71,0,10.71Z" fill="#fff"/><path d="M213,358.35c6.91,0,6.91-10.71,0-10.71s-6.91,10.71,0,10.71Z" fill="#fff"/><path d="M269.32,401.72c6.91,0,6.91-10.71,0-10.71s-6.91,10.71,0,10.71Z" fill="#fff"/><path d="M270.4,340.88c5.18,0,5.18-8,0-8s-5.18,8,0,8Z" fill="#fff"/><path d="M254.17,239.17c5.18,0,5.18-8,0-8s-5.18,8,0,8Z" fill="#fff"/><path d="M220.63,392.81c5.18,0,5.18-8,0-8s-5.18,8,0,8Z" fill="#fff"/><path d="M257.3,361.26c3.45,0,3.45-5.36,0-5.36s-3.45,5.36,0,5.36Z" fill="#fff"/><path d="M204.4,260.56c3.45,0,3.45-5.35,0-5.35s-3.45,5.35,0,5.35Z" fill="#fff"/><path d="M228.2,244.33c3.45,0,3.45-5.35,0-5.35s-3.45,5.35,0,5.35Z" fill="#fff"/><path d="M284.47,243.24c3.45,0,3.45-5.35,0-5.35s-3.45,5.35,0,5.35Z" fill="#fff"/><path d="M283.38,316.82c3.45,0,3.45-5.35,0-5.35s-3.45,5.35,0,5.35Z" fill="#fff"/><path d="M237.94,385c3.45,0,3.45-5.35,0-5.35s-3.45,5.35,0,5.35Z" fill="#fff"/><path d="M210.9,337.37c3.45,0,3.45-5.36,0-5.36s-3.45,5.36,0,5.36Z" fill="#fff"/></g></svg>