<svg xmlns="http://www.w3.org/2000/svg" viewBox="0 0 480 480"><title>Iitems</title><g style="isolation:isolate"><g id="Layer_1" data-name="Layer 1"><path d="M417.75,94c-10-13.09-49.91.64-89.15,30.65l-46.53,37.83-43.66-20.77,3.86-3h0l0,0a7,7,0,0,0,.56-.48l.23-.24.25-.26c.08-.1.15-.2.22-.3l.17-.23c.07-.11.13-.23.19-.34l.11-.2c.06-.12.11-.25.15-.38s.05-.12.08-.19.08-.27.11-.41,0-.11,0-.17,0-.29.06-.43,0-.11,0-.16,0-.3,0-.46,0-.1,0-.15,0-.32,0-.49,0-.08,0-.13-.06-.34-.1-.51l0-.11c0-.18-.09-.36-.15-.54l0-.09c-.06-.19-.13-.37-.21-.56l0-.07c-.08-.19-.17-.39-.27-.58l0,0q-.15-.3-.33-.61h0a13.16,13.16,0,0,0-.9-1.33c-2.5-3.27-5.91-4.89-9.18-2.39l-8.11,6.2h0l-1.85,1.42-26.83-12.76,3.87-3h0l3.87-3a7,7,0,0,0,.57-.48l.1-.1c.13-.13.26-.27.38-.4l.13-.17c.09-.12.19-.24.26-.36s.09-.15.13-.23.13-.21.18-.32.08-.19.12-.29.08-.18.11-.28.06-.22.09-.34,0-.16.06-.24,0-.26.06-.39,0-.13,0-.2,0-.3,0-.44,0-.11,0-.16,0-.33,0-.5,0-.08,0-.11-.06-.36-.1-.54v-.07c0-.2-.1-.39-.17-.59v0a11.07,11.07,0,0,0-1.76-3.21c-2.5-3.27-5.91-4.89-9.18-2.39L181.3,114.57,133.68,91.92l-19.86,15.19,84.74,65.76,27.11,35.49L170.9,252.9c-11.45,8.76-24.58,21.54-35.77,34.22L68.75,266,60,272.67l54.16,42c-4.21,7.07-6.05,12.49-4.26,14.83s7.5,2,15.42-.23l26.33,63.32,8.76-6.7-3-69.64c15.16-7.48,30.93-16.81,42.37-25.57l57.31-41.21L284.22,285l41.19,99.06,19.86-15.19-9.38-52.07,13.81-10.56a7,7,0,0,0,.57-.48l.09-.1c.14-.13.27-.27.38-.41l.12-.16c.1-.12.19-.24.27-.37l.12-.2c.07-.11.14-.23.19-.34s.07-.17.1-.26.09-.2.13-.31.06-.2.08-.31.05-.18.07-.27,0-.23,0-.35,0-.16,0-.24,0-.26,0-.4,0-.14,0-.21,0-.3,0-.44,0-.11,0-.17-.05-.32-.09-.48l0-.14c0-.17-.09-.34-.14-.51l0-.11c-.06-.18-.13-.36-.2-.54l0-.09c-.08-.18-.16-.37-.25-.55l0-.08c-.09-.18-.19-.36-.29-.54l0-.09c-.1-.18-.21-.35-.33-.53l-.06-.1L350,297l-.07-.1h0l-.07-.1c-2.5-3.27-5.9-4.89-9.17-2.39l-7.73,5.91-4.09-22.69,6.45-4.93h0l8.55-6.54a7.07,7.07,0,0,0,.57-.48l.13-.14c.12-.12.24-.24.34-.36l.16-.21c.08-.1.16-.21.23-.32s.1-.18.15-.27.11-.19.16-.28.09-.21.13-.31.07-.17.1-.26.06-.23.09-.35,0-.15.06-.23,0-.25.05-.38,0-.14,0-.22,0-.27,0-.41,0-.13,0-.2,0-.29,0-.43,0-.12,0-.18-.05-.3-.08-.45,0-.12,0-.17-.08-.31-.13-.46l0-.16c-.05-.16-.11-.31-.17-.47l-.06-.16c-.07-.16-.14-.32-.22-.48l-.07-.15c-.08-.16-.17-.32-.26-.48l-.08-.14-.3-.48-.09-.14-.34-.48-.08-.11h0l-.07-.1c-2.5-3.27-5.9-4.89-9.17-2.39l-8.92,6.83-5.51-30.58h0L319,223.2l-2.91-16.12,48.68-35C404,142,427.74,107.11,417.75,94Z" fill="#525764"/><path d="M147.62,407.67l-28-67.4c-6.64.94-13.22.3-17.25-5s-2.92-11.79-.27-18L44.44,272.61l22.48-17.2,65.26,20.79c11-12,22.78-23,32.84-30.76l47.51-38.63-20.77-27.19-93.5-72.56,34.26-26.21,47.62,22.65,9.2-7c7.17-5.49,16.42-3.77,22.49,4.16a20.64,20.64,0,0,1,3.13,5.69l.14.35.1.39q.15.49.27,1l.1.48c.07.36.14.71.18,1.07l.05.48c0,.39.07.73.08,1.07v.62c0,.33,0,.7,0,1.07,0,.2,0,.44-.08.69s-.1.71-.16,1-.12.51-.18.76-.17.64-.27.94-.22.61-.33.87-.22.53-.34.8-.33.63-.49.92-.23.41-.36.6l8.47,4,1.29-1h0l4.06-3.11c7.17-5.48,16.42-3.78,22.49,4.16a22.62,22.62,0,0,1,1.52,2.25l.1.17q.27.46.5.93l.17.34q.23.47.43.94l.15.38c.14.34.26.69.37,1l.09.29c.1.34.2.68.28,1l.11.52c.07.33.14.69.19,1.06l.06.49c0,.36.07.75.08,1.13v.53c0,.33,0,.71,0,1.08l-.07.66c0,.37-.1.72-.16,1.06l-.17.71-.07.28,27.23,13,42.09-34.22C342.59,102,363.27,90.31,381,84.2,408,74.94,420,81.29,425.29,88.25h0c5.32,7,8.3,20.2-7.69,43.77-10.56,15.56-27.25,32.46-47,47.58l-.23.17-43.82,31.51,6,33.38c6.48-2.72,13.84-.45,19,6.23l.3.42c.17.23.36.5.54.77l.16.25c.18.27.35.55.51.82l.2.35c.15.27.3.54.44.82l.18.37c.14.3.27.57.38.84s.13.32.18.46.22.57.33.89c0,.13.09.29.14.47s.19.64.26,1l.11.5c.07.35.13.68.17,1,0,.17,0,.37.06.58s.06.68.07,1,0,.46,0,.66,0,.65,0,1-.05.55-.09.78-.1.69-.16,1-.11.5-.18.77-.16.62-.26.92-.2.56-.31.83-.26.62-.4.92-.26.51-.43.79-.28.5-.45.76-.37.54-.59.82-.29.39-.46.59-.53.6-.79.87l-.42.42a17.14,17.14,0,0,1-1.37,1.17l-10.39,8,.48,2.68c6.15-1.94,12.9.45,17.67,6.69l.31.42c.19.26.37.51.54.77l.15.23c.18.28.36.56.53.85l.16.29c.17.3.34.61.49.91l.1.21c.16.33.32.67.46,1l.13.33q.17.44.32.88l.15.48c.11.35.21.7.29,1.05l.09.44c.07.34.14.71.19,1.08,0,.14,0,.32.06.51s.06.68.08,1,0,.44,0,.64c0,.35,0,.71,0,1.05s0,.48-.08.71-.09.68-.16,1-.12.55-.2.82-.15.57-.24.83-.24.66-.36,1-.23.56-.36.83-.3.58-.48.89-.23.4-.35.59c-.24.38-.47.68-.7,1s-.25.34-.39.5c-.33.39-.63.71-.86.94l-.42.42c-.4.38-.83.74-1.28,1.09l-9.22,7.06,9.38,52.07-34.27,26.22L275.93,289.79l-20.77-27.18-49.71,35.74C195.38,306,181.67,314.5,167.18,322l2.94,68.47ZM259.05,236.41l33.47,43.81L329.45,369l5.45-4.17-9.38-52.07h0l-6.25-34.67h0l-13.56-75.25,53.44-38.42c18.14-13.89,33.31-29.18,42.73-43.07,9.59-14.14,9-20.71,8.32-21.57s-6.84-3.17-23,2.38c-15.87,5.46-34.59,16.09-52.74,30l-51.07,41.53L134.84,103l-5.45,4.17,76,59,33.46,43.79-62.14,50.52c-10.43,8-23,20-34.42,33l-4.1,4.65L87.34,281.86l39.28,30.48-4.3,7.22-.5.85.94-.25,8.1-2.26L150,363.79l-2.29-53.29,5.55-2.74c15.51-7.65,30.38-16.62,40.81-24.59l.23-.17Zm101.68,61.05v0Zm-3-6,0,0Zm-.09-.13v0Zm0,0h0l0,0Zm-6.29-19.19,0,0ZM253.9,136.4v0Zm0-.24v0Zm0-3.1v0Zm-.23-1.52v0Zm-17.34-.22,0,0Zm.17-.12,0,0Zm-35.27-19.68,4.09,3.13-4-3.15Zm14.6.33v.06S215.88,111.87,215.88,111.85Zm-15.38-1,.18.18h0Zm0,.12,0,0-.14-.14Zm15.29-.81v0Zm0-.37,0,.26Z" fill="#fff"/><path d="M196.74,163.37a7.46,7.46,0,0,1,1.39-10.45l35.09-26.85c3.27-2.5,6.67-.88,9.18,2.39s3.15,7-.12,9.46l-35.09,26.85A7.45,7.45,0,0,1,196.74,163.37Z" fill="#e7ddf2"/><path d="M242.28,137.92c3.24-2.47,2.63-6.11.2-9.36l-45.91,34.56.17.25a7.43,7.43,0,0,0,1.39,1.38l11.09-1.54Z" fill="#c3b5d2" opacity="0.3" style="mix-blend-mode:multiply"/><path d="M158.61,140.46A7.46,7.46,0,0,1,160,130l35.09-26.85c3.27-2.5,6.67-.88,9.18,2.39s3.15,7-.12,9.46l-35.09,26.85A7.45,7.45,0,0,1,158.61,140.46Z" fill="#e7ddf2"/><path d="M204.14,115c3.24-2.47,2.63-6.11.19-9.35l-45.91,34.55c.06.09.11.17.17.25a7.42,7.42,0,0,0,1.39,1.38l11.09-1.54Z" fill="#c3b5d2" opacity="0.3" style="mix-blend-mode:multiply"/><path d="M242.26,137.94l-17.17-5.67-27,20.65a7.45,7.45,0,0,0,9,11.85Z" fill="#c3b5d2"/><path d="M182.6,112.76,160,130a7.41,7.41,0,0,0-2.44,3.29L168.8,142l.25-.17L200.28,118Z" fill="#c3b5d2"/><polygon points="315.24 177.44 133.66 91.08 113.81 106.27 198.54 172.03 244.2 231.79 259.99 219.72 259.99 219.72 315.24 177.44" fill="#e7ddf2"/><path d="M304.14,330.84a7.46,7.46,0,0,1,1.39-10.45l35.09-26.85c3.27-2.5,6.67-.88,9.17,2.39s3.15,7-.12,9.46l-35.1,26.85A7.45,7.45,0,0,1,304.14,330.84Z" fill="#e7ddf2"/><path d="M349.68,305.39c3.23-2.47,2.63-6.11.2-9.35L304,330.59l.17.25a7.48,7.48,0,0,0,1.39,1.38l11.09-1.54Z" fill="#c3b5d2" opacity="0.3" style="mix-blend-mode:multiply"/><path d="M298.28,290.73a7.46,7.46,0,0,1,1.39-10.45l35.09-26.85c3.27-2.5,6.67-.88,9.17,2.39s3.15,7-.12,9.46l-35.09,26.85A7.45,7.45,0,0,1,298.28,290.73Z" fill="#e7ddf2"/><path d="M343.82,265.28c3.24-2.47,2.63-6.11.2-9.36l-45.91,34.55.17.25a7.58,7.58,0,0,0,1.39,1.38l11.09-1.54Z" fill="#c3b5d2" opacity="0.3" style="mix-blend-mode:multiply"/><g opacity="0.6" style="mix-blend-mode:multiply"><path d="M328.47,258.31l-28.8,22a7.45,7.45,0,0,0,9.05,11.85l26.54-20.3Z" fill="#c3b5d2"/><path d="M335.67,297.4l-30.13,23-.08.07L311,333.71a7.42,7.42,0,0,0,3.62-1.47l27.87-21.32Z" fill="#c3b5d2"/></g><polygon points="262.23 206.27 262.22 206.27 254.44 212.23 254.33 212.31 254.33 212.31 238.54 224.39 284.21 284.15 325.4 383.22 345.26 368.02 309.59 170.04 262.23 206.27" fill="#e7ddf2"/><polygon points="320.33 229.68 311.26 179.36 256.44 210.7 254.44 212.23 254.33 212.31 238.54 224.39 269.85 265.36 320.33 229.68" fill="#c3b5d2" opacity="0.6" style="mix-blend-mode:multiply"/><polygon points="160.39 385.08 156.44 293.06 121.65 319.68 151.64 391.78 160.39 385.08" fill="#e7ddf2"/><polygon points="129.77 339.2 157.96 328.43 156.44 293.06 121.65 319.68 129.77 339.2" fill="#c3b5d2" opacity="0.6" style="mix-blend-mode:multiply"/><polygon points="68.74 265.12 156.44 293.06 121.65 319.68 59.98 271.82 68.74 265.12" fill="#e7ddf2"/><path d="M328.58,123.83,170.89,252.05h0c-28.46,21.78-67.31,68.38-61,76.63s61.43-17,89.9-38.81l165-118.65c39.23-30,62.94-65,52.94-78S367.82,93.81,328.58,123.83Z" fill="#e7ddf2"/><path d="M388.21,141.15c4.52-10.15,5-19.39.23-25.57s-13.75-8.19-24.72-6.48a35,35,0,0,1,24.49,32.05Z" fill="#94d7e6"/><path d="M363.72,109.1c11-1.71,20,.3,24.72,6.48s4.29,15.43-.23,25.57a35,35,0,0,0-24.49-32.05Z" fill="#525764"/><path d="M417.71,94c-.13-.17-.27-.33-.4-.49L110.63,330.23c9.1,5.91,61.59-18.45,89.13-39.52l165-118.65C404,142,427.71,107.11,417.71,94Z" fill="#c3b5d2" opacity="0.3" style="mix-blend-mode:multiply"/></g></g></svg>