<svg id="Layer_1" data-name="Layer 1" xmlns="http://www.w3.org/2000/svg" viewBox="0 0 480 480"><title>Iitems</title><polygon points="308.4 93.05 178.22 93.05 118.56 152.71 118.56 347.97 178.22 407.63 308.4 407.63 368.06 347.97 368.06 152.71 308.4 93.05" fill="#fff"/><path d="M311.67,415.53H175l-64.29-64.29V149.44L175,85.15H311.67L376,149.44v201.8ZM181.5,399.74H305.13l55-55V156l-55-55H181.5l-55,55V344.7Z" fill="#fff"/><rect x="178.23" y="152.71" width="130.17" height="195.26" fill="#ff8242"/><rect x="178.23" y="93.05" width="130.17" height="59.66" fill="#ff9e78"/><rect x="178.23" y="347.97" width="130.17" height="59.66" fill="#f96328"/><rect x="308.4" y="152.71" width="59.66" height="195.26" fill="#ff9e78"/><polygon points="308.4 93.05 368.06 152.71 308.4 152.71 308.4 93.05" fill="#ff8242"/><polygon points="368.06 347.97 308.4 407.63 308.4 347.97 368.06 347.97" fill="#ff8242"/><rect x="118.56" y="152.71" width="59.66" height="195.26" fill="#f96328"/><polygon points="178.22 407.63 118.56 347.97 178.22 347.97 178.22 407.63" fill="#ff8242"/><polygon points="118.56 152.71 178.22 93.05 178.22 152.71 118.56 152.71" fill="#ff8242"/><path d="M326.15,154.08a28.53,28.53,0,0,1-21.42-21.42.72.72,0,0,0-1.43,0,28.54,28.54,0,0,1-21.42,21.42.72.72,0,0,0,0,1.43,28.53,28.53,0,0,1,21.42,21.42.72.72,0,0,0,1.43,0,28.53,28.53,0,0,1,21.42-21.42A.72.72,0,0,0,326.15,154.08Z" fill="#fff"/><path d="M295.88,187.73a23.87,23.87,0,0,1-17.07-17.07.77.77,0,0,0-1.52,0,23.87,23.87,0,0,1-17.07,17.07.77.77,0,0,0,0,1.52,23.87,23.87,0,0,1,17.07,17.07.77.77,0,0,0,1.52,0,23.87,23.87,0,0,1,17.07-17.07A.77.77,0,0,0,295.88,187.73Z" fill="#fff"/></svg>