<svg id="Layer_1" data-name="Layer 1" xmlns="http://www.w3.org/2000/svg" viewBox="0 0 480 480"><title>Iitems</title><path d="M260.73,84.29a45,45,0,0,0-63-9.42l-33.12,24.5,12.67,17.12-24.9,25.16L314.71,302.26l13.76,18.6-8,9.68-77.61-64h0l-99.78-82.31a45,45,0,0,0-50.67-4.54l-9.74-8L58.29,201.21,200.19,318.26,344.32,437.15l24.39-29.56-7.39-6.1,14.13-17.13,33.12-24.5a45,45,0,0,0,9.43-63Z" fill="#f1f2f2"/><path d="M346,454.75,40.69,202.9,81,154l13.33,11A57.12,57.12,0,0,1,151,174.58l101.32,83.58L134.72,141.74l26.15-26.43L147.14,96.74l43.17-31.93a57.59,57.59,0,0,1,80.46,12h0L428,289.45a57.6,57.6,0,0,1-12,80.47L384.11,393.5l-5.2,6.3,7.39,6.1ZM75.88,199.52l266.75,220,8.48-10.28-7.39-6.1,23.06-28,34.35-25.41a32.57,32.57,0,0,0,6.81-45.5L250.68,91.72a32.57,32.57,0,0,0-45.5-6.81L182.11,102l11.6,15.69-23.64,23.89,154.11,152.5,20.14,27.23-22.16,26.86-187-154.27a32.33,32.33,0,0,0-36.61-3.28l-7.46,4.18-6.7-5.53Z" fill="#fff"/><rect x="261.07" y="76.31" width="47.9" height="325.75" transform="translate(-85.47 273.54) rotate(-45.3)" fill="#fff"/><path d="M379.61,379.32,242.87,266.53h0l-99.78-82.31a45,45,0,0,0-63.39,6.08l-11,13.3L256,358.06h0l84,69.3Z" fill="#f0f0f0"/><path d="M418,296.88,260.73,84.29a45,45,0,0,0-63-9.42l-33.12,24.5,210.81,285,33.12-24.5A45,45,0,0,0,418,296.88Z" fill="#7cbfb5"/><path d="M349.12,416.27l42.68-51.74a38.32,38.32,0,1,0-59.13-48.77L290,367.5Z" fill="#2a9c9e"/><polygon points="224.58 288.7 82.67 171.64 58.29 201.21 200.19 318.26 344.32 437.15 368.71 407.59 224.58 288.7" fill="#7cbfb5"/><circle cx="359.19" cy="343.84" r="14.37" transform="translate(-134.62 402.13) rotate(-50.48)" fill="#fff"/></svg>