<svg id="Layer_1" data-name="Layer 1" xmlns="http://www.w3.org/2000/svg" viewBox="0 0 480 480"><title>Iitems</title><polygon points="366.97 103.86 331.41 103.86 331.41 77.34 287.65 77.34 148.14 77.34 148.14 103.86 112.59 103.86 112.59 146.28 134.56 146.28 175.02 402.66 207.91 402.66 306.38 402.66 346.84 146.28 366.97 146.28 366.97 103.86" fill="#fff" fill-rule="evenodd"/><path d="M314.49,412.16H166.9L126.44,155.78H103.09V94.36h35.56V67.84H340.91V94.36h35.56v61.42H355Zm-131.36-19H298.26l40.46-256.37h18.75V113.36H321.91V86.84H157.64v26.51H122.09v23.42h20.59Z" fill="#fff"/><polygon points="306.38 402.66 175.02 402.66 131.26 125.36 350.14 125.36 306.38 402.66" fill="#432918" fill-rule="evenodd"/><polygon points="203.91 402.66 175.02 402.66 131.26 125.36 160.15 125.36 203.91 402.66" fill="#fff" fill-rule="evenodd" opacity="0.2"/><rect x="148.14" y="77.34" width="183.27" height="42.42" fill="#d9d9d9"/><rect x="287.65" y="77.34" width="43.76" height="42.42" fill="#c5c5c5"/><rect x="112.59" y="103.86" width="254.38" height="42.42" fill="#c5c5c5"/><rect x="304.06" y="103.86" width="62.91" height="42.42" fill="#b1b1b1"/><ellipse cx="239.78" cy="251.5" rx="49.23" ry="47.73" fill="#fff"/><path d="M267.71,224.43c10.75,10.42,7,31-8.46,45.94s-36.64,18.62-47.39,8.2-7-31,8.46-45.94S257,214,267.71,224.43Z" fill="#926037" fill-rule="evenodd"/><path d="M267.43,224.16c1.93,1.87-9,15.5-24.43,30.46s-29.49,25.55-31.43,23.69,9-15.5,24.44-30.45S265.51,222.3,267.43,224.16Z" fill="#7d4e24" fill-rule="evenodd"/></svg>