<svg xmlns="http://www.w3.org/2000/svg" viewBox="0 0 480 480"><title>Iitems</title><g style="isolation:isolate"><g id="Layer_1" data-name="Layer 1"><path d="M362.28,192.31V62.23c0-5.59-4.81-10.13-10.74-10.13h-2.39c-5.93,0-10.73,4.53-10.73,10.13V82H151.49V62.23c0-5.59-4.8-10.13-10.73-10.13h-2.39c-5.93,0-10.74,4.53-10.74,10.13V179.11h0v13.2h-13v17.92h6.56V258a9.82,9.82,0,0,0,3.14,7.16,11,11,0,0,0,6.11,2.86v.37h18.69a10.06,10.06,0,0,0,2.37,3.38l62.66,51-7.53,6.14h0L137.75,385a9.72,9.72,0,0,0-.06,14.26c-12.57,3.11-19.88,6.83-19.88,10.83,0,10.94,54.79,19.82,122.39,19.82S362.59,421,362.59,410.08c0-4.16-7.93-8-21.47-11.21l.53-.5a9.73,9.73,0,0,0,0-14.32l-75.27-61.29,62.58-51a10.07,10.07,0,0,0,2.37-3.38H357.9v-.21H358a11.14,11.14,0,0,0,6-1.74,10,10,0,0,0,4.8-8.43V210.23h6.56V192.31ZM300.1,392.79c-17.71-1.61-38.14-2.53-59.91-2.53s-42.07.92-59.74,2.52l52.25-42.58h0l7.53-6.14Zm-59.87-91.33-40.64-33.09h81.25Zm98.2-122.35h0v13.2H325.35v17.92h6.56V243.7H158V210.23h6.56V192.31H151.49V159.72H338.43Z" fill="#fff"/><path d="M240.2,439.88c-33.21,0-64.51-2.11-88.14-5.93-31.41-5.09-44.22-12-44.22-23.86,0-8.81,7.7-14,16.81-17.33,0-.22,0-.45,0-.67a19.67,19.67,0,0,1,6.27-14.35l.55-.48,66.85-54.48L144.59,279c-.23-.21-.45-.43-.66-.65l-23.52-3.61a20.66,20.66,0,0,1-3-2.34A19.66,19.66,0,0,1,111.15,258V220.21h-6.56V182.33h13l0-120.1c0-11.09,9.29-20.11,20.71-20.11h2.39c11.42,0,20.71,9,20.71,20.11V72h167V62.23c0-11.09,9.29-20.11,20.71-20.11h2.39c11.42,0,20.71,9,20.71,20.11v120.1h13.07v37.88h-6.56V258a19.9,19.9,0,0,1-9.46,16.89c-.47.3-.94.57-1.43.83l-31.4,2.65c-.22.22-.44.44-.66.66l-.55.48-53.08,43.26,66.32,54a19.67,19.67,0,0,1,6.27,14.42c0,.38,0,.76,0,1.14,9.91,3.46,17.82,8.65,17.82,17.73,0,11.86-12.81,18.78-44.23,23.86C304.7,437.77,273.4,439.88,240.2,439.88ZM135.72,410.11c16,4.6,51.2,9.81,104.48,9.81s88.48-5.22,104.48-9.81c-1.65-.49-3.59-1-5.84-1.53l-15.48-3.65-24.16-2.2c-17.91-1.63-38.32-2.49-59-2.49s-41,.86-58.83,2.48l-25.86,2.35-15.42,3.87C138.45,409.34,137,409.73,135.72,410.11Zm9-17.94,9.51,9.11,86-70.09,84.84,69.08,9.6-9-84.09-68.47,71.55-58.31,2.56-6,23.24,0v-.21h10a1.3,1.3,0,0,0,.73-.17.75.75,0,0,0,.22-.18l0-55.54h-6.51V62.23c0,.09-.26-.15-.76-.15h-2.39a1,1,0,0,0-.8.3l0,29.59H141.52V62.23c0,.09-.26-.15-.76-.15h-2.39a1,1,0,0,0-.8.3l0,126.7h0v13.2h-6.49V258c.06,0,.22.08.58.13l2.15.28h21.83l2.57,6,71.67,58.35Zm95.47-11.88c9.95,0,19.84.19,29.44.57l-29.39-23.93-29.36,23.92C220.45,380.47,230.29,380.28,240.2,380.28Zm0-66-68.7-55.94H308.87Zm-12.59-36,12.58,10.25,12.57-10.25Zm114.24-24.67H148V202.29h-6.52V149.74H348.4v52.55h-6.51Zm-173.9-20h154V220.21h-6.56V182.33h13.08V169.69h-167v12.64h13.08v37.88H168Z" fill="#fff"/><rect x="338.43" y="179.11" width="23.85" height="64.6" fill="#ab8260"/><ellipse cx="240.2" cy="410.08" rx="122.39" ry="19.82" opacity="0.1" style="mix-blend-mode:multiply"/><path d="M162,407.84a11.2,11.2,0,0,1-15.18,0l-9-8.54a9.73,9.73,0,0,1,0-14.32l167-136.09a11.19,11.19,0,0,1,15.18,0l9.05,8.53a9.73,9.73,0,0,1,0,14.32Z" fill="#85654a"/><polygon points="232.71 350.19 258.85 328.89 232.7 307.6 206.56 328.9 232.71 350.19" opacity="0.1" style="mix-blend-mode:multiply"/><path d="M175.67,248.89a11.2,11.2,0,0,0-15.18,0l-9,8.53a9.73,9.73,0,0,0,0,14.32l166,135.15a11.19,11.19,0,0,0,15.18,0l9-8.54a9.73,9.73,0,0,0,0-14.32Z" fill="#ab8260"/><ellipse cx="240.2" cy="321.91" rx="8.1" ry="7.64" fill="#1f2326"/><rect x="130.38" y="243.7" width="227.53" height="24.67" fill="#54368e"/><path d="M351.55,52.1h-2.39a11.32,11.32,0,0,0-2.07.2,10.29,10.29,0,0,1,8.67,9.93V227.72a10.29,10.29,0,0,1-8.67,9.93,11.34,11.34,0,0,0,2.07.2h2.39c5.93,0,10.74-4.53,10.74-10.12V62.23C362.28,56.64,357.48,52.1,351.55,52.1Z" opacity="0.1" style="mix-blend-mode:multiply"/><path d="M140.76,52.1h-2.39c-5.93,0-10.74,4.53-10.74,10.13V227.72c0,5.59,4.81,10.12,10.74,10.12h2.39c5.93,0,10.73-4.53,10.73-10.12V62.23C151.49,56.64,146.69,52.1,140.76,52.1Z" fill="#ab8260"/><path d="M351.55,52.1h-2.39c-5.93,0-10.73,4.53-10.73,10.13V227.72c0,5.59,4.8,10.12,10.73,10.12h2.39c5.93,0,10.74-4.53,10.74-10.12V62.23C362.28,56.64,357.48,52.1,351.55,52.1Z" fill="#ab8260"/><path d="M158,258c0,5.59-4.81,10.13-10.74,10.13H131.86c-5.93,0-10.74-4.53-10.74-10.13V208.34c0-5.59,4.8-10.12,10.74-10.12h15.42c5.93,0,10.74,4.53,10.74,10.12Z" fill="#ab8260"/><path d="M368.8,258c0,5.59-4.8,10.13-10.74,10.13H342.64c-5.93,0-10.74-4.53-10.74-10.13V208.34c0-5.59,4.81-10.12,10.74-10.12h15.42c5.93,0,10.74,4.53,10.74,10.12Z" fill="#ab8260"/><rect x="114.56" y="192.31" width="50.01" height="17.92" fill="#4e2f7f"/><rect x="114.56" y="201.27" width="50.01" height="8.96" fill="#4e2f7f"/><rect x="325.35" y="192.31" width="50.01" height="17.92" fill="#4e2f7f"/><rect x="325.35" y="201.27" width="50.01" height="8.96" fill="#4e2f7f"/><rect x="127.64" y="179.11" width="23.85" height="64.6" fill="#ab8260"/><rect x="338.43" y="179.11" width="23.85" height="64.6" fill="#ab8260"/><path d="M147.27,253.83H135.66V237.48l.08-9.76V62.23a10.21,10.21,0,0,1,7.87-9.72,11.19,11.19,0,0,0-2.86-.41h-2.39c-5.93,0-10.74,4.53-10.74,10.13V179.11h0v31.12h-6.48V258c0,5.59,4.8,10.13,10.74,10.13h15.42c5.93,0,10.74-4.53,10.74-10.13V243.7C158,249.3,153.2,253.83,147.27,253.83Z" opacity="0.1" style="mix-blend-mode:multiply"/><path d="M362.24,210.28V179.15h0V62.27c0-5.59-4.81-10.13-10.74-10.13h-2.39a11.19,11.19,0,0,0-2.86.41,10.21,10.21,0,0,1,7.87,9.72V227.77l.08,9.76v16.35H342.57c-5.93,0-10.74-4.53-10.74-10.13V258c0,5.59,4.81,10.13,10.74,10.13H358c5.93,0,10.74-4.53,10.74-10.13V210.28Z" opacity="0.1" style="mix-blend-mode:multiply"/><rect x="151.49" y="82" width="186.94" height="77.72" fill="#54368e"/><path d="M162.06,108.64h8.38c7.76,0,12.27,4.47,12.27,10.81s-4.57,10.94-12.39,10.94h-8.26Zm8.48,16.4c3.6,0,6-2,6-5.56s-2.39-5.56-6-5.56h-2.45V125Z" fill="#fff"/><path d="M185.93,108.64H192v21.75h-6.05Z" fill="#fff"/><path d="M196,108.64h10.28c3.32,0,5.62.87,7.08,2.33a7.46,7.46,0,0,1-2.55,11.84l5.19,7.58h-7l-4.38-6.59H202v6.59h-6Zm10,10.44c2,0,3.23-1,3.23-2.64s-1.24-2.58-3.26-2.58H202v5.22Z" fill="#fff"/><path d="M218.28,108.64h17.48v5.13H224.24v3.29h10.43v4.75H224.24v3.45h11.68v5.13H218.28Z" fill="#fff"/><path d="M238.24,119.52a11.17,11.17,0,0,1,11.46-11.31,10.51,10.51,0,0,1,9.13,4.6l-4.41,3.42a5.84,5.84,0,0,0-4.78-2.52c-3,0-5.19,2.58-5.19,5.81s2.14,5.81,5.19,5.81c2.27,0,3.6-1.06,4.91-2.64l4.53,3.23a11.44,11.44,0,0,1-20.84-6.4Z" fill="#fff"/><path d="M267,113.93h-6.52v-5.28H279.5v5.28H273v16.47h-6Z" fill="#fff"/><path d="M280.46,119.52a11.71,11.71,0,1,1,11.68,11.31A11.39,11.39,0,0,1,280.46,119.52Zm17.26,0a5.65,5.65,0,0,0-5.59-5.87,5.56,5.56,0,0,0-5.5,5.87,5.64,5.64,0,0,0,5.56,5.87A5.56,5.56,0,0,0,297.72,119.52Z" fill="#fff"/><path d="M307,108.64h10.28c3.32,0,5.62.87,7.08,2.33a7.46,7.46,0,0,1-2.55,11.84l5.19,7.58h-7l-4.38-6.59H313v6.59h-6Zm10,10.44c2,0,3.23-1,3.23-2.64s-1.24-2.58-3.26-2.58H313v5.22Z" fill="#fff"/></g></g></svg>