<svg xmlns="http://www.w3.org/2000/svg" viewBox="0 0 480 480"><title>Iitems</title><g style="isolation:isolate"><g id="Layer_1" data-name="Layer 1"><path d="M397,79.21A132.23,132.23,0,0,0,191.55,243.66c-.4.34-.79.7-1.17,1.07L45.09,385.64a26,26,0,1,0,36.41,37.26L226.79,282c.38-.37.74-.76,1.1-1.14A132.23,132.23,0,0,0,397,79.21Z" fill="#076684"/><path d="M64.72,440.3a36,36,0,0,1-25.21-61.81L180.25,242A142.57,142.57,0,0,1,204.46,69.91c56.09-54.81,146.31-53.78,201.12,2.31s53.77,146.31-2.31,201.12a142.57,142.57,0,0,1-172.64,20.23L89.87,430.07A35.88,35.88,0,0,1,64.72,440.3ZM303.85,49.46A122.17,122.17,0,0,0,201.35,238.2l4.76,7.31-6.59,5.71c-.25.21-.49.43-.73.66L53.46,392.82a16,16,0,0,0,22.46,22.92L221.24,274.8c.21-.2.43-.44.65-.68l5.86-6.47,7.2,4.93a122.22,122.22,0,1,0,68.9-223.13Z" fill="#fff"/><path d="M82.8,422.89A26,26,0,0,1,46,422.47h0a26,26,0,0,1,.42-36.83l145.3-140.91a26,26,0,0,1,36.83.42h0a26,26,0,0,1-.42,36.83Z" fill="#691f2f"/><rect x="73.99" y="358.6" width="21.35" height="52.09" transform="translate(-244.73 168.73) rotate(-44.34)" fill="#eb4643"/><rect x="100.13" y="338.27" width="10.68" height="52.09" transform="translate(-224.6 177.48) rotate(-44.34)" fill="#eb4643"/><rect x="183.53" y="257.79" width="10.68" height="52.09" transform="translate(-144.59 212.85) rotate(-44.34)" fill="#eb4643"/><circle cx="303.75" cy="171.62" r="132.22" transform="translate(-33.44 261.18) rotate(-44.34)" fill="#691f2f"/><circle cx="303.75" cy="171.62" r="108.4" transform="translate(-33.44 261.18) rotate(-44.34)" opacity="0.2" style="mix-blend-mode:multiply"/><circle cx="303.75" cy="171.62" r="97.47" transform="translate(-33.44 261.18) rotate(-44.34)" fill="#c1e1ec"/><ellipse cx="353.32" cy="156.63" rx="37.54" ry="53.41" transform="translate(-32.19 129.19) rotate(-19.84)" fill="#fff" opacity="0.6"/></g></g></svg>