<svg id="Layer_1" data-name="Layer 1" xmlns="http://www.w3.org/2000/svg" viewBox="0 0 480 480"><title>Iitems</title><path d="M330.52,318.65l.09-.12.16-.22.1-.14.09-.12.1-.13,0,0,.07-.1,0-.06c58.19-79,41.81-198.89,41.64-200.1l-.26-1.84-1.85-.21c-71.57-8.28-126.54-39.11-127.08-39.42l-3.59-2h0l-3.59,2c-.55.31-55.51,31.14-127.08,39.42l-1.85.21-.26,1.84c-.17,1.2-16.55,121,41.63,200.08l.07.09,0,.06.19.25,0,.07.26.35.08.11.41.54.09.11.47.62.09.12.62.81.15.19.73.93,0,0,.85,1.08.17.21,1,1.22,0,0,1,1.29.19.23,1.16,1.42.13.16,1.18,1.43.17.2,1.36,1.62.2.24,1.43,1.68.06.07,1.57,1.82.24.28q1.62,1.86,3.41,3.86l.28.32,1.84,2,.09.1,1.86,2,.26.28,2,2.13.25.27,2,2.08.18.19,2.16,2.23.34.35q2.22,2.26,4.57,4.59l.4.39,2.41,2.34,0,0,2.41,2.3.41.39,2.5,2.34.31.29,2.38,2.17.38.34,2.61,2.32.48.42,2.51,2.18.25.22,2.72,2.31.58.49q1.4,1.16,2.82,2.32h0A245.8,245.8,0,0,0,236,397.74l4,2.37,3.62-2.11c42.87-25,76-65.34,85.06-77l0,0C329.51,320,330.11,319.2,330.52,318.65ZM129,217.08l-.09-.53Zm-.56-3.35-.12-.77Zm-.52-3.36-.12-.82Zm-.48-3.36-.11-.79Zm-.45-3.39-.08-.65Zm-.42-3.46,0-.41Z" fill="#fff"/><path d="M240,411.11l-8.83-5.17a255.5,255.5,0,0,1-31.86-22.3q-1.47-1.2-2.91-2.4l-.62-.52L193,378.36l-.26-.23-2.58-2.24-.48-.42-2.7-2.4-.43-.39-2.41-2.2-.32-.29-2.57-2.4-.41-.39-2.32-2.22-.26-.25-2.42-2.36-.41-.4q-2.42-2.39-4.7-4.72l-.32-.32-2.25-2.32-.19-.2-2-2.13-.25-.26L163.7,350l-.26-.28-1.9-2.07-.1-.11-1.89-2.09-.28-.32q-1.85-2.06-3.51-4l-.27-.31L153.89,339l-.08-.1-1.45-1.7-.23-.27-1.37-1.63-.2-.24-1.2-1.44-.15-.18L148,332l-6.13-7.81h0l-.67-.91c-60.47-82.19-43.53-205.79-43.36-207l1.3-9.08,9.12-1.05c63.33-7.33,113.82-33.08,122.26-37.59l9.92-5.27,9.09,5.27c8.37,4.47,58.91,30.26,122.27,37.59l9.11,1.05,1.31,9.08c.18,1.25,17,125-43.39,207.08l-.33.44-7.71-5.55,7.63,5.65-.34.46c-.43.57-1.05,1.39-1.85,2.42l-.15.19c-9.58,12.32-43.58,53.58-87.66,79.24Zm-48.63-59.93.17.17,2.35,2.24.4.37,2.43,2.27.31.29,2.3,2.1.42.38,2.48,2.21.48.43,2.42,2.1.29.25,2.58,2.19.55.46c.92.77,1.83,1.52,2.74,2.26a237.63,237.63,0,0,0,28.73,20.21c40.69-24.06,72.27-62.49,81.12-73.89l.19-.25c.65-.84,1.16-1.51,1.53-2l.14-.19.33-.44.1-.14.14-.19c48.71-66.19,42.73-163.91,40.42-187.7-65-8.66-116-35-124-39.3-8,4.31-58.88,30.64-124,39.3-2.31,23.76-8.31,121.45,40.44,187.72l6.22,8,1.16,1.41,1.44,1.74,1.33,1.58.17.21,1.41,1.65.09.1,1.5,1.74.26.3c1,1.18,2.14,2.44,3.3,3.74l.27.3,1.8,2-6.93,6.5,7-6.41,1.82,2,.25.27,1.95,2.08.24.25,1.93,2,.14.15,2.14,2.21.34.35c1.42,1.46,2.91,2.95,4.44,4.46l.37.37Zm147.22-27.53-.07.09Zm.15-.2-.1.13Zm-197.54-.12.13.17-.12-.17ZM119.67,218.68l-.09-.56L138.32,215l.08.5Zm-.57-3.42-.13-.84,18.77-2.93.11.7Zm-.54-3.51-.12-.81,18.8-2.77.12.83Zm-.49-3.4-.11-.82,18.82-2.6.11.79Zm-.47-3.53-.08-.66,18.85-2.38.08.64Zm-.43-3.51-.06-.48L136,198.67l0,.35Z" fill="#fff"/><path d="M240,379c-43.5-27.88-74.76-70.7-75.09-71.15-44.24-60.1-42-146.87-39.67-177A394.22,394.22,0,0,0,240,94.59" fill="#54368e"/><path d="M240,94.59A397.85,397.85,0,0,0,354.71,130.8c2.35,30.13,4.58,116.89-39.6,176.92-.39.54-31.81,43.44-75.15,71.24" fill="#4e2f7f"/><path d="M372.79,117.62l-.26-1.84-1.85-.21c-71.57-8.28-126.54-39.11-127.08-39.42l-3.61-2v4.17l0,0,0,16.35,0,0v1.47l1.33.67a401.3,401.3,0,0,0,113.52,36.14c1.6,22.49,2.65,71.08-12.07,118.4-.2.65-.4,1.31-.61,2-.14.44-.29.87-.44,1.31-6,18.08-14.43,35.84-26.14,51.75-.31.43-31.69,43.17-74.5,70.63l-1.11.71v1.29l0,0v17l0,0v4.22l3.62-2.11c50.29-29.28,87.18-79.79,87.53-80.28C389.33,238.67,373,118.83,372.79,117.62Z" fill="#a37925"/><path d="M164.45,306.38c-16.88-22.93-26.93-49.67-32.78-75.73-.2-.91-.41-1.82-.6-2.73-.16-.74-.31-1.48-.46-2.22-.34-1.67-.68-3.35-1-5l0-.21a339.6,339.6,0,0,1-5.28-52c0-.37,0-.75,0-1.12,0-.84,0-1.65,0-2.47-.2-12.73.28-23.74.87-32A397.62,397.62,0,0,0,238.68,96.75l1.32-.67v-22l-3.6,2c-.55.31-55.51,31.14-127.08,39.42l-1.85.21-.26,1.84c-.17,1.2-16.55,121,41.63,200.08.36.51,37,50.73,87.11,80l4,2.37V377.64l-1.11-.71C195.75,349.27,164.77,306.82,164.45,306.38Z" fill="#f2b122"/><path d="M283.36,342.67c-11.8,11.55-26.23,24-42.26,34.26l-1.11.71v1.29l0,0v.37C256.74,368.06,271.62,354.63,283.36,342.67Z" fill="#8c631b"/><path d="M372.79,117.62l-.26-1.84-1.85-.21c-71.57-8.28-126.54-39.11-127.08-39.42l-3.61-2v4.17l0,0v5c8.27,4.46,57.62,31.94,123.49,39.56l1.85.21.26,1.84c.17,1.2,19,118.64-39.23,197.69a335.7,335.7,0,0,1-29.18,33.62,342.77,342.77,0,0,0,34-38.45C389.33,238.67,373,118.83,372.79,117.62Z" fill="#8c631b"/><path d="M238.89,376.93A239,239,0,0,1,217,361a251.94,251.94,0,0,0,23,17.56v-.87Z" fill="#fcc86b"/><path d="M153.65,321.72c-58.17-79-39.39-196.47-39.21-197.67l.26-1.84,1.85-.21C182.32,114.39,231.62,87.76,240,83.24V74.1l-3.6,2c-.55.31-55.51,31.14-127.08,39.42l-1.85.21-.26,1.84c-.17,1.2-16.55,121,41.63,200.08a352.45,352.45,0,0,0,56.45,58.57A353.49,353.49,0,0,1,153.65,321.72Z" fill="#fcc86b"/><path d="M239.92,306.94l1.82-5.54c4.34-13.24,17.93-19.85,18.07-19.91l2-1-2.11-.78a19.19,19.19,0,0,1-11.67-10.84c-5.73-13.88,3.54-34.24,3.62-34.43a231.88,231.88,0,0,0,10.37-24.41c7.59-23.58-20.4-43.1-20.68-43.3l-1.45-1v0h0v0l-1.45,1c-.28.19-28.27,19.72-20.68,43.31a231.78,231.78,0,0,0,10.35,24.37c.09.2,9.36,20.57,3.63,34.45a19.19,19.19,0,0,1-11.67,10.84l-2.12.78,2,1c.14.06,13.73,6.64,18.07,19.91l1.82,5.54,0,.06Z" fill="#f2b122"/><path d="M203.42,250.24s-6.53,1.17-6.6-4.7a8.42,8.42,0,0,1,3.28-6.6c2.58-2.05,7.7-3.65,13.87.27a23.74,23.74,0,0,1,10.85,19.34,14.11,14.11,0,0,1-2.2,8.68,6.92,6.92,0,0,1-6.19,3.32,10.81,10.81,0,0,1-9-5.08s-3.57,6.59,2.78,11.27c0,0,6.51,4.52,14.6-1.11,0,0,7.06-4.29,7.54-17.62a33.67,33.67,0,0,0-8-22.38s-6.19-8.81-20.83-12.74c0,0-11-2.89-18.52,4.09a17,17,0,0,0-4.74,8.65c-1.08,4.58-1.71,11.81,3.26,16.55C183.5,252.18,192.86,261.27,203.42,250.24Z" fill="#f2b122"/><path d="M276.48,250.24s6.53,1.17,6.6-4.7a8.42,8.42,0,0,0-3.28-6.6c-2.58-2.05-7.7-3.65-13.87.27a23.74,23.74,0,0,0-10.85,19.34,14.11,14.11,0,0,0,2.2,8.68,6.92,6.92,0,0,0,6.19,3.32,10.81,10.81,0,0,0,9-5.08s3.57,6.59-2.78,11.27c0,0-6.51,4.52-14.6-1.11,0,0-7.06-4.29-7.54-17.62a33.67,33.67,0,0,1,8-22.38s6.19-8.81,20.83-12.74c0,0,11-2.89,18.52,4.09a17,17,0,0,1,4.74,8.65c1.08,4.58,1.71,11.81-3.26,16.55C296.4,252.18,287,261.27,276.48,250.24Z" fill="#f2b122"/></svg>