<svg id="Layer_1" data-name="Layer 1" xmlns="http://www.w3.org/2000/svg" viewBox="0 0 480 480"><title>Iitems</title><polygon points="373.52 189.06 344.01 189.06 299.75 189.06 270.22 189.06 225.96 189.06 196.45 189.06 152.18 189.06 141.08 189.06 399.4 107.12 398.05 102.76 406.03 100.22 401.65 86.08 401.88 86.2 392.96 58.03 83.4 156.09 82.89 156.25 82.9 156.25 63.64 162.35 63.64 166.69 53.63 169.86 53.63 226.67 53.63 420.51 411.28 420.51 411.28 410.55 417.79 410.55 417.79 225.46 417.79 189.06 373.52 189.06" fill="#fff"/><path d="M422.93,420.51H52V153.83l-.09,0,28-8.81L400.56,43.4l21.05,60.66-230,73,237.85.33V420.51ZM65.28,408.86H399.62v-10h6.51V200.71H65.78L384.84,99.51l-1.35-4.37,8-2.53L385.3,72.69l-310,98.19v4.34l-10,3.17Z" fill="#fff"/><polygon points="64.15 160.86 393.47 56.54 406.54 98.73 123.17 187.57 418.3 187.57 418.3 223.97 64.15 217.11 64.15 160.86" fill="#fff"/><path d="M418.3,187.57V409.06H64.15V217.11h29.5l29.52-29.54h29.51l-29.51,29.54h44.26L197,187.57h29.5L197,217.11h44.26l29.5-29.54h29.52l-29.52,29.54H315l29.5-29.54H374l-29.51,29.54h44.26Zm-24.83-131-28.13,8.91,37,19.25ZM78.91,202.34a14.77,14.77,0,1,0-14.76-14.77,14.76,14.76,0,0,0,14.76,14.77Zm42-28.5,18.51,9.62L406.54,98.73l-4.37-14.09L360,98,323.14,78.85,295,87.77l36.91,19.16L289.72,120.3,252.8,101.15l-28.13,8.92,36.91,19.17-42.2,13.38-36.9-19.16-28.15,8.93,36.92,19.14L149,164.92l-36.88-19.16-28.75,9,37.52,19.08Zm0,0" fill="#333"/><rect x="94.33" y="260.57" width="292.49" height="3.27" fill="#fff"/><rect x="162.65" y="262.21" width="3.27" height="46.79" fill="#fff"/><rect x="309.26" y="262.21" width="3.27" height="46.79" fill="#fff"/><rect x="94.33" y="323.96" width="292.49" height="3.27" fill="#fff"/><rect x="94.33" y="375.27" width="292.49" height="3.27" fill="#fff"/></svg>