<svg id="Layer_1" data-name="Layer 1" xmlns="http://www.w3.org/2000/svg" viewBox="0 0 480 480"><title>item_28</title><g id="Layer_1-2" data-name="Layer 1"><path d="M388.09,185.45V179.9a9.58,9.58,0,0,0-.06-1.31v-1.4c0-.43,0-.85-.08-1.28v-1.37c0-.36-.06-.71-.09-1.07s-.06-.76-.1-1.13v-.41c0-.28-.06-.55-.08-.83a10.31,10.31,0,0,0-.15-1.42v-.41l-.06-.48c-.07-.57-.13-1.14-.21-1.7a6.35,6.35,0,0,0-.12-.86q-.11-.84-.24-1.67l-.13-.89q-.12-.8-.25-1.58l-.15-.87c-.09-.53-.19-1-.28-1.56l-.15-.8c-.1-.54-.21-1.07-.32-1.6l-.14-.68c-.13-.63-.27-1.25-.41-1.86l-.07-.33q-.25-1.11-.52-2.17v-.13q-.24-1-.5-1.91l-.15-.55c-.13-.47-.26-.95-.4-1.41l-.19-.64c-.12-.42-.25-.83-.37-1.23l-.21-.65-.37-1.15-.21-.62-.39-1.1-.2-.56-.41-1.1-.18-.47c-.17-.43-.33-.84-.5-1.25l-.09-.22q-.3-.73-.6-1.4l-.08-.18-.44-1h0a23.44,23.44,0,0,0-4-6.43,32.52,32.52,0,0,0-6.64-4.41h0c-1.54-.83-3.32-1.7-5.31-2.58l-.13-.06-1.44-.62-.18-.08-1.53-.62-.14-.06c-1.73-.69-3.59-1.37-5.57-2h0l-1.88-.61-.37-.12-1.66-.5-.49-.14-1.64-.46-.53-.15-1.73-.45-.48-.12-2.08-.5h-.18q-2.35-.54-4.86-1l-.46-.09-2-.36-.71-.12-1.84-.29-.81-.12-1.83-.26-.83-.11-2-.23-.75-.08-2.36-.23h-.4q-1.44-.13-2.91-.23h-.08l-2.8-.16h-.78l-2.16-.08h-7.15l-2.18.06h-1l-2.68.14h-.52q-1.65.1-3.32.24h-.48L295,114l-1,.12-2.32.27-1.23.16-2.22.31-1.29.2-2.25.37-1.28.22-2.42.45-1.14.22q-1.51.3-3,.64l-.57.12q-1.83.41-3.69.86l-.8.2-2.9.75-1.27.35L265,120l-1.43.42-2.4.74-1.48.47-2.44.81-1.45.49-2.63.94-1.28.47q-1.69.63-3.4,1.3l-.55.21q-2,.79-4,1.64l-1.09.47c-1,.42-2,.84-2.95,1.28l-1.47.67-2.62,1.21-1.6.76-2.55,1.24L230,134l-2.6,1.34-1.6.84-2.8,1.48-1.4.77q-1.93,1.08-3.87,2.21l-.38.22q-2.14,1.25-4.29,2.57l-1.3.81c-1,.62-2,1.25-3,1.9l-1.63,1.06L204.4,149l-1.75,1.18L199.93,152l-1.77,1.24-2.74,2-1.72,1.25-3,2.25-1.46,1.1q-2.24,1.71-4.5,3.5T180.19,167l-1.54,1.3c-1,.8-1.9,1.6-2.83,2.41l-1.76,1.56c-.82.73-1.64,1.45-2.44,2.18l-1.81,1.67c-.75.7-1.5,1.39-2.23,2.09l-1.79,1.73c-.7.68-1.4,1.36-2.09,2l-1.76,1.77-2,2-1.71,1.8-1.87,2-1.65,1.82-1.78,2-1.59,1.83-1.69,2c-.56.66-1,1.22-1.52,1.83s-1.09,1.35-1.63,2-1,1.21-1.44,1.81-1.05,1.38-1.58,2.06-.91,1.19-1.35,1.78-1,1.44-1.57,2.16l-1.22,1.69c-.63.9-1.24,1.79-1.86,2.69s-1.08,1.59-1.61,2.39-1.11,1.68-1.65,2.52c-.37.58-.73,1.17-1.09,1.75l-1.3,2.09c-.43.7-.73,1.23-1.1,1.85s-.79,1.32-1.17,2l-1.06,1.88c-.35.63-.73,1.3-1.08,1.95l-1,1.88c-.33.63-.68,1.29-1,1.93s-.64,1.26-1,1.88-.64,1.28-.95,1.91l-.9,1.88-.89,1.91q-.43.93-.84,1.86l-.83,1.9c-.27.62-.53,1.23-.79,1.85s-.52,1.27-.78,1.9-.5,1.22-.73,1.83-.49,1.27-.73,1.9-.46,1.2-.68,1.8-.46,1.29-.69,1.94l-.61,1.73c-.2.57-.45,1.36-.68,2s-.36,1.07-.53,1.61q-.42,1.32-.81,2.64-.33,1.09-.64,2.17c-.22.77-.45,1.55-.66,2.32-.15.53-.28,1.06-.42,1.59s-.35,1.31-.51,2-.26,1.09-.4,1.64-.3,1.25-.44,1.88-.24,1.1-.36,1.65-.27,1.22-.39,1.83-.22,1.1-.33,1.64-.23,1.2-.34,1.79-.2,1.09-.29,1.63-.21,1.18-.3,1.77-.17,1.07-.25,1.6-.18,1.17-.26,1.76-.15,1-.22,1.56-.15,1.17-.22,1.75-.13,1-.18,1.52-.13,1.17-.19,1.75-.1,1-.15,1.47-.11,1.18-.16,1.76l-.12,1.4c0,.46-.08,1.21-.12,1.81,0,.43-.06.86-.08,1.29,0,.67-.07,1.32-.1,2v1.06q-.06,1.49-.09,3v9.76a12,12,0,0,0,.07,1.52c.07.52,0,.8.07,1.2s.06,1,.09,1.45.06.79.09,1.18.07.93.11,1.38.07.77.11,1.16.09.89.14,1.34.08.75.12,1.12.1.86.15,1.29.09.73.14,1.09.11.83.17,1.24.1.71.15,1,.12.8.19,1.19.11.68.16,1,.14.77.2,1.15.11.65.17,1,.15.75.22,1.12.12.61.18.9.17.77.25,1.15q.19.87.39,1.69c.07.28.13.57.2.85s.17.65.25,1l.2.76c.09.32.17.62.26.93l.2.71.27.89.2.64.28.85.19.57.28.8.19.51.29.76.18.45.3.71.07.16h0a23.36,23.36,0,0,0,1.44,2.83l.15.25.19.29c.13.19.25.36.38.52a15.93,15.93,0,0,0,4.25,3.13h0l.94.52.18.1,1,.51.24.12,1.05.51.27.13,1.13.52.29.13,1.23.54.25.11,1.38.57h.08c2.06.83,4.35,1.66,6.85,2.48l.43.14,1.46.46.69.22,1.42.42.83.24,1.41.4.93.25,1.42.38,1,.26,1.44.36,1.08.26,1.47.34,1.14.25,1.5.32,1.2.24,1.53.3,1.27.23,2.78.49,1.54.25,1.45.22,1.53.23,1.49.2,1.57.2,1.52.18,1.62.18,1.54.15,1.68.15,1.56.13L174,375l1.56.1,1.81.1,1.56.08,1.9.07h8.58q1.78,0,3.59-.08h1.12l2.55-.11,1.44-.09,2.3-.15,1.56-.12,2.23-.19,1.62-.16,2.22-.24,1.66-.2,2.24-.29,1.67-.23,2.3-.35,1.66-.26,2.38-.41,1.61-.29,2.57-.51,1.46-.29,3.1-.68,1-.21q2.05-.48,4.13-1l.74-.2c1.13-.29,2.26-.6,3.4-.92l1.41-.41,2.76-.81,1.61-.51,2.6-.83,1.7-.58,2.53-.88,1.76-.64,2.52-1,1.77-.69,2.54-1,1.76-.73,2.61-1.13,1.71-.75c.92-.41,1.84-.84,2.76-1.28l1.56-.73c1.06-.51,2.13-1,3.19-1.57l1.15-.57q2.19-1.11,4.39-2.3l.33-.18q2-1.09,4-2.23l1.4-.81c1-.57,2-1.15,3-1.75l1.66-1,2.72-1.69,1.78-1.15c.87-.57,1.74-1.13,2.61-1.72l1.83-1.24,2.57-1.78,1.86-1.32,2.56-1.87,1.85-1.38c.87-.65,1.73-1.32,2.6-2l1.8-1.41c.9-.71,1.8-1.45,2.69-2.18l1.7-1.39c1-.82,2-1.67,3-2.51l1.42-1.22q2.19-1.91,4.37-3.9,1.92-1.75,3.76-3.51l.25-.24,1.25-1.22.5-.49c.54-.52,1.09-1,1.62-1.57l.49-.5,1.42-1.44.3-.3,1.27-1.29.72-.76,1.43-1.51.18-.19,1-1.07,1-1,1.37-1.52.07-.07.82-.91,1.18-1.35,1.27-1.47.63-.72c.49-.58,1-1.15,1.44-1.73l1.11-1.34.4-.48c.61-.75,1.2-1.5,1.79-2.25l.85-1.06.19-.24c.81-1,1.61-2.09,2.39-3.14l.3-.39h0c.79-1.07,1.57-2.14,2.33-3.2l.23-.32.31-.44.1-.15q1-1.38,1.91-2.76l.13-.19.49-.73.55-.83c.41-.62.83-1.25,1.23-1.87l.07-.11.66-1,.64-1,.92-1.46h0l.82-1.35L364,271q.84-1.41,1.65-2.82l.57-1q.83-1.47,1.62-2.94l.46-.86q.86-1.62,1.68-3.24l.27-.53q3.9-7.76,6.82-15.37l.1-.25q.67-1.74,1.29-3.48l.16-.45q.59-1.65,1.13-3.29l.16-.49q.54-1.65,1-3.29l.12-.39q.53-1.75,1-3.49V229a161.72,161.72,0,0,0,4-18.07v-.14q.26-1.65.48-3.28v-.31q.21-1.56.39-3.1v-.33l.06-.49h0q.14-1.29.26-2.57v-.48q.13-1.39.22-2.76v-.24q.09-1.32.16-2.62v-.35q.06-1.24.1-2.46v-.47c0-.77,0-1.53.06-2.29v-1.6h0v-1.12C387.72,186,388.09,185.7,388.09,185.45Z" fill="#fff"/><path d="M100.86,358.9l-.37-.89-.24-.61-.35-.92-.24-.66-.35-1-.24-.7-.33-1-.23-.74-.32-1-.28-1c-.09-.31-.18-.62-.26-1l-.28-1.07c-.08-.3-.16-.59-.23-.9l-.23-1c-.15-.63-.3-1.26-.44-1.91v-.2c-.08-.36-.16-.72-.23-1.09L96,342c-.07-.34-.14-.68-.2-1l-.21-1.16-.21-1.16-.18-1.12c-.08-.47-.14-.89-.21-1.31l-.17-1.16c-.06-.46-.13-.9-.19-1.36s-.1-.81-.15-1.21-.11-.92-.17-1.4-.09-.81-.13-1.22-.1-1-.15-1.46l-.12-1.27c0-.5-.08-1-.12-1.5l-.1-1.29c0-.51-.07-1-.1-1.57l-.08-1.3c0-.55-.05-1.09-.07-1.64V309.34c0-1,.05-2.1.09-3.18l.06-1.33c0-.64.06-1.29.1-1.94a5.77,5.77,0,0,1,.06-1v-.52c0-.61.08-1.22.13-1.84a11.35,11.35,0,0,1,.1-1.16V298c.05-.62.11-1.25.17-1.89s.1-1,.15-1.47v-.12c.06-.61.13-1.23.2-1.86s.13-1.1.2-1.65l.24-1.86c.08-.62.15-1.12.24-1.69s.18-1.24.28-1.87l.27-1.72c.09-.58.21-1.27.32-1.9s.2-1.15.31-1.73.24-1.29.37-1.93v-.18c.1-.53.21-1.06.32-1.59s.25-1.18.38-1.77l.12-.54c.1-.47.21-.94.31-1.42s.28-1.19.42-1.79l.15-.63c.11-.45.21-.9.33-1.35s.28-1.11.43-1.67l.24-.92.32-1.22c.19-.71.4-1.44.61-2.17l.09-.31c.22-.78.45-1.55.68-2.33.28-.94.57-1.88.87-2.83l.39-1.2.31-.93c.19-.59.39-1.18.59-1.77.15-.44.31-.88.47-1.32l.33-.93.6-1.68c.2-.56.37-1,.57-1.5l.24-.63c.23-.61.46-1.22.7-1.83s.47-1.19.71-1.78l.07-.17c.27-.68.55-1.36.84-2s.55-1.31.84-2,.59-1.36.89-2,.6-1.32.9-2,.63-1.36.95-2,.64-1.34,1-2,.67-1.36,1-2,.67-1.34,1-2,.72-1.38,1.08-2.07.7-1.33,1.07-2,.76-1.37,1.14-2l.2-.36c.31-.56.63-1.12.95-1.68s.67-1.15,1-1.74l.5-.85.89-1.49,1.09-1.76.61-1,.85-1.35c.52-.81,1.06-1.63,1.6-2.44l.15-.23c.56-.84,1.13-1.69,1.71-2.54l.08-.11c.63-.92,1.25-1.83,1.9-2.75l.9-1.25.7-1c.45-.62.9-1.25,1.36-1.87l1-1.36.67-.89,1.41-1.84,1.19-1.5.52-.65c.51-.64,1-1.28,1.54-1.92l1.42-1.71.18-.22,1.79-2.13,1.68-1.93,1.88-2.12,1.75-1.92,2-2.12,1.8-1.9,2-2.17,1.85-1.87,2.2-2.16.24-.24,1.64-1.58,2.23-2.09.6-.56,1.41-1.3c.81-.74,1.64-1.47,2.47-2.21l.59-.52,1.35-1.19c.92-.8,1.87-1.6,2.82-2.4l.69-.58,1.07-.9c1.61-1.33,3.2-2.63,4.74-3.85s3.12-2.45,4.68-3.64l1-.75.52-.39,3.14-2.35,1.35-1,.44-.32L190.9,143l1.85-1.29,2.79-1.92,1.84-1.24,2.86-1.88.42-.27,1.29-.84c1.06-.68,2.12-1.34,3.17-2l.47-.29.9-.56q2.26-1.38,4.5-2.7l.34-.19c1.42-.83,2.78-1.6,4.12-2.36l1-.55.47-.26c1-.55,2-1.09,3-1.61l1.33-.7.35-.18,2.74-1.41,1.73-.87,2.7-1.32,1.68-.8,2.78-1.28,1.55-.7c1.05-.47,2.09-.92,3.13-1.36l.39-.17.77-.33c1.41-.6,2.83-1.18,4.24-1.73l.57-.22,3.63-1.39,1-.36.39-.14,2.79-1,1.37-.47.17-.06,2.6-.86,1.57-.5,2.57-.79h.13l1.39-.41,2.65-.75,1.37-.38c1-.28,2.06-.54,3.09-.8l.89-.23c1.3-.32,2.62-.63,3.93-.92l.61-.13,3.25-.69,1.22-.23,2.61-.49,1.36-.23,2.43-.4,1.4-.21,2.38-.33L290,102l2.5-.3,1.14-.13,3-.29.55-.05c1.18-.1,2.38-.19,3.56-.26h.61l2.85-.15h1l2.37-.07h7.84l2.33.08h.85l3,.17h.18l3.16.24h.35l2.65.26.83.09,2.12.25.89.12,2,.28.89.13,2,.32.75.13,2.21.4.52.1c1.78.34,3.57.72,5.31,1.12h.21L348,105l.51.13,1.92.5.53.15,1.87.53.55.16,1.82.55.44.14,2,.63h0l.16.05c2.12.71,4.22,1.47,6.23,2.27l.17.07,1.71.7H366l.29.12,18.84,9.64,9.67,23.13v.11l.21.71c.15.51.29,1,.44,1.56l.17.61q.28,1,.55,2.13V149c.19.75.38,1.56.57,2.37l.07.32c.16.71.31,1.4.46,2.09l.15.75c.12.58.24,1.16.35,1.76l.16.86c.11.58.21,1.14.31,1.71l.16,1c.09.56.19,1.14.28,1.73l.15,1c.09.59.17,1.2.26,1.81l.13.93c.08.62.15,1.24.23,1.85l.11,1a11.9,11.9,0,0,0,.14,1.31l.16,1.6a3.74,3.74,0,0,0,.07.86l.24,3.13c0,.41.06.83.08,1.24l.08,1.53a9.58,9.58,0,0,0,.07,1.4l.14,6.54V189c0,.83,0,1.65-.06,2.48V192c0,.86-.07,1.74-.11,2.63V195c0,1-.11,1.95-.18,2.9v.21c-.08,1-.15,2-.24,3v.45c-.09,1-.18,1.9-.28,2.83l-.1.84c-.14,1.19-.28,2.31-.43,3.44V209c-.16,1.14-.33,2.32-.52,3.51v.15a174.91,174.91,0,0,1-4.24,19.42l-.07.24c-.34,1.21-.7,2.46-1.09,3.72l-.1.33c-.39,1.27-.76,2.45-1.15,3.63l-.18.55c-.38,1.15-.79,2.33-1.21,3.51l-.18.5c-.44,1.23-.91,2.48-1.39,3.73l-.1.26c-2.15,5.56-4.61,11.1-7.32,16.49l-.29.57q-.87,1.73-1.8,3.46L379,270q-.86,1.59-1.74,3.15l-.61,1.07q-.86,1.51-1.76,3L374,278.7l-.47.77-.19.3h0l-.19.31-.51.8-1.76,2.78-1.06,1.61-1.5,2.25c-.64.94-1.32,1.92-2,2.9l-.66.93c-.83,1.17-1.66,2.3-2.5,3.44l-.3.39c-.88,1.18-1.72,2.29-2.59,3.4l-.19.23-.62.78-.63.8c-.51.65-1,1.3-1.56,2l-.42.5-.87,1-.73.88L354,306.21l-.66.76L352,308.52l-.4.46-.84,1-.58.64-.39.43-1.42,1.57L348,313l-.66.72-.7.74-.76.8-1.31,1.38-.25.26-.52.55-.89.9-1.13,1.15-1.13,1.14-.53.53L339,322.25l-1.53,1.48-.87.84-.28.27c-1.27,1.21-2.59,2.44-3.93,3.67s-3,2.68-4.59,4.09l-1,.87-.49.42c-1,.88-2.06,1.77-3.1,2.63l-1.26,1-.53.43c-.94.77-1.89,1.54-2.83,2.29l-1.45,1.14-.44.34c-.92.72-1.83,1.42-2.74,2.11l-2,1.46-2.7,2-2,1.4-2.71,1.88-1.94,1.31c-.92.62-1.84,1.22-2.76,1.81l-.36.24-1.52,1c-1,.61-1.91,1.2-2.87,1.79l-.52.32-1.24.76c-1,.63-2.1,1.24-3.15,1.85l-.47.27-1,.59c-1.41.81-2.83,1.59-4.26,2.36l-.38.21c-1.53.82-3.08,1.63-4.63,2.42l-.81.4-.41.2c-1.13.57-2.26,1.13-3.39,1.67l-1.17.55-.49.23c-1,.46-2,.91-2.93,1.35l-1.36.6-.45.2-2.77,1.2-1.69.7-.17.07-2.71,1.09-1.87.73-2.69,1-1.87.68-2.69.94-.19.06-1.63.55-2.76.89-.47.15-1.25.39-2.94.87-.47.14-1,.3-3.62,1-.77.21q-2.22.57-4.41,1.08l-1,.23c-1.1.25-2.21.5-3.3.73l-1.09.22-.47.09-2.73.54-1.35.24-.37.07-2.53.44-1.66.27h-.11l-2.45.37-1.78.25-2.39.31-1.77.21-2.36.25H207l-1.62.16-2.39.2h-.35l-1.3.1-2.45.16h-.47l-1.06.06-2.74.12h-1.19l-3.82.09h-9.15l-2-.07-1.67-.08-1.93-.11-1.68-.11-1.85-.14-1.66-.14-1.79-.17-1.65-.16-1.7-.19h-.35l-1.3-.15-1.41-.18-.63-.08-1.25-.17-1.36-.2-.69-.1-1.13-.17-1.27-.21-.38-.06-3-.52-1.34-.25-1.33-.26-1.62-.33-1.35-.29-1.5-.33L143,383l-1.17-.28-1.56-.39-1.1-.28-1.55-.41-1-.27-1.53-.43-.83-.24-1.62-.48-.77-.24-1.58-.5-.46-.15c-1.7-.56-22.54-9.81-24.12-10.4Zm30.7-5.54c1.88.75,3.93,1.5,6.09,2.21l.38.13,1.32.42.64.2,1.29.39.75.22,1.3.37.83.23,1.32.35.92.24,1.34.33,1,.24,1.35.31,1.32.29,1.11.24,1.48.3,1.05.21,1.18.22,2.57.45.41.07,1,.17,1.64.24,1.13.17,1,.13.65.09,1.2.15,1.42.16,1.49.17,1.45.14,1.56.14,1.44.12,1.63.12,1.46.1,1.69.09,1.46.07,1.77.06h8c1.1,0,2.22,0,3.35-.08h1l2.39-.1,1.35-.08,2.14-.14,1.45-.12,2.09-.18,1.39-.14h.12l2.08-.22,1.54-.18,2.1-.27,1.57-.22,2.15-.32h.1l1.45-.23,2.22-.39.4-.07,1.1-.2,2.39-.47,1.37-.27,2.9-.64.89-.2q1.93-.45,3.86-.94l.7-.19c1-.27,2.1-.55,3.16-.85l1.31-.38,2.59-.76,1-.31.51-.16,2.43-.78,1.4-.47.19-.06,2.37-.82L248,352l2.36-.88,1.65-.64,2.39-1,.16-.07,1.48-.61,2.45-1.06.48-.21,1.11-.49c.87-.39,1.73-.79,2.6-1.2l.57-.26.9-.42c1-.48,2-1,3-1.48l1.08-.53c1.36-.69,2.74-1.41,4.11-2.15l.32-.18c1.25-.68,2.51-1.37,3.77-2.09l.73-.42.58-.34c.94-.54,1.87-1.09,2.81-1.65l1-.61.57-.35c.85-.52,1.7-1,2.55-1.59L286,333l.37-.24,2.46-1.62,1.73-1.18,2.42-1.68,1.76-1.25,2.42-1.77,1.75-1.31q1.23-.93,2.46-1.89l.45-.35,1.25-1,2.55-2.06.59-.48,1-.85c.93-.78,1.87-1.58,2.81-2.39l.6-.51.76-.65c1.47-1.29,2.83-2.5,4.16-3.71s2.4-2.22,3.57-3.33l.24-.24.65-.63,1.64-1.6.9-.88.47-.48.94-1,1.24-1.26.65-.66.68-.72,1.16-1.23,2.22-2.38,1.3-1.43.84-.93.63-.73.48-.56,1.2-1.38L335,290l.89-1.07.8-1,.71-.86.39-.46c.45-.55.89-1.1,1.33-1.66l1.34-1.68c.75-1,1.5-2,2.23-2.93l.35-.45c.76-1,1.46-2,2.15-3l.61-.85q.91-1.29,1.79-2.58l1.33-2,.89-1.35,1.63-2.57.37-.59,1.53-2.52q.79-1.32,1.54-2.63l.53-.94q.78-1.38,1.51-2.74l.43-.79q.8-1.51,1.56-3l.25-.48c2.35-4.68,4.48-9.48,6.33-14.27l.09-.24q.62-1.61,1.2-3.22l.15-.43c.36-1,.71-2,1-3l.15-.44c.34-1,.66-2,1-3.06l.1-.34c.33-1.1.65-2.17,1-3.24v-.13a149.87,149.87,0,0,0,3.64-16.68v-.16c.15-1,.3-2,.44-3v-.27c.13-1,.25-1.92.36-2.87l.11-.94q.12-1.11.22-2.21V199c.08-.91.15-1.76.21-2.6v-.19c.06-.84.11-1.63.15-2.43v-.23c0-.85.08-1.6.1-2.35v-.46c0-.68,0-1.38,0-2.08v-3.16l-.11-5.08a7.84,7.84,0,0,0-.06-1.2l-.54-7.1a9.46,9.46,0,0,0-.11-1.07l-.1-.83c-.06-.5-.12-1-.19-1.53l-.1-.77c-.07-.52-.14-1-.21-1.52l-.12-.8c-.08-.5-.15-1-.23-1.44l-.13-.8c-.08-.47-.17-.95-.25-1.42l-.13-.72c-.09-.49-.19-1-.29-1.44l-.13-.64c-.11-.54-.24-1.1-.36-1.65l0-.23c-.16-.72-.32-1.36-.47-2v-.15q-.21-.85-.44-1.68l-.13-.48c-.12-.42-.23-.84-.35-1.24l-.17-.56-.33-1.08-.18-.57-.32-1-.17-.52-.34-1-.17-.48-.35-.93-.16-.41-.41-1-.09-.21c-.14-.34-.3-.7-.45-1l-.1-.22-.17-.37-.16-.33a21.7,21.7,0,0,0-1.57-2.88,31.1,31.1,0,0,0-3.73-2.28l-.63-.34c-1.17-.61-2.44-1.22-3.81-1.82l-.17-.07-1.19-.51.12-.3-.09-.05-.13.31-1.38-.56-.15-.06c-1.55-.61-3.18-1.21-4.83-1.76h-.12l-1.68-.54-.33-.1-1.48-.45-.42-.12-1.48-.42-.49-.13-1.56-.41-.4-.1-1.9-.46h-.19c-1.41-.33-2.89-.64-4.37-.92l-.42-.08-1.81-.33-.63-.1-1.68-.27-.75-.11-1.67-.23-.76-.1-1.78-.21-.7-.08L323,126.3h-.27l-2.7-.21h0l-2.66-.15h-.73l-2-.07H308.2l-2,.06h-.9l-2.46.13h-.5c-1,.06-2,.14-3,.22h-.43l-2.62.25-1,.11-2.14.25L292,127l-2,.29-1.19.18-2.09.34-1.18.2-2.24.42-1.07.21-2.8.59-.51.11c-1.15.26-2.29.52-3.45.81l-.75.19L272,131l-1.19.33-2.31.65-1.19.35h-.14l-2.25.69-1.38.44-2.27.76-1.36.46-2.46.88-1.2.43-3.2,1.22-.55.21c-1.22.48-2.47,1-3.74,1.53l-1,.45c-.91.39-1.84.79-2.76,1.2l-1.39.63-2.46,1.14-1.51.72-2.41,1.17-1.54.77-2.47,1.27-.37.19-1.14.6L229,148.61l-1.32.73q-1.82,1-3.67,2.1l-.32.18c-1.4.82-2.75,1.63-4.12,2.47l-1.24.77c-1,.59-1.91,1.19-2.87,1.81l-1.12.73-.44.28-2.61,1.71-1.67,1.13-2.56,1.76-1.69,1.18-2.63,1.89-.46.33-1.19.86c-1,.7-1.92,1.43-2.89,2.16l-1.4,1.05q-2.15,1.64-4.32,3.36t-4.32,3.51l-.81.69-.8.68c-.86.72-1.71,1.44-2.55,2.17l-1.12,1-.65.58c-.75.66-1.49,1.32-2.22,2l-1.21,1.12-.61.57c-.67.63-1.35,1.25-2,1.88l-1.46,1.4-.25.24-2,1.94-1.66,1.68L169,194.44l-1.62,1.7L165.6,198l-1.6,1.76-1.67,1.89-1.5,1.73-1.59,1.88-.19.23-1.2,1.51-1.36,1.69-.52.66-1,1.27-1.21,1.58-.71.94-.83,1.1L151,215.81l-.76,1.05-.69,1c-.57.81-1.12,1.61-1.67,2.41l-.08.11-1.5,2.23-.16.24L144.75,225l-.65,1-.67,1.08c-.3.49-.61,1-.91,1.46l-.73,1.22-.53.89-.86,1.46-.8,1.42-.19.34c-.36.64-.69,1.23-1,1.82s-.63,1.16-.94,1.75l-.95,1.81c-.31.6-.6,1.17-.89,1.76l-.88,1.79-.84,1.75-.83,1.77-.79,1.73c-.27.6-.52,1.19-.78,1.78s-.49,1.14-.73,1.72l-.73,1.78-.07.18c-.21.51-.41,1-.61,1.52s-.41,1-.6,1.57l-.25.65-.46,1.23c-.17.47-.34.94-.5,1.41l-.35,1-.36,1c-.17.49-.33,1-.49,1.47l-.34,1-.29.88c-.26.82-.51,1.64-.75,2.45l-.59,2-.09.31c-.18.61-.35,1.22-.52,1.83-.09.32-.16.62-.24.92l-.26,1-.36,1.38c-.12.46-.17.71-.26,1.06l-.17.69-.36,1.51c-.12.51-.17.78-.26,1.17l-.12.55c-.11.5-.22,1-.32,1.51s-.18.91-.27,1.35v.18c-.11.55-.22,1.11-.32,1.66l-.27,1.51c-.09.51-.19,1.1-.28,1.64s-.16,1-.23,1.48-.17,1.09-.24,1.63-.14,1-.2,1.45-.14,1.08-.21,1.62-.12,1-.17,1.42-.12,1.07-.17,1.6v.13c0,.41-.09.82-.13,1.23s-.1,1.08-.14,1.62l-.11,1.3c0,.52-.07,1-.11,1.57l-.08,1.3c0,.55-.06,1.09-.08,1.64l-.06,1.18c0,.91-.06,1.82-.08,2.72v9a10.93,10.93,0,0,0,.06,1.41l.06,1.09c0,.44.05.88.08,1.32l.08,1.1c0,.41.07.83.1,1.25l.1,1.06c0,.39.08.8.12,1.2l.11,1a9.11,9.11,0,0,0,.14,1.17l1.07,6.93.58,2.81c.11.51.23,1,.34,1.49l1.33,4.85.22.66.16.46.22.62.15.4.2.52.13.32.16.39.09.21c.11.26.22.48.3.66l.84.5H125l.6.33.1.06.78.4.2.1.83.4.19.09,1,.46.28.13,1,.44.17.07,1.17.48Z" fill="#fff"/><path d="M374.75,128.68c-8.65-8.38-87.83-48.09-190,33.06s-79.45,183-70.13,194.7C122,365.78,226.8,406.54,324,317.7,415.88,233.71,385.1,138.7,374.75,128.68Z" fill="#ff3700"/><path d="M122.68,293.31A265.59,265.59,0,0,1,148,233.26a231.62,231.62,0,0,1,49.75-60,214.14,214.14,0,0,1,64.85-38.41,210.12,210.12,0,0,1,58.54-12.54,206.12,206.12,0,0,1,46.94,2c-22.54-12.12-94.2-33.37-183.4,37.47-94.86,75.34-82.07,168.51-72.29,190.84A272.46,272.46,0,0,1,122.68,293.31Z" fill="#ff8242"/><path d="M321.29,126.31c-31,2.17-77.21,12.6-120.91,50s-64.33,84.91-73.85,118.13a262.34,262.34,0,0,0-10.23,61.35,488.53,488.53,0,0,0,74.4-12.23c39.58-9.76,93.52-29.06,125.77-65.57a235.69,235.69,0,0,0,52.61-101.25c5.88-24.84,5.8-43.06,5.69-47.09A196.31,196.31,0,0,0,321.29,126.31Z" fill="#ff8242"/><path d="M378.79,135.1a209.18,209.18,0,0,1-5.8,42.55,239.7,239.7,0,0,1-53.51,103c-14.58,16.5-34.59,31-59.51,43-19.86,9.56-42.87,17.59-68.38,23.88a495.85,495.85,0,0,1-72.75,12.13C140.67,372,235.47,398.61,324,317.7,405.6,243.1,390.45,159.82,378.79,135.1Z" fill="#ff8242"/><path d="M193.32,296.77a4.24,4.24,0,0,1-3-1.19l-16.53-15.9a4.26,4.26,0,0,1,5.91-6.14l16.52,15.9a4.26,4.26,0,0,1-3,7.33Z" fill="#ff3700"/><path d="M209.29,279.3a4.23,4.23,0,0,1-2.89-1.13l-17-15.74a4.26,4.26,0,0,1,5.53-6.48l.26.24,17,15.75a4.26,4.26,0,0,1-2.9,7.38Z" fill="#ff3700"/><path d="M226.79,262.17a4.24,4.24,0,0,1-2.84-1.09L206.57,245.5a4.26,4.26,0,0,1,5.41-6.58l.27.24,17.38,15.58a4.26,4.26,0,0,1-2.84,7.43Z" fill="#ff3700"/><path d="M244.29,247.21a4.24,4.24,0,0,1-2.79-1l-17.8-15.46a4.26,4.26,0,0,1,5.57-6.44l17.81,15.42a4.26,4.26,0,0,1-2.79,7.48Z" fill="#ff3700"/><path d="M263.4,231.42a4.24,4.24,0,0,1-2.73-1l-18.24-15.26a4.26,4.26,0,1,1,5.34-6.64l.13.11,18.24,15.26a4.26,4.26,0,0,1-2.74,7.52Z" fill="#ff3700"/><path d="M281.7,216.51a4.22,4.22,0,0,1-2.67-.95l-18.67-15.09a4.26,4.26,0,0,1,5.35-6.62L284.38,209a4.26,4.26,0,0,1-2.68,7.57Z" fill="#ff3700"/><path d="M299.92,201.61a4.25,4.25,0,0,1-2.62-.9l-19.1-14.93a4.26,4.26,0,0,1,5.25-6.71L302.55,194a4.26,4.26,0,0,1-2.63,7.61Z" fill="#ff3700"/><path d="M320.82,187.49a4.2,4.2,0,0,1-2.56-.86l-19.54-14.77a4.26,4.26,0,0,1,5.14-6.79l19.53,14.78a4.26,4.26,0,0,1-2.58,7.65Z" fill="#ff3700"/><path d="M189.56,295.83a4.24,4.24,0,0,1-2.95-1.19l-16.53-15.91A4.26,4.26,0,0,1,176,272.6h0l16.52,15.91a4.26,4.26,0,0,1-3,7.32Z" fill="#fff"/><path d="M205.54,278.36a4.24,4.24,0,0,1-2.9-1.14l-17-15.74a4.26,4.26,0,0,1,5.79-6.24l17,15.74a4.26,4.26,0,0,1-2.9,7.38Z" fill="#fff"/><path d="M223,261.23a4.24,4.24,0,0,1-2.84-1.09l-17.38-15.58a4.26,4.26,0,0,1,5.59-6.43l.1.09,17.38,15.58a4.26,4.26,0,0,1-2.84,7.43Z" fill="#fff"/><path d="M240.54,246.28a4.24,4.24,0,0,1-2.79-1l-17.81-15.42a4.26,4.26,0,1,1,5.34-6.64l.23.2,17.81,15.42a4.26,4.26,0,0,1-2.79,7.48Z" fill="#fff"/><path d="M259.65,230.48a4.23,4.23,0,0,1-2.73-1l-18.24-15.25a4.26,4.26,0,0,1,5.18-6.77l.28.24L262.38,223a4.26,4.26,0,0,1-2.73,7.52Z" fill="#fff"/><path d="M277.94,215.58a4.26,4.26,0,0,1-2.68-.95l-18.67-15.09a4.26,4.26,0,0,1,5.36-6.62L280.62,208a4.26,4.26,0,0,1-2.68,7.57Z" fill="#fff"/><path d="M296.16,200.67a4.25,4.25,0,0,1-2.62-.9l-19.1-14.93a4.26,4.26,0,0,1,5.2-6.75l0,0,19.1,14.93a4.26,4.26,0,0,1-2.63,7.61Z" fill="#fff"/><path d="M317.07,186.55a4.22,4.22,0,0,1-2.56-.86L295,170.92a4.26,4.26,0,0,1,5.14-6.8l19.53,14.78a4.26,4.26,0,0,1-2.57,7.65Z" fill="#fff"/><ellipse cx="305.62" cy="182.05" rx="58.62" ry="41.2" transform="translate(-48.98 153.64) rotate(-26.2)" fill="#fff" opacity="0.3" style="isolation:isolate"/></g></svg>