<svg id="Layer_1" data-name="Layer 1" xmlns="http://www.w3.org/2000/svg" viewBox="0 0 480 480"><title>Iitems</title><path d="M389.75,358.14a6.8,6.8,0,0,1-6.8,6.8H97a6.79,6.79,0,0,1-6.79-6.8V132.86a6.8,6.8,0,0,1,6.79-6.8H383a6.8,6.8,0,0,1,6.8,6.8Z" fill="#fff" stroke="#fff" stroke-miterlimit="10" stroke-width="19.95"/><path d="M97,153.11H383a6.79,6.79,0,0,1,6.79,6.79V358.14a6.8,6.8,0,0,1-6.8,6.8H97a6.8,6.8,0,0,1-6.8-6.8V159.91a6.8,6.8,0,0,1,6.8-6.8Z" fill="#fff" stroke="#fff" stroke-miterlimit="10" stroke-width="19.95"/><path d="M91.75,144.13c0-3.75,1.54-6.8,5.29-6.8H383c3.75,0,5.29,3,5.29,6.8" fill="#fff" stroke="#fff" stroke-miterlimit="10" stroke-width="19.95"/><rect x="192.64" y="131.16" width="14.26" height="13.52" fill="#fff" stroke="#fff" stroke-miterlimit="10" stroke-width="19.95"/><rect x="192.64" y="128.15" width="14.26" height="13.52" fill="#fff" stroke="#fff" stroke-miterlimit="10" stroke-width="19.95"/><rect x="272.21" y="131.16" width="14.27" height="13.52" fill="#fff" stroke="#fff" stroke-miterlimit="10" stroke-width="19.95"/><rect x="272.21" y="128.15" width="14.27" height="13.52" fill="#fff" stroke="#fff" stroke-miterlimit="10" stroke-width="19.95"/><path d="M214.42,112.45a8.82,8.82,0,0,0-1.62.29,1.8,1.8,0,0,0-1.09-.29c-.19,0-4.7.28-9.07,4.84-4.82,5-5.12,18.6-5.14,20.13a1.85,1.85,0,0,0,1.83,1.88h2.73a1.85,1.85,0,0,0,1.85-1.83c0-3.76.88-14.25,4.11-17.61s6.47-3.7,6.59-3.71a1.85,1.85,0,1,0-.19-3.7Z" fill="#fff" stroke="#fff" stroke-miterlimit="10" stroke-width="19.95"/><path d="M265.58,112.45a8.82,8.82,0,0,1,1.62.29,1.79,1.79,0,0,1,1.09-.29c.19,0,4.69.28,9.07,4.84,4.81,5,5.12,18.6,5.14,20.13a1.85,1.85,0,0,1-1.83,1.88h-2.73a1.85,1.85,0,0,1-1.85-1.83c-.05-3.76-.88-14.25-4.11-17.61s-6.47-3.7-6.58-3.71a1.85,1.85,0,1,1,.19-3.7Z" fill="#fff" stroke="#fff" stroke-miterlimit="10" stroke-width="19.95"/><path d="M273.93,109.23c-.52-.44-12.84-10.51-34.39-9.86-21.54-.65-33.86,9.42-34.39,9.86a7.72,7.72,0,0,0,9.74,12s8.85-5.54,23.91-6.35l.74,0,.74,0c15.06.81,23.91,6.35,23.91,6.35a7.72,7.72,0,0,0,9.73-12Z" fill="#fff" stroke="#fff" stroke-miterlimit="10" stroke-width="19.95"/><path d="M205.16,114.8c.52-.44,12.84-9.76,34.39-9.11,21.54-.65,33.86,8.67,34.39,9.11a7.72,7.72,0,0,1,2.25,3.14,7.73,7.73,0,0,0-2.25-8.7c-.52-.44-12.84-10.51-34.39-9.86-21.54-.65-33.86,9.42-34.39,9.86a7.72,7.72,0,0,0-2.25,8.7A7.69,7.69,0,0,1,205.16,114.8Z" fill="#fff" stroke="#fff" stroke-miterlimit="10" stroke-width="19.95"/><polygon points="167.99 126.06 167.99 194.86 167.99 296.14 167.99 364.94 183.88 364.94 183.88 296.14 183.88 194.86 183.88 126.06 167.99 126.06" fill="#fff" stroke="#fff" stroke-miterlimit="10" stroke-width="19.95" opacity="0.3"/><polygon points="178.82 336.59 167.36 343.93 155.9 336.59 155.9 125.23 178.82 125.23 178.82 336.59" fill="#fff" stroke="#fff" stroke-miterlimit="10" stroke-width="19.95"/><rect x="155.9" y="153.58" width="22.91" height="212.86" fill="#fff" stroke="#fff" stroke-miterlimit="10" stroke-width="19.95"/><path d="M178.82,260.7a11.92,11.92,0,0,1-6,1.61h-11a12.08,12.08,0,0,1-12-12V239.36a12,12,0,0,1,6-10.43V236a6.84,6.84,0,0,0-.89,3.38v10.92a6.89,6.89,0,0,0,6.87,6.88h11a6.89,6.89,0,0,0,6.87-6.88V239.36a6.87,6.87,0,0,0-.89-3.38v-7.05a12,12,0,0,1,6,10.43v10.92A12,12,0,0,1,178.82,260.7Z" fill="#fff" stroke="#fff" stroke-miterlimit="10" stroke-width="19.95" opacity="0.3"/><path d="M178.82,255.7a11.92,11.92,0,0,1-6,1.61h-11a11.91,11.91,0,0,1-6-1.61,12,12,0,0,1-6-10.42V234.35a12,12,0,0,1,6-10.43V231a6.84,6.84,0,0,0-.89,3.38v10.92a6.89,6.89,0,0,0,6.87,6.88h11a6.89,6.89,0,0,0,6.87-6.88V234.35a6.87,6.87,0,0,0-.89-3.38v-7.05a12,12,0,0,1,6,10.43v10.92A12,12,0,0,1,178.82,255.7Z" fill="#fff" stroke="#fff" stroke-miterlimit="10" stroke-width="19.95"/><circle cx="167.36" cy="246.52" r="4" fill="#fff" stroke="#fff" stroke-miterlimit="10" stroke-width="19.95"/><circle cx="167.36" cy="270.52" r="4" fill="#fff" stroke="#fff" stroke-miterlimit="10" stroke-width="19.95"/><circle cx="167.36" cy="222.52" r="4" fill="#fff" stroke="#fff" stroke-miterlimit="10" stroke-width="19.95"/><path d="M169.48,246.8c0-.88-1-1.59-2.13-1.59h0c-1.17,0-2.12.71-2.12,1.59V260c0,.88,1,1.59,2.12,1.59h0c1.18,0,2.13-.71,2.13-1.59Z" fill="#fff" stroke="#fff" stroke-miterlimit="10" stroke-width="19.95"/><rect x="152.04" y="212.83" width="30.63" height="10.73" fill="#fff" stroke="#fff" stroke-miterlimit="10" stroke-width="19.95"/><polygon points="313.27 126.06 313.27 194.86 313.27 296.14 313.27 364.94 329.16 364.94 329.16 296.14 329.16 194.86 329.16 126.06 313.27 126.06" fill="#fff" stroke="#fff" stroke-miterlimit="10" stroke-width="19.95" opacity="0.3"/><polygon points="324.1 336.59 312.64 343.93 301.19 336.59 301.19 125.23 324.1 125.23 324.1 336.59" fill="#fff" stroke="#fff" stroke-miterlimit="10" stroke-width="19.95"/><rect x="301.18" y="153.58" width="22.91" height="212.86" fill="#fff" stroke="#fff" stroke-miterlimit="10" stroke-width="19.95"/><path d="M324.1,260.7a11.92,11.92,0,0,1-6,1.61H307.17a12.08,12.08,0,0,1-12-12V239.36a12,12,0,0,1,6-10.43V236a6.82,6.82,0,0,0-.89,3.38v10.92a6.81,6.81,0,0,0,.89,3.38,6.88,6.88,0,0,0,6,3.5h10.95a6.89,6.89,0,0,0,6.87-6.88V239.36a6.82,6.82,0,0,0-.89-3.38v-7.05a12,12,0,0,1,6,10.43v10.92A12,12,0,0,1,324.1,260.7Z" fill="#fff" stroke="#fff" stroke-miterlimit="10" stroke-width="19.95" opacity="0.3"/><path d="M324.1,255.7a11.92,11.92,0,0,1-6,1.61H307.17a11.91,11.91,0,0,1-6-1.61,12,12,0,0,1-6-10.42V234.35a12,12,0,0,1,6-10.43V231a6.82,6.82,0,0,0-.89,3.38v10.92a6.89,6.89,0,0,0,6.87,6.88h10.95a6.89,6.89,0,0,0,6.87-6.88V234.35a6.82,6.82,0,0,0-.89-3.38v-7.05a12,12,0,0,1,6,10.43v10.92A12,12,0,0,1,324.1,255.7Z" fill="#fff" stroke="#fff" stroke-miterlimit="10" stroke-width="19.95"/><circle cx="312.64" cy="246.52" r="4.01" fill="#fff" stroke="#fff" stroke-miterlimit="10" stroke-width="19.95"/><circle cx="312.64" cy="270.52" r="4.01" fill="#fff" stroke="#fff" stroke-miterlimit="10" stroke-width="19.95"/><circle cx="312.64" cy="222.52" r="4.01" fill="#fff" stroke="#fff" stroke-miterlimit="10" stroke-width="19.95"/><path d="M314.76,246.8c0-.88-1-1.59-2.12-1.59h0c-1.17,0-2.12.71-2.12,1.59V260c0,.88,1,1.59,2.12,1.59h0c1.17,0,2.12-.71,2.12-1.59Z" fill="#fff" stroke="#fff" stroke-miterlimit="10" stroke-width="19.95"/><rect x="297.33" y="212.83" width="30.63" height="10.73" fill="#fff" stroke="#fff" stroke-miterlimit="10" stroke-width="19.95"/><polygon points="182.68 218.34 152.04 218.34 150.54 229.07 184.18 229.07 182.68 218.34" fill="#fff" stroke="#fff" stroke-miterlimit="10" stroke-width="19.95" opacity="0.3"/><polygon points="327.96 218.34 297.33 218.34 295.83 229.07 329.46 229.07 327.96 218.34" fill="#fff" stroke="#fff" stroke-miterlimit="10" stroke-width="19.95" opacity="0.3"/><rect x="152.04" y="215.33" width="30.63" height="10.73" fill="#fff" stroke="#fff" stroke-miterlimit="10" stroke-width="19.95"/><rect x="297.33" y="215.33" width="30.63" height="10.73" fill="#fff" stroke="#fff" stroke-miterlimit="10" stroke-width="19.95"/><path d="M91.4,332c-.89,0-1.77,0-2.65.12v27.58a6.79,6.79,0,0,0,6.8,6.8h27.06c.1-1,.15-2.06.15-3.11A31.37,31.37,0,0,0,91.4,332Z" fill="#fff" stroke="#fff" stroke-miterlimit="10" stroke-width="19.95"/><path d="M388.6,332c.89,0,1.77,0,2.64.12v27.58a6.8,6.8,0,0,1-6.8,6.8H357.39A31.37,31.37,0,0,1,388.6,332Z" fill="#fff" stroke="#fff" stroke-miterlimit="10" stroke-width="19.95"/><path d="M91.4,178.1c-.89,0-1.77,0-2.65-.12V152.66a6.8,6.8,0,0,1,6.8-6.8h27.06c.1,1,0,8,0,8.09C122.24,163.3,108.72,178.1,91.4,178.1Z" fill="#fff" stroke="#fff" stroke-miterlimit="10" stroke-width="19.95"/><path d="M91.4,187.23c-.89,0-1.77,0-2.65-.12V159.54a6.8,6.8,0,0,1,6.8-6.8h27.06c.1,1,.15,2.06.15,3.11A31.37,31.37,0,0,1,91.4,187.23Z" fill="#fff" stroke="#fff" stroke-miterlimit="10" stroke-width="19.95"/><path d="M97,130.69h27.06c0-2.55.08-4.58,0-5.37H97a6.79,6.79,0,0,0-6.79,6.8v5.38A6.8,6.8,0,0,1,97,130.69Z" fill="#fff" stroke="#fff" stroke-miterlimit="10" stroke-width="19.95"/><path d="M97,128.81h27.06c0-2.55.08-4.58,0-5.38H97a6.79,6.79,0,0,0-6.79,6.8v5.38A6.79,6.79,0,0,1,97,128.81Z" fill="#fff" stroke="#fff" stroke-miterlimit="10" stroke-width="19.95"/><path d="M383,129.94H355.89c0-2.56-.08-3.83,0-4.63H383a6.8,6.8,0,0,1,6.8,6.8v4.63A6.79,6.79,0,0,0,383,129.94Z" fill="#fff" stroke="#fff" stroke-miterlimit="10" stroke-width="19.95"/><path d="M383,128.06H355.89c0-2.56-.08-3.83,0-4.62H383a6.8,6.8,0,0,1,6.8,6.8v4.62A6.8,6.8,0,0,0,383,128.06Z" fill="#fff" stroke="#fff" stroke-miterlimit="10" stroke-width="19.95"/><path d="M388.6,181.11c.89,0,1.77,0,2.64-.12V153.41a6.8,6.8,0,0,0-6.8-6.8H357.39c-.1,1,0,10.27,0,10.34C357.76,166.31,371.28,181.11,388.6,181.11Z" fill="#fff" stroke="#fff" stroke-miterlimit="10" stroke-width="19.95"/><path d="M388.6,187.23c.89,0,1.77,0,2.64-.12V159.54a6.8,6.8,0,0,0-6.8-6.8H357.39q-.15,1.53-.16,3.11A31.38,31.38,0,0,0,388.6,187.23Z" fill="#fff" stroke="#fff" stroke-miterlimit="10" stroke-width="19.95"/><path d="M97,125.61H383a6.8,6.8,0,0,1,6.8,6.8V357.69a6.79,6.79,0,0,1-6.79,6.79H97.05a6.8,6.8,0,0,1-6.8-6.8V132.4a6.8,6.8,0,0,1,6.8-6.8Z" fill="#54368e"/><path d="M97,152.66H383a6.79,6.79,0,0,1,6.79,6.79V357.69a6.8,6.8,0,0,1-6.8,6.8H97.05a6.8,6.8,0,0,1-6.8-6.8V159.45a6.8,6.8,0,0,1,6.8-6.8Z" fill="#4e2f7f"/><path d="M91.75,143.67c0-3.75,1.54-6.8,5.29-6.8H383c3.75,0,5.29,3,5.29,6.8" fill="none" stroke="#232226" stroke-miterlimit="10" stroke-width="2.25"/><rect x="192.64" y="130.7" width="14.26" height="13.52" fill="#b2b1c8"/><rect x="192.64" y="127.7" width="14.26" height="13.52" fill="#d8e1ee"/><rect x="272.21" y="130.7" width="14.27" height="13.52" fill="#b2b1c8"/><rect x="272.21" y="127.7" width="14.27" height="13.52" fill="#d8e1ee"/><path d="M214.42,112a8.82,8.82,0,0,0-1.62.29,1.8,1.8,0,0,0-1.09-.29c-.19,0-4.7.28-9.07,4.84-4.82,5-5.12,18.6-5.14,20.13a1.85,1.85,0,0,0,1.83,1.88h2.73a1.85,1.85,0,0,0,1.85-1.83c0-3.76.88-14.25,4.11-17.61s6.47-3.7,6.59-3.71a1.85,1.85,0,1,0-.19-3.7Z" fill="#d8e1ee"/><path d="M265.58,112a8.82,8.82,0,0,1,1.62.29,1.79,1.79,0,0,1,1.09-.29c.19,0,4.69.28,9.07,4.84,4.81,5,5.12,18.6,5.14,20.13a1.85,1.85,0,0,1-1.83,1.88h-2.73a1.85,1.85,0,0,1-1.85-1.83c-.05-3.76-.88-14.25-4.11-17.61s-6.47-3.7-6.58-3.71a1.85,1.85,0,1,1,.19-3.7Z" fill="#b2b1c8"/><path d="M273.93,108.78c-.52-.44-12.84-10.51-34.39-9.86-21.54-.65-33.86,9.42-34.39,9.86a7.72,7.72,0,0,0,9.74,12s8.85-5.54,23.91-6.35l.74,0,.74,0c15.06.81,23.91,6.35,23.91,6.35a7.72,7.72,0,0,0,9.73-12Z" fill="#37343b"/><path d="M273.93,114.34a7.72,7.72,0,0,1,2.25,3.14,7.73,7.73,0,0,0-2.25-8.7c-.52-.44-12.84-10.51-34.39-9.86-21.54-.65-33.86,9.42-34.39,9.86a7.72,7.72,0,0,0-2.25,8.7,7.69,7.69,0,0,1,2.25-3.14" fill="#46444f"/><polygon points="167.99 125.61 167.99 194.41 167.99 295.69 167.99 364.49 183.88 364.49 183.88 295.69 183.88 194.41 183.88 125.61 167.99 125.61" fill="#281910" opacity="0.3"/><polygon points="178.82 336.13 167.36 343.48 155.9 336.13 155.9 124.77 178.82 124.77 178.82 336.13" fill="#bf7852"/><rect x="155.9" y="153.12" width="22.91" height="212.86" fill="#996745"/><path d="M178.82,260.25a11.92,11.92,0,0,1-6,1.61h-11a12.08,12.08,0,0,1-12-12V238.9a12,12,0,0,1,6-10.43v7.05a6.84,6.84,0,0,0-.89,3.38v10.92a6.89,6.89,0,0,0,6.87,6.88h11a6.89,6.89,0,0,0,6.87-6.88V238.9a6.87,6.87,0,0,0-.89-3.38v-7.05a12,12,0,0,1,6,10.43v10.92A12,12,0,0,1,178.82,260.25Z" fill="#281910" opacity="0.3"/><path d="M178.82,255.24a11.92,11.92,0,0,1-6,1.61h-11a11.91,11.91,0,0,1-6-1.61,12,12,0,0,1-6-10.42V233.89a12,12,0,0,1,6-10.43v7.05a6.84,6.84,0,0,0-.89,3.38v10.92a6.89,6.89,0,0,0,6.87,6.88h11a6.89,6.89,0,0,0,6.87-6.88V233.89a6.87,6.87,0,0,0-.89-3.38v-7.05a12,12,0,0,1,6,10.43v10.92A12,12,0,0,1,178.82,255.24Z" fill="#d8e1ee"/><circle cx="167.36" cy="246.07" r="4" fill="#37343b"/><circle cx="167.36" cy="270.06" r="4" fill="#37343b"/><circle cx="167.36" cy="222.07" r="4" fill="#37343b"/><path d="M169.48,246.34c0-.88-1-1.59-2.13-1.59h0c-1.17,0-2.12.71-2.12,1.59v13.23c0,.88,1,1.59,2.12,1.59h0c1.18,0,2.13-.71,2.13-1.59Z" fill="#fffdf0"/><rect x="152.04" y="212.37" width="30.63" height="10.73" fill="#bf7852"/><polygon points="313.27 125.61 313.27 194.41 313.27 295.69 313.27 364.49 329.16 364.49 329.16 295.69 329.16 194.41 329.16 125.61 313.27 125.61" fill="#281910" opacity="0.3"/><polygon points="324.1 336.13 312.64 343.48 301.19 336.13 301.19 124.77 324.1 124.77 324.1 336.13" fill="#bf7852"/><rect x="301.18" y="153.12" width="22.91" height="212.86" fill="#996745"/><path d="M324.1,260.25a11.92,11.92,0,0,1-6,1.61H307.17a12.08,12.08,0,0,1-12-12V238.9a12,12,0,0,1,6-10.43v7.05a6.82,6.82,0,0,0-.89,3.38v10.92a6.81,6.81,0,0,0,.89,3.38,6.88,6.88,0,0,0,6,3.5h10.95a6.89,6.89,0,0,0,6.87-6.88V238.9a6.82,6.82,0,0,0-.89-3.38v-7.05a12,12,0,0,1,6,10.43v10.92A12,12,0,0,1,324.1,260.25Z" fill="#281910" opacity="0.3"/><path d="M324.1,255.24a11.92,11.92,0,0,1-6,1.61H307.17a11.91,11.91,0,0,1-6-1.61,12,12,0,0,1-6-10.42V233.89a12,12,0,0,1,6-10.43v7.05a6.82,6.82,0,0,0-.89,3.38v10.92a6.89,6.89,0,0,0,6.87,6.88h10.95a6.89,6.89,0,0,0,6.87-6.88V233.89a6.82,6.82,0,0,0-.89-3.38v-7.05a12,12,0,0,1,6,10.43v10.92A12,12,0,0,1,324.1,255.24Z" fill="#d8e1ee"/><circle cx="312.64" cy="246.07" r="4.01" fill="#37343b"/><circle cx="312.64" cy="270.06" r="4.01" fill="#37343b"/><circle cx="312.64" cy="222.07" r="4.01" fill="#37343b"/><path d="M314.76,246.34c0-.88-1-1.59-2.12-1.59h0c-1.17,0-2.12.71-2.12,1.59v13.23c0,.88,1,1.59,2.12,1.59h0c1.17,0,2.12-.71,2.12-1.59Z" fill="#fffdf0"/><rect x="297.33" y="212.37" width="30.63" height="10.73" fill="#bf7852"/><polygon points="182.68 217.88 152.04 217.88 150.54 228.61 184.18 228.61 182.68 217.88" fill="#281910" opacity="0.3"/><polygon points="327.96 217.88 297.33 217.88 295.83 228.61 329.46 228.61 327.96 217.88" fill="#281910" opacity="0.3"/><rect x="152.04" y="214.88" width="30.63" height="10.73" fill="#996745"/><rect x="297.33" y="214.88" width="30.63" height="10.73" fill="#996745"/><path d="M91.4,331.5c-.89,0-1.77,0-2.65.12v27.58a6.79,6.79,0,0,0,6.8,6.8h27.06c.1-1,.15-2.06.15-3.11A31.37,31.37,0,0,0,91.4,331.5Z" fill="#b2b1c8"/><path d="M388.6,331.5c.89,0,1.77,0,2.64.12v27.58a6.8,6.8,0,0,1-6.8,6.8H357.39A31.37,31.37,0,0,1,388.6,331.5Z" fill="#b2b1c8"/><path d="M91.4,177.64c-.89,0-1.77,0-2.65-.12V152.2a6.8,6.8,0,0,1,6.8-6.8h27.06c.1,1,0,8,0,8.09C122.24,162.85,108.72,177.64,91.4,177.64Z" fill="#d8e1ee"/><path d="M91.4,186.78c-.89,0-1.77,0-2.65-.12V159.08a6.8,6.8,0,0,1,6.8-6.8h27.06c.1,1,.15,2.06.15,3.11A31.37,31.37,0,0,1,91.4,186.78Z" fill="#b2b1c8"/><path d="M97,130.23h27.06c0-2.55.08-4.58,0-5.37H97a6.79,6.79,0,0,0-6.79,6.8V137A6.8,6.8,0,0,1,97,130.23Z" fill="#b2b1c8"/><path d="M97,128.36h27.06c0-2.55.08-4.58,0-5.38H97a6.79,6.79,0,0,0-6.79,6.8v5.38A6.79,6.79,0,0,1,97,128.36Z" fill="#d8e1ee"/><path d="M383,129.48H355.89c0-2.56-.08-3.83,0-4.63H383a6.8,6.8,0,0,1,6.8,6.8v4.63A6.79,6.79,0,0,0,383,129.48Z" fill="#b2b1c8"/><path d="M383,127.6H355.89c0-2.56-.08-3.83,0-4.62H383a6.8,6.8,0,0,1,6.8,6.8v4.62A6.8,6.8,0,0,0,383,127.6Z" fill="#d8e1ee"/><path d="M388.6,180.65c.89,0,1.77,0,2.64-.12V153a6.8,6.8,0,0,0-6.8-6.8H357.39c-.1,1,0,10.27,0,10.34C357.76,165.85,371.28,180.65,388.6,180.65Z" fill="#d8e1ee"/><path d="M388.6,186.78c.89,0,1.77,0,2.64-.12V159.08a6.8,6.8,0,0,0-6.8-6.8H357.39q-.15,1.53-.16,3.11A31.38,31.38,0,0,0,388.6,186.78Z" fill="#b2b1c8"/></svg>