<svg id="Layer_1" data-name="Layer 1" xmlns="http://www.w3.org/2000/svg" viewBox="0 0 480 480"><title>Iitems</title><path d="M268.87,430.91a22.27,22.27,0,0,0,21.24-15.38,22.55,22.55,0,0,0,1.1-7.28L293,150.5s-42.33-73.27-53.69-84.69a13.48,13.48,0,0,0-1.13-1.09l-.08-.08h0a2.35,2.35,0,0,0-1.25-.64c-1.6,0-6.7,7-12.93,16.76l.12.11c-14.49,23-35.92,62.37-39.34,68.8l-.36.68L182.8,391.82l-.11,16.42c0,.12,0,.23,0,.35V410c0,13.48,13.09,20.87,22.34,20.87h6.38v-.3l54.26.14v.17Z" fill="#f1f2f2"/><path d="M268.87,443.41H253.18v-.19l-29.26-.07v.27H205a36.77,36.77,0,0,1-22.43-8.11A31.86,31.86,0,0,1,170.19,410v-1.3c0-.13,0-.31,0-.49l.11-16.51,1.5-244.42,1.33-2.62c.12-.24.28-.55.49-.94,3.06-5.75,20.44-37.68,34.57-61.09l-.24-.24L213.33,74c11-17.17,15.65-22.52,23.46-22.52a13.29,13.29,0,0,1,4.07.64h2.38l3.44,3.44c.51.46,1,1,1.59,1.55,12,12.28,48.34,74.69,55.52,87.12l1.7,2.94-1.78,261a34.82,34.82,0,0,1-34.84,35.19Zm-66-25.33,67.78.17a9.76,9.76,0,0,0,7.59-6.59,10.09,10.09,0,0,0,.49-3.26v-.25l1.73-254.34c-12.89-22.2-32.24-54.38-43.3-70.4l-2.59,4.11c-13.2,20.95-32.31,55.8-37.79,66L195.3,391.9l-.11,16.26v2c0,1.35.31,3.5,3,5.64A13,13,0,0,0,202.85,418.08Z" fill="#fff"/><path d="M399.26,430.91a22.27,22.27,0,0,0,21.22-15.33,22.53,22.53,0,0,0,1.12-7.33l1.76-257.75S381,77.23,369.67,65.81a13.4,13.4,0,0,0-1.13-1.09l-.08-.08h0a2.36,2.36,0,0,0-1.25-.64c-1.6,0-6.7,7-12.93,16.76l.12.11c-14.49,23-35.93,62.39-39.34,68.8l-.36.67-1.48,241.49-.11,16.41c0,.12,0,.23,0,.35V410c0,13.48,13.09,20.87,22.34,20.87h6.38v-.3l54.26.14v.17Z" fill="#f1f2f2"/><path d="M399.26,443.41H383.57v-.19l-29.26-.07v.27H335.42A36.77,36.77,0,0,1,313,435.3,31.86,31.86,0,0,1,300.58,410v-1.3c0-.17,0-.33,0-.49l.11-16.5,1.5-244.41,1.31-2.61c.12-.24.3-.58.52-1,3-5.6,20.43-37.67,34.59-61.12l-.23-.24L343.72,74c11-17.17,15.65-22.52,23.46-22.52a13.29,13.29,0,0,1,4.07.64h2.38l3.44,3.44c.51.46,1,1,1.6,1.56,12,12.29,48.34,74.69,55.51,87.11l1.7,2.94-1.78,261a34.82,34.82,0,0,1-34.84,35.19Zm-66-25.33,67.78.17a9.76,9.76,0,0,0,7.59-6.57,10.06,10.06,0,0,0,.5-3.28v-.25l1.73-254.34c-12.89-22.2-32.24-54.38-43.3-70.4l-2.59,4.11c-13.18,20.93-32.3,55.79-37.79,66l-1.46,238.4-.11,16.26v1.95c0,1.35.31,3.5,3,5.64A13,13,0,0,0,333.24,418.08Z" fill="#fff"/><path d="M138.42,430.91a22.27,22.27,0,0,0,21.24-15.38,22.55,22.55,0,0,0,1.1-7.28l1.76-257.75s-42.33-73.27-53.69-84.69a13.4,13.4,0,0,0-1.13-1.09l-.08-.08h0a2.36,2.36,0,0,0-1.25-.64c-1.6,0-6.7,7-12.93,16.76l.12.11c-14.49,23-35.92,62.37-39.34,68.8l-.36.68L52.35,391.82l-.11,16.42c0,.12,0,.23,0,.35V410c0,13.48,13.09,20.87,22.34,20.87H81v-.3l54.26.14v.17Z" fill="#f1f2f2"/><path d="M138.42,443.41H122.73v-.19l-29.26-.07v.27H74.58a36.77,36.77,0,0,1-22.43-8.11A31.86,31.86,0,0,1,39.74,410v-1.3c0-.17,0-.33,0-.49l.11-16.51,1.5-244.4,1.31-2.61c.13-.25.3-.59.53-1,3-5.59,20.42-37.66,34.58-61.11l-.23-.24L82.88,74c11-17.17,15.65-22.52,23.46-22.52a13.29,13.29,0,0,1,4.07.64h2.38l3.44,3.44c.51.46,1,1,1.6,1.56,12,12.29,48.34,74.69,55.51,87.11l1.7,2.94-1.78,261a34.81,34.81,0,0,1-34.84,35.19Zm-66-25.33,67.78.17a9.76,9.76,0,0,0,7.59-6.59,10.08,10.08,0,0,0,.49-3.26v-.25L150,153.82c-12.89-22.2-32.24-54.38-43.3-70.4l-2.59,4.11c-13.18,20.92-32.3,55.79-37.79,66L64.85,391.9l-.11,16.26v1.95c0,1.35.31,3.5,3,5.64A13,13,0,0,0,72.4,418.08Z" fill="#fff"/><path d="M52.24,408.24,54,150.5s46.6-86.18,52.67-86.18,55.86,86.18,55.86,86.18l-1.76,257.75a22.08,22.08,0,0,1-22.5,22.5l-63.68-.16a22.2,22.2,0,0,1-22.34-22.34Zm0,0" fill="#f8d977"/><path d="M135.23,145.87v285h3.19a22.28,22.28,0,0,0,22.34-22.66L162.2,150.5s-1-1.59-2.55-4.47Zm0,0" fill="#fff59d"/><path d="M52.24,410c0,13.48,13.09,20.87,22.34,20.87H81v-285L56.23,146q-1.91,3.35-2.39,4.31Zm0,0" fill="#f5ca2f"/><path d="M107.3,64.64h-1.91c-8.62,6.38-49.15,81.07-51.55,85.7v.32S74.74,164.22,81,164.07c6.38,0,20.75-13.41,27-13.57,6.38,0,20.59,13.57,27.13,13.41,6.38,0,26-12.93,27-13.57.16.16-45.48-79-54.74-85.7Zm0,0" fill="#ffcaba"/><path d="M108.26,65.27c.8,3,5.11,18.51,27,98.47,6.38,0,26-12.93,27-13.56,0,.32-43.25-74.53-53.94-84.91Zm0,0" fill="#ffdcd2"/><path d="M108.1,65.11l-.48-.48H105.7c-8.62,6.39-49.16,81.07-51.55,85.7v.32s20.59,13.56,27,13.56c22.5-83.15,26.33-96.88,27-99.11Zm0,0" fill="#e5b5a7"/><path d="M108.1,87.14a21.15,21.15,0,0,0,12.77-4.79C113.68,71.66,108.25,64,106.34,64c-1.6,0-6.7,7-12.93,16.76a22.2,22.2,0,0,0,14.68,6.39Zm0,0" fill="#f8d977"/><path d="M182.69,408.24l1.76-257.74S231,64.32,237.11,64.32,293,150.5,293,150.5l-1.76,257.75a22.08,22.08,0,0,1-22.5,22.5L205,430.59a22.2,22.2,0,0,1-22.34-22.34Zm0,0" fill="#c1e1ec"/><path d="M265.68,145.87v285h3.19a22.28,22.28,0,0,0,22.34-22.66l1.44-257.75s-1-1.59-2.55-4.47Zm0,0" fill="#d2eff7"/><path d="M182.69,410c0,13.48,13.09,20.87,22.34,20.87h6.38v-285l-24.74.16q-1.91,3.35-2.39,4.31Zm0,0" fill="#a4cbf5"/><path d="M237.75,64.64h-1.91c-8.62,6.38-49.15,81.07-51.55,85.7v.32s20.91,13.57,27.13,13.41c6.38,0,20.75-13.41,27-13.57,6.38,0,20.59,13.57,27.13,13.41,6.38,0,26-12.93,27-13.57.16.16-45.48-79-54.74-85.7Zm0,0" fill="#ffcaba"/><path d="M238.71,65.27c.8,3,5.11,18.51,27,98.47,6.38,0,26-12.93,27-13.56,0,.32-43.25-74.53-53.94-84.91Zm0,0" fill="#ffdcd2"/><path d="M238.55,65.11l-.48-.48h-1.92C227.54,71,187,145.71,184.6,150.34v.32s20.59,13.56,27,13.56c22.5-83.15,26.33-96.88,27-99.11Zm0,0" fill="#e5b5a7"/><path d="M238.55,87.14a21.15,21.15,0,0,0,12.77-4.79C244.13,71.66,238.7,64,236.79,64c-1.6,0-6.7,7-12.93,16.76a22.2,22.2,0,0,0,14.68,6.39Zm0,0" fill="#c1e1ec"/><path d="M313.08,408.24l1.76-257.74s46.6-86.18,52.67-86.18,55.86,86.18,55.86,86.18L421.6,408.24a22.08,22.08,0,0,1-22.5,22.5l-63.68-.16a22.2,22.2,0,0,1-22.34-22.34Zm0,0" fill="#c6d100"/><path d="M396.07,145.87v285h3.19a22.28,22.28,0,0,0,22.34-22.66L423,150.5s-1-1.59-2.55-4.47Zm0,0" fill="#d8d807"/><path d="M313.08,410c0,13.48,13.09,20.87,22.34,20.87h6.38v-285l-24.74.16q-1.91,3.35-2.39,4.31Zm0,0" fill="#adc800"/><path d="M368.14,64.64h-1.91c-8.62,6.38-49.15,81.07-51.55,85.7v.32s20.91,13.57,27.13,13.41c6.38,0,20.75-13.41,27-13.57,6.38,0,20.59,13.57,27.13,13.41,6.38,0,26-12.93,27-13.57.16.16-45.48-79-54.74-85.7Zm0,0" fill="#ffcaba"/><path d="M369.1,65.27c.8,3,5.11,18.51,27,98.47,6.38,0,26-12.93,27-13.56,0,.32-43.25-74.53-53.94-84.91Zm0,0" fill="#ffdcd2"/><path d="M368.94,65.11l-.48-.48h-1.92c-8.62,6.39-49.16,81.07-51.55,85.7v.32s20.59,13.56,27,13.56c22.5-83.15,26.33-96.88,27-99.11Zm0,0" fill="#e5b5a7"/><path d="M368.94,87.14a21.15,21.15,0,0,0,12.77-4.79C374.52,71.66,369.09,64,367.18,64c-1.6,0-6.7,7-12.93,16.76a22.2,22.2,0,0,0,14.68,6.39Zm0,0" fill="#c6d100"/></svg>