<svg xmlns="http://www.w3.org/2000/svg" viewBox="0 0 480 480"><title>Iitems</title><g style="isolation:isolate"><g id="Layer_1" data-name="Layer 1"><path d="M232.15,87.25a7.11,7.11,0,1,1,7.08,7.1A7.13,7.13,0,0,1,232.15,87.25Z" fill="#fddd82"/><path d="M124.07,137.93a7.11,7.11,0,1,1,10,0A7.13,7.13,0,0,1,124.07,137.93Z" fill="#fddd82"/><path d="M83.49,250.19a7.11,7.11,0,1,1,7.1-7.08A7.13,7.13,0,0,1,83.49,250.19Z" fill="#fddd82"/><path d="M134.17,358.27a7.11,7.11,0,1,1,0-10A7.14,7.14,0,0,1,134.17,358.27Z" fill="#fddd82"/><path d="M246.42,398.85a7.11,7.11,0,1,1-7.08-7.1A7.13,7.13,0,0,1,246.42,398.85Z" fill="#fddd82"/><path d="M354.5,348.17a7.11,7.11,0,1,1-10,0A7.13,7.13,0,0,1,354.5,348.17Z" fill="#fddd82"/><path d="M395.08,235.91A7.11,7.11,0,1,1,388,243,7.13,7.13,0,0,1,395.08,235.91Z" fill="#fddd82"/><path d="M344.4,127.84a7.13,7.13,0,0,1,10.07,0,7.1,7.1,0,1,1-10.07,0Z" fill="#fddd82"/><path d="M239.69,84.27l-.06,0h0l-7.47,3.1a7.11,7.11,0,0,0,14.21-.13c0-.06,0-.11,0-.17l-6.67-2.76Z" fill="#c1b499" style="mix-blend-mode:multiply"/><path d="M354.91,137.39,352.27,131l0,0-7.79-3.23-.11.1a7.11,7.11,0,0,0,10.05,10.05A6.45,6.45,0,0,0,354.91,137.39Z" fill="#c1b499" style="mix-blend-mode:multiply"/><path d="M388,243a7.08,7.08,0,0,0,8.22,7l2.66-6.42h.05l-3.18-7.67c-.21,0-.43,0-.65,0A7.07,7.07,0,0,0,388,243Z" fill="#c1b499" style="mix-blend-mode:multiply"/><path d="M354.5,348.17a7.11,7.11,0,0,0-10.05,10.05,7.26,7.26,0,0,0,.95.79l6.79-2.81,0,0,3-7.22A6.6,6.6,0,0,0,354.5,348.17Z" fill="#c1b499" style="mix-blend-mode:multiply"/><path d="M239.34,391.75a7.14,7.14,0,0,0-7.14,7.1,6.89,6.89,0,0,0,.07.93l7.29,3v.05l6.75-2.79a6.76,6.76,0,0,0,.11-1.21A7.07,7.07,0,0,0,239.34,391.75Z" fill="#c1b499" style="mix-blend-mode:multiply"/><path d="M133.48,358.86a7,7,0,0,0,.7-10.62,7.13,7.13,0,0,0-10.06,0c-.1.1-.19.21-.28.31l3.15,7.59,0,0Z" fill="#c1b499" style="mix-blend-mode:multiply"/><path d="M90.59,243.11A7.13,7.13,0,0,0,83.5,236l-3.12,7.52h-.05l0,.06,2.74,6.61.39,0A7.07,7.07,0,0,0,90.59,243.11Z" fill="#c1b499" style="mix-blend-mode:multiply"/><path d="M134.1,137.94a7.13,7.13,0,0,0,.09-10l-7.13,3,0,0,0,.06h0l-2.9,7A7.07,7.07,0,0,0,134.1,137.94Z" fill="#c1b499" style="mix-blend-mode:multiply"/><polygon points="350.92 132.35 239.63 243.64 239.63 86.25 350.92 132.35" fill="#f48351"/><polygon points="350.92 132.35 239.63 243.64 239.63 86.25 350.92 132.35" fill="#24b8ac"/><polygon points="239.69 86.22 239.69 243.62 128.39 132.32 239.69 86.22" fill="#f4cc21"/><polygon points="128.42 132.26 239.71 243.56 82.31 243.56 128.42 132.26" fill="#24b8ac"/><polygon points="82.29 243.49 239.69 243.5 128.39 354.79 82.29 243.49" fill="#f4cc21"/><polygon points="128.33 354.76 239.63 243.47 239.62 400.87 128.33 354.76" fill="#24b8ac"/><polygon points="239.56 400.89 239.56 243.5 350.86 354.79 239.56 400.89" fill="#f4cc21"/><polygon points="350.83 354.85 239.54 243.56 396.93 243.56 350.83 354.85" fill="#24b8ac"/><polygon points="396.96 243.62 239.56 243.62 350.86 132.33 396.96 243.62" fill="#f4cc21"/><circle cx="242.33" cy="249.38" r="13.68" fill="#384348" opacity="0.4"/><circle cx="239.29" cy="243.3" r="10.64" fill="#fddd82"/><circle cx="237.6" cy="240.94" r="4.56" fill="#fff"/><path d="M239.28,80.15a7.06,7.06,0,0,1,7.07,6.93c0,.06,0,.12,0,.17a7.38,7.38,0,0,1-.22,1.7l97.19,40.26a7.29,7.29,0,0,1,1.07-1.37l.11-.1h0a7.1,7.1,0,0,1,10.4,9.65,6.45,6.45,0,0,1-.46.5,7,7,0,0,1-1,.79L393.81,236a7.4,7.4,0,0,1,1.27-.12,7.11,7.11,0,0,1,.59,14.19l-.59,0a6.58,6.58,0,0,1-.85-.06l-40.39,97.52a7,7,0,0,1,.65.58,6.63,6.63,0,0,1,.7.84h0a7.13,7.13,0,0,1-.74,9.22,7.07,7.07,0,0,1-10,0,7.56,7.56,0,0,1-.5-.57l-97.56,40.41a6.56,6.56,0,0,1,0,.79c0,.21,0,.42,0,.63s0,.36-.08.55a.1.1,0,0,1,0,0,7.13,7.13,0,0,1-7,5.89h0a7.07,7.07,0,0,1-7.07-7.1,7.45,7.45,0,0,1,.09-1l-97.44-40.36a7.73,7.73,0,0,1-.68.8,7.11,7.11,0,0,1-10.05-10.05,6.94,6.94,0,0,1,1.16-.93L85,250a7,7,0,0,1-1.45.16h-.06l-.39,0a7.1,7.1,0,0,1,.36-14.2h0l.37,0,.35,0,.31,0,.4.06.23.06.2.05,40.24-97.15a6.78,6.78,0,0,1-.95-.64h0a5.83,5.83,0,0,1-.5-.45l0,0,0,0a7.13,7.13,0,0,1,0-10.06,7.06,7.06,0,0,1,10,0,6.9,6.9,0,0,1,1.18,1.58l97.13-40.23a6.93,6.93,0,0,1-.27-1.83v0s0-.09,0-.13a7.13,7.13,0,0,1,7.13-7.1m0-9.12A16.29,16.29,0,0,0,223.6,83l-86.42,35.79a16.22,16.22,0,0,0-19.53,2.61A16.28,16.28,0,0,0,115,140.89L79.12,227.44a16.2,16.2,0,0,0-11.85,15.61,16.28,16.28,0,0,0,11.39,15.51l36.09,87.14a16.25,16.25,0,0,0,21.4,22.17L224,404.27a16.23,16.23,0,0,0,30.48.31L342.79,368a16.24,16.24,0,0,0,21.54-21.32v-.57l36.39-87.86a16.24,16.24,0,0,0-.51-30.62L364,140.12a16.24,16.24,0,0,0-22.28-21.5h-.08L254.82,82.67A16.3,16.3,0,0,0,239.28,71Z" fill="#f7f6fa"/></g></g></svg>