<svg xmlns="http://www.w3.org/2000/svg" viewBox="0 0 480 480"><title>Iitems</title><g style="isolation:isolate"><g id="Layer_1" data-name="Layer 1"><polygon points="45.68 158.62 110.49 404.87 191.93 396.46 271.14 363.95 352.25 354.27 430.48 320.65 365.67 74.41 287.91 107.21 205.68 116.51 126.79 148.93 45.68 158.62" fill="#fff" stroke="#fff" stroke-miterlimit="10" stroke-width="19"/><polygon points="45.39 158.62 110.49 404.87 191.64 396.46 270.85 363.95 351.95 354.27 430.19 320.65 365.38 74.41 287.62 107.21 205.39 116.51 126.5 148.93 45.39 158.62" fill="#34cec4"/><polygon points="116.16 396.25 55.41 165.44 128.52 156.71 207.38 124.3 289.66 114.99 360.02 85.3 420.75 316.04 349.87 346.5 268.83 356.18 189.68 388.66 116.16 396.25" fill="#34cec4"/><path d="M217,219.83c0,.28.21.36.47.25-.11.55-.7.12-1-.07,0-.05,0-.11,0-.19l.24.11c0-.08,0-.15,0-.22S216.88,219.73,217,219.83Zm-77.78-3c-.06.12-.23.17-.3.29-.49-.61-.61-.43-1.31-.26l.88-1c-.14,0-.27-.13-.4-.15l.44-.46c-.46-.11-.67-.24-1.06,0s-.54.43-1,.33-.65.12-1.08.25c-.18.06-.33.57-.44.76.2,0,1.07,0,1.12.23.11.41.26.93-.35,1-.27,0-.75-.52-1-.35s-.62.54-.19.74a10.61,10.61,0,0,1,2.37.88c.33.25.64.61,1,.6s.77-.4.54-.76c.58.09,1.77-1.25.74-1.34a2.61,2.61,0,0,1,.39-.27Zm76.77,3.2c.06.1,0,.43.27.55a1,1,0,0,1,0-.71,1.07,1.07,0,0,0-.34,0C215.85,220.08,215.9,220,216,220.08Zm-59,1c.33.17,1.23.42,1.4-.15s-.13-.75-.07-1.3C157.39,218.94,156,220.64,156.93,221.1Zm3.15-7.1c-.41-.67-1.31-.31-1.77,0-.27.19-1.32-.78-1.7-1a2.64,2.64,0,0,0-1.83-.21c-.23.1-.78.19-.92.41s-.37.8-.54.75c-.6-.17-.56-.21-.88.34-.18.31-.52.4-.41-.07s.19-.59-.18-1-.39-.23-.66-.46-.29-.67-.64-.6a2.6,2.6,0,0,0-.9.19,9.46,9.46,0,0,1-1.66,1.11c0-.24,0-.49,0-.74a3.65,3.65,0,0,0-2.18.87,2.42,2.42,0,0,0-1,1.83,3.81,3.81,0,0,0-.12,1.32c.07.13.4,1,.49,1,.88-.14,1.43-.38,2.22.12l-1.92.33A2.87,2.87,0,0,0,147,219c.41.12.5-.2.78-.31.64-.23.21.07.65.3a2.16,2.16,0,0,0,1,0,7,7,0,0,1,2-.4l.64.07c.13,0,.13-.32.24-.33.3,0,.49.35.78.14l-.9-.49a4.51,4.51,0,0,0,2.59-.4c-.28-.34-.39-.53-.83-.54.38-.61.53.15.95.23.14,0,.42-.27.51-.09s.19.38.28.58c.32-.58,1.37.24,1.81.44-.62.37-.78.3-.58,1.07l.83-.59c.36-.27.32-.29.66.05s1.06.11,1.53.61l.93,1c.15.16,0,.31-.15.48l-1.09,1.89c.18.08.9.22.86.56,0,.15-.88.52-1,.6a5.09,5.09,0,0,1-1.89.35c.18.39-.32.63-.42,1s.48.69.75.6.91-.16,1.15-.54.68-.23,1.07-.24c0-.12,0-.28,0-.4a.34.34,0,0,1,.5.28c.53-.59.62-.2,1.2.33.32.29.74.14,1.16.24l-.56.5a1.8,1.8,0,0,0,1.12.11l-.08.25h1.31c.19,0,.27.37.58.37h2.57c-.05-.4,0-.58-.32-.7l-1.06-.4c-.22-.08-.66.08-.83-.1l-.71-.72,1,.16c-.1-.11-.15-.27-.24-.38l1.71.53c.31.1.92.58,1.08.47l-.32-.45c.1,0,.22,0,.32,0,.07-.49-.58-.44-.45-.93l.55.43a3.92,3.92,0,0,0-.42-1c-.24-.23-.54,0-.72-.38s-.19-.54-.62-.62-.65-.22-.62.31l-.57-.89c-.23-.35-.26-.17-.57.05l-.4-.62.69-.09c-.14-.43-.6-.28-.44-.75.11-.32.33-.34.67-.25s.67.51,1,.5.57-.39.75-.52c.27.45-.19.62-.46.85a4,4,0,0,0,1.88.83,3.52,3.52,0,0,0-.39-1.38c.7.25.85-.13,1.38-.61l-.69-.13c.12-.28.59-.2.86-.23-.09-.59,0-1-.57-1.08a4.1,4.1,0,0,0-1.31.38l.21-.62c-.55.06-.79.15-1.27-.16a1.88,1.88,0,0,0-1-.42c-1-.1-1.91-.21-2.86-.37l.7-.28-.29-.65,1.07-.06c-.35-.5-.3-.49-.8-.26a1.64,1.64,0,0,1-.87,0,1.55,1.55,0,0,1,1.1-.62c-.11-.43-.62-.52-1-.63,0,.45-.37.65-.64.89,0-.48-.32-.32-.63-.29.35-.22,1-.39,1-.9-.38-.08-2.35-.74-2.44-.22s-.54,1-.84.52C159.23,214.7,159.92,214.15,160.08,214Zm-27.22-1.35a.76.76,0,0,0-.46.38l.68-.18c-.59.69.43.46.76.29.5-.25,1-.44,1.56-.65a.41.41,0,0,1-.38.38l.16.07a.57.57,0,0,0-.49.38,1.47,1.47,0,0,1,.68,0,2.82,2.82,0,0,0-.4.16c.14.35.41.24.72.26s.18-.27.33-.3c.44-.09,1.07,0,1.33-.5-.16,0-.3-.15-.45-.18a.5.5,0,0,0,.08-.51c.09.06.22.05.32.11,0-.33-.24-.37-.32-.62s0-.49-.08-.7-.4-.5-.51-.51-.59-.16-.73,0c-.41.43-.91.11-1.45.5s.52.19.67.47c-.13,0-.24.1-.37.1l.69.56c-.26-.07-2.36-1.23-2-.15l.49-.11c-.33.24-.15.6.21.38C133.89,212.65,133.18,212.51,132.86,212.65Zm2.84,10.67c-.07-.7.33-.61.75-.41,0-.11.08-.21.09-.32.7.63.36-.35.24-.69a2.89,2.89,0,0,1-1.92-.16c-.24-.07-1.13-.17-1.29-.38s0-.66-.2-1c-.52-.7-1-1.82-1.86-2-.35-.09-.73-.46-.87,0-.06.19-.72-.07-.9-.11.27.26-.06.44.06.62l.39.57.87,1.28c-.3.22-.41.49-.65.14l-.78-1.18c-.36-.55-1.39-.31-1.8-.13l1,.59c-.18,0-.81-.1-.86.09-.13.46-.16.43-.6.55l.22-.54c-.33-.06-1.33-.45-1.6-.29s-.12.61-.34.68l-.69.25c.3-.42.59-.95-.05-1.12-.47-.13-.61.09-1,.38A7.85,7.85,0,0,0,121.8,222c.13,0,.27.09.41.08-.24.38-.69.79-.46,1.3l.8-.21c0,.1,0,.24,0,.35l1.68-.51-1.56,1.25c.45.26.6.44,1.06.31l1.79-.5a9.48,9.48,0,0,1,2.57-.24c.64,0-.29.43-.5.48a11.47,11.47,0,0,1-1.44.18,8.25,8.25,0,0,0-2.24,1.08c.8,1.33,2.11.73,3.28.49.12.74.38,1.07,1,.85l2.38-.83c.54-.18.64-.63,1.17-.87a1.32,1.32,0,0,0,.67-.51c.18-.25.11-.55.47-.53,0,.11,0,.25,0,.36l1.22-.07c-.06.07-.1.16-.17.23.65-.17,1.36,0,2-.21.16-.06.76-.44.71-.62s-.47-.12-.3-.56c-.47,0-.68.32-.91.7-.07-.32-.08-.6-.38-.77a1.48,1.48,0,0,1,.33,0A1.69,1.69,0,0,0,135.71,223.32Zm2.7.15a1.32,1.32,0,0,0,.4.2c0-.16.09-.14.13-.24a.37.37,0,0,0,.42.23c0-.07,0-.13,0-.2.29.44,1.06.29,1.49.26s.75-.58,1-.91a12.37,12.37,0,0,0-1.82-.79c-.36-.12-.7-.41-.9,0s-.43.62,0,.79l-.18.09C138.93,223.28,138.5,223,138.4,223.47Zm77.81-4-.14.11.13.14c.15-.23.2-.37.42-.48l-.16-.12c.33-.13.16-.58,0-.46S215.64,219.26,216.21,219.49Zm-60.39,7.59a1.29,1.29,0,0,0-1.36,0c.42-.71-1.24-1.05-1.57-1.17s-.58.07-.81-.08-.47-.32-.66.16a1,1,0,0,1-.25-.29c.56-.26.16-1-.28-.66s-.31.79-.31,1.41c0,.25,0,.5,0,.75s.26.4.23.57-.5.78-.59,1a9.84,9.84,0,0,1,1.12-.52c.13,0,.46,1,.64.79s.39-.82.64-1c.42-.29.27-.66.69-1,.09.78,1.41.59,1.9.61Zm-13.93-14.68c.29.36.72-.15.92-.38.3.35.3.42.72.35s.69,0,.63-.51c.09.09.23.14.31.23,0-.17,0-.36,0-.53.48.06.16.72.66.62l1.49-.32a3.62,3.62,0,0,0-.11-.35c.36.28,1.06.25,1.06-.32.27.5.93,0,1.29-.19l-.27-.57c.51-.14.38.49.78.52a1.74,1.74,0,0,0,.93-.06c.19-.09,1.1-.34,1.1-.57,0-.5.17-.5.57-.75a1.26,1.26,0,0,0-.77-.09l.48-.59a3,3,0,0,0-2.92-.12c-.38.25-.79.13-1.2.4a9.39,9.39,0,0,1-1.2.7c.11,0,.21.12.32.15a5.47,5.47,0,0,0-1.62.07c-.13,0-.33.38-.48.34l-.76-.25c-.14,0-1.18-.31-1.19-.34-.16-.27.83-.16.82-.6l-.82,0c-.38,0-.26-.23-.57-.33-.53-.17-.91.36-1.41.39s-.85-.33-1.31-.28a4.09,4.09,0,0,0-1.62.24c-.73.43-.41.69.24,1.06s.9.19,1.5-.06.71-.48,1.21-.13c.3.21,1.07.56.77,1.05C141.31,211.82,141.47,211.89,141.89,212.39Zm16.75,7.41c-.21.41,1,.09,1.13.06A.61.61,0,0,0,158.64,219.81Zm-17.59-21-.9,1.28c.77.3,1.36-.26,2.12-.49a10.56,10.56,0,0,0,2-1,4.55,4.55,0,0,1-1.63,1.09,4.39,4.39,0,0,0-1.6.77c.71,0,1.5.26,2-.31a3.38,3.38,0,0,1,1.83-1.17,4.06,4.06,0,0,0-1.54,1.45,13.57,13.57,0,0,0,1.73-.27c.46-.12.54,0,.46-.55,0-.18.46-.37.6-.46-.07.11-.1.25-.17.36l1-.61-.63.89,1.26-.6c.26-.13.94-.29,1.1-.56a6.69,6.69,0,0,1,1.77-1.86l-.81,1.26.75.12c-1.33.75-2.66,1.43-4,2.07l1.79.95a9.9,9.9,0,0,0-2.36-.7c-.12,0-2.08.51-2.06.45-.29,1.3.84.92,1.58,1.19a5.16,5.16,0,0,1,1.87,1.34,3,3,0,0,0-3.15,1c-.55,1,.15.82.9.79.53,0,.74-.75,1-1.2-.06.87-.64,1.53.38,1.91.81.31,1.34-.9,1.62-1.43-.41,1.09-.66,1.85-1.88,1.85-.5,0-.7-.63-1.13-.58a2.43,2.43,0,0,0-1.36.45c.5.53.52.59,1.2.48-.33.59-.64.52-1.13.9-.17.13-.6.34-.69.54s.31.27.08.51c.48.37.51,0,.73-.43.16.54,1,.73,1,.07.23.51.49.14.85.08a10.69,10.69,0,0,0,1.09-.19c.41-.11.42-.53.75-.5s.78.09.54-.39c.27.34,1.13.5,1-.16.43.27.49-.23.76-.11s.3.35.3.8l1.31-.81c.13-.09.13-.37.25-.46s.24.16.4,0,.48-.23.42-.38-.13-.56-.31-.61-.39-.18-.6,0-.23.36-.51.11.46-1.07.58-1.26c.37-.54-.44-.56-.26-.81s.89.06,1.15-.11a1.75,1.75,0,0,0,.86-1.08l-.92-.23,1.37-.56c-.1-.6-1.36-.32-1.78-.32l1.64-.43c0-.69-1.56-.09-2,0,1-.38,1.93-.74,2.87-1.19l-.3-.49c.38,0,.91.14,1.2-.13a3.34,3.34,0,0,0,.87-1.15l-1.09.22,1.63-.8c.47-.23.92-1,1.28-1.34s2.3-1.53,2.15-2.25l-4.16,2,2.47-1.5-1.63.15,3.38-1.16c.81-.27,1.61-1.41,2.25-2a19,19,0,0,0-3.19,0,6.78,6.78,0,0,0-2.54,1l1.25-1.21a21.13,21.13,0,0,0-2.89.34,23.77,23.77,0,0,0-2.57,1.1l.54.61c-.49-.17-1.19-.6-1.69-.49l-2.16.53,1.57.72-1.68-.22a3.34,3.34,0,0,0-1.45.12c-.19.13-.16.41-.39.49l-1,.32c-.36.12-.63.76-.85,1.08l2.9.7-3,0A5.61,5.61,0,0,1,144,196c-.33-.11-.77.1-1.09.17l.37.5-1.06.31.84.16c-.93.31-2.33.1-2.54,1.33-.8-.39-1.49.26-2.08.83l1.48.27ZM133.43,209c-.37-.28-.71-.13-1.06,0s-.06.43.25.34S133.09,209,133.43,209Zm23.5,21.09c.17-.28.69-1.19-.06-1.23-.31,0-.51.4-.47.66S156.63,229.86,156.93,230.05Zm59-2.51c-.08.07-.1.21-.18.28.89.43,1.58-1,2.24-1.36.22-.13.45,0,.47-.28s0-.58,0-.87a1.27,1.27,0,0,0-.58-1c.4-.47.56-.52.44-1.17-.23.15-.42-.3-.68-.47s-.56.22-.72.3c0-.08,0-.16.07-.24-.65-.19-1,.59-1.18,1.11l.59.05c-.18.24-.25.45-.54.45s-.49-.08-.63.07-.16.26,0,.59c.09.16-.14.41-.22.55a2.5,2.5,0,0,0,1,0,5.54,5.54,0,0,0-.54,1,1.82,1.82,0,0,1,.93-.35c-.2.1-.65.21-.73.44a.79.79,0,0,1-.44.48c.14,0,.28,0,.42,0a3.53,3.53,0,0,1-.35.31Zm-62.59,2.21c.06.08.19.38.29.34a1.53,1.53,0,0,0,1.21-1.58l-.5.11a1.78,1.78,0,0,0-.91.62C153.25,229.49,153.16,229.49,153.34,229.75Zm-12.75-17.54c-.2-.42-.87-1-1.3-.67-.25.16-1.57.76-1.16,1.39.17.25,1.35.35,1.64.43C140.36,213.11,141,213.05,140.59,212.21Zm-11-4.43c.42-.06.39-.71.86-.44-.07.07-.09.19-.17.26l.66,0c.25.68-.85.39-1.21.78.45,1.17,1.5-.36,1.81-.14s.84,0,1.23,0,.48.16.78.47,1.92-.21.84-.93c-.16-.1-.5-.22-.49-.43s0-.28-.2-.39c-.43-.2-.52-.11-.94.08-.08-.92-1.07-.19-1.32.05-.37-.46-.74-.8-1.33-.56s-1.06.22-1.12,1l.69-.21A3.72,3.72,0,0,0,129.61,207.79Zm1,3.12c.25.17.4-.24.13-.43a3,3,0,0,0-.57-.32c-.3-.12-.57-.34-.86-.1l.36.63C130,210.82,130.45,210.78,130.63,210.91Zm3.32-6.82c-.32-.42-1.45,0-.92.58C133.6,204.74,134.63,205,134,204.09Zm2.51,3.31c-.2.17-.46.19-.66.35.22,0,.68.32.76.3a2.8,2.8,0,0,0,.68-.34c.23-.14.7-.26.78-.56s-.3-.29-.06-.7c-.31,0-.71.08-1,0s-.53-.23-.82-.27-1.8,0-.86.63l-.24.11C135.44,207.64,136,207.12,136.46,207.4Zm-12,3.45c-.7.31-1.07.26-.68,1.1.33-.09.74.31,1,.16l1.24-.69c.29-.16.1-.24.12-.49s-.51.1-.67-.08c.35-.18.71-.29.89-.7C125.73,210.05,125,210.61,124.45,210.85Zm2.16,2.72,1,.3-.52.39c.2,0,1,0,1,.25.05.48-.44.38-.84.46-.2,0-1,.34-1.1.12-.26-.49-.3-.42-.77-.25l.2-.19c-.38-.17-.91-.58-1.29-.41-.69.32-.5,0-1.16-.11-.12,0-1,.31-1,.53s.82.11,1,.12a3,3,0,0,0-1.56.54l.08.3c.44.12,1.06-.23,1.48-.35-.16.18-1.91.54-1.76,1s1.48-.44,1.66-.53c-.43.61-1.68.58-1.85,1.34a1.81,1.81,0,0,0,1.19-.22c0,.08,0,.17,0,.25a4.66,4.66,0,0,0,.64,0c-.25-.38.23-.43.41,0a1.22,1.22,0,0,0,.51-1.16c.41,0,.33.34.35.68.28-.1,1-.14.92-.56.29.37.94,0,1.18-.32-.42.78-1.6,1.2-2.35,1.7,1.17.38,1.52.06,2.49-.6l1.61-1.12c.31-.21.59.06.91,0,.16-.06.11-.35.38-.42l.85-.22c.37-.1.42-.59.4-1s-.19-1-.82-.71,0,.37-.25.85a.71.71,0,0,0-.75-.42c-.24,0-.4-.42-.63-.52-.47-.21-.41-1.21-1.12-.67A3.84,3.84,0,0,1,126.61,213.56Zm9-10c.36.9,1.38.63,1.92.22-.12.38-.43.43-.74.56s-.07.41.16.32.33.37.55.07.24-.4.53-.37c0,.07,0,.14,0,.21.32.08.36-.19.57-.37.06-.05.43.21.22-.22.5.07,1.2-.37,1.59-.17l-1.09.44a3.92,3.92,0,0,0,1.72-.37,15.26,15.26,0,0,0-2.92,1.34,2.9,2.9,0,0,0,1.07.11l-.53.18c.41.37,1.19,0,1.73,0l-1,.39c.64.59,1.61.2,2.29.06a.52.52,0,0,0-.45-.28,1.4,1.4,0,0,1,1.13.2l-.76-.88,1.26.72c0-.43.11-.64-.24-.95,1.61.38-.28-.56.59-1.09a1.25,1.25,0,0,0,.38.78c.2-.29.56-.53.27-.89.3.15,1.15-.65,1.53-.88a2.94,2.94,0,0,0-.86-.55c0,.14-.1.28-.09.42-.24-.69-.88-.06-1.18.15.18-.8.28-1.16-.62-1,.42-.61-.5-1-.88-.45l.47.48a.77.77,0,0,1-.8-.15c-.13-.13,0-.67-.38-.44a1.11,1.11,0,0,1-1.25-.12c-.63-.42-1-.8-1.73-.8-.43,0-1.15-.06-1.34.46.41,0,.78-.2,1.16-.1-.19.69-1.63.14-1.74,1.2.33,0,.76-.15,1.05,0-.27.14-1.64.55-1.09.89l-.58.4a3.9,3.9,0,0,0,1-.07l-.15.14c.39.07.66-.41,1-.27-.11.06-.18.2-.29.27.1,0,.19.13.28.16-.14,0-.28,0-.41,0Zm-4.18,9.06c.37.25,1.68,0,1.38-.63C132.4,212,131.56,212.26,131.38,212.61Zm-10.44,2.83c-.22.13-1.36,1-1.13,1.29s.76,0,.85-.25S121.11,215.75,120.94,215.45Zm96,5-.09.09.12.08C217,220.58,217.06,220.54,217,220.46Zm-86.4-2.6a1.6,1.6,0,0,1,.89.28c.33.17.55.42.86.18a1.06,1.06,0,0,0,.24-.91c-.11-.38-.35-.35-.71-.47C131.35,217.19,130.65,217.16,130.59,217.86Zm2-3.63c-.35-.51-.6-.36-1-.09C131.21,215,132.31,214.41,132.55,214.22ZM131,211.86c.2.23.26.19.35.43.38-.07.86-.09,1.07-.47l-.62-.2A1,1,0,0,0,131,211.86Zm8.39-3.85.24-.63a3.23,3.23,0,0,0-2.45.79C137.5,208.74,138.9,208.12,139.38,208Zm12.79,5.12a2.1,2.1,0,0,0,.63.18c.31.09,1.08-.51,1.37-.66a5.52,5.52,0,0,1,1.29-.28,4.27,4.27,0,0,0-2-.89c-.27-.06-.57.22-.85.19l-1-.09a.56.56,0,0,0,.13,1C152.16,212.71,151.88,212.9,152.17,213.13Zm-10.87-5.85c-.22.35.44.42.6.46s.52-.16.78-.32A.81.81,0,0,0,141.3,207.28Zm.9,1.24c-.23.3.56.56.78.39-.08-.07-.14-.21-.2-.26C143.06,208.31,142.37,208.3,142.2,208.52Zm190.54-46.11a6.7,6.7,0,0,0,2.39-.93,1.21,1.21,0,0,0-.07-.6c-.07-.08-.59,0-.68,0a1.58,1.58,0,0,0-1.13.38c0-.11-.07-.23-.07-.34-.42.09-.88.08-1.15.49-.25-.83-1.08,0-.84.43C331.31,162.06,332.47,162.3,332.74,162.41Zm-74.49,25.66a2.83,2.83,0,0,0,2,.47c.62-.12,2-.06,2.43-.66-1-.37-1.84-.68-2.19-1.88-.27-.94.42-2,.78-2.74.22-.46.4-.94.6-1.42s.75-.81,1.05-1.14a8.57,8.57,0,0,1,1.62-1.77c.87-.54,1.75-1.06,2.6-1.63.43-.28,2.22-1.11,2.08-2-.18-1-2-.09-2.27.28a6.77,6.77,0,0,1-2.31,1.71,5.68,5.68,0,0,0-2.13,1,8.14,8.14,0,0,0-1.89,1.45,20.73,20.73,0,0,0-1.27,2l-.78,1.52c-.2.39,0,.56.23,1,.08.16-.6.82-.71,1-.41.5.06.41-.06,1s-.66.38-.57.87C257.63,187.72,257.7,187.71,258.26,188.07Zm-2.58-16.7c-1-.09-1,0-1.57.77l1.11-.14Zm2.79-3-.77-.38,1.19-.65c-.74.06-1.05,0-1.53.55s-.76.9-1.16,1.33l1.35-.16Zm5.24,20c.21.29,1.43.86,1.71.46s-1.14-.77-1.34-.86Zm-3.41-17.53c-.27-.32-.57,0-.84.16a3.56,3.56,0,0,0,.45.19Zm-2-1.37a5,5,0,0,0-1.7.06c-.78.24-1.08.21-1.45,1h1.66A3.32,3.32,0,0,0,258.29,169.48Zm-7.7,2.53-.94,1.07a5.24,5.24,0,0,0,2-.2l-.34-.58,2.11-1.12c-.48-.17-.82-.34-1.28-.07a3,3,0,0,1-1.34.58,4.72,4.72,0,0,0-2.6,1.08h1.11Zm5.89,20.73c.32.19.93-.71,1.08-.9a1.88,1.88,0,0,0-1.14-.25C255.91,192,255.82,192.36,256.49,192.74Zm-22.12,3.59a2.63,2.63,0,0,0,1.54-1.43c-.35.1-.28.41-.52.63a2.91,2.91,0,0,1-.89.33C234.7,196.05,234.59,196.22,234.37,196.34Zm-110,13.81c.44.12.31-.17.61-.3s1.79.07,1.42-.62c-.22-.42-1.34-.1-1.6.07-.44.28-1.31.58-1.51,1.13l.22.08C123.73,210.38,124.06,210.07,124.34,210.15Zm134.57-40c-.2.07-2.24.68-1.88,1.2s1.63-.28,2.11-.5c-.1,0-.17-.17-.27-.22l.72-.31Zm65.8-6.05c.33.11.69.33,1,.22.54-.19.51-.22.6-.84.6.55,1.07-.17,1.62-.56.15-.11.52.43.7.35l.86-.43-.46-.45c.43.06.6.17.9-.15a2.32,2.32,0,0,0,.57-.79l-2.68-.29c-.24,0-.67-.18-.87,0-.35.29-.09.51.1.94-.64-.1-2.09-.89-2.53-.28s-.65.76-.65,1.48C323.88,163.69,324.42,163.89,324.71,164.11ZM217.48,222.3c.19-.12.18-.29,0-.47a.85.85,0,0,0-.22.26C217.49,222.08,217.38,222.21,217.48,222.3Zm111.05-56.42c.64.3,1,.1,1.64-.1-.31-.57-.36-.57-.94-.75-.14,0-1.09-.2-1.11-.22-.16-.41-.6-.73-1-.27s.31.73.61.85l-.79.93C327.37,166.15,328.1,165.67,328.54,165.88Zm-64.61,2.2c.46-.24.25-.4.08-.92-.18.07-.63.11-.75.26s0,.53-.15.65c-.35.34-.93-.16-1.08.54a2.5,2.5,0,0,0,.43.24ZM259.8,170c.28-.08.43-.2.67,0,.43.32,1.08-.48,1.29-.87s-.65-.82-1-.63a7.91,7.91,0,0,0-1.5,1.05C259.44,169.77,259.51,170.07,259.8,170Zm32.86-3.64c.59.48,1.49-.56,2-.89.15-.1.52.16.75.05l1.32-.61a1.53,1.53,0,0,0,.67-.6c.14-.19-.38-.64-.59-.6-.46.07-.6-.1-1-.38-.17-.12-.73.19-.93.26l.3-.46a1.3,1.3,0,0,0-1.49.7,9.76,9.76,0,0,0-.71,2Zm-6.82-1.45c.45-.15,1.28-.68,1.7-.35s1,1,1.58.8A3.41,3.41,0,0,1,291,165a2.13,2.13,0,0,0,1.61-.52c-.12-.2-.48-.59-.46-.83s.22-.76-.11-.84c-.7-.18-1,.21-1.55.63l.46-.85c-.32,0-1,.22-1.21-.12-.35-.74-.32-.65.31-1-.53-.2-1.58-.87-2.11-.76s-.12.39-.45.59l-1.11.69c-.42.26-.33.39-.33.95,0,.19-.69.45-.84.54s-.17.85-.2,1.05S285.72,164.85,285.84,164.9Zm74.27-2.9c.2-.12.42,0,.61-.11.65-.32,1.2-.44,1.54-1.11-.35-.18-.65-.43-1-.35l-1.47.32c-.34.08-.75.57-1,.78-.08.06.41.87.48,1ZM230.45,198.82c-.24.19-.61.31-.39.7l.36-.49C230.43,199,230.44,198.89,230.45,198.82Zm-1.61,2.32c.22,0,.34-.15.39-.37-.17-.11-.31,0-.42.14S228.83,201.06,228.84,201.13Zm.78-1.7c-.12.24-.25.47-.36.71l.54,0C230.09,199.81,230,199.59,229.63,199.43Zm-10.78,18.05c.2,0,.23,0,.38-.18-.14,0-.23,0-.37.05l.11-.11c-.33-.14-.3.16-.29.27l.16.14C218.85,217.6,218.84,217.54,218.85,217.48Zm16.46-22c.14-.22.3-.36.25-.62-.22.21-.13.35-.48.35a1.33,1.33,0,0,0-.67.14C234.65,195.81,235,195.59,235.31,195.47ZM217.66,222a3,3,0,0,0,.1-.42C217.59,221.54,217.46,221.72,217.66,222Zm12.27-21.72c-.34.1-.69.09-.54.6Zm-11.74,21.7a.54.54,0,0,0,.24.32C218.49,222,218.4,221.92,218.19,221.93Zm-.73-2-.11.1h.2a1.07,1.07,0,0,0-.14.63c0,.11-.23.27-.3.44.36,0,.4.12.09.28.26.15.74-.21.21-.37.33.1.4-.2.56-.46l.11.09c-.28.26-.23.64-.23,1s.15.22.11.55c0,.17-.12.27,0,.36.32.16.12-.37.1-.56s-.13-.58.17-.79c-.3.41.11.64.22,0a1.38,1.38,0,0,1,.17.26c-.22.08-.15.15,0,.36s.17.16.15.56-.36.53.14.74l-.08-.26c.21,0,.59.19.39-.12.36.12.63-.37,1.07-.43-.69.37,0,1.41.36.95a.91.91,0,0,0,.34,1l-.08.05c-.17-.14-.1,0-.26-.08l.1.18c-.28,0-.55,0-.73.23a.32.32,0,0,0-.49-.09c.38.17.29.45.06.71l.52-.25c0,.37.28.41.12.82-.08.21-.59.46-.77.6.06.08.11.23.09.19.34.35.51-.27.92-.16l-.11.14c.15,0,.58.09.63.05l.71-.48a1.24,1.24,0,0,0-.21.67c-.51.06-1.1,0-1.09.67,0,.36-.49.79-.65,1.13.52.19.76-.84,1.49-.55.12-1,.44-.29,1-.76.16-.15.47-.55.67-.59s.41.22.7.07a8.44,8.44,0,0,0,1.32-.71c.62-.47-.51-.41-.72-.38.42-.54.73-.83.62-1.57s-1.22.07-1.38,0c.39-.47-.49-.9-.86-.8a.43.43,0,0,1,.61,0c-.4-.9-1.2-.77-1.64-1.47-.56-.9-1-.87-1.91-.76a.56.56,0,0,1,.51-.39c-.42-.49.66-1.51.2-1.93-.3-.27-1.71.28-1.78.66l-.09,0c.08-.12.09-.31.2-.42a2.48,2.48,0,0,0-.41,0l.27-.07c0-.37.62-.63.57-1.18a1.83,1.83,0,0,0-1.08.51c-.19,0,0-.12-.23.07-.16-.34-.39,0-.18.3l-.23.11c0,.1,0,.17,0,.22s.25.19.38.24a.58.58,0,0,0-.57.1c.11.11.16.29.27.39h-.23C217.2,219.94,217.3,219.9,217.46,219.91Zm1.92,3.4a.53.53,0,0,0-.2.51l.15,0A.33.33,0,0,0,219.38,223.31Zm11.75-23.68.66-1.22-.49.7C231,199.18,231,199.38,231.13,199.63Zm1.08-2.33a4.73,4.73,0,0,1-.39.62l.55-.12C232.46,197.52,232.65,197.33,232.22,197.3Zm-.92.84c-.34.22-.35.18-.26.61.12.64.74-.43.89-.63C231.68,197.83,231.53,198,231.3,198.13Zm1.63-1.21c-.29-.09-.61,0-.62.33a1.88,1.88,0,0,0,.3,0A.41.41,0,0,0,232.93,196.92Zm-2.28,2.43c-.14.16,0,.39-.21.6,0-.21,0-.41,0-.62-.26.08-.32.32-.17.57L230,200c0,.28.06.18-.08.43.34,0,.48,0,.62-.29a.44.44,0,0,1,.48-.35C231,199.53,230.87,199.12,230.65,199.36Zm-.42,1.34c.11.38-.08.51-.36.63.14.05.11.1.27.13a1.52,1.52,0,0,1-.09.33C230.28,201.37,230.44,201.19,230.23,200.69Zm.33-.22a1.35,1.35,0,0,0-.3,0,1.21,1.21,0,0,0,.15.4l.55-1C230.71,200,230.59,200.19,230.56,200.47Zm3-3.58c-.4-.13-.89.42-1,.79l.45-.28Zm.2-.53a1,1,0,0,0-.36.11l.14.22C233.77,196.79,233.85,196.65,233.74,196.36Zm38.09-15.75c-.49.19-.3.38-.22.92l1.28-.59A.81.81,0,0,0,271.83,180.61ZM332,218.08l.25.6c.52-.08,0-.55.35-.61s.37.57.31.78c-.14.43.13,1.64.65,1a4.08,4.08,0,0,0,.54-1.9c0-.17-.35-.48-.44-.57-.25-.26-.33.13-.66-.16.3-.48.9,0,.92-.81.3.3.42.11.64-.12s.53-.33.57-.41c.18-.41.82-.34,1.22-.41-.46.66,0,.92.54,1.19.15-.4.21-1.06.7-1.09-.34-.16-.49-.41-.22-.72.54.51,1.22,0,1.45-.58l.38.44a4.18,4.18,0,0,1,.43-1c0,.2,0,.39,0,.59.36-.24.34-.59.62-.86,0,0-.28-.8-.3-1,0-.46.14-.52,0-1.05-.1-.33-.31-.87.24-.75-.09-.34-.25-.56,0-.81s.05-.61,0-1-.44-.55-.62-.75-.12-.48-.13-.75c-.47-.11-.64.27-.4.69-.5-.88-.75.51-.75.9s.39.35.38.51c0,.42,0,.84-.07,1.27a2.27,2.27,0,0,1-.64,1.54,2.3,2.3,0,0,1-.77.55c-.29.09-.09-.54,0-.64-.38.27-.55.26-.43.75.06.25-.24.7-.34.92s.21.43-.08.66-.31-.11-.59,0c-.51.2-1.53.33-1.73.89a1.79,1.79,0,0,1-1.22,1.27C333.16,217.2,332.35,217.7,332,218.08Zm6.56,28.16a4.29,4.29,0,0,0-.58.94c-.14.49,0,.53.21.86a3.37,3.37,0,0,1,.3.94c0,.2.58.35.74.43-.16-.38-.55-1.2.19-1.1-.12-.06-.9-.33-.59-.5a.35.35,0,0,0-.18-.67,2.92,2.92,0,0,1,.13-.42A4.93,4.93,0,0,0,338.58,246.24Zm24,18.83c-.58-.3-.09-1-.89-1.09-.09,0-.33.6-.49.34l-.59-1c-.36-.58-.44-.94-1-1.1-.24-.07-1.85-.33-1.91-.56-.16-.6-.18-1.32-.68-1.66-.71-.49-.73-.75-1-1.61a.72.72,0,0,0-1.23-.25,14.44,14.44,0,0,0-1.93-3.11c-.56.3-.32,1.4-.33,2a6.85,6.85,0,0,0,.49,1.88c.22.72.41,3.13-.68,3-.38,0-.85-.57-1.28-.7l-2.3-.66c-.71-.2-.5-.49-.52-1.28a3.14,3.14,0,0,1,.5-1.59,2,2,0,0,0-1.8-.3,14.75,14.75,0,0,0-2,.36l.31.89c-.75.08-1.49-.13-1.77.66a5.74,5.74,0,0,0-.21,2.27l-2.11-.5c-.26-.06-.79,1-.93,1.2-.78,1.12-1.93,2.22-2.09,3.66-.07.74.07,1.29-.54,1.61l-2.41,1.27a3.8,3.8,0,0,0-1.22,1.13,2.47,2.47,0,0,0-.69,1.7l-.53-.71a3.84,3.84,0,0,0,.52,3.07c.42.57.38.68.33,1.4,0,.51.36.77.68,1.15a11.8,11.8,0,0,1,1.85,3c.18.43.85,1.47.8,1.91,0,.16-.83.95-.27,1.19s1,.63,1.54.5,1.11-.12,1.39-.58c.4-.68.5-.92,1.18-1.17.49-.18,1-.39,1.47-.54l1.14-.34c.12,0,.15-.62.18-.76.09-.47.8-.84,1.14-1.13s1.06-.15,1.38-.48.7-1,1-1a14.93,14.93,0,0,1,3.57-.18c.79.08.87.2,1.47.82a11.55,11.55,0,0,0,1.19,1.12,12.4,12.4,0,0,0,1.06-2.64c.53.82.13,1.69-.12,2.56.79,0,.64-.45.81-1.27.16.45.33,1.6.8,1.48s.94.68,1.12,1c.61,1.22,1.62,1.32,2.76,1.21.73-.07.86,0,1.28-.63s.5-.44,1.19.05c.33.24.93-.18,1.11-.49.41-.71.48-.78,1.23-1,1.25-.37.68-2.07.6-3.2s.77-1.94.75-2.93a19.7,19.7,0,0,0-.06-3.79,20.87,20.87,0,0,0-1.39-3.26ZM337.85,252c-.06.78,1,.16,1.16.06C338.93,251.6,337.89,251.46,337.85,252Zm6,6c-.33.37-.93-.06-.78.7.34-.09.73,0,.95-.26S344.23,257.74,343.85,258Zm15.84-10.22c.07-.48.14-.52-.2-.85-.05,0-.17.1-.27,0a1.46,1.46,0,0,0-.28-.26,14.75,14.75,0,0,0-1.47-.48c0,.54,1.9.29,1.94,1.25A2.65,2.65,0,0,0,359.69,247.74Zm4.8,34.6c-.22.16-.83.82-1.09.77l-1.44-.24a4.54,4.54,0,0,0,.8,2,1.63,1.63,0,0,0,1.71.71C365.37,285.55,365.43,282.39,364.49,282.34Zm-7.39-33.28a3.14,3.14,0,0,0-.94.28,1.76,1.76,0,0,0,1.82.22c.33-.18.74-.45.81-.85,0-.14.74-.27.19-.6.56-.29.16-.69-.22-.82s-.2.6-.14.81c0,0-1.19,1.41-1.06.47C357.46,248.46,357.39,249,357.1,249.06Zm-3,.69c-.33-.21-.28-.7-.7-.83l-1.23-.39a10.54,10.54,0,0,0-2-.22l-3-.32a1.57,1.57,0,0,0-1.31.95c-.07.17-.34,1.09-.49,1.07-.43-.09-.63-.05-.9-.43a5.15,5.15,0,0,1-.69-1.21c-.2-.5-.32-.37-.82-.36a1.6,1.6,0,0,0-1.66,1.24l.79-.09c.14,0,.11.44.3.49a2.8,2.8,0,0,0,1.47-.31,1,1,0,0,1,.06.38,2.42,2.42,0,0,0-1.5.46l1.09,1.08c.15-.33.3-.65.45-1,.28.61.27.59.86.67l2.09.3c.29,0,1,0,1.17.25l1,1.35c-.68.4-.77.34-.66,1.2l1.65-.62c.28-.11.73.72,1.09.64.6-.13,1.19-.11,1.62-.58.24-.26.13-1.2.4-1.22s1.27-.34,1.57-.16l1.73,1.07c.46.28.91.11,1.42.07.35,0,1,.23,1.22.07-.26-.17-1-.44-.78-.78-.32,0-.75.17-.66-.35-.74.17-.76,0-1.29-.65-.13-.15-.49-.2-.67-.26s-.34-.43-.45-.59l.69-.27C355.88,249.4,354.63,250.07,354.13,249.75Zm-17-53a3.64,3.64,0,0,1,.23,1.62c-.14.72.11.67.41,1.29a.78.78,0,0,1,.05.81c-.06.2.17.45.22.65a2.77,2.77,0,0,0,.5,1.34c0-.36-.15-.9.23-1.07s.73.28.8.63c.28-.51-.36-1-.68-1.34s-.62-.46-.59-1.05c0-.82-.09-1,.58-1.33.44-.21.61.6,1.06.49a7.85,7.85,0,0,1-1.25-1.82l-.55-1c-.12-.22-.45-.34-.56-.57-.33-.74.17-1.28-.42-1.95-.32-.35-.36-1.54-.95-.79.35.21.64.6.42,1-.09.14-.2-.09-.38.16s-.11.27.06.57a4.27,4.27,0,0,1,.17,1.43C336.52,196.22,337.39,196.23,337.11,196.76Zm-3.73,44.37c.39,0,.48-.66,0-.58C333.26,240.71,332.9,241.16,333.37,241.13Zm-.53.28a1.52,1.52,0,0,1,.28-1c.11-.18-.1-.62-.1-.87l-.11.1C332.89,240.17,332.62,240.9,332.84,241.41Zm.85-2.11a.43.43,0,0,1-.58,0c.08.23.12.44.3.57.26-.38.25.54.64.65-.05-.12-.07-.27-.13-.38.08.09.17.19.25.3C334.28,240.07,333.77,239.73,333.69,239.3Zm-1.37-.42a1.11,1.11,0,0,0,.55.35,1.71,1.71,0,0,0-.11-.5c-.32.11-.34-.29-.77-.15a.53.53,0,0,1,.06.66A2.07,2.07,0,0,1,332.32,238.88Zm.52-.45c.09.31.36.35.62.47s0,.24.24.4c.73.57.41-.37.21-.79S333.22,238.31,332.84,238.43Zm-1.73,1.18c.31.88.36,1.55,1.17.86-.16.37-.56,1,0,1.14.22,0,.22.33.45.22s0-.42,0-.64.15-1,0-1.23a1.46,1.46,0,0,0-1.16-.5A1.56,1.56,0,0,0,331.11,239.61Zm1,12a6.24,6.24,0,0,1,0,1c-.1.56-.22.65.2,1,.23.2.57-.24.64.36,0,.25,0,1.25.16,1.4s.81.07.87-.17-.23-.37-.25-.5.08-.32.06-.48c0-.3-.21-.67-.26-1s-.56-.45.06-.7c.35-.13.24.61.33.76.22.35.65.16.65.59s.29.44.57.29c-.14.07.49-.8.45-.56.09-.6-.38-.18-.65-.54-.07-.09.15-.36.05-.47l-.45-.48c-.24-.27-.4-.2-.67-.38.8.08.68-1.44,1.43-1.2,0-.68-.45-.15-.68-.08s-.28.22-.5.35-.21-.23-.4.15c-.5.94-1.58-.2-1.21-1,.17-.38.6-.11.94-.23s.87-.44,1.29-.33c1,.29,1.27-.83,1.34-1.68-.37.1-.52.76-.79,1.06s-.52,0-.72.07-.16.21-.47.19-1.17-.25-1.47.08a2.26,2.26,0,0,0-.55,1.32C332.56,250.85,332.12,251.2,332.09,251.65Zm-2.58-13.22,1,1c.32-.67.17-.94-.45-1.16Zm.54,20.19c.12.46.54.75.75.24S330.31,258.44,330,258.63Zm7.88-53.25c0,.18.12.56,0,.67s-.28.23-.28.57a3.5,3.5,0,0,0,.63,1c.11,0,.16-.44.35-.44s.41,0,.21-.24-.7.08-.76-.44c.23-.15.57,0,.69-.07s.42-.42.58-.32,1,.52,1.26.32a4.18,4.18,0,0,1,0-.73,1.12,1.12,0,0,1,.51-.49,1.33,1.33,0,0,0,1.05-.76c-.87.26-.4-.66-.63-1-.44.79-.51.62-1.37.44a3.73,3.73,0,0,1-1.51-1c-.64-.51-.07.85.05,1s-.21.55-.12.8a.94.94,0,0,1,.08.66ZM230.32,219c.08.2.54.56.73.46a.28.28,0,0,0-.16-.52C230.75,218.69,230.52,218.83,230.32,219Zm25.46,16.56c-.23.18-.54.57-.82.62s-.82.06-.88.33c-.2.92,1.35,0,1.5-.08C255.26,236.12,255.6,235.86,255.78,235.58ZM249.35,238c-.06-.31-.69-.26-.94-.15a1.44,1.44,0,0,1-1.25,0,1.21,1.21,0,0,0-.08.46A6.27,6.27,0,0,0,249.35,238Zm-18-19.38c0,.24.16.62.43.54s.34.19.49.5c0-.4-.19-.79.24-.95-.11,0-.2-.16-.31-.19,1-.51-1-1-.21-.13-.24,0-.35,0-.29-.31a.79.79,0,0,0-.27.07A.35.35,0,0,1,231.35,218.59Zm8.81-6.17a1.82,1.82,0,0,0-1.29.38.64.64,0,0,1,.39.67C239.38,213,239.84,212.76,240.16,212.41Zm-6.31,23.89c.05.11-.1.4-.09.53s.24.12.25.19c0,.39-.27.5.11.71s.55.13.48-.26c0-.22.34-.1.28-.51s-.11-.84-.17-1.26c-.12-.86-.93-.11-1.12.1l-.27,0C233.3,236.26,233.7,236,233.85,236.3Zm136.57-65.65c-.17,0-.92.06-1,.21s.14.53.29.61c.53.23,1-.44,1.38-.16s1,.37,1.05-.39A4.94,4.94,0,0,0,370.41,170.66Zm-134,44.86a1.62,1.62,0,0,1,.53-.71c-.34-.23-.14-.46,0-.75C236.11,214.07,236.25,214.9,236.46,215.51Zm.61-4.37-.11-.26.13,0C236.88,210.35,236.29,210.92,237.07,211.15Zm-3.78,23.21c-.22.32.44.7.69.62a3.23,3.23,0,0,0-.24-1.64c-.22.11,0,.25-.05.46A3,3,0,0,1,233.29,234.35ZM361.81,248.2c-.25-.05-.3-.4-.66-.41a.81.81,0,0,0,.34.59c.17.12.16.36.27.44s1,.19.64-.29A1.38,1.38,0,0,0,361.81,248.2ZM335.29,217c.09-.07.37.26.43.1s.28-.5.25-.64c-.2-1-1.28.2-1.52.1-.13.71-.39.63,0,1.33C335.09,218.09,335,217.26,335.29,217Zm4.07,34.51c-.25.59.49.39.69.31s0-.38.15-.36.43.1.58,0c.44-.25.64-.1,1.13.07,0-.89-1-.73-1.52-.73C340,251,339.54,251.08,339.35,251.51Zm45.48,26.22a2,2,0,0,0-.49-.84c-.32.3-.46.34-.44.81s-.17.32-.32.72,0,.69-.06,1a4.1,4.1,0,0,1-.56.83,3.43,3.43,0,0,1-.58.76c-.18.15-.62.38-.71.6l-.86,2.16c-.3.74,1,.22,1.24.38s1.41.32,1.56-.21a8,8,0,0,0,.57-2c0-.86.25-1.06.77-1.71a.43.43,0,0,0,.45.24c-.38-.43-.42-.47-.21-1l.65-1.55-.53-.87Zm-2.72,6.77c-.23.16,0,.44-.11.75C382.2,284.93,383,284.87,382.11,284.5Zm5.62-11.73c-.53.58-.66.56-1.44.57-.47,0-.4-.91-.92-1,.17.45,0,.9-.48.4-.13-.14,0-.45-.2-.59a1.84,1.84,0,0,1-.43-.37c-.35-.56,0-.58-.73-.66-.37,0-.62-.33-1-.33l.78.93.15-.2c.28.34,1,1.62,1.41,1.37,0,.48.38.83.33,1.29a1.88,1.88,0,0,1-.49,1.3,5,5,0,0,0,.7.36c.15,0,.57,0,.67.06.34.37,0,1.09-.2,1.39.48.15,1,.24,1.14-.45a4.39,4.39,0,0,0,.26-1.93c-.11-.36.32-.51.55-.46s0-.23.05-.34C388.14,273.76,388.39,272.69,387.73,272.78ZM229.12,238.3l.58.26.34-.47C229.6,237.62,229.49,237.94,229.12,238.3Zm139.21-69.95c.12.53.26.67-.12,1s.12.65.29,1a2.14,2.14,0,0,1-1.42-.18c-.35-.14-.9.41-1.09.08-.27-.49-.33-1-.85-.91l-1.72.33c-.35.06,0-1.1-.75-.79-.37.17,0,1.09.11,1.47.13.6-1.71,1.27-2.19,1.54.52.2,1.07.2,1.26.79A2.72,2.72,0,0,0,363,174c.05,0-.15.55-.22.6s-.58,0-.74,0-1-.09-1.2.13l-2.62,2.72c-.68.71-1.49,1.2-1.63,2.24-.91-.52-1-.6-1.89-.23s-.91.42-1.25,1.37l-.25-.85c-.24.21-.65.75-1,.79s-.81-.07-.94.36c-.3,1-.59,1.94-.89,2.91.3,0,1.3-.12,1.3.24,0,.86,0,.9.62,1.43-.72.57-1.35,1.11-.63,2.06.12.15-.51.61-.67.72-.36.24-.72.29-.63.76s.38,1-.1,1.26-.66.27-.58,1-.62,1.7-.91,2.34c-1.19-2.35-4.24-6.61-1.64-8.86.75-.64,1.21-.9,1.48-1.89a5.58,5.58,0,0,1,1.29-2.15c.4-.5,1-.88,1-1.59,0-.53,0-1.06,0-1.58,0-.12.67-.37.79-.43a3.3,3.3,0,0,0-1.29.22c-.36.14-.4.78-.52,1.15a8.49,8.49,0,0,1-1.43,2.1,2.74,2.74,0,0,1-.53-1.82,2.16,2.16,0,0,1-1.27.79c-.63.15-.79.16-1.18.69a17.37,17.37,0,0,0-1.53,2.69c.25.13.83.24.75.56,0,.13-.72.36-.86.42l-2.1.83.63-.76-2.17.14c-.2,0-.57.56-.71.71s-.49.14-.74.16a9,9,0,0,0-1.87.39c-.39.12-1.59.24-1.82.62-.81,1.28-1.6,2.55-2.34,3.88a22.34,22.34,0,0,1-2.45,3.3c.25.33.49.23.81.18s.44-.15.7.22c.08.11.38.67.51.65.84-.15.94,0,1.13-.94s2.54.31,2.59.88c.11,1.35.16,2.7.2,4.05a8.62,8.62,0,0,1-.59,3.27,14.66,14.66,0,0,1-1.21,3.2l-1.2,2c-.22.38-.84.53-1.2.73-.18.1-.5-.42-.69-.41s-.5.5-.6.61c-.51.52-.48.69-.53,1.48a6.87,6.87,0,0,1-1.43,3.1c1.12.55,2.14,1.2,2.31,2.59.12.93.28,1.11-.36,1.69a2.81,2.81,0,0,1-1.56.71c-.06-.53-.13-1.06-.19-1.58s-.6-.43-.28-1.08c.2-.41-.08-.83-.47-.68s-.91.56-1.19,0a4.62,4.62,0,0,1,.06-1.47,3.82,3.82,0,0,0-1.11-.34c-.31.09-.74.76-1,1l-1,1c-.51-.69.06-1.44.39-2-.57-.25-.62-.36-1.08,0a4.6,4.6,0,0,0-.75.91,3.19,3.19,0,0,1-.92,1c-.07.05-.83.56-.53.76a8.21,8.21,0,0,1,1.15.82c.5.47.44.4.92,0,.7-.61,1.41-.43,2.32-.43l-2.17,3.1a3.82,3.82,0,0,1,1.42.84l1.39,1.7-1.51.11,1.82.72-.91,1.1,1.5,0a24.3,24.3,0,0,1-.93,3.83c-.53,1.21-.84,2.48-1.85,3.25s-2.17,1.66-3.29,2.44l-1,.72c-.29.2-.21.18,0,.53s.25.72-.24.61c-.13,0-.41-.56-.5-.69.13-.07.22-.21.36-.28a1.51,1.51,0,0,0-1.73.24c-.32.43-1.17,1.18-1.2,1.76,0,.18-.14,1,0,1.08l1,1c.49.47,1.05.84,1.59,1.26s1,.66,1.26,1.47c.15.5.75,1.61.47,2.06a41.84,41.84,0,0,1-2.53,3.61c-.48-.29-.1-1-.45-1.22l-1.41-.9a2.85,2.85,0,0,0-2.35-.6c0-.22-.06-.45-.09-.67-.86.27-.67.34-.49,1.3a6.4,6.4,0,0,1-.09,1.75,1.77,1.77,0,0,0,.19.72c.16.44.14.37.55.24.21-.07.84,1.25,1,1.48.24.38,1.16.56,1.54.72a3.64,3.64,0,0,1,1.22.82c.32.44.3,1.19.56,1.69a12.52,12.52,0,0,0,1,1.32,4.16,4.16,0,0,1-2.06-.59c-.68-.29-.78-.53-1.21-1.2-.3-.46-.75-1.57-1.2-1.85l-2-1.26c-.3-.2-.33-1.65-.4-2a15,15,0,0,0-.73-2.18,16.77,16.77,0,0,0-2-3.67l-.56,1.24c-.24.53-.21.51-.78.53s-.54.06-.61-.58c0-.27,0-1-.17-1.23a5.13,5.13,0,0,0-1.86-1.85c-.75-.33-1.18-1.13-1.7-1.79-.25.3-.57.89-.92,1l-1.87.78c-.08,0-.49.13-.54.22s.23.54.15.7l-.7,1.23-2,3.5c-.22.39-.8.7-1.13,1s-.15.67,0,1.25a7,7,0,0,1,.47,1.67c0,.47-.17,1.26.06,1.68a3.19,3.19,0,0,0,1.13,1.37,5.68,5.68,0,0,1,1.22,1.32c.71.91-.8,2.28-1.29.92a12.72,12.72,0,0,1-.53-1.78c-.13-.61-.37-.64-.89-1,.06.44.25.85,0,1.17l-.92,1c-1.53-1.66-2.91-3.42-4.33-5.2a10.31,10.31,0,0,1-1.19-1.5,8,8,0,0,1-.4-1.34l-1.13-3.82-.52,1.33c-.17.45-.22.41-.67.51s-1.34-.7-1.8-1c.34-.18,1.11-.33,1-.84a2.51,2.51,0,0,1-.63.23,7.69,7.69,0,0,1-1.82-.48c-.37-.1-.81-.89-1.06-1.2s-2.84,1-3.28,1.15a9.52,9.52,0,0,1-3.15.29c-.46,0-.95.19-1.29-.19-.61-.68-.57-.94-1.28-.44a3,3,0,0,1-1.74.5c-.45,0-.86-.41-1.3-.49a1.76,1.76,0,0,1-1.43-.87c-.36-.44-.63-1.06-1.17-1-.94.11-.93.14-1.36,1-.14.32.85,1,1.08,1.25.82.8,1.56,1.67,2.33,2.52,0-.46-.09-.92-.13-1.39a4.36,4.36,0,0,1,.87,2,5.83,5.83,0,0,0,2.26-.91,9.93,9.93,0,0,0,1.12-2.25c.19.55.3,1.5.84,1.69a6.33,6.33,0,0,0,1,.36c.29,0,.58-.14.8.11s.5.7.73.67c.42,0,.33.28.4.7s-.58,1.34-.76,1.71c-.05-.12-.18-.22-.23-.35a2.79,2.79,0,0,0,0,1.4c.13.48-.07.48-.42.78l-1.09.92c-.22.18,0,.87-.23,1.05s-.54,0-.72.11l-.8.64c-.37.3-.16.84-.51,1.08l-1.87,1.29c-.19.12-.19.24-.27.48s-.32.33-.59.46c-.56.27-1.1.62-1.65.93s-.36.75-.84.87c-.74.2-.76.37-1.11-.35l-1-2.21a9.15,9.15,0,0,0-2.23-2.67,1.63,1.63,0,0,0-1.32-.69c-.4,0-.69-1.16-.87-1.53a6.62,6.62,0,0,0-1.17-1.45c-.24-.27-.64-.33-.93-.62l-1.81-1.89c-.3-.31-.62-.9-1.07-.65-.06-.47-.12-.94-.17-1.41q-.05.88-.11,1.77a7.71,7.71,0,0,1-1.88-1.68c-.29.67.72,1.39,1.1,1.82L259,246.1c.46.54.54,1.25,1.11,1.62.24.15.81.37.94.65.21.5.43,1,.65,1.5.12.29.25.88.54,1a6,6,0,0,1,1.16.65,13.81,13.81,0,0,1,1.53,2.19c.16.23.88,0,1.11.17l1.1.76c.61.42,1.71.77,1.17,1.66.53,0,1.33.89,1.7.69l3.75-2.14c.23-.13.87-.62,1.17-.31s.05,1.6.06,1.9a13.64,13.64,0,0,1-.73,3.44,10.79,10.79,0,0,1-.8,2.7c-1.18,2.14-2.66,4.22-3.33,6.63-.15.53-1.27,3.36-.88,3.71a2.12,2.12,0,0,1,.9,1.66,1.69,1.69,0,0,0,.87,1.39c1,.8,1.15,2.4,1.53,3.62a2.9,2.9,0,0,1-.82,2.73c-.36.31-1.14.72-1.36,1.17l-.84,1.73c-.25.51-.63.82-.26,1.3.25.32,1,1,1.08,1.41a6.5,6.5,0,0,1,.29,2c-.12.39-1.07.91-1.37,1.17-.5.42-.31.65-.19,1.37a5.46,5.46,0,0,1,.27,1.74,30.1,30.1,0,0,1-1.31,3.49,18,18,0,0,1-1.07,1.56c-.2.29-.53,1.06-.84,1.22l-3.41,1.71-1.57.79c-.25.12-1-.44-1.22-.57-.81-.42-.78-.41-.93-1.38-.05-.37-.63-.91-.84-1.19l-1.4-1.88a4,4,0,0,0-1.26-.78c-.26-.15-.51-1.12-.63-1.4l-1-2.3A10.07,10.07,0,0,0,252,290.9l-1.41-1.63c-.21-.24-.16-.81-.19-1.1a11.09,11.09,0,0,1-.11-4.08c.34-1.31-.29-2.11-.87-3.22l-1.9-3.59c-.19-.36-.83-.69-1.13-.93l-1.76-1.4c-.32-.25-.26-.7-.31-1.1-.12-.82-.23-1.64-.35-2.46s-.07-.75-.61-1.19-.61-.56-1.3-.34c-.4.13-1.16.6-1.54.32l-1.65-1.2a8.94,8.94,0,0,0-2.95,1.14l-1.56,1.39c-.41.37-.65.3-1.2.3a2.18,2.18,0,0,0-1.43.25l-1.79,1.22c-.28.19-.75-.14-1-.26l-2.25-.86a4.83,4.83,0,0,1-2.14-1.26l-3.51-3.56-1.13-1.14c-.17-.18,0-1.07.07-1.31,0-.41.28-1.2.08-1.58l-1-1.88a6.79,6.79,0,0,1-.83-1.61,3.75,3.75,0,0,1,.27-1.06c.41-1.6.81-3.2,1.22-4.81a5.15,5.15,0,0,1,1.64-2.42c.4-.43.62-.5.55-1.11s-.16-1.54-.25-2.31,1.6-1.53,1.71-2.47c.08-.65,0-1.51.52-1.83.14-.08.79.61,1.24.38.2-.1.64-.45.87-.4s.66.25.74.16a16.86,16.86,0,0,1,1.2-1.22,11.45,11.45,0,0,1,2.74-1.71,3,3,0,0,1,.9-.34,2.45,2.45,0,0,0,.8.05c.24-.08.4-.42.63-.53a3.62,3.62,0,0,1,.68-.14,2.62,2.62,0,0,0,1.62-.63c.39-.4.91-.15,1.44-.07-.15.87-.21.92.38,1.55.28.29-.31,1-.47,1.32.47.24,1.1.75,1.62.75h2.64c.68,0,.69.75,1.39.85s1.11-.14,1.71.09c.85.32,1.26.35,1.49-.69,0-.24-.38-.48-.33-.7s.1-.75.26-.84a3.2,3.2,0,0,1,2-.66c.19,0,.13.41.37.39l1.18-.06c.31,0,.37.12.6.38s.32-.29.46-.28l1.92.06a1.4,1.4,0,0,0,1.34-.47c.6-.52.64-.64,1.4-.49a1.8,1.8,0,0,0,2.23-1.4c.06-.7.66-3,.05-3.51-.39-.34,0-1.38-.19-1.5s-.37.21-.47.36-.45-.11-.61,0-.28.63-.47.79a2.89,2.89,0,0,1-.82.26c-.51.16-.88-.34-1.37-.3-.33,0-.64-.09-.67.29s0,.43-.42.61-1.16-.19-1.53-.3c-.68-.18-2.14-1.62-1.7-2.5l-.61.24c-.28-.68.58-1.11,1-1.22a3.26,3.26,0,0,0,1.65-.86l-.68-.15c0-.38.81-.42,1.15-.46.64-.07.62-.25,1-.71.26-.29.62-.73,1-.8a3.43,3.43,0,0,0,1.41-.42c-.06.23.19.36.43.4s.14-.34.6.05c.17.14,1.14,0,1.47.08.56.07.79-.32,1.32-.39a2.17,2.17,0,0,0,1.34-.85c.34-.36-.08-1-.41-1.24s-.94-.27-1.43-.54-1-.7-1.57-.62a5.9,5.9,0,0,1-.66-.19c-.26-.09-.52-.22-.78-.32,0-.05.11-.3.11-.3l.66,0c-.37-.62,0-.94.5-1.05a2.25,2.25,0,0,1-.84-.47l.62-.18c-.28-.44.44-.25.45-.57s-.45-.09-.59,0c-.49.22-1.05.38-1.29,1l0-.17a2.27,2.27,0,0,0-1.07,1c0-.08,0-.17,0-.25-.61.08-.15.75.17,1s.82,0,1.3-.15c-.18.71-.7.36-1,.66s-.93,1.22-1.46,1c.07-.8-.24-.62-.92-.75.26-.23,1.3-1,.45-1a2.29,2.29,0,0,0-.78.2c-.18.06-.5-.15-.69-.22.33-.06.77,0,.85-.4-.3.27-1.29.1-1.43.39s-.69,1-.65,1.37a3.18,3.18,0,0,1,.09.88c-.07.19-.52.29-.51.5,0,.66.19,1.12-.23,1.59s-.14,1,.22,1.41,1.14.42,1.13.57c0,.44-.9.12-1.1.44l-.89,1.41c-.16-.42.07-.56.31-.82-.25,0-.52,0-.81,0a7.62,7.62,0,0,0-1.06.11c-.2,0-.39.21-.54.33s.16.35.09.44c-.25.35-.55.17-.88,0-.21.42.21.65.46.91s.4.35.12.84c.59.22,1.17.19,1.25.94-.36-.15-.64-.38-.85.09.41,0,.51.21.29.5s0,.4.16.73c-.35,0-.59.15-.82-.16s-.33-.13-.52.14c-.49-.81-.69-.84-.16-1.57-.63.16-.65.09-1.18-.38-.3-.26-.6-.77-.94-.92-.61-.28-.51-.64-.62-1.33s-.31-.58-.88-.83a5.13,5.13,0,0,0-2.43-.72c-.2,0-.81-.45-.93-.64a1.71,1.71,0,0,0-1-.95c0,.7-.38.44-.59,0s-.08-.34-.54-.08-.73.39-.28.86c.16.17-.1.72.31.9A4.77,4.77,0,0,1,237,232c.3.25.39.74.74.92s.67.4,1.11.31c.29-.06.78-.21.43.27.49.23,2.74.53,2.4,1.36-.23-.05-1-.7-1.21-.41a.94.94,0,0,0-.19.72c0,.31.19.24.44.35.71.3-.25.69-.14,1s-.46,1.28-.61.64a.85.85,0,0,0,0,1.18c.3.34-.47.69-.64.39-.33-.53-2.24,0-1.71-1a3.69,3.69,0,0,0,2.38-.7c.2-.23-.06-.35.17-.57s-.61-1.23-.75-1.21-.55.11-.58-.15a.32.32,0,0,0-.56-.19c0-.28-.71-.56-.94-.47-.4.17-.74-.18-1.12-.4-.67-.38-1.46-.45-1.81-1.12s-.34-.67-1-.82c-.33-.08-.73-.1-.87.22a7.54,7.54,0,0,1-1.55,1.74l-1.64-.1c-.28,0-.54.64-.68.87s.43.81.31,1.13-.76.68-1,.89a4.24,4.24,0,0,0-1.06,2.35c-.08.29.62.35.42.84-.12.31-.51.85-.28,1.12-.17.09-.58.22-.64.41s-.13.69-.29.75a12,12,0,0,1-1.57.41c-.47.1-.6.75-.93,1s-1.09-.38-.76-.79c-.35.3-.73-.34-1.16.09s-.74.07-1,.44a3.45,3.45,0,0,0-.12-.94l-.17-.5c-.07-.18-.18.09-.27,0-.44-.39-.24-.56-.25-1.13s.16-1.45-.18-1.89a2.62,2.62,0,0,1-.4-1.46c-.23.3-.53-.08-.49-.39s.58-.42.75-.5a1.09,1.09,0,0,0-.13-.14c.38-.58.77,0,1.17-.25a2.12,2.12,0,0,1,1.43-.37c.5,0,.83-.31,1.29-.27a2.7,2.7,0,0,0,1.18-.18c.77-.39.25-2,.07-2.61s-.11-.84-.74-.87c-.37,0-.57-.61-.55-.81-.29.16-.22-.07-.37-.09s-.52,0-.59,0c-.3-.13-.43-.23-.73-.13a.46.46,0,0,1-.57-.11c.08,0,.15-.12.24-.15a.54.54,0,0,1-.47-.4,2,2,0,0,0,1-.45c.51-.6.36.28.74.07.14-.07.88-.4.79-.61a3.71,3.71,0,0,0-.57-.88c.17,0,.46-.16.57,0s.12.26.36.22a1.78,1.78,0,0,0,1.05-.44c-.11,0-.23,0-.34,0,.14-.38.55-.61.84-.86s-.17-.54,0-1c.06-.2.76-.56.94-.72a1.76,1.76,0,0,1,1-.39c-.15,0-.56,0-.62-.12s.35-.17.38-.22-.06-.25,0-.36a2.11,2.11,0,0,0,.15-1.07c0-.21.34-.26.43-.45.3-.63.8-.45,1.27-.74.07,0-.07-.27.05-.32l.41-.17a2.46,2.46,0,0,1,.68-.1c-.18-.39.18-.37.46-.48-.17,0-.69-.26-.52-.49s0-.26-.23-.59,0-.61-.43-.79-.29-.3-.4-.65c-.18-.58-.24-1.26.37-1.45s.72-.74,1.11-1.09c-.19.54-.1,1.56.63,1.55-.23.74-.93,1.14-.57,2,.27.59,1,1,1.48.54,0,.19-.07.38-.1.56.65.18.92-.75,1.39-.93a1.06,1.06,0,0,1,.82.28c.18.3.49.3.81.38a1,1,0,0,0,0-.32l-.48.08c.29-.31,1.5-.65,1.65-1a1.73,1.73,0,0,1,1.94-.92c-.06,0-.27,0-.38-.06.15.53.89.41,1.08,0,.07-.15,0-.47.09-.56s.21-.07.26-.14.36-.36.43-.61a1.47,1.47,0,0,1-.22.59c1,.2,0-1.3-.09-1.7a1.18,1.18,0,0,1,.05-.9c.13-.27-.12-.6.13-.91.64-.8,1.18.46,1.78.35.33-.06.44-.59.32-.87s-.12-1-.18-1-.22.21-.3.18a4.37,4.37,0,0,1-.45-.29c-.11-.08-.45-.7-.38-.76a4,4,0,0,1,1.72-1l1.41-.19c.65-.09.05-.17.36-.51s.58-.21.81-.46.66-.11.88-.14c-.24-.39-1.12-.32-1.53-.37,0-.11,0-.27,0-.38-1.21.58-2.43,1.24-3.67,1.83-.13.06-.61.4-.73.28a1.24,1.24,0,0,0-.91-.46c-.56-.07-.5,0-.57-.65a2,2,0,0,0-.27-1c-.14-.25-.59-.8-.6-1.09s.4-.8.51-1c.29-.58.77-1,1-1.63.14-.3.29-1,.53-1.18s.69,0,.4-.52a1.32,1.32,0,0,0-1.55-.63c-.89.2-1,.19-1.41,1-.28.54-.39,1,.08,1.42s-1.66,2.3-1.79,2.62c-.4.91-1.1,2.39-.16,3.34.41.41,1.2.18,1.6.67s-.3.86-.52,1.18c-.38.56-.73.83-.65,1.54a8.7,8.7,0,0,1,.21,1.93c-.11.77-.63.9-1.19,1.19-.22.1-.14.39-.14.65s-.2.27-.47.36c-.41.14-.43.25-.62-.19a2.18,2.18,0,0,1-.3-.84c0-.53-.8-.93-1.18-1.23-.16-.13-.17-.45-.31-.62a4.19,4.19,0,0,1-.57-.67c-.12-.23,0-.72-.31-.71s-.4-.4-.54-.62a1.53,1.53,0,0,1-.52,1.31c-.29.35-.48.83-.79,1.15-.48.5-2,.71-2.26-.18-.33-1.09-1-2-1.27-3.15-.2-1-.14-1,.39-1.73a6.11,6.11,0,0,1,1-1,4.1,4.1,0,0,0,1.16-1.25c.26-.51.52-1,.82-1.47a13.2,13.2,0,0,0,1.11-3.3,19.55,19.55,0,0,1,1.49-3.13,8.12,8.12,0,0,1,1.82-2.82,27.13,27.13,0,0,1,3-2.09c.4-.24.44-1,.78-1.35a2.47,2.47,0,0,1,1.31-.6,3.3,3.3,0,0,0-.54,1.91c.47-.22.68-1.17.89-1.66l.34.72.44-1.07c.06-.15.67-.18.83-.21l-.23.8c.71.29.08-.72.61-.65l1.68.2c.48.06-.22.67-.37.75a4.85,4.85,0,0,1-1.28.21c.28.3.65.07.92.43.07.09.54-.21.73-.24.45-.07.91,0,1.1-.46.08-.22.73,0,.94.08,0,.43-.45.27-.76.28.1.87,1.46.16,1.86.07a3.75,3.75,0,0,1,2.11.15,10.8,10.8,0,0,0,2.28.43,2.28,2.28,0,0,1,1.81.79c.38.58.34.57.13,1.21-.13.4-.15.63-.47.84a2.76,2.76,0,0,1-1.83.61,17.86,17.86,0,0,1-4.45-.32c.51.3,1.87.76,2,1.37s.38,1.88,1,2,1.7.62,2.25.2c.32-.25,0-.78-.38-.68s-.6-.2-.94-.45c.43-.67.5-.56,1.27-.5l1.88.14a9.13,9.13,0,0,1-.78-1.19l1.06-1.21c.19-.21.49-.76.79-.75l1.47,0c0-.28.08-.82-.08-1,0-.07-.68-.67-.68-.57,0-.45,0-.89,0-1.33,0-.16-.61-.47-.74-.57l1.71-.22c.43-.06.87.5,1.21.78-.27.1-1.1.23-1.17.53-.13.47.39.63.74.91s.75-.05,1.16-.23,0-.5.21-.94c.08-.2.53-.43.69-.56l1.32-1.07,2-1.63c.41.66.4.65,1.11.65.46,0,.48-.88.86-.94a2.24,2.24,0,0,0,1.39-.47,1.65,1.65,0,0,1,1.36-.48l-.16.58c.76,0,.73.07,1-.67s0-.67-.59-1.12a5,5,0,0,1,3.44-.77l2.25.27a8,8,0,0,1,1.69.7c0-.27,0-1.19-.25-1.29l-1.8-.73c-.4-.15-.05-1,0-1.38s-.81-.41-1.07-.5L270.8,184c.27-.36.15-1.36.18-1.81s2.53-.64,3.1-.73c-.06.63-.12,1.27-.18,1.9,0,.33.66.89.87,1.14.38.44.16,2.92.63,3.09s1.13.11,1,.79c-.06.38,0,1.22-.27,1.49l-1.33,1.39c-.19.2-1,.15-1.26.18a2.54,2.54,0,0,0,2.55.12,7.35,7.35,0,0,0,1.6-2.33c.44-.77-1.35-1.28-.18-2,.22-.14.81-.69,1.06-.52l1.26.86c-.2-.47-.27-1-.73-1.13a1.18,1.18,0,0,0-1.26,0c-.14.06-1.31.66-1.37.56-.18-.31-.65-.84-.59-1.2s.41-1.12,0-1.45-1.14-.73-1-1.15.6-.75,1-1.08-.21-1-.37-1.21c.25-.14,1,.45.89.79-.18.81-.14.78.43,1.37.39.4,2.34-.1,2.84-.2a22.54,22.54,0,0,1-2.3-.31c-.89-.16.33-1.11.61-1.3a2.94,2.94,0,0,1,2.37-.32,5.18,5.18,0,0,1,1,.29c.3.1.62-.15.9-.27-.16-.23-.42-.8-.65-.93s-.9.08-1.15.1-.77-1.36-.93-1.7l3.1-1.17,1.76-.66c.39-.15.12-.53,0-.93-.18-.8-.25-.79.26-1.31a9.91,9.91,0,0,1,1.15-1.16,20.6,20.6,0,0,1,3.06-1.45,32.15,32.15,0,0,0,5.34-2.8c.39-.28,0-.94.31-1.21l1.43-1.28a2,2,0,0,1,2.43-.24l-1.43.89,2.56-.3-.78,1.15,1.39-.27c0-.18-.3-.84-.13-.88l1.07-.24a3,3,0,0,1,1.65-.2,7.16,7.16,0,0,1,1.89.69c.12.1.7.44.67.59s0,.75-.15.88l-5.54,5.81,4.24-2.51-1.23.13c.36-.53,1-1.09,1.65-.83a2.22,2.22,0,0,0,2.16,0,20.5,20.5,0,0,1,4-.75l-.63.64c.36.07,1.07.37,1.4.26l1.55-.49c.31-.1,1.21-.17,1.16-.58-.1-.84-.17-.79.54-1a9.15,9.15,0,0,0,1.49-.43c.34-.17,1-.69,1.4-.67s1.07.71,1.4.93.12,1.2.18,1.46.41,1.4.57,1.44l1.66.45c.25.07.6-1.19.7-1.42.27-.66.18-.7.83-.49s.83.37,1.41,0c.37-.23.78-.66,1.23-.57s1.1.41,1.37.21l1.32-1c-.21-.21-.82-.63-.7-.92s.32-1.18.54-1.21l2.95-.38a18.2,18.2,0,0,1,2.29,0,11,11,0,0,1,2.64,0c.48.12,1.84,1.43,2.24,1.24l2.71-1.23a5.35,5.35,0,0,1,2.4-.14c.49,0,.69-.11,1,.34a1.54,1.54,0,0,1,.28,1.17,4.44,4.44,0,0,0,2.35-.17,6.56,6.56,0,0,1,2.49-.7c.36,0,.89.05,1.13-.25.37-.47.32-.46.83-.17a5.58,5.58,0,0,0,1.37.78c.3,0,.82-.31,1.1-.41l-.76-1.82,4.14-.75a9.58,9.58,0,0,1,3.38.49c1.25.25,2.47.54,3.71.87a1.7,1.7,0,0,1,1.35.9c.54.77.52,1.07,1.36.85l-.57-1a5.75,5.75,0,0,1,2.16-.23,6.53,6.53,0,0,1,1.83.8c-.22.3-.49.92-.8,1.1A3.52,3.52,0,0,1,368.34,168.36Zm-98.56,57.19c-.18-.09-.28-.5-.46-.55-.76-.23-.59.83-.5,1.21a1.42,1.42,0,0,1-.56-1.56c-.31-.05-.94,0-1.2-.21s-.38-.85-.49-1.09c0,0-1-.14-.64-.34s.59.25.92-.16c-.33-.18-.6-.16-.47-.55a.77.77,0,0,1,.56-.42,7.67,7.67,0,0,1,1.65-.18.94.94,0,0,0-.33,1c.18-.49.22-.77.7-1-.45-.71-.49-.15-1.2-.19,0-.37.14-.81-.12-1.09-.11-.12-.58-.73-.74-.39s-.63.15-1,.11-.58.48-.82.59c-.61.28-.66-.07-.63.78,0,.24-.68.6-.84.73-.4.3-.36.32-.33.87,0,.25-.29.61-.41.83a.88.88,0,0,1,1,.59,3.14,3.14,0,0,0,.78,1.5c.28.34.74.35,1,.66a2,2,0,0,0,1.3.79c-.43.27-.54.24-.53.79a7,7,0,0,1-.08,1,2,2,0,0,0,.21,1.05c.16.44.26.32.69.31s.46.25.77.27l1.12.05c.48,0,1.17-.46,1.63-.65a5.6,5.6,0,0,1-.51-1.64c-.06-.89-.34-.4-.83-.92a2.67,2.67,0,0,0,.33-.06c-.07-.13-.18-.4-.3-.47s-.37.12-.49,0c-.3-.23-.23-.54-.18-.85a4.51,4.51,0,0,0,1.56-.32C270.43,225.75,270.06,225.7,269.77,225.54Zm-147-11.88c.37,0,.84.07,1.1-.27a1.77,1.77,0,0,0-.31-.15C123.31,213.33,123,213.34,122.82,213.66Zm47.45,62.08a2.86,2.86,0,0,0,1,.24c.19,0,.34-.36.71-.34a2.37,2.37,0,0,0-.27-.25C171.29,275.37,170.47,275.15,170.27,275.73ZM160.4,249.6l-.08.14.09,0c.09-.2.14-.29,0-.45,0,0,0,.1-.06.15a.35.35,0,0,0-.56-.06c-.24.19-.41,0-.64.23h.24C159.71,249.68,160.18,249.83,160.4,249.6Zm-1.76-.21c-.2-.08-.21,0-.24.05l.21.13C158.62,249.51,158.63,249.45,158.64,249.39Zm.48.28,0-.11-.27-.06-.12.18A.94.94,0,0,0,159.12,249.67Zm20.39-11.53c0-.26.1-.52.14-.77-.73-.1-1.21,1-1.3,1.64a6.16,6.16,0,0,1-.91,2.57,1.66,1.66,0,0,0,.17,1c.23.21.79,0,1-.1a3.81,3.81,0,0,1,2.31-.28.52.52,0,0,0-.25.65c.63-.31.64-.81,1.32-1,0,.54,0,.56.47.62s.47,0,.61-.36-.36-1.24-.56-1.62-.63-.24-.64-.4c-.05-.46-.12-.46-.49-.72s-1.14.39-1.39.54c-.07-.17-.12-.55-.29-.58s-.43,0-.47-.16C179.09,238.66,179.24,238.57,179.51,238.14Zm-.3,35.43c.31.41,1-.17,1.12-.51l-.16-.1C179.8,273,178.77,273,179.21,273.57Zm-7,.1c.3-.17.6-.36.9-.54a1.74,1.74,0,0,0-.89-.26c-.24,0-.46-.3-.56-.26a1.68,1.68,0,0,1-1.48-.29,1.06,1.06,0,0,0,0,.14,7.26,7.26,0,0,0-3.42-.51,5.13,5.13,0,0,0-1.73.71c-.48.26-.49.8-.83,1.17.94.22,1.39-1.88,2.42-1.27a.56.56,0,0,1-.4.19.59.59,0,0,0,.65.06c.24-.15.31,0,.59,0,.45-.1,1,.11,1.45,0s.61.47,1.17.57c.14,0,.59-.23.68.11,0,.11-.3.53-.36.63C171,274.09,171.54,273.78,172.18,273.67Zm1.93-29.32c-.2.82.5.76,1,.86s.6-.22.84-.68l-1.53.27ZM173,241.27c.6.27,2,.92,2.48.25A2.94,2.94,0,0,0,173,241.27Zm37.45,47.61c.52,1,.54,1,.18,1.95q-.65,1.82-1.31,3.63a3.09,3.09,0,0,0-.39,1.66l.86,4.6c.19,1-.57,2.31-.88,3.24-.14.4-.17,1-.57,1.15s-1.32.23-1.59.54l-2.44,2.83c-.16.19.24,1.67.27,1.95s.24.85.11,1.16L203,315.41l-1.5,3.51c-.12.26-2.76-.13-3.16-.15,0,.87,1.38.6,1.71,1.27a5,5,0,0,1,.63,1.27,4.27,4.27,0,0,1-.42,1.19c-.31.86-1,1-1.72,1.45a3.62,3.62,0,0,1-1.92.54c.28.46.46.64.4,1.16,0,.32.23.77.09.93-.64.76-1.16.64-2.09.45a6.63,6.63,0,0,0,.33,1.37c.14.27.75.64.7,1-.11.61-.22,1.21-.32,1.82s-.2.57-.72.85-.42.68-.55,1.19c-.08.32.65.71.89.91s1-.21.94.33a2.4,2.4,0,0,1-.27,1.21,3.79,3.79,0,0,0-.52,1.32c0,.7-.19.78-.67,1.25s.6,2,.87,2.6c.1.22.24.76.46.86l1.54.75c.9.43,1.37.19,2.31,0l-2.25,1.83c-.6.49-.78.35-1.56.19l-3.4-.66c-.58-.11-.82-.67-1.21-1.17-.91-1.18-2.18-2.25-2.4-3.77l-1-6.82c-.32-2.19-.81-4.43-1-6.63q-.29-4.16-.59-8.33-.18-2.54-.35-5.06a17.1,17.1,0,0,0-.16-2.26,12.31,12.31,0,0,0-.72-1.79,5.8,5.8,0,0,0-.63-1.59,5.16,5.16,0,0,0-1.48-.54l-2.2-.8a3.83,3.83,0,0,1-1.61-1.28L176.09,300l-2.82-3c-.58-.62-.27-2.13-.29-2.94a5.18,5.18,0,0,1,0-1.6l.71-1.67c.53-1.24,1.06-2,.47-3.41-.13-.32-.38-.44-.2-.75,0,0-.22-.48-.22-.66,0-.47-1.1-.61-1.11-1.07s0-.49-.52-.62-.35-.08-.63.18a3.45,3.45,0,0,0-.5.69c-.08.13.33.42.43.53-.55.43-.5.5-1-.11,0,.4-.81-.06-1.17,0-.19,0-.26.25-.39.2l-.68-.28a6.1,6.1,0,0,1-1.7-.71c-.32-.3-.35-.87-.73-1.13-1-.65-1.6-1.29-2.7-1.3-.85,0-2.19.28-3-.17L158,281c-.45-.26-.86.25-1.26.5-.9.56-2.08.11-3.11,0l-2.49-.32a3,3,0,0,1-1-.13l-1.86-1.11c-.57-.34-.38-.68-.36-1.37,0-.45-1-1.06-1.28-1.34a4.79,4.79,0,0,0-1-.73l-2-1.05c-.15-.08-.09-.46-.1-.62s-.37-.35-.48-.44a6.92,6.92,0,0,0-1.49-1c-.48-.2-.95-.28-1.23-.75-.16-.26-.74-1.58-1-1.63l-1.64-.28a7.37,7.37,0,0,0,1.16,1.89,7.1,7.1,0,0,1,1.8,1.57,1.86,1.86,0,0,0,.88.71,2.2,2.2,0,0,1,.71.82,3.44,3.44,0,0,1,.6,1c.19.59.33.1.55.18s.73.36.77.67-.28.61-.53.35a4.85,4.85,0,0,0-1.92-1c-.19-.08-.33-.83-.4-1s-.63-.41-.9-.54-.45,0-.74-.13l-1-.51c.31-.12,1.05-.39.47-.9a2.57,2.57,0,0,0-1.39-.81c-.42-.08-.67-.67-.93-1l-1.3-1.79a3.25,3.25,0,0,0-2.33-1c-.61,0-.79.09-1.19-.39l-1.31-1.6c-.64-.78-1.6-1.12-2.14-2a9.39,9.39,0,0,1-1.18-3.36c-.24-1.13-.48-2.26-.71-3.39a7.08,7.08,0,0,0-1.27-2.65,14.84,14.84,0,0,1,2,.08c-.21-.91-.2-1-1-1.51a8.43,8.43,0,0,0-1.68-.81,7.16,7.16,0,0,0-1.58-.16c-.9-.14-1-.14-1.62-.9s-2.29-1-2.48-2.14-.23-.93-1.17-1.23c-.13,0-.34,1.16-.82.72s-1-1.22-1.48-1.31a2.06,2.06,0,0,1-1.29-.68,12,12,0,0,0-1.56-1.4,9.37,9.37,0,0,0-1.56-.56,12.71,12.71,0,0,0-3.43-.68c-.49-.05-.94.47-1.42.49a6.52,6.52,0,0,1-1.68-.51,1.81,1.81,0,0,0-1.51-.06c-.56.21-.81.44-.4,1.11s-1.85,1.83-2.33,2.15a.38.38,0,0,1,.13-.6c-.43,0-.43-1.25-.22-1.46a2.61,2.61,0,0,1,1.46-.73l-.57-.29.42-.52a4.86,4.86,0,0,0-2.08,1.72,6.06,6.06,0,0,0-1,2.51h.77a10.7,10.7,0,0,1-1.82,2.85c-.38.47-1.79,1.25-1.66,2s-1.75,1.53-2.26,1.84a4.12,4.12,0,0,1-.67.29c-.28.11-.1.23-.28.43a1.5,1.5,0,0,1-1.24.63,7.51,7.51,0,0,1,1.24-1.29c.34-.36,1.22-1.79,1.74-1.27.13-.52.8-1.8,1.4-1.58-.3-.44.5-1,.46-1.54a1.23,1.23,0,0,1,.16-1c.14-.24.31-.39,0-.64-.54.52-1.08,1.27-1.86,1-.27-.1-.83-.48-1.07-.29l-.88.7L91.77,249c-.14.14-.84,1-1,.93a5.28,5.28,0,0,1-1.42-.65,6.83,6.83,0,0,1-.8-1.56c-.19-.37,0-.75.15-1.13.21-.74.12-.9.83-1s.55-.58,1-.92,1,0,1-.73-.25-.56-.69-.85l.39-.38c-.39-.59-.75.12-1.07.43s-.56.09-1,.27c-.91.37-1.91.84-2.7,0,.11-.06.19-.22.3-.27a2.6,2.6,0,0,1-1.57-.31A4,4,0,0,1,87,241.62l-.21-.17a3.07,3.07,0,0,1,1.44-.85c.17.76.71.49,1.33.49s.64-.27,1-.69l-.68-.1.21-.16c-.27-.12-.4-.31-.2-.54a6.43,6.43,0,0,1-1.59.09c-.45,0-.63-.69-1.08-.78s-1.59-.07-1.78-.32,0-.75,0-.9.28-.15.37-.18c.43-.15,1.15-.18,1.33-.67a8.28,8.28,0,0,1,.68-1.62,5.4,5.4,0,0,1,2.27-1.88,3.15,3.15,0,0,0,1.44-.9c.53-.71.48-.71,1.32-.52s2.47-.79,3-.06c.36.53,2.28,0,2.94-.11,1-.13,2-.27,3-.35l4.45-.37a12.62,12.62,0,0,1,3,.39c.17,0,.84-1.44,1-1.64s.91.32,1.18.11c.45-.35,2.34-2.32,2.81-1.87L112,230c.75.27,2.36-2.11,2.75-1.38l.51-1.05c.14-.29-.37-.22-.09-.61.82.57,1.63,1.08,2.49,1.55a2.46,2.46,0,0,1,.45-1.61c.4.25-.11.53.38.67.18.05,0,.46,0,.63.25-.14.76-.29.94-.52s-.21-.38-.06-.43l.44-.19c.53-.22,1.39.11,2,.2a24.51,24.51,0,0,0,3.57,0l-.14-.22a3.09,3.09,0,0,1,1.87.33c.53.19-.72,1-.81,1.1a4.21,4.21,0,0,0,1.53,0l2.34-.82c.36-.12,1-.41,1.34-.08l1.52,1.34-.35-.67c-.07-.13,0-.31,0-.44-.24-.54-.44-.34-.28-1,.12-.43,1.73-.9,1.21-1.37a5.26,5.26,0,0,1-2.05,1.13c0-.77.31-.77.9-1.16s.69-.49,1.4-.3c.2.05.42.43.56.59s.36.13.63.12a10.32,10.32,0,0,1,1.59.07c.45,0,2.78-.29,2.79-.63,0-.7,0-1,.69-1.2a6.56,6.56,0,0,1,1.49,0c0,.23-.11,1,0,1.13s.82.29,1,.36c-.42-.68-.86-1.25,0-1.62.36-.16.48-.55.69-.89s-.06-.46-.17-.71l-.61.52c-.28-.7.22-1,.71-1.13-.17-.56-.6,0-1-.06s-1.3,0-1.49-.23a3.8,3.8,0,0,1-.68-1.63c-.16-.66.12-.83.67-.76,0-.34-.24-.4-.5-.29.41-.44.48-.42.31-1a2.36,2.36,0,0,0-.6-1.16,2.71,2.71,0,0,1-.36-1.26c-.06-.32.5-.29.74-.35-1.14-.74.49-.88,1.09-1a7,7,0,0,1,2.33-.27,7.55,7.55,0,0,1-.8,2.19c-.36.37-1.48.44-1.94.55,1.52-.17.09,1.22.3,1.67.71-.33,1.3.21,1.62.88.21.43,1.08.78,1.47,1.07l-.9,1c.4,0,.75.21,1-.11s.64-.11,1,0l-.42.49c.42.21.61.17.62.67s0,.62.45.78a1.86,1.86,0,0,0,.17-1.1c0-.17-.07-.9.29-.79s1,.15,1.07.37.57.77.11,1.06c0-.1-.11-.19-.13-.28-.87.83,1.92,2.26,1.73,1.14-.05-.32-.14-.49,0-.74s.37-.42.32-.59c-.22-.82-.19-.78.41-1.27-.39-.36-.7-.5-.73-1s.28-.49.76-.53c.31,0,1.12-.28,1.39-.09a1.58,1.58,0,0,0,1.24.36c-.12.49.33.67.15,1s-.67.3-.89.38a3.46,3.46,0,0,0,1,1c.46.25.7.48.43,1.09-.17.4-.76.79-1.05,1.1s-.65-.09-1-.27l.67.84-.74-.17.15.24-.71,0c-.16,0-.14-.41-.29-.37-.34.1-.84.08-.91.52l.72.2a2.77,2.77,0,0,1-.5,1.14c-.42.41-.66.22-1.24.09a5.3,5.3,0,0,0-2.48.21l2.07.44a6.08,6.08,0,0,0,1.73-.23c-.11.38-.19,1.37-.48,1.61s-.37.4-.58.44-.53,0-.71.23c-.55.66-.59.7-1.42.66-.52,0-1,0-1.56,0l1.08.19c-.05.08-.07.18-.13.26a1.11,1.11,0,0,1,1.1-.14c.28.07.75.33.39.63a1.93,1.93,0,0,1-1.06.47c-.16,0-.26.65-.31.79a6.94,6.94,0,0,0-.63,2.31c0,.88.09,1.77.14,2.65.36,0,1.09-.2,1.4,0s.77,1.12,1,1.45c.42.61.51.33,1.12,0a2.16,2.16,0,0,1,1.12,0,9.72,9.72,0,0,1,2.89.63c.32.12,1,.55,1.33.49l1.5-.23c.18,0,1.1-.28,1.15-.08l.45,2c.21.95,1.34,1.41,2.06,2s1.52-1,1.27-1.55l-.77-1.72c-.14-.31-.67-.62-.92-.84.49-.54,1.52-1.27,1.78-2a2.57,2.57,0,0,0-.65-2.43,7.4,7.4,0,0,1-1.17-.73c-.51-.43-.62-.35-.27-.9s.45-.55.08-1.18c-.2-.34-.55-.73-.53-1.14a1.89,1.89,0,0,0-.37-1.5c-.24-.39,0-.61.41-.78.77-.31,1.7.19,2.38-.38.44-.36.64-.14,1.18.07.26.1,1,.21,1.11.48s.57.69,1,.48a1.74,1.74,0,0,1,1.11,0c-.12.41-.21.55,0,.93a2,2,0,0,1,.32,1.1c.1-.05.23,0,.32-.09-.13.29-.58.83-.21,1,.11-1.66,2.83,1.19,2.67-1,.11.07.27,0,.38.11a2.42,2.42,0,0,0,.09-1.47c-.15-.33.17-1.14.54-1.15,0,.19,0,.39,0,.58.81-.17,1.77,1.32,2.32,1.88.31.31,1.14.87,1.28,1.28.07.22-.24.65-.14.86s.51.23.6.27a3,3,0,0,1,.79.35c.21.21,0,.53.37.46a2.25,2.25,0,0,1,1.48,0c.41.15,1.19.3.46.61a8.59,8.59,0,0,0-1.16.7c.28,0,.57-.25.82-.4-.1.39-.69.58-1,.77s0,.81.09.54a.89.89,0,0,1,.41-.44c.18-.13.08-.22.18-.31a2.43,2.43,0,0,1,.91-.53.52.52,0,0,1-.41-.1c.24-.07.72-.17.9.09s-.19.42.11.65c.14-.58.54-.4,1-.37s.28.75.26,1c0,.42.43.44.26,1a2.74,2.74,0,0,1-.79.83c-.31.17-.65.19-1,.41a1.9,1.9,0,0,0-.64.88,2,2,0,0,1-1.73,1.14,15.56,15.56,0,0,0-2.52.6c-.74.25-1.59.19-1.53,1.26,0,.28-.7.55-.86.74a6.72,6.72,0,0,0-.64,1.19,11.5,11.5,0,0,1-.94,2c.89-.76,1.15-2,2-2.74.61-.52,2.22-2.08,3-1-.09,0-.19,0-.28,0,.6.21,0,.65-.22.94s-.65-.06-1,.31a3.52,3.52,0,0,1,.66.3,1.18,1.18,0,0,1,.69-.22,1.26,1.26,0,0,1-.27.83c.11-.07.26-.06.38-.11-.05.58.63.86,1.06.86l-.11.14c.66.13,1.3.22,1.72-.29l.13.26a.84.84,0,0,0,.32-.2c-.47-.36.06-1.2.21-1.63.51,0,.35.52.34.91.26-.35.88,0,.63.24a2.07,2.07,0,0,1-1.08.63c.11.05.2.18.31.24l-1.29,1a1.79,1.79,0,0,0-.46.4c-.16.24-.32-.17-.46,0-.26.35-.42.93-.68,1.36s-.49,0-.65,0c-.7-.59.36-1.54.69-1.94s.16,0,.33.08c.33.16.41-.21.61-.5-.33.07-.76.06-1,.33a1.18,1.18,0,0,1,.13-.59c-.4,0-.75.62-1,.9s-.24-.11-.4.23c-.08.17-.38.16-.54.2.45.72-.95.78-1,1.18l-.2-.12c-.09.47-.27.57-.63.82s-.19.36-.23.68-.44,2,.56,1.65l-.13-.17a1.25,1.25,0,0,1,.28.19c-.25.3-.66.21-1,.21-.17,0,0,.47-.22.54a3,3,0,0,0-1.6,1c.45-.18.76-.51,1.2-.69l-.12.15c.13,0,.27,0,.39-.08a2.08,2.08,0,0,1-.8.58c-.28.1-.82.13-.9.48.72-.11.06,1.5-.14,1.79.09-.34-.47-.4-.67-.71.13.41.8.83.71,1.25a8.43,8.43,0,0,0-.31,1.4h-.08a2.22,2.22,0,0,1,0-.85c-.21-.07-.22-.46-.56-.26a3.64,3.64,0,0,1,0-.87c0-.05.1-.65-.1-.4-.49.59-.23.83.13,1.52a1.6,1.6,0,0,0-.66-.15c.21.18.59.16.77.34s0,.69.14.84.53,0,.55.53-.24.45-.55.65c.3-.07.79-.31.83.15,0,.19-.6.36-.76.43.1,0,.2.1.31.13-.13.08-.17.19-.34.23.24.32.37-.06.65,0l-.43.41c-.12.1-.35-.06-.44,0a3.33,3.33,0,0,0-.34,1c-.06.18-.45.21-.57.5a2.45,2.45,0,0,1-.39.78,2.87,2.87,0,0,0-1,1.94,2.26,2.26,0,0,0,.54,1.55,15.14,15.14,0,0,1,1.38,2c.22.38.61,1.39.39,1.76s-.27.63-.63.33c-.11-.09-.7-.4-.72-.43a5.29,5.29,0,0,0-.59-.78c-.22-.28-.43-.42-.43-.82l-.13.19c-.27-.44,0-1.25-.57-1.45s-.88-.7-1.34-.4c-.24.16-.48.43-.77.33a3.59,3.59,0,0,0-.9-.3c-.47,0-1.05.77-1.38.06.09.67-1.47.58-1.81,1,.3,0,1.44-.2.72.41.1,0,.59.06.62.13a.25.25,0,0,1-.22.37c0-.33-.43-.32-.68-.4.1.2,0,.29.06.46-.31-.36-.37.12-.7,0s-.63-.37-1-.13c-.21.14-.58,0-.81,0-.45,0-1,.59-1.31.85-.57.43-1.8,2-1.56,2.89.07.28.52.47.62.75a2.76,2.76,0,0,1,0,.74,6,6,0,0,0,0,1.64,5.75,5.75,0,0,0,1.8,3.14c.6.53.88.94,1.64,1,.16,0,.48.31.6.23l.78-.56a2.74,2.74,0,0,1,.73-.38c.2-.07.44.16.53.08a1.73,1.73,0,0,0,.32-.27c.05-.08-.16-.21-.09-.33a1.2,1.2,0,0,0,.3-.77c0-.6-.2-1.25.33-1.64a4.66,4.66,0,0,1,1.24-.61c.34,0,1.25-.5,1.14.31,0,.31-.21,1.27-.41,1.34.12,0,.09.15.33.08-.07.1-.11.22-.19.31l.06.05.11-.13a5.71,5.71,0,0,0,0,1.11.7.7,0,0,1-.33-.56,2.2,2.2,0,0,0-.13.46c.45-.1.17.9.4,1.18s-.13.91-.28,1.15a11,11,0,0,0,2-.36c.28,0,.41-.33.7-.35a3.92,3.92,0,0,1,1-.12,1.26,1.26,0,0,1,1.23,1.13c0,.46.09.92.14,1.38,0,.27-.12.55-.09.8.17,1.24,2.13,2.8,3.1,2.07.6-.45.87-.82,1.63-.79a3.08,3.08,0,0,1,1.75.75c-.26-.84.49-2.27.71-3.06.07-.24.82-.58,1-.71l1.55-1.07c.47-.33,1.54-.12,2.09-.14l4.31-.12a4.05,4.05,0,0,1,2.23.18l4,2.21c.84.46,2.3.09,3.2.08s1.82,1.14,2.49,1.67l2,1.59c.16.13.58.59.78.61l3.57.32,3.57.32a14.15,14.15,0,0,1,3.13,1.2c.15,0,1.16-.28,1.22-.17ZM163.3,251.71c.09.34-.94.9-1.27,1-.49.11-.53.14-.83.58-.19.28-.29.57-.68.49a.63.63,0,0,1,.35-.58c-.17-.15-.16,0-.29-.24a6.4,6.4,0,0,0-.4,1.21h.57l-.08.19c.75-.12,1-.56,1.52-1a5.91,5.91,0,0,0,1.33-1.33C163.48,251.89,163.48,251.79,163.3,251.71Zm.89-.48c.7.39,1.62-1,.95-1l.39-.58c-.31.23-.89,1-1.17.93-.49-.08-1,.33-1.41.55C162.32,252.61,163.7,251,164.19,251.23Zm-12.26-.76c.38.09.65-.22.95-.41,0,.08,0,.16,0,.24.9.22,1.61-1.69,2.33-1.38a1.06,1.06,0,0,0-.43.82c.24-.22.5-.31.75-.1s.41,0,.71.12a11.31,11.31,0,0,0,1.35-.75c0,.38.29.2.54.25s.34.31.53.42c-.29,0-.62-.06-.65.3-.52-.36-1.25.11-1.4.65l-.09,0,.08-.22c-.09.11-.18.13-.27.26l-.09-.21a4,4,0,0,0-.45,1.61c.34,0,.33-.68.55-.92.12.28-.06.81-.06,1.15a4.53,4.53,0,0,0,.06,1.37c.22.66,1,2.29,1.32.78a2.71,2.71,0,0,0-.4-1.93c-.36-.76.19-1,.29-1.59,0,.14.09.31.11.45.16-.29,0-.68.38-.83-.5-.39.28-.5.56-.33s.65,0,.87.41c-.07,0-.07,0-.14,0,.21.21.4.62.18.87,0,0-.29.5-.21.62s.59-.49.74-.52c.33-.07.57.78.69,1l.39-.76c.08-.16-.12-.5-.1-.7,0-.42.32-1-.34-1.1.36-.32.32.26.65.13,0,.12,0,.14-.06.26.11,0,.11,0,.17.12.15-.24.58-.07.77-.18,0,0-.18-.35.22-.24-.48-.25-.66-1.08-1.32-1.05s-1.19.17-1.75.2c-.2,0-1.38,0-1.34-.19s-.09-.24-.2-.34,0-.26,0-.38c-.22-.35-.48-.06-.43-.66-.76.35-.84,0-1.41-.51-.3-.27-.47.17-.71.13a1.79,1.79,0,0,0-.88,0c.36.17.15.41-.07.64a.83.83,0,0,0,0-.45c-.21.19-.08.49-.31.66a2.25,2.25,0,0,0,0-.31c-.4.19-.12.53-.38.74l-.95.76Zm-26.79-19.35c-.11,0-.24,0-.35,0a3.24,3.24,0,0,1,.19-.32c-.38.05-.51.57-.87.73a1.72,1.72,0,0,1-1.19.21c0-.42.59-.7.87-.94a1.64,1.64,0,0,0-1.53.35c-.37.27-.75.52-1.13.78s-.86.46-1.27.73c-.21.13-1.2.45-.36.73l.16-.2-.11-.12a3.1,3.1,0,0,1,1.36-.38.73.73,0,0,0-.12-.14,2,2,0,0,1,1.51-.11c-.13.44-.84.27-1.18.47a1.32,1.32,0,0,1,.52.3,1.77,1.77,0,0,0-.45.42c.41.29-.11.47-.34.58.4.17.73-.11,1.11,0s.43-.65.61-.85,1-.31.56.15c-.17.18-.15.37-.23.47s-.28.16-.35.25c.62.32.77-1.09,1.45-1.06a.63.63,0,0,0-.56-.28c.37-.66,1.58-.14,1.66-.78a1.25,1.25,0,0,1-.29.11c-.07-.36.22-.23.25-.46S125.12,231.31,125.14,231.12Zm8.19,3.33a2,2,0,0,0-1.88.51,6.43,6.43,0,0,0-.32.72,1.07,1.07,0,0,1-.67.61c-.33.13-.9.25-1.18-.14-.08-.11-.63.19-.87-.07-.07-.07-.68-.16-.73-.08s.66.27.76.22c-.07.51,1,.6.46.92-.18.1-.4,0-.48.24s0,.33-.23.46l.15.07c-.16.23-.45.12-.71.18l.06.13c-.26.08-.51,0-.75.07.45.37,1.33.24,1.88.19.34,0,1.57-.56,1.25-.93.31-.46.58-.41,1-.72a4.11,4.11,0,0,0,.56-.84l-.18.06a1.73,1.73,0,0,1,.62-.69c.26-.15.47-.07.64-.4-.19.15-.22.12-.44.12l.55-.3a.74.74,0,0,1-.55,0c.14,0,.29-.09.43-.1-.57,0-.93.44-1.34.88,0-.65,1.55-1.45,1.81-.77A2.62,2.62,0,0,0,133.32,234.46Zm12.5,11.46c0-.34,0-.18.14-.35,0,.09,0,.18,0,.27a.28.28,0,0,0,0-.17c.28,0,.3.38.33.64,0-.16.13-.36.32-.32s0,.42,0,.57c.09-.13.19-.16.25-.23a.88.88,0,0,0,0,1c.2.32.3-.14.23-.33.08,0,.15,0,.22,0-.22-.27-.05-.68-.31-.8a2.6,2.6,0,0,1-.67-.78c-.27-.37-1.52-1.9-1.22-2.19h-.09c-.08.17-.11.15-.27.23a.51.51,0,0,1,.23-.46l-.22-.1c-.13.52-.09.66.35.83-.32-.05-.92-.18-.92.3,0,.82.08.64.67.63-.61.31.38.87.63,1.15ZM89,249.71c-.59-.08-.75.38-1.34.47a1.65,1.65,0,0,0,1.12.31c0-.22.25-.22.45-.29l-.05-.13C89.12,249.91,89,250,89,249.71Zm27.69-25.58a3.64,3.64,0,0,1,1.48.5c.78.53.7.54,1.34-.09l.3-.3c.09-.09.12.16.19.12a5.23,5.23,0,0,0,.66-.53l-.07-1.14c.41.14.71-.25.71-.66s.17-.39.43-.59a9.11,9.11,0,0,0,1.93-1.53c.26-.4.19-.54-.27-.72a4.91,4.91,0,0,0-1-.34c-.69-.09-1.42-.17-1.8.57,0-.11,0-.23,0-.33-.67.39-1.53-.28-2.17,0l-2.3,1c.2.21,1,.85.9,1-.2.32-.69,1.11-.19,1.35-.68.25-.1.37-.27.79s-.44.73-.23,1.13A1.83,1.83,0,0,0,116.7,224.14Zm1.34-7.46c.42-.05.12-.32.2-.47s.56-.06.61.37c.19-.13.51-.24.61-.46s-.44-.47-.18-.68.45.47.67,0a.3.3,0,0,0-.28-.44c.22-.23.53-.07.41-.53-.06-.22.31-.28.44-.2-.5.55.25,1,.74.71.33-.19,1.07-1.12.34-1.28a.84.84,0,0,1,.4-.2c-.89.07-.23-.52.09-.75-.63-.15-.89-.32-1.41.06.11,0,.15.1.3.11-.19.31-.48.19-.78.16s-.5.17-.7.25c-.54.22-.68.5-1,1-.23.34-.61,1.2-1,1.35-.6.23-1,.54-.35,1Zm5.26-5.2c-.66-.33-.68-.39-1.26,0l.83.3ZM99.73,250c.31.12.59-.26.66-.46l.16.09.08-.21-.57-.08A.89.89,0,0,0,99.73,250Zm18.43.63c-.08-.47-1.15,0-1.14.09.1.59,1.92,2.41,2.21,1.78l-.46-.24A5.1,5.1,0,0,1,118.16,250.6Zm-18.85.13c-.83-.24-.54,1.29.19,1,.21-.07.28-.47.54-.58a.43.43,0,0,0,.31-.57c.21,0,.33-.05.36-.28h-.23C100.53,249.82,99.07,250.11,99.31,250.73ZM126,254.56c-.14-.15-.47-.12-.66-.13s-.35-.18-.56-.39c-.61-.64-.69-.45-1.51-.49-.64,0-.91-.27-1.46.08a10.41,10.41,0,0,0,4,1.72C126.72,255.43,126.55,255.16,126,254.56Zm153.68,22c-.28-.23-1.22-1.09-1-.09.18.8,0,.86-.38,1.54a3.9,3.9,0,0,1-.79,1.42,5.56,5.56,0,0,1-1.44,1c-.22.1-.2,1.21-.06,1.47a6.9,6.9,0,0,1,.87,1.68c.08.56-.38,1.25-.42,1.81a2.68,2.68,0,0,0,.54,1.66,14.09,14.09,0,0,1,.77,1.62c.09.21,1.16.31,1.33.16s1.06-.68,1.07-.74c0-.47,0-.94,0-1.41q.08-2.57.17-5.15a6.21,6.21,0,0,0-.41-2.79l.52.3a4.13,4.13,0,0,0-.78-2.46Zm48.83-40.68c-.09.39.25.86.42,1.22s.54.21.81.24c-.44.4,0,.79.45.73s.16-.31.68-.17a1.38,1.38,0,0,1,.49.34c0-.22,0-.44-.06-.66.48,0,.54,0,.69.48.05.18.6.27.78.33.11-.62-.41-.32-.52-.83.43.09.64-.19.22-.44-.2-.12-.12.24-.26.23a2.53,2.53,0,0,1-.56-.16,1.45,1.45,0,0,0-.5-.05c-.22,0-.16.34-.31.37-.42.09-.37-.36-.6-.62-.45-.51,0-.42-.18-.94-.06-.2.29-.07.33-.2a2,2,0,0,0,0-.54c0-.69-.12-.36-.38-.88-.14-.28.17-.51-.13-.86-.52.45-.34.07-.89.11-.18,0-.49.22-.47.42l.14,1.52c0,.28.32.29.31.61Zm-.39-7.15c0-.47.12-1.73-.61-1.12a2.12,2.12,0,0,0-.6,1.65c0,.66.57,1,1,1.35A6.73,6.73,0,0,0,328.08,228.75Zm1.1,11.63a2.34,2.34,0,0,1-.29,1.63,4.93,4.93,0,0,0-.69,1.65c.52-.54,1.08-.84,1-1.65,0-.22.4-.59.53-.76s-.26-.53-.25-.71A1.3,1.3,0,0,0,329.18,240.37ZM335,241a.67.67,0,0,0-.6-.37l.29.66c-.28,0-.24,0-.31.19-.3-.1-.34.12-.22.42-.43-.17-.43.47-.72.69.13-.28,0-.67-.35-.6s-.12.56-.3.68c-.35.21-.91.83-.37,1.27.14-.19.18-1.44.54-.64,0-.22.07-.17.15-.33.09.25.07.17.29.25-.07-.1-.06-.26-.12-.36.84-.35.48.63.76,1s1,.58,1,.1h.07c0,.65.52.26.27-.24s-.49-.56-.13-1c.31.25.25.6.53.86,0-.19-.07-.37-.11-.56l.16,0c0-.26.06-1.27-.31-1.2a.79.79,0,0,0-.07-.3c-.11,0-.17,0-.23,0l.12-.22C335.34,241.1,335.2,240.84,335,241Zm.15,17.93c-.24-.31-1.55-.44-1.35.17C334.25,259.15,335.71,259.62,335.16,258.92Zm-2.87-.46a1.33,1.33,0,0,0-.82-.13c-.38.09-.31.26-.37.67a4,4,0,0,0,2.12-.49c1.11-.5-.31-.81-.74-.5C332.66,258.24,332.53,258.39,332.29,258.46Zm3.46-.54c.14-.05.13-.24.3-.25.38,0,.45-.42.67-.49.48-.14,1.4-.12,1.71-.6-.64-.06-.94.22-1.54.33-.36.07-.38.11-.6.43s-.39-.07-.54.08c-.31.31-1.25-.15-1.5.35s.77.16,1,.3C335.45,257.76,335.57,258,335.74,257.92Zm-.35-3.33.57.3c.11-.32.28-.46,0-.68a.19.19,0,0,1,.12-.35c-.24-.4-.5-.15-.36.23C335.39,253.57,335.38,254.37,335.39,254.59Zm-12-2.43c0,.2.3.29.39.46s-.12.2-.05.32l.25.41c.12.19.18,0,.21.34.22-.18.21-.07.22-.32.51.25.64,1,.84,1.56s1-.16,1.17-.32l.27.6c.6-.58.63-.76,1.42-.51.13,0,.34-.14.53-.12s.32.41.41.58l1-.84c0,.27.05.48.31.38-.13-.53-.25-1.06-.39-1.59s0-.54.28-1c.38-.56.38-.56.14-1.24-.1-.31,0-.93.27-.95.61,0,.85-.18.19-.53a2.49,2.49,0,0,1-.62-.33c-.08-.09,0-.35,0-.45-.39-.57-.6-.47-.78-1.21-.08-.36.64-.54.85-.64l-.47-.38.78-.46c-.16-.23-.3-.16-.55-.15s-.42-.26-.58-.38-1-.59-1.19-.5-.56,1.12-.68,1.36c-.22.45.13.66-.3.9s-.63.32-.83.93c-.14.43-.19.86-.55,1.1s-.79.37-.92.86-.29.64.26,1c-.44,0-1.25.24-1.5-.3l-.44.45C323.33,251.5,323.37,251.82,323.42,252.15Zm14.94,6.08a1.38,1.38,0,0,1,.39-.68c.35-.29,1.28-.81,1.29-1.36a10.31,10.31,0,0,0-1.08.42,2.6,2.6,0,0,0-.48.24c-.08.07,0,.26-.12.34a3.77,3.77,0,0,0-.81.76c-.22.35.29.38,0,.81C337.83,258.62,338.23,258.56,338.35,258.23ZM174.71,274.68c.19,0,.46-.2.64-.17s.24.61.54.41c.14-.09,0-.61.11-.74s.32,0,.4,0c.42-.13.68-.35,1.16-.47s.37.24.51-.24c.05-.2-.37-.32-.55-.31-.42,0-.44,0-.74-.31s-.2,0-.48-.07-.58-.13-.75,0a2,2,0,0,1-.48.28c-.59.14-.8,0-1.29.41.66.12.64.33,1.15.77-.29.36-1.92.14-1.6.63C173.93,275.07,174.06,274.74,174.71,274.68Zm32.57-61.9c.47,0,.65-.41.51-.9.41.1.5-.3.69-.61-.35-.12-.23-.6-.41-.65-.34-.1-.64-.26-1,0,.24-.84-2.08-1.14-1.47-.29-.64.1-.73.46-1.4.35l.28.66c-.33-.28-.48-.55-.87-.45s-.35.46-.17.73c-.29-.18-.59-.52-.91-.36.43.56,0,.34-.09.66a6.93,6.93,0,0,0-.12.82,8.85,8.85,0,0,1-.67-.64.28.28,0,0,0,.26-.38c-.06-.16-.43-.14-.54-.2-.56-.27-.56-.38-1.16-.21.16.28.35.16.63.14.29.76-.73.1-.9.47s.34.29.29.49-.34.13-.51.08c0,.08,0,.17.06.26-.23,0-.17.08-.33.22.57.09.69-.06,1.16-.4.22-.16.8-.05,1.08-.06l-.56.48a.66.66,0,0,0,.63-.11l.06.17c-.63.15-1.19.57-1.75.7.21.44,1.17-.06,1.52-.15-.13.25,0,.39.27.28,0,.07,0,.14,0,.21l.2,0c0,.49-.83.55-.5,1l1.43-.58c.13-.05.34.28.46.32a2.44,2.44,0,0,0,.71,0,1.6,1.6,0,0,0,1.12-.37c.17-.15.08-.3.31-.4l.66-.28C206.53,213.49,207,212.77,207.28,212.77Zm-7.78-8.5c-.19-.35-.8-1.12-.77-1.52a8.51,8.51,0,0,1,.43-3.18c.31-.6.62-1.2.93-1.81.09-.16-.52-1.2-.59-1.38-.18-.4-.31-1.09-.73-1.24l-1.56-.55,1.43-2.4a3.06,3.06,0,0,1-1.82-1.05c-.41-.54.16-1.53.34-2.12a4.68,4.68,0,0,1,1.2-1.56,7.6,7.6,0,0,0,1.15-1.73l-.62-.3a6.08,6.08,0,0,0,1.69-.93l1.71-1.7a13.91,13.91,0,0,0-2.56-.29c-.58,0-1.77.23-2,.81-.16.37-.22.87-.62.9l-1.45.14c-.55.05-1.42,1.06-1.87,1.42,0-.18.62-2-.1-1.83s-1.18.42-1.8.14l2.26-1.56a18.67,18.67,0,0,0-5.24-.43,25.76,25.76,0,0,0-5.82,1l-2,.73a2.9,2.9,0,0,0-.91.33c-.28.28-.13,1.05-.58,1.09l-1.74.15c-.7.06-1.6-.07-2.16.38l-2.47,2a6.85,6.85,0,0,1,2.94,1.29A31.93,31.93,0,0,0,171,189a6.48,6.48,0,0,0-1.67.68L166.08,191a6.14,6.14,0,0,0-1.67.7l-1.67,1.51-4.11,3.71c.75.49,1.43.2,2.27.08-.06.49-.12,1-.17,1.48s-.16.47-.66.63a9.4,9.4,0,0,0-1.94.94l-2.57,1.53c-.2.12-.05.68,0,.92s.55.49.67.59c.38.31.92,1,1.38,1.09l1.88.53c.31.09,1.25.55,1.55.43l1.77-.72a10.73,10.73,0,0,1,3.24-.57l1.76-.16c.29,0,1.14.85,1.38,1a15.63,15.63,0,0,1,2.54,2.84c.44.55.55.59.5,1.28s-.29,1.11.27,1.46,1.2.47,1.22,1.21-.17,1.16.42,1.54c.73.48.69.48,1.4.05l1.54-.93.17,1.3c0,.14-.47.41-.57.48l-1,.8c-.08.06.06.61.07.71a5.76,5.76,0,0,0,.35,2.11l1.48,2.15a17.8,17.8,0,0,0,2.89,2.93l1.8,1.67c.3.28.92.18,1.28.21l2.24.21c.18,0,1.13-.21,1.13-.33q.12-2.14.23-4.29c.06-1.15.16-2.28.27-3.41.06-.62,0-.62.5-.93l1.87-1.21a6.32,6.32,0,0,0,1.31-.85,7.81,7.81,0,0,0,.77-1.74c.2-.45.25-.72.65-.94l1.78-1a11.11,11.11,0,0,0,2.66-1.61l2.62-2.73C199.84,205,199.88,205,199.5,204.27Zm120.41,31.92c.17-.14.54-.25.5-.55s-.07-.69.22-.75c0-.29-.15-.48-.41-.45,0,.07,0,.14,0,.2-.83-.22-1,.55-1.43,1,.13.51.07.64.54.77a.79.79,0,0,0,.47,0C320,236.38,319.8,236.28,319.92,236.19Zm2.45,22.36a19.15,19.15,0,0,1-.36-2.17.66.66,0,0,0-1.25-.38c.27-.47-.08-.36-.22-.66s-.25-.71-.41-.74-.63,0-.72-.18.13-.49,0-.72-.64-.18-.7-.4c-.11-.42-.21-.18-.54-.32s0-.29-.51-.25c-.3,0-.49.1-.73-.09-.45-.37-1-.38-1.48-.66a10.57,10.57,0,0,1-1.43-.75c-.51-.43-.47-.73-1.19-.62-.22,0-1.37-.09-1.43.09s1,1.12,1.18,1.2c.4.2,1.13.15,1.31.74s.94.33,1.26.89l.57,1c.13.23.35.08.54.2a7.93,7.93,0,0,1,1.32,1.61,4.73,4.73,0,0,0,1.2.91c.87.56,1.73,1.11,2.68,1.61,0-.15,0-.32-.07-.47C321.88,258.75,321.93,258,322.37,258.55Zm1-3.44c-.52-.22-.12.61-.06.74C323.9,255.89,323.77,255.3,323.34,255.11Zm5.74,3.35a.69.69,0,0,1-1-.52,1.37,1.37,0,0,1-1.23.13c-.31-.23-.39,0-.4.29s-.25.15-.41.17c-.62.09-1,.33-1.49-.14-.07-.08-.93,0-1.13-.11,0,.31-.31.2-.56.2s-.23.11-.35.35c-.34.71.33.58.77.57,0,.08,0,.17,0,.25.52,0,1.06.13,1.55.1.25,0,.49-.27.74-.32a4,4,0,0,1,.81.07,3.16,3.16,0,0,0,.69,0l.53-.07c.11,0,.11-.18.2-.19a3.65,3.65,0,0,0,1.25-.21l1,.17C329.6,258.87,329.89,258,329.08,258.46ZM321,255.27a.43.43,0,0,0,.4,0c.09,0,.21.18.32.25s.11.21.29.29a.7.7,0,0,0,.51.08c-.17-.12-.19-.28,0-.47-.67.2-.6-.9-1.13-.71l.1.22C321.12,254.63,321.11,255,321,255.27Z" fill="#248193"/><polygon points="286.96 106.71 365.49 74.4 430.19 320.56 352.18 354.47 286.96 106.71" fill="#34cec4" opacity="0.34" style="mix-blend-mode:multiply"/><polygon points="126.13 148.65 205.97 115.98 270.73 363.32 191.64 396.46 126.13 148.65" fill="#34cec4" opacity="0.34" style="mix-blend-mode:multiply"/></g></g></svg>