<svg id="Layer_1" data-name="Layer 1" xmlns="http://www.w3.org/2000/svg" viewBox="0 0 480 480"><title>Iitems</title><path d="M356.31,124.82a36.47,36.47,0,1,0-42.19-26.31,173.46,173.46,0,1,0,42.19,26.31ZM350.81,90l-3-1.85c-6.21-3.87-14.58-2.53-21.9,2.67a23.46,23.46,0,1,1,32.09,20C359.48,102,357,93.84,350.81,90Z" fill="#009fe3"/><path d="M244,440.87A182.25,182.25,0,0,1,147.26,413C61.42,359.46,35.15,246.07,88.69,160.24A183.53,183.53,0,0,1,303.2,83.54,46.47,46.47,0,1,1,374.55,128,183.63,183.63,0,0,1,244,440.87Zm.44-347a163.51,163.51,0,0,0-138.79,77C58,247.3,81.37,348.33,157.84,396a163.47,163.47,0,0,0,192-263.56l-16-13.46L347,116.46l1.19-7.25c.82-5-.21-9.24-2.64-10.75h0l-3-1.86c-2.43-1.52-6.68-.6-10.82,2.34l-6,4.26,3.46,12.88-19.11-8.42A162.75,162.75,0,0,0,244.45,93.87Z" fill="#fff"/><path d="M368.59,58.1a36.47,36.47,0,1,0,11.64,50.24A36.47,36.47,0,0,0,368.59,58.1Zm-31.71,50.84a23.46,23.46,0,1,1,32.32-7.49A23.46,23.46,0,0,1,336.88,108.94Z" fill="#054554"/><path d="M345.43,136.16c-8.2,13.15-22.42,19.09-31.75,13.28l-3-1.85c-9.33-5.82-10.24-21.2-2-34.35l7.39-11.85c8.2-13.15,22.42-19.09,31.75-13.28l3,1.85c9.33,5.82,10.24,21.2,2,34.35Z" fill="#d14253"/><circle cx="244.32" cy="257.33" r="173.46" transform="translate(-103.32 328.45) rotate(-58.05)" fill="#d14253"/><circle cx="244.32" cy="257.33" r="140.74" transform="translate(-103.32 328.45) rotate(-58.05)" fill="#054554"/><circle cx="244.32" cy="257.33" r="123.73" transform="translate(-103.32 328.45) rotate(-58.05)" fill="#f9ffff"/><polygon points="229.6 264.14 201.25 150.4 259.16 252.31 229.6 264.14" fill="#054554"/><polygon points="229.6 264.14 287.51 366.05 259.16 252.31 229.6 264.14" fill="#d14253"/><circle cx="244.38" cy="258.23" r="15.92" transform="translate(-104.05 328.92) rotate(-58.05)" fill="#054554"/><path d="M166.52,208.8a3.48,3.48,0,0,1-4.79,1.11l-13.55-8.45a3.48,3.48,0,0,1-1.11-4.79h0a3.48,3.48,0,0,1,4.79-1.11L165.41,204a3.48,3.48,0,0,1,1.11,4.79Z" fill="#d14253"/><path d="M341.58,318a3.48,3.48,0,0,1-4.79,1.11l-13.55-8.45a3.48,3.48,0,0,1-1.11-4.79h0a3.48,3.48,0,0,1,4.79-1.11l13.55,8.45a3.48,3.48,0,0,1,1.11,4.79Z" fill="#d14253"/><path d="M195.79,335.14a3.48,3.48,0,0,1,1.11,4.79l-8.45,13.55a3.48,3.48,0,0,1-4.79,1.11h0a3.48,3.48,0,0,1-1.11-4.79L191,336.25a3.48,3.48,0,0,1,4.79-1.11Z" fill="#d14253"/><path d="M305,160.08a3.48,3.48,0,0,1,1.11,4.79l-8.45,13.55a3.48,3.48,0,0,1-4.79,1.11h0a3.48,3.48,0,0,1-1.11-4.79l8.45-13.55a3.48,3.48,0,0,1,4.79-1.11Z" fill="#d14253"/><path d="M270.2,369a3.48,3.48,0,0,1-4.17-2.6l-1.56-6.74a3.48,3.48,0,0,1,2.6-4.17h0a3.48,3.48,0,0,1,4.17,2.6l1.56,6.74a3.48,3.48,0,0,1-2.6,4.17Z" fill="#d14253"/><path d="M221.58,159.19a3.48,3.48,0,0,1-4.17-2.6l-1.56-6.74a3.48,3.48,0,0,1,2.6-4.17h0a3.48,3.48,0,0,1,4.17,2.6l1.56,6.74a3.48,3.48,0,0,1-2.6,4.17Z" fill="#d14253"/><path d="M356,231.46a3.48,3.48,0,0,1-2.6,4.17l-6.74,1.56a3.48,3.48,0,0,1-4.17-2.6h0a3.48,3.48,0,0,1,2.6-4.17l6.74-1.56a3.48,3.48,0,0,1,4.17,2.6Z" fill="#d14253"/><path d="M146.18,280.08a3.48,3.48,0,0,1-2.6,4.17l-6.74,1.56a3.48,3.48,0,0,1-4.17-2.6h0a3.48,3.48,0,0,1,2.6-4.17l6.74-1.56a3.48,3.48,0,0,1,4.17,2.6Z" fill="#d14253"/></svg>