<svg id="Layer_1" data-name="Layer 1" xmlns="http://www.w3.org/2000/svg" viewBox="0 0 480 480"><title>Iitems</title><path d="M405.93,114.2,369.37,77.65a33.83,33.83,0,0,0-47.85,0L305,94.13,295.93,85,280,100.92h0l-33.4,33.4,8.52,8.52L99.73,298.26,71.17,412.4l114.14-28.56L340.73,228.42l8.52,8.52,32.6-32.6h0l16.7-16.7-9.11-9.11L405.93,162A33.83,33.83,0,0,0,405.93,114.2Z" fill="#ffe41d"/><path d="M57.43,426.15l33.28-133L241,142.84l-8.52-8.52,63.44-63.44L305,80l9.41-9.41a43.83,43.83,0,0,1,62,0L413,107.13a43.88,43.88,0,0,1,0,62l-9.41,9.41,9.11,9.11-63.44,63.44-8.52-8.52-150.3,150.3Zm51.34-122.77L84.92,398.65l95.28-23.84L340.73,214.28l8.52,8.52,35.16-35.16-9.11-9.11L398.85,155a23.86,23.86,0,0,0,0-33.71L362.3,84.72a23.83,23.83,0,0,0-33.7,0L305,108.27l-9.11-9.11-35.16,35.16,8.52,8.52Z" fill="#fff"/><rect x="159.71" y="153.44" width="121.03" height="219.79" transform="translate(250.71 -78.59) rotate(45)" fill="#edb926"/><polygon points="71.16 412.4 99.72 298.26 185.3 383.84 71.16 412.4" fill="#fff"/><rect x="195.84" y="153.44" width="48.76" height="219.79" transform="translate(250.71 -78.59) rotate(45)" fill="#f4cc21"/><rect x="242.06" y="145.31" width="145.14" height="47.24" transform="translate(211.61 -173) rotate(45)" fill="#882f3e"/><rect x="266.31" y="132.87" width="145.14" height="23.62" transform="translate(201.56 -197.25) rotate(45)" fill="#691f2f"/><path d="M389.43,178.53,305,94.13l16.49-16.49a33.83,33.83,0,0,1,47.85,0l36.55,36.55a33.83,33.83,0,0,1,0,47.85Z" fill="#d14253"/><polygon points="121.2 399.88 83.68 362.37 71.16 412.4 121.2 399.88" fill="#691f2f"/><rect x="118.94" y="259.77" width="219.79" height="24.38" transform="translate(-125.28 241.47) rotate(-45)" fill="#f4cc21"/></svg>