<svg xmlns="http://www.w3.org/2000/svg" viewBox="0 0 480 480"><title>Iitems</title><g style="isolation:isolate"><g id="Layer_1" data-name="Layer 1"><path d="M279.2,71.84,282.53,70c.25.44.49.87.73,1.33s.56,1.12.83,1.68.58,1.26.86,1.92.47,1.13.7,1.72c.15.4.3.8.44,1.21.24.67.44,1.28.63,1.9.12.4.26.82.38,1.26.21.75.41,1.51.6,2.28.09.35.16.63.23.93.24,1.07.46,2.18.65,3.31,0,.26.09.55.13.84l0,.15c.13.83.25,1.69.35,2.56,0,.41.09.83.13,1.25q.12,1.27.2,2.59v.22c0,.31,0,.63.06.95.06,1.38.1,2.64.1,3.85,0,18.49-3.28,28.3-6.65,36.77l-.49,1.22c-2,5-3.46,8.64-3.94,15l-.07,1c-.06,1-.1,2.05-.1,3.1,0,1.82.44,5.58,2.67,13.16l.4,1.35.51,1.64c.2.65.41,1.31.63,2l.66,2,.51,1.53.8,2.36.42,1.23q.58,1.68,1.2,3.45l.15.42c.9,2.56,1.85,5.23,2.83,8,1.65,4.65,3.34,9.41,5.07,14.4q2.74,1,5.44,2.05,1-2.72,1.88-5.31l.86-2.47c.43-1.24.82-2.37,1.19-3.47l.18-.52.67-2,.11-.34c.39-1.18.75-2.31,1.09-3.4l.21-.69c.18-.58.34-1.11.49-1.64l.13-.44c.14-.47.28-1,.4-1.42l.23-.83a34.53,34.53,0,0,0,1.5-8.33c0-.8,0-1.58-.07-2.36l-.09-1.14c-.41-5.36-1.59-8.31-3.38-12.79L299.25,142a109.27,109.27,0,0,1-.72-13.05c0-32.36,20.57-46,37-48.32q1-.14,2-.23l.63.21,14.92,4.87,15.91,7c.35.34.69.7,1,1.06l.43.48c.7.77,1.41,1.63,2.08,2.5l.4.51c.28.37.54.74.79,1.12l.07.1c.22.31.43.63.64,1s.51.79.75,1.2.46.78.68,1.18l.08.14c.19.33.37.66.55,1q.56,1.06,1.07,2.19c.13.28.25.56.37.84l.05.12c.26.6.51,1.22.76,1.86.11.28.22.6.33.92l0,.13q.32.89.6,1.82c.11.34.22.71.32,1.08.2.7.4,1.45.58,2.2.06.25.12.48.18.73.23,1,.43,2,.61,3.08,0,.26.08.5.11.75.13.87.24,1.67.34,2.48,0,.38.08.76.12,1.14.07.75.14,1.54.19,2.36v.23c0,.27,0,.54,0,.81.06,1.26.09,2.4.09,3.5A109.34,109.34,0,0,1,381.6,142l-5.74,21.33c-1.79,4.48-3,7.43-3.38,12.79l-.08,1c0,.83-.07,1.66-.08,2.51,0,1.06.2,3.64,1.7,9.1l0,.14c.17.62.35,1.25.54,1.9l.42,1.39.31,1q.42,1.36.89,2.78l1.9,5.65c1.14,3.3,2.39,6.81,3.7,10.49,10.15,28.54,24.05,67.62,23.67,110.8-.46,53.09-11.73,79.76-17.52,90v17.3H314.05a122,122,0,0,1-60.32,15.91q-1.65,0-3.3,0l-1,0-2.35-.1-1-.07-2.28-.16-.93-.08-2.41-.23-.81-.09-2.6-.33-.52-.07q-1.48-.21-3-.46l-.2,0a121.42,121.42,0,0,1-25.7-7.29l-15.06-6.92H100.33V412.89c-5.87-10.31-17-36.86-17.51-90-.38-43.19,13.53-82.27,23.68-110.81q1.27-3.57,2.45-6.92l.92-2.63c.37-1.05.72-2.1,1.07-3.12l.24-.71.65-1.94.17-.53c.35-1.08.69-2.14,1-3.19l.25-.8c.16-.52.32-1,.47-1.57l.15-.52c.13-.46.26-.92.39-1.35l.19-.69c1.34-5,1.54-7.46,1.53-8.47,0-.79,0-1.57-.07-2.34l-.09-1.16c-.41-5.36-1.59-8.31-3.38-12.79L106.7,142a109.34,109.34,0,0,1-.72-13.05c0-35.71,25.05-48.67,41.89-48.67a30,30,0,0,1,3.13.2l13.21,5,12.22,7c.35.35.7.7,1,1.07l.41.46c.7.77,1.41,1.62,2.08,2.5l.4.52c.28.37.54.74.79,1.12l.08.12c.21.31.42.61.62.93s.51.8.75,1.2.46.78.68,1.18l.08.14c.19.33.37.66.55,1q.55,1.06,1.06,2.17c.14.3.25.56.36.82l.05.12c.27.63.52,1.24.76,1.88.11.3.23.62.34.93l0,.13c.21.61.41,1.21.6,1.82.11.34.22.71.32,1.08.2.7.39,1.45.58,2.2.06.25.13.5.19.77.21,1,.42,2,.59,3,0,.27.08.51.12.76.13.87.24,1.67.34,2.5,0,.35.08.74.12,1.13.07.75.13,1.54.19,2.36v.19c0,.28,0,.57.05.86.06,1.26.09,2.4.09,3.5a109.34,109.34,0,0,1-.72,13.05l-5.74,21.33c-1.79,4.47-3,7.43-3.38,12.79l-.08,1c0,.82-.07,1.64-.08,2.48,0,1.06.2,3.64,1.7,9.09v0c.19.69.38,1.33.57,2l.44,1.45.27.89c.31,1,.65,2,1,3.12l1.9,5.63c1.11,3.21,2.32,6.6,3.58,10.16l2,5.71c2.82-8.54,5.67-16.55,8.25-23.79q1.3-3.66,2.52-7.12l1.25-3.59.94-2.74,1.15-3.42.64-2q.33-1,.65-2l.48-1.55c.15-.5.3-1,.44-1.46s.23-.8.34-1.2l.31-1.09c1.68-6.09,2-9.25,2-10.82,0-1,0-2-.09-2.94l-.09-1.13c-.48-6.32-1.93-9.94-3.94-15l-.49-1.22c-3.37-8.47-6.65-18.28-6.65-36.77C199,56.49,231.67,47,244.27,47a36.62,36.62,0,0,1,5.38.48l12,5.6,13.39,7.05c.39.39.8.8,1.2,1.23l.27.3c.91,1,1.78,2,2.58,3.09l.36.48c.31.42.61.86.92,1.3l.57.85c.3.45.6.94.9,1.43.2.33.4.69.61,1M215,408.1l1.56.68a92,92,0,0,0,21.71,6.46c.85.14,1.6.26,2.35.36l.39.06,2,.25.63.07,1.78.17.75.07,1.71.12.79.05,1.78.07.77,0c.81,0,1.65,0,2.49,0a92.44,92.44,0,0,0,48.53-13.71l3.56-2.2h54.76l.93-1.07c4.89-7,14-31.87,14.42-76.94.33-38-12.56-74.18-22-100.64-1.34-3.77-2.62-7.37-3.8-10.77l-2.05-6.11c-.35-1.09-.69-2.14-1-3.16l-.36-1.18c-.17-.55-.34-1.11-.5-1.66q-.35-1.18-.66-2.3l0-.17c-1.93-7-2.81-12.49-2.77-17.22,0-1.88.09-3.68.23-5.52l.18-2.32h-2.38l3-7.43.3-3.91h1.25l2.56-6.46.17-.42.8-2c1.85-4.64,3.94-9.91,3.94-22.37,0-.73,0-1.43-.05-2.11l0-.63c0-.43-.06-.87-.1-1.31l-.06-.62c0-.42-.11-.84-.17-1.25l-.06-.42c-.08-.48-.17-.95-.27-1.39l-.12-.46c-.07-.29-.15-.62-.24-.93l-.14-.44c-.08-.26-.16-.5-.24-.74l-.15-.42c-.09-.25-.19-.47-.28-.69l-.18-.44c-.08-.17-.2-.42-.33-.67l-.21-.37-.21-.37-.22-.36-.56-.79c-.2-.26-.4-.5-.59-.71l-.17-.19-.25-.25-.07-.07a13.56,13.56,0,0,0-7.67-3.46c-4.76.36-12.28,3.41-12.28,19.1,0,12.47,2.09,17.73,3.94,22.37l3.54,8.9h1.23l.3,3.86,3,7.48h-2.39l.18,2.31c.14,1.83.22,3.64.23,5.53,0,4.74-.85,10.21-2.78,17.23l-3,10.86h-.38l-.23.69-.2.59c-.38,1.14-.8,2.34-1.22,3.56l-.94,2.68q-1.18,3.37-2.46,6.94c-1.59,4.47-3.23,9.09-4.9,13.95L316.13,253l-15.58-9.14a92.12,92.12,0,0,0-21.92-9.3l-7.56-2.1L268.57,225c-2.48-7.41-4.94-14.33-7.32-21q-1.49-4.19-2.87-8.11l-.14-.41L257,191.82l-.44-1.29-.85-2.51-.55-1.66c-.25-.76-.49-1.5-.73-2.23s-.48-1.5-.71-2.23l-.58-1.89-.47-1.58c-2.72-9.24-3.91-15.94-3.87-21.72,0-2.06.1-4,.25-6.09l1-13.65h1.36a99.47,99.47,0,0,1,3.58-10l.46-1.16c2.14-5.38,4.56-11.48,4.56-25.86,0-.85,0-1.66-.06-2.46l0-.71c0-.54-.07-1.06-.12-1.57,0-.24,0-.48-.07-.72-.06-.5-.12-1-.2-1.45l-.09-.59c-.09-.53-.2-1.08-.32-1.62l-.13-.52c-.1-.4-.19-.77-.29-1.13-.05-.18-.11-.37-.17-.57s-.18-.56-.27-.82l0-.12-.17-.47c-.09-.24-.19-.48-.3-.72s-.23-.54-.35-.78-.21-.46-.32-.67l-.24-.43-.28-.48-.32-.52-.2-.29-.24-.36-.19-.26c-.27-.36-.56-.7-.88-1l-.16-.18L254.2,81l-.08-.07a17.17,17.17,0,0,0-9.91-4.43c-5,.31-15.69,3.3-15.69,23.36,0,14.38,2.42,20.48,4.56,25.86l.46,1.16a99.45,99.45,0,0,1,3.57,10h1.35l1.05,13.65c.15,2,.24,4,.25,6.09,0,5.16-.93,11.15-3.06,18.88l-.37,1.29c-.14.49-.28,1-.42,1.47s-.34,1.14-.51,1.72-.37,1.19-.56,1.81-.48,1.51-.73,2.29-.46,1.43-.7,2.16L232.2,190l-1,2.9-1.3,3.71q-1.23,3.5-2.55,7.21c-3.17,8.93-6.77,19-10.14,29.68l-1.82,5.73-5.3,2.83a93,93,0,0,0-16.54,11.3l-16.88,14.43-6.79-21.15c-2.83-8.83-5.84-17.29-8.49-24.75-1.29-3.64-2.53-7.12-3.67-10.41L156.55,208l-.68-2-.2-.62q-.59-1.81-1.13-3.55l-.32-1-.52-1.72c-.24-.81-.46-1.59-.67-2.35v0c-1.95-7.08-2.83-12.55-2.79-17.29,0-1.88.09-3.68.23-5.52l.18-2.32h-2.39l3-7.43.3-3.91h1.25l3.54-8.9c1.85-4.64,3.94-9.9,3.94-22.37,0-.73,0-1.43-.05-2.11l0-.6c0-.46-.06-.9-.1-1.34l-.06-.59c-.05-.46-.11-.87-.17-1.28l-.06-.42c-.08-.48-.17-.95-.27-1.4l-.1-.41c-.08-.34-.16-.66-.25-1l-.14-.44c-.08-.27-.17-.51-.25-.75l-.14-.4c-.09-.24-.19-.48-.29-.71l-.17-.4q-.17-.36-.34-.69l-.21-.37-.21-.37-.24-.38-.54-.77q-.3-.39-.59-.72l-.17-.19-.22-.22-.1-.1a13.68,13.68,0,0,0-7.53-3.47c-4.75.31-12.41,3.26-12.41,19.11,0,12.47,2.09,17.73,3.94,22.37l3.54,8.9h1.24l.3,3.88,3,7.46h-2.39l.18,2.32c.14,1.84.22,3.65.23,5.52,0,4.74-.85,10.21-2.78,17.23l-3,10.86h-.38l-.22.64-.26.76c-.37,1.09-.75,2.2-1.14,3.33l-.95,2.72q-1.21,3.43-2.5,7c-9.41,26.46-22.3,62.69-22,100.65.4,45.41,9.66,70.26,14.53,77.09l.69.91h40.47l.86-1c.18-.26.58-.89,1.13-1.92l8.81-16.22,13.9,12.15a92.78,92.78,0,0,0,21,13.85Zm-46.22-8.33Zm192.78-.31ZM347.73,113l0,0Zm-192.55,0,0,0Zm98.64-32.34,0,0Z" fill="#fff"/><path d="M165,179.09c.17-22.33,10-21.74,10-50.56,0-33.9-27.12-33.9-27.12-33.9s-27.12,0-27.12,33.9c0,28.82,9.83,28.23,10,50.56S97,257.91,97.6,322.32s17.51,85.87,17.51,85.87V415h65.54v-6.78s16.95-21.47,17.51-85.87S164.83,201.41,165,179.09Z" fill="#f2f2f2"/><path d="M173.17,210.5c-2.39-6.8-4.47-12.91-5.93-18.23H128.51c-1.46,5.31-3.54,11.43-5.93,18.23Z" fill="#a20000"/><path d="M130.56,174.57h34.63c.62-8.17,2.72-12.93,4.82-18.22H125.74C127.84,161.64,129.94,166.41,130.56,174.57Z" fill="#a20000"/><path d="M175,128.53c0-13.27-4.15-21.32-9.21-26.24,1.5,11.79,3,31.36-1.52,43.47-6.78,18.22-19.21,19.07-16.38,48.31s21.53,51.27,22.14,111-7.46,91.53-11.68,97c-3.34,4.35-29.24,4.66-43.94,5,.45.7.71,1,.71,1V415h65.54v-6.78s16.95-21.47,17.51-85.87S164.83,201.41,165,179.09,175,157.35,175,128.53Z" fill="#c4c4c4" style="mix-blend-mode:multiply"/><path d="M357.54,179.09c.16-22.33,10-21.74,10-50.56,0-33.9-27.12-33.9-27.12-33.9s-27.12,0-27.12,33.9c0,28.82,9.83,28.23,10,50.56s-33.73,78.82-33.17,143.23,17.51,85.87,17.51,85.87V415h65.54v-6.78s17-21.47,17.52-85.87S357.37,201.41,357.54,179.09Z" fill="#f2f2f2"/><path d="M365.72,210.5c-2.39-6.8-4.47-12.91-5.93-18.23H321.06c-1.46,5.31-3.54,11.43-5.93,18.23Z" fill="#a20000"/><path d="M323.11,174.57h34.63c.62-8.17,2.72-12.93,4.82-18.22H318.29C320.39,161.64,322.49,166.41,323.11,174.57Z" fill="#a20000"/><path d="M367.54,128.53c0-13.27-4.15-21.32-9.21-26.24,1.5,11.79,3,31.36-1.52,43.47C350,164,337.6,164.83,340.43,194.07s21.53,51.27,22.14,111-7.46,91.53-11.68,97c-3.34,4.35-29.24,4.66-43.94,5,.45.7.71,1,.71,1V415h65.54v-6.78s17-21.47,17.52-85.87-33.34-120.91-33.17-143.23S367.54,157.35,367.54,128.53Z" fill="#c4c4c4" style="mix-blend-mode:multiply"/><path d="M263.54,156.4c.19-25.12,11.25-24.47,11.25-56.9,0-38.15-30.52-38.15-30.52-38.15s-30.52,0-30.52,38.15c0,32.43,11.07,31.78,11.26,56.9s-38,88.72-37.33,161.21,19.71,96.66,19.71,96.66v7.63h73.77v-7.63s19.08-24.16,19.71-96.66S263.35,181.53,263.54,156.4Z" fill="#f2f2f2"/><path d="M272.75,191.76c-2.69-7.65-5-14.53-6.68-20.51h-43.6c-1.64,6-4,12.86-6.68,20.51Z" fill="#a20000"/><path d="M224.79,151.32h39c.7-9.19,3.06-14.55,5.43-20.51H219.36C221.73,136.76,224.08,142.12,224.79,151.32Z" fill="#a20000"/><path d="M274.8,99.49c0-14.93-4.68-24-10.37-29.54,1.69,13.27,3.36,35.3-1.71,48.93-7.63,20.52-21.62,21.46-18.44,54.37s24.24,57.71,24.92,125-8.4,103-13.15,109.22c-3.75,4.89-32.91,5.25-49.45,5.68.51.78.8,1.16.8,1.16v7.63h73.77v-7.63s19.08-24.16,19.71-96.66S263.35,181.53,263.54,156.4,274.8,131.93,274.8,99.49Z" fill="#c4c4c4" style="mix-blend-mode:multiply"/><circle cx="253.73" cy="323.42" r="107.46" fill="#a20000"/><path d="M293.72,289.46c5,5.48,5.32,13.36.7,17.58S282,310.24,277,304.75s-5.33-13.36-.71-17.58S288.7,284,293.72,289.46Zm14.8-31.77c-4.62,4.23-4.31,12.1.71,17.59s12.83,6.51,17.45,2.28S331,265.46,326,260,313.14,253.47,308.52,257.69ZM319.57,301c-4.61,4.22-4.3,12.09.71,17.58s12.83,6.51,17.44,2.29,4.3-12.09-.71-17.58S324.2,296.73,319.57,301Z" fill="#303030"/><path d="M368.53,91.75s-9.08-11.91-29.63-11.57-20.61,14.68-20.61,14.68l26.59-7.34L365,96.71l7.56-.21Z" fill="#fff"/><path d="M176.27,91.88S167.18,80,146.64,80.31,126,95,126,95l26.59-7.34,20.09,9.2,7.56-.21Z" fill="#fff"/><path d="M275.22,59.73S265.32,46.62,242.93,47,209.12,65.2,209.12,65.2l40.33-10.14,21.9,10.14L282.53,70Z" fill="#fff"/><ellipse cx="228.93" cy="258.94" rx="43.5" ry="30.57" transform="translate(-91.44 129.25) rotate(-26.48)" fill="#fff" opacity="0.2" style="mix-blend-mode:screen"/></g></g></svg>