<svg id="Layer_1" data-name="Layer 1" xmlns="http://www.w3.org/2000/svg" viewBox="0 0 480 480"><title>Iitems</title><path d="M239.27,434.43a88.51,88.51,0,0,1-37.44-168.72A40,40,0,0,1,204,261L118.6,134.77a24.86,24.86,0,0,1,.48-28.45l-1.29-1.8,14.06-9.06h0l12.76-8.23.63.88c32.58-15.23,73.62-17.72,97-17.73,26.71,0,76.51,3.26,110.37,25.07h0A62.71,62.71,0,0,1,363,103.5a24.84,24.84,0,0,1,2.87,31.26L277.16,265.92a88.51,88.51,0,0,1-37.89,168.51ZM224.49,291.09l-4,1.41a56.62,56.62,0,1,0,37.6,0l-3.68-1.29-4.76-1,.14-.68-1-.36-1.21-9.81q0-.17,0-.34l-8,4.39-.22-.33v6.16h0a57.15,57.15,0,0,0-10.5,1Zm15.35-10,.3.31a1.27,1.27,0,0,0,.28-.41l-.2-.09ZM176.67,132.23l65.2,97.43,67.75-100.15c-13.5-4.77-35.13-9.6-67.38-9.6s-53.87,4.83-67.37,9.6l1.83,2.71Z" fill="#fff"/><path d="M351.65,114.24A49.75,49.75,0,0,0,344,108.4l-20,27.92h0L234.92,268l14.62,9.89L352.67,125.38A8.82,8.82,0,0,0,351.65,114.24Z" fill="#a60303"/><path d="M242.24,103.52c52.86,0,80.19,12.35,91.06,19l-.61.9c.11.09.21.18.32.28l11-15.29c-12.91-8.31-43.44-22.53-101.7-22.53h0c-58.26,0-88.79,14.22-101.7,22.53l10.61,14.81c.14-.05.29-.08.44-.13l-.38-.57C162.05,115.87,189.38,103.52,242.24,103.52Z" fill="#820303"/><circle cx="239.27" cy="345.47" r="72.56" fill="#f4cc21"/><path d="M239.27,255.72a24.3,24.3,0,1,0,24.3,24.3A24.3,24.3,0,0,0,239.27,255.72Zm0,39A14.7,14.7,0,1,1,254,280,14.7,14.7,0,0,1,239.27,294.71Z" fill="#f4cc21"/><circle cx="239.27" cy="345.47" r="60.55" fill="#edb926"/><ellipse cx="238.83" cy="346.67" rx="50.37" ry="52.03" fill="#f4cc21"/><path d="M239.27,272.9a72.74,72.74,0,0,1,13.14,1.25h.34L160.52,136.32l-20-27.92a49.73,49.73,0,0,0-7.69,5.84,8.82,8.82,0,0,0-1,11.14l100,147.9A73.5,73.5,0,0,1,239.27,272.9Z" fill="#c90404"/><line x1="207.91" y1="236.4" x2="128.18" y2="203.08" fill="none"/></svg>