<svg id="Layer_1" data-name="Layer 1" xmlns="http://www.w3.org/2000/svg" viewBox="0 0 480 480"><title>Iitems</title><path d="M123.37,298.43l6.74-3,.93-.41,2.31,1.41,2.27,77.25,59.72-47.82q4,1.5,8.12,2.93l1.73,8.36.09,0,13.82,65.85,44.7-50h0l2.71-3,3-3.4q4.38.83,8.72,1.57l27.35,70.31,40.21-64.78c1.38,0,2.73-.06,4.09-.1l5.13,6.9h0l40.28,54.14,21.44-72.5a115.32,115.32,0,0,0,12.55-5.55c2.32-.8,3.12-3.84,1.52-5.44-.8-2.32-3.84-3.12-5.44-1.52-39.42,20.87-112.84,21.67-187,2.32-74.21-20.87-137.62-58-161.54-96.6a4.06,4.06,0,0,0-5.44-1.52c-1.59.8-2.32,3.84-1.52,5.44a117.34,117.34,0,0,0,8.62,12l-17.89,74.5,62.74-27.34Z" fill="#f1f2f2"/><path d="M303.06,446.38,271,363.86l-3,3.4h0l-56,62.59-18.24-86.61-69.85,55.93-2.54-86.22L42.6,347.24l22.35-93.05c-2.06-2.77-4-5.53-5.66-8.27l-.31-.5-.26-.53c-3.9-7.81-.51-18.39,7.11-22.2a16.55,16.55,0,0,1,21.48,5.84l.18.28c21.74,35.11,82.25,70.87,154.18,91.12,35.36,9.21,71,13.87,103.15,13.49,30.79-.37,56.28-5.31,73.82-14.29a15.55,15.55,0,0,1,12.5-2.37,16,16,0,0,1,10.47,7.89,15.56,15.56,0,0,1,2.2,12.24A15.93,15.93,0,0,1,434.55,348c-2.39,1.22-4.89,2.4-7.48,3.51L400.25,442.2l-51.59-69.3Zm-8.53-90.9,13.69,35.19,20.15-32.46C317.33,357.8,306,356.88,294.53,355.47Zm73.69,1.78,22.25,29.9,10.42-35.23A218.64,218.64,0,0,1,368.21,357.25Zm-149.78-18.2,7.82,37.27L251.56,348q-8.17-1.82-16.33-3.95L235,344Q226.61,341.66,218.44,339.05ZM146.22,308.9l1.16,39.41L177.77,324C166.71,319.25,156.15,314.21,146.22,308.9ZM87.43,267.61l-8.81,36.67,35-15.27A220.64,220.64,0,0,1,87.43,267.61Z" fill="#fff"/><path d="M62.93,161.9a115,115,0,0,0,12.2,5.42l2.22,7.49.1,0L96.92,240l45.46-61c1.18,0,2.36.07,3.55.09l40.71,65.58,24.55-63.12h.09l3.09-8.05q4.11-.7,8.26-1.49l50.54,57.23,15.13-72.09.57-2.68q3.87-1.33,7.67-2.71l6.84,5.43.06,0L356.66,199l2-68,0,0,.24-8.51c1-.6,2-1.21,3-1.81l.45.2,69.32,30.27L415.54,84.61l0,0-1.77-7.34a117.07,117.07,0,0,0,8.58-11.93,4,4,0,1,0-7-3.91c-24,37.9-87.33,75-161.54,95.15-74.21,19.35-147.62,18.55-187-2.32-1.59-1.59-4.64-.8-5.44,1.52C59.82,158.06,60.61,160.38,62.93,161.9Z" fill="#f1f2f2"/><path d="M189.22,272.45l-45.87-73.9L92.07,267.38l-24.42-81.7-.12,0-2.67-9c-2.68-1.16-5.25-2.38-7.69-3.64l-.57-.29-.53-.35a17.28,17.28,0,0,1-7.7-11.08A16.38,16.38,0,0,1,50.28,150a15.94,15.94,0,0,1,10.88-8.69,15.53,15.53,0,0,1,12.5,2.37c17.54,9,43,13.92,73.82,14.29,32.14.37,67.82-4.28,103.2-13.5,71.44-19.41,132-54.64,154.19-89.76l.11-.17a16.55,16.55,0,0,1,21.47-5.84l.66.33.61.4a16.55,16.55,0,0,1,5.84,21.48l-.26.52-.31.5c-1.7,2.73-3.58,5.49-5.63,8.24l1.88,7.79,0,0,20.53,84.68-78.8-34.41-2.53,86-67.23-53-.1,0-2.57-2L280.29,256.1l-58.73-66.51-1.41,3.67H220ZM163,182.78l21.07,34,14.31-36.79C186.35,181.44,174.51,182.39,163,182.78Zm-72-6.41,10.8,36.15,22.84-30.67A218.62,218.62,0,0,1,91,176.37ZM240,172.73l26,29.48,8.09-38.55q-8.37,2.61-17,4.94l-.12,0Q248.54,170.85,240,172.73Zm73.76-23.42,31.11,24.51,1.17-39.65C335.9,139.53,325.1,144.6,313.78,149.31Zm65-34.94,34.79,15.19L404.8,93.34A219.46,219.46,0,0,1,378.79,114.37Z" fill="#fff"/><polygon points="197.44 324.23 135.62 373.73 133.3 294.88 197.44 324.23" fill="#c6d100"/><polygon points="271.65 344.31 219.11 403.08 202.87 325.76 271.65 344.31" fill="#f26273"/><polygon points="277.08 345.11 305.64 418.52 347.38 351.27 277.08 345.11" fill="#c6d100"/><polygon points="348.18 351.27 395.36 414.68 417.75 338.95 348.18 351.27" fill="#f26273"/><polygon points="133.3 294.09 60.61 325.76 79.17 248.5 133.3 294.09" fill="#f26273"/><polygon points="294.84 150.31 356.66 199 358.98 120.16 294.84 150.31" fill="#a4cbf5"/><polygon points="220.63 169.66 273.17 229.15 289.4 151.83 220.63 169.66" fill="#f5ca2f"/><polygon points="215.19 171.18 186.64 244.59 144.9 177.34 215.19 171.18" fill="#a4cbf5"/><polygon points="144.1 176.61 96.92 239.95 74.53 165.02 144.1 176.61" fill="#f5ca2f"/><polygon points="358.98 119.36 431.66 151.1 413.11 74.57 358.98 119.36" fill="#f5ca2f"/><g opacity="0.8"><path d="M211.28,181.47l3.48-9.06A375.27,375.27,0,0,1,145,177.55l5.44,8.7" fill="#66a8c4"/><path d="M258,171.39c9.93-2.61,19.71-5.51,29.13-8.62l2-9.49c-10.8,3.84-22,7.32-33.48,10.44s-22.54,5.44-33.7,7.39l6.38,7.25" fill="#c4a046"/><path d="M137.07,186l6.3-8.41c-25.73-.8-48.48-4.78-66.17-12.1L74.46,165l2.9,9.78" fill="#c4a046"/><path d="M359,120.66A386.5,386.5,0,0,1,295.64,151l7.75,6.16A361.94,361.94,0,0,0,358.69,131Z" fill="#66a8c4"/><path d="M415.58,84.57l-2.39-9.93c-11.74,15.8-30.08,31.23-52.9,45.29l9.57,4.13C388.62,111.82,404.2,98.49,415.58,84.57Z" fill="#c4a046"/></g><g opacity="0.8"><path d="M234.62,346.19c9.78,2.68,19.57,4.93,29.21,6.88l5.87-6.59c-10.87-2-21.81-4.42-32.76-7.25-11.45-3.26-22.68-6.81-33.55-10.8l1.81,8.77C214.76,340.47,224.62,343.44,234.62,346.19Z" fill="#c45643"/><path d="M414.56,349.67l2.83-9.64c-17.9,7.75-41.31,12.1-68,12.9l5.65,7.61C377.67,359.53,397.89,355.83,414.56,349.67Z" fill="#c45643"/><path d="M123.37,298.43l8.91-3.91c-22.68-14.06-40.87-29.64-52.61-45.58l-.51-.43-2.32,9.71C88.3,272.35,104.17,286,123.37,298.43Z" fill="#c45643"/></g><path d="M256.21,164.22c-77.33,20.87-151.54,19.35-193.28-2.32-2.32-1.52-3.12-3.84-1.52-6.16.8-2.32,3.84-3.12,5.44-1.52,39.42,20.87,112.84,21.67,187,2.32,74.21-20.15,137.55-57.25,161.54-95.15a4,4,0,0,1,7,3.91C396.88,106.24,333.47,144.14,256.21,164.22Z" fill="#fff"/><path d="M236.07,338.95c77.33,20.87,151.54,19.35,193.28-2.32,2.32-.8,3.12-3.84,1.52-5.44-.8-2.32-3.84-3.12-5.44-1.52-39.42,20.87-112.84,21.67-187,2.32-74.21-20.87-137.62-58-161.54-96.6a4.06,4.06,0,0,0-5.44-1.52c-1.59.8-2.32,3.84-1.52,5.44C95.4,280.17,158.81,318.07,236.07,338.95Z" fill="#fff"/></svg>