<svg id="Layer_1" data-name="Layer 1" xmlns="http://www.w3.org/2000/svg" viewBox="0 0 480 480"><title>item_19</title><g id="Layer_1-2" data-name="Layer 1"><path d="M331.19,130.71a140.23,140.23,0,1,0,55.28,171.42,140.25,140.25,0,0,0-55.28-171.42ZM178.54,175l-.11-.29Zm-.42-1.15a1.81,1.81,0,0,0-.08-.29,1.87,1.87,0,0,0,.07.33Zm-.34-1.19v-.22a.47.47,0,0,0,0,.26Zm-.25-1.22v0Zm-.17-1.25Zm47.45,8.4-.14.09Zm-2.62,1.67-.18.1Zm15.61-35.84.16.25Zm1.46,2.74a1,1,0,0,0,.12.31,1.06,1.06,0,0,1-.12-.26Zm.43,1.17a1,1,0,0,0,.1.33,1.21,1.21,0,0,1-.1-.29Zm.34,1.21a.51.51,0,0,0,.06.29,1.58,1.58,0,0,0-.09-.25Zm.25,1.24v0Zm.16,1.29Zm-21.1,29.74-1.49.72q.76-.3,1.5-.68Zm-2.78,1.29-.16.07Zm-15.49-44h0Zm-4.11,2q.73-.4,1.48-.78l-1.44.84Zm-5.34,3.41Zm1.24-.89.25-.17Zm1.3-.87.49-.3Zm1.36-.84.78-.45Z" fill="#ed5965" stroke="#fff" stroke-miterlimit="10" stroke-width="20"/><path d="M181,156.17a42.19,42.19,0,0,1,17.49-15.79,46.54,46.54,0,0,1,10.86-3.88c.9-4.31,3.3-14.43,7.19-21.56A140.37,140.37,0,0,0,147,161.87,72.94,72.94,0,0,1,181,156.17Z" fill="#fd3d00"/><path d="M331.19,130.71c-39.62-11.56-85.25,5.37-96.68,10.08a16.76,16.76,0,0,1,4.23,5.28c3.1,6.14,2,13.59-2.19,20.46,18.51,7.88,150.58,66.52,149.88,135.6A140.24,140.24,0,0,0,331.19,130.71Z" fill="#fd3d00"/><path d="M207.61,185.93c-11.2,2.24-21.58-.33-26.84-7.1-11.37,10.5-61.75,60.78-55.06,121.3A140,140,0,0,0,273.28,388.6C227.37,359.37,210,208.29,207.61,185.93Z" fill="#fd3d00"/><path d="M234.52,140.79c11.43-4.71,57.05-21.64,96.68-10.08a140.21,140.21,0,0,0-114.7-15.77c-3.88,7.13-6.29,17.25-7.19,21.56C219.25,134.29,228.65,135.85,234.52,140.79Z" fill="#f4cc21"/><path d="M180.77,178.82a16.39,16.39,0,0,1-1.73-2.66c-3-6-2.05-13.25,1.9-20a72.94,72.94,0,0,0-34,5.7,140.15,140.15,0,0,0-21.19,138.25C119,239.6,169.4,189.32,180.77,178.82Z" fill="#f4cc21"/><path d="M236.55,166.54a42.44,42.44,0,0,1-17.21,15.32,46.35,46.35,0,0,1-11.74,4.07c2.34,22.36,19.76,173.44,65.67,202.68a140.34,140.34,0,0,0,113.15-86.47C387.14,233.05,255.06,174.41,236.55,166.54Z" fill="#f4cc21"/><ellipse cx="208.89" cy="161.13" rx="33.42" ry="23.22" transform="translate(-50.17 111.27) rotate(-26.75)" fill="#fff"/><ellipse cx="315.61" cy="181.02" rx="41.2" ry="58.62" transform="translate(-17.05 328.39) rotate(-53.73)" fill="#fff" opacity="0.3" style="isolation:isolate"/></g></svg>