<svg id="Layer_1" data-name="Layer 1" xmlns="http://www.w3.org/2000/svg" viewBox="0 0 480 480"><title>Iitems</title><path d="M85.8,418a5.22,5.22,0,0,0,7.38,0l17.17-17.17a8.19,8.19,0,0,0,1.25-.11l29.43-4.9a5.22,5.22,0,0,0-1.71-10.29l-16.41,2.73,17.64-17.64L172.67,362h0l1.74-.18.4,0q1.24-.15,2.51-.36l.49-.08c.81-.14,1.63-.29,2.46-.46l.2,0c.89-.19,1.79-.39,2.7-.62l.54-.13q2.76-.69,5.64-1.61l.53-.17q1.44-.46,2.9-1l.29-.11q1.38-.49,2.78-1l.45-.17q1.49-.58,3-1.21l.46-.2q1.45-.61,2.91-1.27l.26-.11q1.56-.7,3.14-1.46l.53-.25q3.19-1.53,6.46-3.28l.54-.29q1.64-.88,3.3-1.81l.12-.07q1.61-.91,3.24-1.87l.48-.28q1.66-1,3.34-2l.38-.23q1.6-1,3.22-2l.31-.2q1.7-1.09,3.41-2.23l.51-.34q3.44-2.31,6.91-4.8l.55-.4a308.68,308.68,0,0,0,37-31.76q6.11-6.11,11.69-12.32V274.5a7.14,7.14,0,0,1,3.74-6.26,7.07,7.07,0,0,1,3.39-.86H309.8c1.41-1,2.82-2,4.24-3l.78-.56q2.07-1.5,4.14-3.05l.68-.51q2.09-1.58,4.19-3.21l.15-.12q2.17-1.7,4.34-3.46l.66-.53q2.17-1.77,4.34-3.59l.31-.26q2.23-1.89,4.46-3.83l.09-.08q2.25-2,4.49-4l.42-.38q4.13-3.75,8.22-7.7l.71-.69q1.88-1.82,3.75-3.69,2.36-2.36,4.66-4.74l.27-.28q2.2-2.29,4.34-4.59l.43-.47q2.09-2.25,4.11-4.52l.48-.54q2-2.25,4-4.51l.44-.52q2-2.29,3.86-4.57l.34-.41q1.94-2.35,3.81-4.71l.15-.19c37.51-47.26,53-93.73,34.64-112.08-17.64-17.64-61.26-4-106.58,30.37l-.21.16q-2.37,1.8-4.75,3.69l-.42.33q-2.31,1.83-4.61,3.73l-.56.46q-2.26,1.87-4.52,3.8l-.63.54q-2.23,1.92-4.46,3.91l-.66.59q-2.23,2-4.45,4l-.61.57q-2.25,2.1-4.5,4.25l-.48.46q-2.26,2.18-4.51,4.42l-.16.15-.31.32q-1.58,1.58-3.13,3.18l-.65.67q-1.62,1.67-3.21,3.36l0,0h0l-.07.08q-2.19,2.32-4.31,4.64l-.14.16q-4.21,4.63-8.16,9.28l-.33.39q-1.88,2.22-3.69,4.45l-.43.53q-3.58,4.41-6.9,8.8l-.63.84q-1.54,2-3,4.09l-.67.93q-1.45,2-2.85,4l-.13.19v14.54a7.15,7.15,0,0,1-7.13,7.13H216.19l-.24.23q-1.88,1.69-3.75,3.44l-.16.15h0q-4.1,3.83-8.16,7.87a312.6,312.6,0,0,0-28.74,33h0q-4.25,5.66-8,11.25l-.07.11q-2.47,3.67-4.72,7.3l-.09.15q-2.25,3.63-4.27,7.21l0,.08q-1,1.79-2,3.56l0,.05q-1.89,3.52-3.55,7l-.11.23q-1.61,3.35-3,6.61l-.12.29q-1.36,3.24-2.49,6.36l-.1.27q-.55,1.54-1,3l-.08.26q-.47,1.47-.89,2.92l0,.12q-.42,1.46-.78,2.88l-.1.41q-.7,2.82-1.16,5.5l-.07.44c-.15.88-.28,1.75-.38,2.61l0,.19q-.12,1-.21,2h0l-8.61,32.12-17.43,17.43,2.74-16.41a5.22,5.22,0,1,0-10.29-1.72l-5,29.77a8.26,8.26,0,0,0-.1,1L85.8,410.64A5.21,5.21,0,0,0,85.8,418Z" fill="#f1f2f2"/><path d="M89.49,431a16.68,16.68,0,0,1-11.8-28.47l14.66-14.66,4.54-27.2a16.67,16.67,0,0,1,27.68-9.59l5.9-22q.07-.67.15-1.34l0-.23c.12-1,.27-2,.45-3.06l.09-.51c.35-2,.8-4.17,1.33-6.31l.11-.43c.28-1.1.57-2.18.88-3.27l.05-.18c.3-1,.63-2.11,1-3.2l.1-.31c.35-1.09.74-2.21,1.14-3.34l.08-.22q1.26-3.51,2.73-7l.14-.32c1-2.32,2.06-4.71,3.21-7.1l.13-.28c1.17-2.42,2.44-4.91,3.77-7.38.7-1.3,1.39-2.56,2.11-3.82l0-.09c1.42-2.5,2.93-5.06,4.5-7.59l.09-.15c1.57-2.54,3.24-5.11,4.95-7.65l.09-.13c2.6-3.87,5.4-7.8,8.31-11.67l0-.06a324,324,0,0,1,29.8-34.19c1.55-1.55,3.15-3.12,4.8-4.7v0l3.82-3.57q1.93-1.8,3.88-3.56l3.52-3.18H225V190.42l2.21-3.19c.93-1.35,1.92-2.74,2.93-4.14l.69-1q1.54-2.12,3.13-4.24l.66-.87c2.28-3,4.69-6.09,7.14-9.11l.45-.56q1.87-2.29,3.82-4.59l.34-.4c2.73-3.22,5.56-6.45,8.43-9.6l.17-.18c1.44-1.58,2.92-3.18,4.43-4.77l.41-.43c1-1,2-2.08,3-3.14l.67-.7q1.6-1.64,3.22-3.27l.51-.51c1.52-1.52,3.07-3,4.62-4.54l.5-.48q2.3-2.22,4.63-4.38l.62-.58q2.31-2.14,4.6-4.19l.68-.61q2.3-2,4.61-4l.65-.56q2.33-2,4.67-3.93l.58-.48q2.39-2,4.77-3.86l.42-.33q2.49-2,4.94-3.83l.18-.14c23.68-18,47-30.61,67.42-36.6,30.06-8.8,46.09-.93,54.24,7.22,22.79,22.79,9.53,72.76-33.77,127.32l-.16.21c-1.28,1.61-2.6,3.23-3.94,4.86l-.35.43q-2,2.36-4,4.73l-.46.54q-2,2.33-4.08,4.66l-.5.56q-2.09,2.33-4.24,4.66l-.44.47q-2.22,2.39-4.48,4.74l-.28.29c-1.67,1.74-3.24,3.34-4.79,4.89q-1.92,1.92-3.86,3.8l-.73.7c-2.8,2.7-5.65,5.38-8.48,7.95l-.41.37c-1.56,1.42-3.11,2.79-4.65,4.15l-.08.07c-1.55,1.35-3.08,2.67-4.62,4l-.31.26q-2.26,1.9-4.5,3.72l-.67.55q-2.26,1.83-4.5,3.59l-.16.12q-2.17,1.7-4.34,3.33l-.71.53q-2.15,1.61-4.3,3.17l-.8.58q-2.22,1.6-4.41,3.12l-2.95,2H299.6V292l-2.95,3.27c-3.91,4.33-8,8.62-12.1,12.75A319.61,319.61,0,0,1,246.11,341l-.56.4c-2.41,1.73-4.84,3.42-7.24,5l-.52.35q-1.8,1.2-3.58,2.34l-.29.18c-1.16.75-2.29,1.45-3.41,2.15l-.39.24q-1.77,1.09-3.52,2.12l-.51.3q-1.71,1-3.41,2l-.14.08q-1.76,1-3.49,1.92l-.57.3c-2.32,1.23-4.63,2.41-6.89,3.49l-.56.27q-1.71.81-3.38,1.57l-.23.1c-1.1.49-2.15.95-3.19,1.39l-.5.21q-1.65.69-3.27,1.32l-.5.19c-1,.39-2,.77-3,1.13l-.29.1c-1.12.39-2.18.75-3.23,1.09l-.58.18c-2.16.69-4.28,1.29-6.34,1.81l-.6.15q-1.57.38-3.09.7l-.29.06c-.91.19-1.86.36-2.8.52l-.56.1q-1.51.25-3,.43l-.4,0-1.06.12-22.35,6a16.68,16.68,0,0,1-9.48,27.81l-27.18,4.53-14.44,14.44A16.57,16.57,0,0,1,89.49,431Zm57.94-76.66-.75,2.78,2.92-.78Zm36.74-87c-2.65,3.52-5.19,7.09-7.55,10.61l-.08.12c-1.54,2.3-3.05,4.63-4.48,6.93l-.09.15c-1.41,2.27-2.77,4.57-4,6.81-.68,1.2-1.29,2.31-1.89,3.42q-1.8,3.34-3.35,6.55l-.1.21c-1,2.07-1.92,4.12-2.77,6.12l-.12.27c-.82,2-1.58,3.9-2.26,5.79l-.06.17c-.35,1-.67,1.9-1,2.81l-.07.23q-.42,1.32-.79,2.59l-.05.17c-.22.78-.45,1.62-.66,2.46l-.09.36c-.4,1.6-.73,3.18-1,4.68l-.06.37c-.12.72-.23,1.44-.32,2.14l0,.2c-.06.51-.12,1.06-.17,1.61l-1.75,20.22,20.22-1.76,1.41-.14.25,0c.76-.09,1.45-.19,2.14-.31l.41-.07c.69-.12,1.38-.25,2.08-.39l.24,0c.7-.15,1.47-.33,2.25-.52l.45-.11c1.61-.4,3.28-.88,5-1.42l.49-.16c.84-.27,1.71-.56,2.59-.87l.27-.1c.82-.29,1.66-.61,2.51-.93l.41-.16q1.36-.53,2.75-1.11l.45-.19c.87-.37,1.76-.75,2.66-1.16l.21-.09c1-.45,2-.9,2.95-1.37l.5-.24c2-.95,4-2,6-3.06l.5-.27c1-.56,2.08-1.13,3.12-1.71l.18-.1c.94-.53,2-1.12,3-1.72l.45-.27q1.58-.93,3.17-1.91l.36-.22Q220,331,221.52,330l.26-.17c1.11-.71,2.19-1.42,3.28-2.15l.49-.33c2.18-1.47,4.41-3,6.59-4.58l.53-.38a296.66,296.66,0,0,0,35.66-30.57c2.82-2.82,5.61-5.72,8.33-8.66V274.5a18.6,18.6,0,0,1,18.59-18.59h10.9l1.17-.84.74-.53q2-1.45,4-2.95l.66-.5q2-1.52,4-3.09l.12-.1c1.42-1.11,2.82-2.23,4.21-3.36l.64-.52q2.09-1.7,4.18-3.47l.3-.26q2.16-1.82,4.31-3.71l.14-.12c1.39-1.22,2.84-2.51,4.29-3.82l.4-.36c2.66-2.42,5.34-4.93,8-7.46l.69-.67q1.81-1.76,3.63-3.57,2.29-2.29,4.51-4.6l.23-.24c1.45-1.51,2.85-3,4.23-4.47l.42-.45q2-2.19,4-4.38l.47-.53q1.94-2.17,3.82-4.36l.44-.51q1.88-2.2,3.72-4.41l.33-.4q1.87-2.27,3.68-4.54l.09-.11c36.72-46.26,46.9-85.59,35.57-96.92-10.49-10.49-46.14-3.05-91.54,31.4l-.21.16q-2.29,1.74-4.58,3.55l-.41.32q-2.23,1.77-4.45,3.6l-.55.45q-2.17,1.79-4.36,3.67l-.61.53q-2.16,1.86-4.32,3.78l-.64.57q-2.16,1.93-4.31,3.92l-.59.55q-2.18,2-4.35,4.11l-.46.44q-2.2,2.12-4.37,4.29l-.47.47c-1,1-2,2-3,3.07l-.64.66q-1.56,1.61-3.1,3.25l-.12.13q-2.1,2.23-4.15,4.47l-.14.15c-2.68,3-5.34,6-7.89,9l-.32.38q-1.81,2.14-3.57,4.29l-.41.51c-2.29,2.82-4.53,5.68-6.66,8.49l-.61.8q-1.48,2-2.9,3.93l-.65.9-.82,1.15v10.9a18.61,18.61,0,0,1-18.59,18.59h-8.66l-.38.35-.41.39c-2.75,2.56-5.39,5.12-7.87,7.59a300.86,300.86,0,0,0-27.68,31.74ZM276,163.64l-.08.08Z" fill="#fff"/><path d="M110.27,400.85a7.11,7.11,0,0,1-5.12-2.1,7.31,7.31,0,0,1-1.92-6.42l5-29.77a5.22,5.22,0,1,1,10.29,1.72l-4.25,25.45,25.07-4.18A5.22,5.22,0,0,1,141,395.83l-29.43,4.9A8.2,8.2,0,0,1,110.27,400.85Z" fill="#f4cc21"/><path d="M309.8,267.37a338.28,338.28,0,0,0,45.95-38.67C412,172.47,439.49,108.84,417.23,86.57s-85.9,5.26-142.12,61.49A338.12,338.12,0,0,0,236.44,194v14.54a7.15,7.15,0,0,1-7.13,7.13H216.19q-6.2,5.59-12.31,11.69c-50.6,50.6-75.38,107.87-55.34,127.91s77.31-4.73,127.91-55.34q6.11-6.11,11.69-12.32V274.5a7.15,7.15,0,0,1,7.13-7.13H309.8Z" fill="#92c64e"/><path d="M183.28,328.14a7.22,7.22,0,0,1-5-2.17,7.38,7.38,0,0,1-2.14-5.08l-1-60.57c-30.41,40.44-42.35,79.2-26.6,95s54.13,3.93,94.35-26.15Z" fill="#24b8ac"/><path d="M325.21,187.69a8.63,8.63,0,0,1-6-2.59,8.82,8.82,0,0,1-2.56-6.07l-1.07-65.76a343.59,343.59,0,0,0-40.47,34.78q-3.75,3.76-7.33,7.55l1.14,70.26a9.78,9.78,0,0,0,2.84,6.73,9.57,9.57,0,0,0,6.65,2.87l69.16,1.15q4.11-3.86,8.17-7.92a344.16,344.16,0,0,0,34.38-39.92Z" fill="#2dc9ba"/><path d="M347.57,236.62l-69.16-1.15a9.56,9.56,0,0,1-6.65-2.87,9.78,9.78,0,0,1-2.84-6.73l-1.14-70.26A331.27,331.27,0,0,0,236.44,194v14.54a7.15,7.15,0,0,1-7.13,7.13H216.19c-1.39,1.25-2.77,2.53-4.15,3.82l1,62.25a9.78,9.78,0,0,0,2.84,6.73,9.57,9.57,0,0,0,6.65,2.87l61.23,1c1.48-1.58,2.94-3.16,4.37-4.74V274.5a7.15,7.15,0,0,1,7.13-7.13H309.8A330.75,330.75,0,0,0,347.57,236.62Z" fill="#24b8ac"/><path d="M265.26,158.3l-.17.18h0Z" fill="#f9bd6e"/><path d="M266.72,156.74l1-1.07Z" fill="#f9bd6e"/><path d="M344.71,239.26h0l2.83-2.63C346.61,237.52,345.66,238.38,344.71,239.26Z" fill="#f9bd6e"/><path d="M369,134.79a5.21,5.21,0,0,0-7.37,0L153.54,342.9l-11.76-11.76-8.61,32.12L85.8,410.64A5.22,5.22,0,0,0,93.18,418l47.37-47.38L172.67,362l-11.75-11.76L369,142.16A5.22,5.22,0,0,0,369,134.79Z" fill="#f4cc21"/></svg>