<svg id="Layer_1" data-name="Layer 1" xmlns="http://www.w3.org/2000/svg" viewBox="0 0 480 480"><title>Iitems</title><path d="M409.06,262.84c16.13-12.11,26.42-31.2,26.42-52,0-25.46-15.74-48.3-37.93-58.53a37.57,37.57,0,0,0-6.74-3,69.85,69.85,0,0,0-3.48-16.53c-9.57-29.81-37.42-53-70.27-53.67h0a6,6,0,0,0-2-.22h0a67.89,67.89,0,0,0-11.31.87,56.59,56.59,0,0,0-7.83-6.53h0C269.41,53,230.24,53,203.7,73.24a56.61,56.61,0,0,0-7.83,6.53,67.89,67.89,0,0,0-11.31-.87,6,6,0,0,0-2,.22h0c-32.64.65-60.27,23.64-70.06,53.67a80.75,80.75,0,0,0-3.7,16.32,39.71,39.71,0,0,0-7,3h0c-22.19,10.44-37.71,33.29-37.71,58.74,0,20.75,10.29,39.84,26.43,52-17.12,10-26.42,21.89-26.42,35.08,0,72,83.68,131.27,185.66,131.27S435.48,369.9,435.48,297.92C435.48,284.73,426.18,272.81,409.06,262.84Z" fill="#fff"/><path d="M249.82,439.19c-107.89,0-195.66-63.37-195.66-141.27,0-15.7,9.51-27.67,20.29-36.2a75,75,0,0,1-20.29-50.83c0-28.61,16.87-55.08,43-67.59.88-.51,1.76-1,2.63-1.36A94.81,94.81,0,0,1,103,129.62c11.44-35.09,42.82-59.3,78.28-60.47a17.34,17.34,0,0,1,3.23-.25c2.83,0,5.44.11,8,.35a67,67,0,0,1,5.3-4.1c30.17-22.87,73.84-22.86,104,0q2.76,1.92,5.3,4.1c2.52-.24,5.14-.35,8-.35a17.28,17.28,0,0,1,3.23.25c35.2,1.18,67.37,25.93,78.51,60.53A84.17,84.17,0,0,1,400,142.33c.72.36,1.46.75,2.19,1.17,26.31,12.34,43.28,38.73,43.28,67.39a75,75,0,0,1-20.29,50.83c10.78,8.53,20.29,20.51,20.29,36.2C445.48,375.81,357.71,439.19,249.82,439.19Zm-65-350.29-.55.18-1.52,0c-27,.54-51.95,19.77-60.75,46.77a70.4,70.4,0,0,0-3.27,14.36l-.71,6.14-5.81,2.11a32.52,32.52,0,0,0-5.23,2.22l-.43.26-.46.21c-19.42,9.14-32,28.65-32,49.7,0,17,8.38,33.41,22.43,44l12.06,9.05-13,7.59c-9.79,5.7-21.45,14.91-21.45,26.43,0,31.49,17.89,61.49,50.36,84.46,33.55,23.73,78,36.8,125.3,36.8s91.75-13.07,125.3-36.8c32.48-23,50.36-53,50.36-84.46,0-11.53-11.67-20.74-21.45-26.43l-13-7.58,12.06-9.05c14-10.54,22.43-27,22.43-44,0-20.72-12.91-40.59-32.12-49.44l-.49-.23-.47-.28a28.44,28.44,0,0,0-5-2.22l-6.06-2.2-.49-6.43a59.45,59.45,0,0,0-3-14.14l0-.1c-8.66-27-33.73-46.19-61-46.73l-1.52,0-.55-.18a57.17,57.17,0,0,0-9.36.73l-5.08.85-3.64-3.64a46.79,46.79,0,0,0-6.45-5.37l-.37-.27c-22.84-17.41-57.29-17.41-80.13,0l-.37.27a46.81,46.81,0,0,0-6.45,5.38l-3.64,3.64-5.07-.84A57.25,57.25,0,0,0,184.87,88.9Z" fill="#fff"/><path d="M64.16,298.88c0,72,83.68,131.27,185.66,131.27s185.66-59.28,185.66-131.27Z" fill="#edc006"/><path d="M397.55,153.33a37.55,37.55,0,0,0-6.74-3,69.83,69.83,0,0,0-3.48-16.54c-9.57-29.81-37.42-53-70.27-53.67a6,6,0,0,0-2-.22,67.87,67.87,0,0,0-11.31.87,56.56,56.56,0,0,0-7.83-6.53C269.41,54,230.24,54,203.7,74.21a56.6,56.6,0,0,0-7.83,6.53,67.87,67.87,0,0,0-11.31-.87,6,6,0,0,0-2,.22c-32.64.65-60.27,23.64-70.06,53.67a80.76,80.76,0,0,0-3.7,16.32,39.77,39.77,0,0,0-7,3c-22.19,10.44-37.71,33.29-37.71,58.74,0,29.15,20.31,55,48.59,62.88H386.89c28.28-7.83,48.59-33.72,48.59-62.88C435.48,186.4,419.75,163.55,397.55,153.33Z" fill="#fccc00"/><path d="M397.55,153.33l-84.2,68.1a12.31,12.31,0,0,1-6.53,2.17,11,11,0,0,1-8.7-4.35A10.77,10.77,0,0,1,300.3,204l87-70.28a69.8,69.8,0,0,1,3.48,16.54A37.57,37.57,0,0,1,397.55,153.33Z" fill="#c46d05" opacity="0.6"/><path d="M201.52,219.25a11,11,0,0,1-8.7,4.35,12.31,12.31,0,0,1-6.53-2.17l-84.42-68.32a39.72,39.72,0,0,1,7-3,80.81,80.81,0,0,1,3.7-16.32L199.35,204A10.77,10.77,0,0,1,201.52,219.25Z" fill="#c46d05" opacity="0.6"/><path d="M317.05,80.08l-40.9,104.58a10.7,10.7,0,0,1-10.23,7.4,9,9,0,0,1-3.48-.65,10.6,10.6,0,0,1-6.74-13.71L295.95,74.21a56.6,56.6,0,0,1,7.83,6.53,67.87,67.87,0,0,1,11.31-.87A6,6,0,0,1,317.05,80.08Z" fill="#c46d05" opacity="0.6"/><path d="M237.2,191.4a9.87,9.87,0,0,1-3.48.65,10.7,10.7,0,0,1-10.23-7.4L182.59,80.08a6,6,0,0,1,2-.22,67.87,67.87,0,0,1,11.31.87,56.56,56.56,0,0,1,7.83-6.53L243.95,177.7A10.61,10.61,0,0,1,237.2,191.4Z" fill="#c46d05" opacity="0.6"/><path d="M316.34,237.64h-133C109.16,247,64.16,269.88,64.16,298.88c0,42.86,93.76,65.27,185.66,65.27s185.66-22.42,185.66-65.27C435.48,269.88,390.49,247,316.34,237.64Z" fill="#f7d95c"/><g opacity="0.6"><path d="M155.53,307a10.87,10.87,0,0,1-.84-15.34,131.88,131.88,0,0,1,31.38-24.44,10.88,10.88,0,0,1,10.54,19,111.53,111.53,0,0,0-25.73,19.94A10.89,10.89,0,0,1,155.53,307Z" fill="#c46d05"/></g><path d="M328.77,306.16A111.49,111.49,0,0,0,303,286.22a10.88,10.88,0,1,1,10.54-19A131.87,131.87,0,0,1,345,291.63a10.88,10.88,0,0,1-16.19,14.53Z" fill="#c46d05" opacity="0.6"/><path d="M249.82,320.64A76.15,76.15,0,1,1,326,244.49,76.24,76.24,0,0,1,249.82,320.64Z" fill="#f9f6e8"/><ellipse cx="268.93" cy="205.4" rx="24.58" ry="34.98" transform="translate(-30.56 362.94) rotate(-65.12)" fill="#fff"/></svg>