<svg id="Layer_1" data-name="Layer 1" xmlns="http://www.w3.org/2000/svg" viewBox="0 0 480 480"><title>Iitems</title><path d="M307.72,88.79,261.7,103l-6.92-22.4-35,10.8a30.64,30.64,0,0,0-58.39,18l-35,10.8,6.92,22.4-46,14.22L171.5,429.07,391.84,361Zm-120.4.94a11.15,11.15,0,0,1,14,13.89q-.16.51-.36,1a11.14,11.14,0,0,1-6,6,11.16,11.16,0,1,1-7.66-20.93Z" fill="#882f3e"/><path d="M164.9,441.58l-90-291.29,46-14.22L114,113.67l36.69-11.34a40.64,40.64,0,0,1,74-22.88l36.69-11.34,6.92,22.4,46-14.22,90,291.29Zm-65-278.09L178.1,416.57l201.23-62.19L301.12,101.3l-46,14.22-6.92-22.4L213.9,103.72l-2.28-5.81a21.11,21.11,0,0,1-.76,8.62c-.2.65-.43,1.29-.68,1.91a21,21,0,0,1-11.3,11.43,21.28,21.28,0,0,1-2,.74,21.17,21.17,0,0,1-25-10.4l1.4,6.07L139,126.87l6.92,22.4Zm90.73-64.26a1.16,1.16,0,0,0-.35.05h0a1.16,1.16,0,1,0,.68,2.21l.12,0a1.15,1.15,0,0,0,.61-.63l0-.11a1.11,1.11,0,0,0,0-.32,1.17,1.17,0,0,0-.83-1.12A1.1,1.1,0,0,0,190.62,99.23Z" fill="#fff"/><rect x="123.54" y="116.65" width="230.62" height="284.89" transform="translate(-65.85 82.08) rotate(-17.17)" fill="#edb926"/><rect x="147.87" y="140.98" width="181.97" height="236.23" transform="translate(-65.85 82.08) rotate(-17.17)" fill="#fff"/><path d="M219.07,91.58a30.64,30.64,0,0,0-58.39,18l-35,10.8L142.59,175l128.3-39.65L254,80.78Zm-25.92,19.63a11.16,11.16,0,1,1,7.37-14A11.16,11.16,0,0,1,193.15,111.21Z" fill="#882f3e"/><rect x="156.65" y="192.89" width="65.01" height="7.1" transform="translate(-49.57 64.61) rotate(-17.17)" fill="#e0dfd7"/><rect x="160.19" y="199.84" width="124.48" height="7.1" transform="translate(-50.14 74.75) rotate(-17.17)" fill="#e0dfd7"/><rect x="165.05" y="215.56" width="124.48" height="7.1" transform="translate(-54.56 76.88) rotate(-17.17)" fill="#e0dfd7"/><rect x="173.97" y="248.94" width="65.01" height="7.1" transform="matrix(0.96, -0.3, 0.3, 0.96, -65.35, 72.22)" fill="#e0dfd7"/><rect x="177.51" y="255.88" width="124.48" height="7.1" transform="translate(-65.91 82.36) rotate(-17.17)" fill="#e0dfd7"/><rect x="182.37" y="271.6" width="124.48" height="7.1" transform="translate(-70.34 84.49) rotate(-17.17)" fill="#e0dfd7"/><rect x="191.29" y="304.98" width="65.01" height="7.1" transform="translate(-81.12 79.84) rotate(-17.17)" fill="#e0dfd7"/><rect x="194.83" y="311.92" width="124.48" height="7.1" transform="translate(-81.69 89.97) rotate(-17.17)" fill="#e0dfd7"/><rect x="199.69" y="327.64" width="124.48" height="7.1" transform="matrix(0.96, -0.3, 0.3, 0.96, -86.11, 92.11)" fill="#e0dfd7"/><path d="M200.52,97.26a11.16,11.16,0,0,1-7.37,14l13.59,44,64.15-19.83L254,80.78l-35,10.8a30.65,30.65,0,0,0-37.58-18.09l5.07,16.4A11.16,11.16,0,0,1,200.52,97.26Z" fill="#882f3e"/></svg>