<svg id="Layer_1" data-name="Layer 1" xmlns="http://www.w3.org/2000/svg" xmlns:xlink="http://www.w3.org/1999/xlink" viewBox="0 0 480 480"><defs><linearGradient id="linear-gradient" x1="192.1" y1="200.34" x2="267.38" y2="200.34" gradientUnits="userSpaceOnUse"><stop offset="0" stop-color="#fff"/><stop offset="1" stop-color="#fff"/></linearGradient></defs><title>Iitems</title><circle cx="153.98" cy="136.82" r="58.95" fill="#fff"/><path d="M154,205.49a68.67,68.67,0,1,1,68.67-68.67A68.75,68.75,0,0,1,154,205.49Zm0-117.9a49.22,49.22,0,1,0,49.22,49.22A49.28,49.28,0,0,0,154,87.6Z" fill="#fff"/><path d="M167.15,194.29h.06l3.31-.75,0-.11A58.42,58.42,0,0,0,190.6,183l66.78,83.53h0L256,379l-41.28,34.6h99.06L272.55,379l-1.34-112.43h0L374.93,136.82H213a59.29,59.29,0,0,0-.79-9.67l.11,0-.77-3.37-.76-3.37-.11,0a58.41,58.41,0,0,0-22.32-31.53l.06-.09-2.93-1.84-2.93-1.84-.06.09" fill="#fff"/><path d="M222.07,127.32H394.69L280.75,269.84,282,374.52l57.95,48.58H188.64l57.95-48.58,1.25-104.68-59.16-74a67.59,67.59,0,0,1-7.12,3.65M200.9,86.91a67.11,67.11,0,0,1,15.88,22.53m24.1,294.66H287.7l-23.41-19.62Z" fill="#fff"/><path d="M107,107.31a55.42,55.42,0,1,0,34.65-24.59A55.33,55.33,0,0,0,107,107.31Z" fill="#eea636"/><path d="M144.32,78.69l0-.1-3.37.76-3.37.77,0,.1A58.37,58.37,0,0,0,106,102.6l-.09-.06-3.68,5.86.09.05a58.52,58.52,0,0,0-6.46,38l-.11,0,.77,3.38.76,3.37.11,0a58.41,58.41,0,0,0,22.31,31.53l-.06.09,2.93,1.85,2.93,1.84.06-.09a58.34,58.34,0,0,0,38,6.5l0,.11,3.38-.77h.06l3.31-.75,0-.11A58.39,58.39,0,0,0,201.93,171l.09.06,1.84-2.93,1.84-2.93-.09-.05a59.13,59.13,0,0,0,7.06-23.25h0a58.77,58.77,0,0,0-.6-14.77l.11,0-.77-3.37-.77-3.37-.11,0a58.42,58.42,0,0,0-22.32-31.53l.06-.09-2.93-1.84-2.93-1.84-.06.09A58.36,58.36,0,0,0,144.32,78.69Zm1.54,6.75A51.47,51.47,0,0,1,178.69,91l-13.47,21.42L155.5,127.9l-3.68-16.18Zm-34,20.84A51.5,51.5,0,0,1,139.11,87l9.65,42.48-9.69-6.09Zm-9.72,26a52.25,52.25,0,0,1,6-20.17l19.09,12,17.75,11.16-8.83,2L102.64,145A51.68,51.68,0,0,1,102.18,132.31Zm21.24,46.59a51.57,51.57,0,0,1-19.25-27.2L146.61,142l-13.27,21.09Zm5.86,3.69,4-6.39,19.16-30.46,1.59,7,8.06,35.45A51.53,51.53,0,0,1,129.28,182.59Zm66.79-15.23a51.53,51.53,0,0,1-27.21,19.31l-.32-1.39-9.33-41.09,4.64,2.91Zm9.71-26h0a52.38,52.38,0,0,1-6,20.16l-30.25-19-6.6-4.15,29.42-6.69,13-3A51.73,51.73,0,0,1,205.79,141.33ZM184.54,94.73a51.58,51.58,0,0,1,19.26,27.21l-42.44,9.65,17.72-28.16Z" fill="#e78334"/><polygon points="271.11 266.56 271.11 266.56 374.83 136.82 153.56 136.82 257.28 266.56 257.28 266.56 255.94 379 214.66 413.6 313.73 413.6 272.45 379 271.11 266.56" fill="#c0dbd6"/><polygon points="167.3 143.19 259.89 257.34 271.18 257.34 360.99 143.19 167.3 143.19" fill="#fff"/><path d="M213.6,142.86H166.12l29.57,37a47.21,47.21,0,0,0,17.9-37Z" fill="#f2a823"/><polygon points="190.96 173.89 257.55 257.18 271.51 257.18 336.76 173.89 190.96 173.89" fill="#e78334"/><polygon points="261.67 379 254.43 413.6 228.4 413.6 257.34 379 258.89 266.19 262.47 266.19 261.67 379" fill="#fff"/><polygon points="268.06 379 279.33 413.6 305.36 413.6 271.05 379 269.5 266.19 267.26 266.19 268.06 379" fill="#fff"/><polyline points="263.98 248.05 226.06 143.25 192.1 143.25 258.34 257.36 261.81 257.39 261.8 257.44 264.59 257.42 267.38 257.44 267.37 257.39" opacity="0.5" fill="url(#linear-gradient)"/></svg>