<svg xmlns="http://www.w3.org/2000/svg" viewBox="0 0 480 480"><title>Iitems</title><g style="isolation:isolate"><g id="Layer_1" data-name="Layer 1"><path d="M273.3,363c8.71-40.6,14.45-87.05,66.42-125a266.41,266.41,0,0,0,23.8-20.18c-3.24-20.24,1.39-43.53,14.54-64.37,6.53-10.35,12.68-19.87,18.51-28.67l-9.73-6.14L384.71,121c-16.7-2.69-35.48-9.84-53.62-21.28S298.4,74.34,288.78,60.42L290,57.49l-9.73-6.14C274.86,60.4,268.93,70,262.4,80.4c-13,20.63-31.78,34.75-51.24,40.66-3.1,9.87-6,20.11-8.56,30.36-15.58,63.4-51.35,88.45-84.25,113.79-16.74,12.9-30.9,26.36-41.54,41.71a94.82,94.82,0,0,1,8.73,4.87c36.26,22.88,41.56,60.23,30.08,99.43l25.84,16.3C171.9,400.29,207.9,389,244.16,411.85a94.56,94.56,0,0,1,9.29,6.71C262.78,402.32,268.85,383.68,273.3,363Zm9.93-288.89a79.36,79.36,0,0,1,2.46,83.37C263.29,137.46,272.15,102.72,283.23,74.06Zm15.31,91.41a79.36,79.36,0,0,1,76.1-33.66C353.34,153.89,325.32,176.32,298.54,165.48Z" fill="#ef5350" stroke="#fff" stroke-miterlimit="10" stroke-width="11.89"/><path d="M273.3,363c8.71-40.6,14.45-87.05,66.42-125a266.45,266.45,0,0,0,23.8-20.18c-3.24-20.24,1.39-43.53,14.54-64.37,6.53-10.35,12.68-19.87,18.51-28.67l-9.73-6.14L384.71,121c-16.7-2.69-35.48-9.84-53.62-21.28S298.4,74.34,288.78,60.42L290,57.49l-9.73-6.14C274.86,60.4,268.93,70,262.4,80.4c-13,20.63-31.78,34.75-51.24,40.66-3.1,9.87-6,20.11-8.56,30.36-15.58,63.4-51.35,88.45-84.25,113.79-16.74,12.9-30.9,26.36-41.54,41.71a94.86,94.86,0,0,1,8.73,4.87c36.26,22.88,41.56,60.23,30.08,99.43l25.84,16.3C171.9,400.29,207.9,389,244.16,411.85a94.64,94.64,0,0,1,9.29,6.71C262.78,402.32,268.85,383.68,273.3,363Zm9.93-288.89a79.36,79.36,0,0,1,2.46,83.37C263.29,137.46,272.15,102.72,283.23,74.06Zm15.31,91.41a79.36,79.36,0,0,1,76.1-33.66C353.34,153.89,325.32,176.32,298.54,165.48Z" fill="none" stroke="#fff" stroke-miterlimit="10" stroke-width="20"/><path d="M298.54,165.48a79.36,79.36,0,0,1,76.1-33.66C353.34,153.89,325.32,176.32,298.54,165.48Z" fill="#fff" opacity="0.28" style="mix-blend-mode:overlay"/><line x1="221.58" y1="348.31" x2="247.83" y2="364.87" fill="none" stroke="#fff8e1" stroke-linecap="round" stroke-linejoin="round" stroke-width="7.14"/><line x1="212.78" y1="360.59" x2="239.03" y2="377.15" fill="none" stroke="#fff8e1" stroke-linecap="round" stroke-linejoin="round" stroke-width="7.14"/><path d="M286.63,192.45a79.37,79.37,0,0,1,97.91-58.64l7.53-11.94c-18.41-1.55-40.12-9-61-22.2s-37-29.53-46.29-45.48l-7.53,11.94a79.38,79.38,0,0,1,6.83,94" fill="#248193"/><path d="M340.81,238.48a266.41,266.41,0,0,0,23.8-20.18c-3.24-20.24,1.39-43.53,14.54-64.37,6.53-10.35,12.68-19.87,18.51-28.67l-9.73-6.14c-23.49,26.44-60.88,65-95.07,43.44-35.54-22.42-15.59-72-1.75-104.51l-9.73-6.14C276,61,270,70.61,263.49,81c-13,20.63-31.78,34.75-51.24,40.66-3.1,9.87-6,20.11-8.56,30.36-15.58,63.4-51.35,88.45-84.25,113.79-16.74,12.9-30.9,26.36-41.54,41.71a94.77,94.77,0,0,1,8.73,4.87c36.26,22.87,41.56,60.23,30.08,99.43l25.84,16.3C173,400.85,209,389.54,245.26,412.41a94.61,94.61,0,0,1,9.29,6.71c9.33-16.25,15.4-34.88,19.85-55.61C283.1,322.91,288.85,276.46,340.81,238.48Z" fill="#24b8ac"/></g></g></svg>