<svg xmlns="http://www.w3.org/2000/svg" viewBox="0 0 480 480"><title>Iitems</title><g style="isolation:isolate"><g id="Layer_1" data-name="Layer 1"><path d="M412.09,155.37c-6.19-9.12-28.89-36.75-16.71-45,18-12.21-2.73-39.53-2.73-39.53l-92.89,63a80.84,80.84,0,0,0-34.89,76.44A55.73,55.73,0,0,0,212.31,246a80.84,80.84,0,0,0-83.92,4.19l-92.89,63s17.74,29.34,35.73,17.13c12.18-8.26,29.47,23,35.66,32.15a80.87,80.87,0,0,0,133.82-90.82c-.57-.84-1.17-1.66-1.77-2.47a25.63,25.63,0,0,1,37.67-25.57c.54.86,1.07,1.72,1.64,2.56a80.87,80.87,0,1,0,133.82-90.82Z" fill="#eb4643"/><path d="M173.94,407.92a90.84,90.84,0,0,1-75.32-39.81c-.89-1.31-1.92-2.92-3.11-4.79C83.89,345,78.44,340.24,76,339.17a25.74,25.74,0,0,1-19.61,3.52c-16.52-3.61-28.17-22.2-29.44-24.31L22,310.27,122.78,241.9a90.56,90.56,0,0,1,84.84-9.15,65.81,65.81,0,0,1,46.69-31.69,90.55,90.55,0,0,1,39.83-75.47L394.89,57.22l5.73,7.56c1.49,2,14.46,19.65,11.72,36.34A25.74,25.74,0,0,1,401.82,118c.1,2.65,2.54,9.5,15.23,27,1.3,1.8,2.42,3.35,3.31,4.66h0A90.87,90.87,0,1,1,270,251.81l-.21-.32a15.62,15.62,0,0,0-21,14.25l.22.32a90.83,90.83,0,0,1-75.05,141.87ZM75.58,319a18.84,18.84,0,0,1,3.82.4c12.61,2.61,23.21,17.84,33,33.22,1.1,1.74,2.06,3.23,2.78,4.3a70.87,70.87,0,0,0,117.28-79.59c-.48-.71-1-1.4-1.5-2.09L229.32,273l-.31-2.63a35.63,35.63,0,0,1,52.35-35.53l2.33,1.25,1.49,2.38c.44.71.88,1.42,1.36,2.12A70.87,70.87,0,1,0,403.81,161h0c-.72-1.06-1.76-2.5-3-4.17-10.68-14.77-20.92-30.24-18.69-42.92a17.65,17.65,0,0,1,7.6-11.81,5.92,5.92,0,0,0,2.84-4.2c.6-3.62-1-8.54-3.08-12.84l-84.14,57.11a70.69,70.69,0,0,0-30.57,67l1.33,11.28-11.36-.11a45.74,45.74,0,0,0-43.14,29.28l-4.09,10.6-10-5.4A70.69,70.69,0,0,0,134,258.45L49.87,315.55c3.25,3.52,7.22,6.83,10.82,7.61a5.91,5.91,0,0,0,4.93-1.09A17.55,17.55,0,0,1,75.58,319Z" fill="#fff"/><path d="M306.39,255.48a15.13,15.13,0,0,1-21-4,25.65,25.65,0,0,0-42.45,28.81,15.13,15.13,0,1,1-25,17,55.9,55.9,0,0,1,92.51-62.79A15.13,15.13,0,0,1,306.39,255.48Z" fill="#fccc00"/><path d="M240.46,271.36a80.87,80.87,0,1,1-133.82,90.82C100.45,353.07,83.15,321.77,71,330,53,342.24,35.25,312.9,35.25,312.9l92.89-63A80.87,80.87,0,0,1,240.46,271.36Z" fill="#fccc00"/><circle cx="173.55" cy="316.77" r="62.78" transform="translate(-147.94 152.12) rotate(-34.16)" opacity="0.2" style="mix-blend-mode:multiply"/><circle cx="173.55" cy="316.77" r="54.55" transform="translate(-147.94 152.12) rotate(-34.16)" fill="#054554"/><path d="M278,245.88a80.87,80.87,0,1,0,133.82-90.82c-6.19-9.12-28.89-36.75-16.71-45,18-12.21-2.73-39.53-2.73-39.53l-92.89,63A80.87,80.87,0,0,0,278,245.88Z" fill="#fccc00"/><circle cx="344.92" cy="200.47" r="62.78" transform="translate(-53.05 228.29) rotate(-34.16)" opacity="0.2" style="mix-blend-mode:multiply"/><circle cx="344.92" cy="200.47" r="54.55" transform="translate(-53.05 228.29) rotate(-34.16)" fill="#054554"/><g opacity="0.2" style="mix-blend-mode:multiply"><circle cx="61.18" cy="309.74" r="6.71" transform="translate(-163.38 87.81) rotate(-34.16)"/><circle cx="379.88" cy="93.45" r="6.71" transform="translate(13.08 229.45) rotate(-34.16)"/></g><ellipse cx="164.24" cy="296.01" rx="31.43" ry="22.09" transform="translate(-134.87 137.47) rotate(-33.05)" fill="#fff" opacity="0.3"/><ellipse cx="334.47" cy="181.87" rx="31.43" ry="22.09" transform="translate(-45.07 211.84) rotate(-33.05)" fill="#fff" opacity="0.3"/></g></g></svg>