<svg id="Layer_1" data-name="Layer 1" xmlns="http://www.w3.org/2000/svg" viewBox="0 0 480 480"><title>Iitems</title><path d="M380.41,114.06a19.09,19.09,0,0,0-17.08-10.55H118.89a19.09,19.09,0,0,0-17,10.38l-41.09,80a40,40,0,0,0-4.42,18.28V354.52a28.77,28.77,0,0,0,28.77,28.77H395.91a28.77,28.77,0,0,0,28.77-28.77V212a40,40,0,0,0-4.23-17.91Z" fill="#47332d"/><path d="M395.91,393.29H85.17A38.81,38.81,0,0,1,46.4,354.52V212.21a50.26,50.26,0,0,1,5.52-22.85l41.09-80a29,29,0,0,1,25.88-15.81H363.33a29.09,29.09,0,0,1,26,16.08l40,80A50.29,50.29,0,0,1,434.68,212V354.52a38.76,38.76,0,0,1-38.77,38.77Zm-277-279.78a9.06,9.06,0,0,0-8.09,4.94l-41.09,80a30.17,30.17,0,0,0-3.31,13.71V354.52a18.79,18.79,0,0,0,18.77,18.77H395.91A18.54,18.54,0,0,0,407.85,369a18.72,18.72,0,0,0,6.83-14.49V212a30.18,30.18,0,0,0-3.17-13.44l-40-80a9.16,9.16,0,0,0-1-1.61,9,9,0,0,0-7.1-3.41Z" fill="#fff"/><path d="M56.4,354.52V212.21a40,40,0,0,1,4.42-18.28l41.09-80a19.1,19.1,0,0,1,17-10.38H363.33a19.09,19.09,0,0,1,17.08,10.55l40,80A40,40,0,0,1,424.68,212V354.52a28.77,28.77,0,0,1-28.77,28.77H85.17A28.77,28.77,0,0,1,56.4,354.52Z" fill="#fccc00"/><path d="M424.68,354.52V226.27H56.4V354.52a28.77,28.77,0,0,0,28.77,28.77H395.91A28.77,28.77,0,0,0,424.68,354.52Z" fill="#c46d05"/><path d="M84.95,306.26V211.72l43.59-85.37H353.59l42.54,85.37v94.54a54.19,54.19,0,0,1-54.19,54.19H139.14A54.19,54.19,0,0,1,84.95,306.26Z" fill="#634944"/><polygon points="396.66 211.31 396.66 210.33 353.64 123.45 128.59 123.45 90.51 198.92 396.66 211.31" fill="#af8279"/><polygon points="99.5 181.77 382.98 181.77 379.89 175.63 102.63 175.63 99.5 181.77" fill="#634944"/><polygon points="116.27 148.01 366 148.01 362.91 141.87 119.35 141.87 116.27 148.01" fill="#634944"/><path d="M92.59,333.9H388.49a53.92,53.92,0,0,0,3.19-6.15H89.4A53.87,53.87,0,0,0,92.59,333.9Z" fill="#47332d"/><circle cx="82.33" cy="355.5" r="9.99" fill="#634944"/><circle cx="399.22" cy="355.5" r="9.99" fill="#634944"/><path d="M249,247.56a15.71,15.71,0,0,0,5.1-11.6,15.09,15.09,0,0,0-14.93-15.12,14.85,14.85,0,0,0-14.93,14.83,16.38,16.38,0,0,0,5.6,12.37l-6.22,25.79h31.71Z" fill="#634944"/><rect x="84.95" y="290.88" width="311.18" height="6.15" fill="#47332d"/><rect x="84.95" y="254.01" width="311.18" height="6.15" fill="#47332d"/><path d="M406.92,200.36H73v25.92h128.6a44.35,44.35,0,1,0,77.13,0H406.92Z" fill="#fccc00"/><path d="M249,247.56a15.71,15.71,0,0,0,5.1-11.6,15.09,15.09,0,0,0-14.93-15.12,14.85,14.85,0,0,0-14.93,14.83,16.38,16.38,0,0,0,5.6,12.37l-6.22,25.79h31.71Z" fill="#47332d"/></svg>