<svg id="Layer_1" data-name="Layer 1" xmlns="http://www.w3.org/2000/svg" viewBox="0 0 480 480"><title>Iitems</title><path d="M421.22,162.08c-4.92-9.45-15.94-8.85-15.94-8.85s-63.42.26-95,12.56h0c-12.13-11.75-76.24-68.07-157-31.6l-.18.08q-2.11,1-4.23,2l-.26.13q-2.11,1-4.24,2.17l-.2.11q-4.33,2.31-8.72,5l-.21.12q-2.05,1.26-4.12,2.61l-.59.38q-2,1.29-3.93,2.65l-.8.55Q124,151.3,122,152.72l-.88.66c-1.27.95-2.54,1.91-3.82,2.91l-.87.69q-1.76,1.39-3.52,2.84l-.52.42c-.6.53-1.26,1-1.85,1.59a.72.72,0,0,0-.15.12c-95.24,81-35.9,187.26-23.2,207.53a5.92,5.92,0,0,0,6.21,2.62c2.83-.6,7-1.58,12.31-2.94a1.62,1.62,0,0,0,.18-.05c17.82-4.64,47.18-13.76,73.07-28.75,13.5-7.79,26-17.21,35.49-28.41h0s102.66-9.61,133.23-32.51,28.44-51.06,32.6-83.19c.16-1.24.34-2.44.54-3.62.72,0,1.45.07,2.24.08C419.88,193.1,426.15,171.54,421.22,162.08Z" fill="#078ceb"/><path d="M92.16,382.52A16.11,16.11,0,0,1,78.52,375c-7.62-12.17-25.75-44.69-30.43-85.35-2.74-23.75-.38-46.43,7-67.39C64,196.92,80.34,174,103.6,154.19l.28-.24c.45-.41.87-.76,1.22-1l.5-.43.22-.18.43-.34.11-.09q1.86-1.53,3.7-3l.91-.72c1.35-1.05,2.68-2.07,4-3.06l.92-.69q2-1.49,4-2.9l.84-.58q2.07-1.44,4.14-2.79l.63-.41c1.55-1,3-1.91,4.35-2.75l.2-.12c3.06-1.87,6.18-3.65,9.27-5.3l.21-.11c1.45-.77,3-1.55,4.51-2.31l.27-.13c1.51-.74,3-1.46,4.52-2.13l.11,0C228.16,89.06,292.23,136,312.74,154c33.37-10.51,87.73-11.07,92.28-11.1,6.64-.26,19.13,2.47,25.35,14.39,4.09,7.85,3.41,18-1.78,26.43-4.13,6.72-14.49,17.58-38.69,19.09-.33,2.92-.63,5.83-.91,8.67-2.7,26.55-5.5,54-35.09,76.17-14,10.47-41.72,19.47-82.45,26.74-23,4.11-43.45,6.47-51.91,7.37-9.13,10-21,19.19-35.4,27.49-25.78,14.93-54.66,24.28-74.67,29.55l0,0-.94.24-.11,0h-.06c-4.73,1.23-9.26,2.31-12.76,3.05A16.73,16.73,0,0,1,92.16,382.52Zm24.2-212.1c-37,31.8-53.05,71.12-47.78,116.89,3.95,34.28,19.1,62.86,25.74,74,1.92-.44,4.51-1.06,7.71-1.88l.21-.11,1.06-.23c18.8-4.9,46.29-13.68,70.5-27.7a137.15,137.15,0,0,0,25.73-18.72l7.18-7.58,1.1-1.3,65.47-36.12-30.41,30.41c34.4-4.91,81.43-14,98.64-26.94,22.35-16.74,24.37-36.6,26.93-61.75.48-4.69,1-9.54,1.62-14.52.18-1.36.37-2.67.58-4l1.5-9.19,9.29.55c.56,0,1.13.06,1.75.07,19.73.24,26-6.52,27.81-9.43s1.47-5.32,1.07-6.09h0c-1.74-3.35-6.19-3.32-6.23-3.32l-.51,0c-.62,0-61.89.4-91.27,11.85l-2.81,1.1-5.93-1.19-2.2-2.11c-11.21-10.86-70.91-63.32-145.54-29.6l-.09,0c-1.37.62-2.7,1.25-4,1.89l-.24.12c-1.36.67-2.7,1.35-4,2l-.2.11c-2.72,1.45-5.48,3-8.18,4.67l-.17.1c-1.32.81-2.62,1.63-3.91,2.48l-.55.36q-1.86,1.22-3.72,2.51l-.74.52c-1.22.85-2.43,1.72-3.65,2.62l-.83.61c-1.22.91-2.43,1.83-3.65,2.77l-.84.67q-1.66,1.31-3.35,2.7l-.45.36-.75.63c-.21.18-.43.35-.63.54l-1,1ZM103.67,359h0Z" fill="#fff"/><path d="M87.76,369.46A5.92,5.92,0,0,0,94,372.07c2.83-.6,7-1.58,12.31-2.94a1.64,1.64,0,0,0,.18-.05c17.82-4.64,47.18-13.76,73.07-28.75,13.5-7.79,26-17.21,35.49-28.41l24.79-14.21,1.77-1,4.22-7.3,22.09-38.48,11.44-33.56.14-.37,13.1-18.66,17.93-26.82,2.41-3.64s-.7-.77-2-2.08h0C296.71,152.09,212.17,78,113,160.22c-.6.53-1.26,1-1.85,1.59a.71.71,0,0,0-.15.12C15.73,243,75.07,349.19,87.76,369.46Z" fill="#b7e264"/><path d="M111.12,161.81c95.62-4.89,149.18,36.81,168.22,55.53l.14-.37,13.1-18.67,20.33-30.46s-91.18-97.77-200-7.63C112.37,160.75,111.71,161.25,111.12,161.81Z" fill="#8bba42"/><path d="M87.76,369.46A5.92,5.92,0,0,0,94,372.07c2.83-.6,7-1.58,12.31-2.94a1.64,1.64,0,0,0,.18-.05c17.82-4.64,47.18-13.76,73.07-28.75-1.57-1.57-3.09-3.12-4.57-4.69C96.7,253.2,111.11,161.81,111.11,161.81a.71.71,0,0,0-.15.12C15.73,243,75.07,349.19,87.76,369.46Z" fill="#8bba42"/><path d="M405.84,153.22s11-.6,15.94,8.85-1.34,31-38.15,30.6S388.31,154.35,405.84,153.22Z" fill="#829e18"/><path d="M215,311.91s102.66-9.61,133.23-32.51,28.44-51.06,32.6-83.19,19.06-41.64,25-43c0,0-81.53.34-105.69,18.16S258.29,246.5,252.28,259C243.67,283.13,215,311.91,215,311.91Z" fill="#92c64e"/></svg>