<svg id="Layer_1" data-name="Layer 1" xmlns="http://www.w3.org/2000/svg" viewBox="0 0 480 480"><title>Iitems</title><path d="M271.56,184.55h46.16V146.08h15.84a15.84,15.84,0,0,0,0-31.68H317.72V88.6H259.34V72.76a15.84,15.84,0,0,0-31.68,0V88.6H169.28v95.95H271.56Z" fill="#f1f2f2"/><path d="M330.22,197H156.78V76.1h58.38V72.76a28.34,28.34,0,0,1,56.68,0V76.1h58.38v25.8h3.34a28.34,28.34,0,0,1,0,56.68h-3.34ZM181.78,172H305.22V133.58h28.34a3.34,3.34,0,0,0,0-6.68H305.22V101.1H246.84V72.76a3.34,3.34,0,0,0-6.68,0V101.1H181.78Z" fill="#fff"/><path d="M137.59,130.24a15.89,15.89,0,0,0,15.84,15.84h15.84V114.4H153.44A15.89,15.89,0,0,0,137.59,130.24Z" fill="#f1f2f2"/><path d="M181.78,158.58H153.44a28.34,28.34,0,0,1,0-56.68h28.34ZM153.44,126.9a3.34,3.34,0,0,0,0,6.68h3.34V126.9Z" fill="#fff"/><polygon points="317.73 212.16 271.56 212.16 271.56 184.55 215.44 184.55 215.44 212.16 169.28 212.16 169.28 212.16 141.67 212.16 141.67 212.16 114.06 212.16 114.06 333 141.67 333 141.67 251.86 169.28 251.86 169.28 333 169.28 400.43 169.28 428.04 225.4 428.04 225.4 400.43 225.4 333 225.4 333 261.6 333 261.6 400.43 261.6 428.04 317.72 428.04 317.72 400.43 317.72 333 317.73 333 317.73 251.86 345.33 251.86 345.33 212.16 317.73 212.16 317.73 212.16" fill="#f1f2f2"/><path d="M330.22,440.54H249.1v-95H237.9v95H156.78V264.36h-2.61V345.5H101.56V199.66H202.94V172h81.12v27.61h73.77v64.7H330.22Zm-56.12-25h31.12V239.36h27.61v-14.7H259.06V197H227.94v27.61H126.56V320.5h2.61V239.36h52.61V415.54H212.9v-95H274.1Z" fill="#fff"/><polygon points="345.33 251.86 345.33 333 372.94 333 372.94 212.16 345.33 212.16 345.33 251.86" fill="#f1f2f2"/><path d="M385.44,345.5H332.83V199.66h52.61Zm-27.61-25h2.61V224.66h-2.61Z" fill="#fff"/><circle cx="213.33" cy="130.24" r="15.09" fill="#ffe01a"/><circle cx="273.67" cy="130.24" r="15.09" fill="#ffe01a"/><path d="M273.67,145.32a15.09,15.09,0,1,1,15.09-15.09,15.09,15.09,0,0,1-15.09,15.09ZM259.34,88.6H169.28v95.95H317.72V88.6H259.34Zm-30.93,41.64a15.09,15.09,0,1,1-15.09-15.09A15.09,15.09,0,0,1,228.41,130.24Z" fill="#dadada"/><path d="M169.28,146.08V114.4H153.44a15.84,15.84,0,0,0,0,31.68Z" fill="#ffe01a"/><path d="M227.66,72.76V88.6h31.68V72.76a15.84,15.84,0,0,0-31.68,0Z" fill="#ffe01a"/><path d="M317.72,114.4v31.68h15.84a15.84,15.84,0,0,0,0-31.68Z" fill="#ffe01a"/><rect x="215.44" y="184.55" width="56.12" height="27.61" fill="#bdbdbd"/><polygon points="271.56 212.16 215.44 212.16 169.28 212.16 169.28 251.86 169.28 333 225.4 333 261.6 333 317.73 333 317.73 251.86 317.73 212.16 271.56 212.16" fill="#dadada"/><rect x="141.67" y="212.16" width="27.61" height="39.7" fill="#bdbdbd"/><polygon points="141.67 251.86 141.67 212.16 114.06 212.16 114.06 333 141.67 333 141.67 251.86" fill="#dadada"/><rect x="317.72" y="212.16" width="27.61" height="39.7" fill="#bdbdbd"/><polygon points="345.33 212.16 345.33 251.86 345.33 333 372.94 333 372.94 212.16 345.33 212.16" fill="#dadada"/><rect x="261.6" y="333" width="56.12" height="67.44" fill="#bdbdbd"/><rect x="169.28" y="333" width="56.12" height="67.44" fill="#bdbdbd"/><rect x="169.28" y="400.43" width="56.12" height="27.61" fill="#dadada"/><rect x="261.6" y="400.43" width="56.12" height="27.61" fill="#dadada"/><path d="M273.67,152.87A22.63,22.63,0,1,0,251,130.24,22.66,22.66,0,0,0,273.67,152.87Zm0-30.17a7.54,7.54,0,1,1-7.54,7.54A7.55,7.55,0,0,1,273.67,122.69Z" fill="#757575"/><path d="M236,130.24a22.63,22.63,0,1,0-22.63,22.63A22.65,22.65,0,0,0,236,130.24Zm-22.63,7.54a7.54,7.54,0,1,1,7.54-7.54A7.55,7.55,0,0,1,213.33,137.78Z" fill="#757575"/><path d="M213.86,265.71h.19a7.54,7.54,0,0,0,0-15.09h-.19a7.54,7.54,0,0,0,0,15.09Z" fill="#757575"/><path d="M233.22,265.71h.19a7.54,7.54,0,0,0,0-15.09h-.19a7.54,7.54,0,0,0,0,15.09Z" fill="#757575"/><path d="M253.26,265.55h.19a7.54,7.54,0,0,0,0-15.09h-.19a7.54,7.54,0,0,0,0,15.09Z" fill="#757575"/><path d="M273,265.71h.19a7.54,7.54,0,0,0,0-15.09H273a7.54,7.54,0,0,0,0,15.09Z" fill="#757575"/><path d="M272.52,279.44H213.86a7.54,7.54,0,0,0,0,15.09h58.67a7.54,7.54,0,0,0,0-15.09Z" fill="#757575"/></svg>