<svg id="Layer_1" data-name="Layer 1" xmlns="http://www.w3.org/2000/svg" viewBox="0 0 480 480"><title>Iitems</title><path d="M377.8,345.1a11.36,11.36,0,0,0-13.18-9.24c-5.24.81-14.35.24-16.39-12.6a33.49,33.49,0,0,1-.09-8.62c1.53-15,2.12-42.54-11.07-57.93a30.61,30.61,0,0,0-22.16-10.83h-.28c-.86,0-20.24-1-39.17-18.85l30.14-31.62L315.74,221l33.16-81.44-81.44,33.16,25.47,10.31L261.53,213c-16.93-18.58-17.82-37.25-17.85-38,0-.12,0-.24,0-.37a30.61,30.61,0,0,0-10.83-22.16c-15.39-13.19-42.9-12.6-57.93-11.07a33.49,33.49,0,0,1-8.62-.09c-12.84-2-13.41-11.14-12.63-16.26,1.11-6.2-3-12.66-9.23-13.24a14,14,0,0,0-11.78,4.11,11.38,11.38,0,0,0-1.13,1.32c-.28.36-.53.73-.76,1.08l.06,0a11.36,11.36,0,0,0-1.37,3.71c-.29,1.6-2.54,16,6.17,28.22,3.74,5.25,10.92,11.91,24,14.34l-34.9,178.84L98.83,368.09a5.44,5.44,0,0,0,0,7.7l13.89,13.89a5.45,5.45,0,0,0,7.7,0l24.68-25.89,179.05-34.94c2.39,13.26,9.11,20.53,14.4,24.3,11.74,8.35,25.43,6.62,27.95,6.21l-.09.09a15.88,15.88,0,0,0,8.19-4.29A11.39,11.39,0,0,0,377.8,345.1ZM168.86,165.41a64.63,64.63,0,0,0,6.62-.34c18.54-1.88,34.54.35,40.78,5.69a7.78,7.78,0,0,1,2.88,6c.13,3.21,1.87,29,24.48,53.36L136.28,332.39Zm89.56,79.48c24.45,22.86,50.41,24.61,53.63,24.74a7.78,7.78,0,0,1,6,2.88c5.34,6.23,7.57,22.24,5.69,40.77-.22,2.19-.33,4.27-.34,6.3L156.12,352.22Z" fill="#f9d84e"/><path d="M116.57,400.77A14.84,14.84,0,0,1,106,396.39L92.12,382.5a14.95,14.95,0,0,1,0-21.14l.16-.16L116,338.62l32.64-167.26a43.89,43.89,0,0,1-20.73-15.62,46.44,46.44,0,0,1-8.26-23.48l3.09-19c.36-.57.76-1.15,1.2-1.72a21,21,0,0,1,2-2.29,23.52,23.52,0,0,1,19.41-6.88,19.23,19.23,0,0,1,3.3.6l2.53-.77-.78,1.34A19.6,19.6,0,0,1,159,110a21.39,21.39,0,0,1,4,16.54c-.46,3.05-.11,4.58,4.74,5.35a24.23,24.23,0,0,0,6.17,0c20.2-2.05,47.9-1.41,65.07,13.31a39.65,39.65,0,0,1,13.49,23.33L366.2,122.31l-46.62,114.5a39.68,39.68,0,0,1,24.71,13.72c14.72,17.17,15.36,44.87,13.31,65.07a24.3,24.3,0,0,0,0,6.18c.73,4.63,2,5.24,5.47,4.71a20.9,20.9,0,0,1,24.37,19.85l-.56,5.61a21,21,0,0,1-5.49,9.85,25.21,25.21,0,0,1-13.48,7l-21.84-1.64a43.13,43.13,0,0,1-28.78-27.33L149.89,372.52l-22.75,23.87A14.85,14.85,0,0,1,116.57,400.77ZM108.49,372l8,8L258,231.53l6.87,6.43c22,20.61,45,22.09,47.52,22.19h.17a17.35,17.35,0,0,1,12.61,6.18c10.62,12.39,8.76,39.81,7.93,47.92-.18,1.83-.28,3.64-.29,5.38l0,3.87.66,3.66c1.83,10.17,6.75,15.54,10.56,18.25,8.87,6.31,19.71,4.77,20.92,4.58l.66-.11a7.19,7.19,0,0,0,2.11-1.29l.17-.2,0,.06a1.91,1.91,0,0,0,.55-1.68h0a1.91,1.91,0,0,0-.79-1.26,1.79,1.79,0,0,0-1.37-.3l-.23,0c-14.22,2.18-24.89-5.87-27.21-20.5a42.81,42.81,0,0,1-.16-11.07c2.34-23-.88-41.52-8.83-50.79a21.05,21.05,0,0,0-15.44-7.52h-.15c-2.65-.1-24.23-1.52-45.31-21.44L262,227.36l17.7-18.57-18.66,17.79-6.54-7.18c-18.89-20.74-20.23-41.71-20.32-44v-.22a21.06,21.06,0,0,0-7.52-15.46c-9.28-8-27.79-11.17-50.79-8.83a42.72,42.72,0,0,1-11.07-.16c-14.64-2.32-22.69-13-20.53-27.08l0-.23a2.44,2.44,0,0,0-.43-1.83c-.1-.13-.24-.27-.33-.28a4.52,4.52,0,0,0-4.08,1.26l-.13.14a1.75,1.75,0,0,0-.18.21l-.11.18a1.84,1.84,0,0,0-.23.61c-.09.49-2,11.81,4.56,21,2.68,3.76,8,8.64,18,10.51l3.67.68h3.89a55.24,55.24,0,0,0,5.6-.29c8.1-.83,35.52-2.69,47.91,7.93a17.36,17.36,0,0,1,6.18,12.62v.17c.1,2.53,1.58,25.33,22,47.28l6.38,6.87ZM259.08,258l-75.5,79.21,130.74-25.51c1.65-17.17-.79-29-3.21-32.57C305.18,278.78,282.41,276.34,259.08,258Zm-82.31-83.48L151.32,304.93l79.24-75.54c-18.14-23.21-20.57-45.82-20.89-51.71C206,175.21,194,172.79,176.77,174.49Zm112.61,51.69a56.76,56.76,0,0,0,22,9.71l-9.16-23.19Zm-35.88-48.82a55.7,55.7,0,0,0,9,21.57l13.2-12.59Zm56.29,2.75,6.08,15.4,15.72-38.61-38.87,15.83L308.14,179l.85-.89.58,1.47.57.23Zm-100.16-3Z" fill="#fff"/><polygon points="337.88 316.41 131.91 356.6 172.09 150.63 163.03 148.86 120.22 368.29 339.64 325.48 337.88 316.41" fill="#929497"/><path id="_Path_" data-name="&lt;Path&gt;" d="M120.85,389.24l197.31-207-11.9-11.9-207,197.31a5.44,5.44,0,0,0,0,7.7l13.89,13.89A5.44,5.44,0,0,0,120.85,389.24Z" fill="#764d2a"/><path id="_Path_2" data-name="&lt;Path&gt;" d="M306.25,170.35l-207,197.31a5.44,5.44,0,0,0,0,7.7l13.89,13.89a5.44,5.44,0,0,0,7.7,0l197.31-207" fill="none"/><polyline id="_Path_3" data-name="&lt;Path&gt;" points="302.66 186.4 267.89 172.34 349.33 139.18" fill="#bcbec0"/><polyline id="_Path_4" data-name="&lt;Path&gt;" points="302.66 186.4 267.89 172.34 349.33 139.18" fill="none"/><polyline id="_Path_5" data-name="&lt;Path&gt;" points="349.33 139.18 316.17 220.62 302.66 186.4" fill="none"/><polyline id="_Path_6" data-name="&lt;Path&gt;" points="349.33 139.18 316.17 220.62 302.66 186.4" fill="#939598"/><path d="M376.49,345.63a11.36,11.36,0,0,0-13.18-9.24c-5.24.81-14.35.24-16.39-12.6a33.49,33.49,0,0,1-.09-8.62c1.53-15,2.12-42.54-11.07-57.93a30.61,30.61,0,0,0-22.16-10.83h-.28c-.9,0-22.3-1.05-42.11-21.77l-.18-.18-6.73-6.73-.18-.18c-20.72-19.81-21.73-41.21-21.76-42,0-.12,0-.24,0-.37A30.61,30.61,0,0,0,231.54,153c-15.39-13.19-42.9-12.6-57.93-11.07a33.49,33.49,0,0,1-8.62-.09c-12.84-2-13.41-11.14-12.63-16.26a11.41,11.41,0,0,0-22.47-4c-.29,1.6-2.54,16,6.17,28.22,3.87,5.44,11.41,12.38,25.35,14.6a55.78,55.78,0,0,0,14.5.26c18.54-1.88,34.54.35,40.78,5.69a7.78,7.78,0,0,1,2.88,6c.14,3.4,2.06,32.12,28.71,57.66l6.55,6.55c25.54,26.64,54.26,28.57,57.66,28.7a7.78,7.78,0,0,1,6,2.88c5.34,6.23,7.57,22.24,5.69,40.77a55.85,55.85,0,0,0,.26,14.5c2.21,13.94,9.16,21.48,14.6,25.35,12.24,8.71,26.62,6.46,28.22,6.17a11.47,11.47,0,0,0,9.29-13.25Z" fill="#764d2a"/></svg>