<svg id="Layer_1" data-name="Layer 1" xmlns="http://www.w3.org/2000/svg" viewBox="0 0 480 480"><title>Iitems</title><path d="M316.68,287.83l-.68-1.08-41.73,22.13L270.62,302a631.64,631.64,0,0,1-60.47,24.75l4.92,9.27-44.72,23.72L165.16,350l-1,.7,5.12,9.64L124.54,384,118,371.61a24.07,24.07,0,0,1-8.39-2.49c-14.35-7.31-27.21-21.34-36.23-39.51a118.54,118.54,0,0,1-7.07-14.77L64.34,311l.17-.89c-1-2.74-1.84-5.46-2.58-8.14-7.52-26.94,5.35-44.65,14.14-50.86l.67-.47L80,249l.82-.21c4.79-2.08,27.8-12.21,46.88-22.89,6.91-3.87,18.06-13.53,27.9-22.05,4.94-4.28,9.62-8.34,13.89-11.8,9.58-9.08,16.2-14.18,23.39-15l.27-.43,7.65.53,3.87.28,2.73.2q.45-.34.92-.64a16.18,16.18,0,0,1,12.54-2.09l3.05.75a16.79,16.79,0,0,1,6.35,3.11h.46a15.89,15.89,0,0,1,11.46-2.65l3.1.47a16.5,16.5,0,0,1,5.71,2l3-.14a15.87,15.87,0,0,1,9.6-3.2h3.06a16.42,16.42,0,0,1,6.9,1.55l2.83-.35a15.82,15.82,0,0,1,7.33-3.94l3-.69a16.26,16.26,0,0,1,10.52,1.14l.94-.2.62-.13c1.34-.29,2.69-.59,4-.9l.19,0q1.9-.44,3.81-.93c5.33-1.34,10.59-2.84,15.61-4.48h0c45.39-14.76,72.63-17.47,88.32-8.79a27.66,27.66,0,0,1,12.63,14.3,28.29,28.29,0,0,1,4.07,8.88c1.87,7-.58,13.69-4.24,19.35l7.24,9.32L390.92,241l-.63-.81L353.38,265l-.25-.38ZM172.75,312.2l13.46-5.44c1.77-.71,3.25-1.27,4.66-1.75a624.6,624.6,0,0,0,79.28-32.64l10.47-5.19,10.81-5.83c6-3.23,12.18-6.67,18.36-10.22L320.46,245l10-6.14c5.27-3.23,10.42-6.47,15.3-9.63l10.66-6.9,9.11-6.47c5.18-3.68,10-7.24,14.23-10.6l10.29-8.1.06.08,6.52-7a44.23,44.23,0,0,0,4-4.86l-1-1.09-.81-3a1.55,1.55,0,0,0-.1-.3s-9.09-8.5-67.92,10.62h0c-5.58,1.81-11.4,3.49-17.31,5q-2.11.53-4.21,1l-.3.07c-1.41.33-2.9.66-4.38,1l-.68.15c-1.92.41-3.9.81-6,1.21v.23l-6.56,1-6.68,1.23-.07-.23-3.78.52-.42.05c-2.63.34-5.36.65-8.12.94l0,.17-5.55.39-4.7.47-.06-.14-.25,0c-4.35.3-8.72.52-13,.65l0,.18h-6.57l-4.81.12,0-.13h-.15c-4.09,0-8.26-.08-12.43-.23l0,.14-6.16-.38-7.46-.28v-.18c-2.93-.19-5.55-.39-7.82-.56l-1.74-.13-2-.14-2.37-.14c-1.28.82-4.06,2.95-9.8,8.42l-.79.7c-4,3.25-8.68,7.28-13.61,11.55-11.29,9.79-23,19.91-32.17,25.05C119.59,261.18,94.72,272,91,273.61c-2.07,2-7.31,8.71-3.71,21.6.84,3,1.83,6,3,9.1l.17.44a91,91,0,0,0,5.78,12.14l.22.38.19.4c6.23,12.66,14.89,22.59,23.83,27.35a8,8,0,0,0,1.33-.25l8.32-2.21-.48-.9,9.79-6.62c2.42-1.64,4.91-3.36,7.45-5.13,5-3.48,10.2-7.08,15.67-10.57L173,312.69Zm54.33-119v0Zm-29.18,10h0Z" fill="#fff"/><rect x="124.53" y="345.09" width="24.4" height="15.79" transform="translate(-149.45 105.21) rotate(-27.94)"/><rect x="170.34" y="320.8" width="24.4" height="15.79" transform="translate(-132.73 123.84) rotate(-27.94)"/><rect x="274.27" y="269.95" width="24.4" height="15.78" transform="translate(-96.79 166.61) rotate(-27.94)"/><polygon points="320.43 269.07 341.01 255.95 332.62 242.58 312.04 255.69 320.43 269.07"/><polygon points="348.07 232.91 356.73 246.11 377.01 232.52 368.34 219.32 348.07 232.91"/><polygon points="402.08 194.1 383.05 209.44 392.72 221.88 411.76 206.55 402.08 194.1"/><path d="M85,261.14s26.88-11.5,49-23.88c17.71-9.9,51.46-45.68,57.77-43.32s-42.89,64.19-65.1,66.25S74.5,271.08,85,261.14Z"/><path d="M87.76,266.92c36.17-9.21,41.25-10.1,64.11-31.16s38.31-39.35,45.66-40.14,67.6,9.6,132-11.33,81.66-13.4,85-.8-41.13,45.89-94.88,77.05S228,306.1,195.14,317.35s-63.79,47.78-80,39.52S84.45,329,77.46,304s9.15-36.45,9.15-36.45Z"/><path d="M84.74,261.22C120.9,252,126,251.12,148.85,230.06s38.31-39.35,45.66-40.14,67.6,9.59,132-11.33,81.66-13.39,85-.8-41.13,45.89-94.88,77.05S225,300.4,192.12,311.65s-63.79,47.78-80,39.52-30.67-27.85-37.66-52.89,9.15-36.45,9.15-36.45Z" fill="#303030"/><path d="M307.94,203.44c5.24-4.07,3.91-19.47,3.27-19.87,0,0-.29-.16-.74-.37-49.8,12.58-94.55,8-110.51,6.89,0,0-6.88,11.59-15,16.68s9.65,7.58,18.63,8.9,43.39,1.71,61.88-1.62S302.7,207.51,307.94,203.44Z" fill="#ffe01a"/><path d="M221,205.08a3.17,3.17,0,0,1-3.89,2.5l-3-.74a3.56,3.56,0,0,1-2.6-4.1L214,190a3.17,3.17,0,0,1,3.88-2.51l3,.74a3.57,3.57,0,0,1,2.6,4.1Z" fill="#fff"/><path d="M245,206.23a3.18,3.18,0,0,1-3.63,2.87l-3.06-.45a3.56,3.56,0,0,1-2.94-3.85l1.33-13a3.19,3.19,0,0,1,3.63-2.87l3.06.46a3.55,3.55,0,0,1,2.94,3.85Z" fill="#fff"/><path d="M270.56,204.71a3.21,3.21,0,0,1-3.18,3.39h-3.07a3.53,3.53,0,0,1-3.42-3.41l-.48-13.1a3.2,3.2,0,0,1,3.18-3.39h3.07a3.52,3.52,0,0,1,3.43,3.4Z" fill="#fff"/><path d="M296.91,199.82a3.27,3.27,0,0,1-2.35,4.05l-3,.68a3.46,3.46,0,0,1-4-2.59l-3.25-12.79a3.27,3.27,0,0,1,2.35-4.05l3-.68a3.46,3.46,0,0,1,4,2.59Z" fill="#fff"/><path d="M114.26,297.37c-23.91-6.73-35.89,9.69-35.89,9.69L78,309c18.57,36.9,35,39.94,37.28,40.53,7.7,2,23.77-9.82,32.45-15.76s20.12-13.91,20.12-13.91S138.18,304.09,114.26,297.37Zm21.13,38.89c-4.49,2-14.31,9.28-19.21,7.47s-9.43-5-16.1-11.27-15.3-20.25-15.3-20.25C97,297.73,115.6,303.12,129,308.69s27.5,13.25,27.5,13.25S139.88,334.26,135.39,336.26Z" fill="#ffe01a"/><path d="M171.6,221.87s-21.78,20.52-32.57,28,.83,13.21,9.48,14.61,75.18,3.73,129.71-19.85c38.54-16.67,41.85-22.2,41.85-22.2S215.09,246.19,171.6,221.87Z" fill="#ffe01a"/></svg>