<svg id="Layer_1" data-name="Layer 1" xmlns="http://www.w3.org/2000/svg" viewBox="0 0 480 480"><title>Iitems</title><path d="M408,130l-7.55-7.55a10.58,10.58,0,0,0-15.11,0L377.82,130,332.5,84.64h0l-7.55-7.55a53.44,53.44,0,0,0-75.54,0l-45.33,45.33a32.06,32.06,0,0,1-45,.3,11,11,0,0,0-15.41-.3,53.53,53.53,0,0,0,5.14,80.08c11.5,8.93,25.79,12,39.57,10l8.17,8.17,40,40c-2,.65-4.1,1.21-6.19,1.67l-37.47,7.25a66.45,66.45,0,0,0-32.79,17.68L49.38,396.34A21.37,21.37,0,0,0,79.6,426.56l93.95-92.32A63.37,63.37,0,0,1,205,317l47.44-10.58A43.16,43.16,0,0,0,273.27,295L408,160.19A21.43,21.43,0,0,0,408,130Z" fill="#f1f2f2"/><path d="M64.49,445.3a33.85,33.85,0,0,1-23.95-57.8L151.33,278.35a78.61,78.61,0,0,1,38.88-21l.3-.06,20.95-4.05-27.78-27.78a63.42,63.42,0,0,1-42.58-13.1,66,66,0,0,1-6.31-98.79,23.42,23.42,0,0,1,33,.23,19.61,19.61,0,0,0,27.42-.23l45.33-45.33a65.94,65.94,0,0,1,93.22,0l7.15,7.15.54.45.35.44,36,36a23.07,23.07,0,0,1,31.45,1.24l7.55,7.55a33.93,33.93,0,0,1,0,47.9L282.11,303.8a55.61,55.61,0,0,1-26.88,14.82l-47.53,10.6a50.85,50.85,0,0,0-25.31,13.86l-.08.08L88.4,435.44A33.77,33.77,0,0,1,64.49,445.3ZM195.42,281.82a53.72,53.72,0,0,0-26.48,14.27L58.16,405.25a8.87,8.87,0,0,0,12.61,12.47l.08-.08,93.91-92.28a75.72,75.72,0,0,1,37.6-20.57l47.35-10.56a30.56,30.56,0,0,0,14.73-8.12L399.2,151.35a8.93,8.93,0,0,0,0-12.54h0l-6.27-6.27-15.11,15.11L316.1,85.93a40.94,40.94,0,0,0-57.87,0l-45.33,45.33a44.71,44.71,0,0,1-61.67,1.29,41,41,0,0,0-10.62,30.23,40.56,40.56,0,0,0,15.83,29.86c8.3,6.44,19,9.1,30.08,7.46l6.22-.92,67.17,67.17-19.57,6.23c-2.45.78-4.9,1.44-7.3,2l-.3.06Z" fill="#fff"/><path d="M392.93,145.08l-136,136-60.44-60.44a21.37,21.37,0,0,1,0-30.22L302.28,84.64a21.37,21.37,0,0,1,30.22,0Z" fill="#e0e0e0"/><path d="M262.38,271.38a10.68,10.68,0,0,1-15.11,0L184.92,209A10.68,10.68,0,1,1,200,193.92l62.35,62.35A10.68,10.68,0,0,1,262.38,271.38Z" fill="#fff"/><path d="M385.38,152.63a10.68,10.68,0,0,1-15.11,0L309.83,92.2a10.68,10.68,0,0,1,15.11-15.11l60.44,60.44A10.68,10.68,0,0,1,385.38,152.63Z" fill="#fff"/><path d="M294.72,243.29a10.68,10.68,0,0,1-15.11,0l-60.44-60.44a10.68,10.68,0,0,1,15.11-15.11l60.44,60.44A10.68,10.68,0,0,1,294.72,243.29Z" fill="#fff"/><path d="M264.51,137.53,324.94,198a10.68,10.68,0,1,1-15.11,15.11L249.4,152.63a10.68,10.68,0,1,1,15.11-15.11Z" fill="#fff"/><path d="M355.16,182.85a10.68,10.68,0,0,1-15.11,0l-60.44-60.44a10.68,10.68,0,1,1,15.11-15.11l60.44,60.44A10.68,10.68,0,0,1,355.16,182.85Z" fill="#fff"/><path d="M400.49,122.42,408,130a21.43,21.43,0,0,1,0,30.22L273.27,295a43.17,43.17,0,0,1-20.85,11.48L205,317a63.37,63.37,0,0,0-31.43,17.23L79.6,426.56a21.37,21.37,0,0,1-30.22-30.22L160.1,287.25a66.45,66.45,0,0,1,32.79-17.68l37.47-7.25a66.45,66.45,0,0,0,32.79-17.68L385.38,122.42A10.58,10.58,0,0,1,400.49,122.42Z" fill="#882f3e"/><path d="M324.94,77.09l7.55,7.55-48.65,48.65-19.34,19.34-43.21,43.21c-19.49,19.49-50.92,23.42-72.52,6.65a53.53,53.53,0,0,1-5.14-80.08,11,11,0,0,1,15.41.3,32.06,32.06,0,0,0,45-.3L249.4,77.09A53.44,53.44,0,0,1,324.94,77.09Z" fill="#ff8242"/></svg>