<svg id="Layer_1" data-name="Layer 1" xmlns="http://www.w3.org/2000/svg" viewBox="0 0 480 480"><title>Iitems</title><path d="M325.48,253.4a7.22,7.22,0,0,0,.31-2.08,7.46,7.46,0,0,0-3.74-6.49l10.26-31.42c8.64-26.45,4.43-76.9-16.6-96.62l3.87-11.84,3.1,1c2.46.8,5-.15,5.63-2.12l2.23-16.37c.64-2-.84-4.24-3.3-5L302.34,74.3c-2.46-.8-5,.15-5.63,2.12l-7.87,14.53c-.64,2,.84,4.24,3.3,5l3.1,1-3.87,11.84c-28.62,3.51-61.79,41.75-70.43,68.2l-10.26,31.42a7.37,7.37,0,0,0-7.87,5l-.1.32a7.37,7.37,0,0,0,3.4,8.68l-2.33,7.15a7.37,7.37,0,0,0-7.87,5l-.1.32a7.37,7.37,0,0,0,3.4,8.68l-2.33,7.14a7.36,7.36,0,0,0-7.87,5l-.1.32a7.37,7.37,0,0,0,3.4,8.68L190,271.89a7.37,7.37,0,0,0-7.87,5l-.1.32a7.37,7.37,0,0,0,3.4,8.68L183,293a7.37,7.37,0,0,0-7.87,5l-.1.32a7.37,7.37,0,0,0,3.4,8.68l-2.33,7.14a7.37,7.37,0,0,0-7.87,5l-.1.32a7.36,7.36,0,0,0,3.4,8.68l-2.33,7.15a7.37,7.37,0,0,0-7.87,5l-.1.32a7.36,7.36,0,0,0,3.4,8.68l-2.33,7.15a7.36,7.36,0,0,0-7.87,5l-.1.32a7.37,7.37,0,0,0,3.4,8.69l-2.33,7.14a7.37,7.37,0,0,0-7.87,5l-.1.32a7.37,7.37,0,0,0,3.4,8.68l-3.35,10.27a17.85,17.85,0,0,0,11.39,22.44L197.65,437l38.77,12.66a17.66,17.66,0,0,0,5.27.87,17.87,17.87,0,0,0,17.18-12.27L262.22,428a7.4,7.4,0,0,0,5.8-1.82,7.26,7.26,0,0,0,2.08-3.18l.1-.32a7.46,7.46,0,0,0-3.4-8.68l2.33-7.14a7.39,7.39,0,0,0,6.66-2.74,7.26,7.26,0,0,0,1.22-2.27h0l.1-.32a7.27,7.27,0,0,0,.36-2.55,7.23,7.23,0,0,0-2.25-5,7.24,7.24,0,0,0-1.51-1.16l2.33-7.14a7.39,7.39,0,0,0,5.8-1.82,7.26,7.26,0,0,0,2.08-3.18l.1-.32h0s0-.08,0-.11a7.26,7.26,0,0,0,.33-2.43,7.39,7.39,0,0,0-3.76-6.14l2.33-7.15a7.29,7.29,0,0,0,2.84-.24,7.17,7.17,0,0,0,3.81-2.5,7.27,7.27,0,0,0,1.22-2.27l.1-.32a7.27,7.27,0,0,0,.36-2.55,7.39,7.39,0,0,0-3.76-6.14l2.33-7.15a7.36,7.36,0,0,0,7.83-4.89l0-.11h0l.1-.32a7.23,7.23,0,0,0,.34-2.27,6.89,6.89,0,0,0-.51-2.71,7.43,7.43,0,0,0-1.08-1.83,7.3,7.3,0,0,0-1.85-1.66c-.1-.07-.2-.15-.3-.21l2.33-7.15a7.39,7.39,0,0,0,6.66-2.73,7.26,7.26,0,0,0,1.22-2.27l.1-.32h0a7.27,7.27,0,0,0,.36-2.55,7.51,7.51,0,0,0-3-5.63,7.24,7.24,0,0,0-.75-.51l2.33-7.15a7.4,7.4,0,0,0,5.8-1.82,7.27,7.27,0,0,0,2.08-3.18l.1-.32a7.22,7.22,0,0,0,.34-2.2,7.55,7.55,0,0,0-3.74-6.49l2.33-7.15a7.39,7.39,0,0,0,6.66-2.73,7.26,7.26,0,0,0,1.22-2.27h0l.1-.32a7.26,7.26,0,0,0,.36-2.55,7.39,7.39,0,0,0-3.76-6.14l2.33-7.15a7.36,7.36,0,0,0,7.87-5h0l.1-.32h0S325.47,253.43,325.48,253.4Z" fill="#fff" stroke="#fff" stroke-miterlimit="10" stroke-width="20"/><rect x="288.62" y="89.58" width="25.62" height="59.42" transform="translate(51.94 -87.7) rotate(18.09)" fill="#24b8ac"/><rect x="192.55" y="170.5" width="99.02" height="270.56" transform="translate(106.9 -60.04) rotate(18.09)" fill="#00838f"/><path d="M325.84,253.83l.1-.32a7.37,7.37,0,0,0-3.4-8.68l10.26-31.42c10-30.63,2.8-93.48-27.83-103.49h0c-30.63-10-73.54,36.48-83.55,67.11l-10.26,31.42a7.37,7.37,0,0,0-7.87,5l-.1.32a7.36,7.36,0,0,0,3.4,8.68l-2.33,7.15a7.37,7.37,0,0,0-7.87,5l-.1.32a7.37,7.37,0,0,0,3.4,8.68l-2.33,7.14a7.37,7.37,0,0,0-7.87,5l-.1.32a7.37,7.37,0,0,0,3.4,8.68l-2.33,7.15a7.37,7.37,0,0,0-7.87,5l-.1.32a7.37,7.37,0,0,0,3.4,8.68L183.53,293a7.37,7.37,0,0,0-7.87,5l-.1.32A7.37,7.37,0,0,0,179,307l-2.33,7.14a7.37,7.37,0,0,0-7.87,5l-.1.32a7.36,7.36,0,0,0,3.4,8.68l-2.33,7.15a7.36,7.36,0,0,0-7.87,5l-.1.32a7.37,7.37,0,0,0,3.4,8.69l-2.33,7.14a7.36,7.36,0,0,0-7.87,5l-.1.32a7.37,7.37,0,0,0,3.4,8.68l-2.33,7.15a7.37,7.37,0,0,0-7.87,5l-.1.32a7.37,7.37,0,0,0,3.4,8.68L148,401.9a17.85,17.85,0,0,0,11.39,22.44l77.54,25.33a17.85,17.85,0,0,0,22.44-11.39L262.7,428a7.36,7.36,0,0,0,7.87-5l.1-.32a7.36,7.36,0,0,0-3.4-8.68l2.33-7.15a7.37,7.37,0,0,0,7.87-5l.1-.32a7.36,7.36,0,0,0-3.4-8.68l2.33-7.15a7.36,7.36,0,0,0,7.87-5l.1-.32a7.36,7.36,0,0,0-3.4-8.68l2.33-7.15a7.36,7.36,0,0,0,7.87-5l.1-.32a7.37,7.37,0,0,0-3.4-8.68l2.33-7.14a7.36,7.36,0,0,0,7.87-5l.1-.32a7.36,7.36,0,0,0-3.4-8.68l2.33-7.15a7.37,7.37,0,0,0,7.87-5l.1-.32a7.36,7.36,0,0,0-3.4-8.68l2.33-7.15a7.37,7.37,0,0,0,7.87-5l.1-.32a7.36,7.36,0,0,0-3.4-8.68l2.33-7.14a7.36,7.36,0,0,0,7.87-5l.1-.32a7.36,7.36,0,0,0-3.4-8.68l2.33-7.15A7.36,7.36,0,0,0,325.84,253.83ZM246.92,425.21a8.16,8.16,0,0,1-10.26,5.21l-65.74-21.47a8.16,8.16,0,0,1-5.21-10.26L199.27,296s15.19-.72,27,5.55c8.56,4.55,21.07,17.28,28.25,19.62,14.82,4.84,25.95,1.34,25.95,1.34Z" fill="#24b8ac"/><path d="M292.13,96l30.55,10c2.46.8,5-.15,5.63-2.12l2.23-16.37c.64-2-.84-4.24-3.3-5L302.34,74.3c-2.46-.8-5,.15-5.63,2.12l-7.87,14.53C288.19,92.92,289.68,95.18,292.13,96Z" fill="#424242"/><path d="M251,282.91l41.25-74.68-22.86,3.48,18.41-33.32-19.49,4.41-28.51,51.61,23-3.39-12.8,51.49A.56.56,0,0,0,251,282.91Z" fill="#00838f"/></svg>