<svg id="Layer_1" data-name="Layer 1" xmlns="http://www.w3.org/2000/svg" viewBox="0 0 480 480"><title>Iitems</title><path d="M442.51,151.13c.39-44.92-68-81.11-119.5-76.78-59.59,5-46.22,88.13-45.36,93.14l-28.2-7.71-3.15,35.48-22,8.65L219,229.16l-1.13,1.48-46.32,15.44,17.08,25.31-.48.71-24.31,13v24.82l-1,1.75-27,3.41-4.72,25.25-13.77-9.83-14.16,19.27-20.85-9.44-4.19,13.34-1,.05L56.4,344.89l-6.87,6.87c-12.62-1.5-7.77,6.27-7.77,6.27,89.15,65.69,180.11,9.19,201.12-5.69,2.37-1.66,3.93-2.84,4.6-3.36,1.09-.08,2.14-.18,3.2-.28a135.39,135.39,0,0,1,5.06,18.85c1,9.6-10,15.18-13.37,16.52s-1.42,5.11-1.42,5.11h78.67c-.25-.38-.54-.73-.81-1.1H325a32.13,32.13,0,0,1,2.45,2.28c-.15-.79-.34-1.55-.55-2.28h44.92a27.53,27.53,0,0,0-7.87-7.87,32.18,32.18,0,0,1,15.73,9c-4.72-24.47-41-24.47-41-24.47L331.67,334a54.49,54.49,0,0,0,10-31.82c13.5-22.94,13.13-49.53,9-68.31a6,6,0,0,0,1.4-2.54c2.75-9.28,18.49,3.54,18.49,3.54l-1-10.23,19.51-3.62c-3.38-3.93-23.37-15.89-32.81-7.87-4.67,4-9.46,2.53-13.1.06a28.77,28.77,0,0,0-3.88-5A48.37,48.37,0,0,1,332.38,176S442.12,196,442.51,151.13ZM281.38,343.59a134.65,134.65,0,0,0,15.51-5c1.73.46,2.84.68,2.84.68A135.35,135.35,0,0,1,308,366.45a11.38,11.38,0,0,1-.14,3.42,68.77,68.77,0,0,0-21.33-4Z" fill="#f1f2f2"/><path d="M372.81,401.66H344.1l.73,1.1h-1.11m-23.15,0H232.73l-3.8-7.3A18.33,18.33,0,0,1,227.86,381a16.13,16.13,0,0,1,3.31-5.37,221.27,221.27,0,0,1-60.46,23,171.37,171.37,0,0,1-65.18,1.65c-25.38-4.4-49.54-15-71.82-31.36l-2.09-1.54-1.37-2.2c-3-4.81-4.7-12.36-.43-19.09,2.2-3.47,6.36-7.26,14.14-8l9.32-9.32,16.29,6.93L74,321.64l24.78,11.22,15.58-21.2,7.34,5.25,2.63-14.06,26-3.28V277l18.92-10.12-18.89-28,56.76-18.92,5.41-26,21-8.27,3.84-43.29,24.87,6.79c-.69-19,1.54-46.4,16.71-66,10.33-13.34,24.78-20.87,42.94-22.39,36.67-3.09,81.22,12.31,108.31,37.45,17.1,15.86,26.05,34.18,25.89,53a35.55,35.55,0,0,1-13.31,27.85c-13.5,11.15-36.28,16-69.67,14.75-9.83-.36-19-1.21-26.36-2.08a34.84,34.84,0,0,0,3.46,8.26l.47.53c17.5-10.56,42.88,4.88,48.7,11.65l15.39,17.9-30.44,5.65,3,30.33-20.89-17c1,15.56-.51,36.7-11.33,56.89a67.58,67.58,0,0,1-9,30.58l3.58,15.55c17.37,2.63,38.92,11.82,43.31,34.61l2.43,12.61,1.55,2.36H396m-127.59-26h6.45l-9.63-41.83L278,330.45a121.66,121.66,0,0,0,14-4.53l4.16-1.64,4.33,1.16c1.2.32,2,.47,2,.48l7,1.42,2.84,6.61a149.19,149.19,0,0,1,7.24,21.6l3.41.82-5.8-25.2,3.5-5a40.7,40.7,0,0,0,7.53-24.06l0-3.66,1.86-3.15c13.33-22.65,9.67-48.48,7.48-58.53l-1.55-7.11,3.08-3.18a30.83,30.83,0,0,1-3.42-2l-2.44-1.65-1.53-2.52a15.24,15.24,0,0,0-2-2.66l-1-1-.75-1.2a62.06,62.06,0,0,1-8.88-41.29l1.93-14.06,14,2.55c29,5.28,76.34,7.39,90.67-4.46a8.51,8.51,0,0,0,3.45-7.16h0c.12-13.84-9.29-25.5-17.2-32.84-21.57-20-58.41-32.75-87.59-30.3-10.42.87-18.18,4.78-23.73,12-13.34,17.23-12,50.29-9.38,65.37l3.61,21-33.1-9-2.45,27.67-23,9L231.68,235l-5.53,7.24-33.33,11.11,12.23,18.13-7.55,11.07-20.07,10.73v20.45L171.1,324.3l-23.72,3-6.81,36.45-20.19-14.42-12.75,17.35L90.72,359l-2.42,7.71-2.62.14c24.88,9.43,51.44,11.2,79.38,5.26,34.09-7.26,60.3-24,70-30.86,2.25-1.57,3.63-2.63,4.13-3l3.23-2.51,4.08-.3,2-.17,11.58-1,3.47,10A149.46,149.46,0,0,1,269.08,365l.17,1.12A25.05,25.05,0,0,1,268.36,375.61Zm52.41-1.1h6.32l-.65-2.77-4.82-3.18a24.81,24.81,0,0,1-.45,3.92ZM46.44,365.14h0ZM339.11,227.51v0Z" fill="#fff"/><path d="M442.51,151.13C442.12,196,332.38,176,332.38,176a48.38,48.38,0,0,0,9.44,35.87c13,16.13,39.34,127.29-94.4,137.12,0,0-104,83.94-205.65,9,0,0-5.9-9.44,12.19-5.51S137.9,354.1,161.5,313.9s83.94-127.68,116.2-146.17c0,0-16.13-88.27,45.31-93.38C374.46,70,442.91,106.21,442.51,151.13Z" fill="#93ac07"/><path d="M336.94,207.14s9.91,14.08,19.35,6.06,29.42,3.93,32.81,7.87l-19.51,3.62,1,10.23s-15.73-12.82-18.49-3.54c-3.7,12.51-27.06-8.58-27.06-8.58Z" fill="#7cb342"/><path d="M319.08,242.62s41,51.21,12.59,91.42l7.08,30.76s36.27,0,41,24.47a32.18,32.18,0,0,0-15.73-9,27.53,27.53,0,0,1,7.87,7.87H293.2s-2-3.78,1.42-5.11S309,376,308,366.45a135.39,135.39,0,0,0-8.26-27.22s-24.39-4.72-24.39-18.09S297.6,251.75,319.08,242.62Z" fill="#7cb342"/><path d="M278.25,167.65l-28.79-7.87-3.15,35.48-22,8.65-5.51,26.43-47.2,15.73,17.31,25.65-25,13.37v26.43l-28,3.54-4.72,25.25-13.77-9.83-14.16,19.27-20.85-9.44L78,354.1l-21.63-9.2-7.87,7.87s7.87,14.16,53.18,6.69S222.63,258.2,239.23,228.22A636.46,636.46,0,0,1,278.25,167.65Z" fill="#92c64e"/><path d="M442.51,151.13C442.12,196,332.38,176,332.38,176a48.38,48.38,0,0,0,9.44,35.87c13,16.13,39.34,127.29-94.4,137.12,0,0-104,83.94-205.65,9,0,0-5.9-9.44,12.19-5.51S137.9,354.1,161.5,313.9s83.94-127.68,116.2-146.17c0,0-16.13-88.27,45.31-93.38C374.46,70,442.91,106.21,442.51,151.13Z" fill="#7cb342"/><path d="M333,203.28c-28-9.83-80,64.9-100.86,114.23-31.94,75.68-174,49.33-173.55,50.9,96.14,55.07,189.28-19.75,189.28-19.75,128.55-9.44,109-112.73,95.66-134.84A28.79,28.79,0,0,0,333,203.28Z" fill="#ffe01a"/><path d="M289.74,227.67s3,17,14.95,13.69,24.94,15.73,26.51,20.77l-19.2-5-3.38,9.76s-8.81-18.25-15.26-11c-8.65,9.76-20.85-19.27-20.85-19.27Z" fill="#7cb342"/><path d="M266.84,243.72s41,51.21,12.59,91.42l7.08,30.76s36.27,0,41,24.47a32.18,32.18,0,0,0-15.73-9,27.53,27.53,0,0,1,7.87,7.87H241s-2-3.78,1.42-5.11,14.4-6.92,13.37-16.52a135.39,135.39,0,0,0-8.26-27.22s-24.39-4.72-24.39-18.09S245.37,253,266.84,243.72Z" fill="#7cb342"/><circle cx="344.02" cy="110.93" r="14.63" fill="#414042"/><circle cx="346.54" cy="112.89" r="6.53" fill="#f1f2f2"/></svg>