<svg xmlns="http://www.w3.org/2000/svg" viewBox="0 0 480 480"><title>Iitems</title><g style="isolation:isolate"><g id="Layer_1" data-name="Layer 1"><path d="M256.87,120.44c19.45,6.64,54.91,40.07,94.06,25C398.09,127.25,407,64.83,407,64.83c-22.09,14.33-47.75-7.16-94.92-3.58-33.62,2.55-52.37,31.49-60.37,47.91a6.69,6.69,0,0,0-5.52,3l-18.15,27.56a177.22,177.22,0,0,0-10.31-25.22,6.72,6.72,0,0,0-11.86,6.3c.13.23,8.45,16.12,14.13,39.82a122.24,122.24,0,0,1-18.89-3.37c-16.28-4.24-36.44-7.14-53.81-2.63C111.09,164,72.52,203,72.52,267.46c0,43.7,27.81,103.75,61.91,137.89C150.63,421.58,168.25,432,185,432a101.61,101.61,0,0,0,28.82-4.24,62.66,62.66,0,0,1,36.35,0A101.61,101.61,0,0,0,279,432c16,0,32.74-9.45,48.31-24.42,35.11-33.71,64.15-95.43,64.15-140.08,0-64.47-38.57-103.42-74.83-112.83-17.38-4.5-37.53-1.6-53.81,2.63q-5.08,1.32-10.23,2.2A121.92,121.92,0,0,1,234,161.19c-.33-1.5-.67-3-1-4.44Z" fill="#f1f2f2"/><path d="M279,444.46a113.68,113.68,0,0,1-32.43-4.77,50.09,50.09,0,0,0-29.11,0A113.7,113.7,0,0,1,185,444.46c-19.09,0-39.63-10.47-59.4-30.28C88.21,376.75,60,313.67,60,267.46c0-32.28,9.1-61.51,26.3-84.55,15.16-20.29,35.72-34.63,57.89-40.38,16.13-4.18,35.68-3.46,58.12,2.13a150,150,0,0,0-7.44-17.95l0,0a19.22,19.22,0,1,1,34-18c.31.6,1,2,2,4.13l4.93-7.49A19.11,19.11,0,0,1,243,98.78,115.61,115.61,0,0,1,263.63,71c13.82-13.42,29.82-20.91,47.56-22.25C334.57,47,352.94,50.9,367.71,54c16.36,3.46,25.24,5.05,32.53.32l23.08-15L419.42,66.6c-.41,2.85-10.61,69.91-64,90.48q-1.46.56-2.91,1a115.8,115.8,0,0,1,25.1,24.78c17.21,23,26.3,52.27,26.3,84.55,0,47-29.87,112.49-68,149.1C316.94,434.81,297.24,444.46,279,444.46Zm-47-31.94a75.18,75.18,0,0,1,21.8,3.24,89.61,89.61,0,0,0,25.19,3.7c11.7,0,25.4-7.24,39.65-20.93,33.26-31.94,60.31-90.73,60.31-131.07s-20.49-89.06-65.47-100.73c-12.26-3.18-28.7-2.27-47.52,2.63-3.71,1-7.5,1.78-11.27,2.42A134.76,134.76,0,0,1,236,173.65l.27,1.14-9.85-1-2.48,0-.06-.29-5.09-.5A135.23,135.23,0,0,1,198,169.36c-18.83-4.9-35.26-5.81-47.52-2.63C105.51,178.39,85,227.12,85,267.46c0,39.66,25.59,96.35,58.26,129.06,14.77,14.8,29.57,22.95,41.7,22.95a89.65,89.65,0,0,0,25.2-3.7A75.15,75.15,0,0,1,232,412.52Zm29.4-276.19-6.57,10c1.62-.35,3.24-.73,4.84-1.14q6.34-1.65,12.37-2.79l-3.34-1.91C266.14,139,263.67,137.59,261.37,136.33Zm3.85-26a176.44,176.44,0,0,1,15.9,8.48c14.29,8.21,31.28,18,49,18a44.87,44.87,0,0,0,16.29-3c24.45-9.42,37.06-33.93,43.16-51.46-8.77.05-17.79-1.85-27.06-3.81-13.89-2.94-29.64-6.27-49.46-4.77C288.42,75.58,273.11,95.81,265.22,110.3ZM217,115l.14.28L217,115Z" fill="#fff"/><path d="M391.41,267.46c0,44.66-29,106.37-64.15,140.08C311.69,422.51,294.92,432,279,432a101.61,101.61,0,0,1-28.82-4.24,62.66,62.66,0,0,0-36.35,0A101.61,101.61,0,0,1,185,432c-16.73,0-34.35-10.38-50.55-26.61-34.1-34.14-61.91-94.19-61.91-137.89,0-64.47,38.57-103.42,74.83-112.83,17.37-4.5,37.53-1.6,53.81,2.63a122,122,0,0,0,51.38,2.2q5.16-.89,10.23-2.2c16.28-4.24,36.43-7.14,53.81-2.63C352.85,164,391.41,203,391.41,267.46Z" fill="#c6d100"/><path d="M407,64.83s-9,62.42-56.12,80.59c-45.09,17.37-85.27-29.59-101.76-25.9a6.6,6.6,0,0,0-2.08.81l0,0v0c.56-1.68,18.63-55.54,65.06-59.06C359.29,57.66,385,79.15,407,64.83Z" fill="#829e18"/><path d="M265.36,181.48c0,7.33-11.52,13.44-26.8,14.83-2.13.2-4.33.3-6.59.3s-4.65-.11-6.86-.31c-15.14-1.44-26.52-7.52-26.52-14.81Z" fill="#829e18"/><path d="M257.45,119.56,233,156.75a204.26,204.26,0,0,1,4.45,24.72c.56,4.79,1,9.74,1.16,14.83-2.13.2-4.33.3-6.59.3s-4.65-.11-6.86-.31c-.2-5.09-.64-10-1.24-14.81-4.39-34.77-17.8-60.38-18-60.67a6.72,6.72,0,0,1,11.86-6.3,177.26,177.26,0,0,1,10.31,25.22l18.15-27.56a6.71,6.71,0,0,1,11.21,7.39Z" fill="#5d4037"/><ellipse cx="322.45" cy="224.85" rx="41.2" ry="58.62" transform="translate(-49.59 351.79) rotate(-53.73)" fill="#ed5965" opacity="0.56" style="mix-blend-mode:screen"/></g></g></svg>