<svg xmlns="http://www.w3.org/2000/svg" viewBox="0 0 480 480"><title>Iitems</title><g style="isolation:isolate"><g id="Layer_1" data-name="Layer 1"><path d="M416.69,223.09l-51.87-35.84a36.75,36.75,0,0,0-10.13-49.84L298.58,98.63a36.75,36.75,0,0,0-50.2,8.14l-10.49-7.25a21.34,21.34,0,0,0-8.32-23.61l-7.8-5.39a21.34,21.34,0,0,0-25,.56l-.22-.15a34.77,34.77,0,0,0-48.38,8.84L42.9,232a34.74,34.74,0,0,0,8.84,48.38L271.92,432.57q.74.51,1.5,1a34.73,34.73,0,0,0,46.88-9.82L425.53,271.46A34.77,34.77,0,0,0,416.69,223.09ZM287.8,114.23,343.91,153a17.76,17.76,0,0,1,5.28,23.43L264,117.57A17.76,17.76,0,0,1,287.8,114.23Z" fill="#fff"/><path d="M291.67,448.71a44.65,44.65,0,0,1-23.51-6.66q-1-.6-1.92-1.25L46.06,288.63a44.74,44.74,0,0,1-11.38-62.29L139.91,74.07a44.85,44.85,0,0,1,56.87-14.59,31.26,31.26,0,0,1,30.67,2.8l7.8,5.39a31.25,31.25,0,0,1,13.5,24.47,46.56,46.56,0,0,1,55.52-1.75l56.11,38.78a46.55,46.55,0,0,1,17.23,54.74l44.77,30.94a44.83,44.83,0,0,1,11.38,62.29L328.52,429.42a44.61,44.61,0,0,1-36.85,19.29ZM176.78,74.76a24.77,24.77,0,0,0-20.42,10.68L51.13,237.71a24.74,24.74,0,0,0,6.3,34.46L277.6,424.34c.35.24.71.48,1.08.71a24.73,24.73,0,0,0,33.39-7L417.3,265.78a24.8,24.8,0,0,0-6.3-34.46L226.24,103.62l2.06-6.95a11.31,11.31,0,0,0-4.42-12.54l-7.8-5.39a11.31,11.31,0,0,0-13.29.3L197,83.43l-6.19-4.29A24.61,24.61,0,0,0,176.78,74.76Z" fill="#fff"/><path d="M296.28,221.92l-56.11-38.78a36.75,36.75,0,0,1-9.33-51.07L247.51,108a36.75,36.75,0,0,1,51.07-9.33l56.11,38.78A36.75,36.75,0,0,1,364,188.47l-16.67,24.12A36.75,36.75,0,0,1,296.28,221.92ZM287.8,114.23a17.76,17.76,0,0,0-24.68,4.51l-16.67,24.12A17.76,17.76,0,0,0,251,167.54l56.11,38.78a17.76,17.76,0,0,0,24.68-4.51l16.67-24.12A17.76,17.76,0,0,0,343.91,153Z" fill="#d14253"/><path d="M235,105.59A21.34,21.34,0,0,1,205.3,111l-7.8-5.39a21.34,21.34,0,0,1-5.42-29.68h0a21.34,21.34,0,0,1,29.69-5.42l7.8,5.39A21.34,21.34,0,0,1,235,105.59Z" fill="#d14253"/><path d="M320.29,423.73a34.77,34.77,0,0,1-48.38,8.84L51.74,280.4A34.77,34.77,0,0,1,42.9,232L148.14,79.76a34.77,34.77,0,0,1,48.38-8.84L416.69,223.09a34.77,34.77,0,0,1,8.84,48.38Z" fill="#fccc00"/><path d="M72.19,189.66,42.9,232a34.77,34.77,0,0,0,8.84,48.38L271.92,432.57a34.77,34.77,0,0,0,48.38-8.84l29.28-42.37Z" fill="#882f3e"/><rect x="191.76" y="116.92" width="38.23" height="337.19" transform="translate(-143.89 296.67) rotate(-55.35)" opacity="0.2" style="mix-blend-mode:multiply"/><circle cx="234.22" cy="251.75" r="98.19" transform="translate(-106.05 301.3) rotate(-55.35)" fill="#691f2f"/><path d="M176.59,335.12a101.35,101.35,0,1,1,141-25.76A101.47,101.47,0,0,1,176.59,335.12ZM288.24,173.57a95,95,0,1,0,24.15,132.2A95.14,95.14,0,0,0,288.24,173.57Z" fill="#fff"/><circle cx="234.22" cy="251.75" r="75.53" transform="translate(-106.05 301.3) rotate(-55.35)" fill="#d14253"/><circle cx="234.22" cy="251.75" r="58.47" transform="translate(-106.05 301.3) rotate(-55.35)" fill="#054554"/><circle cx="391.36" cy="258.81" r="19.54" transform="translate(-44.05 433.62) rotate(-55.35)" opacity="0.2" style="mix-blend-mode:multiply"/><circle cx="391.36" cy="258.81" r="11.85" transform="translate(-44.06 433.62) rotate(-55.35)" fill="#fff"/><ellipse cx="263.54" cy="241.71" rx="22.09" ry="31.43" transform="translate(-66.39 103.77) rotate(-19.84)" fill="#fff" opacity="0.6"/></g></g></svg>