<svg xmlns="http://www.w3.org/2000/svg" viewBox="0 0 480 480"><title>Iitems</title><g style="isolation:isolate"><g id="Layer_1" data-name="Layer 1"><path d="M344.44,126.16A142.61,142.61,0,0,0,139.32,320.89,144.16,144.16,0,0,0,261,387.51c79.64,0,144.21-64.45,144.21-143.95A143.68,143.68,0,0,0,344.44,126.16Z" fill="#fff"/><path d="M261,400a156.19,156.19,0,0,1-132-72.06,154,154,0,0,1-29.52-91c0-85.53,69.58-155.12,155.12-155.12A155.46,155.46,0,0,1,352,116.2a156.75,156.75,0,0,1,65.68,127.35C417.68,329.82,347.38,400,261,400ZM254.59,106.8A130.12,130.12,0,0,0,149.41,313.52l.43.64A131.31,131.31,0,0,0,261,375c72.63,0,131.71-59,131.71-131.45a131.71,131.71,0,0,0-55.48-107.2l-.65-.49A130.38,130.38,0,0,0,254.59,106.8Z" fill="#fff"/><ellipse cx="260.97" cy="241.98" rx="144.21" ry="143.94" fill="#820303"/><circle cx="254.59" cy="235.33" r="142.62" fill="#c90404"/><path d="M378,235.33A123.46,123.46,0,1,1,254.59,111.86,123.45,123.45,0,0,1,378,235.33Z" fill="#fff"/><circle cx="254.59" cy="235.33" r="104.5" fill="#c90404"/><path d="M338.73,235.33a84.15,84.15,0,1,1-84.14-84.14A84.15,84.15,0,0,1,338.73,235.33Z" fill="#fff"/><circle cx="254.59" cy="235.32" r="63.79" fill="#c90404"/><circle cx="254.59" cy="235.32" r="42.64" fill="#fff"/><circle cx="254.59" cy="235.33" r="22.28" fill="#c90404"/><path d="M249.53,242l78.14,39.34S346.22,306,359.73,306s12.36-3.64,12.81-6.85,9.75-13.52,7-20.05-36.81-9.78-37.14-9.92-10.14,6.15-10.14,6.15l-68.65-32.55Z" opacity="0.5" style="mix-blend-mode:multiply"/><path d="M260.95,238.21l86.63,12.19s20.37,18.18,33.71,16c12.79-2.08,13.42-7.31,12.82-10.49s4.75-11.33-1.88-14.26c-27-11.93-42.24,1.55-42.24,1.55l-75.46-8.8Z" opacity="0.5" style="mix-blend-mode:multiply"/><path d="M257,225.54l83.31-26.7s26.25,7.5,37.32-.26c10.61-7.43,8.91-12.42,7-15s-.66-12.28-7.9-12c-29.52,1-37.36,19.78-37.36,19.78l-71.77,24.9Z" opacity="0.5" style="mix-blend-mode:multiply"/><polygon points="323.38 174.22 272.19 208.65 277.1 215.19 325.68 177.66 353.77 159.06 350.62 154.87 323.38 174.22"/><path d="M254.81,226.21s-1.43-3,2.95-6.72,14.43-10.83,14.43-10.83l4.92,6.54s-12.25,8.34-15.3,10.43S256.69,227.59,254.81,226.21Z" fill="#ffe01a"/><path d="M357.46,144.93s-.5-7.21-5.66-7.53-19,11.47-24.25,21.29-4.11,16-4.11,16Z" fill="#ffc21a"/><path d="M363.73,153.29s6.77,2.49,5.65,7.53-16.31,15.06-27.2,17.35-16.5-.51-16.5-.51Z" fill="#ffc21a"/><path d="M325.68,177.66s17.26-4.26,27-11.29,14-10.66,12.37-13.78-7.79-2.71-7.79-2.71Z" fill="#ffe01a"/><path d="M323.44,174.68s8.91-15.38,18.37-22.77,14.14-10.48,16.67-8,.43,8.23.43,8.23Z" fill="#ffe01a"/><polygon points="342.5 214.02 282.62 228.87 285 236.7 343.48 218.05 376.23 210.17 374.71 205.15 342.5 214.02"/><path d="M260.28,239.43s-.31-3.33,5.06-5.3,17.27-5.25,17.27-5.25L285,236.7s-14.36,3.65-17.95,4.58S261.58,241.38,260.28,239.43Z" fill="#ffe01a"/><path d="M384.53,198.14s2-6.94-2.74-9-21.78,4.28-30.06,11.72-9.34,13.61-9.34,13.61Z" fill="#ffc21a"/><path d="M387.57,208.15s5.51,4.65,2.73,9-20.47,8.57-31.49,7S343.48,218,343.48,218Z" fill="#ffc21a"/><path d="M343.48,218s17.67,1.89,29.21-1.39,16.81-5.22,16.34-8.71-6.39-5.21-6.39-5.21Z" fill="#ffe01a"/><path d="M342.39,214.47s13.64-11.41,25-15.12,16.87-5,18.42-1.84-2.41,7.88-2.41,7.88Z" fill="#ffe01a"/><polygon points="328.79 257.3 269.35 240.79 267.57 248.78 327.67 261.29 360.06 270.53 361.19 265.42 328.79 257.3"/><path d="M244.7,239s1.37-3.05,7-2.13,17.62,3.92,17.62,3.92l-1.78,8s-14.3-3.89-17.87-4.84S244.88,241.34,244.7,239Z" fill="#ffe01a"/><path d="M373.19,264.15s5.15-5.06,2.05-9.2-21.08-7-31.94-4.57-14.82,7.26-14.82,7.26Z" fill="#ffc21a"/><path d="M370.92,274.35s2.52,6.76-2,9.19-22-2.6-30.86-9.39-10.34-12.86-10.34-12.86Z" fill="#ffc21a"/><path d="M327.67,261.29s14.46,10.34,26.12,13.15,17.2,3.72,18.5.45-3-7.67-3-7.67Z" fill="#ffe01a"/><path d="M328.48,257.64s17.48-3.23,29.24-.85,17.15,3.93,16.95,7.45-6,5.67-6,5.67Z" fill="#ffe01a"/></g></g></svg>