<svg id="Layer_1" data-name="Layer 1" xmlns="http://www.w3.org/2000/svg" xmlns:xlink="http://www.w3.org/1999/xlink" viewBox="0 0 480 480"><defs><clipPath id="clip-path"><ellipse cx="304.4" cy="157.8" rx="111.51" ry="92.39" transform="translate(-16.14 279.51) rotate(-48.19)" fill="none"/></clipPath></defs><title>Iitems</title><path d="M92.84,427.25h0a14.65,14.65,0,0,0,3-14.13l88.28-98.72a35.73,35.73,0,0,1,8.77-7.13c15.22-8.79,61.88-34.39,100.87-41.38,29.45-2.34,60-17.1,83.25-43.13,42.85-47.91,45.12-116,5.06-151.85s-107.5-26-150.35,21.93c-23.25,26-34.53,58-33.6,87.47-2.95,40-22.91,88.81-29.9,104.88a35.69,35.69,0,0,1-6.14,9.57L73.87,393.45A14.65,14.65,0,0,0,60.16,398a5.92,5.92,0,0,0,.47,8.34L84.5,427.72A5.92,5.92,0,0,0,92.84,427.25Zm90.87-130-4.5-4a3.58,3.58,0,0,1-.87-4.16c7.32-16.1,16.86-39,23.2-67.41a3.62,3.62,0,0,1,6.75-.88,82.06,82.06,0,0,0,44,39.47,3.62,3.62,0,0,1-.13,6.8c-27.21,9.36-48.93,21.45-64.21,30.61A3.58,3.58,0,0,1,183.71,297.26Zm49.73-60.11c-35.9-32.1-33.27-93.81,5.86-137.56S339.46,46.36,375.36,78.46,408.62,172.27,369.5,216,269.34,269.25,233.44,237.15Z" fill="#424242"/><path d="M88.41,441.53a18.07,18.07,0,0,1-12.12-4.63L52.42,415.55A18.24,18.24,0,0,1,51,389.83,27,27,0,0,1,68.48,381l84.47-94.45a23.4,23.4,0,0,0,4-6.28c6-13.88,25.86-61.93,28.86-100.26-.86-33.55,12.51-68.28,36.75-95.38,22.64-25.32,52.34-41.78,83.62-46.34,32.1-4.68,62,3.64,84.11,23.44S424,110.3,423,142.72c-1.05,31.59-14.1,62.94-36.75,88.26-24.27,27.14-57.34,44.3-90.82,47.14-37.3,6.86-83.11,32.19-96.32,39.82a23.42,23.42,0,0,0-5.75,4.68l-84.5,94.49A27,27,0,0,1,102,435.46h0a18.1,18.1,0,0,1-12.56,6Zm-9.46-35.29,3.65,3.26L175,306.2l.12-.13-3.65-3.26-.15.16ZM208.61,243.58a350,350,0,0,1-12.33,35.07,348,348,0,0,1,33.4-16.2,94.05,94.05,0,0,1-21.07-18.88ZM323.29,71.73a83.85,83.85,0,0,0-12.86,1c-22.92,3.56-44.92,16-62,35.05s-27,42.29-27.94,65.47c-.95,22.26,6.55,41.69,21.11,54.71h0c14.56,13,34.71,18.31,56.72,14.89,22.92-3.56,44.92-16,62-35.05s27-42.29,27.94-65.47c.95-22.26-6.55-41.69-21.11-54.71C355.48,77.2,340.22,71.73,323.29,71.73Z" fill="#fff"/><g clip-path="url(#clip-path)"><path d="M309.68,4.51l-6.44,7.82c-4.16,4.92-10,12-17.19,20.43S270.49,50.93,261.4,61.32l-14,16L232.76,93.73l-14.7,16.33L203.75,125.8c-9.31,10.19-18.07,19.64-25.64,27.68s-14,14.67-18.39,19.35l-7.06,7.27,6.44-7.82c4.16-4.92,10-12,17.18-20.43s15.57-18.17,24.66-28.56l14-16,14.59-16.42,14.7-16.33L258.6,58.82c9.31-10.19,18.07-19.64,25.64-27.68s14-14.67,18.39-19.35Z" fill="#fff"/><path d="M326,19.07l-6.59,7.68L301.87,46.9,277,75.24l-28.72,32.33-28.93,32.14-25.39,27.9-18.08,19.63-6.9,7.41,6.59-7.68L193,166.82l24.91-28.34,28.72-32.33L275.58,74,301,46.1l18.08-19.63Z" fill="#fff"/><path d="M342.23,33.62l-6.44,7.82c-4.16,4.92-10,12-17.19,20.43S303,80,293.95,90.43l-14,16-14.59,16.42-14.7,16.33L236.29,154.9c-9.31,10.19-18.07,19.64-25.64,27.68s-14,14.67-18.39,19.35l-7.06,7.27,6.44-7.82c4.16-4.92,10-12,17.18-20.43s15.57-18.17,24.66-28.56l14-16L262.12,120l14.7-16.33,14.32-15.74c9.31-10.19,18.07-19.64,25.64-27.68s14-14.67,18.39-19.35Z" fill="#fff"/><path d="M358.5,48.17,352.06,56c-4.16,4.92-10,12-17.19,20.43S319.31,94.59,310.22,105l-14,16-14.59,16.43-14.7,16.33-14.32,15.74c-9.31,10.19-18.07,19.64-25.64,27.68s-14,14.67-18.39,19.35l-7.06,7.27,6.44-7.82c4.16-4.92,10-12,17.18-20.43s15.57-18.17,24.66-28.56l14-16,14.59-16.42,14.7-16.33,14.32-15.74c9.31-10.19,18.07-19.64,25.64-27.68s14-14.67,18.39-19.35Z" fill="#fff"/><path d="M374.78,62.73l-6.44,7.82c-4.16,4.92-10,12-17.19,20.43s-15.57,18.17-24.66,28.56l-14,16-14.59,16.42-14.7,16.33L268.84,184c-9.31,10.19-18.07,19.64-25.64,27.68s-14,14.67-18.39,19.35l-7.06,7.27,6.44-7.82c4.16-4.92,10-12,17.18-20.43S256.94,191.89,266,181.5l14-16,14.59-16.42,14.7-16.33L323.69,117c9.31-10.19,18.07-19.64,25.64-27.68s14-14.67,18.39-19.35Z" fill="#fff"/><path d="M391.05,77.28l-6.44,7.82c-4.16,4.92-10,12-17.19,20.43s-15.57,18.17-24.66,28.56l-14,16L314.13,166.5l-14.7,16.33-14.32,15.74c-9.31,10.19-18.07,19.64-25.64,27.68s-14,14.67-18.39,19.35L234,252.87l6.44-7.82c4.16-4.92,10-12,17.18-20.43s15.57-18.17,24.66-28.56l14-16,14.59-16.42,14.7-16.33L340,131.58c9.31-10.19,18.07-19.64,25.64-27.68s14-14.67,18.39-19.35Z" fill="#fff"/><path d="M407.32,91.83l-6.44,7.82c-4.16,4.92-10,12-17.19,20.43S368.13,138.25,359,148.64l-14,16L330.4,181.05l-14.7,16.33-14.32,15.74c-9.31,10.19-18.07,19.64-25.64,27.68s-14,14.67-18.39,19.35l-7.06,7.27,6.44-7.82c4.16-4.92,10-12,17.18-20.43s15.57-18.17,24.66-28.56l14-16,14.59-16.42,14.7-16.33,14.32-15.74c9.31-10.19,18.07-19.64,25.64-27.68s14-14.67,18.39-19.35Z" fill="#fff"/><path d="M423.6,106.39l-6.44,7.82c-4.16,4.92-10,12-17.19,20.43s-15.57,18.17-24.66,28.56l-14,16L346.68,195.6,332,211.93l-14.32,15.74c-9.31,10.19-18.07,19.64-25.64,27.68s-14,14.67-18.39,19.35L266.57,282l6.44-7.82c4.16-4.92,10-12,17.18-20.43s15.57-18.17,24.66-28.56l14-16,14.59-16.42,14.7-16.33,14.32-15.74c9.31-10.19,18.07-19.64,25.64-27.68s14-14.67,18.39-19.35Z" fill="#fff"/><path d="M439.87,120.94l-6.59,7.68-17.5,20.15-24.9,28.34-28.72,32.33-28.93,32.14-25.39,27.9-18.08,19.63-6.9,7.41,6.59-7.68,17.49-20.15,24.91-28.34L360.56,208l28.93-32.14L414.89,148,433,128.35Z" fill="#fff"/><path d="M456.14,135.49l-6.44,7.82c-4.16,4.92-10,12-17.19,20.43s-15.57,18.17-24.66,28.56l-14,16-14.59,16.42L364.53,241l-14.32,15.74c-9.31,10.19-18.07,19.64-25.64,27.68s-14,14.67-18.39,19.35l-7.06,7.27,6.44-7.82c4.16-4.92,10-12,17.18-20.43s15.57-18.17,24.66-28.56l14-16L376,221.86l14.7-16.33,14.32-15.74c9.31-10.19,18.07-19.64,25.64-27.68s14-14.67,18.39-19.35Z" fill="#fff"/><path d="M151.12,152.52l7.68,6.59L179,176.6l28.34,24.91,32.33,28.72,32.14,28.93,27.9,25.39,19.63,18.08,7.41,6.9L319,302.95l-20.15-17.49-28.34-24.91L238.2,231.82l-32.14-28.93-27.9-25.39-19.63-18.08Z" fill="#fff"/><path d="M165.67,136.24l7.82,6.44c4.92,4.16,12,10,20.43,17.19s18.17,15.57,28.56,24.66l16,14,16.42,14.59,16.33,14.7L287,242.18c10.19,9.31,19.64,18.07,27.68,25.64s14.67,14,19.35,18.39l7.27,7.06-7.82-6.44c-4.92-4.16-12-10-20.43-17.18S294.83,254.08,284.45,245l-16-14L252,216.35l-16.33-14.7L220,187.32c-10.19-9.31-19.64-18.07-27.68-25.64s-14.67-14-19.35-18.39Z" fill="#fff"/><path d="M180.23,120l7.82,6.44c4.92,4.16,12,10,20.43,17.19s18.17,15.57,28.56,24.66l16,14,16.43,14.59,16.33,14.7,15.74,14.32c10.19,9.31,19.64,18.07,27.68,25.64s14.67,14,19.35,18.39l7.27,7.06L348,270.56c-4.92-4.16-12-10-20.43-17.18S309.39,237.8,299,228.71l-16-14-16.42-14.59-16.33-14.7-15.74-14.32c-10.19-9.31-19.64-18.07-27.68-25.64s-14.67-14-19.35-18.39Z" fill="#fff"/><path d="M194.78,103.69l7.82,6.44c4.92,4.16,12,10,20.43,17.19S241.2,142.89,251.59,152l16,14L284,180.61l16.33,14.7,15.74,14.32c10.19,9.31,19.64,18.07,27.68,25.64s14.67,14,19.35,18.39l7.27,7.06-7.82-6.44c-4.92-4.16-12-10-20.43-17.18s-18.17-15.57-28.56-24.66l-16-14L281.15,183.8l-16.33-14.7-15.74-14.32c-10.19-9.31-19.64-18.07-27.68-25.64s-14.67-14-19.35-18.39Z" fill="#fff"/><path d="M209.33,87.42l7.82,6.44c4.92,4.16,12,10,20.43,17.19s18.17,15.57,28.56,24.66l16,14,16.43,14.59L314.88,179l15.74,14.32c10.19,9.31,19.64,18.07,27.68,25.64s14.67,14,19.35,18.39l7.27,7.06L377.1,238c-4.92-4.16-12-10-20.43-17.18s-18.17-15.57-28.56-24.66l-16-14L295.7,167.53l-16.33-14.7L263.64,138.5C253.45,129.19,244,120.43,236,112.87s-14.67-14-19.35-18.39Z" fill="#fff"/><path d="M223.88,71.15l7.82,6.44c4.92,4.16,12,10,20.43,17.19s18.17,15.57,28.56,24.66l16,14,16.42,14.59,16.33,14.7,15.74,14.32c10.19,9.31,19.64,18.07,27.68,25.64s14.67,14,19.35,18.39l7.27,7.06-7.82-6.44c-4.92-4.16-12-10-20.43-17.18S353,189,342.66,179.89l-16-14-16.42-14.59-16.33-14.7-15.74-14.32c-10.19-9.31-19.64-18.07-27.68-25.64s-14.67-14-19.35-18.39Z" fill="#fff"/><path d="M238.44,54.87l7.82,6.44c4.92,4.16,12,10,20.43,17.19s18.17,15.57,28.56,24.66l16,14,16.43,14.59L344,146.49l15.74,14.32c10.19,9.31,19.64,18.07,27.68,25.64s14.67,14,19.35,18.39L414,211.9l-7.82-6.44c-4.92-4.16-12-10-20.43-17.18s-18.17-15.57-28.56-24.66l-16-14L324.81,135l-16.33-14.7L292.74,106c-10.19-9.31-19.64-18.07-27.68-25.64s-14.67-14-19.35-18.39Z" fill="#fff"/><path d="M253,38.6,260.81,45c4.92,4.16,12,10,20.43,17.19S299.41,77.8,309.8,86.88l16,14,16.42,14.59,16.33,14.7,15.74,14.32c10.19,9.31,19.64,18.07,27.68,25.64s14.67,14,19.35,18.39l7.27,7.06-7.82-6.44c-4.92-4.16-12-10-20.43-17.18s-18.17-15.57-28.56-24.66l-16-14-16.42-14.59L323,104,307.3,89.68C297.11,80.37,287.66,71.61,279.61,64s-14.67-14-19.35-18.39Z" fill="#fff"/><path d="M267.54,22.33l7.82,6.44c4.92,4.16,12,10,20.43,17.19S314,61.52,324.35,70.61l16,14,16.42,14.59,16.33,14.7,15.74,14.32c10.19,9.31,19.64,18.07,27.68,25.64s14.67,14,19.35,18.39l7.27,7.06-7.82-6.44c-4.92-4.16-12-10-20.43-17.18s-18.17-15.57-28.56-24.66l-16-14-16.42-14.59-16.33-14.7L321.85,73.41c-10.19-9.31-19.64-18.07-27.68-25.64s-14.67-14-19.35-18.39Z" fill="#fff"/><path d="M282.1,6.05l7.68,6.59,20.15,17.5L338.27,55,370.6,83.77l32.14,28.93,27.9,25.39,19.63,18.08,7.41,6.9L450,156.49,429.85,139l-28.34-24.91L369.18,85.36,337,56.43,309.13,31,289.5,13Z" fill="#fff"/></g><path d="M377,222.76c42.85-47.91,45.12-116,5.06-151.85s-107.5-26-150.35,21.93c-23.25,26-34.53,58-33.6,87.47-2.95,40-22.91,88.81-29.9,104.88a35.7,35.7,0,0,1-6.14,9.57L73,394.38a6.93,6.93,0,0,0,.55,9.79L85.24,414.6A6.93,6.93,0,0,0,95,414l89.12-99.65a35.72,35.72,0,0,1,8.77-7.13c15.22-8.79,61.88-34.39,100.87-41.38C323.25,263.54,353.77,248.78,377,222.76ZM183.71,297.25l-4.5-4a3.58,3.58,0,0,1-.87-4.16c7.32-16.1,16.86-39,23.2-67.41a3.62,3.62,0,0,1,6.75-.88,82.06,82.06,0,0,0,44,39.47,3.62,3.62,0,0,1-.13,6.8c-27.21,9.36-48.93,21.45-64.21,30.61A3.58,3.58,0,0,1,183.71,297.25Zm49.73-60.11c-35.9-32.1-33.27-93.81,5.86-137.56S339.46,46.35,375.36,78.45,408.63,172.26,369.5,216,269.34,269.24,233.44,237.14Z" fill="#fd3d00"/><path d="M84.5,427.71,60.63,406.37a5.92,5.92,0,0,1-.47-8.34h0a14.68,14.68,0,0,1,20.67-1.15l10.85,9.7a14.68,14.68,0,0,1,1.15,20.67h0A5.92,5.92,0,0,1,84.5,427.71Z" fill="#424242"/></svg>