<svg id="Layer_1" data-name="Layer 1" xmlns="http://www.w3.org/2000/svg" viewBox="0 0 480 480"><title>Iitems</title><path d="M239.29,404.65c-93.06,0-168.75-75.7-168.75-168.75S146.23,67.14,239.29,67.14,408,142.85,408,235.89,332.33,404.65,239.29,404.65Zm0-268.42a99.67,99.67,0,1,0,99.66,99.67A99.78,99.78,0,0,0,239.29,136.23Z" fill="#fd3d00"/><path d="M239.29,415.58C140.21,415.58,59.6,335,59.6,235.89S140.21,56.21,239.29,56.21,419,136.81,419,235.89,338.36,415.58,239.29,415.58Zm0-337.5c-87,0-157.81,70.8-157.81,157.82s70.79,157.82,157.81,157.82S397.1,322.91,397.1,235.89,326.3,78.08,239.29,78.08Zm0,268.42a110.6,110.6,0,1,1,110.6-110.6A110.73,110.73,0,0,1,239.29,346.5Zm0-199.33A88.73,88.73,0,1,0,328,235.89,88.83,88.83,0,0,0,239.29,147.17Z" fill="#fff"/><path d="M387.52,316.49l-52.6-52.59a100,100,0,0,1-68,67.74l52.65,52.65A170,170,0,0,0,387.52,316.49Z" fill="#f5f6f8"/><path d="M317.65,397.79l-71.52-71.52,17.78-5.15a89.56,89.56,0,0,0,60.51-60.31l5.19-17.69L401,314.54l-3.92,7.18a180.25,180.25,0,0,1-72.29,72.17Zm-31.05-62,34.82,34.81a158.29,158.29,0,0,0,52.44-52.34l-34.79-34.79A112.24,112.24,0,0,1,286.59,335.8Z" fill="#fff"/><path d="M211.29,140.26l-52.6-52.6A169.92,169.92,0,0,0,90.9,155.58l52.65,52.65A100.06,100.06,0,0,1,211.29,140.26Z" fill="#f5f6f8"/><path d="M148.9,229.06,77.39,157.54l3.9-7.18a180.2,180.2,0,0,1,72.16-72.3l7.18-3.92,71.42,71.42-17.7,5.19a89.58,89.58,0,0,0-60.31,60.52Zm-44.34-75.28,34.81,34.81a112.27,112.27,0,0,1,52.31-52.47L156.9,101.34A158.26,158.26,0,0,0,104.56,153.78Z" fill="#fff"/><path d="M335.27,209.13l52.8-52.79a169.93,169.93,0,0,0-67.45-68.26l-52.44,52.43A100,100,0,0,1,335.27,209.13Z" fill="#f5f6f8"/><path d="M329.77,230.1l-5-18A89.55,89.55,0,0,0,265,151l-17.46-5.3L318.7,74.53l7.2,4a180.19,180.19,0,0,1,71.8,72.66l3.84,7.16Zm-42.09-93.61a112.25,112.25,0,0,1,51.89,52.88l34.87-34.87a158.25,158.25,0,0,0-52.06-52.71Z" fill="#fff"/><path d="M143.91,264.8,91.47,317.23a169.93,169.93,0,0,0,68.26,67.45l52.79-52.79A100,100,0,0,1,143.91,264.8Z" fill="#f5f6f8"/><path d="M161.72,398.16l-7.16-3.84A180.21,180.21,0,0,1,81.9,322.52l-4-7.2,71.16-71.16,5.3,17.46a89.55,89.55,0,0,0,61.09,59.73l18,5ZM105.18,319A158.26,158.26,0,0,0,157.89,371l34.87-34.87a112.23,112.23,0,0,1-52.88-51.89Z" fill="#fff"/><path d="M239.62,404.65c-93.06,0-168.75-75.7-168.75-168.75S146.56,67.14,239.62,67.14s168.75,75.71,168.75,168.75S332.67,404.65,239.62,404.65Zm0-268.42a99.67,99.67,0,1,0,99.66,99.67A99.78,99.78,0,0,0,239.62,136.23Z" fill="#fd3d00"/><path d="M387.85,316.49l-52.6-52.59a100,100,0,0,1-68,67.74l52.65,52.65A170,170,0,0,0,387.85,316.49Z" fill="#f5f6f8"/><path d="M211.62,140.26,159,87.66a169.92,169.92,0,0,0-67.79,67.92l52.65,52.65A100.06,100.06,0,0,1,211.62,140.26Z" fill="#f5f6f8"/><path d="M335.6,209.13l52.8-52.79A169.93,169.93,0,0,0,321,88.08l-52.44,52.43A100,100,0,0,1,335.6,209.13Z" fill="#f5f6f8"/><path d="M144.24,264.8,91.8,317.23a169.93,169.93,0,0,0,68.26,67.45l52.79-52.79A100,100,0,0,1,144.24,264.8Z" fill="#f5f6f8"/></svg>