<svg id="Layer_1" data-name="Layer 1" xmlns="http://www.w3.org/2000/svg" viewBox="0 0 480 480"><title>Iitems</title><path d="M402.21,57h0L277.83,71.78,196.77,191.69l-4.4,6.52h0l-8.69,12.85h0L167.1,235.57h0l-37.9,56.07,7.12,6.76h0l7,6.67h0L127.43,290a6.42,6.42,0,0,0-9.08.24l-14.23,15a6.42,6.42,0,0,0,.23,9.08l5.58,5.3-5.23,5.51h0L83.17,347.75h0l-5.28,5.56.11.1-1,.27s-40.61-2.6,5.66,39.85c44.79,44,40.09,3.59,40.09,3.59l.22-1,.06.05.2-.21h0l2.57-2.7,2.51-2.64h0l9.34-9.84h0l5.28-5.56h0l6.91-7.27h0l5.23-5.51,5.58,5.3a6.42,6.42,0,0,0,9.08-.24l14.23-15a6.42,6.42,0,0,0-.23-9.08l-16-15.15h0l7.06,6.71h0l7.12,6.76L295.62,256h0l17.9-13.5,27.42-20.68h0l52.9-39.9,8.37-125h0Z" fill="#d3d3d3"/><path d="M114,423.57c-12.43,0-26.45-11.94-37.88-23.16-14.3-13.14-29.87-30-23.74-44.38,1.76-4.12,6-9.41,16.08-11.25a39.87,39.87,0,0,1,5-.57l23.14-24.37a15.93,15.93,0,0,1,.66-21.19l14.23-15a15.94,15.94,0,0,1,14.8-4.62L272.39,62.86l142.87-19L403,186.9,194.71,344a16.06,16.06,0,0,1,.51,3.65A15.81,15.81,0,0,1,190.85,359l-14.23,15a15.93,15.93,0,0,1-21.13,1.75L132.4,400.1a40,40,0,0,1-.31,5.08c-1.32,10.19-6.38,14.68-10.4,16.65A17.23,17.23,0,0,1,114,423.57ZM70.26,363.86c.78,2.4,4.17,9.23,18.83,22.67l.24.22c14.18,13.93,21.17,17,23.61,17.63a20.07,20.07,0,0,0,.38-6.16l-.18-1.57,4.15-19.22,5.44,5.25,32-33.69L165,358.72l10-10.53L155.1,329.34,166.58,314l16.09,15.27L384.65,177l7.21-107.63L389.65,68,283.27,80.7,141.58,290.29l16.21,15.39-15,12L123.12,299l-10,10.53,10.24,9.72L91.31,353l5.44,5.19L78,363.26l-1.57-.1A19.43,19.43,0,0,0,70.26,363.86Z" fill="#fff"/><path d="M122.7,397.32l2.54-11.74-12.31-20.37.89-.93-2.14-1.15L110.41,361l-.89.93-21-11.24L77,353.88s-40.61-2.6,5.66,39.85C127.4,437.73,122.7,397.32,122.7,397.32Z" fill="#f4cc21"/><polygon points="129.15 291.84 277.77 71.98 402.15 57.15 155.53 316.89 129.15 291.84" fill="#8ddef7"/><polygon points="136.27 298.6 284.66 80.62 392.02 67.83 155.53 316.89 136.27 298.6" fill="#6ecef4"/><polygon points="181.91 341.94 393.78 182.13 402.15 57.15 155.52 316.89 181.91 341.94" fill="#49bbe8"/><polygon points="174.78 335.18 384.79 175.71 392.02 67.82 155.52 316.89 174.78 335.18" fill="#36a9e1"/><path d="M183.67,343.62l-26.23-24.9-7.8-7.4-22.28-21.15a6.42,6.42,0,0,0-9.08.24l-14.23,15a6.42,6.42,0,0,0,.23,9.08l28.15,26.73,0-.05h0l0,.05,28.15,26.73a6.42,6.42,0,0,0,9.08-.24l14.23-15A6.42,6.42,0,0,0,183.67,343.62Z" fill="#f4cc21"/><rect x="85.4" y="334.84" width="62.25" height="46.24" transform="translate(278.5 18.14) rotate(43.52)" fill="#54368e"/><rect x="71.92" y="368.32" width="62.25" height="7.67" transform="translate(284.57 31.33) rotate(43.52)" fill="#4e2f7f"/><rect x="86.54" y="352.92" width="62.25" height="7.67" transform="translate(277.99 17.02) rotate(43.52)" fill="#4e2f7f"/><rect x="98.73" y="340.09" width="62.25" height="7.67" transform="translate(272.51 5.11) rotate(43.52)" fill="#4e2f7f"/><path d="M153.88,335.67a17.05,17.05,0,1,1,12.38-5.31h0A17,17,0,0,1,153.88,335.67Zm0-25.68a8.63,8.63,0,1,0,5.94,2.37A8.61,8.61,0,0,0,153.89,310Z" fill="#f2b122"/><circle cx="153.89" cy="318.62" r="12.85" transform="translate(-183.13 210.83) rotate(-46.49)" fill="#54368e"/><ellipse cx="153.31" cy="311.58" rx="4.89" ry="2.76" transform="translate(-7.98 4.06) rotate(-1.48)" fill="#fff"/></svg>