<svg id="Layer_1" data-name="Layer 1" xmlns="http://www.w3.org/2000/svg" viewBox="0 0 480 480"><title>Iitems</title><path id="path3000" d="M234,88.53C219.36,54,171.86,71,150.49,82.63c-27.64,15-33.93,49.74-33.37,79.62.32,17.32-.07,52.71-4.71,78.52-4.33,24.08-9.89,73.65-9.89,73.65-2,29,32.78,29.61,47.42,31,25.92,2.5,32-26.36,32-26.36,6.14-16.57,8.06-37.22,10.57-63.8s10.18-50.53,23.44-75.28S244.19,112.47,234,88.53Z" fill="#6ecef4" stroke="#fff" stroke-miterlimit="10" stroke-width="19.85"/><path id="path3000-2" data-name="path3000" d="M234,88.53C219.36,54,171.86,71,150.49,82.63c-27.64,15-33.93,49.74-33.37,79.62.32,17.32-.07,52.71-4.71,78.52-4.33,24.08-9.89,73.65-9.89,73.65-2,29,32.78,29.61,47.42,31,25.92,2.5,32-26.36,32-26.36,6.14-16.57,8.06-37.22,10.57-63.8s10.18-50.53,23.44-75.28S244.19,112.47,234,88.53Z" fill="#f4cc21"/><path id="path3004" d="M113.81,209.58c1-2.89,2-5.94,2.85-8.45.71-2,1.4-3.87,2.11-5.63s1.42-3.44,2.16-5,1.5-3,2.32-4.42c.41-.69.83-1.36,1.26-2s.88-1.28,1.35-1.88.95-1.19,1.45-1.77l.09-.1c-.32.44-.67.88-1,1.32-10.25,14.92.82,45.79,7.5,65.87,1.94,8.79-7,19.83-15.17,6a16.73,16.73,0,0,1-2.09-6.12A239.51,239.51,0,0,1,113.81,209.58Z" fill="#ce2d02"/><path id="path3006" d="M203.81,218.22c0,.13,0,.25,0,.38,0,.78.07,1.57.07,2.37,0,1.6-.08,3.26-.24,5s-.39,3.52-.67,5.41-.64,3.86-1,5.94c-.78,4.06-1.76,8.54-2.83,13.52-4.65,7.19-9.4,13.38-13.1,18.09a15.38,15.38,0,0,1-5.17,4.25c-18,9.07-10.91-6-7.08-12.87a13.64,13.64,0,0,1,4.65-4.83C194.84,245.1,203.9,234.22,203.81,218.22Z" fill="#ce2d02"/><path id="path3008" d="M194.48,111.21a3.73,3.73,0,0,1,3.79-.54c2,1,1.48,4.2,1.48,4.2-3.79,5.74-5.2,13.85-5.2,13.85l-6.41-.73a46.69,46.69,0,0,1,6.34-16.78Z" fill="#ce2d02"/><path id="path3010" d="M189.84,120.24a4.84,4.84,0,0,1,4.94,2.35c17.79,30.21,21.61,57.51,21.59,79.81,0,17.62-8.43,34.81-17.23,48.42,1.07-5,2-9.47,2.83-13.52q.6-3.11,1-5.94c.29-1.89.52-3.68.67-5.41s.24-3.38.24-5c0-.8,0-1.59-.07-2.37,0-.13,0-.25,0-.38a45.67,45.67,0,0,0-.38-5.8c-4.44-34-11.45-57.57-16.7-69.46a1,1,0,0,0-1.16-.55c-20.2,5.15-45.53,20.54-58.18,37.9l-.09.1q-.75.86-1.45,1.77t-1.35,1.88c-.43.65-.85,1.32-1.26,2-.81,1.38-1.58,2.85-2.32,4.42s-1.46,3.24-2.16,5-1.4,3.64-2.11,5.63c-.89,2.51-1.89,5.56-2.85,8.45.22-13.22,2.1-26.74,7.4-37.76C134.9,143.37,165.83,124.44,189.84,120.24Z" fill="#fd3d00"/><path id="path2997" d="M267.17,163.73c19.92-31.81,64.15-7.5,83.43,7.32,24.94,19.18,25.68,54.46,20.44,83.88-3,17.05-8.22,52.07-7.69,78.28.49,24.46-1.81,74.29-1.81,74.29-2.58,28.91-37,24.08-51.71,23.17-26-1.61-27.42-31.06-27.42-31.06-3.46-17.33-2.1-38-.41-64.67s-2.1-51.5-11.31-78S253.38,185.76,267.17,163.73Z" fill="#1d1d1b" stroke="#fff" stroke-miterlimit="10" stroke-width="19.85"/><path id="path2997-2" data-name="path2997" d="M267.17,163.73c19.92-31.81,64.15-7.5,83.43,7.32,24.94,19.18,25.68,54.46,20.44,83.88-3,17.05-8.22,52.07-7.69,78.28.49,24.46-1.81,74.29-1.81,74.29-2.58,28.91-37,24.08-51.71,23.17-26-1.61-27.42-31.06-27.42-31.06-3.46-17.33-2.1-38-.41-64.67s-2.1-51.5-11.31-78S253.38,185.76,267.17,163.73Z" fill="#f4cc21"/><path id="path2989" d="M367.06,303.16c-.49-3-1-6.17-1.49-8.79-.38-2.08-.77-4-1.19-5.9s-.86-3.62-1.35-5.29-1-3.23-1.59-4.73c-.29-.75-.6-1.48-.93-2.19s-.67-1.4-1-2.07-.75-1.33-1.15-2l-.08-.11c.25.48.52,1,.75,1.45,7.78,16.35-8,45.08-17.76,63.87-3.42,8.68,4.29,21.56,15.14,6.89a10.51,10.51,0,0,0,1.55-3.12C361,331.49,365,317.67,367.06,303.16Z" fill="#ce2d02"/><path id="path2992" d="M276.82,297.52c0,.12-.06.24-.09.37-.17.76-.31,1.54-.44,2.33-.26,1.59-.43,3.23-.55,5s-.17,3.54-.18,5.45,0,3.92.09,6c.13,4.13.39,8.71.67,13.8,3.4,7.7,7.06,14.47,9.94,19.67a16.49,16.49,0,0,0,4.82,5.44c13.54,9.66,12.41-.13,10.1-7.82a24.52,24.52,0,0,0-6.94-11C280.87,324.47,274.33,312.66,276.82,297.52Z" fill="#ce2d02"/><path id="path2994" d="M302.86,193.32a3.72,3.72,0,0,0-3.66-1.13c-2.14.64-2.12,3.91-2.12,3.91,2.84,6.27,3,14.5,3,14.5l6.44.28a46.71,46.71,0,0,0-3.62-17.57Z" fill="#ce2d02"/><path id="path2999" d="M306.81,203.24a5.8,5.8,0,0,0-6.43,1.74c-22,26.86-30,53-33.48,74.94-2.75,17.4,2.85,35.71,9.4,50.53-.27-5.09-.53-9.67-.67-13.8-.07-2.11-.1-4.12-.09-6s.06-3.72.18-5.45.3-3.37.55-5c.13-.79.27-1.57.44-2.33,0-.13.06-.25.09-.37a46.29,46.29,0,0,1,1.28-5.67c10-33.63,20.82-56,27.88-66.66,19.3,8.08,42.38,27.52,52.27,46.92l.08.11c.4.64.79,1.3,1.15,2s.7,1.36,1,2.07.64,1.44.93,2.19c.59,1.49,1.11,3.06,1.59,4.73s.93,3.43,1.35,5.29.81,3.82,1.19,5.9c.48,2.62,1,5.79,1.49,8.79,1.86-13.09,2.14-26.74-1.36-38.45C356.75,234.8,329.7,211.43,306.81,203.24Z" fill="#fd3d00"/></svg>