<svg id="Layer_1" data-name="Layer 1" xmlns="http://www.w3.org/2000/svg" viewBox="0 0 480 480"><title>Iitems</title><path d="M316.6,286.49a233,233,0,0,0-16,25.86,234.88,234.88,0,0,0-9-31.74,233.19,233.19,0,0,0-18.8,24,234.85,234.85,0,0,0-6.25-31.73,237.16,237.16,0,0,0-25,27.75,237.22,237.22,0,0,0-1.85-37.29A234.86,234.86,0,0,0,214.86,284a233.14,233.14,0,0,0,.59-30.5,234.82,234.82,0,0,0-27,18.93,233,233,0,0,0,3.94-30.15s-47.52,20.79-68.51,51.28-7.5,59.15-7.5,59.15,13.52,1,28.74-6.83c.73,15.51,7,25.78,7,25.78s12.1-.45,25.47-8.49c2.33,14.28,8.86,23.18,8.86,23.18s15.58-1.88,29.94-14.84c3,19.11,13.85,30.41,13.85,30.41s10.69-2.78,21.51-12.38c5.29,14.68,14.39,22.66,14.39,22.66s11.36-4,21.72-15.56c6.86,15.69,18,23.44,18,23.44s28.55-13.71,31.52-50.61S316.6,286.49,316.6,286.49Z" fill="#f9a825" stroke="#fff" stroke-miterlimit="10" stroke-width="13.96"/><line x1="297.67" y1="129.68" x2="238.75" y2="265.64" fill="none" stroke="#fff" stroke-miterlimit="10" stroke-width="8.38"/><path d="M182.4,326.9c14.72-34,57.33-63.53,57.33-63.53s7.58,51.31-7.13,85.28-46.16,37.74-46.16,37.74S167.68,360.87,182.4,326.9Z" fill="#f9a825"/><line x1="283.14" y1="126.12" x2="214.27" y2="255.71" fill="none" stroke="#fff" stroke-miterlimit="10" stroke-width="8.38"/><path d="M153,312.08c17.49-32.63,62.42-58.55,62.42-58.55s3.29,51.76-14.2,84.39-49.14,33.77-49.14,33.77S135.54,344.71,153,312.08Z" fill="#f9a825"/><line x1="274.23" y1="124.2" x2="190.96" y2="244.35" fill="none" stroke="#fff" stroke-miterlimit="10" stroke-width="8.38"/><path d="M123.85,293.6c21-30.49,68.51-51.28,68.51-51.28s-2.45,51.81-23.44,82.3-52.57,28.13-52.57,28.13S102.86,324.09,123.85,293.6Z" fill="#f9a825"/><line x1="305.57" y1="132.48" x2="265.9" y2="275.29" fill="none" stroke="#fff" stroke-miterlimit="10" stroke-width="8.38"/><path d="M270.92,358.38c10-35.64-4.36-85.47-4.36-85.47s-38.27,35-48.31,70.64,12,58.41,12,58.41S260.89,394,270.92,358.38Z" fill="#f9a825"/><line x1="318.92" y1="138.84" x2="291.15" y2="283.05" fill="none" stroke="#fff" stroke-miterlimit="10" stroke-width="8.38"/><path d="M303.06,365.43c7-36.35-11.45-84.81-11.45-84.81S256.38,318.68,249.35,355s16.79,57.21,16.79,57.21S296,401.77,303.06,365.43Z" fill="#f9a825"/><line x1="328.13" y1="144.04" x2="316.4" y2="288.96" fill="none" stroke="#fff" stroke-miterlimit="10" stroke-width="8.38"/><path d="M337.35,369.51c3-36.9-20.75-83-20.75-83s-30.81,41.73-33.78,78.63,23,55,23,55S334.38,406.41,337.35,369.51Z" fill="#f9a825"/><path d="M319.29,253s-22.87-18.44-50.7-28.33c-28.57-10.16-57.21-10-57.21-10" fill="none" stroke="#fff" stroke-miterlimit="10" stroke-width="8.38"/><path d="M322.32,216.25A144,144,0,0,0,280,192.61a155.83,155.83,0,0,0-47.74-8.38" fill="none" stroke="#fff" stroke-miterlimit="10" stroke-width="8.38"/><line x1="305.36" y1="426.03" x2="317.08" y2="280.59" fill="none" stroke="#fff" stroke-linecap="square" stroke-miterlimit="10" stroke-width="8.38"/><line x1="264.72" y1="419.55" x2="293.03" y2="273.31" fill="none" stroke="#fff" stroke-linecap="square" stroke-miterlimit="10" stroke-width="8.38"/><line x1="226.93" y1="413.69" x2="269.2" y2="263.57" fill="none" stroke="#fff" stroke-linecap="square" stroke-miterlimit="10" stroke-width="8.38"/><line x1="181.76" y1="397.21" x2="243.44" y2="254.83" fill="none" stroke="#fff" stroke-linecap="square" stroke-miterlimit="10" stroke-width="8.38"/><line x1="148.01" y1="379.35" x2="218.38" y2="248.06" fill="none" stroke="#fff" stroke-linecap="square" stroke-miterlimit="10" stroke-width="8.38"/><line x1="112.29" y1="358.65" x2="195.02" y2="238.46" fill="none" stroke="#fff" stroke-linecap="square" stroke-miterlimit="10" stroke-width="8.38"/><path d="M325.67,60.59h0a42.33,42.33,0,0,1,25.7,54.06l-14.18,39.88s-19.89-14.13-37.65-20.45c-18.15-6.45-42.11-7.91-42.11-7.91l14.18-39.88A42.33,42.33,0,0,1,325.67,60.59Z" fill="#424242" stroke="#fff" stroke-miterlimit="10" stroke-width="13.96"/><path d="M325.67,60.59h0a42.33,42.33,0,0,1,25.7,54.06l-14.18,39.88s-19.89-14.13-37.65-20.45c-18.15-6.45-42.11-7.91-42.11-7.91l14.18-39.88A42.33,42.33,0,0,1,325.67,60.59Z" fill="#424242"/><path d="M344.42,134.19s-19.89-14.13-37.65-20.45c-18.15-6.45-42.11-7.91-42.11-7.91" fill="none" stroke="#fff" stroke-linecap="square" stroke-linejoin="round" stroke-width="8.43"/></svg>