<svg id="Layer_1" data-name="Layer 1" xmlns="http://www.w3.org/2000/svg" viewBox="0 0 480 480"><title>Iitems</title><path d="M398.52,143.89H377V128.42H338.36V85.18H316.61v43.25H158.36l-28.76-5.18V100.37h8.46V78.62H99.4v21.75h8.46v19l-23.2-4.18V281.61h25.74l8.32,35.52,8.32-35.52h23.07l12-42.06a16.7,16.7,0,0,1,16-12.06h90.26a11.43,11.43,0,0,1,11.13,14.05l-26.14,111.1H49.14v49.26H420.27V352.64H377V212h21.5v43.24h21.75V100.64H398.52Z" fill="#f1f2f2"/><path d="M432.77,414.41H36.64V340.14h74.64l-10.79-46H72.16V100.2l14.74,2.65V66.12h63.66v46.75h0l8.92,3.06H304.11V72.68h46.75v43.25H386V88.14h46.75V267.77H389.52v72.38h43.25Zm-371.12-25H407.77V365.14H364.52V199.52h43.25V156.39H364.52V140.92H157.24L97.16,130.1v139H140.7l9.43-33a29.25,29.25,0,0,1,28-21.12h90.26a23.93,23.93,0,0,1,23.3,29.42L263.28,365.14h-143l-1.58,6.76-1.58-6.76H61.64Zm64.53-49.26H243.48L267,240H178.13a4.2,4.2,0,0,0-4,3l-14.61,51.13H137Z" fill="#fff"/><rect x="316.61" y="85.18" width="21.75" height="46.39" fill="#5e4a33"/><polygon points="138.06 78.62 99.4 78.62 99.4 100.37 107.86 100.37 107.86 131.56 129.6 131.56 129.6 100.37 138.06 100.37 138.06 78.62" fill="#5e4a33"/><polygon points="107.86 270.74 129.6 270.74 118.73 317.13 118.73 317.13 107.86 270.74" fill="#fafafa"/><rect x="355.27" y="143.89" width="57.26" height="68.14" fill="#5e4a33"/><path d="M158.36,128.42l-73.7-13.28V281.61h65.46l12-42.06a16.7,16.7,0,0,1,16-12.06h90.26a11.44,11.44,0,0,1,11.13,14.05L251.9,358.92H377V128.42H158.36Z" fill="#92c64e"/><rect x="398.52" y="100.64" width="21.75" height="154.63" fill="#7cb342"/><rect x="49.14" y="352.64" width="371.12" height="49.26" fill="#5e4a33"/><rect x="312.02" y="291.97" width="21.75" height="21.75" transform="translate(-119.57 317.02) rotate(-45)" fill="#fafafa"/><rect x="366.42" y="128.33" width="10.6" height="224.32" fill="#77a037"/><rect x="413.34" y="100.64" width="6.93" height="154.63" fill="#77a037"/><polygon points="93.28 281.61 82.25 281.61 82.25 114.51 93.28 116.7 93.28 281.61" fill="#a5d35b"/></svg>