<svg id="Layer_1" data-name="Layer 1" xmlns="http://www.w3.org/2000/svg" viewBox="0 0 480 480"><title>Iitems</title><path d="M422,206.26,285,69.19c-3.22-2.57-7.72-2.57-10.3,0l-4.5,4.5a10.38,10.38,0,0,0-1.93,5.79l3.86,54.7L324.25,186l-2-1.57-7.72-7.72h0L272.1,134.19l-29,29L232.2,174.09l-10.84,10.84-58.75-70.85a8.32,8.32,0,0,0,1.37-1.13c10.94-8.37,16.09-17.38,16.73-27s-4.5-19.31-14.8-29.6a6.37,6.37,0,1,0-9,9c7.72,7.72,10.94,14.16,10.94,19.95-.64,5.79-4.5,11.58-12.23,18a5.21,5.21,0,0,0-1.05,1.08l-4.1-4.94a31.1,31.1,0,0,0-45,0c-12.23,12.23-12.23,32.82,0,45.69l4.83,4-9.33,9.52a36,36,0,0,0-11.58,27,38.53,38.53,0,0,0,11.58,27,36,36,0,0,0,27,11.58,37.93,37.93,0,0,0,27-10.94l13.51-14.16a6.85,6.85,0,0,0,.92-1.15l20.91,17.29-64.95,65.59,3.22,3.22L141.46,297l68.86,68.86,33.46-33.46,10.3-10.3,17.55-17.55.47.17,10.3-10.3-.47-.17,1.74-1.74,85.6,70.78L259.88,231.37l38.61,46.33L357,219.13,327.2,189.29l.5.08,30,29.77,54.7,3.86a7.31,7.31,0,0,0,5.15-1.93l4.5-4.5C424.62,213.34,424.62,208.84,422,206.26ZM159.48,190.17,146,203.69c-4.5,5.15-11.58,7.72-18,7.72a25.41,25.41,0,0,1-18-7.72c-5.15-4.5-7.72-11.58-7.72-18a25.41,25.41,0,0,1,7.72-18l10.18-10.38L159.68,190Z" fill="#f1f2f2"/><path d="M210.32,383.54,107.74,281l64.08-64.71-1.3-1.08-6.7,7a50.27,50.27,0,0,1-35.87,14.6,48.5,48.5,0,0,1-36.06-15.44,51.27,51.27,0,0,1-15.05-35.68,48.51,48.51,0,0,1,15.37-36l.41-.42c-13-17.74-11.69-42.88,3.85-58.54a43.75,43.75,0,0,1,31.48-13.43h0a43.8,43.8,0,0,1,26.55,9,8.1,8.1,0,0,0,.78-1.71c-.28-1.49-1.6-4.82-7.21-10.43a18.87,18.87,0,1,1,26.69-26.69C188,60.76,194.06,73.61,193.19,86.75c-.7,10.51-5.14,20.12-13.24,28.65l42.27,51,37-37-3.49-49.45v-.44a22.68,22.68,0,0,1,4-12.73l.69-1,5.38-5.38c7.12-7.12,18.7-7.52,26.94-.92l.54.43L430.88,197.42c7.12,7.12,7.51,18.7.92,26.94l-.43.54-5,5a19.83,19.83,0,0,1-14,5.59l-.88,0L361.89,232l-46.62,46.62,82.29,113.74L284.82,309.68l-9.56,9.56-.47-.17ZM143,280.87l67.31,67.31L281.49,277l-31.23-37.67,19.22-16,29.84,35.81,40-40L272.1,151.86l-51.6,51.6-65.37-78.83h0l-14-16.85a18.61,18.61,0,0,0-26.67.27l-.22.23C107,115.52,107,128.08,114,136l94.79,78.37ZM363.2,207l45.08,3.18L281,82.91l3.23,45.71,48.82,48.46-.38.43,1,.15ZM121,174.22l-2.23,2.27a12.89,12.89,0,0,0-4.06,9.18c0,3.34,1.39,6.8,3.45,8.61l.61.57a12.89,12.89,0,0,0,9.18,4.06c3.34,0,6.8-1.39,8.61-3.45l.57-.61,4-4Z" fill="#fff"/><path d="M201,426.68l4.5-4.5a10.38,10.38,0,0,0,1.93-5.79l-3.86-54.7-84.95-84.95-54.7-3.86a5.85,5.85,0,0,0-5.15,2.57l-4.5,3.86c-2.57,3.22-2.57,7.72,0,10.3L190.7,426.68C193.92,429.25,198.43,429.25,201,426.68Z" fill="#f1f2f2"/><path d="M200.82,447.18a21.14,21.14,0,0,1-13.2-4.69l-.55-.44-.5-.5L50.14,304.47c-7.1-7.1-7.49-18.68-.9-26.92l.73-.92,4.45-3.81a18.41,18.41,0,0,1,14.24-6.4l.88,0,59.36,4.19,91.55,91.55,4.22,60.24a22.68,22.68,0,0,1-4,12.73l-.69,1-5.38,5.38A19.32,19.32,0,0,1,200.82,447.18ZM72.74,291.74,199.39,419l-3.23-45.72-78.34-78.34Zm-4.9-4.93,0,0Z" fill="#fff"/><path d="M160.12,114.88a5.85,5.85,0,0,1-5.15-2.57,6.22,6.22,0,0,1,.64-9c7.72-6.44,11.58-12.23,12.23-18,0-5.79-3.22-12.23-10.94-19.95a6.37,6.37,0,0,1,9-9c10.3,10.3,15.44,19.95,14.8,29.6s-5.79,18.66-16.73,27a5.56,5.56,0,0,1-3.86,1.93" fill="#f68340"/><path d="M298.48,277.69,357,219.13,272.1,134.19,221.26,185Z" fill="#f68340"/><path d="M190.37,215.27l-65,65.64,84.95,84.95,73.36-73.36Z" fill="#f68340"/><path d="M412.39,223l-54.7-3.86L272.1,134.19l-3.86-54.7a10.38,10.38,0,0,1,1.93-5.79l4.5-4.5c2.57-2.57,7.08-2.57,10.3,0L422,206.26c2.57,2.57,2.57,7.08,0,10.3l-4.5,4.5a7.31,7.31,0,0,1-5.15,1.93" fill="#ededed"/><path d="M70,277.05l54.7,3.86,84.95,84.95,3.86,54.7a10.38,10.38,0,0,1-1.93,5.79l-4.5,4.5c-2.57,2.57-7.08,2.57-10.3,0L60.38,293.78c-2.57-2.57-2.57-7.08,0-10.3l4.5-3.86A5.85,5.85,0,0,1,70,277.05" fill="#ededed"/><path d="M243.14,163.15,232.2,174.09l96.53,15.44-6.44-5.15-7.72-7.72Z" fill="#db6b3a"/><path d="M243.14,211.41l3.86,5.15,93.31,19.31,10.94-10.94L232.2,202.4Z" fill="#db6b3a"/><path d="M147.9,258.39l124.2,46.33,10.3-10.3-124.2-46.33Z" fill="#db6b3a"/><path d="M128.59,284.13,141.46,297l102.32,35.39,10.3-10.3L130.52,279.62Z" fill="#db6b3a"/><path d="M105.42,99.44c-12.23,12.23-12.23,32.82,0,45.69L369.27,363.28,150.47,99.44a31.1,31.1,0,0,0-45,0" fill="#dadada"/><path d="M146,147.06a5.84,5.84,0,0,1-4.5-1.93l-18-18a6.37,6.37,0,0,1,9-9l18,18a6.22,6.22,0,0,1,0,9,5.84,5.84,0,0,1-4.5,1.93" fill="#757575"/><path d="M127.95,224.28a36,36,0,0,1-27-11.58,38.53,38.53,0,0,1-11.58-27,36,36,0,0,1,11.58-27l31.53-32.18a6.37,6.37,0,0,1,9,9l-31.53,32.18a25.41,25.41,0,0,0-7.72,18c0,6.44,2.57,13.51,7.72,18a25.41,25.41,0,0,0,18,7.72c6.44,0,13.51-2.57,18-7.72l13.51-13.51a6.37,6.37,0,0,1,9,9L155,213.34a37.93,37.93,0,0,1-27,10.94" fill="#f68340"/></svg>