<svg id="Layer_1" data-name="Layer 1" xmlns="http://www.w3.org/2000/svg" viewBox="0 0 480 480"><title>Iitems</title><path d="M116.55,171.08l15.67,15.67-3.13,3.13,20.48,20.48-4.81,1.46c-2.35.78-3.92,3.13-4.7,5.48-.78,14.1-4.7,25.86-7.05,32.91-1.57,3.13.78,7.05,3.92,7.84l26.64,7.84a6.34,6.34,0,0,1,1.86,1.28,1.5,1.5,0,0,0,.17.21v0l0,0h0l.29.65a1.21,1.21,0,0,1,0,.21l0,0c32.55,72.11,110.79,126.33,142.69,146.56a146.59,146.59,0,0,1,27.42,21.94c7.05,7.05,19.59,7.05,26.64,0s7.05-19.59,0-26.64l-3.13-3.13a318.51,318.51,0,0,0-54.06-43.09c-50.93-31.34-87.75-90.1-107.34-127.71l-32.12,32.12a.9.9,0,0,0,0-.13l32-32c-11-21.15-17.24-35.26-17.24-35.26l-.09,0,.87-.81-13.32-13.32q-2.35-2.35,0-4.7t4.7,0l13.32,13.32.35-.38-.35,1.17s14.89,5.48,35.26,17.24C259.15,233,317.91,269.8,350,320.73a318.52,318.52,0,0,0,43.09,54.06l3.13,3.13c7.05,7.05,19.59,7.05,26.64,0s7.05-19.59,0-26.64A146.59,146.59,0,0,1,401,323.86c-20.37-32.12-75.22-111.26-147.3-143.38-.78-.78-1.57-.78-2.35-1.57l-7.83-26.64c-.78-3.13-4.7-5.48-7.84-3.92-7.05,2.35-18.8,6.27-32.91,7.05a5.72,5.72,0,0,0-5.48,4.7l-.91,3L176.1,142.87l-3.92,4.7-15.67-15.67c-.78-21.15-84.62-65-84.62-65l-7.05,7.05h0l-5.48,5.48h0l-7.05,7.05S96.18,170.3,116.55,171.08Z" fill="#f1f2f2"/><path d="M349.4,454.48a31.45,31.45,0,0,1-22.16-8.95A134.82,134.82,0,0,0,302.1,425.4l-.14-.09c-38.09-24.15-104.11-72.51-139.33-136l-9.2-13.41-19.86-5.84a18.63,18.63,0,0,1-11.88-10.18,17.63,17.63,0,0,1-.34-14.22c2.28-6.85,5.56-17,6.24-29.07l.09-1.67.37-1.1-5.91-13.24-10.72-10.72,3.13-3.13-4.13-4.13c-9.19-2.81-22.14-13.1-44.14-47.39-13.66-21.28-24.58-42.1-25-43L37,84.12,69.55,51.54l8.14,4.26c.88.46,21.71,11.39,43,25.16,28.82,18.63,43.52,32.44,47.32,44.77l3.33,3.33,3.92-4.7,20.12,20.12a17.8,17.8,0,0,1,6.91-1.56c12-.7,22-4,28.83-6.22a17.63,17.63,0,0,1,14.22.34,18.63,18.63,0,0,1,10.19,11.88l6.34,21.57C331.72,203,385.49,276.12,411.52,317.17l.09.14a134.81,134.81,0,0,0,20.13,25.13,31.34,31.34,0,0,1-44.32,44.32l-3.13-3.13a329.43,329.43,0,0,1-44.78-56.16C326,306,291.93,264.14,215.77,224.48l-.47-.26c-4.61-2.66-8.92-5-12.83-7l.57,1.15,6.22,11.94C249,306.62,290.73,340,312.07,353.18l.19.12a329.39,329.39,0,0,1,56.16,44.78l3.13,3.13a31.11,31.11,0,0,1-22.16,53.27Zm-34.12-50.33a159.11,159.11,0,0,1,29.64,23.7,6.35,6.35,0,0,0,9-9l-3.13-3.13a304.67,304.67,0,0,0-51.87-41.35C272,357.87,233,324.21,195.16,256.8l-14,14C196.39,300.65,232.53,351.66,315.28,404.15ZM227.55,202.43c35,18.24,98.53,56.9,133.05,111.63A304.52,304.52,0,0,0,402,366l3.13,3.13a6.35,6.35,0,0,0,9-9,159.14,159.14,0,0,1-23.7-29.64C332.35,239,276.63,204.4,248.58,191.9l-2.11-.94-.67-.67a15.9,15.9,0,0,1-3.32-2.54l-2.25-2.25-6.84-23.27a128.17,128.17,0,0,1-25.32,5.3l-5.83,19.15h0l-.71,2.33C208.06,192,217.11,196.42,227.55,202.43Zm-76,25L167.51,249l15.25-15.25c-3.6-7.12-6.53-13.13-8.72-17.73l-.91.28h0l-21,6.38Q151.94,225.11,151.59,227.47Zm-27.63-25,5.21,5.79-.37-.95Zm22.8-12.56L160,203.09l3.6-3.35-4.15-4.15a15.83,15.83,0,1,1,22.38-22.38l4.15,4.15,3.35-3.61-12.36-12.36-3.92,4.7L144.2,137.27l-.16-4.45c-.57-1.41-5.39-10.76-39.09-32.27C93.17,93,81.55,86.41,74.14,82.31l-6.4,6.4c4.07,7.37,10.62,18.89,18,30.6,21.07,33.29,30.3,38.6,31.85,39.31l4.31.17,28,28Zm-28.92-31.18h0Z" fill="#fff"/><path d="M172.18,147.58l-15.67-15.67c-.78-21.15-84.62-65-84.62-65L52.31,86.46s43.88,83.83,64.25,84.62l15.67,15.67-3.13,3.13,30.56,30.56,21.94-20.37-13.32-13.32q-2.35-2.35,0-4.7h0q2.35-2.35,4.7,0l13.32,13.32,20.37-21.94L176.1,142.87Z" fill="#dadada"/><circle cx="143.98" cy="160.11" r="19.59" fill="#e0e0e0"/><path d="M124.39,160.11A19.4,19.4,0,0,0,144,179.7V140.52A19.4,19.4,0,0,0,124.39,160.11Z" fill="#bdbdbd"/><path d="M98.53,108.4,64.84,73.93l-5.48,5.48,34.47,34.47c0,4.7,3.13,11,8.62,17.24,7.84,7.84,16.45,11,20.37,7.05s.78-12.54-7.05-20.37C110.28,111.53,103.23,108.4,98.53,108.4Z" fill="#757575"/><path d="M253.67,180.48c-.78-.78-1.57-.78-2.35-1.57l-7.84-26.64c-.78-3.13-4.7-5.48-7.84-3.92-7.05,2.35-18.8,6.27-32.91,7.05a5.72,5.72,0,0,0-5.48,4.7l-11,36s14.89,5.48,35.26,17.24Z" fill="#7cb342"/><path d="M221.54,213.39C259.15,233,317.91,269.8,350,320.73a318.51,318.51,0,0,0,43.09,54.06l3.13,3.13c7.05,7.05,19.59,7.05,26.64,0s7.05-19.59,0-26.64h0A146.59,146.59,0,0,1,401,323.86c-20.37-32.12-75.22-111.26-147.3-143.38Z" fill="#92c64e"/><path d="M165.91,268.24,198,236.11c-11-21.15-17.24-35.26-17.24-35.26l-36,11c-2.35.78-3.92,3.13-4.7,5.48-.78,14.1-4.7,25.86-7.05,32.91-1.57,3.13.78,7.05,3.92,7.84l26.64,7.84Q165.91,267.06,165.91,268.24Z" fill="#7cb342"/><path d="M198.18,236.11l-32.12,32.12c0-.78-.78-.78-.78-1.57,32.12,72.87,111.26,127.71,143.38,148.08a146.59,146.59,0,0,1,27.42,21.94h0c7.05,7.05,19.59,7.05,26.64,0s7.05-19.59,0-26.64l-3.13-3.13a318.51,318.51,0,0,0-54.06-43.09C254.59,332.48,217.77,273.72,198.18,236.11Z" fill="#92c64e"/><circle cx="143.98" cy="160.11" r="7.05" fill="#757575"/></svg>