<svg width="99px" height="29px" viewBox="0 0 99 29" version="1.1" xmlns="http://www.w3.org/2000/svg" xmlns:xlink="http://www.w3.org/1999/xlink"><defs><polygon id="path-1" points="0 29 98.07 29 98.07 0.291 0 0.291"/></defs><g id="Page-1" stroke="none" stroke-width="1" fill="none" fill-rule="evenodd"><g id="header-copy-5" transform="translate(-170.000000, -15.000000)"><g id="Page-1" transform="translate(170.000000, 14.000000)"><g id="Group-9" transform="translate(0.000000, 0.709000)"><path d="M15.8 15.787c-.481-2.343-2.221-4.653-3.414-4.792-1.47.474-2.16 1.24-3.84 2.48-1.108.816-2 1.162-2 1.162s2.13 3.977 4.867 3.017c1.198-.419 2.178-2.763 4.387-1.867" id="Fill-1" fill="#23B175"/><path d="M19.041 18.773c2.035-3.94 5.45-5.922 5.45-5.922s-1.752-1.65-4.77-2.467c-3.628-.979-6.092.01-6.092.01s2.604 1.326 3.39 5.66c.46 2.54 1.9 2.72 2.023 2.72" id="Fill-3" fill="#EC5956"/><path d="M14.267.46C12.637.369 10.864.52 8.94 1 3.403 2.386-2.1 8.276 1.2 12.852c3.003 3.942 7.578-1.401 10.724-3.002-1.225-3.147-.053-6.537 2.343-9.39" id="Fill-5" fill="#27A8E0"/><path d="M15.596.592c-2.366 2.626-3.604 5.77-2.639 8.813 6.775-2.531 12.354 2.579 12.354 2.579s1.353-3.505-1.323-6.848c-1.607-2.01-4.49-3.984-8.392-4.544" id="Fill-7" fill="#FAAD40"/></g><g id="Group-48" transform="translate(0.000000, 0.709000)"><path d="M34.76 9.405v3.85c.353.042.954.103 1.684.103 1.727 0 2.666-.726 2.666-2.1 0-1.229-.939-1.853-2.54-1.853h-1.81zm0-5.909v3.682h1.724c1.187 0 2.166-.6 2.166-1.933 0-1.187-.915-1.81-2.29-1.81-.582 0-1.143.021-1.6.061zm-2.562-2.352c.814-.04 2.748-.103 4.203-.103 3.476 0 4.79 1.582 4.79 3.6 0 1.663-.836 2.726-2.08 3.308v.041c1.432.355 2.556 1.456 2.556 3.391 0 2.997-2.329 4.372-5.41 4.372-1.333 0-3.203-.043-4.059-.105V1.144z" id="Fill-10" fill="#FFF"/><polygon id="Fill-12" fill="#FFF" points="43.4937 15.6678 43.4937 6.3048 45.8847 6.3048 45.8847 12.2348 50.2547 6.3048 52.6487 6.3048 52.6487 15.6678 50.2547 15.6678 50.2547 9.7398 45.8847 15.6678"/><path d="M60.29 10.757l4.036 4.91h-3.118L57.5 10.946l3.373-4.64h3.018l-3.6 4.452zm-5.263 4.91h2.39V6.306h-2.39v9.363z" id="Fill-14" fill="#FFF"/><polygon id="Fill-16" fill="#FFF" points="65.4556 15.6678 65.4556 6.3048 67.8456 6.3048 67.8456 12.2348 72.2196 6.3048 74.6106 6.3048 74.6106 15.6678 72.2196 15.6678 72.2196 9.7398 67.8456 15.6678"/><path d="M82.337 15.668c-1.373 3.352-2.249 4.162-3.62 4.162-.854 0-1.478-.334-2.02-.726l.77-1.813c.25.146.604.334.977.334.603 0 1.04-.478 1.436-1.456l.208-.501-4.329-9.363h2.872l2.186 5.119c.19.458.314.895.457 1.354.083-.437.167-.896.333-1.375l1.687-5.098h2.726l-3.683 9.363z" id="Fill-18" fill="#FFF"/><polygon id="Fill-20" fill="#FFF" points="87.17 6.3046 89.333 6.3046 92.516 10.2176 95.534 6.3046 97.637 6.3046 97.637 15.6676 95.241 15.6676 95.241 9.9476 92.477 13.4426 92.413 13.4426 89.562 9.9476 89.562 15.6676 87.17 15.6676"/><polygon id="Fill-22" fill="#FFF" points="0.4702 22.7655 4.7892 22.7655 4.7892 23.3665 2.9492 23.3665 2.9492 28.0245 2.3102 28.0245 2.3102 23.3665 0.4702 23.3665"/><path d="M6.666 23.366v2.027c.255.024.503.04.767.04.773 0 1.239-.399 1.239-1.06 0-.624-.376-1.022-1.21-1.022-.21 0-.548.007-.796.015zm-.638 4.658v-5.259c.292 0 1.044-.015 1.374-.015 1.502 0 1.946.811 1.946 1.63 0 .856-.61 1.653-1.893 1.653-.211 0-.526-.008-.79-.03v2.021h-.637z" id="Fill-24" fill="#FFF"/><polygon id="Fill-26" fill="#FFF" points="10.8853 22.7655 13.8523 22.7655 13.8523 23.3665 11.5243 23.3665 11.5243 25.0635 13.6273 25.0635 13.6273 25.6645 11.5243 25.6645 11.5243 27.4225 13.9273 27.4225 13.9273 28.0245 10.8853 28.0245"/><polygon id="Fill-28" fill="#FFF" points="19.1089 25.6425 16.2169 25.6425 16.2169 28.0245 15.5789 28.0245 15.5789 22.7655 16.2169 22.7655 16.2169 25.0405 19.1089 25.0405 19.1089 22.7655 19.7479 22.7655 19.7479 28.0245 19.1089 28.0245"/><path d="M22.593 25.83h1.893l-.946-2.246-.947 2.247zm.69-3.095h.549l2.26 5.289h-.682l-.676-1.593h-2.396l-.67 1.593h-.645l2.26-5.29z" id="Fill-30" fill="#FFF"/><path d="M31.146 25.274l2.209 2.75h-.743l-2.164-2.743 2.081-2.516h.743l-2.125 2.51zm-1.472 2.75h.64v-5.259h-.64v5.26zm-2.951-5.259h.744l2.08 2.516-2.163 2.743h-.744l2.209-2.743-2.127-2.516z" id="Fill-32" fill="#FFF"/><polygon id="Fill-34" fill="#FFF" points="34.6675 22.7655 37.6345 22.7655 37.6345 23.3665 35.3065 23.3665 35.3065 25.0635 37.4095 25.0635 37.4095 25.6645 35.3065 25.6645 35.3065 27.4225 37.7095 27.4225 37.7095 28.0245 34.6675 28.0245"/><path d="M40 23.366v2.027c.255.024.503.04.766.04.774 0 1.239-.399 1.239-1.06 0-.624-.376-1.022-1.21-1.022-.21 0-.547.007-.795.015zm-.639 4.658v-5.259c.293 0 1.044-.015 1.374-.015 1.503 0 1.946.811 1.946 1.63 0 .856-.609 1.653-1.892 1.653-.211 0-.526-.008-.789-.03v2.021h-.639z" id="Fill-36" fill="#FFF"/><mask id="mask-2" fill="#fff"><use xlink:href="#path-1"/></mask><path d="M48.351 28.025h.639v-5.259h-.639v5.259zm-3.493-2.699v2.089c.203.008.391.022.631.022.864 0 1.337-.376 1.337-1.119 0-.669-.466-1.037-1.314-1.037a6.23 6.23 0 0 0-.654.045zm0-.608c.286-.022.526-.037.699-.037 1.321 0 1.945.63 1.945 1.623 0 1.104-.781 1.735-2.087 1.735-.452 0-.888-.015-1.195-.015v-5.258h.638v1.952z" id="Fill-38" fill="#FFF" mask="url(#mask-2)"/><path d="M53.6 27.423h2.665v-4.057h-1.84l-.067.94c-.128 1.809-.564 2.877-.759 3.117zm-1.27 0h.563c.217-.271.751-1.404.863-3.605l.053-1.052h3.095v4.657h.714V29h-.602v-.975h-4.085V29h-.602v-1.577z" id="Fill-40" fill="#FFF" mask="url(#mask-2)"/><path d="M62.198 23.366H60.29l-.09.992c-.308 3.343-1.014 3.772-1.84 3.666l.007-.639c.376.038 1.007-.15 1.247-3.568l.075-1.052h3.148v5.26h-.64v-4.659z" id="Fill-41" fill="#FFF" mask="url(#mask-2)"/><path d="M67.251 25.469v-2.103c-.172-.007-.487-.022-.713-.022-.819 0-1.254.48-1.254 1.104 0 .556.45.946.908 1.02h1.059zm0 .603h-.983l-1.36 1.953h-.721l1.457-2.067c-.541-.218-1.037-.721-1.037-1.472 0-.947.631-1.743 2.051-1.743.353 0 .925.023 1.232.023v5.259h-.639v-1.953z" id="Fill-42" fill="#FFF" mask="url(#mask-2)"/><polygon id="Fill-43" fill="#FFF" mask="url(#mask-2)" points="71.9068 22.7655 72.5528 22.7655 74.5278 25.4615 76.4208 22.7655 77.0288 22.7655 77.0288 28.0245 76.3898 28.0245 76.3898 23.7725 74.5278 26.3855 74.4298 26.3855 72.5448 23.7935 72.5448 28.0245 71.9068 28.0245"/><path d="M81.25 27.498c1.201 0 2.004-.916 2.004-2.104 0-1.224-.879-2.103-2.005-2.103-1.142 0-2.005.879-2.005 2.103 0 1.194.88 2.104 2.005 2.104m0-4.808c1.524 0 2.682 1.104 2.682 2.704 0 1.562-1.158 2.705-2.682 2.705-1.525 0-2.682-1.105-2.682-2.705 0-1.525 1.12-2.704 2.682-2.704" id="Fill-44" fill="#FFF" mask="url(#mask-2)"/><path d="M84.981 27.272l.353-.428c.337.4.9.654 1.329.654.683 0 1.194-.354 1.194-1.007 0-.519-.375-.858-1.028-.858h-.609v-.599h.563a.88.88 0 0 0 .871-.888c0-.569-.413-.855-.953-.855-.518 0-.88.21-1.195.585l-.375-.42c.352-.458.954-.766 1.638-.766.908 0 1.524.503 1.524 1.397 0 .443-.248.94-.758 1.202v.022c.638.121.961.64.961 1.24 0 .97-.833 1.547-1.795 1.547-.804 0-1.442-.405-1.72-.826" id="Fill-45" fill="#FFF" mask="url(#mask-2)"/><polygon id="Fill-46" fill="#FFF" mask="url(#mask-2)" points="90.1851 22.7655 93.1141 22.7655 93.1141 23.3665 90.8231 23.3665 90.8231 28.0245 90.1851 28.0245"/><path d="M94.57 25.83h1.894l-.947-2.246-.947 2.247zm.69-3.095h.549l2.26 5.289h-.682l-.676-1.593h-2.396l-.67 1.593H93l2.26-5.29z" id="Fill-47" fill="#FFF" mask="url(#mask-2)"/></g></g></g></g></svg>