<svg width="37px" height="37px" viewBox="0 0 37 37" version="1.1" xmlns="http://www.w3.org/2000/svg" xmlns:xlink="http://www.w3.org/1999/xlink"><desc>Created with Sketch.</desc><defs><circle id="path-1" cx="18.5" cy="18.5" r="18.5"/><polygon id="path-3" points="19.6540741 0.131478261 19.6540741 27.1304348 9.82725926 27.1304348 0.000444444444 27.1304348 0.000444444444 0.131478261"/></defs><g id="Page-1" stroke="none" stroke-width="1" fill="none" fill-rule="evenodd"><g id="header-copy-8" transform="translate(-1132.000000, -11.000000)"><g id="Page-1-Copy-3" transform="translate(1132.000000, 11.000000)"><g id="Page-1"><mask id="mask-2" fill="#fff"><use xlink:href="#path-1"/></mask><use id="Mask" fill="#DADADA" xlink:href="#path-1"/><g mask="url(#mask-2)"><g transform="translate(9.000000, 6.000000)"><g id="Group-3" stroke-width="1" fill="none" transform="translate(0.000000, 4.371896)"><mask id="mask-4" fill="#fff"><use xlink:href="#path-3"/></mask><path d="M5.143 19.017s-.003 0-.007.003c-.409.21-.8.446-1.172.705C1.557 21.407 0 24.095 0 27.13h19.655c0-3.028-1.552-5.71-3.947-7.393h-.004a9.642 9.642 0 0 0-1.158-.704c-.01-.006-.021-.013-.035-.016a5.963 5.963 0 0 1-2.851-3.175c2.712-1.14 5.71-4.496 5.71-8.462V.131H2.285v7.25c0 3.974 3.011 7.338 5.728 8.47a5.962 5.962 0 0 1-2.87 3.166" id="Fill-1" fill="#F1F2F2" mask="url(#mask-4)"/></g><path d="M16.14 3.169C14.498 1.236 12.003 0 9.21 0 4.252 0 .235 3.887.235 8.681c0 2.545 1.13 4.833 2.933 6.42a9.26 9.26 0 0 1-.724-3.618c0-2.083.674-3.99 1.795-5.457 1.188.496 3.114.675 5.227.402 2.094-.27 3.88-.92 4.886-1.694 1.836 1.523 3.028 3.977 3.028 6.749a9.15 9.15 0 0 1-.865 3.926c1.772-.689 3.074-3.144 3.074-6.065 0-3.126-1.493-5.705-3.447-6.175" id="Fill-4" fill="#BCBEC0"/><path d="M19.654 31.501H0c0-3.035 1.557-5.724 3.963-7.406.372-.258.764-.494 1.173-.704.004-.003.007-.003.007-.003.317-.165.619-.352.897-.565a5.46 5.46 0 0 0 3.796 1.501 5.458 5.458 0 0 0 3.788-1.498c.275.213.574.4.887.562.014.003.024.01.034.016a9.7 9.7 0 0 1 1.159.704h.004c2.395 1.682 3.946 4.364 3.946 7.393" id="Fill-6" fill="#BCBEC0"/></g></g></g></g></g></g></svg>