<svg id="Layer_1" data-name="Layer 1" xmlns="http://www.w3.org/2000/svg" xmlns:xlink="http://www.w3.org/1999/xlink" viewBox="0 0 2048 1280"><defs><linearGradient id="linear-gradient" x1="-91.4" y1="1417.22" x2="2139.4" y2="2014.96" gradientTransform="matrix(1, 0, 0, -1, 0, 2356.09)" gradientUnits="userSpaceOnUse"><stop offset="0" stop-color="#b6ea6a"/><stop offset="1" stop-color="#ffcd37"/></linearGradient></defs><title>bg</title><g id="Layer_1-2" data-name="Layer 1-2"><rect width="2048" height="1280" fill="url(#linear-gradient)"/><g opacity="0.3"><g opacity="0.15"><path d="M852.76,1079.77c-4.55-49.72-5.59-99.68-5.65-149.59C847,830,847,730,843.53,629.88q-5.34-152.19-11.15-304.36c-4-108.6-8.22-217.22-16.82-325.57h-7.63c14.52,181.51,18.2,363.92,24.89,545.83,3.42,93.1,7.19,186.22,7.08,279.4-.11,91.49-2.93,183.32,7.23,274.43,5.72,51.3,16.48,101.92,21.22,153.34.84,9.1,1.47,18.21,2,27.33h7.45c-.94-18.23-2.46-36.44-4.78-54.62C866.73,1176.94,857.25,1128.73,852.76,1079.77Z" fill="#6d9c48"/><path d="M876.52,358.37a1131.76,1131.76,0,0,0-8.54,145c.21,25.22.56,50.85,3.48,75.93,2,17.47,6.73,34.77,20.78,46.3,1.67,1.37,5,1.72,6-.78,32.49-77,33-162.2,37.33-244.41l14.61-280L955.44,0h-7.65L936.57,214.9c-4.58,87.78-7.24,175.92-14.32,263.53-3.79,47-11,93.93-28.7,137.79-11.8-12.66-14.15-30.65-15.39-47.69-1.71-23.35-2.47-46.8-2.55-70.21a1121.5,1121.5,0,0,1,8.27-137.49c5.44-45.4,11.93-91,7.3-136.76C887,183,875.94,143.16,865.78,103.3c-8.67-34-16.52-68.42-18.71-103.3h-7.69c4.56,73.73,34.56,143.94,43.4,217.39C888.46,264.56,882.18,311.49,876.52,358.37Z" fill="#6d9c48"/><path d="M1040.75,1227.38c-3.4-44.93-7-89.86-11.58-134.68q-6.84-66.49-17.4-132.44c-7.25-45.64-14.42-91.35-14.74-137.68-.32-45.53,4.54-90.85,8-136.19,3.46-45.87,4.71-91.83,4.68-137.82-.06-92.08-3.53-184.15-4.74-276.22q-1.81-136.2-1-272.35h-7.61c-.69,168.69,3,337.21,5.28,505.89.61,45.21.49,90.45-1.6,135.62-2.07,44.76-7,89.31-9.47,134a692.36,692.36,0,0,0,5.18,130c6,45.08,14.22,89.83,19.82,135,6.26,50.51,10.77,101.22,14.78,152,1.91,24.23,4.05,48.48,5.45,72.75.29,5,.48,10.08.48,15.1h7.92C1044.36,1262.49,1042,1244.35,1040.75,1227.38Z" fill="#6d9c48"/><path d="M827.69,1141.45Q820.85,1075,810.28,1009c-7.25-45.64-14.42-91.35-14.74-137.68-.32-45.53,4.54-90.85,8-136.19,3.46-45.87,4.71-91.83,4.68-137.82-.06-92.08-3.53-184.15-4.74-276.22q-2.06-157.34-.65-314.71c0-5-7.61-5-7.65,0-1.6,182.83,2.6,365.42,5.06,548.21.61,45.21.49,90.45-1.6,135.62-2.07,44.76-7,89.31-9.47,134a692.38,692.38,0,0,0,5.18,130c6,45.08,14.22,89.83,19.82,135,6.26,50.51,10.77,101.22,14.78,152,1,13,2.11,26.06,3.12,39.1h7.55q-.17-2.09-.33-4.15C835.87,1231.2,832.3,1186.27,827.69,1141.45Z" fill="#6d9c48"/><path d="M2035.06,871.32c-.32-45.53,4.54-90.85,8-136.19,3.46-45.87,4.71-91.83,4.68-137.82-.06-92.08-3.53-184.15-4.74-276.22q-2.06-157.34-.65-314.71c0-5-7.61-5-7.65,0-1.6,182.83,2.6,365.42,5.06,548.21.61,45.21.49,90.45-1.6,135.62-2.07,44.76-7,89.31-9.47,134a692.34,692.34,0,0,0,5.18,130c6,45.08,14.22,89.83,19.82,135q2.7,21.78,5,43.61v-63.29q-4.06-30.31-8.84-60.54C2042.56,963.36,2035.39,917.66,2035.06,871.32Z" fill="#6d9c48"/><path d="M984.82,1042.86C977.59,935.23,971.1,827.52,962.89,720c-4.5-58.91-10.38-117.73-20.14-176-.76-4.54-7.19-3-7.51,1-17.16,213.37-12.39,427.58-8.13,641.36l1.87,93.95h7.5C932.29,1096.23,927.37,912,933,728q2.27-74.84,7.43-149.54c13.75,95.48,18.49,192.16,25,288.34,7.13,106,15.27,212,21.13,318.1,1.75,31.78,2.87,63.6,2.61,95.4H997C997.72,1201.1,990.12,1121.65,984.82,1042.86Z" fill="#6d9c48"/><path d="M1101.31,1075.78c-3.24-84.76-26.75-166.18-42.45-249-16.88-89.06-15.6-179.29-16.26-269.57s-.86-180.33-.61-270.49q.4-143.37,2.35-286.73h-7.65q-3.5,260.73-2,521.5c.52,87.73-2.77,177,9.54,264.11,12.23,86.52,39.5,170.4,47.35,257.62,4.45,49.4,2.42,99.08-.2,148.52q-2.34,44.29-4.79,88.58h8.11C1099.21,1212.18,1103.91,1143.72,1101.31,1075.78Z" fill="#6d9c48"/><path d="M1124.65,855.38c-8.27-22.23-17-45.11-15.22-69.28,1.73-24,11.56-47.16,16.34-70.65,9-44.32,10.61-89.82,9-134.92-1.63-47.25-6.27-94.4-10.39-141.48-4.22-48.3-8.8-96.58-14.89-144.69C1097.27,197.58,1070.9,97.6,1085.95,0h-7.63c-8.3,56-3.1,112.66,5,168.87a3.49,3.49,0,0,0-2.41,3.48c.32,104.62-4.46,208.65-11.87,313-3.61,50.87-2.54,100.24,5,150.72,7.66,51.6,15.95,103.1,23.94,154.65a3.08,3.08,0,0,0,3.77,2.72,92,92,0,0,0,.69,12.22c2.84,22.6,12.09,43.59,19.68,64.85q11.05,30.93,19.15,62.83A714.34,714.34,0,0,1,1162,1066.5a723.74,723.74,0,0,1-19.1,213.85h7.85A734,734,0,0,0,1124.65,855.38ZM1081.35,634c-7.65-51.49-8.11-101.87-4.32-153.71,6.77-92.41,10.89-184.68,11.42-277.28,2.12,13.53,4.28,27,6.33,40.47,14.66,96.35,23.07,194,29.89,291.18,3.32,47.22,4.93,94.86-.48,142a449.87,449.87,0,0,1-14.36,71,251.71,251.71,0,0,0-6.58,28C1095.9,728.4,1088.37,681.21,1081.35,634Z" fill="#6d9c48"/><path d="M1219.39,1080.81c3.17-93.07,15.81-185.66,16.52-278.83.69-91.25-19.45-180.74-15.43-272.1,3.88-88.21,20.56-175.14,29.3-262.88,4.88-49,7.29-98.4,3.37-147.56-3.21-40.18-13.24-79.55-17.89-119.5h-7.57c4.08,33.65,12.12,66.78,16,100.51,5,43.41,4.6,87.25,1.54,130.78-6.24,88.81-23.43,176.4-30.31,265.15-3.42,44.14-4,88.4.11,132.52,4.3,46,11.49,91.63,12.89,137.91,2.79,92.42-9.52,184.32-14.49,276.44a1896.08,1896.08,0,0,0,2.15,237h7.65A1895.41,1895.41,0,0,1,1219.39,1080.81Z" fill="#6d9c48"/><path d="M1147.65,250.35c9.81,97.8,14,195.35,15.15,293.62q1,83.11,1.86,166.22c.06,5.08,7.08,4.79,7.65,0,12-101,23.77-202.12,33-303.41,9.43-103.48,6-207.55,5-311.31q-.48-47.76-1-95.52h-7.59c.86,76.59,1.76,153.18,2.2,229.77.3,52.53-.37,105.06-4.57,157.44-4,49.78-9.74,99.44-15,149.1q-6,56.45-12.55,112.84c-.62-76.1-1.13-152.24-3.94-228.27-3.58-96.48-17.15-192-22.69-288.3-2.54-44.2-2.76-88.56,1.61-132.57h-7.6C1131.06,83.29,1139.3,167.14,1147.65,250.35Z" fill="#6d9c48"/><path d="M1577.8,885.93c7.92-98.34,22.5-197,19.44-295.88-3.07-99.22-18.75-197.49-21.23-296.83-2.44-97.81,1.85-195.6,7-293.26h-7.65c-4.51,85.83-8.36,171.73-7.58,257.7.45,49.07,2.47,98.12,6.62,147,4.18,49.27,10.13,98.38,13.35,147.74,6.46,99.1-5.82,197-14.4,295.58-8.66,99.44-14.84,199.11-17.6,298.89q-1.84,66.68-1.51,133.39h7.7C1561.29,1148.7,1567.24,1017.09,1577.8,885.93Z" fill="#6d9c48"/><path d="M1471.84,990c3.17-43.55,2.68-88-18.53-127.35-1.65-3-6-2.09-7,.92A2184.16,2184.16,0,0,0,1383,1100q-4.74-54.91-13.55-109.35c-7.17-44-22.68-91.17-8.8-135.21a.58.58,0,0,1,.07-.34c1.53-.78,3-1.62,4.48-2.43,41.3-23,62.41-70,72.57-114.39,13.29-58,9.08-119.56,31-175.68,11.23-28.92,31.23-53.21,43.49-81.6,11.75-27.22,15.62-56.92,17.44-86.3,8.12-131,4.1-263.7-7.16-394.75h-7.76a3074.88,3074.88,0,0,1,9.76,326.35c-.72,30.36-1,61-4.42,91.21a216,216,0,0,1-28.84,87.15c-13.88,23.67-27.79,46.44-35.72,73-8.13,27.21-11.44,55.61-14.49,83.76-5.61,51.78-11.08,106.52-42.2,150.21a121.25,121.25,0,0,1-25.55,26.68,103.85,103.85,0,0,1-13.53,8.63c-13,6.93-15-3.86-15.68-14.31-2.1-30.83-.48-62,1.8-92.79,4.63-62.61,13.82-125,12.41-188-1.37-60.73-15.82-119.36-29.85-178.11-.49-2.06-1-4.12-1.44-6.19,9.14-29.14,17-58.59,21.77-89.06,14.48-92.38,7.83-185.93-2.36-278.52h-7.64c9,81.11,15.2,162.84,6.8,244.16-3.84,37.14-11.55,73.13-21.92,108.63-13.67-62.3-21.76-124.52-21.62-188.76.11-54.84,4.52-109.5,10-164h-7.54c-11,114.79-16.24,229.26,9,343.15q2.73,12.3,5.64,24.57-3.46,11-7.23,22c-16.09,47-32.61,93.36-41,142.48-16.62,97.41-8.59,196.8,4.24,294.14,13.13,99.66,30.57,198.65,36.7,299.13a1339.55,1339.55,0,0,1,.89,154.82h7.72c2-36.13,2.29-72.38,1.18-108.56-3.07-100-17.92-198.67-32.18-297.55-14.53-100.74-27.35-203.35-16-305.12,5.67-51,19-99.69,35.74-148.06,4.53-13.1,9-26.18,13.31-39.3,12.46,52.1,25.36,104.18,27.78,158,3,66.16-6.81,131.91-11.82,197.71-2.5,32.86-5.23,67.23-1.69,100.11.68,6.33,1.92,14.36,7.55,18.36A11.39,11.39,0,0,0,1352,858c-10.71,39.63.79,80.62,7.65,120.06a1448.55,1448.55,0,0,1,17.71,146.86,4.08,4.08,0,0,0,.36,1.41q-15,76.51-24.55,154h7.68a2183.05,2183.05,0,0,1,90-405.54c16.45,36,16.29,76.17,13.44,115.28-3.19,43.75-7,86.64-4.7,130.59,2.39,44.9,8.08,89.55,10.8,134.43q.76,12.61,1.17,25.24h7.61c-1.47-48.56-7.78-96.81-11-145.26C1464.72,1086.15,1468.29,1038.71,1471.84,990Z" fill="#6d9c48"/><path d="M1444.46,1054c-.48-15,2.61-48.07-13.76-56.76a3.87,3.87,0,0,0-5.76,3.32l-12.07,185.68c-2,31.31-4.09,62.64-5.17,94h7.65c1.08-31.35,3.13-62.68,5.17-94L1432,1009.68c4.06,8.06,3.89,21.14,4.24,28,.77,14.82,1,29.68,1.47,44.51l3.06,94.56,3.36,103.57h7.65l-4-124Z" fill="#6d9c48"/><path d="M1524.76,754c3.66-49.34,13.13-97.76,19.49-146.75,6.46-49.78,7-99.89,6.79-150s-.37-100.13-.1-150.2q.82-153.54,5.48-307h-7.6q-4,134.35-5.26,268.76-.63,75.24-.35,150.49c.19,50.34,1.25,100.8-2.71,151-3.81,48.2-13.81,95.56-19.54,143.52-6,50.17-7.06,100.75-8.17,151.21-2.22,100.77-6.37,201.47-11.8,302.12q-3,56.62-6.57,113.2h7.69c7.68-125.68,14.15-251.42,17.43-377.3C1520.83,853.3,1521.09,803.53,1524.76,754Z" fill="#6d9c48"/><path d="M1424.22,449.16C1476.8,411.83,1475.81,338,1477.6,280q4-130-2.34-260-.48-10-.84-20h-7.24c.4,12.73.72,25.36,1.25,37.71q3.34,76.94,3,154c-.18,47.9,0,96.38-4.16,144.13-3.33,37.8-12.26,79.13-43.1,103.75-46.64-142-13.36-294.14-37.5-439.56H1379c25.1,147.84-10,302.67,39.57,446.91C1419.34,449,1422.07,450.69,1424.22,449.16Z" fill="#6d9c48"/><path d="M1674.92,852.56c6-94.38,8.32-189.22-2.22-283.36-10.78-96.27-28.36-191-32.48-288-4-93.63-4.15-187.49-4.94-281.24h-7.61c.81,82,1.34,164,3.66,245.94,1.4,49.53,4.1,99,9.86,148.25,5.44,46.49,13.15,92.66,19.39,139,25.66,190.84-1.44,380.39-11.11,571.25-3,58.57-3.88,117.35-.6,175.85h7.64C1648.55,1138,1665.85,994.58,1674.92,852.56Z" fill="#6d9c48"/><path d="M1735.57,1130.31c1.32-94.81,8.43-189.41,14.47-284,6.06-94.79,11.19-189.79,8.72-284.81-2.4-92.65-14.69-183.87-30.23-275.1-16.18-95-33.81-190.07-38.37-286.45h-7.69c8.22,177.8,59.44,350.79,67.48,528.85,8.67,192-16.62,383.21-21.5,574.93-1.5,58.83-.89,118,5.21,176.56h7.68C1736.1,1230.56,1734.87,1180.34,1735.57,1130.31Z" fill="#6d9c48"/><path d="M1801.23,1209.87q-1.6-67.72-2.36-135.46c-1.12-91.17-1.47-182.36-2.19-273.53-1.42-178.89.16-359.64-23.9-537.23-11.86-87.52-28.41-175.24-26-263.7h-7.61c-2,75,9.43,149.6,20.28,223.72,13.54,92.49,21.11,185.15,24.37,278.57,6.44,184.67,5.14,369.54,7.22,554.29q.86,76.68,2.57,153.35.83,35.21,2,70.41h7.61v-1.42Q1802,1244.37,1801.23,1209.87Z" fill="#6d9c48"/><path d="M1876.23,1047.39c1.25-31.54,4.25-63.83-8.62-93.5-2-4.53-8.56-.61-6.61,3.89,13.74,31.65,8.41,68.75,7.08,102.28l-4.33,108.88-4.42,111.36H1867l4.83-121.49Z" fill="#6d9c48"/><path d="M2008.36,1119.59q2.62-167.76,5.28-335.52c.4-25.54,1.74-51.24,0-76.75-1.64-23.66-5-47.17-7.15-70.78-2.19-23.46-3-46.78.3-70.18,3.23-22.93,9.57-45.21,14.6-67.77,9.6-43.11,9.77-87.41,9.14-131.39-.66-46.26-3.4-92.47-6.94-138.58-5.86-76.32-14.33-152.42-21-228.66H1995c5.64,63.82,12.49,127.53,18,191.36,4.07,47.5,7.52,95.07,9.16,142.72,1.54,44.55,3.54,90.94-2.89,135.19-5.6,38.58-18.46,75.49-21.64,114.24.59-73.26.3-146.53-1.51-219.78-1.21-48.92-2.25-98.08-6.08-146.88-3-38.75-10.05-78-33.14-110.12a3.86,3.86,0,0,0-7.13,1.94c-11.19,127.69-23.56,255.34-32.93,383.18q-6.93,94.5-9.44,189.25-1.21,46.68-1.31,93.38c-.06,27.15,1.31,54.54-.75,81.64-1.82,24-6.75,50.1-23.08,68.67-8.18,9.3-20,18-33,17.49-22.65-1-18.8-30.14-17.81-45.76,3.84-61,16.25-121.06,18.81-182.3,5.06-120.81-11.33-241.1-27-360.57C1807.81,236.42,1793,118.19,1798.79,0h-7.65c-11.83,239.23,61.39,474.63,51.35,714.22-2.74,65.29-17.21,129.43-19.43,194.65-.69,20.2,4.91,42.64,29.48,41,19.71-1.32,36.06-17.62,45.16-34.1,24.35-44.06,15.73-103.27,16-151.39q.48-101,6.13-201.81c8.11-144.82,22.88-289.34,35.74-433.82a2040.79,2040.79,0,0,1-10.25,520.93c-6.23,42-12.61,83.89-14.92,126.32-2.4,44.09-1.63,88.27-.84,132.4.77,43.29,1.59,86.63-.54,129.89-2.19,44.37-8.55,88.15-16.74,131.77-6.88,36.63-14.67,73.36-20.9,110.27h7.74c4.79-28.27,10.49-56.44,16-84.5,7.94-40.63,15.41-81.42,19.16-122.69,4-43.95,4.11-88.14,3.49-132.23-.6-43.33-1.93-86.66-1-130,1-45.93,5.82-91.22,12.57-136.63,12.71-85.48,22.1-171.07,25-257.51A2029.54,2029.54,0,0,0,1963.8,134.2c11.75,25.68,16.24,54.19,18.46,82.6,3.35,42.89,4.39,86.07,5.61,129.07,2.49,88.22,2.7,176.5,1.75,264.74-1.92,177.48-8.56,354.87-10.85,532.35q-.89,68.66-.72,137.32h7.66c-.38-125.6,2.53-251.21,5.62-376.77,2.36-95.9,4.79-191.83,5.88-287.77,2,41.69,10.14,82.87,9.48,124.77l-5.28,335.65c-1.07,68-2.5,136.1-1.41,204.12h7.68C2006.82,1226.73,2007.52,1173.13,2008.36,1119.59Z" fill="#6d9c48"/><path d="M1843.27,289.15c-2.35,36.56-5.22,73.21,3.93,109.11.89,3.49,5.15,3.43,7,.92,41.69-56.64,46.88-129.27,53.75-197l12.72-125.47c2.12-20.91,4.13-41.84,6.36-62.73.47-4.35,1.07-9.15,2-14h-7.47c-1.56,8.42-2.43,16.82-3.16,24l-14,138c-7.64,75.34-8.29,160.88-51.65,225.93-7.12-35-3.44-70.71-1.33-106.18q3.48-58.44,2.07-117A1407.9,1407.9,0,0,0,1839.66,0H1832a1399.43,1399.43,0,0,1,14,174.74Q1847,232,1843.27,289.15Z" fill="#6d9c48"/><path d="M1377.54,749.88a3.87,3.87,0,0,0,7,.92c37-55.52,49.86-121.78,55.27-187.36,1.42-17.16,2.33-34.37,3.06-51.57.53-12.4,2.21-26-5.86-36.53-15.21-19.74-43.76-11.44-50.68,10.85a3.6,3.6,0,0,0,0,2.28,3.48,3.48,0,0,0-.36,2c4.26,46.67,8.7,94.17,1.42,140.78C1381.23,670.49,1364.08,710.26,1377.54,749.88Zm16.06-259.44a1.74,1.74,0,0,1,.1-2.2c6.16-19.82,32.58-21.89,40.27-2.25,4.51,11.51,1.16,28.76.55,40.88-1.32,26.2-3.23,52.42-7,78.39-6.81,47.3-19.81,93.65-45,134.37-9-38.7,9-78.63,13.65-117.06,5.43-43.94,1.43-88.26-2.57-132.13Z" fill="#6d9c48"/></g></g><g opacity="0.3"><g opacity="0.15"><path d="M767.27,871.32c-.32-45.53,4.54-90.85,8-136.19,3.46-45.87,4.71-91.83,4.68-137.82-.06-92.08-3.53-184.15-4.74-276.22q-2.06-157.34-.65-314.71c0-5-7.61-5-7.65,0-1.6,182.83,2.6,365.42,5.06,548.21.61,45.21.49,90.45-1.6,135.62-2.07,44.76-7,89.31-9.47,134a692.34,692.34,0,0,0,5.18,130c6,45.08,14.22,89.83,19.82,135q2.7,21.78,5,43.61v-63.29q-4.06-30.31-8.84-60.54C774.76,963.36,767.59,917.66,767.27,871.32Z" fill="#6d9c48"/><path d="M310,885.93c7.92-98.34,22.5-197,19.44-295.88-3.07-99.22-18.75-197.49-21.23-296.83-2.44-97.81,1.85-195.6,7-293.26h-7.65C303,85.78,299.18,171.68,300,257.65c.45,49.07,2.47,98.12,6.62,147C310.8,453.92,316.75,503,320,552.39c6.46,99.1-5.82,197-14.4,295.58-8.66,99.44-14.84,199.11-17.6,298.89q-1.84,66.68-1.51,133.39h7.7C293.49,1148.7,299.45,1017.09,310,885.93Z" fill="#6d9c48"/><path d="M204,990c3.17-43.55,2.68-88-18.53-127.35-1.65-3-6-2.09-7,.92A2184.14,2184.14,0,0,0,115.16,1100q-4.74-54.91-13.55-109.35c-7.17-44-22.68-91.17-8.8-135.21a.58.58,0,0,1,.07-.34c1.53-.78,3-1.62,4.48-2.43,41.3-23,62.41-70,72.57-114.39,13.29-58,9.08-119.56,31-175.68,11.27-28.92,31.22-53.21,43.49-81.62,11.75-27.22,15.62-56.92,17.44-86.3C270,263.68,266,131,254.7-.07h-7.8a3074.88,3074.88,0,0,1,9.76,326.35c-.72,30.36-1,61-4.42,91.21a216,216,0,0,1-28.84,87.15c-13.88,23.67-27.79,46.44-35.72,73-8.13,27.21-11.44,55.61-14.49,83.76-5.61,51.78-11.08,106.52-42.2,150.21a121.25,121.25,0,0,1-25.55,26.68,103.86,103.86,0,0,1-13.53,8.63c-13,6.93-15-3.86-15.68-14.31-2.1-30.83-.48-62,1.8-92.79,4.63-62.61,13.82-125,12.41-188-1.37-60.73-15.82-119.36-29.85-178.11-.49-2.06-1-4.12-1.44-6.19,9.14-29.14,17-58.59,21.77-89.06C95.4,186.1,88.75,92.55,78.56,0H70.92c9,81.11,15.2,162.84,6.8,244.16C73.88,281.3,66.17,317.29,55.8,352.79,42.13,290.44,34,228.23,34.18,164c.11-54.84,4.52-109.5,10-164H36.63c-11,114.79-16.24,229.26,9,343.15q2.73,12.3,5.64,24.57-3.46,11-7.23,22c-16,46.94-32.6,93.36-41,142.47C-13.56,629.6-5.53,729,7.3,826.33,20.43,926,37.86,1025,44,1125.46a1339.56,1339.56,0,0,1,.89,154.82H52.6c2-36.13,2.29-72.38,1.18-108.56C50.71,1071.72,35.86,973,21.6,874.17,7.07,773.43-5.74,670.82,5.55,569c5.67-51,19-99.69,35.74-148.06,4.53-13.1,9-26.18,13.31-39.3,12.46,52.1,25.36,104.18,27.78,158,3,66.16-6.81,131.91-11.82,197.71-2.5,32.86-5.23,67.23-1.69,100.11.68,6.33,1.92,14.36,7.55,18.36a11.39,11.39,0,0,0,7.7,2.18c-10.71,39.63.79,80.62,7.65,120.06a1448.55,1448.55,0,0,1,17.71,146.86,4.08,4.08,0,0,0,.36,1.41q-15,76.51-24.55,154H93a2183,2183,0,0,1,90-405.54c16.45,36,16.29,76.17,13.44,115.28-3.19,43.75-7,86.64-4.7,130.59,2.39,44.9,8.08,89.55,10.8,134.43q.76,12.61,1.17,25.24h7.61c-1.47-48.56-7.78-96.81-11-145.26C196.93,1086.15,200.5,1038.71,204,990Z" fill="#6d9c48"/><path d="M176.66,1054c-.48-15,2.61-48.07-13.76-56.76a3.88,3.88,0,0,0-5.76,3.32l-12.07,185.68c-2,31.31-4.09,62.64-5.17,94h7.65c1.08-31.35,3.13-62.68,5.17-94l11.49-176.61c4.06,8.06,3.89,21.14,4.24,28,.77,14.82,1,29.68,1.47,44.51L173,1176.7l3.36,103.57H184l-4-124Z" fill="#6d9c48"/><path d="M257,754c3.66-49.34,13.13-97.76,19.49-146.75,6.46-49.78,7-99.89,6.79-150s-.37-100.13-.1-150.2Q284,153.43,288.62,0H281q-4,134.3-5.24,268.71-.63,75.24-.35,150.49c.19,50.34,1.25,100.8-2.71,151-3.81,48.2-13.81,95.56-19.54,143.52-6,50.17-7.06,100.75-8.17,151.21-2.22,100.77-6.37,201.47-11.8,302.12q-3.05,56.62-6.57,113.2h7.69c7.68-125.68,14.15-251.42,17.43-377.3C253,853.3,253.29,803.53,257,754Z" fill="#6d9c48"/><path d="M156.42,449.16C209,411.83,208,338,209.8,280q4-130-2.34-260-.48-10-.84-20h-7.24c.4,12.73.72,25.36,1.25,37.71q3.34,76.94,3,154c-.18,47.9,0,96.38-4.16,144.13-3.33,37.8-12.26,79.13-43.1,103.75C109.73,297.54,143,145.4,118.87,0h-7.68c25.1,147.84-10,302.67,39.57,446.91C151.54,449,154.27,450.69,156.42,449.16Z" fill="#6d9c48"/><path d="M407.13,852.56c6-94.38,8.32-189.22-2.22-283.36-10.78-96.27-28.36-191-32.48-288-4-93.63-4.15-187.49-4.94-281.24h-7.61c.81,82,1.34,164,3.66,245.94,1.4,49.53,4.1,99,9.86,148.25,5.44,46.49,13.15,92.66,19.39,139,25.66,190.84-1.44,380.39-11.11,571.25-3,58.57-3.88,117.35-.6,175.85h7.64C380.75,1138,398.06,994.58,407.13,852.56Z" fill="#6d9c48"/><path d="M467.78,1130.31c1.32-94.81,8.43-189.41,14.47-284,6.06-94.79,11.19-189.79,8.72-284.81-2.4-92.65-14.69-183.87-30.23-275.1C444.55,191.4,426.93,96.32,422.37,0h-7.69c8.22,177.8,59.44,350.79,67.48,528.85,8.67,192-16.62,383.21-21.5,574.93-1.5,58.83-.89,118,5.21,176.56h7.68C468.31,1230.56,467.08,1180.34,467.78,1130.31Z" fill="#6d9c48"/><path d="M533.43,1209.87q-1.6-67.72-2.36-135.46c-1.12-91.17-1.47-182.36-2.19-273.53C527.46,622,529,441.24,505,263.65,493.12,176.13,476.57,88.41,479,0h-7.61c-2,75,9.43,149.6,20.28,223.72,13.54,92.49,21.11,185.15,24.37,278.57,6.44,184.67,5.14,369.54,7.22,554.29q.86,76.68,2.57,153.35.83,35.21,2,70.41h7.61v-1.42Q534.24,1244.37,533.43,1209.87Z" fill="#6d9c48"/><path d="M608.44,1047.39c1.25-31.54,4.25-63.83-8.62-93.5-2-4.53-8.56-.61-6.61,3.89,13.74,31.65,8.41,68.75,7.08,102.28L596,1168.93l-4.42,111.36h7.65L604,1158.8Z" fill="#6d9c48"/><path d="M740.57,1119.59q2.62-167.76,5.28-335.52c.4-25.54,1.74-51.24,0-76.75-1.64-23.66-5-47.17-7.15-70.78-2.19-23.46-3-46.78.3-70.18,3.23-22.93,9.57-45.21,14.6-67.77,9.6-43.11,9.77-87.41,9.14-131.39-.66-46.26-3.4-92.47-6.94-138.58C749.9,152.3,741.43,76.2,734.73,0h-7.61c5.64,63.82,12.49,127.53,18,191.36,4.07,47.5,7.52,95.07,9.16,142.72,1.54,44.55,3.54,90.94-2.89,135.19-5.6,38.58-18.46,75.49-21.64,114.24.59-73.26.3-146.53-1.51-219.78-1.21-48.92-2.25-98.08-6.08-146.88-3-38.75-10-78-33.14-110.12a3.86,3.86,0,0,0-7.13,1.94c-11.23,127.64-23.6,255.33-33,383.13Q642,586.3,639.48,681q-1.21,46.68-1.31,93.38c-.06,27.15,1.31,54.54-.75,81.64-1.82,24-6.75,50.1-23.08,68.67-8.18,9.3-20,18-33,17.49-22.65-1-18.8-30.14-17.81-45.76,3.84-61,16.25-121.06,18.81-182.3,5.06-120.81-11.33-241.1-27-360.57C540,236.42,525.14,118.19,531,0h-7.65c-11.83,239.23,61.39,474.63,51.35,714.22-2.74,65.29-17.21,129.43-19.43,194.65-.69,20.2,4.91,42.64,29.48,41,19.71-1.32,36.06-17.62,45.16-34.1,24.35-44.06,15.73-103.27,16-151.39q.48-101,6.13-201.81c8.11-144.82,22.88-289.34,35.74-433.82a2040.79,2040.79,0,0,1-10.25,520.93c-6.23,42-12.61,83.89-14.92,126.32-2.4,44.09-1.63,88.27-.84,132.4.77,43.29,1.59,86.63-.54,129.89-2.19,44.37-8.55,88.15-16.74,131.77-6.88,36.63-14.67,73.36-20.9,110.27h7.74c4.79-28.27,10.49-56.44,16-84.5,7.94-40.63,15.41-81.42,19.16-122.69,4-43.95,4.11-88.14,3.49-132.23-.6-43.33-1.93-86.66-1-130,1-45.93,5.82-91.22,12.57-136.63,12.71-85.48,22.1-171.07,25-257.51A2029.54,2029.54,0,0,0,696,134.2c11.75,25.68,16.24,54.19,18.46,82.6,3.35,42.89,4.39,86.07,5.61,129.07,2.49,88.22,2.7,176.5,1.75,264.74C719.89,788.09,713.26,965.48,711,1143q-.89,68.66-.72,137.32h7.66c-.38-125.6,2.53-251.21,5.62-376.77,2.36-95.9,4.79-191.83,5.88-287.77,2,41.69,10.14,82.87,9.48,124.77l-5.28,335.65c-1.07,68-2.5,136.1-1.41,204.12h7.68C739,1226.73,739.73,1173.13,740.57,1119.59Z" fill="#6d9c48"/><path d="M575.48,289.15c-2.35,36.56-5.22,73.21,3.93,109.11.89,3.49,5.15,3.43,7,.92,41.69-56.64,46.88-129.27,53.75-197L652.88,76.69C655,55.78,657,34.86,659.24,14c.47-4.35,1.07-9.15,2-14h-7.47c-1.56,8.42-2.43,16.82-3.16,24l-14,138C629,237.34,628.32,322.88,585,387.93c-7.12-35-3.44-70.71-1.33-106.18q3.48-58.44,2.07-117A1407.88,1407.88,0,0,0,571.87,0h-7.68a1399.44,1399.44,0,0,1,14,174.74Q579.19,232,575.48,289.15Z" fill="#6d9c48"/><path d="M109.75,749.88a3.87,3.87,0,0,0,7,.92C153.7,695.27,166.59,629,172,563.44c1.42-17.16,2.33-34.37,3.06-51.57.53-12.4,2.21-26-5.86-36.53-15.2-19.74-43.75-11.44-50.67,10.85a3.6,3.6,0,0,0,0,2.28,3.48,3.48,0,0,0-.36,2c4.26,46.67,8.7,94.17,1.42,140.78C113.43,670.49,96.29,710.26,109.75,749.88Zm16.06-259.44a1.74,1.74,0,0,1,.1-2.2c6.16-19.82,32.58-21.89,40.27-2.25,4.51,11.51,1.16,28.76.55,40.88-1.32,26.2-3.23,52.42-7,78.39-6.81,47.3-19.81,93.65-45,134.37-9-38.7,9-78.63,13.65-117.06C133.8,578.63,129.81,534.31,125.81,490.44Z" fill="#6d9c48"/></g></g><path d="M1758.95,182.59l.45,6.52a5.74,5.74,0,0,1-5.33,6.12l-15.64,1.09h0l-1.25-18h0l15.64-1.09a5.74,5.74,0,0,1,6.13,5.32Z" fill="#fff" opacity="0.85" style="isolation:isolate"/><polygon points="1569.06 208.94 1567.42 185.37 1736.87 174.9 1738.51 198.47 1569.06 208.94" fill="#316631" opacity="0.75" style="isolation:isolate"/><polygon points="1528.83 200.16 1529.14 202.43 1545.38 205.01 1544.71 194.22 1528.83 200.16" fill="#383a3a" opacity="0.75" style="isolation:isolate"/><polygon points="1568.39 185.37 1544.71 194.22 1545.38 205.01 1570.03 208.94 1568.39 185.37" fill="#fff" opacity="0.85" style="isolation:isolate"/><g opacity="0.7"><path d="M415.78,1119.45l2.57,13.46s198.51-50.15,225.43-34.08,56.48,44.25,65.35,41.2c3.33-1.14,4.1-5,3.8-9.29a26.62,26.62,0,0,0-13.79-21.23l-35.75-19.84a74.73,74.73,0,0,0-50.41-8C553.72,1093.15,416.18,1119.73,415.78,1119.45Z" fill="#316631"/><path d="M677.32,1057.17l4,13.11s-199.21,47.4-215.66,74.1-29.58,65.36-38.86,66.77c-3.47.52-6-2.46-7.67-6.48a26.62,26.62,0,0,1,2.41-25.2L444,1145.38A74.73,74.73,0,0,1,485,1115C542.83,1097.7,677.06,1057.59,677.32,1057.17Z" fill="#316631"/><path d="M418.79,1128.06l-7.88,2.84a2.82,2.82,0,0,1-3.61-1.7h0a2.82,2.82,0,0,1,1.7-3.61h0l7.88-2.84a2.82,2.82,0,0,1,1.91,5.31Z" fill="#383a3a"/><path d="M679,1053.06l-44.25-.7c-61.54,2.06-79.49,42-79.49,42-1.78,0-7.68,1.4-12.53,2.68-4.92,1.11-10.78,2.57-12.35,3.43,0,0-34.42-27.11-89.93-.44l-38.89,21.09a4.25,4.25,0,0,0-2.08,4.72l2.69,10.95a4.25,4.25,0,0,0,5.13,3.11l7.19-1.76s24,70.48,77.11,54.5c0,0,52-12.69,49.7-75.79,0,0,.65-3,5-5.35,5,.11,6.92,2.46,6.92,2.46,27.17,57,79.13,44.18,79.13,44.18,54.45-10.42,43.13-84,43.13-84l7.19-1.76a4.25,4.25,0,0,0,3.11-5.13l-2.74-11A4.25,4.25,0,0,0,679,1053.06Zm-149.42,71.4a55.87,55.87,0,0,1-19.8,43.83,64.31,64.31,0,0,1-21.31,12.19l-.26.07-.31.09c-.82.24-1.58.45-2.36.65-16.18,4-31.08-1.55-43.34-18.55-14-19.48-15.37-41.06-9.88-44l13.78-7.47a112.44,112.44,0,0,1,21.53-7.82c34.21-8.39,54.73,6.79,54.91,6.94a18.2,18.2,0,0,1,7.06,14.13Zm132.6-15.69c-3,20.74-13.66,32.53-29.84,36.5-.78.19-1.58.37-2.38.52l-.32.06-.26.07a64.31,64.31,0,0,1-24.5-1A55.78,55.78,0,0,1,567,1115.23a18.2,18.2,0,0,1-.34-15.75c.11-.23,11.28-23.18,45.47-31.57a112.44,112.44,0,0,1,22.7-3l15.67.25c6.25.11,15.09,19.85,11.65,43.61Z" fill="#316631"/><path d="M467.72,1103.44a112.44,112.44,0,0,0-21.53,7.82l-13.78,7.47c-5.5,3-4.18,24.59,9.88,44,12.29,17,27.17,22.52,43.34,18.55.78-.19,1.57-.41,2.36-.65l.31-.09.26-.07a64.31,64.31,0,0,0,21.31-12.19c17.14-14.68,19.88-33,19.8-43.83a18.2,18.2,0,0,0-7-14.12C522.43,1110.21,502,1095.06,467.72,1103.44Z" fill="#f1f0ef" opacity="0.7" style="isolation:isolate"/><path d="M650.6,1065.23l-15.67-.25a112.44,112.44,0,0,0-22.7,3c-34.21,8.39-45.38,31.34-45.47,31.57a18.2,18.2,0,0,0,.34,15.75,55.93,55.93,0,0,0,37.83,29.76,64.31,64.31,0,0,0,24.5,1l.26-.07.32-.06c.82-.16,1.64-.33,2.38-.52,16.18-4,26.83-15.76,29.84-36.5C665.67,1085.06,656.83,1065.3,650.6,1065.23Z" fill="#f1f0ef" opacity="0.7" style="isolation:isolate"/><path d="M677.71,1062.89h0a2.82,2.82,0,0,1-2.41,3.18h0l-8.3,1.13a2.82,2.82,0,1,1-.76-5.59h0l8.29-1.13a2.82,2.82,0,0,1,3.18,2.41h0Z" fill="#383a3a"/><path d="M413.25,1124.65l-3.73.92a2.76,2.76,0,0,0-2,3.34h0a2.76,2.76,0,0,0,3.34,2h0l3.73-.92a2.76,2.76,0,0,0,2-3.34h0A2.76,2.76,0,0,0,413.25,1124.65Z" fill="#f1f0ef"/><path d="M676.57,1060.06l-3.73.92a2.76,2.76,0,0,0-2,3.34h0a2.76,2.76,0,0,0,3.34,2h0l3.73-.92a2.76,2.76,0,0,0,2-3.34h0A2.76,2.76,0,0,0,676.57,1060.06Z" fill="#f1f0ef"/></g></g></svg>