<svg id="Layer_1" data-name="Layer 1" xmlns="http://www.w3.org/2000/svg" viewBox="0 0 2048 1280"><title>bg_intro</title><rect width="2048" height="1280" fill="#b4e86a"/><g id="Layer_1-2" data-name="Layer 1"><g opacity="0.7"><polygon points="1499.7 318.28 1054.16 318.28 949.01 318.28 503.47 318.28 524 338.81 1001.58 338.79 1479.17 338.81 1499.7 318.28" fill="#86bd41" opacity="0.4" style="isolation:isolate"/><rect x="838.66" y="811.74" width="37.11" height="123.76" fill="#86bd41" opacity="0.55" style="isolation:isolate"/><rect x="838.66" y="907.8" width="37.11" height="6.44" fill="#86bd41"/><rect x="857.21" y="907.8" width="18.56" height="6.44" fill="#86bd41"/><rect x="838.66" y="825.77" width="37.11" height="6.45" fill="#86bd41"/><rect x="857.21" y="825.77" width="18.56" height="6.45" fill="#86bd41"/><rect x="806.81" y="852.91" width="151.75" height="13.49" transform="translate(21.49 1740.83) rotate(-89.9)" fill="#95cd4e"/><rect x="850.79" y="855.52" width="63.82" height="6.75" transform="translate(22.73 1740.55) rotate(-89.93)" fill="#86bd41"/><polygon points="885.98 890.76 882.6 890.75 882.73 826.94 886.1 826.95 885.98 890.76" fill="#86bd41"/><polygon points="889.33 901.46 875.83 901.44 875.82 909.34 889.32 909.36 889.33 901.46" fill="#86bd41"/><rect x="882.02" y="902.06" width="7.9" height="6.75" transform="translate(-21.16 1789.66) rotate(-89.89)" fill="#86bd41"/><rect x="820.37" y="852.9" width="151.75" height="13.5" transform="translate(35.04 1754.4) rotate(-89.9)" fill="#86bd41" opacity="0.28" style="isolation:isolate"/><rect x="864.35" y="855.52" width="63.82" height="6.75" transform="translate(36.27 1754.11) rotate(-89.93)" fill="#86bd41"/><rect x="866" y="857.16" width="63.81" height="3.38" transform="translate(37.02 1754.81) rotate(-89.87)" fill="#86bd41"/><rect x="892.23" y="898.72" width="7.9" height="13.5" transform="translate(-10.54 1800.38) rotate(-89.92)" fill="#86bd41"/><rect x="895.59" y="902.06" width="7.9" height="6.75" transform="translate(-7.62 1803.23) rotate(-89.89)" fill="#86bd41"/><rect x="983.82" y="819.34" width="28.82" height="7.33" fill="#86bd41"/><rect x="998.24" y="819.34" width="14.41" height="7.33" fill="#86bd41"/><rect x="595.35" y="585.43" width="43.93" height="148.41" fill="#86bd41" opacity="0.28" style="isolation:isolate"/><rect x="595.35" y="703.38" width="43.93" height="7.77" fill="#86bd41"/><rect x="617.32" y="703.38" width="21.97" height="7.77" fill="#86bd41"/><rect x="595.35" y="604.45" width="43.93" height="7.77" fill="#86bd41"/><rect x="617.32" y="604.45" width="21.97" height="7.77" fill="#86bd41"/><rect x="556.35" y="634.73" width="182.17" height="15.97" transform="translate(3.48 1288.91) rotate(-89.89)" fill="#86bd41" opacity="0.55" style="isolation:isolate"/><rect x="608.97" y="638.28" width="76.97" height="7.99" transform="translate(3.71 1288.27) rotate(-89.87)" fill="#86bd41" opacity="0.6" style="isolation:isolate"/><rect x="572.4" y="634.73" width="182.17" height="15.97" transform="translate(19.5 1304.96) rotate(-89.89)" fill="#86bd41" opacity="0.28" style="isolation:isolate"/><rect x="625.03" y="638.27" width="76.97" height="7.99" transform="translate(19.74 1304.32) rotate(-89.87)" fill="#86bd41" opacity="0.6" style="isolation:isolate"/><polygon points="595.35 731.69 564.82 734.77 550.87 601.76 581.41 598.69 595.35 731.69" fill="#86bd41" opacity="0.28" style="isolation:isolate"/><polygon points="592.22 701.86 561.69 704.93 562.41 711.85 592.95 708.78 592.22 701.86" fill="#86bd41"/><polygon points="592.22 701.86 576.95 703.39 577.68 710.32 592.95 708.78 592.22 701.86" fill="#86bd41"/><polygon points="593.12 710.42 562.59 713.48 562.89 716.38 593.42 713.31 593.12 710.42" fill="#86bd41"/><polygon points="593.12 710.42 577.85 711.95 578.16 714.84 593.42 713.31 593.12 710.42" fill="#86bd41"/><polygon points="583.81 621.6 553.27 624.68 554 631.59 584.54 628.52 583.81 621.6" fill="#86bd41"/><polygon points="697.37 734.22 682.03 732.65 700.84 556.84 716.18 558.41 697.37 734.22" fill="#86bd41" opacity="0.28" style="isolation:isolate"/><g opacity="0.6"><polygon points="699.08 682 691.41 681.22 699.32 607.28 706.99 608.07 699.08 682" fill="#86bd41"/></g><g opacity="0.6"><path d="M1295.61,252.67a47.58,47.58,0,0,0-32.37-45l-3.13,5.71a40.8,40.8,0,0,1,4.25,1.53l-3.43,6.4a34,34,0,0,0-22.74-1c-.83.25-1.68.55-2.53.89a33.85,33.85,0,0,0-21.5,32.77,22.94,22.94,0,0,0,.2,2.67A33.9,33.9,0,0,0,1229,280.85l-3.35,6.24a41.38,41.38,0,0,1-5.29-4.1l-3.33,5.57a47.41,47.41,0,0,0,21.84,10.71v7.25c-10.33,1.93-17.63,6.61-17.63,11.71h55.9c0-5.14-7.41-9.85-17.85-11.75v-7.64A47.59,47.59,0,0,0,1295.61,252.67Zm-59.48,31.91a34,34,0,0,0,21.9.67c.82-.25,1.65-.54,2.53-.89A33.87,33.87,0,0,0,1282,251.57a21.37,21.37,0,0,0-.2-2.67,33.87,33.87,0,0,0-13.94-23.73l3.42-6.4a41.11,41.11,0,0,1-38.54,72.07Z" fill="#86bd41"/></g><polygon points="1157.41 295.91 1159.17 295.08 1159.17 284.04 1159.12 283.14 1163.95 282.87 1163.95 280.96 1163.92 280.95 1163.92 259.6 1146.84 259.84 1078.96 259.84 1078.96 259.84 1055.7 259.84 1055.7 259.84 1045.72 259.84 1045.72 264.08 1045.72 285.47 1041.46 285.47 1041.46 300.66 1044.13 300.66 1044.36 301.84 1042.88 302.55 1042.88 318.21 1164.4 318.24 1164.4 316.28 1166.29 314.13 1166.29 295.91 1157.41 295.91" fill="#86bd41" opacity="0.4" style="isolation:isolate"/><rect x="551" y="402.3" width="34.42" height="128.91" fill="#86bd41" opacity="0.45" style="isolation:isolate"/><rect x="556.63" y="423.4" width="23.15" height="3.45" fill="#86bd41"/><rect x="556.63" y="431.17" width="23.15" height="3.45" fill="#86bd41"/><rect x="585.42" y="430.8" width="20.72" height="100.42" fill="#86bd41" opacity="0.28" style="isolation:isolate"/><rect x="606.52" y="430.8" width="20.72" height="100.42" fill="#86bd41" opacity="0.28" style="isolation:isolate"/><rect x="627.61" y="430.8" width="20.72" height="100.42" fill="#86bd41" opacity="0.28" style="isolation:isolate"/><circle cx="595.78" cy="445.6" r="5.18" fill="#86bd41"/><rect x="590.48" y="454.85" width="10.61" height="1.23" fill="#86bd41"/><circle cx="616.88" cy="445.6" r="5.18" fill="#86bd41"/><rect x="611.57" y="454.85" width="10.61" height="1.23" fill="#86bd41"/><circle cx="637.97" cy="445.6" r="5.18" fill="#86bd41"/><rect x="632.67" y="454.85" width="10.61" height="1.23" fill="#86bd41"/><g opacity="0.34"><rect x="654.46" y="512.82" width="113.3" height="18.34" fill="#86bd41" opacity="0.55" style="isolation:isolate"/><rect x="690.56" y="492.72" width="77.2" height="20.1" fill="#95cd4e"/><rect x="690.56" y="472.61" width="77.2" height="20.1" fill="#86bd41" opacity="0.55" style="isolation:isolate"/></g><rect x="985.35" y="620.14" width="13.5" height="113.3" fill="#86bd41"/><rect x="999.33" y="634.45" width="13.5" height="98.99" fill="#86bd41"/><rect x="964.53" y="665.24" width="11.06" height="11.06" transform="translate(-190.18 882.4) rotate(-45)" fill="#86bd41"/><rect x="761.58" y="798.05" width="38.43" height="136.78" fill="#86bd41"/><rect x="780.8" y="798.05" width="19.22" height="136.78" fill="#95cd4e"/><rect x="761.58" y="852.26" width="38.43" height="42.25" fill="#86bd41"/><rect x="780.8" y="863.04" width="19.22" height="31.46" fill="#86bd41"/><rect x="761.58" y="904.13" width="38.43" height="7.12" fill="#86bd41"/><rect x="803.06" y="812.22" width="28.82" height="122.61" fill="#86bd41"/><rect x="817.48" y="812.22" width="14.41" height="122.61" fill="#86bd41" opacity="0.28" style="isolation:isolate"/><rect x="803.06" y="907.33" width="28.82" height="6.38" fill="#86bd41"/><rect x="817.48" y="907.33" width="14.41" height="6.38" fill="#86bd41"/><rect x="803.06" y="833.34" width="28.82" height="6.38" fill="#86bd41"/><rect x="817.48" y="833.34" width="14.41" height="6.38" fill="#86bd41"/><rect x="803.06" y="864.31" width="28.82" height="18.44" fill="#86bd41"/><rect x="817.48" y="864.31" width="14.41" height="18.44" fill="#86bd41"/><rect x="550.45" y="819.31" width="17.36" height="115.99" fill="#95cd4e"/><polygon points="585.16 795.17 567.8 795.17 567.8 935.29 585.16 935.29 602.52 935.29 602.52 795.17 585.16 795.17" fill="#86bd41" opacity="0.45" style="isolation:isolate"/><rect x="602.52" y="784.59" width="17.36" height="150.71" fill="#86bd41" opacity="0.28" style="isolation:isolate"/><rect x="619.88" y="795.17" width="20.89" height="140.12" fill="#95cd4e"/><rect x="640.76" y="806.08" width="17.36" height="129.21" fill="#86bd41" opacity="0.45" style="isolation:isolate"/><rect x="722.75" y="787.37" width="31.22" height="147.77" fill="#86bd41" opacity="0.35" style="isolation:isolate"/><rect x="696.86" y="802.68" width="23.41" height="132.46" fill="#86bd41" opacity="0.5" style="isolation:isolate"/><polygon points="665.24 932.71 686.95 935.19 696.86 827.81 675.16 825.34 665.24 932.71" fill="#86bd41" opacity="0.45" style="isolation:isolate"/><polygon points="667.47 908.62 689.17 911.1 688.66 916.7 666.95 914.22 667.47 908.62" fill="#86bd41"/><polygon points="666.83 915.54 688.54 918.01 688.32 920.34 666.61 917.87 666.83 915.54" fill="#86bd41"/><polygon points="666.83 915.54 677.68 916.77 677.47 919.1 666.61 917.87 666.83 915.54" fill="#86bd41"/><polygon points="673.45 843.83 695.15 846.31 694.63 851.9 672.93 849.42 673.45 843.83" fill="#86bd41"/><polygon points="673.45 843.83 684.3 845.07 683.78 850.66 672.93 849.42 673.45 843.83" fill="#86bd41"/><rect x="714.18" y="583.7" width="45.24" height="149.59" fill="#86bd41" opacity="0.28" style="isolation:isolate"/><rect x="820.32" y="583.7" width="30.44" height="149.59" fill="#86bd41" opacity="0.28" style="isolation:isolate"/><rect x="850.76" y="595.34" width="23.84" height="137.94" fill="#86bd41" opacity="0.5" style="isolation:isolate"/><rect x="727.44" y="603.98" width="18.74" height="109.02" fill="#86bd41" opacity="0.28" style="isolation:isolate"/><rect x="829.66" y="652.63" width="11.76" height="11.76" transform="translate(-220.94 783.51) rotate(-44.99)" fill="#86bd41"/><rect x="840.14" y="411.52" width="22.97" height="119.48" fill="#86bd41" opacity="0.28" style="isolation:isolate"/><rect x="863.11" y="435.11" width="28.83" height="95.88" fill="#86bd41" opacity="0.5" style="isolation:isolate"/><rect x="891.94" y="404.97" width="14.41" height="126.03" fill="#86bd41" opacity="0.28" style="isolation:isolate"/><rect x="873.64" y="450.04" width="7.76" height="66.03" fill="#86bd41"/><g opacity="0.5"><path d="M921.15,248.87v58h57.36v-58Zm49.54,49.51H929v-41.7h41.73Z" fill="#86bd41"/><path d="M947.6,278.38a2.22,2.22,0,0,0,2.22,2.22h0a2.22,2.22,0,0,0,2.22-2.22h0v-15a2.22,2.22,0,0,0-2.22-2.22h0a2.22,2.22,0,0,0-2.22,2.22h0Z" fill="#86bd41"/><path d="M947.6,282.81a2.22,2.22,0,0,0,2.22-2.22h0a2.22,2.22,0,0,0-2.22-2.21H935.66a2.22,2.22,0,0,0-2.22,2.22h0a2.22,2.22,0,0,0,2.22,2.22Z" fill="#86bd41"/><circle cx="949.82" cy="280.59" r="3.69" fill="#86bd41"/><rect x="909.64" y="306.87" width="80.36" height="11.3" fill="#86bd41"/></g><path d="M1464.81,338.81H524V961h955.2V338.81Zm-5.15,597.11H547.45V755.77H996.13v.82h463.53Zm0-201.57h-446.3v-.82H547.45V553H996.13v.82h463.53Zm0-202.72h-446.3v-.82H547.45V361h912.2Z" fill="#86bd41" opacity="0.5" style="isolation:isolate"/><rect x="1285.69" y="812.57" width="37.11" height="123.76" fill="#86bd41"/><rect x="1304.24" y="812.57" width="18.56" height="123.76" fill="#86bd41"/><rect x="1285.69" y="832.97" width="37.11" height="79.19" fill="#86bd41"/><rect x="1304.24" y="832.97" width="18.56" height="79.19" fill="#86bd41"/><rect x="1285.69" y="908.62" width="37.11" height="6.44" fill="#86bd41"/><rect x="1304.24" y="908.62" width="18.56" height="6.44" fill="#86bd41"/><rect x="1285.69" y="826.6" width="37.11" height="6.45" fill="#86bd41"/><rect x="1304.24" y="826.6" width="18.56" height="6.45" fill="#86bd41"/><rect x="1253.86" y="853.73" width="151.75" height="13.49" transform="translate(466.94 2188.7) rotate(-89.9)" fill="#95cd4e" opacity="0.8" style="isolation:isolate"/><polygon points="1336.29 936.33 1329.54 936.33 1329.85 784.57 1336.59 784.58 1336.29 936.33" fill="#95cd4e" opacity="0.8" style="isolation:isolate"/><rect x="1297.86" y="856.35" width="63.82" height="6.75" transform="translate(468.42 2188.44) rotate(-89.93)" fill="#95cd4e" opacity="0.8" style="isolation:isolate"/><polygon points="1333 891.59 1329.62 891.58 1329.76 827.76 1333.13 827.77 1333 891.59" fill="#95cd4e" opacity="0.8" style="isolation:isolate"/><polygon points="1336.35 902.28 1322.86 902.26 1322.85 910.16 1336.34 910.18 1336.35 902.28" fill="#86bd41"/><rect x="1329.07" y="902.89" width="7.9" height="6.75" transform="translate(424.2 2237.54) rotate(-89.89)" fill="#86bd41"/><rect x="1267.42" y="853.72" width="151.75" height="13.5" transform="translate(480.48 2202.27) rotate(-89.9)" fill="#95cd4e" opacity="0.8" style="isolation:isolate"/><rect x="1343.25" y="784.57" width="6.75" height="151.76" fill="#95cd4e" opacity="0.8" style="isolation:isolate"/><rect x="1311.43" y="856.35" width="63.82" height="6.75" transform="translate(481.97 2202.01) rotate(-89.93)" fill="#86bd41"/><rect x="1313.03" y="857.98" width="63.81" height="3.38" transform="translate(482.21 2202.65) rotate(-89.87)" fill="#86bd41"/><rect x="1339.28" y="899.53" width="7.9" height="13.5" transform="translate(435.08 2248.25) rotate(-89.92)" fill="#86bd41"/><rect x="1342.63" y="902.89" width="7.9" height="6.75" transform="translate(437.74 2251.11) rotate(-89.89)" fill="#86bd41"/><rect x="1389.37" y="779.62" width="38.43" height="157.15" fill="#95cd4e" opacity="0.8" style="isolation:isolate"/><rect x="1408.58" y="779.62" width="19.22" height="157.15" fill="#95cd4e" opacity="0.8" style="isolation:isolate"/><rect x="1389.37" y="841.89" width="38.43" height="48.54" fill="#86bd41"/><rect x="1408.58" y="841.89" width="19.22" height="48.54" fill="#86bd41"/><rect x="1389.37" y="901.5" width="38.43" height="8.18" fill="#86bd41"/><polygon points="1372.34 936.78 1358.44 935.39 1375.47 779.1 1389.37 780.5 1372.34 936.78" fill="#95cd4e"/><polygon points="1372.34 936.78 1365.39 936.09 1382.43 779.79 1389.37 780.5 1372.34 936.78" fill="#86bd41" opacity="0.28" style="isolation:isolate"/><polygon points="1373.89 890.36 1366.94 889.66 1374.11 823.94 1381.05 824.64 1373.89 890.36" fill="#86bd41"/><polygon points="1373.89 890.36 1370.41 890.01 1377.57 824.29 1381.05 824.64 1373.89 890.36" fill="#86bd41"/><polygon points="1376.16 901.72 1362.27 900.32 1361.37 908.46 1375.27 909.85 1376.16 901.72" fill="#86bd41"/><polygon points="1376.16 901.72 1369.21 901.02 1368.33 909.15 1375.27 909.85 1376.16 901.72" fill="#86bd41"/><rect x="1430.85" y="795.9" width="28.82" height="140.87" fill="#95cd4e"/><rect x="1445.26" y="795.9" width="14.41" height="140.87" fill="#95cd4e"/><rect x="1430.85" y="905.17" width="28.82" height="7.33" fill="#86bd41"/><rect x="1445.26" y="905.17" width="14.41" height="7.33" fill="#86bd41"/><rect x="1430.85" y="820.17" width="28.82" height="7.33" fill="#86bd41"/><rect x="1445.26" y="820.17" width="14.41" height="7.33" fill="#86bd41"/><rect x="1430.85" y="855.74" width="28.82" height="21.18" fill="#86bd41"/><rect x="1445.26" y="855.74" width="14.41" height="21.18" fill="#86bd41"/><rect x="1042.38" y="586.26" width="43.93" height="148.41" fill="#86bd41"/><rect x="1064.34" y="586.26" width="21.97" height="148.41" fill="#86bd41"/><rect x="1042.38" y="704.21" width="43.93" height="7.77" fill="#86bd41"/><rect x="1064.34" y="704.21" width="21.97" height="7.77" fill="#86bd41"/><rect x="1042.38" y="605.28" width="43.93" height="7.77" fill="#86bd41"/><rect x="1064.34" y="605.28" width="21.97" height="7.77" fill="#86bd41"/><rect x="1003.34" y="635.55" width="182.17" height="15.97" transform="translate(448.79 1736.72) rotate(-89.89)" fill="#86bd41"/><polygon points="1102.28 734.67 1094.29 734.65 1094.66 552.48 1102.64 552.49 1102.28 734.67" fill="#86bd41"/><rect x="1056.02" y="639.11" width="76.97" height="7.99" transform="translate(448.93 1736.15) rotate(-89.87)" fill="#86bd41"/><rect x="1057.95" y="641.06" width="76.98" height="4" transform="translate(452.04 1738.72) rotate(-89.93)" fill="#86bd41"/><rect x="1019.4" y="635.56" width="182.17" height="15.97" transform="translate(464.81 1752.79) rotate(-89.89)" fill="#86bd41"/><rect x="1023.44" y="639.58" width="182.17" height="7.99" transform="translate(469.01 1756.98) rotate(-89.9)" fill="#86bd41"/><rect x="1072.08" y="639.11" width="76.97" height="7.99" transform="translate(464.95 1752.21) rotate(-89.87)" fill="#86bd41"/><polygon points="1114.45 681.57 1110.46 681.57 1110.6 604.59 1114.6 604.59 1114.45 681.57" fill="#86bd41"/><polygon points="1042.38 732.51 1011.84 735.59 997.9 602.58 1028.44 599.51 1042.38 732.51" fill="#86bd41"/><polygon points="1042.38 732.51 1027.11 734.05 1013.17 601.05 1028.44 599.51 1042.38 732.51" fill="#86bd41"/><polygon points="1039.25 702.68 1008.71 705.75 1009.43 712.68 1039.98 709.61 1039.25 702.68" fill="#86bd41"/><polygon points="1039.25 702.68 1023.98 704.22 1024.71 711.15 1039.98 709.61 1039.25 702.68" fill="#86bd41"/><polygon points="1040.14 711.25 1009.61 714.31 1009.91 717.2 1040.45 714.13 1040.14 711.25" fill="#86bd41"/><polygon points="1040.14 711.25 1024.88 712.78 1025.19 715.66 1040.45 714.13 1040.14 711.25" fill="#86bd41"/><polygon points="1030.84 622.42 1000.3 625.5 1001.03 632.42 1031.57 629.35 1030.84 622.42" fill="#86bd41"/><polygon points="1030.84 622.42 1015.57 623.96 1016.3 630.88 1031.57 629.35 1030.84 622.42" fill="#86bd41"/><g id="hat"><path d="M1504,300.38V265.07a2,2,0,0,0-.82-1.61l21.64-4.19L1420.36,239l-104.41,20.23,55,10.64v47.93h0v.1l53.44.53,52.58-.53a1,1,0,0,1-.09-.21V268.57l23.48-4.55a2,2,0,0,0-.31,1v35.36a7.07,7.07,0,0,0-5,6.77v89.53a7.07,7.07,0,1,0,14.13,0V307.11A7.07,7.07,0,0,0,1504,300.38Z" fill="#95cd4e" opacity="0.8" style="isolation:isolate"/></g><rect x="930.42" y="403.13" width="34.42" height="128.91" fill="#86bd41" opacity="0.28" style="isolation:isolate"/><rect x="936.06" y="424.22" width="23.15" height="3.45" fill="#86bd41"/><rect x="936.06" y="431.99" width="23.15" height="3.45" fill="#86bd41"/><rect x="964.84" y="431.62" width="20.72" height="100.42" fill="#86bd41" opacity="0.55" style="isolation:isolate"/><rect x="985.94" y="431.62" width="20.72" height="100.42" fill="#86bd41" opacity="0.28" style="isolation:isolate"/><rect x="1007.03" y="431.62" width="20.72" height="100.42" fill="#86bd41" opacity="0.55" style="isolation:isolate"/><circle cx="975.2" cy="446.43" r="5.18" fill="#86bd41"/><rect x="969.9" y="455.68" width="10.61" height="1.23" fill="#86bd41"/><circle cx="996.3" cy="446.43" r="5.18" fill="#86bd41"/><rect x="990.99" y="455.68" width="10.61" height="1.23" fill="#86bd41"/><circle cx="1017.39" cy="446.43" r="5.18" fill="#86bd41"/><rect x="1012.09" y="455.68" width="10.61" height="1.23" fill="#86bd41"/><rect x="1101.48" y="513.64" width="113.3" height="18.34" fill="#86bd41" opacity="0.28" style="isolation:isolate"/><rect x="1109.18" y="513.64" width="97.9" height="18.34" fill="#86bd41" opacity="0.28" style="isolation:isolate"/><rect x="1137.59" y="493.54" width="77.2" height="20.1" fill="#86bd41" opacity="0.28" style="isolation:isolate"/><rect x="1130.63" y="473.44" width="77.2" height="20.1" fill="#95cd4e" opacity="0.8" style="isolation:isolate"/><rect x="1328.12" y="672.13" width="113.3" height="11.71" transform="matrix(0.25, -0.97, 0.97, 0.25, 382.07, 1849.24)" fill="#86bd41" opacity="0.28" style="isolation:isolate"/><rect x="888.52" y="621.26" width="11.71" height="113.3" transform="translate(-141.1 245.17) rotate(-14.48)" fill="#86bd41" opacity="0.28" style="isolation:isolate"/><rect x="1267.64" y="672.13" width="113.3" height="11.71" transform="matrix(0.25, -0.97, 0.97, 0.25, 336.71, 1790.68)" fill="#86bd41" opacity="0.28" style="isolation:isolate"/><rect x="1401.96" y="634.3" width="30.25" height="99.96" fill="#86bd41" opacity="0.55" style="isolation:isolate"/><rect x="1432.37" y="620.96" width="13.5" height="113.3" fill="#86bd41" opacity="0.28" style="isolation:isolate"/><rect x="1446.36" y="635.27" width="13.5" height="98.99" fill="#86bd41" opacity="0.55" style="isolation:isolate"/><rect x="1411.56" y="666.06" width="11.06" height="11.06" transform="translate(-59.83 1198.74) rotate(-45)" fill="#86bd41"/><rect x="1214.79" y="418.57" width="49.44" height="113.3" fill="#86bd41" opacity="0.28" style="isolation:isolate"/><rect x="1214.79" y="432.23" width="49.44" height="7.91" fill="#86bd41" opacity="0.61" style="isolation:isolate"/><rect x="1214.79" y="447.2" width="49.44" height="7.91" fill="#86bd41" opacity="0.61" style="isolation:isolate"/><rect x="1268.1" y="410.86" width="12.36" height="120.77" transform="translate(-27.75 83.21) rotate(-3.7)" fill="#86bd41" opacity="0.28" style="isolation:isolate"/><rect x="1208.61" y="798.88" width="38.43" height="136.78" fill="#95cd4e" opacity="0.8" style="isolation:isolate"/><g opacity="0.56"><rect x="1208.61" y="836.86" width="38.43" height="42.25" fill="#86bd41"/><rect x="1227.82" y="836.86" width="19.22" height="42.25" fill="#86bd41"/></g><rect x="1208.61" y="904.96" width="38.43" height="7.12" fill="#86bd41"/><rect x="1250.09" y="813.04" width="28.82" height="122.61" fill="#86bd41" opacity="0.28" style="isolation:isolate"/><rect x="1250.09" y="908.15" width="28.82" height="6.38" fill="#86bd41"/><rect x="1264.5" y="908.15" width="14.41" height="6.38" fill="#86bd41"/><rect x="1250.09" y="834.17" width="28.82" height="6.38" fill="#86bd41"/><rect x="1264.5" y="834.17" width="14.41" height="6.38" fill="#86bd41"/><g opacity="0.28"><rect x="1169.78" y="788.19" width="31.22" height="147.77" fill="#86bd41"/></g><rect x="1343.91" y="596.17" width="23.84" height="137.94" fill="#86bd41" opacity="0.5" style="isolation:isolate"/><rect x="1287.17" y="412.34" width="22.97" height="119.48" fill="#86bd41" opacity="0.28" style="isolation:isolate"/><rect x="1310.14" y="435.94" width="28.83" height="95.88" fill="#86bd41" opacity="0.28" style="isolation:isolate"/><rect x="1338.97" y="405.79" width="14.41" height="126.03" fill="#86bd41" opacity="0.28" style="isolation:isolate"/><rect x="1320.67" y="450.86" width="7.76" height="66.03" fill="#86bd41" opacity="0.61" style="isolation:isolate"/><rect x="1377.12" y="463.76" width="57.36" height="57.36" fill="#86bd41" opacity="0.28" style="isolation:isolate"/><rect x="1384.94" y="471.57" width="41.73" height="41.73" fill="#86bd41" opacity="0.28" style="isolation:isolate"/><path d="M1403.58,493.26a2.22,2.22,0,0,0,2.22,2.22h0a2.22,2.22,0,0,0,2.22-2.22v-15a2.22,2.22,0,0,0-2.22-2.22h0a2.22,2.22,0,0,0-2.22,2.22Z" fill="#86bd41"/><path d="M1403.58,497.7a2.22,2.22,0,0,0,2.22-2.22h0a2.22,2.22,0,0,0-2.22-2.22h-11.94a2.22,2.22,0,0,0-2.22,2.22h0a2.22,2.22,0,0,0,2.22,2.22Z" fill="#86bd41"/><circle cx="1405.8" cy="495.48" r="3.69" fill="#86bd41"/><rect x="1377.12" y="521.11" width="57.2" height="11.3" fill="#86bd41" opacity="0.28" style="isolation:isolate"/></g><path d="M970,701.5h91.21a5,5,0,0,1,5,5h0a5,5,0,0,1-5,5H970a5,5,0,0,1-5-5h0A5,5,0,0,1,970,701.5Z" fill="#95cd4e"/><rect x="605.82" y="414.88" width="214.03" height="12.27" rx="6.13" ry="6.13" fill="#86bd41"/><rect x="605.82" y="485.77" width="214.03" height="12.27" rx="6.13" ry="6.13" fill="#86bd41"/><rect x="605.82" y="556.66" width="214.03" height="12.27" rx="6.13" ry="6.13" fill="#86bd41"/><rect x="605.82" y="273.1" width="214.03" height="12.27" rx="6.13" ry="6.13" fill="#86bd41"/><rect x="605.82" y="343.99" width="214.03" height="12.27" rx="6.13" ry="6.13" fill="#86bd41"/><rect x="605.82" y="628.91" width="214.03" height="12.27" rx="6.13" ry="6.13" fill="#86bd41"/><rect x="605.82" y="699.8" width="214.03" height="12.27" rx="6.13" ry="6.13" fill="#86bd41"/><rect x="605.82" y="770.69" width="214.03" height="12.27" rx="6.13" ry="6.13" fill="#86bd41"/><rect x="605.82" y="841.58" width="214.03" height="12.27" rx="6.13" ry="6.13" fill="#86bd41"/><rect x="605.82" y="842.95" width="214.03" height="12.27" rx="6.13" ry="6.13" fill="#86bd41"/><rect x="605.82" y="913.84" width="214.03" height="12.27" rx="6.13" ry="6.13" fill="#86bd41"/><circle cx="819.29" cy="978.74" r="11.38" fill="#86bd41"/><circle cx="604.85" cy="978.74" r="11.38" fill="#86bd41"/><path d="M620.66,979v-.28a15.64,15.64,0,1,0-31.27,0V979Z" fill="#86bd41"/><path d="M599,976.21V250.09a4.65,4.65,0,0,1,4.64-4.64h3a4.65,4.65,0,0,1,4.64,4.64V976.21" fill="#86bd41"/><path d="M813.36,973.28V250.09a4.65,4.65,0,0,1,4.64-4.64h3a4.65,4.65,0,0,1,4.64,4.64V973.28" fill="#86bd41"/><path d="M834.91,979v-.28a15.63,15.63,0,1,0-31.27,0V979Z" fill="#86bd41"/><rect x="947.36" y="812.86" width="20.14" height="180.04" rx="8.28" ry="8.28" fill="#91c44a"/><rect x="1122.12" y="812.86" width="20.14" height="180.04" rx="8.28" ry="8.28" fill="#91c44a"/><rect x="575.08" y="1004.34" width="889.6" height="20.78" rx="6.12" ry="6.12" fill="#6b9c4a" opacity="0.4" style="isolation:isolate"/><rect x="559.94" y="986.38" width="311.82" height="8.64" rx="2.34" ry="2.34" fill="#6b9c4a" opacity="0.4" style="isolation:isolate"/><polygon points="1315.84 1000.84 1231.1 1000.84 1220.57 890.29 1326.37 890.29 1315.84 1000.84" fill="#91c44a"/><polygon points="1250.18 890.29 1244.81 871.62 1264.4 869.48 1280.63 861.72 1298.36 879.87 1304.8 890.29 1250.18 890.29" fill="#fff" opacity="0.4" style="isolation:isolate"/><rect x="1214.51" y="890.29" width="117.91" height="21.49" fill="#95cd4e"/><rect x="973.56" y="691.11" width="17.21" height="77.93" fill="#91c44a"/><rect x="1098.24" y="691.11" width="17.21" height="77.93" fill="#91c44a"/><path d="M1159.45,790.5a10.5,10.5,0,0,1-10.5,10.5H942.36a10.5,10.5,0,0,1-10.5-10.5,26.92,26.92,0,0,1,26.9-26.92h173.77a26.92,26.92,0,0,1,26.92,26.92Z" fill="#86bd41"/><path d="M958.76,776.46h173.77a26.93,26.93,0,0,1,25.71,18.92,10.45,10.45,0,0,0,1.21-4.88,26.92,26.92,0,0,0-26.92-26.92H958.76a26.92,26.92,0,0,0-26.92,26.92,10.44,10.44,0,0,0,1.21,4.88A26.93,26.93,0,0,1,958.76,776.46Z" fill="#86bd41"/><path d="M1149.64,801h-208a28.64,28.64,0,0,0,28.64,28.64H1121A28.64,28.64,0,0,0,1149.64,801Z" fill="#79b138"/><rect x="958.05" y="534.63" width="175.18" height="196.18" rx="22.03" ry="22.03" fill="#79b138"/><path d="M1133.24,555.09a20.46,20.46,0,0,0-20.46-20.46H978.51A20.46,20.46,0,0,0,958,555.09h0v27.59a20.46,20.46,0,0,1,20.46-20.46h134.27a20.46,20.46,0,0,1,20.46,20.46h0Z" fill="#86bd41"/><path d="M1540.36,485.45l5.88-4.16A11.09,11.09,0,0,0,1540.36,485.45Z" fill="#a5704a"/><rect x="737.93" y="711.38" width="597.44" height="28.97" fill="#73a839"/><rect x="753.89" y="740.34" width="27.41" height="275.47" fill="#73a839"/><polygon points="781.31 773.6 753.89 758.89 753.89 740.34 781.31 740.34 781.31 773.6" fill="#3a7b3e" opacity="0.51" style="isolation:isolate"/><rect x="1289.1" y="740.34" width="27.41" height="275.47" fill="#73a839"/><polygon points="1316.52 773.6 1289.1 758.89 1289.1 740.34 1316.52 740.34 1316.52 773.6" fill="#3a7b3e" opacity="0.51" style="isolation:isolate"/><path d="M1240.13,597.84a11.56,11.56,0,0,0-16.35,0h0l-7.27,7.28,16.34,16.34,7.29-7.28A11.56,11.56,0,0,0,1240.13,597.84Z" fill="#86bd41"/><path d="M1261.42,597.38a2.74,2.74,0,0,0-3.51-1.64l-8,2.9a2.74,2.74,0,0,0-1.64,3.51L1265,648.08l-18.23,50.22a2.74,2.74,0,0,0,2.52,3.67l9,.16h0a2.74,2.74,0,0,0,2.57-1.8l17.62-48.41v-7.61Zm-5,99.21-3.18-.06,16.39-45,2.81,1.06Zm13.21-51.91-15.27-41.78,2.83-1,15.21,41.78Z" fill="#86bd41"/><path d="M1264.08,648.13a8.46,8.46,0,1,0,8.46-8.46,8.46,8.46,0,0,0-8.46,8.46Z" fill="#86bd41"/><path d="M1232.87,685a2.74,2.74,0,0,0-2.74,2.74v11.47h5.48V687.77a2.74,2.74,0,0,0-2.74-2.74Z" fill="#86bd41"/><polygon points="1214.86 693.93 1203.81 708.71 1271.53 708.71 1271.53 693.93 1214.86 693.93" fill="#86bd41"/><path d="M1271.49,711.45h-67.63a2.74,2.74,0,1,1,0-5.48h67.64a2.74,2.74,0,1,1,0,5.48Z" fill="#86bd41"/><path d="M1282.46,628.15h-98.15a7.65,7.65,0,0,1-7.65-7.65h0a27,27,0,0,1,27-27h59.48a27,27,0,0,1,27,27h0a7.65,7.65,0,0,1-7.65,7.65h0Z" fill="#86bd41"/></g></svg>