<svg id="Layer_1" data-name="Layer 1" xmlns="http://www.w3.org/2000/svg" viewBox="0 0 450 201"><defs><style>.cls-1{fill:#3f3f42;opacity:0.05;}.cls-2{opacity:0.15;}</style></defs><title>type_wright_vigr [Recovered]</title><rect class="cls-1" x="0.41" y="0.22" width="449.38" height="200.55"/><g class="cls-2"><rect x="130.47" y="149.9" width="191.77" height="33.45" rx="5.99" ry="5.99"/><rect x="408.78" y="21.32" width="32.81" height="33.45" rx="6.52" ry="6.52"/><rect x="369.02" y="21.32" width="32.81" height="33.45" rx="6.52" ry="6.52"/><rect x="329.25" y="21.32" width="32.81" height="33.45" rx="6.52" ry="6.52"/><rect x="289.48" y="21.32" width="32.81" height="33.45" rx="6.52" ry="6.52"/><rect x="249.72" y="21.32" width="32.81" height="33.45" rx="6.52" ry="6.52"/><rect x="209.95" y="21.32" width="32.81" height="33.45" rx="6.52" ry="6.52"/><rect x="170.18" y="21.32" width="32.81" height="33.45" rx="6.52" ry="6.52"/><rect x="130.42" y="21.32" width="32.81" height="33.45" rx="6.52" ry="6.52"/><rect x="90.65" y="21.32" width="32.81" height="33.45" rx="6.52" ry="6.52"/><rect x="50.88" y="21.32" width="32.81" height="33.45" rx="6.52" ry="6.52"/><rect x="11.12" y="21.32" width="32.81" height="33.45" rx="6.52" ry="6.52"/><rect x="378.75" y="60.1" width="32.81" height="33.45" rx="5.84" ry="5.84"/><rect x="338.98" y="60.1" width="32.81" height="33.45" rx="5.84" ry="5.84"/><rect x="299.22" y="60.1" width="32.81" height="33.45" rx="5.84" ry="5.84"/><rect x="259.45" y="60.1" width="32.81" height="33.45" rx="5.84" ry="5.84"/><rect x="219.68" y="60.1" width="32.81" height="33.45" rx="5.84" ry="5.84"/><rect x="179.92" y="60.1" width="32.81" height="33.45" rx="5.84" ry="5.84"/><rect x="140.15" y="60.1" width="32.81" height="33.45" rx="5.84" ry="5.84"/><rect x="100.38" y="60.1" width="32.81" height="33.45" rx="5.84" ry="5.84"/><rect x="60.61" y="60.1" width="32.81" height="33.45" rx="5.84" ry="5.84"/><rect x="20.85" y="60.1" width="32.81" height="33.45" rx="5.84" ry="5.84"/><rect x="359.32" y="98.81" width="32.81" height="33.45" rx="8.01" ry="8.01"/><rect x="319.56" y="98.81" width="32.81" height="33.45" rx="8.01" ry="8.01"/><rect x="279.79" y="98.81" width="32.81" height="33.45" rx="8.01" ry="8.01"/><rect x="240.02" y="98.81" width="32.81" height="33.45" rx="8.01" ry="8.01"/><rect x="200.25" y="98.81" width="32.81" height="33.45" rx="8.01" ry="8.01"/><rect x="160.49" y="98.81" width="32.81" height="33.45" rx="8.01" ry="8.01"/><rect x="120.72" y="98.81" width="32.81" height="33.45" rx="8.01" ry="8.01"/><rect x="80.95" y="98.81" width="32.81" height="33.45" rx="8.01" ry="8.01"/><rect x="41.19" y="98.81" width="32.81" height="33.45" rx="8.01" ry="8.01"/></g></svg>