<svg id="Layer_1" data-name="Layer 1" xmlns="http://www.w3.org/2000/svg" xmlns:xlink="http://www.w3.org/1999/xlink" viewBox="0 0 34 5"><defs><style>.cls-1{fill:none;}.cls-2{clip-path:url(#clip-path);}.cls-3{clip-path:url(#clip-path-2);}.cls-4{fill:#468ec9;}.cls-5{fill:#3d7aad;}.cls-6{clip-path:url(#clip-path-3);}.cls-7{clip-path:url(#clip-path-4);}</style><clipPath id="clip-path"><rect class="cls-1" x="-1329.56" y="1155.26" width="2079.19" height="373.17"/></clipPath><clipPath id="clip-path-2"><rect class="cls-1" x="-2098.15" y="1155.26" width="3582.94" height="525.81"/></clipPath><clipPath id="clip-path-3"><rect class="cls-1" x="836.17" y="1646.82" width="2079.19" height="373.12"/></clipPath><clipPath id="clip-path-4"><rect class="cls-1" x="67.58" y="1646.82" width="3582.94" height="525.73"/></clipPath></defs><title>arrow</title><g class="cls-2"><g class="cls-3"><polygon class="cls-4" points="49.76 -48.78 -18.71 3.86 -87.19 -48.78 -18.71 -101.42 49.76 -48.78"/><polygon class="cls-4" points="49.76 56.5 -18.71 109.14 -87.19 56.5 -18.71 3.86 49.76 56.5"/><polygon class="cls-5" points="118.24 3.86 49.76 56.5 -18.71 3.86 49.76 -48.78 118.24 3.86"/></g></g><path class="cls-4" d="M33.28,4.29A2.34,2.34,0,0,1,31.47,5H2.53A2.46,2.46,0,0,1,0,2.5,2.46,2.46,0,0,1,2.53,0H31.47A2.46,2.46,0,0,1,34,2.5,2.28,2.28,0,0,1,33.28,4.29Z"/></svg>