<svg id="Layer_1" data-name="Layer 1" xmlns="http://www.w3.org/2000/svg" xmlns:xlink="http://www.w3.org/1999/xlink" viewBox="0 0 1038.74 1280"><defs><clipPath id="clip-path"><rect x="0.51" y="-2.34" width="1038" height="1283" fill="none"/></clipPath><linearGradient id="linear-gradient" x1="-2292.05" y1="9548.54" x2="-1918.94" y2="9548.54" gradientTransform="matrix(0, 1, 1, 0, -9545.89, 3202.59)" gradientUnits="userSpaceOnUse"><stop offset="0" stop-color="#fff" stop-opacity="0"/><stop offset="0.14" stop-color="#ced6e7" stop-opacity="0.23"/><stop offset="0.33" stop-color="#94a4ca" stop-opacity="0.5"/><stop offset="0.51" stop-color="#667db3" stop-opacity="0.72"/><stop offset="0.69" stop-color="#4562a3" stop-opacity="0.87"/><stop offset="0.86" stop-color="#315199" stop-opacity="0.97"/><stop offset="1" stop-color="#2a4b96"/></linearGradient><linearGradient id="linear-gradient-2" x1="0.64" y1="373.22" x2="0.64" y2="1280.09" gradientTransform="matrix(1, 0, 0, -1, 0, 1280.09)" gradientUnits="userSpaceOnUse"><stop offset="0" stop-color="#fff" stop-opacity="0.1"/><stop offset="0.11" stop-color="#e0effb" stop-opacity="0.27"/><stop offset="0.28" stop-color="#b8daf7" stop-opacity="0.49"/><stop offset="0.44" stop-color="#96c9f3" stop-opacity="0.67"/><stop offset="0.6" stop-color="#7dbbf0" stop-opacity="0.82"/><stop offset="0.75" stop-color="#6ab2ee" stop-opacity="0.92"/><stop offset="0.88" stop-color="#5facec" stop-opacity="0.98"/><stop offset="1" stop-color="#5baaec"/></linearGradient><clipPath id="clip-path-2"><rect x="-1036.98" width="2075.23" height="879.87" fill="none"/></clipPath><linearGradient id="linear-gradient-3" x1="-2296.09" y1="9546.86" x2="-1922.98" y2="9546.86" gradientTransform="matrix(0, 1, 1, 0, -9545.89, 3202.6)" gradientUnits="userSpaceOnUse"><stop offset="0" stop-color="#fff"/><stop offset="1"/></linearGradient><linearGradient id="linear-gradient-4" x1="793.66" y1="485.91" x2="793.66" y2="638.74" gradientTransform="matrix(1, 0, 0, -1, 0, 1280.09)" gradientUnits="userSpaceOnUse"><stop offset="0" stop-color="#fff" stop-opacity="0"/><stop offset="0.15" stop-color="#fff" stop-opacity="0.16"/><stop offset="0.57" stop-color="#fff" stop-opacity="0.61"/><stop offset="0.87" stop-color="#fff" stop-opacity="0.89"/><stop offset="1" stop-color="#fff"/></linearGradient><linearGradient id="linear-gradient-5" x1="569.42" y1="485.91" x2="569.42" y2="638.74" gradientTransform="matrix(1, 0, 0, -1, 0, 1280.09)" gradientUnits="userSpaceOnUse"><stop offset="0" stop-color="#fff" stop-opacity="0"/><stop offset="1" stop-color="#2a4b96"/></linearGradient><linearGradient id="linear-gradient-6" x1="801.83" y1="485.91" x2="801.83" y2="638.74" xlink:href="#linear-gradient-5"/><linearGradient id="linear-gradient-7" x1="413.88" y1="398.09" x2="413.88" y2="567.94" xlink:href="#linear-gradient-4"/><linearGradient id="linear-gradient-8" x1="941.54" y1="398.09" x2="941.54" y2="567.94" xlink:href="#linear-gradient-4"/><linearGradient id="linear-gradient-9" x1="946.16" y1="398.09" x2="946.16" y2="567.94" xlink:href="#linear-gradient-5"/><linearGradient id="linear-gradient-10" x1="419.56" y1="398.09" x2="419.56" y2="567.94" xlink:href="#linear-gradient-5"/><linearGradient id="linear-gradient-11" x1="181.64" y1="357.63" x2="181.64" y2="761.59" xlink:href="#linear-gradient-5"/></defs><title>bg_left</title><g clip-path="url(#clip-path)"><rect x="-1036.98" y="0.66" width="2075.23" height="1280" fill="#5baaec"/><rect x="-1036.98" y="906.87" width="2075.23" height="373.79" fill="#3d7aad"/><rect x="-1033.96" y="910.54" width="2073.22" height="373.11" opacity="0.16" fill="url(#linear-gradient)" style="isolation:isolate"/><rect x="2.83" y="1154.99" width="347.21" height="62.03" fill="#3d7aad"/><rect x="348.23" y="1154.99" width="347.21" height="62.03" fill="#468ec9"/><rect x="695.44" y="1154.99" width="342.82" height="62.03" fill="#3d7aad"/><rect x="-170.77" y="1217.02" width="347.21" height="62.03" fill="#468ec9"/><rect x="176.44" y="1217.02" width="347.21" height="62.03" fill="#3d7aad"/><rect x="521.84" y="1217.02" width="347.21" height="62.03" fill="#468ec9"/><rect x="869.04" y="1217.02" width="169.21" height="62.03" fill="#3d7aad"/><rect x="2.83" y="906.87" width="347.21" height="62.03" fill="#3d7aad"/><rect x="348.23" y="906.87" width="347.21" height="62.03" fill="#468ec9"/><rect x="695.44" y="906.87" width="342.84" height="62.03" fill="#3d7aad"/><rect x="-170.77" y="968.9" width="347.21" height="62.03" fill="#468ec9"/><rect x="176.44" y="968.9" width="347.21" height="62.03" fill="#3d7aad"/><rect x="521.84" y="968.9" width="347.21" height="62.03" fill="#468ec9"/><rect x="869.04" y="968.9" width="169.21" height="62.03" fill="#3d7aad"/><rect x="2.83" y="1030.93" width="347.21" height="62.03" fill="#468ec9"/><rect x="348.23" y="1030.93" width="347.21" height="62.03" fill="#3d7aad"/><rect x="695.44" y="1030.93" width="342.82" height="62.03" fill="#468ec9"/><rect x="-170.77" y="1092.96" width="347.21" height="62.03" fill="#3d7aad"/><rect x="176.44" y="1092.96" width="347.21" height="62.03" fill="#468ec9"/><rect x="521.84" y="1092.96" width="347.21" height="62.03" fill="#3d7aad"/><rect x="869.04" y="1092.96" width="169.21" height="62.03" fill="#468ec9"/><rect x="-1036.98" width="2075.23" height="906.87" opacity="0.6" fill="url(#linear-gradient-2)" style="isolation:isolate"/><g clip-path="url(#clip-path-2)"><g opacity="0.2"><ellipse cx="950.43" cy="781.91" rx="25.4" ry="25.45" fill="#468ec9"/><ellipse cx="950.43" cy="675.95" rx="25.4" ry="25.45" fill="#468ec9"/><ellipse cx="950.43" cy="569.99" rx="25.4" ry="25.45" fill="#468ec9"/><ellipse cx="950.43" cy="464.02" rx="25.4" ry="25.45" fill="#468ec9"/><ellipse cx="950.43" cy="358.06" rx="25.4" ry="25.45" fill="#468ec9"/><ellipse cx="950.43" cy="252.1" rx="25.4" ry="25.45" fill="#468ec9"/><ellipse cx="950.43" cy="146.13" rx="25.4" ry="25.45" fill="#468ec9"/><ellipse cx="950.43" cy="40.17" rx="25.4" ry="25.45" fill="#468ec9"/><ellipse cx="1008.19" cy="839.78" rx="25.4" ry="25.45" fill="#468ec9"/><ellipse cx="1008.19" cy="733.82" rx="25.4" ry="25.45" fill="#468ec9"/><ellipse cx="1008.19" cy="627.85" rx="25.4" ry="25.45" fill="#468ec9"/><ellipse cx="1008.19" cy="521.89" rx="25.4" ry="25.45" fill="#468ec9"/><ellipse cx="1008.19" cy="415.93" rx="25.4" ry="25.45" fill="#468ec9"/><ellipse cx="1008.19" cy="309.96" rx="25.4" ry="25.45" fill="#468ec9"/><ellipse cx="1008.19" cy="204" rx="25.4" ry="25.45" fill="#468ec9"/><ellipse cx="1008.19" cy="98.04" rx="25.4" ry="25.45" fill="#468ec9"/><path d="M816.56,784a25.4,25.4,0,1,1,23.25,23.31A25.44,25.44,0,0,1,816.56,784Z" fill="#468ec9"/><path d="M816.56,678a25.4,25.4,0,1,1,23.25,23.31A25.44,25.44,0,0,1,816.56,678Z" fill="#468ec9"/><path d="M816.56,572a25.4,25.4,0,1,1,23.25,23.31A25.44,25.44,0,0,1,816.56,572Z" fill="#468ec9"/><path d="M816.56,466.08a25.4,25.4,0,1,1,23.25,23.31A25.44,25.44,0,0,1,816.56,466.08Z" fill="#468ec9"/><path d="M816.56,360.12a25.4,25.4,0,1,1,23.25,23.31A25.44,25.44,0,0,1,816.56,360.12Z" fill="#468ec9"/><path d="M816.56,254.15a25.4,25.4,0,1,1,23.25,23.31A25.44,25.44,0,0,1,816.56,254.15Z" fill="#468ec9"/><path d="M816.56,148.19a25.4,25.4,0,1,1,23.25,23.31A25.44,25.44,0,0,1,816.56,148.19Z" fill="#468ec9"/><path d="M816.56,42.23a25.4,25.4,0,1,1,23.25,23.31A25.44,25.44,0,0,1,816.56,42.23Z" fill="#468ec9"/><ellipse cx="899.64" cy="839.78" rx="25.4" ry="25.45" fill="#468ec9"/><ellipse cx="899.64" cy="733.82" rx="25.4" ry="25.45" fill="#468ec9"/><ellipse cx="899.64" cy="627.85" rx="25.4" ry="25.45" fill="#468ec9"/><ellipse cx="899.64" cy="521.89" rx="25.4" ry="25.45" fill="#468ec9"/><ellipse cx="899.64" cy="415.93" rx="25.4" ry="25.45" fill="#468ec9"/><ellipse cx="899.64" cy="309.96" rx="25.4" ry="25.45" fill="#468ec9"/><ellipse cx="899.64" cy="204" rx="25.4" ry="25.45" fill="#468ec9"/><ellipse cx="899.64" cy="98.04" rx="25.4" ry="25.45" fill="#468ec9"/><ellipse cx="733.33" cy="781.91" rx="25.4" ry="25.45" fill="#468ec9"/><ellipse cx="733.33" cy="675.95" rx="25.4" ry="25.45" fill="#468ec9"/><ellipse cx="733.33" cy="569.99" rx="25.4" ry="25.45" fill="#468ec9"/><ellipse cx="733.33" cy="464.02" rx="25.4" ry="25.45" fill="#468ec9"/><ellipse cx="733.33" cy="358.06" rx="25.4" ry="25.45" fill="#468ec9"/><ellipse cx="733.33" cy="252.1" rx="25.4" ry="25.45" fill="#468ec9"/><ellipse cx="733.33" cy="146.13" rx="25.4" ry="25.45" fill="#468ec9"/><ellipse cx="733.33" cy="40.17" rx="25.4" ry="25.45" fill="#468ec9"/><ellipse cx="791.08" cy="839.78" rx="25.4" ry="25.45" fill="#468ec9"/><ellipse cx="791.08" cy="733.82" rx="25.4" ry="25.45" fill="#468ec9"/><ellipse cx="791.08" cy="627.85" rx="25.4" ry="25.45" fill="#468ec9"/><ellipse cx="791.08" cy="521.89" rx="25.4" ry="25.45" fill="#468ec9"/><ellipse cx="791.08" cy="415.93" rx="25.4" ry="25.45" fill="#468ec9"/><ellipse cx="791.08" cy="309.96" rx="25.4" ry="25.45" fill="#468ec9"/><ellipse cx="791.08" cy="204" rx="25.4" ry="25.45" fill="#468ec9"/><ellipse cx="791.08" cy="98.04" rx="25.4" ry="25.45" fill="#468ec9"/><ellipse cx="624.78" cy="781.91" rx="25.4" ry="25.45" fill="#468ec9"/><ellipse cx="624.78" cy="675.95" rx="25.4" ry="25.45" fill="#468ec9"/><ellipse cx="624.78" cy="569.99" rx="25.4" ry="25.45" fill="#468ec9"/><ellipse cx="624.78" cy="464.02" rx="25.4" ry="25.45" fill="#468ec9"/><ellipse cx="624.78" cy="358.06" rx="25.4" ry="25.45" fill="#468ec9"/><ellipse cx="624.78" cy="252.1" rx="25.4" ry="25.45" fill="#468ec9"/><ellipse cx="624.78" cy="146.13" rx="25.4" ry="25.45" fill="#468ec9"/><ellipse cx="624.78" cy="40.17" rx="25.4" ry="25.45" fill="#468ec9"/><ellipse cx="682.54" cy="839.78" rx="25.4" ry="25.45" fill="#468ec9"/><ellipse cx="682.54" cy="733.82" rx="25.4" ry="25.45" fill="#468ec9"/><ellipse cx="682.54" cy="627.85" rx="25.4" ry="25.45" fill="#468ec9"/><ellipse cx="682.54" cy="521.89" rx="25.4" ry="25.45" fill="#468ec9"/><ellipse cx="682.54" cy="415.93" rx="25.4" ry="25.45" fill="#468ec9"/><ellipse cx="682.54" cy="309.96" rx="25.4" ry="25.45" fill="#468ec9"/><ellipse cx="682.54" cy="204" rx="25.4" ry="25.45" fill="#468ec9"/><ellipse cx="682.54" cy="98.04" rx="25.4" ry="25.45" fill="#468ec9"/><ellipse cx="516.23" cy="781.91" rx="25.4" ry="25.45" fill="#468ec9"/><ellipse cx="516.23" cy="675.95" rx="25.4" ry="25.45" fill="#468ec9"/><ellipse cx="516.23" cy="569.99" rx="25.4" ry="25.45" fill="#468ec9"/><ellipse cx="516.23" cy="464.02" rx="25.4" ry="25.45" fill="#468ec9"/><ellipse cx="516.23" cy="358.06" rx="25.4" ry="25.45" fill="#468ec9"/><ellipse cx="516.23" cy="252.1" rx="25.4" ry="25.45" fill="#468ec9"/><ellipse cx="516.23" cy="146.13" rx="25.4" ry="25.45" fill="#468ec9"/><ellipse cx="516.23" cy="40.17" rx="25.4" ry="25.45" fill="#468ec9"/><ellipse cx="573.99" cy="839.78" rx="25.4" ry="25.45" fill="#468ec9"/><ellipse cx="573.99" cy="733.82" rx="25.4" ry="25.45" fill="#468ec9"/><ellipse cx="573.99" cy="627.85" rx="25.4" ry="25.45" fill="#468ec9"/><ellipse cx="573.99" cy="521.89" rx="25.4" ry="25.45" fill="#468ec9"/><ellipse cx="573.99" cy="415.93" rx="25.4" ry="25.45" fill="#468ec9"/><ellipse cx="573.99" cy="309.96" rx="25.4" ry="25.45" fill="#468ec9"/><ellipse cx="573.99" cy="204" rx="25.4" ry="25.45" fill="#468ec9"/><ellipse cx="573.99" cy="98.04" rx="25.4" ry="25.45" fill="#468ec9"/><ellipse cx="407.68" cy="781.91" rx="25.4" ry="25.45" fill="#468ec9"/><ellipse cx="407.68" cy="675.95" rx="25.4" ry="25.45" fill="#468ec9"/><ellipse cx="407.68" cy="569.99" rx="25.4" ry="25.45" fill="#468ec9"/><ellipse cx="407.68" cy="464.02" rx="25.4" ry="25.45" fill="#468ec9"/><ellipse cx="407.68" cy="358.06" rx="25.4" ry="25.45" fill="#468ec9"/><ellipse cx="407.68" cy="252.1" rx="25.4" ry="25.45" fill="#468ec9"/><ellipse cx="407.68" cy="146.13" rx="25.4" ry="25.45" fill="#468ec9"/><ellipse cx="407.68" cy="40.17" rx="25.4" ry="25.45" fill="#468ec9"/><ellipse cx="465.43" cy="839.78" rx="25.4" ry="25.45" fill="#468ec9"/><ellipse cx="465.43" cy="733.82" rx="25.4" ry="25.45" fill="#468ec9"/><ellipse cx="465.43" cy="627.85" rx="25.4" ry="25.45" fill="#468ec9"/><ellipse cx="465.43" cy="521.89" rx="25.4" ry="25.45" fill="#468ec9"/><ellipse cx="465.43" cy="415.93" rx="25.4" ry="25.45" fill="#468ec9"/><ellipse cx="465.43" cy="309.96" rx="25.4" ry="25.45" fill="#468ec9"/><ellipse cx="465.43" cy="204" rx="25.4" ry="25.45" fill="#468ec9"/><ellipse cx="465.43" cy="98.04" rx="25.4" ry="25.45" fill="#468ec9"/><ellipse cx="299.13" cy="781.91" rx="25.4" ry="25.45" fill="#468ec9"/><ellipse cx="299.13" cy="675.95" rx="25.4" ry="25.45" fill="#468ec9"/><ellipse cx="299.13" cy="569.99" rx="25.4" ry="25.45" fill="#468ec9"/><ellipse cx="299.13" cy="464.02" rx="25.4" ry="25.45" fill="#468ec9"/><ellipse cx="299.13" cy="358.06" rx="25.4" ry="25.45" fill="#468ec9"/><ellipse cx="299.13" cy="252.1" rx="25.4" ry="25.45" fill="#468ec9"/><ellipse cx="299.13" cy="146.13" rx="25.4" ry="25.45" fill="#468ec9"/><ellipse cx="299.13" cy="40.17" rx="25.4" ry="25.45" fill="#468ec9"/><ellipse cx="356.88" cy="839.78" rx="25.4" ry="25.45" fill="#468ec9"/><ellipse cx="356.88" cy="733.82" rx="25.4" ry="25.45" fill="#468ec9"/><ellipse cx="356.88" cy="627.85" rx="25.4" ry="25.45" fill="#468ec9"/><ellipse cx="356.88" cy="521.89" rx="25.4" ry="25.45" fill="#468ec9"/><ellipse cx="356.88" cy="415.93" rx="25.4" ry="25.45" fill="#468ec9"/><ellipse cx="356.88" cy="309.96" rx="25.4" ry="25.45" fill="#468ec9"/><ellipse cx="356.88" cy="204" rx="25.4" ry="25.45" fill="#468ec9"/><ellipse cx="356.88" cy="98.04" rx="25.4" ry="25.45" fill="#468ec9"/><ellipse cx="190.58" cy="781.91" rx="25.4" ry="25.45" fill="#468ec9"/><ellipse cx="190.58" cy="675.95" rx="25.4" ry="25.45" fill="#468ec9"/><ellipse cx="190.58" cy="569.99" rx="25.4" ry="25.45" fill="#468ec9"/><ellipse cx="190.58" cy="464.02" rx="25.4" ry="25.45" fill="#468ec9"/><ellipse cx="190.58" cy="358.06" rx="25.4" ry="25.45" fill="#468ec9"/><ellipse cx="190.58" cy="252.1" rx="25.4" ry="25.45" fill="#468ec9"/><ellipse cx="190.58" cy="146.13" rx="25.4" ry="25.45" fill="#468ec9"/><ellipse cx="190.58" cy="40.17" rx="25.4" ry="25.45" fill="#468ec9"/><ellipse cx="248.34" cy="839.78" rx="25.4" ry="25.45" fill="#468ec9"/><ellipse cx="248.34" cy="733.82" rx="25.4" ry="25.45" fill="#468ec9"/><ellipse cx="248.34" cy="627.85" rx="25.4" ry="25.45" fill="#468ec9"/><ellipse cx="248.34" cy="521.89" rx="25.4" ry="25.45" fill="#468ec9"/><ellipse cx="248.34" cy="415.93" rx="25.4" ry="25.45" fill="#468ec9"/><ellipse cx="248.34" cy="309.96" rx="25.4" ry="25.45" fill="#468ec9"/><ellipse cx="248.34" cy="204" rx="25.4" ry="25.45" fill="#468ec9"/><ellipse cx="248.34" cy="98.04" rx="25.4" ry="25.45" fill="#468ec9"/><ellipse cx="82.03" cy="781.91" rx="25.4" ry="25.45" fill="#468ec9"/><ellipse cx="82.03" cy="675.95" rx="25.4" ry="25.45" fill="#468ec9"/><ellipse cx="82.03" cy="569.99" rx="25.4" ry="25.45" fill="#468ec9"/><ellipse cx="82.03" cy="464.02" rx="25.4" ry="25.45" fill="#468ec9"/><ellipse cx="82.03" cy="358.06" rx="25.4" ry="25.45" fill="#468ec9"/><ellipse cx="82.03" cy="252.1" rx="25.4" ry="25.45" fill="#468ec9"/><ellipse cx="82.03" cy="146.13" rx="25.4" ry="25.45" fill="#468ec9"/><ellipse cx="82.03" cy="40.17" rx="25.4" ry="25.45" fill="#468ec9"/><ellipse cx="139.79" cy="839.78" rx="25.4" ry="25.45" fill="#468ec9"/><ellipse cx="139.79" cy="733.82" rx="25.4" ry="25.45" fill="#468ec9"/><ellipse cx="139.79" cy="627.85" rx="25.4" ry="25.45" fill="#468ec9"/><ellipse cx="139.79" cy="521.89" rx="25.4" ry="25.45" fill="#468ec9"/><ellipse cx="139.79" cy="415.93" rx="25.4" ry="25.45" fill="#468ec9"/><ellipse cx="139.79" cy="309.96" rx="25.4" ry="25.45" fill="#468ec9"/><ellipse cx="139.79" cy="204" rx="25.4" ry="25.45" fill="#468ec9"/><ellipse cx="139.79" cy="98.04" rx="25.4" ry="25.45" fill="#468ec9"/><ellipse cx="29.99" cy="839.78" rx="25.4" ry="25.45" fill="#468ec9"/><ellipse cx="29.99" cy="733.82" rx="25.4" ry="25.45" fill="#468ec9"/><ellipse cx="29.99" cy="627.85" rx="25.4" ry="25.45" fill="#468ec9"/><ellipse cx="29.99" cy="521.89" rx="25.4" ry="25.45" fill="#468ec9"/><ellipse cx="29.99" cy="415.93" rx="25.4" ry="25.45" fill="#468ec9"/><ellipse cx="29.99" cy="309.96" rx="25.4" ry="25.45" fill="#468ec9"/><ellipse cx="29.99" cy="204" rx="25.4" ry="25.45" fill="#468ec9"/><ellipse cx="29.99" cy="98.04" rx="25.4" ry="25.45" fill="#468ec9"/></g><rect x="-1036.98" y="877.98" width="2075.23" height="28.54" fill="#67b7f9"/><rect x="-1036.98" y="885.77" width="2075.23" height="7.22" fill="#80cfff"/><rect x="-1036.98" y="874.11" width="2075.23" height="3.61" fill="#80cfff"/><rect x="-1036.3" y="906.51" width="2074.55" height="373.11" opacity="0.1" fill="url(#linear-gradient-3)" style="isolation:isolate"/></g><polygon points="926.97 748.48 906.34 748.48 906.34 735.74 926.97 735.74 926.97 748.48 926.97 748.48" fill="#3d7aad"/><polygon points="926.97 878.31 906.34 878.31 906.34 865.58 926.97 865.58 926.97 878.31 926.97 878.31" fill="#175e92"/><polyline points="447.03 748.48 431.13 748.48 431.13 735.74 447.03 735.74" fill="#3d7aad"/><polyline points="431.13 878.31 431.13 865.58 447.02 865.58 447.02 878.31" fill="#3d7aad"/><polygon points="892.34 841.76 478.91 841.76 478.91 655.2 892.34 655.2 892.34 841.76 892.34 841.76" fill="#3d7aad"/><path d="M663.61,794.15H475.24a18,18,0,0,1-18-18V659.35a18,18,0,0,1,18-18H663.61a18,18,0,0,1,18,18V776.18a18,18,0,0,1-18,18Z" fill="#468ec9"/><path d="M660.71,841.76H478.13a20.85,20.85,0,0,1-20.83-20.87V815a20.85,20.85,0,0,1,20.83-20.87H660.71A20.85,20.85,0,0,1,681.54,815v5.86a20.85,20.85,0,0,1-20.83,20.87Z" fill="#4b9bd1"/><path d="M893.13,841.76H710.55a20.85,20.85,0,0,1-20.83-20.87V815a20.85,20.85,0,0,1,20.83-20.87H893.13A20.85,20.85,0,0,1,914,815v5.86a20.85,20.85,0,0,1-20.83,20.87Z" fill="#4b9bd1"/><path d="M913.94,848.24v34.62a6.5,6.5,0,0,1-6.46,6.53H463.81a6.51,6.51,0,0,1-6.51-6.52h0V848.24a6.49,6.49,0,0,1,6.51-6.47H907.47a6.48,6.48,0,0,1,6.46,6.47Z" fill="#4b9bd1"/><polygon points="496.74 923.53 485.63 923.53 485.63 889.38 501.79 889.38 501.79 908.14 496.74 923.53 496.74 923.53" fill="#3d7aad"/><polygon points="875.94 923.53 887.04 923.53 887.04 889.38 870.9 889.38 870.9 908.14 875.94 923.53 875.94 923.53" fill="#3d7aad"/><path d="M913.94,848.24v11H457.3v-11a6.49,6.49,0,0,1,6.51-6.47H907.47a6.48,6.48,0,0,1,6.46,6.47Z" fill="#468ec9"/><path d="M887.84,794.15H699.48a18,18,0,0,1-18-18V659.35a18,18,0,0,1,18-18H887.84a18,18,0,0,1,18,18V776.18a18,18,0,0,1-18,18Z" fill="#93d7ff"/><path d="M887.84,794.15H699.48a18,18,0,0,1-18-18V659.35a18,18,0,0,1,18-18H887.84a18,18,0,0,1,18,18V776.18a18,18,0,0,1-18,18Z" opacity="0.2" fill="url(#linear-gradient-4)" style="isolation:isolate"/><path d="M896,794.15H707.65a18,18,0,0,1-18-18V659.35a18,18,0,0,1,18-18H896a18,18,0,0,1,18,18V776.18a18,18,0,0,1-18,18Z" fill="#468ec9"/><path d="M663.61,794.15H475.24a18,18,0,0,1-18-18V659.35a18,18,0,0,1,18-18H663.61a18,18,0,0,1,18,18V776.18a18,18,0,0,1-18,18Z" opacity="0.16" fill="url(#linear-gradient-5)" style="isolation:isolate"/><path d="M896,794.15H707.65a18,18,0,0,1-18-18V659.35a18,18,0,0,1,18-18H896a18,18,0,0,1,18,18V776.18a18,18,0,0,1-18,18Z" opacity="0.16" fill="url(#linear-gradient-6)" style="isolation:isolate"/><ellipse cx="507.41" cy="701.78" rx="6.24" ry="6.25" fill="#80cfff"/><ellipse cx="569.42" cy="701.78" rx="6.24" ry="6.25" fill="#80cfff"/><ellipse cx="631.31" cy="701.78" rx="6.24" ry="6.25" fill="#80cfff"/><ellipse cx="740.26" cy="701.78" rx="6.24" ry="6.25" fill="#80cfff"/><ellipse cx="802.26" cy="701.78" rx="6.24" ry="6.25" fill="#80cfff"/><ellipse cx="864.15" cy="701.78" rx="6.24" ry="6.25" fill="#80cfff"/><path d="M441.28,739.6a27.4,27.4,0,1,0-41.44,23.57v107A11.86,11.86,0,0,0,411.66,882h17.82a11.86,11.86,0,0,0,11.81-11.83V767h0Z" fill="#93d7ff"/><path d="M441.28,739.6a27.4,27.4,0,1,0-41.44,23.57v107A11.86,11.86,0,0,0,411.66,882h17.82a11.86,11.86,0,0,0,11.81-11.83V767h0Z" opacity="0.4" fill="url(#linear-gradient-7)" style="isolation:isolate"/><path d="M968.75,739.6a27.4,27.4,0,1,0-54.8,0h0V767h0V870.2A11.86,11.86,0,0,0,925.77,882h17.82a11.86,11.86,0,0,0,11.82-11.83v-107A27.44,27.44,0,0,0,968.75,739.6Z" fill="#93d7ff"/><path d="M968.93,739.6a27.4,27.4,0,1,0-54.8,0h0V767h0V870.2A11.86,11.86,0,0,0,925.95,882h17.82a11.86,11.86,0,0,0,11.82-11.83v-107A27.44,27.44,0,0,0,968.93,739.6Z" opacity="0.2" fill="url(#linear-gradient-8)" style="isolation:isolate"/><path d="M973.55,739.6a27.4,27.4,0,1,0-54.8,0h0V767h0V870.2A11.86,11.86,0,0,0,930.57,882h17.82a11.86,11.86,0,0,0,11.82-11.83v-107A27.44,27.44,0,0,0,973.55,739.6Z" fill="#4b9bd1"/><path d="M973.55,739.6a27.4,27.4,0,1,0-54.8,0h0V767h0V870.2A11.86,11.86,0,0,0,930.57,882h17.82a11.86,11.86,0,0,0,11.82-11.83v-107A27.44,27.44,0,0,0,973.55,739.6Z" opacity="0.16" fill="url(#linear-gradient-9)" style="isolation:isolate"/><path d="M447,739.6a27.4,27.4,0,1,0-41.44,23.57v107A11.86,11.86,0,0,0,417.41,882h17.82A11.86,11.86,0,0,0,447,870.17V767h0Z" fill="#4b9bd1"/><path d="M447,739.6a27.4,27.4,0,1,0-41.44,23.57v107A11.86,11.86,0,0,0,417.34,882h17.82A11.86,11.86,0,0,0,447,870.17V767h0Z" opacity="0.16" fill="url(#linear-gradient-10)" style="isolation:isolate"/><ellipse cx="419.63" cy="739.6" rx="6.62" ry="6.63" fill="#80cfff"/><ellipse cx="947.97" cy="739.6" rx="6.62" ry="6.63" fill="#80cfff"/><path d="M114.84,518.5H245.07a15,15,0,0,1,15,15h0v322H103.25V530.11A11.6,11.6,0,0,1,114.84,518.5Z" fill="#468ec9"/><path d="M111.2,518.5h-7.44a8.63,8.63,0,0,0-8.65,8.61v379.4l8.11,16,8-387.87" fill="#93d7ff"/><path d="M251.39,518.5H111.88a8.63,8.63,0,0,0-8.62,8.64h0V922.46h16.06V855.52H244v66.94H260V527.14a8.63,8.63,0,0,0-8.62-8.64ZM244,839.43H119.31V778.75H244Zm0-76.77H119.31V693.88H244Zm0-84.87H119.31V616.08H244ZM119.31,600V534.6H244V600Z" fill="#4b9bd1"/><path d="M251.39,518.5H111.88a8.63,8.63,0,0,0-8.62,8.64h0V922.46h16.06V855.52H244v66.94H260V527.14a8.63,8.63,0,0,0-8.62-8.64ZM244,839.43H119.31V778.75H244Zm0-76.77H119.31V693.88H244Zm0-84.87H119.31V616.08H244ZM119.31,600V534.6H244V600Z" opacity="0.16" fill="url(#linear-gradient-11)" style="isolation:isolate"/><rect x="235.81" y="534.59" width="8.19" height="65.4" fill="#468ec9"/><rect x="235.62" y="616.08" width="8.38" height="61.71" fill="#468ec9"/><rect x="235.62" y="693.88" width="8.38" height="68.78" fill="#468ec9"/><rect x="235.62" y="778.75" width="8.38" height="60.73" fill="#468ec9"/><polygon points="244.02 922.46 235.58 906.78 235.58 855.52 244.02 855.52 244.02 922.46" fill="#468ec9"/><g opacity="0.2"><rect x="235.81" y="534.59" width="8.19" height="65.4" fill="#468ec9"/><rect x="235.62" y="616.08" width="8.38" height="61.71" fill="#468ec9"/><rect x="235.62" y="693.88" width="8.38" height="68.78" fill="#468ec9"/><rect x="235.62" y="778.75" width="8.38" height="60.73" fill="#468ec9"/><polygon points="244.02 922.46 235.58 906.78 235.58 855.52 244.02 855.52 244.02 922.46" fill="#468ec9"/></g><g opacity="0.2"><rect x="235.81" y="534.59" width="8.19" height="65.4" fill="#175e92"/><rect x="235.62" y="616.08" width="8.38" height="61.71" fill="#175e92"/><rect x="235.62" y="693.88" width="8.38" height="68.78" fill="#175e92"/><rect x="235.62" y="778.75" width="8.38" height="60.73" fill="#175e92"/><polygon points="244.02 922.46 235.58 906.78 235.58 855.52 244.02 855.52 244.02 922.46" fill="#175e92"/></g><polygon points="143.71 599.98 131.07 599.98 131.07 543.59 143.71 543.59 143.71 599.98 143.71 599.98" fill="#4b9bd1"/><polygon points="143.71 552.71 131.07 552.71 131.07 551.52 143.71 551.52 143.71 552.71 143.71 552.71" fill="#468ec9"/><polygon points="143.71 595.11 131.07 595.11 131.07 593.92 143.71 593.92 143.71 595.11 143.71 595.11" fill="#468ec9"/><polygon points="138.25 588.27 136.53 588.27 136.53 555.26 138.25 555.26 138.25 588.27 138.25 588.27" fill="#468ec9"/><polygon points="162.08 599.98 149.45 599.98 149.45 550.09 162.08 550.09 162.08 599.98 162.08 599.98" fill="#4b9bd1"/><polygon points="162.08 552.71 149.45 552.71 149.45 551.52 162.08 551.52 162.08 552.71 162.08 552.71" fill="#4b9bd1"/><polygon points="156.62 588.27 154.91 588.27 154.91 555.26 156.62 555.26 156.62 588.27 156.62 588.27" fill="#468ec9"/><polygon points="180.47 599.98 167.83 599.98 167.83 564.71 180.47 564.71 180.47 599.98 180.47 599.98" fill="#4b9bd1"/><polygon points="198.84 599.98 186.21 599.98 186.21 543.59 198.84 543.59 198.84 599.98 198.84 599.98" fill="#4b9bd1"/><polygon points="198.84 552.71 186.21 552.71 186.21 551.52 198.84 551.52 198.84 552.71 198.84 552.71" fill="#4b9bd1"/><polygon points="193.38 588.27 191.66 588.27 191.66 555.26 193.38 555.26 193.38 588.27 193.38 588.27" fill="#468ec9"/><polygon points="231.92 595.63 220.13 599.96 198.84 547.35 210.63 543.02 231.92 595.63 231.92 595.63" fill="#4b9bd1"/><polygon points="214.07 551.53 202.29 555.85 201.84 554.75 213.62 550.42 214.07 551.53 214.07 551.53" fill="#4b9bd1"/><polygon points="228.94 588.27 217.16 592.6 216.71 591.5 228.5 587.17 228.94 588.27 228.94 588.27" fill="#4b9bd1"/><polygon points="222.41 586.57 220.8 587.16 208.33 556.36 209.94 555.77 222.41 586.57 222.41 586.57" fill="#468ec9"/><polygon points="219.28 839.43 231.92 839.43 231.92 804.42 219.28 804.42 219.28 839.43 219.28 839.43" fill="#4b9bd1"/><polygon points="224.73 827.72 226.46 827.72 226.46 817.07 224.73 817.07 224.73 827.72 224.73 827.72" fill="#93d7ff" opacity="0.44" style="isolation:isolate"/><polygon points="200.91 839.43 213.54 839.43 213.54 783.04 200.91 783.04 200.91 839.43 200.91 839.43" fill="#4b9bd1"/><polygon points="200.91 792.16 213.54 792.16 213.54 790.98 200.91 790.98 200.91 792.16 200.91 792.16" fill="#4b9bd1"/><polygon points="206.36 827.72 208.09 827.72 208.09 794.72 206.36 794.72 206.36 827.72 206.36 827.72" fill="#93d7ff" opacity="0.44" style="isolation:isolate"/><polygon points="182.52 839.43 195.16 839.43 195.16 794.72 182.52 794.72 182.52 839.43 182.52 839.43" fill="#4b9bd1"/><polygon points="187.98 827.72 189.71 827.72 189.71 804.42 187.98 804.42 187.98 827.72 187.98 827.72" fill="#93d7ff" opacity="0.44" style="isolation:isolate"/><polygon points="164.15 839.43 176.78 839.43 176.78 783.04 164.15 783.04 164.15 839.43 164.15 839.43" fill="#4b9bd1"/><polygon points="164.15 792.16 176.78 792.16 176.78 790.98 164.15 790.98 164.15 792.16 164.15 792.16" fill="#4b9bd1"/><polygon points="169.61 827.72 171.34 827.72 171.34 794.72 169.61 794.72 169.61 827.72 169.61 827.72" fill="#93d7ff" opacity="0.44" style="isolation:isolate"/><polygon points="131.07 835.08 142.86 839.41 164.15 786.8 152.36 782.47 131.07 835.08 131.07 835.08" fill="#4b9bd1"/><polygon points="148.92 790.98 160.71 795.31 161.15 794.2 149.37 789.87 148.92 790.98 148.92 790.98" fill="#4b9bd1"/><polygon points="134.05 827.73 145.83 832.05 146.28 830.95 134.5 826.62 134.05 827.73 134.05 827.73" fill="#4b9bd1"/><polygon points="140.58 826.03 142.19 826.62 154.66 795.82 153.05 795.23 140.58 826.03 140.58 826.03" fill="#93d7ff" opacity="0.44" style="isolation:isolate"/><path d="M210.57,746.29H155a39.42,39.42,0,0,1,0-11.37h55.55v11.37Z" fill="#93d7ff" opacity="0.44" style="isolation:isolate"/><path d="M155,737.16h58v-2.33H152.82a28.44,28.44,0,0,0,0,13.51H213V746H155A26.71,26.71,0,0,1,155,737.16Z" fill="#4b9bd1"/><path d="M210.57,760.62H155a39.42,39.42,0,0,1,0-11.37h55.55v11.37Z" fill="#93d7ff" opacity="0.44" style="isolation:isolate"/><path d="M155,751.49h58v-2.33H152.82a28.43,28.43,0,0,0,0,13.5H213v-2.33H155a26.73,26.73,0,0,1,0-8.84Z" fill="#4b9bd1"/><path d="M210.67,731.91H155.12a39.56,39.56,0,0,1,0-11.37h55.55Z" fill="#93d7ff" opacity="0.44" style="isolation:isolate"/><path d="M155.12,722.78h58v-2.33H152.91a28.42,28.42,0,0,0,0,13.5h60.18v-2.33h-58a26.72,26.72,0,0,1,0-8.84Z" fill="#4b9bd1"/><path d="M197.3,640c0,3.66-6.69,6.63-15,6.63s-15-3-15-6.63,6.69-6.62,15-6.62S197.3,636.38,197.3,640Z" fill="#4b9bd1"/><path d="M191.36,629.47c0,2.39-4,4.34-9,4.34s-9-2-9-4.34,4-4.34,9-4.34S191.36,627.07,191.36,629.47Z" fill="#4b9bd1"/><polygon points="192.19 667.53 172.9 667.53 172.9 661.26 192.19 661.26 192.19 667.53 192.19 667.53" fill="#4b9bd1"/><polygon points="194.7 677.79 169.6 677.79 169.6 667.22 194.7 667.22 194.7 677.79 194.7 677.79" fill="#4b9bd1"/><path d="M202.26,655.12c0,4.87-8.91,8.83-19.89,8.83s-19.89-4-19.89-8.83,8.9-8.83,19.89-8.83S202.26,650.29,202.26,655.12Z" fill="#4b9bd1"/><polygon points="216.54 486.58 214.59 480.25 214.59 455.04 216.54 461.38 216.54 486.58 216.54 486.58" fill="#4b9bd1"/><path d="M207.12,481.73c3.49,2.82,8.56,2.59,9.15,1.92s0-5.47-3.5-8.29S204,473,203.6,473.44s0,5.47,3.5,8.29Z" fill="#4b9bd1"/><path d="M224.12,481.76c-3.53,2.78-8.6,2.5-9.19,1.82s.07-5.47,3.6-8.26,8.84-2.27,9.19-1.82-.07,5.47-3.6,8.25Z" fill="#4b9bd1"/><path d="M225.27,460c-3.33,1.16-7-1.19-7.3-2.06s1.44-5.09,4.77-6.24,7.17,1.5,7.31,2.06-1.44,5.09-4.78,6.24Z" fill="#4b9bd1"/><path d="M213.12,468.63c-2.17,2.67-6.61,2.58-7.32,2s-1.65-5,.52-7.71,6.9-2.38,7.33-2S215.28,465.92,213.12,468.63Z" fill="#4b9bd1"/><path d="M218,468.08c-2.23-2.64-1.08-6.73-.29-7.25s5.52-.34,7.75,2.31.81,7,.29,7.25-5.53.34-7.74-2.31Z" fill="#4b9bd1"/><path d="M204.47,459.76c-3.24-1.38-4.19-5.51-3.74-6.32s4.75-2.7,8-1.33,4.05,5.82,3.74,6.32S207.71,461.13,204.47,459.76Z" fill="#4b9bd1"/><path d="M210.6,450.25c0-3.38,3.52-5.92,4.48-5.87s4.55,3,4.59,6.37-3.87,5.93-4.47,5.87-4.55-3-4.59-6.37Z" fill="#4b9bd1"/><path d="M220.32,459.2a5,5,0,1,1-5.22-4.75h.23a4.87,4.87,0,0,1,5,4.76Z" fill="#4b9bd1"/><polygon points="235.05 518.5 197.08 518.5 191.99 480.87 240.14 480.87 235.05 518.5 235.05 518.5" fill="#4b9bd1"/><path d="M237.76,490.23H194a7.47,7.47,0,0,1-7.47-7.48h0v-1.88h58.67v1.88A7.48,7.48,0,0,1,237.76,490.23Z" fill="#4b9bd1"/><path d="M170.11,488.33c-.56-16.08-11-25.58-11-36.75,0-5.53,5.63-13,7.63-16.92a2.67,2.67,0,0,0-.92-5.17h-33a2.67,2.67,0,0,0-1,5.15c2,3.89,7.64,11.4,7.64,16.94,0,11.17-10.4,20.67-11,36.75-.3,8.38,2.4,20.87,5.57,26.89a6.6,6.6,0,0,0,6,3.28h18.6a6.6,6.6,0,0,0,5.92-3.27C167.7,509.2,170.41,496.71,170.11,488.33Z" fill="#4b9bd1"/><path d="M533.84,112.08,500.46,82.49v-.08a4.76,4.76,0,0,0-9.29-1.48l-35.53,31.15H429.78V209.7H559.69V112.08ZM491,83.4a4.76,4.76,0,0,0,9,1.1l30.59,27.58H458.94Z" fill="#4b9bd1"/><rect x="441.24" y="123.57" width="106.99" height="72.74" fill="#80cfff"/><path d="M426.59,112.16h3.19v97.59h-3.83v-97A.64.64,0,0,1,426.59,112.16Z" fill="#80cfff"/><path d="M458.85,278.57l-21.66-19.2v0a3.09,3.09,0,0,0-6-1l-23.07,20.21H391.33v63.35h84.31V278.57ZM431.07,260a3.09,3.09,0,0,0,5.81.71l19.85,17.9H410.22Z" fill="#4b9bd1"/><rect x="398.76" y="286.02" width="69.43" height="47.2" fill="#93d7ff"/><path d="M389.25,278.61h2.08v63.33h-2.49V279A.41.41,0,0,1,389.25,278.61Z" fill="#80cfff"/><path d="M525.16,278.67h74.46a4.92,4.92,0,0,1,4.91,4.92V337a4.92,4.92,0,0,1-4.91,4.92H525.16a4.92,4.92,0,0,1-4.91-4.92v-53.4A4.92,4.92,0,0,1,525.16,278.67Z" fill="#80cfff"/><path d="M591.61,278.57a3.35,3.35,0,0,1-2.23-.84l-20.71-18.36v0a3.09,3.09,0,0,0-6-1L540.58,277.7a3.35,3.35,0,0,1-2.21.83H526.17a3.36,3.36,0,0,0-3.35,3.36v56.62a3.36,3.36,0,0,0,3.35,3.36h77.59a3.36,3.36,0,0,0,3.35-3.36V281.93a3.36,3.36,0,0,0-3.35-3.36ZM560,262.27a3.46,3.46,0,0,1,4.08-.25,3.09,3.09,0,0,0,2.73.17,3.52,3.52,0,0,1,3.79.48l11.14,10a3.36,3.36,0,0,1-2.25,5.86H550.53a3.36,3.36,0,0,1-2.24-5.87Z" fill="#4b9bd1"/><path d="M534.3,286h61.32a4.06,4.06,0,0,1,4.05,4.06v39.08a4.06,4.06,0,0,1-4.05,4.06H534.3a4.06,4.06,0,0,1-4.05-4.06V290.08A4.06,4.06,0,0,1,534.3,286Z" fill="#80cfff"/><rect x="457.88" y="391.59" width="97.08" height="203.53" fill="#80cfff"/><rect x="462.3" y="391.59" width="97.08" height="203.53" fill="#4b9bd1"/><rect x="471.87" y="399.99" width="78.04" height="186.22" fill="#93d7ff"/><path d="M550,457.11a15.74,15.74,0,1,1,0-17.64" fill="#80cfff"/><path d="M550,528.63A15.74,15.74,0,1,1,550,511" fill="#80cfff"/><path d="M471.87,414.35a15.74,15.74,0,1,1,0,17.64" fill="#80cfff"/><path d="M471.87,550.73a15.74,15.74,0,1,1,0,17.64" fill="#80cfff"/><path d="M471.87,483.75a15.74,15.74,0,1,1,0,17.64" fill="#80cfff"/><polygon points="470.15 139.83 476.29 152.28 490.01 154.28 480.09 163.97 482.43 177.65 470.15 171.19 457.89 177.65 460.23 163.97 450.31 154.28 464.03 152.28 470.15 139.83" fill="#93d7ff"/><polygon points="518.99 139.83 525.12 152.28 538.84 154.28 528.91 163.97 531.26 177.65 518.99 171.19 506.73 177.65 509.07 163.97 499.14 154.28 512.85 152.28 518.99 139.83" fill="#93d7ff"/><rect x="398.76" y="297.83" width="69.43" height="9.13" fill="#80cfff"/><rect x="398.76" y="313.2" width="69.43" height="9.13" fill="#80cfff"/><polygon points="569.93 327.48 565.67 318.37 563.2 328.12 562.3 318.1 556.64 326.41 559.22 316.69 551.07 322.56 556.81 314.31 547.14 317.03 555.35 311.24 545.34 310.49 555.03 307.87 545.88 303.73 555.89 304.58 548.7 297.56 557.81 301.79 553.46 292.72 560.57 299.82 559.57 289.81 563.84 298.92 566.31 289.17 567.21 299.19 572.87 290.88 570.28 300.6 578.44 294.73 572.7 302.99 582.36 300.26 574.16 306.05 584.17 306.8 574.48 309.43 583.63 313.57 573.62 312.71 580.8 319.74 571.7 315.5 576.05 324.57 568.94 317.47 569.93 327.48" fill="#93d7ff"/><path d="M793.9,140.44l-21.66-19.2v-.05a3.09,3.09,0,0,0-6-1L743.18,140.4H726.37v63.35h84.31V140.44Zm-27.79-18.61a3.09,3.09,0,0,0,5.81.71l19.86,17.9H745.27Z" fill="#4b9bd1"/><rect x="733.81" y="147.9" width="69.43" height="47.2" fill="#93d7ff"/><path d="M724.3,140.49h2.08v63.33h-2.47V140.9a.41.41,0,0,1,.41-.41Z" fill="#80cfff"/><path d="M860.21,140.55h74.46a4.92,4.92,0,0,1,4.91,4.92v53.4a4.92,4.92,0,0,1-4.91,4.92H860.21a4.92,4.92,0,0,1-4.91-4.92v-53.4A4.92,4.92,0,0,1,860.21,140.55Z" fill="#80cfff"/><path d="M926.66,140.44a3.35,3.35,0,0,1-2.23-.84l-20.71-18.36v-.05a3.09,3.09,0,0,0-6-1l-22.12,19.42a3.35,3.35,0,0,1-2.21.83h-12.2a3.36,3.36,0,0,0-3.35,3.36v56.62a3.36,3.36,0,0,0,3.35,3.36h77.59a3.36,3.36,0,0,0,3.35-3.36V143.81a3.36,3.36,0,0,0-3.35-3.36ZM895,124.14a3.46,3.46,0,0,1,4.08-.25,3.09,3.09,0,0,0,2.73.17,3.52,3.52,0,0,1,3.79.48l11.14,10a3.36,3.36,0,0,1-2.25,5.86H885.6a3.36,3.36,0,0,1-2.24-5.87Z" fill="#4b9bd1"/><path d="M869.35,147.9h61.32a4.06,4.06,0,0,1,4.05,4.06V191a4.06,4.06,0,0,1-4.05,4.06H869.35A4.06,4.06,0,0,1,865.3,191V152A4.06,4.06,0,0,1,869.35,147.9Z" fill="#80cfff"/><rect x="733.81" y="159.7" width="69.43" height="9.13" fill="#80cfff"/><rect x="733.81" y="175.08" width="69.43" height="9.13" fill="#80cfff"/><polygon points="904.99 189.36 900.72 180.25 898.24 190 897.34 179.98 891.69 188.29 894.27 178.57 886.11 184.44 891.85 176.18 882.19 178.91 890.4 173.12 880.38 172.37 890.08 169.74 880.93 165.6 890.93 166.46 883.75 159.43 892.86 163.67 888.5 154.6 895.61 161.7 894.62 151.69 898.88 160.8 901.36 151.05 902.25 161.07 907.91 152.76 905.34 162.48 913.49 156.61 907.75 164.86 917.41 162.14 909.2 167.93 919.21 168.68 909.52 171.3 918.67 175.44 908.67 174.59 915.86 181.61 906.74 177.38 911.1 186.44 903.99 179.35 904.99 189.36" fill="#93d7ff"/><path d="M766.91,471.22l-28.2-25v-.07a4,4,0,0,0-7.86-1.25l-30,26.32H679v82.45H788.79V471.22ZM730.74,447a4,4,0,0,0,7.57.93l25.84,23.3H703.62Z" fill="#4b9bd1"/><rect x="688.7" y="480.92" width="90.37" height="61.44" fill="#93d7ff"/><path d="M676.32,471.28H679v82.43h-3.23v-81.9a.54.54,0,0,1,.55-.53Z" fill="#80cfff"/><path d="M853.22,471.36h96.91a6.4,6.4,0,0,1,6.4,6.41v69.49a6.4,6.4,0,0,1-6.4,6.41H853.22a6.4,6.4,0,0,1-6.4-6.41V477.77A6.4,6.4,0,0,1,853.22,471.36Z" fill="#80cfff"/><path d="M939.71,471.22a4.37,4.37,0,0,1-2.89-1.1l-26.95-23.89v-.07a4,4,0,0,0-7.86-1.25l-28.79,25.23a4.37,4.37,0,0,1-2.87,1.08H854.53a4.38,4.38,0,0,0-4.37,4.38h0v73.7a4.38,4.38,0,0,0,4.37,4.38h101a4.38,4.38,0,0,0,4.37-4.38h0V475.6a4.38,4.38,0,0,0-4.37-4.38H939.71ZM898.53,450a4.49,4.49,0,0,1,5.31-.33,4,4,0,0,0,3.55.22,4.58,4.58,0,0,1,4.93.63l14.5,13.08a4.38,4.38,0,0,1-2.92,7.63H886.23a4.38,4.38,0,0,1-2.9-7.65Z" fill="#4b9bd1"/><path d="M865.12,480.92h79.83a5.27,5.27,0,0,1,5.27,5.28v50.88a5.28,5.28,0,0,1-5.27,5.28H865.12a5.28,5.28,0,0,1-5.27-5.28V486.2A5.27,5.27,0,0,1,865.12,480.92Z" fill="#80cfff"/><rect x="688.7" y="496.29" width="90.37" height="11.88" fill="#80cfff"/><rect x="688.7" y="516.3" width="90.37" height="11.88" fill="#80cfff"/><polygon points="911.5 534.88 905.94 523.03 902.72 535.72 901.55 522.67 894.2 533.49 897.55 520.84 886.93 528.48 894.41 517.74 881.83 521.28 892.52 513.75 879.48 512.77 892.1 509.35 880.19 503.96 893.21 505.08 883.86 495.93 895.71 501.44 890.04 489.64 899.31 498.88 898 485.85 903.56 497.71 906.78 485.02 907.95 498.06 915.31 487.24 911.95 499.9 922.56 492.26 915.1 503 927.67 499.45 916.98 506.99 930.02 507.97 917.4 511.38 929.31 516.77 916.29 515.66 925.65 524.8 913.79 519.29 919.46 531.09 910.2 521.85 911.5 534.88" fill="#93d7ff"/><path d="M232.85,147.91H136.17a7,7,0,1,0-10,6.24V364.47a7,7,0,1,0,10,7.13h96.73Z" fill="#80cfff"/><path d="M239.83,363.88V154.75a7,7,0,0,0-1.39-13.8h0a7,7,0,0,0-7,7H140a7,7,0,1,0-7,7V363.74a7,7,0,1,0,7,7.86h91.52a7,7,0,0,0,6.9,6.09h0a7,7,0,0,0,1.39-13.8Z" fill="#4b9bd1"/><rect x="143.63" y="157.15" width="85.78" height="204.66" fill="#93d7ff"/><polygon points="143.63 313.21 192.41 264.33 204.13 276.08 229.34 250.82 229.34 361.81 143.63 361.81 143.63 313.21" fill="#80cfff"/><path d="M229.47,229.59a34.6,34.6,0,1,1-.07-38.76" fill="#80cfff"/><path d="M729.14,268.21v90.36a6.5,6.5,0,1,0,5.81,9.38H930.79a6.49,6.49,0,1,0,6.64-9.32V268.21Z" fill="#80cfff"/><path d="M930.24,261.71H735.5a6.49,6.49,0,0,0-12.86,1.3h0a6.51,6.51,0,0,0,6.49,6.5v85.43a6.5,6.5,0,1,0,6.49,6.5H930.11a6.49,6.49,0,1,0,7.32-6.45V269.45a6.52,6.52,0,0,0,5.67-6.45h0a6.49,6.49,0,0,0-12.86-1.3Z" fill="#4b9bd1"/><rect x="737.73" y="271.42" width="190.58" height="80.18" fill="#93d7ff"/><polygon points="883.06 351.6 837.54 306 848.48 295.05 824.96 271.48 928.31 271.48 928.31 351.6 883.06 351.6" fill="#80cfff"/><path d="M805.2,271.36a32.16,32.16,0,1,1-36.09.07" fill="#80cfff"/></g></svg>