<svg id="Layer_1" data-name="Layer 1" xmlns="http://www.w3.org/2000/svg" xmlns:xlink="http://www.w3.org/1999/xlink" viewBox="0 0 111.17 105.32"><defs><style>.cls-1{fill:none;}.cls-2{clip-path:url(#clip-path);}.cls-3{clip-path:url(#clip-path-2);}.cls-4{fill:#3d7aad;}.cls-5{fill:#468ec9;}.cls-6{clip-path:url(#clip-path-3);}.cls-7{clip-path:url(#clip-path-4);}.cls-8{fill:#406fa0;}.cls-9{fill:#ebe67c;}.cls-10{fill:#0f3e5b;}.cls-11{fill:#fa9852;}</style><clipPath id="clip-path"><rect class="cls-1" x="-1422.23" y="1127.47" width="2079.19" height="373.17"/></clipPath><clipPath id="clip-path-2"><rect class="cls-1" x="-2190.82" y="1127.47" width="3582.94" height="525.81"/></clipPath><clipPath id="clip-path-3"><rect class="cls-1" x="743.5" y="1127.52" width="2079.19" height="373.12"/></clipPath><clipPath id="clip-path-4"><rect class="cls-1" x="-25.09" y="1127.52" width="3582.94" height="525.73"/></clipPath></defs><title>room_ellements</title><g class="cls-2"><g class="cls-3"><polygon class="cls-4" points="25.57 -23.93 -42.9 28.71 -111.38 -23.93 -42.9 -76.57 25.57 -23.93"/><polygon class="cls-4" points="25.57 81.35 -42.9 133.99 -111.38 81.35 -42.9 28.71 25.57 81.35"/><polygon class="cls-5" points="94.05 28.71 25.57 81.35 -42.9 28.71 25.57 -23.93 94.05 28.71"/><polygon class="cls-4" points="162.52 -23.93 94.05 28.71 25.57 -23.93 94.05 -76.57 162.52 -23.93"/><polygon class="cls-5" points="94.05 133.99 25.57 186.63 -42.9 133.99 25.57 81.35 94.05 133.99"/><polygon class="cls-4" points="162.52 81.35 94.05 133.99 25.57 81.35 94.05 28.71 162.52 81.35"/><polygon class="cls-5" points="230.99 28.71 162.52 81.35 94.05 28.71 162.52 -23.93 230.99 28.71"/><polygon class="cls-5" points="230.99 133.99 162.52 186.63 94.05 133.99 162.52 81.35 230.99 133.99"/></g></g><path class="cls-8" d="M109.44.09,97.19,4.9a18.69,18.69,0,0,0-8.46-2.44A18.67,18.67,0,0,0,80.27,4.9L68,.09a1.27,1.27,0,0,0-1.65,1.65L70.45,12.1c-2,1.91-3.32,3.36-3.32,3.36s7.91,9,16.48,12c0,11.11-.07,10.71-5.25,20.47a44.23,44.23,0,0,0-15.67-.27c-6.68,1-13.48,4-19,6.38a60.8,60.8,0,0,1-8.47,3.28,6.89,6.89,0,0,1-5.33-1.18l-.55-.58c-2.09-2.21-2.89-5.19-2.43-9.13.09-.73.16-1.44.23-2.15l0,.07c.09-3.16.47-5.88.47-5.88.85-13.18-.76-21.44-5-26.26-2.72-3.06-6.45-4.61-11.09-4.61A11.21,11.21,0,0,0,.44,15.77,10.18,10.18,0,0,0,4.6,27.4a3,3,0,1,0,3.22-5.17A4.15,4.15,0,0,1,6.3,17.44a5.11,5.11,0,0,1,5.24-3.74c2.91,0,5,.81,6.54,2.56,3.73,4.19,4.65,13.83,2.82,29.46-.68,5.78.7,10.5,4.08,14.05a17.74,17.74,0,0,0,5.46,3.8l.09.77a22.72,22.72,0,0,0,4.88,11.9c.86,1.08,1.43,1.85,1.81,2.4a13.41,13.41,0,0,1-4.75,1.56A4.21,4.21,0,0,0,29,83.33l-1.93,7.41a3.92,3.92,0,0,0,.22,2.61,5.94,5.94,0,0,1,.33,4l-.15.56a7,7,0,0,0,.76,5.43,4.4,4.4,0,0,0,4,2h.31l4.8,0a1.52,1.52,0,0,0,1.42-1.52v-2a4.16,4.16,0,0,0-2.6-3.86L35.72,94a4.86,4.86,0,0,1,3.91-5.28l2.28-.43a5.65,5.65,0,0,0,2,3.05h0L55.18,105a1.52,1.52,0,0,0,.9.3h5.15a2.39,2.39,0,0,0,2-3.63,6.24,6.24,0,0,0-4.77-3l-.41,0L51.47,86.26a7.68,7.68,0,0,0,3.35-2.87l3.41-5.32L68,78.6a51.08,51.08,0,0,0,1.66,8.58c1,3.7,2.52,8.65,2.52,8.67L73.42,102a4.06,4.06,0,0,0,4,3.25h0l6.4,0h3a1.63,1.63,0,0,0,1.4-1.63v-1.26a4.52,4.52,0,0,0-1.35-3.23c-.87-.86-4.4-1.33-5.62-1.32-.32-3.85.31-12.79,1.41-15.47s6.93-7.87,7.83-9.21l1.62-.84,0,0c5.21-2.91,7.71-8.8,7.25-17a2,2,0,0,0-.3-.89c-3.42-10-5.26-16.1-5.28-26.83,8.57-3,16.48-12,16.48-12S109.05,14,107,12.1l4.08-10.37A1.27,1.27,0,0,0,109.44.09Z"/><path class="cls-9" d="M77.39,14.31s4.2-7.83,9.7,0C87.09,14.31,82.15,20.84,77.39,14.31Z"/><path class="cls-9" d="M99.69,14.31s-4.2-7.83-9.7,0C90,14.31,94.93,20.84,99.69,14.31Z"/><rect class="cls-10" x="87.87" y="35.51" width="1.53" height="4.54"/><circle class="cls-9" cx="88.6" cy="42.83" r="3.94"/><rect class="cls-11" x="78.44" y="29.71" width="20.32" height="6.48" rx="2.67" ry="2.67"/></svg>