<svg id="Layer_1" data-name="Layer 1" xmlns="http://www.w3.org/2000/svg" xmlns:xlink="http://www.w3.org/1999/xlink" viewBox="0 0 93.03 94.96"><defs><style>.cls-1{fill:none;}.cls-2{clip-path:url(#clip-path);}.cls-3{clip-path:url(#clip-path-2);}.cls-4{fill:#468ec9;}.cls-5{fill:#3d7aad;}.cls-6{clip-path:url(#clip-path-3);}.cls-7{clip-path:url(#clip-path-4);}.cls-8{clip-path:url(#clip-path-5);}.cls-9{fill:#0f3e5b;}.cls-10{fill:#ebe67c;}.cls-11{fill:#fa9852;}</style><clipPath id="clip-path"><rect class="cls-1" x="-967.11" y="1106.43" width="2079.19" height="373.17"/></clipPath><clipPath id="clip-path-2"><rect class="cls-1" x="-1735.7" y="1106.43" width="3582.94" height="525.81"/></clipPath><clipPath id="clip-path-3"><rect class="cls-1" x="1198.62" y="1106.47" width="2079.19" height="373.12"/></clipPath><clipPath id="clip-path-4"><rect class="cls-1" x="430.03" y="1106.47" width="3582.94" height="525.73"/></clipPath><clipPath id="clip-path-5"><rect class="cls-1" x="-3345.45" y="1106.43" width="2079.19" height="373.17"/></clipPath></defs><title>room_ellements</title><g class="cls-2"><g class="cls-3"><polygon class="cls-4" points="1.37 7.66 -67.1 60.3 -135.57 7.66 -67.1 -44.98 1.37 7.66"/><polygon class="cls-5" points="69.85 -44.98 1.37 7.66 -67.1 -44.98 1.37 -97.62 69.85 -44.98"/><polygon class="cls-4" points="1.37 112.94 -67.1 165.59 -135.57 112.94 -67.1 60.3 1.37 112.94"/><polygon class="cls-5" points="69.85 60.3 1.37 112.94 -67.1 60.3 1.37 7.66 69.85 60.3"/><polygon class="cls-4" points="138.32 7.66 69.85 60.3 1.37 7.66 69.85 -44.98 138.32 7.66"/><polygon class="cls-5" points="206.79 -44.98 138.32 7.66 69.85 -44.98 138.32 -97.62 206.79 -44.98"/><polygon class="cls-4" points="138.32 112.94 69.85 165.59 1.37 112.94 69.85 60.3 138.32 112.94"/><polygon class="cls-5" points="206.79 60.3 138.32 112.94 69.85 60.3 138.32 7.66 206.79 60.3"/></g></g><path class="cls-5" d="M92.5,25.63a13.47,13.47,0,0,0-13.34-9.8c-5.58,0-10.07,1.86-13.33,5.54-5.15,5.79-7.09,15.71-6.07,31.56a5.18,5.18,0,0,0-.4-.47,5.5,5.5,0,0,0-6.6-.37l-6.43,4.3c-6.2-11.7-9.5-10.06-9.53-23.34,10.3-3.6,19.8-14.45,19.8-14.45s-1.53-1.73-4-4l4.9-12.46a1.53,1.53,0,0,0-2-2L40.82,5.89A22.46,22.46,0,0,0,30.65,3,22.44,22.44,0,0,0,20.48,5.89L5.76.11a1.53,1.53,0,0,0-2,2l4.9,12.46c-2.46,2.3-4,4-4,4S14.2,29.43,24.5,33c0,13.36-3.3,11.61-9.53,23.34l-6.43-4.3A5.49,5.49,0,0,0,.48,58.9L11.79,84H6.86a5.49,5.49,0,0,0,0,11H20.28a5.48,5.48,0,0,0,3.49-1.29,20.63,20.63,0,0,0,13.75,0A5.49,5.49,0,0,0,41,95H54.44a5.49,5.49,0,0,0,0-11h-.06A22.63,22.63,0,0,0,63,78.53c4.07-4.27,5.72-10,4.9-16.89-2.2-18.79-1.09-30.37,3.39-35.41,1.87-2.1,4.37-3.08,7.86-3.08a6.14,6.14,0,0,1,6.3,4.49c.52,1.81.35,4.4-1.83,5.76a3.66,3.66,0,1,0,3.87,6.22,12.24,12.24,0,0,0,5-14ZM57.72,73.47a14.74,14.74,0,0,1-5,3.29l7.59-16.85c.09.85.18,1.7.28,2.58.55,4.73-.4,8.32-2.92,11Zm0,0"/><rect class="cls-9" x="30.04" y="40.13" width="1.53" height="4.54"/><circle class="cls-10" cx="30.77" cy="47.45" r="3.94"/><rect class="cls-11" x="20.61" y="34.34" width="20.32" height="6.48" rx="2.67" ry="2.67"/></svg>