<svg id="Layer_1" data-name="Layer 1" xmlns="http://www.w3.org/2000/svg" xmlns:xlink="http://www.w3.org/1999/xlink" viewBox="0 0 25.7 17"><defs><style>.cls-1{fill:none;}.cls-2{clip-path:url(#clip-path);}.cls-3{clip-path:url(#clip-path-2);}.cls-4{fill:#468ec9;}.cls-5{fill:#3d7aad;}.cls-6{clip-path:url(#clip-path-3);}.cls-7{clip-path:url(#clip-path-4);}</style><clipPath id="clip-path"><rect class="cls-1" x="-1360.09" y="970.25" width="2079.19" height="373.17"/></clipPath><clipPath id="clip-path-2"><rect class="cls-1" x="-2128.68" y="970.25" width="3582.94" height="525.81"/></clipPath><clipPath id="clip-path-3"><rect class="cls-1" x="805.64" y="970.29" width="2079.19" height="373.12"/></clipPath><clipPath id="clip-path-4"><rect class="cls-1" x="37.05" y="970.29" width="3582.94" height="525.73"/></clipPath></defs><title>room_ellements</title><g class="cls-2"><g class="cls-3"><polygon class="cls-4" points="19.24 -23.23 -49.23 29.41 -117.71 -23.23 -49.23 -75.87 19.24 -23.23"/><polygon class="cls-5" points="87.71 29.41 19.24 82.05 -49.23 29.41 19.24 -23.23 87.71 29.41"/><polygon class="cls-4" points="156.19 -23.23 87.71 29.41 19.24 -23.23 87.71 -75.87 156.19 -23.23"/></g></g><path class="cls-4" d="M24.89,8.56h0Z"/><path class="cls-4" d="M3.22,8.5a2.21,2.21,0,0,1,.86-1.36l-4-2L1.82,8.42.13,11.73H.37L4.25,9.87C3.61,9.32,3.22,8.85,3.22,8.5Z"/><path class="cls-4" d="M15.68,14.91a9.45,9.45,0,0,1-2.53-.48v.46L12.42,17h.35a12.37,12.37,0,0,0,9.75-4.61A9.61,9.61,0,0,1,15.68,14.91Z"/><path class="cls-4" d="M15.65,2.12a9.78,9.78,0,0,1,6.94,2.76A13.35,13.35,0,0,0,12.85,0h-.48l.88,2.2v.31A9.55,9.55,0,0,1,15.65,2.12Z"/><path class="cls-4" d="M24.88,8.58h0a1.59,1.59,0,0,0,.62-.24.5.5,0,0,0-.7-.71.67.67,0,0,0-.12.22,9.57,9.57,0,0,0-2.09-2.93,9.78,9.78,0,0,0-6.94-2.76,9.55,9.55,0,0,0-2.4.39c-3.15.85-7.38,2.95-9.17,4.63A2.21,2.21,0,0,0,3.22,8.5c0,.34.39.82,1,1.37a30.27,30.27,0,0,0,8.9,4.56,9.45,9.45,0,0,0,2.53.48,9.61,9.61,0,0,0,6.83-2.52,8.86,8.86,0,0,0,2.16-3.07.65.65,0,0,0,.12.22.5.5,0,1,0,.71-.7A1.61,1.61,0,0,0,24.88,8.58Z"/><circle class="cls-4" cx="20.64" cy="8.37" r="1.9" transform="translate(12.16 28.96) rotate(-89.7)"/><circle class="cls-4" cx="20.63" cy="8.37" r="0.95" transform="translate(12.16 28.96) rotate(-89.72)"/><path class="cls-4" d="M15.21,4.25a10.37,10.37,0,0,0,0,8.53Z"/><path class="cls-4" d="M12.42,5.37a7.61,7.61,0,0,0,0,6.26Z"/><path class="cls-4" d="M10,6.22a5.5,5.5,0,0,0,0,4.53Z"/><path class="cls-4" d="M7.56,6.75a4.19,4.19,0,0,0,0,3.45Z"/></svg>