<svg id="Layer_1" data-name="Layer 1" xmlns="http://www.w3.org/2000/svg" viewBox="0 0 1806 118"><defs><style>.cls-1{fill:#468ec9;}</style></defs><title>room_ellements</title><path class="cls-1" d="M48.51,82.2h0Z"/><path class="cls-1" d="M26.84,82.13a2.21,2.21,0,0,1,.86-1.36l-4-2L25.44,82l-1.69,3.32H24l3.88-1.87C27.23,83,26.84,82.48,26.84,82.13Z"/><path class="cls-1" d="M39.31,88.54a9.45,9.45,0,0,1-2.53-.48v.46L36,90.63h.35A12.37,12.37,0,0,0,46.14,86,9.61,9.61,0,0,1,39.31,88.54Z"/><path class="cls-1" d="M39.27,75.76a9.78,9.78,0,0,1,6.94,2.76,13.35,13.35,0,0,0-9.74-4.87H36l.88,2.2v.31A9.55,9.55,0,0,1,39.27,75.76Z"/><path class="cls-1" d="M48.51,82.21h0a1.59,1.59,0,0,0,.62-.24.5.5,0,0,0-.7-.71.67.67,0,0,0-.12.22,9.57,9.57,0,0,0-2.09-2.93,9.78,9.78,0,0,0-6.94-2.76,9.55,9.55,0,0,0-2.4.39c-3.15.85-7.38,2.95-9.17,4.63a2.21,2.21,0,0,0-.86,1.36c0,.34.39.82,1,1.37a30.27,30.27,0,0,0,8.9,4.56,9.45,9.45,0,0,0,2.53.48A9.61,9.61,0,0,0,46.14,86a8.86,8.86,0,0,0,2.16-3.07.65.65,0,0,0,.12.22.5.5,0,1,0,.71-.7A1.61,1.61,0,0,0,48.51,82.21Z"/><circle class="cls-1" cx="44.26" cy="82" r="1.9" transform="translate(-37.97 125.84) rotate(-89.7)"/><circle class="cls-1" cx="44.26" cy="82" r="0.95" transform="translate(-37.96 125.85) rotate(-89.72)"/><path class="cls-1" d="M38.84,77.88a10.37,10.37,0,0,0,0,8.53Z"/><path class="cls-1" d="M36,79a7.61,7.61,0,0,0,0,6.26Z"/><path class="cls-1" d="M33.66,79.86a5.5,5.5,0,0,0,0,4.53Z"/><path class="cls-1" d="M31.19,80.39a4.19,4.19,0,0,0,0,3.45Z"/><path class="cls-1" d="M140.5,78.29h0Z"/><path class="cls-1" d="M120.3,86.12a2.21,2.21,0,0,1,.3-1.58l-4.48-.39,2.84,2.4-.37,3.71.23-.09L121.76,87C121,86.75,120.42,86.45,120.3,86.12Z"/><path class="cls-1" d="M134.24,87.55a9.45,9.45,0,0,1-2.53.48l.17.43.08,2.23.33-.14h0a12.37,12.37,0,0,0,7.4-7.85A9.61,9.61,0,0,1,134.24,87.55Z"/><path class="cls-1" d="M129.55,75.66a9.78,9.78,0,0,1,7.47,0,13.35,13.35,0,0,0-10.85-1h0l-.45.16,1.62,1.73.11.29A9.55,9.55,0,0,1,129.55,75.66Z"/><path class="cls-1" d="M140.5,78.31h0a1.59,1.59,0,0,0,.49-.45.5.5,0,0,0-.91-.4.67.67,0,0,0,0,.25,9.57,9.57,0,0,0-3-2,9.78,9.78,0,0,0-7.47,0,9.55,9.55,0,0,0-2.09,1.24c-2.62,1.94-5.8,5.43-6.85,7.65a2.21,2.21,0,0,0-.3,1.58c.12.32.66.63,1.46.9a30.27,30.27,0,0,0,10,1,9.45,9.45,0,0,0,2.53-.48,9.61,9.61,0,0,0,5.45-4.84,8.86,8.86,0,0,0,.89-3.65.65.65,0,0,0,.19.16.5.5,0,1,0,.4-.91A1.61,1.61,0,0,0,140.5,78.31Z"/><circle class="cls-1" cx="136.47" cy="79.66" r="1.9" transform="translate(-19.52 54.41) rotate(-21.08)"/><circle class="cls-1" cx="136.47" cy="79.66" r="0.95" transform="translate(-19.52 54.43) rotate(-21.09)"/><path class="cls-1" d="M129.92,77.79a10.37,10.37,0,0,0,3.07,8Z"/><path class="cls-1" d="M127.72,79.86A7.61,7.61,0,0,0,130,85.7Z"/><path class="cls-1" d="M125.82,81.52a5.5,5.5,0,0,0,1.63,4.23Z"/><path class="cls-1" d="M123.71,82.92a4.19,4.19,0,0,0,1.24,3.22Z"/><path class="cls-1" d="M226.5,78.29h0Z"/><path class="cls-1" d="M206.3,86.12a2.21,2.21,0,0,1,.3-1.58l-4.48-.39,2.84,2.4-.37,3.71.23-.09L207.76,87C207,86.75,206.42,86.45,206.3,86.12Z"/><path class="cls-1" d="M220.24,87.55a9.45,9.45,0,0,1-2.53.48l.17.43.08,2.23.33-.14h0a12.37,12.37,0,0,0,7.4-7.85A9.61,9.61,0,0,1,220.24,87.55Z"/><path class="cls-1" d="M215.55,75.66a9.78,9.78,0,0,1,7.47,0,13.35,13.35,0,0,0-10.85-1h0l-.45.16,1.62,1.73.11.29A9.55,9.55,0,0,1,215.55,75.66Z"/><path class="cls-1" d="M226.5,78.31h0a1.59,1.59,0,0,0,.49-.45.5.5,0,0,0-.91-.4.67.67,0,0,0,0,.25,9.57,9.57,0,0,0-3-2,9.78,9.78,0,0,0-7.47,0,9.55,9.55,0,0,0-2.09,1.24c-2.62,1.94-5.8,5.43-6.85,7.65a2.21,2.21,0,0,0-.3,1.58c.12.32.66.63,1.46.9a30.27,30.27,0,0,0,10,1,9.45,9.45,0,0,0,2.53-.48,9.61,9.61,0,0,0,5.45-4.84,8.86,8.86,0,0,0,.89-3.65.65.65,0,0,0,.19.16.5.5,0,1,0,.4-.91A1.61,1.61,0,0,0,226.5,78.31Z"/><circle class="cls-1" cx="222.47" cy="79.66" r="1.9" transform="translate(-13.76 85.33) rotate(-21.08)"/><circle class="cls-1" cx="222.47" cy="79.66" r="0.95" transform="translate(-13.76 85.38) rotate(-21.09)"/><path class="cls-1" d="M215.92,77.79a10.37,10.37,0,0,0,3.07,8Z"/><path class="cls-1" d="M213.72,79.86A7.61,7.61,0,0,0,216,85.7Z"/><path class="cls-1" d="M211.82,81.52a5.5,5.5,0,0,0,1.63,4.23Z"/><path class="cls-1" d="M209.71,82.92a4.19,4.19,0,0,0,1.24,3.22Z"/><path class="cls-1" d="M1774.83,82.73h0Z"/><path class="cls-1" d="M1754.63,74.89a2.21,2.21,0,0,0,.3,1.58l-4.48.39,2.84-2.4-.37-3.71.23.09,2.93,3.15C1755.29,74.27,1754.75,74.57,1754.63,74.89Z"/><path class="cls-1" d="M1768.57,73.47A9.45,9.45,0,0,0,1766,73l.17-.43.08-2.23.33.14h0a12.37,12.37,0,0,1,7.4,7.85A9.61,9.61,0,0,0,1768.57,73.47Z"/><path class="cls-1" d="M1763.88,85.36a9.78,9.78,0,0,0,7.47,0,13.35,13.35,0,0,1-10.85,1h0l-.45-.16,1.62-1.73.11-.29A9.55,9.55,0,0,0,1763.88,85.36Z"/><path class="cls-1" d="M1774.83,82.71h0a1.59,1.59,0,0,1,.49.45.5.5,0,0,1-.91.4.67.67,0,0,1,0-.25,9.57,9.57,0,0,1-3,2,9.78,9.78,0,0,1-7.47,0,9.55,9.55,0,0,1-2.09-1.24c-2.62-1.94-5.8-5.43-6.85-7.65a2.21,2.21,0,0,1-.3-1.58c.12-.32.66-.63,1.46-.9a30.27,30.27,0,0,1,10-1,9.45,9.45,0,0,1,2.53.48A9.61,9.61,0,0,1,1774,78.3a8.86,8.86,0,0,1,.89,3.65.65.65,0,0,1,.19-.16.5.5,0,1,1,.4.91A1.61,1.61,0,0,1,1774.83,82.71Z"/><circle class="cls-1" cx="1770.8" cy="81.36" r="1.9" transform="translate(1058.07 1704.44) rotate(-68.92)"/><circle class="cls-1" cx="1770.8" cy="81.36" r="0.95" transform="translate(1057.76 1704.3) rotate(-68.91)"/><path class="cls-1" d="M1764.25,83.22a10.37,10.37,0,0,1,3.07-8Z"/><path class="cls-1" d="M1762.05,81.16a7.61,7.61,0,0,1,2.25-5.84Z"/><path class="cls-1" d="M1760.15,79.5a5.5,5.5,0,0,1,1.63-4.23Z"/><path class="cls-1" d="M1758,78.1a4.19,4.19,0,0,1,1.24-3.22Z"/><polygon class="cls-1" points="1495.75 70.9 1495.75 70.9 1495.76 70.9 1495.75 70.9"/><path class="cls-1" d="M1489.57,50.13c-.37.11-.73.55-1.06,1.21l-3.06-3.3,3.64.78,2.7-2.56.07.23-.7,4.25C1490.47,50.27,1489.9,50,1489.57,50.13Z"/><path class="cls-1" d="M1499.24,60.28a9.45,9.45,0,0,0-1.17-2.29l.44-.13,1.81-1.3c0,.11.06.23.09.35h0a12.37,12.37,0,0,1-1.67,10.66A9.61,9.61,0,0,0,1499.24,60.28Z"/><path class="cls-1" d="M1487,63.86a9.78,9.78,0,0,0,4.61,5.88,13.35,13.35,0,0,1-7.42-8h0c-.05-.15-.1-.3-.15-.45l2.36.22.3-.09A9.55,9.55,0,0,0,1487,63.86Z"/><path class="cls-1" d="M1495.77,70.89h0a1.59,1.59,0,0,1-.06.66.5.5,0,0,1-.88-.47.67.67,0,0,1,.17-.18,9.57,9.57,0,0,1-3.41-1.18,9.78,9.78,0,0,1-4.61-5.88,9.55,9.55,0,0,1-.3-2.41c-.07-3.26.74-7.91,1.85-10.1.33-.66.69-1.1,1.06-1.21s.9.14,1.6.6a30.27,30.27,0,0,1,6.89,7.25,9.45,9.45,0,0,1,1.17,2.29,9.61,9.61,0,0,1-.49,7.27,8.86,8.86,0,0,1-2.34,2.94.65.65,0,0,1,.24.05.5.5,0,1,1-.47.88A1.61,1.61,0,0,1,1495.77,70.89Z"/><circle class="cls-1" cx="1494.37" cy="66.88" r="1.9" transform="translate(43.82 432.28) rotate(-16.7)"/><circle class="cls-1" cx="1494.36" cy="66.88" r="0.95" transform="translate(43.75 432.01) rotate(-16.69)"/><path class="cls-1" d="M1488.88,62.84a10.37,10.37,0,0,1,8.17-2.45Z"/><path class="cls-1" d="M1489.17,59.84a7.61,7.61,0,0,1,6-1.8Z"/><path class="cls-1" d="M1489.32,57.32a5.5,5.5,0,0,1,4.34-1.3Z"/><path class="cls-1" d="M1489.12,54.79a4.19,4.19,0,0,1,3.3-1Z"/><path class="cls-1" d="M315.43,71.72h0Z"/><path class="cls-1" d="M298,84.63a2.21,2.21,0,0,1-.12-1.6l-4.43.81,3.38,1.56.63,3.67.2-.15,2-3.82C298.83,85.06,298.23,84.91,298,84.63Z"/><path class="cls-1" d="M311.84,82.32a9.45,9.45,0,0,1-2.31,1.13l.27.37.67,2.12.28-.22v0a12.37,12.37,0,0,0,5.06-9.53A9.61,9.61,0,0,1,311.84,82.32Z"/><path class="cls-1" d="M304.17,72.09a9.78,9.78,0,0,1,7.21-1.94,13.35,13.35,0,0,0-10.72,1.92h0l-.39.28,2,1.24.18.25A9.55,9.55,0,0,1,304.17,72.09Z"/><path class="cls-1" d="M315.43,71.74h0a1.59,1.59,0,0,0,.35-.56.5.5,0,0,0-1-.15.67.67,0,0,0,0,.25,9.57,9.57,0,0,0-3.43-1.1,9.78,9.78,0,0,0-7.21,1.94,9.55,9.55,0,0,0-1.69,1.75c-2,2.57-4.15,6.78-4.58,9.19a2.21,2.21,0,0,0,.12,1.6c.2.28.8.43,1.65.48a30.27,30.27,0,0,0,9.86-1.66,9.45,9.45,0,0,0,2.31-1.13,9.61,9.61,0,0,0,4-6.11,8.86,8.86,0,0,0-.11-3.75.65.65,0,0,0,.23.1.5.5,0,1,0,.15-1A1.61,1.61,0,0,0,315.43,71.74Z"/><circle class="cls-1" cx="311.9" cy="74.11" r="1.9" transform="translate(16.94 199.7) rotate(-36.43)"/><circle class="cls-1" cx="311.9" cy="74.11" r="0.95" transform="translate(16.96 199.75) rotate(-36.44)"/><path class="cls-1" d="M305.09,74.05a10.37,10.37,0,0,0,5.07,6.87Z"/><path class="cls-1" d="M303.52,76.62a7.61,7.61,0,0,0,3.72,5Z"/><path class="cls-1" d="M302.13,78.73a5.5,5.5,0,0,0,2.69,3.64Z"/><path class="cls-1" d="M300.46,80.64a4.19,4.19,0,0,0,2,2.77Z"/><polygon class="cls-1" points="400.71 60.93 400.71 60.93 400.72 60.94 400.71 60.93"/><path class="cls-1" d="M390.15,79.85a2.21,2.21,0,0,1-.77-1.41L385.68,81l3.72,0,2.08,3.09.12-.21.25-4.3A2.4,2.4,0,0,1,390.15,79.85Z"/><path class="cls-1" d="M401.8,72.06a9.45,9.45,0,0,1-1.64,2l.4.23L402,75.93l.17-.32h0a12.37,12.37,0,0,0,.7-10.77A9.61,9.61,0,0,1,401.8,72.06Z"/><path class="cls-1" d="M390.6,65.89a9.78,9.78,0,0,1,5.78-4.73,13.35,13.35,0,0,0-9,6.16h0l-.24.41,2.35.3.27.15A9.55,9.55,0,0,1,390.6,65.89Z"/><path class="cls-1" d="M400.73,60.94h0a1.59,1.59,0,0,0,.09-.66.5.5,0,0,0-1,.27.67.67,0,0,0,.13.21,9.57,9.57,0,0,0-3.58.41,9.78,9.78,0,0,0-5.78,4.73,9.55,9.55,0,0,0-.82,2.29c-.78,3.17-1,7.88-.4,10.26a2.21,2.21,0,0,0,.77,1.41,2.4,2.4,0,0,0,1.7-.24A30.27,30.27,0,0,0,400.16,74a9.45,9.45,0,0,0,1.64-2,9.61,9.61,0,0,0,1.11-7.2,8.86,8.86,0,0,0-1.64-3.38.65.65,0,0,0,.25,0,.5.5,0,1,0-.27-1A1.61,1.61,0,0,0,400.73,60.94Z"/><circle class="cls-1" cx="398.48" cy="64.56" r="1.9" transform="translate(147.17 380.46) rotate(-60.7)"/><circle class="cls-1" cx="398.48" cy="64.56" r="0.95" transform="translate(147.23 380.51) rotate(-60.71)"/><path class="cls-1" d="M392.25,67.3a10.37,10.37,0,0,0,7.44,4.18Z"/><path class="cls-1" d="M391.88,70.29a7.61,7.61,0,0,0,5.46,3.06Z"/><path class="cls-1" d="M391.47,72.78a5.5,5.5,0,0,0,4,2.22Z"/><path class="cls-1" d="M390.73,75.21a4.19,4.19,0,0,0,3,1.69Z"/><polygon class="cls-1" points="485.65 52.69 485.64 52.7 485.65 52.7 485.65 52.69"/><path class="cls-1" d="M479.47,73.46c-.37-.11-.73-.55-1.06-1.21l-3.06,3.3,3.64-.78,2.7,2.56.07-.23-.7-4.25C480.37,73.32,479.8,73.56,479.47,73.46Z"/><path class="cls-1" d="M489.14,63.32A9.45,9.45,0,0,1,488,65.61l.44.13,1.81,1.3c0-.11.06-.23.09-.35h0A12.37,12.37,0,0,0,488.65,56,9.61,9.61,0,0,1,489.14,63.32Z"/><path class="cls-1" d="M476.86,59.74a9.78,9.78,0,0,1,4.61-5.88,13.35,13.35,0,0,0-7.42,8h0c-.05.15-.1.3-.15.45l2.36-.22.3.09A9.55,9.55,0,0,1,476.86,59.74Z"/><path class="cls-1" d="M485.66,52.7h0a1.59,1.59,0,0,0-.06-.66.5.5,0,0,0-.88.47.67.67,0,0,0,.17.18,9.57,9.57,0,0,0-3.41,1.18,9.78,9.78,0,0,0-4.61,5.88,9.55,9.55,0,0,0-.3,2.41c-.07,3.26.74,7.91,1.85,10.1.33.66.69,1.1,1.06,1.21s.9-.14,1.6-.6A30.27,30.27,0,0,0,488,65.61a9.45,9.45,0,0,0,1.17-2.29,9.61,9.61,0,0,0-.49-7.27,8.86,8.86,0,0,0-2.34-2.94.65.65,0,0,0,.24-.05.5.5,0,1,0-.47-.88A1.61,1.61,0,0,0,485.66,52.7Z"/><circle class="cls-1" cx="484.26" cy="56.72" r="1.9" transform="matrix(0.29, -0.96, 0.96, 0.29, 290.76, 504.25)"/><circle class="cls-1" cx="484.26" cy="56.72" r="0.95" transform="translate(290.85 504.29) rotate(-73.31)"/><path class="cls-1" d="M478.78,60.76A10.37,10.37,0,0,0,487,63.21Z"/><path class="cls-1" d="M479.06,63.76a7.61,7.61,0,0,0,6,1.8Z"/><path class="cls-1" d="M479.21,66.28a5.5,5.5,0,0,0,4.34,1.3Z"/><path class="cls-1" d="M479,68.8a4.19,4.19,0,0,0,3.3,1Z"/><path class="cls-1" d="M573.53,36.12h0Z"/><path class="cls-1" d="M571.48,57.7a2.21,2.21,0,0,1-1.27-1l-2.36,3.83,3.42-1.47,3.15,2,0-.24-1.5-4C572.34,57.39,571.82,57.73,571.48,57.7Z"/><path class="cls-1" d="M579,45.87a9.45,9.45,0,0,1-.71,2.47l.46,0,2,.93c0-.12,0-.24,0-.36h0a12.37,12.37,0,0,0-3.7-10.14A9.61,9.61,0,0,1,579,45.87Z"/><path class="cls-1" d="M566.27,44.73a9.78,9.78,0,0,1,3.39-6.66,13.35,13.35,0,0,0-5.74,9.25h0c0,.16,0,.31-.06.47l2.28-.67.31,0A9.55,9.55,0,0,1,566.27,44.73Z"/><path class="cls-1" d="M573.55,36.13h0a1.59,1.59,0,0,0-.18-.64.5.5,0,0,0-.77.63.67.67,0,0,0,.21.14,9.57,9.57,0,0,0-3.11,1.81,9.78,9.78,0,0,0-3.39,6.66,9.55,9.55,0,0,0,.17,2.43c.56,3.22,2.26,7.62,3.77,9.56a2.21,2.21,0,0,0,1.27,1c.34,0,.86-.31,1.46-.9a30.27,30.27,0,0,0,5.36-8.45,9.45,9.45,0,0,0,.71-2.47,9.61,9.61,0,0,0-1.88-7,8.86,8.86,0,0,0-2.86-2.43.65.65,0,0,0,.23-.1.5.5,0,1,0-.63-.77A1.61,1.61,0,0,0,573.55,36.13Z"/><circle class="cls-1" cx="572.94" cy="40.34" r="1.9" transform="translate(477.32 606.69) rotate(-84.44)"/><circle class="cls-1" cx="572.94" cy="40.34" r="0.95" transform="translate(477.42 606.71) rotate(-84.45)"/><path class="cls-1" d="M568.35,45.36a10.37,10.37,0,0,0,8.49.83Z"/><path class="cls-1" d="M569.21,48.25a7.61,7.61,0,0,0,6.23.61Z"/><path class="cls-1" d="M569.84,50.7a5.5,5.5,0,0,0,4.51.44Z"/><path class="cls-1" d="M570.14,53.21a4.19,4.19,0,0,0,3.43.33Z"/><polygon class="cls-1" points="656.41 26.13 656.4 26.13 656.41 26.13 656.41 26.13"/><path class="cls-1" d="M659.49,47.57a2.21,2.21,0,0,1-1.47-.65l-1.4,4.28,3-2.23,3.53,1.19,0-.24-2.41-3.57C660.25,47.07,659.84,47.52,659.49,47.57Z"/><path class="cls-1" d="M664,34.31a9.45,9.45,0,0,1-.11,2.57l.46-.06,2.19.42c0-.12,0-.24-.06-.35h0a12.37,12.37,0,0,0-6-9A9.61,9.61,0,0,1,664,34.31Z"/><path class="cls-1" d="M651.38,36.2a9.78,9.78,0,0,1,1.72-7.27,13.35,13.35,0,0,0-3.41,10.34h0c0,.16,0,.32.06.47l2.05-1.19.31,0A9.55,9.55,0,0,1,651.38,36.2Z"/><path class="cls-1" d="M656.43,26.13h0a1.63,1.63,0,0,0-.33-.58.5.5,0,0,0-.6.8.67.67,0,0,0,.23.09,9.57,9.57,0,0,0-2.6,2.49,9.78,9.78,0,0,0-1.72,7.27,9.55,9.55,0,0,0,.74,2.32c1.3,3,4,6.87,5.91,8.4a2.21,2.21,0,0,0,1.47.65c.34,0,.76-.5,1.2-1.22a30.27,30.27,0,0,0,3.22-9.47,9.45,9.45,0,0,0,.11-2.57,9.61,9.61,0,0,0-3.49-6.4,8.86,8.86,0,0,0-3.35-1.69.65.65,0,0,0,.2-.15.5.5,0,1,0-.8-.6A1.61,1.61,0,0,0,656.43,26.13Z"/><circle class="cls-1" cx="656.83" cy="30.36" r="1.9" transform="translate(2.23 92.35) rotate(-8.06)"/><circle class="cls-1" cx="656.83" cy="30.36" r="0.95" transform="translate(2.24 92.47) rotate(-8.07)"/><path class="cls-1" d="M653.55,36.32a10.37,10.37,0,0,0,8.45-1.2Z"/><path class="cls-1" d="M655.06,38.93a7.61,7.61,0,0,0,6.2-.88Z"/><path class="cls-1" d="M656.25,41.16a5.5,5.5,0,0,0,4.48-.64Z"/><path class="cls-1" d="M657.14,43.53a4.19,4.19,0,0,0,3.41-.48Z"/><polygon class="cls-1" points="740.71 18.49 740.71 18.5 740.72 18.49 740.71 18.49"/><path class="cls-1" d="M746.85,39.27a2.21,2.21,0,0,1-1.55-.43l-.77,4.44,2.63-2.64,3.66.67-.07-.23-2.9-3.18C747.53,38.67,747.18,39.18,746.85,39.27Z"/><path class="cls-1" d="M749.43,25.5a9.45,9.45,0,0,1,.27,2.56l.45-.13,2.22.1c0-.11-.07-.23-.11-.34h0a12.37,12.37,0,0,0-7.21-8A9.61,9.61,0,0,1,749.43,25.5Z"/><path class="cls-1" d="M737.18,29.18a9.78,9.78,0,0,1,.66-7.44A13.35,13.35,0,0,0,736,32.47h0c0,.15.08.31.12.46l1.86-1.47.3-.09A9.55,9.55,0,0,1,737.18,29.18Z"/><path class="cls-1" d="M740.73,18.49h0a1.59,1.59,0,0,0-.41-.52.5.5,0,0,0-.48.88.67.67,0,0,0,.24.06,9.57,9.57,0,0,0-2.21,2.84,9.78,9.78,0,0,0-.66,7.44,9.55,9.55,0,0,0,1.06,2.19c1.72,2.77,4.93,6.23,7.06,7.46a2.21,2.21,0,0,0,1.55.43c.33-.1.68-.61,1-1.38a30.27,30.27,0,0,0,1.83-9.83,9.45,9.45,0,0,0-.27-2.56,9.61,9.61,0,0,0-4.37-5.83,8.86,8.86,0,0,0-3.56-1.19.65.65,0,0,0,.17-.18.5.5,0,1,0-.88-.48A1.61,1.61,0,0,0,740.73,18.49Z"/><circle class="cls-1" cx="741.74" cy="22.62" r="1.9" transform="matrix(0.96, -0.28, 0.28, 0.96, 23.52, 209.31)"/><circle class="cls-1" cx="741.74" cy="22.62" r="0.95" transform="translate(23.56 209.44) rotate(-16.33)"/><path class="cls-1" d="M739.34,29a10.37,10.37,0,0,0,8.19-2.4Z"/><path class="cls-1" d="M741.22,31.35a7.61,7.61,0,0,0,6-1.76Z"/><path class="cls-1" d="M742.72,33.39a5.5,5.5,0,0,0,4.35-1.27Z"/><path class="cls-1" d="M743.93,35.61a4.19,4.19,0,0,0,3.31-1Z"/><polygon class="cls-1" points="816.19 13.12 816.18 13.12 816.19 13.11 816.19 13.12"/><path class="cls-1" d="M833,26.84a2.21,2.21,0,0,1-1.52.51l1.86,4.1.69-3.66,3.41-1.5-.19-.16-4.19-1A2.4,2.4,0,0,1,833,26.84Z"/><path class="cls-1" d="M827.33,14A9.45,9.45,0,0,1,829,16l.3-.36,1.9-1.17-.28-.22h0a12.37,12.37,0,0,0-10.48-2.58A9.61,9.61,0,0,1,827.33,14Z"/><path class="cls-1" d="M819.28,23.94a9.78,9.78,0,0,1-3.64-6.52,13.35,13.35,0,0,0,4.48,9.93h0l.36.31.71-2.27.2-.24A9.55,9.55,0,0,1,819.28,23.94Z"/><path class="cls-1" d="M816.2,13.1h0a1.59,1.59,0,0,0-.63-.2.5.5,0,0,0,.1,1,.67.67,0,0,0,.23-.09,9.57,9.57,0,0,0-.23,3.6,9.78,9.78,0,0,0,3.64,6.52,9.55,9.55,0,0,0,2.11,1.21c3,1.33,7.58,2.37,10,2.2a2.21,2.21,0,0,0,1.52-.51,2.4,2.4,0,0,0,.06-1.71A30.27,30.27,0,0,0,829,16a9.45,9.45,0,0,0-1.66-2,9.61,9.61,0,0,0-6.89-2.36,8.86,8.86,0,0,0-3.61,1,.65.65,0,0,0,0-.24.5.5,0,1,0-1,.1A1.61,1.61,0,0,0,816.2,13.1Z"/><circle class="cls-1" cx="819.36" cy="15.95" r="1.9" transform="translate(286.51 638.59) rotate(-50.56)"/><circle class="cls-1" cx="819.36" cy="15.95" r="0.95" transform="translate(286.62 638.69) rotate(-50.57)"/><path class="cls-1" d="M821,22.57A10.37,10.37,0,0,0,826.39,16Z"/><path class="cls-1" d="M823.84,23.46a7.61,7.61,0,0,0,4-4.84Z"/><path class="cls-1" d="M826.23,24.3a5.5,5.5,0,0,0,2.88-3.5Z"/><path class="cls-1" d="M828.48,25.46a4.19,4.19,0,0,0,2.19-2.66Z"/><path class="cls-1" d="M895.36,15.44h0Z"/><path class="cls-1" d="M916.68,19.33c-.07.38-.47.78-1.08,1.18l3.61,2.68L918,19.66l2.25-3-.24,0L915.9,17.8C916.44,18.45,916.74,19,916.68,19.33Z"/><path class="cls-1" d="M905.55,10.82a9.45,9.45,0,0,1,2.4.92l.09-.46,1.1-1.94-.35-.05h0a12.37,12.37,0,0,0-10.42,2.81A9.61,9.61,0,0,1,905.55,10.82Z"/><path class="cls-1" d="M903.32,23.41A9.78,9.78,0,0,1,897,19.47,13.35,13.35,0,0,0,905.7,26h0l.47.1-.48-2.33.06-.3A9.55,9.55,0,0,1,903.32,23.41Z"/><path class="cls-1" d="M895.37,15.42h0a1.59,1.59,0,0,0-.65.13.5.5,0,0,0,.57.82.67.67,0,0,0,.16-.19A9.57,9.57,0,0,0,897,19.47a9.78,9.78,0,0,0,6.34,3.94,9.55,9.55,0,0,0,2.43,0c3.25-.28,7.78-1.6,9.84-2.93.62-.4,1-.81,1.08-1.18s-.24-.88-.78-1.53a30.27,30.27,0,0,0-8-6.07,9.45,9.45,0,0,0-2.4-.92,9.61,9.61,0,0,0-7.17,1.27,8.86,8.86,0,0,0-2.66,2.64.65.65,0,0,0-.08-.23.5.5,0,1,0-.82.57A1.61,1.61,0,0,0,895.37,15.42Z"/><circle class="cls-1" cx="899.51" cy="16.38" r="1.9" transform="translate(719.89 897.93) rotate(-79.53)"/><circle class="cls-1" cx="899.52" cy="16.38" r="0.95" transform="translate(720.05 897.97) rotate(-79.54)"/><path class="cls-1" d="M904.12,21.39A10.37,10.37,0,0,0,905.67,13Z"/><path class="cls-1" d="M907.07,20.78a7.61,7.61,0,0,0,1.14-6.16Z"/><path class="cls-1" d="M909.56,20.36a5.5,5.5,0,0,0,.82-4.45Z"/><path class="cls-1" d="M912.1,20.28a4.19,4.19,0,0,0,.63-3.39Z"/><path class="cls-1" d="M976.77,18.69h0Z"/><path class="cls-1" d="M998.31,16.3a2.21,2.21,0,0,1-.7,1.45l4.23,1.53-2.13-3.05,1.31-3.49-.24,0-3.64,2.29C997.83,15.52,998.27,16,998.31,16.3Z"/><path class="cls-1" d="M985.2,11.34a9.45,9.45,0,0,1,2.57.19l0-.46.49-2.17-.36,0h0a12.37,12.37,0,0,0-9.17,5.68A9.61,9.61,0,0,1,985.2,11.34Z"/><path class="cls-1" d="M986.68,24a9.78,9.78,0,0,1-7.21-2,13.35,13.35,0,0,0,10.23,3.74h0l.47,0-1.12-2.09,0-.31A9.55,9.55,0,0,1,986.68,24Z"/><path class="cls-1" d="M976.78,18.67h0a1.59,1.59,0,0,0-.59.31.5.5,0,0,0,.78.63.67.67,0,0,0,.1-.23,9.57,9.57,0,0,0,2.41,2.68,9.78,9.78,0,0,0,7.21,2,9.55,9.55,0,0,0,2.34-.66c3-1.21,7-3.76,8.59-5.64a2.21,2.21,0,0,0,.7-1.45c0-.34-.48-.77-1.18-1.24a30.27,30.27,0,0,0-9.36-3.53,9.45,9.45,0,0,0-2.57-.19,9.61,9.61,0,0,0-6.51,3.28,8.86,8.86,0,0,0-1.79,3.3.65.65,0,0,0-.14-.2.5.5,0,1,0-.63.78A1.61,1.61,0,0,0,976.78,18.67Z"/><circle class="cls-1" cx="981.02" cy="18.4" r="1.9" transform="translate(3.75 106.03) rotate(-6.2)"/><circle class="cls-1" cx="981.02" cy="18.4" r="0.95" transform="translate(3.76 106.21) rotate(-6.21)"/><path class="cls-1" d="M986.87,21.88A10.37,10.37,0,0,0,986,13.4Z"/><path class="cls-1" d="M989.52,20.45a7.61,7.61,0,0,0-.68-6.23Z"/><path class="cls-1" d="M991.79,19.33a5.5,5.5,0,0,0-.49-4.5Z"/><path class="cls-1" d="M994.19,18.52a4.19,4.19,0,0,0-.37-3.43Z"/><path class="cls-1" d="M1061,24h0Z"/><path class="cls-1" d="M1079.48,12.66a2.21,2.21,0,0,1,0,1.61l4.48-.41L1080.72,12l-.3-3.71-.21.13L1077.89,12C1078.72,12.16,1079.3,12.37,1079.48,12.66Z"/><path class="cls-1" d="M1065.51,13.74a9.45,9.45,0,0,1,2.4-.92l-.24-.4-.48-2.18-.3.2v0a12.37,12.37,0,0,0-5.89,9A9.61,9.61,0,0,1,1065.51,13.74Z"/><path class="cls-1" d="M1072.24,24.61a9.78,9.78,0,0,1-7.36,1.29,13.35,13.35,0,0,0,10.85-1h0l.41-.24-1.9-1.42-.16-.26A9.55,9.55,0,0,1,1072.24,24.61Z"/><path class="cls-1" d="M1061,24h0a1.59,1.59,0,0,0-.4.53.5.5,0,0,0,1,.24.67.67,0,0,0,0-.25,9.57,9.57,0,0,0,3.32,1.4,9.78,9.78,0,0,0,7.36-1.29,9.55,9.55,0,0,0,1.84-1.59c2.23-2.38,4.74-6.38,5.38-8.75a2.21,2.21,0,0,0,0-1.61c-.18-.29-.76-.5-1.6-.62a30.27,30.27,0,0,0-10,.78,9.45,9.45,0,0,0-2.4.92,9.61,9.61,0,0,0-4.5,5.73,8.86,8.86,0,0,0-.22,3.75.65.65,0,0,0-.22-.12.5.5,0,1,0-.24,1A1.61,1.61,0,0,0,1061,24Z"/><circle class="cls-1" cx="1064.72" cy="21.91" r="1.9" transform="translate(143.85 556.79) rotate(-31.33)"/><circle class="cls-1" cx="1064.73" cy="21.9" r="0.95" transform="translate(143.95 556.96) rotate(-31.34)"/><path class="cls-1" d="M1071.5,22.57a10.37,10.37,0,0,0-4.44-7.29Z"/><path class="cls-1" d="M1073.29,20.15A7.61,7.61,0,0,0,1070,14.8Z"/><path class="cls-1" d="M1074.87,18.18a5.5,5.5,0,0,0-2.36-3.87Z"/><path class="cls-1" d="M1076.7,16.43a4.19,4.19,0,0,0-1.79-2.94Z"/><path class="cls-1" d="M1145.92,27.24h0Z"/><path class="cls-1" d="M1160,10.78a2.21,2.21,0,0,1,.48,1.53l4.14-1.77L1161,9.77l-1.43-3.44-.16.19-1.09,4.17A2.4,2.4,0,0,1,1160,10.78Z"/><path class="cls-1" d="M1147.05,16.12a9.45,9.45,0,0,1,2-1.62l-.35-.3-1.12-1.92-.23.28h0A12.37,12.37,0,0,0,1144.54,23,9.61,9.61,0,0,1,1147.05,16.12Z"/><path class="cls-1" d="M1156.81,24.38a9.78,9.78,0,0,1-6.6,3.49,13.35,13.35,0,0,0,10-4.26h0l.32-.35-2.25-.76-.23-.2A9.55,9.55,0,0,1,1156.81,24.38Z"/><path class="cls-1" d="M1145.91,27.23h0a1.59,1.59,0,0,0-.22.63.5.5,0,0,0,1-.08.67.67,0,0,0-.09-.24,9.57,9.57,0,0,0,3.59.31,9.78,9.78,0,0,0,6.6-3.49,9.55,9.55,0,0,0,1.26-2.08c1.39-3,2.54-7.53,2.42-10a2.21,2.21,0,0,0-.48-1.53,2.4,2.4,0,0,0-1.71-.1,30.27,30.27,0,0,0-9.24,3.82,9.45,9.45,0,0,0-2,1.62,9.61,9.61,0,0,0-2.51,6.84,8.86,8.86,0,0,0,.94,3.63.65.65,0,0,0-.24,0,.5.5,0,1,0,.08,1A1.61,1.61,0,0,0,1145.91,27.23Z"/><circle class="cls-1" cx="1148.83" cy="24.13" r="1.9" transform="translate(381.59 879.55) rotate(-49.31)"/><circle class="cls-1" cx="1148.83" cy="24.13" r="0.95" transform="translate(381.75 879.69) rotate(-49.32)"/><path class="cls-1" d="M1155.48,22.67a10.37,10.37,0,0,0-6.47-5.56Z"/><path class="cls-1" d="M1156.43,19.82a7.61,7.61,0,0,0-4.75-4.08Z"/><path class="cls-1" d="M1157.33,17.45a5.5,5.5,0,0,0-3.44-3Z"/><path class="cls-1" d="M1158.53,15.22a4.19,4.19,0,0,0-2.61-2.25Z"/><polygon class="cls-1" points="1231.79 31.52 1231.79 31.52 1231.78 31.51 1231.79 31.52"/><path class="cls-1" d="M1238.18,10.81c.37.11.72.56,1,1.22l3.09-3.27-3.65.74L1236,6.91l-.07.23.65,4.26C1237.28,10.94,1237.85,10.71,1238.18,10.81Z"/><path class="cls-1" d="M1228.41,20.86a9.45,9.45,0,0,1,1.2-2.28l-.44-.14-1.79-1.32c0,.11-.07.23-.1.35h0a12.37,12.37,0,0,0,1.56,10.68A9.61,9.61,0,0,1,1228.41,20.86Z"/><path class="cls-1" d="M1240.65,24.56a9.78,9.78,0,0,1-4.67,5.83,13.35,13.35,0,0,0,7.5-7.89h0c.05-.15.1-.3.15-.45l-2.37.2-.3-.09A9.55,9.55,0,0,1,1240.65,24.56Z"/><path class="cls-1" d="M1231.77,31.51h0a1.59,1.59,0,0,0,0,.66.5.5,0,0,0,.88-.46.67.67,0,0,0-.17-.18,9.57,9.57,0,0,0,3.42-1.14,9.78,9.78,0,0,0,4.67-5.83,9.55,9.55,0,0,0,.33-2.41c.1-3.26-.66-7.92-1.75-10.12-.32-.66-.68-1.1-1-1.22s-.9.13-1.61.59a30.27,30.27,0,0,0-7,7.18,9.45,9.45,0,0,0-1.2,2.28,9.61,9.61,0,0,0,.41,7.27,8.86,8.86,0,0,0,2.31,3,.65.65,0,0,0-.24.05.5.5,0,1,0,.46.88A1.61,1.61,0,0,0,1231.77,31.51Z"/><circle class="cls-1" cx="1233.22" cy="27.5" r="1.9" transform="translate(840.54 1196.86) rotate(-72.72)"/><circle class="cls-1" cx="1233.22" cy="27.5" r="0.95" transform="translate(840.77 1196.93) rotate(-72.73)"/><path class="cls-1" d="M1238.74,23.52a10.37,10.37,0,0,0-8.15-2.53Z"/><path class="cls-1" d="M1238.48,20.52a7.61,7.61,0,0,0-6-1.86Z"/><path class="cls-1" d="M1238.36,18a5.5,5.5,0,0,0-4.33-1.35Z"/><path class="cls-1" d="M1238.58,15.47a4.19,4.19,0,0,0-3.29-1Z"/><path class="cls-1" d="M1318.06,48.4h0Z"/><path class="cls-1" d="M1318.38,26.74a2.21,2.21,0,0,1,1.35.87l2-4-3.3,1.73-3.3-1.73v.24l1.82,3.9C1317.55,27.11,1318,26.73,1318.38,26.74Z"/><path class="cls-1" d="M1311.83,39.12a9.45,9.45,0,0,1,.51-2.52h-.46l-2.09-.76c0,.12,0,.24,0,.36h0a12.37,12.37,0,0,0,4.49,9.81A9.61,9.61,0,0,1,1311.83,39.12Z"/><path class="cls-1" d="M1324.61,39.24a9.78,9.78,0,0,1-2.84,6.9,13.35,13.35,0,0,0,5-9.68h0c0-.16,0-.32,0-.48l-2.21.85h-.31A9.55,9.55,0,0,1,1324.61,39.24Z"/><path class="cls-1" d="M1318,48.4h0a1.63,1.63,0,0,0,.24.62.5.5,0,0,0,.72-.69.67.67,0,0,0-.22-.13,9.57,9.57,0,0,0,3-2.06,9.78,9.78,0,0,0,2.84-6.9,9.55,9.55,0,0,0-.36-2.41c-.82-3.16-2.86-7.41-4.52-9.23a2.21,2.21,0,0,0-1.35-.87c-.34,0-.83.38-1.38,1a30.27,30.27,0,0,0-4.67,8.85,9.45,9.45,0,0,0-.51,2.52,9.61,9.61,0,0,0,2.44,6.86,8.86,8.86,0,0,0,3,2.19.65.65,0,0,0-.22.12.5.5,0,1,0,.69.72A1.61,1.61,0,0,0,1318,48.4Z"/><circle class="cls-1" cx="1318.31" cy="44.15" r="1.9" transform="translate(1251.67 1361.51) rotate(-89.02)"/><circle class="cls-1" cx="1318.31" cy="44.15" r="0.95" transform="translate(1251.92 1361.52) rotate(-89.03)"/><path class="cls-1" d="M1322.49,38.78a10.37,10.37,0,0,0-8.53-.14Z"/><path class="cls-1" d="M1321.4,36a7.61,7.61,0,0,0-6.26-.11Z"/><path class="cls-1" d="M1320.58,33.58a5.5,5.5,0,0,0-4.53-.08Z"/><path class="cls-1" d="M1320.08,31.1a4.19,4.19,0,0,0-3.45-.06Z"/><path class="cls-1" d="M1404.06,56.48h0Z"/><path class="cls-1" d="M1404.38,34.82a2.21,2.21,0,0,1,1.35.87l2-4-3.3,1.73-3.3-1.73v.24l1.82,3.9C1403.55,35.2,1404,34.81,1404.38,34.82Z"/><path class="cls-1" d="M1397.83,47.2a9.45,9.45,0,0,1,.51-2.52h-.46l-2.09-.76c0,.12,0,.24,0,.36h0a12.37,12.37,0,0,0,4.49,9.81A9.61,9.61,0,0,1,1397.83,47.2Z"/><path class="cls-1" d="M1410.61,47.32a9.78,9.78,0,0,1-2.84,6.9,13.35,13.35,0,0,0,5-9.68h0c0-.16,0-.32,0-.48l-2.21.85h-.31A9.55,9.55,0,0,1,1410.61,47.32Z"/><path class="cls-1" d="M1404,56.48h0a1.63,1.63,0,0,0,.24.62.5.5,0,0,0,.72-.69.67.67,0,0,0-.22-.13,9.57,9.57,0,0,0,3-2.06,9.78,9.78,0,0,0,2.84-6.9,9.55,9.55,0,0,0-.36-2.41c-.82-3.16-2.86-7.41-4.52-9.23a2.21,2.21,0,0,0-1.35-.87c-.34,0-.83.38-1.38,1a30.27,30.27,0,0,0-4.67,8.85,9.45,9.45,0,0,0-.51,2.52,9.61,9.61,0,0,0,2.44,6.86,8.86,8.86,0,0,0,3,2.19.65.65,0,0,0-.22.12.5.5,0,1,0,.69.72A1.61,1.61,0,0,0,1404,56.48Z"/><circle class="cls-1" cx="1404.31" cy="52.23" r="1.9" transform="translate(1328.12 1455.45) rotate(-89.02)"/><circle class="cls-1" cx="1404.31" cy="52.23" r="0.95" transform="translate(1328.38 1455.46) rotate(-89.03)"/><path class="cls-1" d="M1408.49,46.86a10.37,10.37,0,0,0-8.53-.14Z"/><path class="cls-1" d="M1407.4,44.05a7.61,7.61,0,0,0-6.26-.11Z"/><path class="cls-1" d="M1406.58,41.67a5.5,5.5,0,0,0-4.53-.08Z"/><path class="cls-1" d="M1406.08,39.18a4.19,4.19,0,0,0-3.45-.06Z"/><polygon class="cls-1" points="1586.59 80.4 1586.58 80.4 1586.59 80.4 1586.59 80.4"/><path class="cls-1" d="M1576,61.48a2.21,2.21,0,0,0-.77,1.41l-3.71-2.56,3.72,0,2.08-3.09.12.21.25,4.3A2.4,2.4,0,0,0,1576,61.48Z"/><path class="cls-1" d="M1587.67,69.27a9.45,9.45,0,0,0-1.64-2l.4-.23,1.48-1.66.17.32h0a12.37,12.37,0,0,1,.7,10.77A9.61,9.61,0,0,0,1587.67,69.27Z"/><path class="cls-1" d="M1576.48,75.45a9.78,9.78,0,0,0,5.78,4.73,13.35,13.35,0,0,1-9-6.16h0l-.24-.41,2.35-.3.27-.15A9.55,9.55,0,0,0,1576.48,75.45Z"/><path class="cls-1" d="M1586.6,80.39h0a1.59,1.59,0,0,1,.09.66.5.5,0,0,1-1-.27.67.67,0,0,1,.13-.21,9.57,9.57,0,0,1-3.58-.41,9.78,9.78,0,0,1-5.78-4.73,9.55,9.55,0,0,1-.82-2.29c-.78-3.17-1-7.88-.4-10.26a2.21,2.21,0,0,1,.77-1.41,2.4,2.4,0,0,1,1.7.24,30.27,30.27,0,0,1,8.31,5.57,9.45,9.45,0,0,1,1.64,2,9.61,9.61,0,0,1,1.11,7.2,8.86,8.86,0,0,1-1.64,3.38.65.65,0,0,1,.25,0,.5.5,0,1,1-.27,1A1.61,1.61,0,0,1,1586.6,80.39Z"/><circle class="cls-1" cx="1584.36" cy="76.78" r="1.9" transform="translate(165.13 785.2) rotate(-29.3)"/><circle class="cls-1" cx="1584.35" cy="76.78" r="0.95" transform="translate(164.99 784.94) rotate(-29.29)"/><path class="cls-1" d="M1578.12,74a10.37,10.37,0,0,1,7.44-4.18Z"/><path class="cls-1" d="M1577.75,71a7.61,7.61,0,0,1,5.46-3.06Z"/><path class="cls-1" d="M1577.34,68.55a5.5,5.5,0,0,1,4-2.22Z"/><path class="cls-1" d="M1576.61,66.13a4.19,4.19,0,0,1,3-1.69Z"/><path class="cls-1" d="M1682.21,82.58h0Z"/><path class="cls-1" d="M1664.81,69.67a2.21,2.21,0,0,0-.12,1.6l-4.43-.81,3.38-1.56.63-3.67.2.15,2,3.82C1665.61,69.24,1665,69.39,1664.81,69.67Z"/><path class="cls-1" d="M1678.63,72a9.45,9.45,0,0,0-2.31-1.13l.27-.37.67-2.12.28.22v0a12.37,12.37,0,0,1,5.06,9.53A9.61,9.61,0,0,0,1678.63,72Z"/><path class="cls-1" d="M1671,82.21a9.78,9.78,0,0,0,7.21,1.94,13.35,13.35,0,0,1-10.72-1.92h0l-.39-.28,2-1.24.18-.25A9.55,9.55,0,0,0,1671,82.21Z"/><path class="cls-1" d="M1682.22,82.56h0a1.59,1.59,0,0,1,.35.56.5.5,0,0,1-1,.15.67.67,0,0,1,0-.25,9.57,9.57,0,0,1-3.43,1.1,9.78,9.78,0,0,1-7.21-1.94,9.55,9.55,0,0,1-1.69-1.75c-2-2.57-4.15-6.78-4.58-9.19a2.21,2.21,0,0,1,.12-1.6c.2-.28.8-.43,1.65-.48a30.27,30.27,0,0,1,9.86,1.66,9.45,9.45,0,0,1,2.31,1.13,9.61,9.61,0,0,1,4,6.11,8.86,8.86,0,0,1-.11,3.75.65.65,0,0,1,.23-.1.5.5,0,1,1,.15,1A1.61,1.61,0,0,1,1682.22,82.56Z"/><circle class="cls-1" cx="1678.69" cy="80.19" r="1.9" transform="translate(617.31 1383.22) rotate(-53.57)"/><circle class="cls-1" cx="1678.69" cy="80.19" r="0.95" transform="translate(617.07 1383.02) rotate(-53.56)"/><path class="cls-1" d="M1671.88,80.25a10.37,10.37,0,0,1,5.07-6.87Z"/><path class="cls-1" d="M1670.31,77.68a7.61,7.61,0,0,1,3.72-5Z"/><path class="cls-1" d="M1668.91,75.57a5.5,5.5,0,0,1,2.69-3.64Z"/><path class="cls-1" d="M1667.24,73.66a4.19,4.19,0,0,1,2-2.77Z"/></svg>