<svg id="Layer_1" data-name="Layer 1" xmlns="http://www.w3.org/2000/svg" xmlns:xlink="http://www.w3.org/1999/xlink" viewBox="0 0 25.7 17"><defs><style>.cls-1{fill:none;}.cls-2{clip-path:url(#clip-path);}.cls-3{clip-path:url(#clip-path-2);}.cls-4{fill:#3d7aad;}.cls-5{fill:#468ec9;}.cls-6{clip-path:url(#clip-path-3);}.cls-7{clip-path:url(#clip-path-4);}</style><clipPath id="clip-path"><rect class="cls-1" x="-1441.14" y="970.25" width="2079.19" height="373.17"/></clipPath><clipPath id="clip-path-2"><rect class="cls-1" x="-2209.73" y="970.25" width="3582.94" height="525.81"/></clipPath><clipPath id="clip-path-3"><rect class="cls-1" x="724.59" y="970.29" width="2079.19" height="373.12"/></clipPath><clipPath id="clip-path-4"><rect class="cls-1" x="-43.99" y="970.29" width="3582.94" height="525.73"/></clipPath></defs><title>room_ellements</title><g class="cls-2"><g class="cls-3"><polygon class="cls-4" points="6.66 29.41 -61.81 82.05 -130.28 29.41 -61.81 -23.23 6.66 29.41"/><polygon class="cls-5" points="75.14 -23.23 6.66 29.41 -61.81 -23.23 6.66 -75.87 75.14 -23.23"/><polygon class="cls-4" points="143.61 29.41 75.14 82.05 6.66 29.41 75.14 -23.23 143.61 29.41"/></g></g><path class="cls-5" d="M25.4,8.52h0Z"/><path class="cls-5" d="M16.95,8.53a3.76,3.76,0,0,1,.34-1.36l-1.57-2,.68,3.27-.67,3.32h.1l1.52-1.88A3.57,3.57,0,0,1,16.95,8.53Z"/><path class="cls-5" d="M21.79,14.9a1.86,1.86,0,0,1-1-.47v.46L20.51,17h.14c1.85,0,3.08-2.39,3.82-4.64C23.89,13.72,23,14.91,21.79,14.9Z"/><path class="cls-5" d="M21.82,2.11c1.25,0,2.13,1.31,2.7,2.74C22.9-.12,20.73,0,20.73,0h-.19l.34,2.2v.31A1.81,1.81,0,0,1,21.82,2.11Z"/><path class="cls-5" d="M25.4,8.54h0a.58.58,0,0,0,.24-.24,1.12,1.12,0,0,0,0-.71c-.08-.2-.2-.2-.28,0a1.19,1.19,0,0,0,0,.22,14.79,14.79,0,0,0-.81-2.93c-.57-1.43-1.45-2.73-2.7-2.74a1.81,1.81,0,0,0-.94.4,12.69,12.69,0,0,0-3.59,4.66,3.76,3.76,0,0,0-.34,1.36,3.57,3.57,0,0,0,.4,1.36,14.47,14.47,0,0,0,3.46,4.54,1.86,1.86,0,0,0,1,.47c1.24,0,2.1-1.18,2.68-2.54a14.07,14.07,0,0,0,.85-3.08,1.16,1.16,0,0,0,0,.22c.08.2.2.2.28,0a1.12,1.12,0,0,0,0-.71A.58.58,0,0,0,25.4,8.54Z"/><ellipse class="cls-5" cx="23.74" cy="8.34" rx="1.9" ry="0.74" transform="translate(15.27 32.04) rotate(-89.69)"/><ellipse class="cls-5" cx="23.74" cy="8.34" rx="0.95" ry="0.37" transform="translate(15.28 32.04) rotate(-89.72)"/><path class="cls-5" d="M21.64,4.24a25.44,25.44,0,0,0,0,8.53Z"/><path class="cls-5" d="M20.55,5.37a18.67,18.67,0,0,0,0,6.26Z"/><path class="cls-5" d="M19.61,6.23a13.5,13.5,0,0,0,0,4.53Z"/><path class="cls-5" d="M18.65,6.77a10.27,10.27,0,0,0,0,3.45Z"/></svg>