<svg id="Layer_1" data-name="Layer 1" xmlns="http://www.w3.org/2000/svg" xmlns:xlink="http://www.w3.org/1999/xlink" viewBox="0 0 25.7 17"><defs><style>.cls-1{fill:none;}.cls-2{clip-path:url(#clip-path);}.cls-3{clip-path:url(#clip-path-2);}.cls-4{fill:#3d7aad;}.cls-5{fill:#468ec9;}.cls-6{clip-path:url(#clip-path-3);}.cls-7{clip-path:url(#clip-path-4);}</style><clipPath id="clip-path"><rect class="cls-1" x="-1399.3" y="970.21" width="2079.19" height="373.17"/></clipPath><clipPath id="clip-path-2"><rect class="cls-1" x="-2167.89" y="970.21" width="3582.94" height="525.81"/></clipPath><clipPath id="clip-path-3"><rect class="cls-1" x="766.43" y="970.26" width="2079.19" height="373.12"/></clipPath><clipPath id="clip-path-4"><rect class="cls-1" x="-2.16" y="970.26" width="3582.94" height="525.73"/></clipPath></defs><title>room_ellements</title><g class="cls-2"><g class="cls-3"><polygon class="cls-4" points="48.5 29.37 -19.97 82.01 -88.45 29.37 -19.97 -23.27 48.5 29.37"/><polygon class="cls-5" points="116.97 -23.27 48.5 29.37 -19.97 -23.27 48.5 -75.91 116.97 -23.27"/></g></g><path class="cls-5" d="M.81,8.56h0Z"/><path class="cls-5" d="M22.48,8.5a2.21,2.21,0,0,0-.86-1.36l4-2L23.88,8.42l1.69,3.32h-.24L21.45,9.87C22.09,9.32,22.48,8.85,22.48,8.5Z"/><path class="cls-5" d="M10,14.91a9.45,9.45,0,0,0,2.53-.48v.46l.74,2.1h-.35a12.37,12.37,0,0,1-9.75-4.61A9.61,9.61,0,0,0,10,14.91Z"/><path class="cls-5" d="M10.05,2.12A9.78,9.78,0,0,0,3.11,4.88,13.35,13.35,0,0,1,12.85,0h.48l-.88,2.2v.31A9.55,9.55,0,0,0,10.05,2.12Z"/><path class="cls-5" d="M.82,8.58h0A1.59,1.59,0,0,1,.2,8.31.5.5,0,0,1,.9,7.6.67.67,0,0,1,1,7.82,9.57,9.57,0,0,1,3.11,4.88a9.78,9.78,0,0,1,6.94-2.76,9.55,9.55,0,0,1,2.4.39c3.15.85,7.38,2.95,9.17,4.63a2.21,2.21,0,0,1,.86,1.36c0,.34-.39.82-1,1.37a30.27,30.27,0,0,1-8.9,4.56,9.45,9.45,0,0,1-2.53.48,9.61,9.61,0,0,1-6.83-2.52A8.86,8.86,0,0,1,1,9.32a.65.65,0,0,1-.12.22.5.5,0,1,1-.71-.7A1.61,1.61,0,0,1,.82,8.58Z"/><circle class="cls-5" cx="5.07" cy="8.37" r="1.9" transform="translate(-0.04 0.03) rotate(-0.3)"/><circle class="cls-5" cx="5.07" cy="8.37" r="0.95" transform="translate(-0.04 0.03) rotate(-0.28)"/><path class="cls-5" d="M10.49,4.25a10.37,10.37,0,0,1,0,8.53Z"/><path class="cls-5" d="M13.28,5.37a7.61,7.61,0,0,1,0,6.26Z"/><path class="cls-5" d="M15.66,6.22a5.5,5.5,0,0,1,0,4.53Z"/><path class="cls-5" d="M18.14,6.75a4.19,4.19,0,0,1,0,3.45Z"/></svg>