<svg id="Layer_1" data-name="Layer 1" xmlns="http://www.w3.org/2000/svg" xmlns:xlink="http://www.w3.org/1999/xlink" viewBox="0 0 25.7 17"><defs><style>.cls-1{fill:none;}.cls-2{clip-path:url(#clip-path);}.cls-3{clip-path:url(#clip-path-2);}.cls-4{fill:#468ec9;}.cls-5{fill:#3d7aad;}.cls-6{clip-path:url(#clip-path-3);}.cls-7{clip-path:url(#clip-path-4);}</style><clipPath id="clip-path"><rect class="cls-1" x="-1472.12" y="970.25" width="2079.19" height="373.17"/></clipPath><clipPath id="clip-path-2"><rect class="cls-1" x="-2240.71" y="970.25" width="3582.94" height="525.81"/></clipPath><clipPath id="clip-path-3"><rect class="cls-1" x="693.61" y="970.29" width="2079.19" height="373.12"/></clipPath><clipPath id="clip-path-4"><rect class="cls-1" x="-74.98" y="970.29" width="3582.94" height="525.73"/></clipPath></defs><title>room_ellements</title><g class="cls-2"><g class="cls-3"><polygon class="cls-4" points="44.15 -23.23 -24.32 29.41 -92.8 -23.23 -24.32 -75.87 44.15 -23.23"/><polygon class="cls-5" points="112.63 29.41 44.15 82.05 -24.32 29.41 44.15 -23.23 112.63 29.41"/></g></g><path class="cls-4" d="M.3,8.52h0Z"/><path class="cls-4" d="M8.76,8.53a3.76,3.76,0,0,0-.34-1.36l1.57-2L9.3,8.45,10,11.77h-.1L8.36,9.89A3.57,3.57,0,0,0,8.76,8.53Z"/><path class="cls-4" d="M3.91,14.9a1.86,1.86,0,0,0,1-.47v.46L5.19,17H5.06C3.21,17,2,14.61,1.24,12.36,1.81,13.72,2.67,14.91,3.91,14.9Z"/><path class="cls-4" d="M3.89,2.11c-1.25,0-2.13,1.31-2.7,2.74C2.8-.12,5,0,5,0h.19L4.82,2.2v.31A1.81,1.81,0,0,0,3.89,2.11Z"/><path class="cls-4" d="M.3,8.54h0a.58.58,0,0,1-.24-.24,1.12,1.12,0,0,1,0-.71c.08-.2.2-.2.28,0a1.19,1.19,0,0,1,0,.22,14.79,14.79,0,0,1,.81-2.93c.57-1.43,1.45-2.73,2.7-2.74a1.81,1.81,0,0,1,.94.4A12.69,12.69,0,0,1,8.42,7.17a3.76,3.76,0,0,1,.34,1.36,3.57,3.57,0,0,1-.4,1.36A14.47,14.47,0,0,1,4.9,14.43a1.86,1.86,0,0,1-1,.47c-1.24,0-2.1-1.18-2.68-2.54A14.07,14.07,0,0,1,.39,9.28a1.16,1.16,0,0,1,0,.22c-.08.2-.2.2-.28,0a1.12,1.12,0,0,1,0-.71A.58.58,0,0,1,.3,8.54Z"/><ellipse class="cls-4" cx="1.96" cy="8.34" rx="0.74" ry="1.9" transform="translate(-0.04 0.01) rotate(-0.31)"/><ellipse class="cls-4" cx="1.96" cy="8.34" rx="0.37" ry="0.95" transform="translate(-0.04 0.01) rotate(-0.28)"/><path class="cls-4" d="M4.06,4.24a25.44,25.44,0,0,1,0,8.53Z"/><path class="cls-4" d="M5.16,5.37a18.67,18.67,0,0,1,0,6.26Z"/><path class="cls-4" d="M6.09,6.23a13.5,13.5,0,0,1,0,4.53Z"/><path class="cls-4" d="M7.06,6.77a10.27,10.27,0,0,1,0,3.45Z"/></svg>