<svg id="Layer_1" data-name="Layer 1" xmlns="http://www.w3.org/2000/svg" xmlns:xlink="http://www.w3.org/1999/xlink" viewBox="0 0 73.16 63.53"><defs><style>.cls-1{fill:none;}.cls-2{clip-path:url(#clip-path);}.cls-3{clip-path:url(#clip-path-2);}.cls-4{fill:#468ec9;}.cls-5{fill:#3d7aad;}.cls-6{clip-path:url(#clip-path-3);}.cls-7{clip-path:url(#clip-path-4);}</style><clipPath id="clip-path"><rect class="cls-1" x="-1315.66" y="1109.83" width="2079.19" height="373.17"/></clipPath><clipPath id="clip-path-2"><rect class="cls-1" x="-2084.24" y="1109.83" width="3582.94" height="525.81"/></clipPath><clipPath id="clip-path-3"><rect class="cls-1" x="850.07" y="1109.88" width="2079.19" height="373.12"/></clipPath><clipPath id="clip-path-4"><rect class="cls-1" x="81.49" y="1109.88" width="3582.94" height="525.73"/></clipPath></defs><title>room_svg_png</title><g class="cls-2"><g class="cls-3"><polygon class="cls-4" points="63.67 11.07 -4.8 63.71 -73.28 11.07 -4.8 -41.57 63.67 11.07"/><polygon class="cls-5" points="132.14 -41.57 63.67 11.07 -4.8 -41.57 63.67 -94.21 132.14 -41.57"/><polygon class="cls-5" points="132.14 63.71 63.67 116.35 -4.8 63.71 63.67 11.07 132.14 63.71"/><polygon class="cls-4" points="200.62 11.07 132.14 63.71 63.67 11.07 132.14 -41.57 200.62 11.07"/></g></g><rect class="cls-4" y="49.19" width="73.16" height="14.34"/><circle class="cls-4" cx="18.05" cy="35.02" r="6.23"/><circle class="cls-4" cx="30.5" cy="35.02" r="6.23"/><circle class="cls-4" cx="42.96" cy="35.02" r="6.23"/><circle class="cls-4" cx="55.41" cy="35.02" r="6.23"/><rect class="cls-4" x="17.64" y="5.94" width="0.81" height="27.19"/><rect class="cls-4" x="30.09" y="5.94" width="0.81" height="27.19"/><rect class="cls-4" x="42.55" y="5.94" width="0.81" height="27.19"/><rect class="cls-4" x="55" y="5.94" width="0.81" height="27.19"/><rect class="cls-4" x="0.94" width="72.22" height="5.94"/><rect class="cls-4" width="0.94" height="62.02"/><rect class="cls-4" x="72.22" width="0.94" height="62.02"/></svg>