<svg id="Layer_1" data-name="Layer 1" xmlns="http://www.w3.org/2000/svg" viewBox="0 0 216 216"><defs><style>.cls-1{fill:#f9e558;}</style></defs><title>sea_battle_game</title><path class="cls-1" d="M287.79-216H216V-72h18.37c26.09,1.06,71.76,11.3,59.4,42.21-3,7.5-5.81,20.62-5.81,20.62V0H432V-216H287.79Z"/><path class="cls-1" d="M293.78,156.53c-3,15-5.81,41.24-5.81,41.24V216.1H432V.1H216v72h18.38C260.46,74.22,306.13,94.69,293.78,156.53Z"/><path class="cls-1" d="M216,144V0H0V144H18.32S82,131.19,99,144c46.66,35.16,42.86,27.44,45,53.46v18.33L216,216Z"/><path class="cls-1" d="M216-216H0v71.79H18.32S156-144.92,132.79-88.43s12.84,40.85,11.15,69.88V-.21L216,0V-216Z"/></svg>