<svg id="Layer_1" data-name="Layer 1" xmlns="http://www.w3.org/2000/svg" viewBox="0 0 216 216"><defs><style>.cls-1{fill:#f9e558;}</style></defs><title>sea_battle_game</title><path class="cls-1" d="M-216,.11v144h18.37c26.09,1.06,71.76,11.3,59.4,42.21-3,7.5-5.81,20.62-5.81,20.62v9.16H0V.11H-216Z"/><path class="cls-1" d="M0-216H-216v72h18.38c26.09,2.12,39.37,26.39,53.63,58.48,6.93,15.59,0,67.19,0,67.19V0H0V-216H0Z"/><path class="cls-1" d="M432,72V0H216V72h9.16s31.61-10.42,40.34,0c47.61,56.9,21.44,54.94,22.5,107.06v36.71L432,216Z"/><path class="cls-1" d="M432,0V-216H216V-72h9.16S257-84.81,265.5-72c23.34,35.16,21.44,27.44,22.5,53.46V-.21Z"/><path class="cls-1" d="M44.11,83.21C72.36,60,72,197.68,72,197.68V216H216V0H0V72.06H9.17C23.69,70.37,15.86,106.43,44.11,83.21Z"/><rect class="cls-1" y="0.11" height="215.89"/><rect class="cls-1" height="0.01"/><path class="cls-1" d="M0-216V-72H9.17c14.52-.85,6.7,17.19,34.94,5.58S72-9.16,72-9.16V0H216V-216H0Z"/><rect class="cls-1" width="144.01"/><rect class="cls-1"/><rect class="cls-1" x="144.01" width="71.99"/></svg>