<svg id="Layer_1" data-name="Layer 1" xmlns="http://www.w3.org/2000/svg" viewBox="0 0 216 216"><defs><style>.cls-1{fill:#f9e558;}</style></defs><title>sea_battle_game</title><path class="cls-1" d="M432,144V0H216V144h18.32S298,131.19,315,144c46.66,35.16,42.86,27.44,45,53.46v18.33L432,216Z"/><path class="cls-1" d="M432-216H216v71.79h18.32S372-144.92,348.79-88.43s12.84,40.85,11.15,69.88V-.21L432,0V-216Z"/><path class="cls-1" d="M0,216V360H9.17c14.52-.85,6.7,17.19,34.94,5.58S72,422.84,72,422.84V432H216V216H0Z"/><path class="cls-1" d="M93.83,102C150.32,90.42,144,206.84,144,206.84V216h72V0H0V144H18.33C47.37,143.16,37.34,113.65,93.83,102Z"/><path class="cls-1" d="M0-144H18.33c29-.85,19-9.82,75.5-21.43S144-9.16,144-9.16V0h72V-216H0Z"/></svg>