<svg id="Layer_1" data-name="Layer 1" xmlns="http://www.w3.org/2000/svg" viewBox="0 0 216 216"><defs><style>.cls-1{fill:#f2e964;}.cls-2{fill:#4d7fff;}</style></defs><title>sea_battle_game</title><path class="cls-1" d="M144,217.31a65.72,65.72,0,0,1-1.44,10.45c-1.47,7.15-24.47,22.31.57,45.39,5.88,5.42,31.59,14.2,65.67,14.86H216V216H144Z"/><path class="cls-1" d="M138.85,21.73c-5.17,8-.85,11.85,3.15,32.38,3.06,15.68,17.72,18.65,18.66,36.6,0,0,3.76,15.49,2.83,23s11.23,29,45.31,30.32H216V0H144V2.62S144,13.72,138.85,21.73Z"/><polygon class="cls-2" points="144 0.01 144 0 0 0 0 0 0 0.01 144 0.01"/><rect class="cls-2" x="144" y="216" width="72"/><rect class="cls-2" y="216" width="144"/></svg>