<svg id="Layer_1" data-name="Layer 1" xmlns="http://www.w3.org/2000/svg" viewBox="0 0 216 216"><defs><style>.cls-1{fill:#f2e964;}.cls-2{fill:#4d7fff;}</style></defs><title>sea_battle_game</title><path class="cls-1" d="M72,216v.67s0,3.9-.72,10.45c-.74,7.15-.56,9.84.72,17.42,1.15,6.82,5.81,27.48,11.34,35A15.69,15.69,0,0,1,86,285.87c2.31,11.9,9.35,45,18.38,57.07,17.6,23.61,84.08,15.77,101.12,16.43H216V216Z"/><path class="cls-1" d="M72,0V1.31s0,3.9-.72,10.45c-.74,7.15-.56,9.84.72,17.42s4.48,8.15,10.8,12.89c0,0,8.36,16.26,14.23,17.85,3.64,1,88.46,11.44,105.5,12.09H216V0Z"/><rect class="cls-2" x="72" y="216" width="144"/><rect class="cls-2" y="216" width="72"/><rect class="cls-2" x="72" y="215.36" width="144" height="0.64"/><rect class="cls-2" y="215.36" width="72" height="0.64"/><polygon class="cls-2" points="216 0 216 0 0 0 0 0 72 0 216 0"/><rect class="cls-2" x="72" width="144"/><rect class="cls-2" width="72"/><rect class="cls-2" x="216" y="216" width="72"/><rect class="cls-2" x="216" y="215.36" width="72" height="0.64"/><polygon class="cls-2" points="216 0 288 0 432 0 432 0 216 0 216 0"/><rect class="cls-2" x="216" width="72"/></svg>