<svg id="Layer_1" data-name="Layer 1" xmlns="http://www.w3.org/2000/svg" viewBox="0 0 216 216"><defs><style>.cls-1{fill:#f2e964;}.cls-2{fill:#4d7fff;}</style></defs><title>sea_battle_game</title><path class="cls-1" d="M-144,.64v.67s0,3.9-.72,10.45c-.74,7.15-.56,9.84.72,17.42,1.15,6.82,5.81,27.48,11.34,35A15.69,15.69,0,0,1-130,70.51c2.31,11.9,9.35,45,18.38,57.07C-94,151.19-27.52,143.35-10.48,144H0V.64Z"/><rect class="cls-2" x="-216" y="216" width="216"/><rect class="cls-2" x="-144" y="0.64" width="144"/><rect class="cls-2" x="-144" width="144" height="0.64"/><path class="cls-1" d="M72,1.31s0,3.9-.72,10.45c-.74,7.15-.56,9.84.72,17.42C73.16,36,50,84,50.44,86.32c2.31,11.9-6.11,69.24,2.92,81.35C71,191.29,188.48,143.35,205.52,144H216V.64H72Z"/><polygon class="cls-2" points="216 144 216 216 0 216 0 216 216 216 216 144 216 144"/><rect class="cls-2" y="144" height="72"/><rect class="cls-2" x="72" y="0.64" width="144"/><rect class="cls-2" y="0.64" width="72"/><rect class="cls-2" x="72" width="144" height="0.64"/><rect class="cls-2" width="72" height="0.64"/></svg>