<svg id="Layer_1" data-name="Layer 1" xmlns="http://www.w3.org/2000/svg" viewBox="0 0 216 216"><defs><style>.cls-1{fill:#f2e964;}.cls-2{fill:#4d7fff;}</style></defs><title>sea_battle_game</title><path class="cls-1" d="M-144,216v.67s0,3.9-.72,10.45c-.74,7.15-.56,9.84.72,17.42,1.15,6.82,5.81,27.48,11.34,35a15.69,15.69,0,0,1,2.68,6.33c2.31,11.9,9.35,45,18.38,57.07,17.6,23.61,84.08,15.77,101.12,16.43H0V216Z"/><path class="cls-1" d="M-144,0V1.31s0,3.9-.72,10.45c-.74,7.15-.56,9.84.72,17.42s4.48,8.15,10.8,12.89c0,0,8.36,16.26,14.23,17.85,3.64,1,88.46,11.44,105.5,12.09H0V0Z"/><rect class="cls-2" x="-144" y="216" width="144"/><rect class="cls-2" x="-144" y="215.36" width="144" height="0.64"/><polygon class="cls-2" points="0 0 0 0 -216 0 -216 0 -144 0 0 0"/><rect class="cls-2" x="-144" width="144"/><path class="cls-1" d="M72,216.67s0,3.9-.72,10.45c-.74,7.15-.56,9.84.72,17.42,1.15,6.82-22,54.87-21.56,57.15,2.31,11.9-6.11,69.24,2.92,81.35,17.6,23.61,135.12-24.32,152.16-23.67H216V216H72Z"/><path class="cls-1" d="M72,1.31s0,3.9-.72,10.45c-.74,7.15-.56,9.84.72,17.42s-10.3,24.21-4,29c0,0,25.28,45.17,31.27,46.24,20.33,3.63,86.2-33,103.24-32.37H216V0H72Z"/><rect class="cls-2" x="72" y="216" width="144"/><rect class="cls-2" y="216" width="72"/><rect class="cls-2" x="72" y="215.36" width="144" height="0.64"/><rect class="cls-2" y="215.36" width="72" height="0.64"/><polygon class="cls-2" points="0 0 72 0 216 0 216 0 0 0 0 0"/><rect class="cls-2" x="72" width="144"/><rect class="cls-2" width="72"/></svg>