<svg id="Layer_1" data-name="Layer 1" xmlns="http://www.w3.org/2000/svg" viewBox="0 0 216 216"><defs><style>.cls-1{fill:#f2e964;}.cls-2{fill:#4d7fff;}</style></defs><title>sea_battle_game</title><path class="cls-1" d="M72,216v1.31s0,3.9-.72,10.45c-.74,7.15-.56,9.84.72,17.42s4.48,8.15,10.8,12.89c0,0,8.36,16.26,14.23,17.85,3.64,1,88.46,11.44,105.5,12.09H216V216Z"/><path class="cls-1" d="M144,0V1.31a65.65,65.65,0,0,1-1.44,10.45c-1.47,7.15-1.11,9.84,1.45,17.42s15.7,7.21,16.65,16.19c0,0,3.76,7.74,2.83,11.49S174.72,71.35,208.8,72H216V0Z"/><polygon class="cls-2" points="216 216 216 216 0 216 0 216 72 216 216 216"/><rect class="cls-2" x="72" y="216" width="144"/><rect class="cls-2" y="216" width="72"/><polygon class="cls-2" points="216 216 288 216 432 216 432 216 216 216 216 216"/><rect class="cls-2" x="216" y="216" width="72"/><rect class="cls-2" x="216" width="144"/></svg>