<svg id="Layer_1" data-name="Layer 1" xmlns="http://www.w3.org/2000/svg" viewBox="0 0 216 216"><defs><style>.cls-1{fill:#f2e964;}.cls-2{fill:#4d7fff;}</style></defs><title>sea_battle_game</title><path class="cls-1" d="M-144,216v1.31s0,3.9-.72,10.45c-.74,7.15-.56,9.84.72,17.42s4.48,8.15,10.8,12.89c0,0,8.36,16.26,14.23,17.85,3.64,1,88.46,11.44,105.5,12.09H0V216Z"/><path class="cls-1" d="M-72,0V1.31a65.65,65.65,0,0,1-1.44,10.45c-1.47,7.15-1.11,9.84,1.45,17.42s15.7,7.21,16.65,16.19c0,0,3.76,7.74,2.83,11.49S-41.28,71.35-7.2,72H0V0Z"/><polygon class="cls-2" points="0 216 0 216 -216 216 -216 216 -144 216 0 216"/><rect class="cls-2" x="-144" y="216" width="144"/><path class="cls-1" d="M72,217.31s0,3.9-.72,10.45c-.74,7.15-.56,9.84.72,17.42s-10.3,24.21-4,29c0,0,25.28,45.17,31.27,46.24,20.33,3.63,86.2-33,103.24-32.37H216V216H72Z"/><path class="cls-1" d="M144,1.31a65.72,65.72,0,0,1-1.44,10.45c-1.47,7.15-24.47,22.31.57,45.39C149,62.57,174.72,71.35,208.8,72H216V0H144Z"/><polygon class="cls-2" points="0 216 72 216 216 216 216 216 0 216 0 216"/><rect class="cls-2" x="72" y="216" width="144"/><rect class="cls-2" y="216" width="72"/><rect class="cls-2" x="144" width="72"/><rect class="cls-2" width="144"/></svg>