<svg id="Layer_1" data-name="Layer 1" xmlns="http://www.w3.org/2000/svg" viewBox="0 0 216 216"><defs><style>.cls-1{fill:#f9e558;}</style></defs><title>sea_battle_game</title><path class="cls-1" d="M0,216V360H5.71s60.53.77,70.4-7.07c25.8-20.49,46-12.69,60.48-20.88,32.78-18.55,19.86-44,69.46-44.25,8.79,0,9.95,0,9.95,0V216Z"/><path class="cls-1" d="M-216,216V360l3.28,0s4.18-.41,5.6-1.2c11.24-6.32,28.83-57.65,51.78-33.34,20.12,21.32,58.7,22.66,82.31-1.43,26.89-27.44,51.7,36,68.37,36H0V216Z"/><path class="cls-1" d="M0,0V143.81H5.71s70.89,22.39,88.9-20c29.79-70.1,98-52,111.44-52H216V0Z"/><path class="cls-1" d="M-216,0V143.81h5.22s54.56-17,85.42-19.44c38.69-3.08,55.86,6.44,68.5-16.36,12.74-23,41.16,19,51.59,33.69C-3,144.94,0,143.81,0,143.81V0Z"/></svg>