<svg id="Layer_1" data-name="Layer 1" xmlns="http://www.w3.org/2000/svg" viewBox="0 0 216 216"><defs><style>.cls-1{fill:#f9e558;}</style></defs><title>sea_battle_game</title><path class="cls-1" d="M0,360H-7.1s-77-4.34-100.9-67.58c-12.07-32-54.76-4-95.34-4.22H-216V216H0Z"/><path class="cls-1" d="M0,216V360l3.28,0s4.18-.41,5.6-1.2c11.24-6.32,28.83-57.65,51.78-33.34,20.12,21.32,58.7,22.66,82.31-1.43,26.89-27.44,51.7,36,68.37,36H216V216Z"/><path class="cls-1" d="M0,0V143.81H5.22s54.56-17,85.42-19.44c38.69-3.08,55.86,6.44,68.5-16.36,12.74-23,41.16,19,51.59,33.69,2.3,3.25,5.27,2.11,5.27,2.11V0Z"/></svg>