<svg id="Layer_1" data-name="Layer 1" xmlns="http://www.w3.org/2000/svg" viewBox="0 0 216 216"><defs><style>.cls-1{fill:#f9e558;}</style></defs><title>sea_battle_game</title><path class="cls-1" d="M-216,216V360h5.71s60.53.77,70.4-7.07c25.8-20.49,46-12.69,60.48-20.88,32.78-18.55,19.86-44,69.46-44.25,8.79,0,9.95,0,9.95,0V216Z"/><path class="cls-1" d="M0,216v71.8H4.51s59.7-3.21,79.95-16.71c14.49-9.66,38.38,3.44,46.15,9.66,52.55,42.09,57.27,6.11,80.43,7.25h5V216Z"/><path class="cls-1" d="M-216,0V143.81h5.71s70.89,22.39,88.9-20c29.79-70.1,98-52,111.44-52H0V0Z"/><path class="cls-1" d="M0,0V71.8H4.51s33.87,3.33,57.63,8.55c34.4,7.55,45.85,2.38,67.51,5.36C196.35,94.9,187.88,70.87,211,72h5V0Z"/></svg>