<svg id="Layer_1" data-name="Layer 1" xmlns="http://www.w3.org/2000/svg" viewBox="0 0 216 216"><defs><style>.cls-1,.cls-2,.cls-3,.cls-4,.cls-5{fill:#0f76bc;}.cls-1{opacity:0.8;}.cls-2{opacity:0.6;}.cls-4{opacity:0.4;}.cls-5{opacity:0.2;}</style></defs><title>sea_battle_game</title><rect class="cls-1" x="214" y="137" width="2" height="20"/><rect class="cls-2" y="98" width="2" height="20"/><path class="cls-3" d="M18,214H38v2H18Zm40,0H78v2H58Zm40,0h20v2H98Zm40,0h20v2H138Zm40,0h20v2H178Z"/><rect class="cls-3" y="176" width="2" height="20"/><rect class="cls-1" y="137" width="2" height="20"/><rect class="cls-4" y="59" width="2" height="20"/><rect class="cls-5" y="20" width="2" height="20"/><rect class="cls-2" x="214" y="98" width="2" height="20"/><rect class="cls-3" x="214" y="176" width="2" height="20"/><rect class="cls-4" x="214" y="59" width="2" height="20"/><rect class="cls-5" x="214" y="20" width="2" height="20"/></svg>