<svg id="Layer_1" data-name="Layer 1" xmlns="http://www.w3.org/2000/svg" viewBox="0 0 216 216"><defs><style>.cls-1{fill:#0f76bc;}</style></defs><title>sea_battle_game</title><path class="cls-1" d="M198,2H178V0h20ZM158,2H138V0h20ZM118,2H98V0h20ZM78,2H58V0H78ZM38,2H18V0H38Z"/><path class="cls-1" d="M214,196V176h2v20Zm0-39V137h2v20Zm0-39V98h2v20Zm0-39V59h2V79Zm0-40V19h2V39Z"/><path class="cls-1" d="M0,196V176H2v20Zm0-39V137H2v20Zm0-39V98H2v20ZM0,79V59H2V79ZM0,39V19H2V39Z"/><path class="cls-1" d="M18,214H38v2H18Zm40,0H78v2H58Zm40,0h20v2H98Zm40,0h20v2H138Zm40,0h20v2H178Z"/></svg>