<svg xmlns="http://www.w3.org/2000/svg" viewBox="0 0 216 216"><defs><style>.cls-1{isolation:isolate;}.cls-2{fill:#80482f;}.cls-3{fill:#d6a368;}.cls-4{fill:#e3b077;}.cls-5{fill:#9c5a3b;}.cls-6{fill:#efc390;}.cls-7{fill:#b36642;}.cls-8{fill:#b77920;}.cls-9{fill:#ffda00;}.cls-10{fill:#70fcb9;}.cls-11{fill:#c67f60;mix-blend-mode:multiply;}.cls-12{fill:#9b2b1f;}.cls-13{fill:#77200e;}.cls-14{fill:#ededed;}.cls-15{fill:#fff;}.cls-16{fill:#562602;opacity:0.56;}.cls-17,.cls-18,.cls-19{fill:#31170a;}.cls-17,.cls-19{stroke:#ce6328;}.cls-17,.cls-19,.cls-20,.cls-21,.cls-22{stroke-miterlimit:10;}.cls-17{stroke-width:1.61px;}.cls-19{stroke-width:2.31px;}.cls-20,.cls-21,.cls-22{fill:none;stroke-linecap:round;}.cls-20{stroke:#c67f60;stroke-width:1.44px;}.cls-21{stroke:#dd886b;}.cls-21,.cls-22{stroke-width:0.87px;}.cls-22{stroke:#e2a48f;}.cls-23{opacity:0.2;}.cls-24{fill:#1d1d1b;opacity:0.6;mix-blend-mode:overlay;}</style></defs><title>sea_battle_game</title><g class="cls-1"><g id="Layer_1" data-name="Layer 1"><path class="cls-2" d="M16.58,172l.53.05h0a3.59,3.59,0,0,1,3.09,2.64,3.91,3.91,0,0,1,.1.39v0h0c.09.47.23,1.07.41,1.78a40.17,40.17,0,0,0,2,6H25l.12-4.7-4.38-7.12-5.05.48a6.34,6.34,0,0,0-1.73.28c.61,0,1.24.09,2,.12Z"/><path class="cls-3" d="M173.46,140.33h.5v.95a52.85,52.85,0,0,1-19.44,41.66h9.26a49.76,49.76,0,0,0,5.19-8.09q.75-1.46,1.42-3a70.65,70.65,0,0,0,5.53-30.17l-1-2.61h-.71l-20.88,1.49,20-.26Z"/><path class="cls-4" d="M164.78,147.88l46.3-25.51c.88-.42,1.08-.94.78-1.64l0-.07c-.51-1-1.77-.45-2.43-.1l-46,22.75a1.79,1.79,0,0,0-.83,2.38l0,.07C163,146.64,163.9,148.3,164.78,147.88Z"/><path class="cls-3" d="M119.4,182l68.06-42.26c1.47-.81,1.77-1.7,1.19-2.88l-.06-.11c-1-1.73-3.07-.62-4.18,0l-76.78,43.08c-1.47.81-1.28.16-.48,1.63l4-.13C111.94,182.83,117.93,182.78,119.4,182Z"/><path class="cls-2" d="M20.73,171.12l4.38,7.12-.12,4.7H126l-8.53-29.45a3.33,3.33,0,0,0,3.31-3.69l-.34-3.71a3,3,0,0,1,3-3.36l29.91-2.13-34.25.44a3.17,3.17,0,0,0-3.13,3.21l0,3.55a3.5,3.5,0,0,1-3.45,3.54l-43.39.56-.4,0h0a3.51,3.51,0,0,1-3.13-3.43l0-3.56a3.17,3.17,0,0,0-3-3.13h-.18l-2.62,0h-.94L5.3,142.4H5.18s0,.12,0,.35c0,2.69.16,19.95.21,23.87.05,4.88,3.87,5.1,5.85,5.12,1.1,0,1.89.07,2.7.12a6.34,6.34,0,0,1,1.73-.28Z"/><path class="cls-2" d="M120.39,146.08l.34,3.71a3.33,3.33,0,0,1-3.31,3.69L126,182.94h28.59A52.85,52.85,0,0,0,174,141.27v-.95h-.68l-20,.26-29.91,2.13A3,3,0,0,0,120.39,146.08Z"/><path class="cls-2" d="M30.68,130.73h.13a3.35,3.35,0,0,0-.05.37L30,138.53a4.08,4.08,0,0,0,.08,1.27.8.8,0,0,0,0,1.45l-1,1.89a.15.15,0,0,0,0,.05h0l-.16-.06,3.75-.09v2.8l3.18-2.8.16.06h0a.1.1,0,0,0,0,0l-.93-1.92,0,0a.8.8,0,0,0,.32-.66.78.78,0,0,0-.48-.72,4.09,4.09,0,0,0,0-1.06l-.82-7.39a2.83,2.83,0,0,0-.12-.6h.14a.58.58,0,0,0,.46-.25,1,1,0,0,0,.18-.6,1,1,0,0,0-.06-.34h0l-.05-.12a.72.72,0,0,0-.31-.31s0,.08-.06.08l-1.8,0h-.18l-1.59,0s-.06,0-.06-.08h0a.1.1,0,0,1,0,0,.53.53,0,0,0-.29.12.7.7,0,0,0-.13.14,1,1,0,0,0-.18.6A.76.76,0,0,0,30.68,130.73Z"/><path class="cls-2" d="M32.49,130.69h.1c0,.11,0,0,0,.11l-.7,7.92A4,4,0,0,0,32,140a.8.8,0,0,0,0,1.45l-1,1.89a.1.1,0,0,0,0,.05h0l0,2.47,1.67,0,3.38,0,0-2.7h0a.1.1,0,0,0,0,0l-.93-1.92,0,0a.8.8,0,0,0,.32-.66.78.78,0,0,0-.48-.72,4.09,4.09,0,0,0,0-1.06l-.82-7.39a2.83,2.83,0,0,0-.12-.6h.14a.58.58,0,0,0,.46-.25,1,1,0,0,0,.18-.6,1,1,0,0,0-.06-.34l-.26,0h0a.66.66,0,0,0-.24-.19s0,.08-.06.08l.51,0h-.29l-1.74,0h0a.06.06,0,0,1-.06,0h0a.12.12,0,0,1,0,0,.11.11,0,0,1,0,0h0l-.1,0a.64.64,0,0,0-.32.23h0a1,1,0,0,0-.17.58C31.9,130.57,32.14,130.7,32.49,130.69Z"/><path class="cls-2" d="M19.75,130.73h.13a3.35,3.35,0,0,0-.05.37l-.76,7.43a4.08,4.08,0,0,0,.08,1.27.8.8,0,0,0,0,1.45l-1,1.89a.15.15,0,0,0,0,.05h0l-.16-.06,3.75-.09v2.8l3.18-2.8.16.06h0a.1.1,0,0,0,0,0l-.93-1.92,0,0a.8.8,0,0,0,.32-.66.78.78,0,0,0-.48-.72,4.09,4.09,0,0,0,0-1.06l-.82-7.39a2.83,2.83,0,0,0-.12-.6h.14a.58.58,0,0,0,.46-.25,1,1,0,0,0,.18-.6,1,1,0,0,0-.06-.34h0l-.05-.12a.72.72,0,0,0-.31-.31s0,.08-.06.08l-1.8,0h-.18l-1.59,0s-.06,0-.06-.08h0a.1.1,0,0,1,0,0,.53.53,0,0,0-.29.12.7.7,0,0,0-.13.14,1,1,0,0,0-.18.6A.76.76,0,0,0,19.75,130.73Z"/><path class="cls-5" d="M21.56,130.69h.1c0,.11,0,0,0,.11l-.7,7.92A4,4,0,0,0,21,140a.8.8,0,0,0,0,1.45l-1,1.89a.1.1,0,0,0,0,.05h0l0,2.47,1.67,0,3.38,0,0-2.7h0a.1.1,0,0,0,0,0l-.93-1.92,0,0a.8.8,0,0,0,.32-.66.78.78,0,0,0-.48-.72,4.09,4.09,0,0,0,0-1.06l-.82-7.39a2.83,2.83,0,0,0-.12-.6h.14a.58.58,0,0,0,.46-.25,1,1,0,0,0,.18-.6,1,1,0,0,0-.06-.34l1.76,0h0a.66.66,0,0,0-.24-.19s0,.08-.06.08l-1.51,0H23.4l-1.74,0h0a.06.06,0,0,1-.06,0h0a.13.13,0,0,1,0,0,.11.11,0,0,1,0,0h0l-.1,0a.64.64,0,0,0-.32.23h0a1,1,0,0,0-.17.58C21,130.57,21.21,130.7,21.56,130.69Z"/><path class="cls-2" d="M5.1,124.28l.05,4.36a1.2,1.2,0,0,0,1.21,1.18h.87l2.6,0,1.76,0,10.59-.14,2.12,0,2.53,0,6.22-.1,1.77,0-.18,0h.17a1.2,1.2,0,0,0,1-1.19l-.06-4.37a1.19,1.19,0,0,0-1.21-1.18l-.12,0-10.1.15L8,123.05l-1.74,0A1.19,1.19,0,0,0,5.1,124.28Z"/><path class="cls-2" d="M5.84,131H6a3.34,3.34,0,0,0-.05.37l-.76,7.43a4.08,4.08,0,0,0,.08,1.27.8.8,0,0,0,0,1.45l-1,1.89a.15.15,0,0,0,0,.05h0l-.16-.06,3.75-.09v2.8l3.18-2.8.16.06h0a.1.1,0,0,0,0,0l-.93-1.92,0,0a.8.8,0,0,0,.32-.66A.78.78,0,0,0,10,140a4.09,4.09,0,0,0,0-1.06l-.82-7.39a2.83,2.83,0,0,0-.12-.6h.14a.58.58,0,0,0,.46-.25,1,1,0,0,0,.18-.6,1,1,0,0,0-.06-.34h0l-.05-.12a.72.72,0,0,0-.31-.31s0,.08-.06.08l-1.8,0H7.42l-1.59,0s-.06,0-.06-.08h0a.1.1,0,0,1,0,0,.53.53,0,0,0-.29.12.7.7,0,0,0-.13.14,1,1,0,0,0-.18.6A.76.76,0,0,0,5.84,131Z"/><path class="cls-5" d="M35.84,128.17a1.2,1.2,0,0,1-1.18,1.21l.18,0-1.77,0-4.34.1-1.51,0h-1l-2.12,0-12.35.16-3.47,0a1.2,1.2,0,0,1-1.21-1.18L7,124.25A1.19,1.19,0,0,1,8.18,123l18.06-.23,1.33,0,6.89-.12.12,0a1.19,1.19,0,0,1,1.21,1.18Z"/><path class="cls-5" d="M7.65,131h.1c0,.11,0,0,0,.11L7,139a4,4,0,0,0,.08,1.27.8.8,0,0,0,0,1.45l-1,1.89a.1.1,0,0,0,0,.05h0l0,2.47,1.67,0,3.38,0,0-2.7h0a.1.1,0,0,0,0,0l-.93-1.92,0,0a.8.8,0,0,0,.32-.66A.78.78,0,0,0,10,140a4.09,4.09,0,0,0,0-1.06l-.82-7.39a2.83,2.83,0,0,0-.12-.6h.14a.58.58,0,0,0,.46-.25,1,1,0,0,0,.18-.6,1,1,0,0,0-.06-.34l1.76,0h0a.66.66,0,0,0-.24-.19s0,.08-.06.08l-1.51,0H9.49l-1.74,0h0a.06.06,0,0,1-.06,0h0a.13.13,0,0,1,0,0,.11.11,0,0,1,0,0v.19s-.06,0-.1,0-.23-.09-.32,0h0a1,1,0,0,0-.17.58C7.06,130.86,7.29,131,7.65,131Z"/><path class="cls-2" d="M35.84,128.17a1.2,1.2,0,0,1-1.18,1.21l.18,0-1.77,0-4.34.1-1.51,0c.18-1.59.28-3.79.33-6.33v-.43l6.89-.12.12,0a1.19,1.19,0,0,1,1.21,1.18Z"/><path class="cls-2" d="M9.76,130.16H5.58a.25.25,0,1,1,0-.49H9.76a.25.25,0,1,1,0,.49Z"/><path class="cls-2" d="M10,140.27H5.86a.25.25,0,1,1,0-.49H10a.25.25,0,1,1,0,.49Z"/><path class="cls-2" d="M23.9,140H19.72a.25.25,0,1,1,0-.49H23.9a.25.25,0,1,1,0,.49Z"/><path class="cls-2" d="M34.88,139.88H30.69a.25.25,0,1,1,0-.49h4.18a.25.25,0,1,1,0,.49Z"/><path class="cls-2" d="M19.33,130.12a.25.25,0,0,1,0-.49l4.35,0h0a.25.25,0,0,1,0,.49l-4.35,0Z"/><path class="cls-2" d="M30.24,129.76a.25.25,0,0,1,0-.49l4.35,0h0a.25.25,0,0,1,0,.49l-4.35,0Z"/><path class="cls-6" d="M20.2,123.33a.43.43,0,0,1-.35-.68L84.28,31a.43.43,0,1,1,.71.5L20.56,123.14A.43.43,0,0,1,20.2,123.33Z"/><path class="cls-6" d="M208.44,124.22a.43.43,0,0,1-.37-.21l-1.26-2.1L120.61,58.34a.43.43,0,1,1,.51-.7l86.33,63.67,1.35,2.25a.43.43,0,0,1-.37.66Z"/><path class="cls-7" d="M50,109.66a15.52,15.52,0,0,1-1.58-.18l-.24,3.66,1.89,1.54Z"/><polygon class="cls-7" points="52.62 114.51 52.01 115.69 54.25 119.96 55.11 119.13 52.62 114.51"/><polygon class="cls-7" points="51.37 122.64 49.7 122.34 49.84 115.76 51.28 115.52 51.46 117.27 51.37 122.64"/><polygon class="cls-7" points="49.6 114.23 47.93 114.25 46.15 117.92 46.75 119.78 48.62 117 49.6 114.23"/><polygon class="cls-8" points="50.94 109.87 51.26 114.88 53.18 112.39 51.72 109.44 50.94 109.87"/><polygon class="cls-7" points="55.27 104.2 53.63 103.7 51.65 108.57 52.31 108.92 55.27 104.2"/><path class="cls-7" d="M51.07,101.2a8.06,8.06,0,0,0-1.66,0c0,.11.45,6.93.45,6.93l1.13.25Z"/><polygon class="cls-7" points="46.97 104.58 49.09 109.01 48.61 109.42 46.13 105.24 46.97 104.58"/><path class="cls-7" d="M61.68,109.93l-1.67,0,.09,3.76s1.66,0,1.67,0S61.68,109.93,61.68,109.93Z"/><polygon class="cls-8" points="59.07 127.47 57.35 127.5 56.11 123.53 55.15 121.98 56.41 121.14 59.07 127.47"/><polygon class="cls-7" points="51.69 133.56 50.03 133.59 49.76 125.83 51.77 125.16 51.69 133.56"/><polygon class="cls-7" points="44.3 128.15 42.51 128.17 43.18 124.48 44.85 121.63 45.54 122.46 44.3 128.15"/><polygon class="cls-7" points="40.87 110.27 39.2 110.3 39.41 114.05 41 114.02 41.31 113.36 43.32 113.31 41.77 111.68 40.87 110.27"/><polygon class="cls-7" points="43.61 96.48 41.94 96.5 42.76 100.1 44.62 102.91 45.31 101.67 43.61 96.48"/><polygon class="cls-7" points="58.42 95.8 56.69 95.83 56.58 98.14 55.1 100.86 56.18 101.78 58.07 98.06 58.42 95.8"/><polygon class="cls-7" points="51.18 90.38 49.51 90.41 49.54 97.94 50.61 98.59 51.21 97.92 51.18 90.38"/><path class="cls-7" d="M45.36,105.5c-.11.15-.22.31-.33.48l.1.19c.08-.22.16-.43.24-.64l.06-.14Zm-.55.83-.09,0h0l-.15-.07-.08,0-.21-.09,0,1.49h0c0,.49,0,1,0,1.47l-.18-.33c-.1.79-.15,1.61-.17,2.45,0,.21,0,.41,0,.62h.27c0-.1,0-.2,0-.29v-.33c0-.39,0-.77.07-1.14a0,0,0,0,1,0,0c0-.08,0-.16,0-.23h0v0a16.6,16.6,0,0,1,.66-3.19l0-.14Zm.55-.83c-.11.15-.22.31-.33.48l.1.19c.08-.22.16-.43.24-.64l.06-.14Zm-.55.83-.09,0h0l-.15-.07-.08,0-.21-.09,0,1.49h0c0,.49,0,1,0,1.47l-.18-.33c-.1.79-.15,1.61-.17,2.45,0,.21,0,.41,0,.62h.27c0-.1,0-.2,0-.29v-.33c0-.39,0-.77.07-1.14a0,0,0,0,1,0,0c0-.08,0-.16,0-.23h0v0a16.6,16.6,0,0,1,.66-3.19l0-.14Zm.55-.83c-.11.15-.22.31-.33.48l.1.19c.08-.22.16-.43.24-.64l.06-.14Zm-.55.83-.09,0h0l-.15-.07-.08,0-.21-.09,0,1.49h0c0,.49,0,1,0,1.47l-.18-.33c-.1.79-.15,1.61-.17,2.45,0,.21,0,.41,0,.62h.27c0-.1,0-.2,0-.29v-.33c0-.39,0-.77.07-1.14a0,0,0,0,1,0,0c0-.08,0-.16,0-.23h0v0a16.6,16.6,0,0,1,.66-3.19l0-.14Zm.55-.83c-.11.15-.22.31-.33.48l.1.19c.08-.22.16-.43.24-.64l.06-.14Zm-.55.83-.09,0h0l-.15-.07-.08,0-.21-.09,0,1.49h0c0,.49,0,1,0,1.47l-.18-.33c-.1.79-.15,1.61-.17,2.45,0,.21,0,.41,0,.62h.27c0-.1,0-.2,0-.29v-.33c0-.39,0-.77.07-1.14a0,0,0,0,1,0,0c0-.08,0-.16,0-.23h0v0a16.6,16.6,0,0,1,.66-3.19l0-.14Zm.55-.83c-.11.15-.22.31-.33.48l.1.19c.08-.22.16-.43.24-.64l.06-.14Zm-.55.83-.09,0h0l-.15-.07-.08,0-.21-.09,0,1.49h0c0,.49,0,1,0,1.47l-.18-.33c-.1.79-.15,1.61-.17,2.45,0,.21,0,.41,0,.62h.27c0-.1,0-.2,0-.29v-.33c0-.39,0-.77.07-1.14a0,0,0,0,1,0,0c0-.08,0-.16,0-.23h0v0a16.6,16.6,0,0,1,.66-3.19l0-.14Zm.55-.83c-.11.15-.22.31-.33.48l.1.19c.08-.22.16-.43.24-.64l.06-.14Zm-.64.79h0l-.15-.07-.08,0-.21-.09,0,1.49h0c0,.49,0,1,0,1.47l-.18-.33c-.1.79-.15,1.61-.17,2.45,0,.21,0,.41,0,.62h.27c0-.1,0-.2,0-.29v-.33c0-.39,0-.77.07-1.14a0,0,0,0,1,0,0c0-.08,0-.16,0-.23h0v0a16.6,16.6,0,0,1,.66-3.19l0-.14-.23-.11ZM57.12,111c0-.81-.12-1.61-.22-2.37,0-.21-.06-.43-.1-.64-.08-.46-.16-.9-.26-1.34s-.15-.62-.23-.91l0-.14-.16-.55,0-.08-.11-.32c-.07-.21-.14-.42-.22-.63q-.24-.65-.52-1.24h0c-.08-.18-.17-.35-.26-.52q-.29-.56-.62-1.07a7.75,7.75,0,0,0-2.75-2.72,4.41,4.41,0,0,0-.65-.29l-.18-.06-.41-.1L49.94,98h-.4l-.42,0a5.68,5.68,0,0,0-3.73,2.48l-.33.46-.21.33-.11.18-.24.43c-.09.16-.17.33-.25.5s-.2.42-.3.64-.27.65-.39,1l0,.07-.15.44-.08.24c-.08.26-.16.53-.23.8a24.23,24.23,0,0,0-.77,5.66c0,.31,0,.62,0,.93,0,0,0,.08,0,.12s0,.34,0,.52h0c0,.19,0,.38,0,.57s0,.35,0,.52h0a24.91,24.91,0,0,0,.43,3.08,20.74,20.74,0,0,0,.82,2.93l.08.21.14.37v0c.15.38.31.71.49,1.06l.26.5q.16.3.34.59c.09.16.19.31.29.45l.13.19a8.46,8.46,0,0,0,.56.72,5.48,5.48,0,0,0,3.56,2.11h.42l.4,0,.44-.08.4-.11a4.6,4.6,0,0,0,.62-.26l.2-.11a5.89,5.89,0,0,0,1.1-.82,9.62,9.62,0,0,0,1.79-2.34c.2-.35.39-.73.56-1.12.07-.16.14-.32.21-.49.17-.41.33-.84.47-1.29q.08-.26.16-.52c.09-.29.17-.6.24-.91s.09-.38.13-.57a24.73,24.73,0,0,0,.53-4.92c0-.21,0-.42,0-.64S57.13,111.32,57.12,111Zm-2.49,5.87c-.08.3-.17.59-.26.88l-.17.47-.2.5-.18.4c-.12.25-.25.49-.38.72l-.23.37h0a6.11,6.11,0,0,1-1.28,1.44,4.08,4.08,0,0,1-.53.36l-.29.15-.4.15a3.14,3.14,0,0,1-.43.1h-.09l-.31,0a2.62,2.62,0,0,1-.42,0,3.85,3.85,0,0,1-2.17-1.16,6.8,6.8,0,0,1-.72-.85l-.3-.44a10.61,10.61,0,0,1-.6-1.1h0c-.15-.32-.29-.65-.42-1a14.91,14.91,0,0,1-.51-1.7h0a17.34,17.34,0,0,1-.31-1.72c-.08-.54-.12-1.1-.15-1.68,0-.21,0-.42,0-.64s0-.21,0-.31,0-.2,0-.29v-.33c0-.39,0-.77.07-1.14a0,0,0,0,1,0,0c0-.08,0-.16,0-.23h0v0a16.6,16.6,0,0,1,.66-3.19l0-.14.09-.27c.08-.22.16-.43.24-.64l.06-.14c.12-.28.25-.54.38-.79h0l.11-.21c.08-.14.16-.28.25-.42a7.18,7.18,0,0,1,.68-.92,4,4,0,0,1,2.31-1.41l.26,0h.16a2.64,2.64,0,0,1,.4,0,2.88,2.88,0,0,1,.44.09,3,3,0,0,1,.41.14l.22.1a4,4,0,0,1,.61.38,6.17,6.17,0,0,1,1.39,1.51q.16.24.31.49c.1.18.21.37.31.57s.17.35.25.53l.14.34.08.21c.1.25.19.51.27.77h0A16.34,16.34,0,0,1,55,109q.08.51.14,1c0,.31.06.63.08,1s0,.62,0,.93,0,.42,0,.64v.3A17.69,17.69,0,0,1,54.63,116.88Zm-9.82-10.55-.09,0h0l-.15-.07-.08,0-.21-.09,0,1.49h0c0,.49,0,1,0,1.47l-.18-.33c-.1.79-.15,1.61-.17,2.45,0,.21,0,.41,0,.62h.27c0-.1,0-.2,0-.29v-.33c0-.39,0-.77.07-1.14a0,0,0,0,1,0,0c0-.08,0-.16,0-.23h0v0a16.6,16.6,0,0,1,.66-3.19l0-.14Zm.55-.83c-.11.15-.22.31-.33.48l.1.19c.08-.22.16-.43.24-.64l.06-.14Zm-.55.83-.09,0h0l-.15-.07-.08,0-.21-.09,0,1.49h0c0,.49,0,1,0,1.47l-.18-.33c-.1.79-.15,1.61-.17,2.45,0,.21,0,.41,0,.62h.27c0-.1,0-.2,0-.29v-.33c0-.39,0-.77.07-1.14a0,0,0,0,1,0,0c0-.08,0-.16,0-.23h0v0a16.6,16.6,0,0,1,.66-3.19l0-.14Zm.55-.83c-.11.15-.22.31-.33.48l.1.19c.08-.22.16-.43.24-.64l.06-.14Zm-.55.83-.09,0h0l-.15-.07-.08,0-.21-.09,0,1.49h0c0,.49,0,1,0,1.47l-.18-.33c-.1.79-.15,1.61-.17,2.45,0,.21,0,.41,0,.62h.27c0-.1,0-.2,0-.29v-.33c0-.39,0-.77.07-1.14a0,0,0,0,1,0,0c0-.08,0-.16,0-.23h0v0a16.6,16.6,0,0,1,.66-3.19l0-.14Zm.55-.83c-.11.15-.22.31-.33.48l.1.19c.08-.22.16-.43.24-.64l.06-.14Zm-.55.83-.09,0h0l-.15-.07-.08,0-.21-.09,0,1.49h0c0,.49,0,1,0,1.47l-.18-.33c-.1.79-.15,1.61-.17,2.45,0,.21,0,.41,0,.62h.27c0-.1,0-.2,0-.29v-.33c0-.39,0-.77.07-1.14a0,0,0,0,1,0,0c0-.08,0-.16,0-.23h0v0a16.6,16.6,0,0,1,.66-3.19l0-.14Zm.55-.83c-.11.15-.22.31-.33.48l.1.19c.08-.22.16-.43.24-.64l.06-.14Zm-.55.83-.09,0h0l-.15-.07-.08,0-.21-.09,0,1.49h0c0,.49,0,1,0,1.47l-.18-.33c-.1.79-.15,1.61-.17,2.45,0,.21,0,.41,0,.62h.27c0-.1,0-.2,0-.29v-.33c0-.39,0-.77.07-1.14a0,0,0,0,1,0,0c0-.08,0-.16,0-.23h0v0a16.6,16.6,0,0,1,.66-3.19l0-.14Zm.55-.83c-.11.15-.22.31-.33.48l.1.19c.08-.22.16-.43.24-.64l.06-.14Zm-.55.83-.09,0h0l-.15-.07-.08,0-.21-.09,0,1.49h0c0,.49,0,1,0,1.47l-.18-.33c-.1.79-.15,1.61-.17,2.45,0,.21,0,.41,0,.62h.27c0-.1,0-.2,0-.29v-.33c0-.39,0-.77.07-1.14a0,0,0,0,1,0,0c0-.08,0-.16,0-.23h0v0a16.6,16.6,0,0,1,.66-3.19l0-.14Zm.55-.83c-.11.15-.22.31-.33.48l.1.19c.08-.22.16-.43.24-.64l.06-.14Z"/><path class="cls-7" d="M48.64,112a4,4,0,0,1,0-.63l-.17-.3H48.3l-.1,1.56h.51A3.7,3.7,0,0,1,48.64,112Zm0,0a4,4,0,0,1,0-.63l-.17-.3H48.3l-.1,1.56h.51A3.7,3.7,0,0,1,48.64,112Zm0,0a4,4,0,0,1,0-.63l-.17-.3H48.3l-.1,1.56h.51A3.7,3.7,0,0,1,48.64,112Zm0,0a4,4,0,0,1,0-.63l-.17-.3H48.3l-.1,1.56h.51A3.7,3.7,0,0,1,48.64,112Zm0,0a4,4,0,0,1,0-.63l-.17-.3H48.3l-.1,1.56h.51A3.7,3.7,0,0,1,48.64,112Zm0-.63-.17-.3H48.3l-.1,1.56h.51a3.7,3.7,0,0,1-.06-.63A4,4,0,0,1,48.69,111.42Zm3.19.45a7.07,7.07,0,0,0-.06-.79,6.59,6.59,0,0,0-.23-1.07h0c0-.09-.06-.18-.1-.27l-.05-.13,0-.08a3.57,3.57,0,0,0-.48-.83v0l-.15-.18-.18-.18-.08-.07a1.59,1.59,0,0,0-.44-.24l-.23-.05H49.6a1.23,1.23,0,0,0-.35.08,1.53,1.53,0,0,0-.49.31l-.09.08a2.37,2.37,0,0,0-.29.35l-.09.13-.14.25a4.9,4.9,0,0,0-.31.78h0a6.48,6.48,0,0,0-.24,1.2,7.51,7.51,0,0,0,0,.93c0,.21,0,.43,0,.63a6.7,6.7,0,0,0,.33,1.56,4.1,4.1,0,0,0,.58,1.13,2.29,2.29,0,0,0,.34.37l.17.13a1.49,1.49,0,0,0,.34.18h0a1.25,1.25,0,0,0,.42.08h0a1.11,1.11,0,0,0,.35-.08,1.46,1.46,0,0,0,.43-.25,1.84,1.84,0,0,0,.22-.21l.13-.15.06-.08a3.54,3.54,0,0,0,.36-.62c.06-.13.11-.26.16-.4s.07-.22.1-.33v0a6.83,6.83,0,0,0,.22-1.34c0-.21,0-.42,0-.64C51.88,112,51.88,111.91,51.88,111.87Zm-1.17,1a1.76,1.76,0,0,1,0,.18l0,.08a1.44,1.44,0,0,1-.06.17h0a1.64,1.64,0,0,1-.3.48l0,.05-.07.06,0,0-.07,0a.65.65,0,0,1-.3.08h-.27l-.05,0h0l-.08-.06-.07-.05a2.19,2.19,0,0,1-.55-1.18h0a3.7,3.7,0,0,1-.06-.63,4,4,0,0,1,0-.63,3,3,0,0,1,.06-.3,2,2,0,0,1,.45-.9l.07-.07a.79.79,0,0,1,.21-.13l.08,0h.13a.62.62,0,0,1,.3.08l.1.06.09.07.08.08.08.1.08.11.06.12.05.11h0v0a2.9,2.9,0,0,1,.11.29l0,.06a3.74,3.74,0,0,1,.09.44l0,.17v.1c0,.07,0,.15,0,.23a3.74,3.74,0,0,1,0,.64C50.75,112.74,50.73,112.82,50.71,112.9ZM48.64,112a4,4,0,0,1,0-.63l-.17-.3H48.3l-.1,1.56h.51A3.7,3.7,0,0,1,48.64,112Zm0,0a4,4,0,0,1,0-.63l-.17-.3H48.3l-.1,1.56h.51A3.7,3.7,0,0,1,48.64,112Zm0,0a4,4,0,0,1,0-.63l-.17-.3H48.3l-.1,1.56h.51A3.7,3.7,0,0,1,48.64,112Zm0,0a4,4,0,0,1,0-.63l-.17-.3H48.3l-.1,1.56h.51A3.7,3.7,0,0,1,48.64,112Zm0,0a4,4,0,0,1,0-.63l-.17-.3H48.3l-.1,1.56h.51A3.7,3.7,0,0,1,48.64,112Zm0,0a4,4,0,0,1,0-.63l-.17-.3H48.3l-.1,1.56h.51A3.7,3.7,0,0,1,48.64,112Z"/><path class="cls-8" d="M50.81,112a3.71,3.71,0,0,1,0,.63l9.29-.12L60,111l-9.35.12A3.61,3.61,0,0,1,50.81,112Z"/><path class="cls-8" d="M39.3,111.24l0,1.56,9.39-.12a3.8,3.8,0,0,1,0-1.26c0-.11,0-.21.06-.3Z"/><ellipse class="cls-7" cx="60.08" cy="111.83" rx="0.99" ry="1.88" transform="translate(-1.43 0.78) rotate(-0.74)"/><ellipse class="cls-7" cx="39.31" cy="112.17" rx="0.99" ry="1.88" transform="translate(-1.44 0.51) rotate(-0.74)"/><path class="cls-7" d="M49.33,113.92l.23,17.71h.82l-.23-17.69,0,0a.64.64,0,0,1-.36.13A.67.67,0,0,1,49.33,113.92Z"/><path class="cls-7" d="M49,92.29l.23,17.86a.67.67,0,0,1,.42-.17.61.61,0,0,1,.3.08l.1.06-.23-17.84Z"/><ellipse class="cls-7" cx="50" cy="131.71" rx="0.99" ry="1.88" transform="translate(-1.69 0.65) rotate(-0.74)"/><ellipse class="cls-7" cx="49.54" cy="92.28" rx="0.99" ry="1.88" transform="translate(-1.18 0.64) rotate(-0.74)"/><path class="cls-7" d="M50.12,114l0,.06.8,1.43,5.42,9.64.62,1.1.56-1.13-.65-1.15-5.38-9.56-.82-1.45a1.85,1.85,0,0,1-.56,1Z"/><path class="cls-7" d="M41.73,99l.63,1.13,5.49,9.76h0l.67,1.19.17.3c0-.11,0-.21.06-.3a2,2,0,0,1,.46-.9l-.82-1.45L43,99.13l-.69-1.22Z"/><path class="cls-8" d="M56.6,124.32c.37-.75,1-.78,1.4-.06a3.19,3.19,0,0,1,.06,2.66c-.37.75-1,.78-1.4.06A3.19,3.19,0,0,1,56.6,124.32Z"/><path class="cls-7" d="M41.33,97.08c.37-.75,1-.78,1.4-.06a3.19,3.19,0,0,1,.06,2.66c-.37.75-1,.78-1.4.06A3.19,3.19,0,0,1,41.33,97.08Z"/><path class="cls-7" d="M50,110.06l.1.06a1.76,1.76,0,0,1,.56.91l.75-1.52,5-10.06.6-1.21-.61-1.08-.57,1.16-5,10.16-.68,1.38Z"/><path class="cls-7" d="M42.31,125.65l.61,1.08.63-1.28,5-10.07.75-1.52a2.2,2.2,0,0,1-.55-1.19l-.78,1.57-5,10.22Z"/><path class="cls-7" d="M56,99.06c.4.72,1,.69,1.4-.06a3.19,3.19,0,0,0-.06-2.66c-.4-.72-1-.69-1.4.06A3.19,3.19,0,0,0,56,99.06Z"/><path class="cls-7" d="M42,127.65c.4.72,1,.69,1.4-.06a3.19,3.19,0,0,0-.06-2.66c-.4-.72-1-.69-1.4.06A3.19,3.19,0,0,0,42,127.65Z"/><path class="cls-6" d="M56.05,106.56l-.06-.09.08.26.14,0A.49.49,0,0,1,56.05,106.56Zm0,0-.06-.09.08.26.14,0A.49.49,0,0,1,56.05,106.56Zm0,0-.06-.09.08.26.14,0A.49.49,0,0,1,56.05,106.56Zm0,0-.06-.09.08.26.14,0A.49.49,0,0,1,56.05,106.56Zm0,0-.06-.09.08.26.14,0A.49.49,0,0,1,56.05,106.56Zm0,0-.06-.09.08.26.14,0A.49.49,0,0,1,56.05,106.56ZM58.79,111a25.72,25.72,0,0,0-.33-3.06c0-.12,0-.25-.07-.37,0-.27-.1-.54-.16-.8s-.14-.59-.22-.88-.13-.49-.21-.73l0-.12-.15-.47a16.7,16.7,0,0,0-1-2.31c-.12-.23-.24-.44-.36-.66l-.25-.4c-.1-.15-.2-.3-.3-.44s-.21-.29-.32-.43-.25-.31-.38-.45a5.34,5.34,0,0,0-3.42-1.92h-.4l-.42,0-.4.07-.43.12h0a4.47,4.47,0,0,0-.78.36,8.23,8.23,0,0,0-3,3.31l0,0c-.19.35-.37.72-.54,1.1h0c-.07.16-.14.33-.2.5q-.25.63-.46,1.31t-.37,1.37a.33.33,0,0,0,0,.07c0,.14-.07.28-.1.42h0c-.06.3-.12.61-.17.92h0c-.06.37-.12.75-.16,1.14-.1.79-.15,1.61-.17,2.45,0,.21,0,.41,0,.62s0,.2,0,.31,0,.42,0,.64c0,.51.05,1,.1,1.52h0c0,.05,0,.1,0,.16a23.48,23.48,0,0,0,.36,2.43c.1.53.23,1,.37,1.54s.27.89.42,1.32.33.87.51,1.28l.25.54c.19.39.39.75.6,1.09a8,8,0,0,0,2.87,2.94,4.16,4.16,0,0,0,.46.22l.37.13.44.11.4.06.42,0h.18l.21,0A4.09,4.09,0,0,0,53,125.8a6.29,6.29,0,0,0,2.57-2.07c.12-.15.23-.3.34-.46l.28-.42,0-.07.25-.42,0-.06.14-.25v0l0-.09c.12-.22.23-.46.34-.7a22.16,22.16,0,0,0,1.73-8.69c0-.21,0-.42,0-.64S58.8,111.29,58.79,111Zm-2.2,4.56v0c0,.2-.08.38-.12.57v0c-.06.28-.13.55-.2.82a13.17,13.17,0,0,1-.6,1.72,10.3,10.3,0,0,1-.56,1.11c-.08.14-.17.28-.26.41a6.65,6.65,0,0,1-.69.89,4.69,4.69,0,0,1-1,.83,3.29,3.29,0,0,1-1.22.46l-.4,0h-.15l-.28,0a2.75,2.75,0,0,1-.41-.08,3.15,3.15,0,0,1-.44-.16,3.35,3.35,0,0,1-.55-.29l-.28-.2A6.44,6.44,0,0,1,47.92,120a10.28,10.28,0,0,1-.57-1l0,0q-.13-.27-.24-.55a13.2,13.2,0,0,1-.47-1.34,0,0,0,0,1,0,0c-.06-.19-.11-.38-.16-.57a18,18,0,0,1-.53-3.66c0-.21,0-.42,0-.63s0-.62,0-.93a18.1,18.1,0,0,1,.41-3.32c0-.15.07-.29.1-.44.1-.38.21-.75.33-1.11l.09-.27c.06-.17.13-.34.2-.51s.12-.27.18-.41h0c.12-.26.24-.5.37-.73a6.63,6.63,0,0,1,1.59-2l.29-.22a3.63,3.63,0,0,1,.53-.3,2.72,2.72,0,0,1,.43-.16,2.49,2.49,0,0,1,.4-.1l.23,0h.2a2.64,2.64,0,0,1,.4,0,3.73,3.73,0,0,1,2,1,6.51,6.51,0,0,1,.74.81l.31.43.15.23h0c.08.12.16.25.23.38s.16.29.23.44l.13.27v0a12.22,12.22,0,0,1,.47,1.16l0,.08v0l.08.26c.1.31.19.63.27,1s.13.54.18.82v0l0,.21a18.7,18.7,0,0,1,.27,2.27q0,.46,0,.93c0,.21,0,.42,0,.64A18,18,0,0,1,56.58,115.55Zm-.53-9-.06-.09.08.26.14,0A.49.49,0,0,1,56.05,106.56Zm0,0-.06-.09.08.26.14,0A.49.49,0,0,1,56.05,106.56Zm0,0-.06-.09.08.26.14,0A.49.49,0,0,1,56.05,106.56Zm0,0-.06-.09.08.26.14,0A.49.49,0,0,1,56.05,106.56Zm0,0-.06-.09.08.26.14,0A.49.49,0,0,1,56.05,106.56Zm0,0-.06-.09.08.26.14,0A.49.49,0,0,1,56.05,106.56Z"/><path class="cls-6" d="M51,115.57h0v-.18l0-1.47-.07-.06-.41.83-.34.69a2.44,2.44,0,0,0,.26.3l.16.14A1.52,1.52,0,0,0,51,116Zm.57-5.57h0l.08,0,0,0Zm-1,.72-.06.14a1.94,1.94,0,0,0-.08.24h0l0,.13s0,.09,0,.14l0,0c0-.11,0-.21.06-.31l.06-.19a1.69,1.69,0,0,1,.07-.18Zm1-.72h0l.08,0,0,0Zm-1,.72-.06.14a1.94,1.94,0,0,0-.08.24h0l0,.13s0,.09,0,.14l0,0c0-.11,0-.21.06-.31l.06-.19a1.69,1.69,0,0,1,.07-.18Zm1-.72h0l.08,0,0,0Zm-1,.72-.06.14a1.94,1.94,0,0,0-.08.24h0l0,.13s0,.09,0,.14l0,0c0-.11,0-.21.06-.31l.06-.19a1.69,1.69,0,0,1,.07-.18Zm1-.72h0l.08,0,0,0Zm-1,.72-.06.14a1.94,1.94,0,0,0-.08.24h0l0,.13s0,.09,0,.14l0,0c0-.11,0-.21.06-.31l.06-.19a1.69,1.69,0,0,1,.07-.18Zm1-.72h0l.08,0,0,0Zm-1,.72-.06.14a1.94,1.94,0,0,0-.08.24h0l0,.13s0,.09,0,.14l0,0c0-.11,0-.21.06-.31l.06-.19a1.69,1.69,0,0,1,.07-.18Zm1-.72h0l.08,0,0,0Zm-1.11.86a1.94,1.94,0,0,0-.08.24h0l0,.13s0,.09,0,.14l0,0c0-.11,0-.21.06-.31l.06-.19a1.69,1.69,0,0,1,.07-.18h0Zm3,.2a6.25,6.25,0,0,0-.22-1,4.9,4.9,0,0,0-.19-.55c-.06-.14-.12-.27-.19-.4a3.15,3.15,0,0,0-.34-.52l-.1-.11a1.92,1.92,0,0,0-.36-.31l-.21-.12-.13-.05a1.18,1.18,0,0,0-.4-.06,1.23,1.23,0,0,0-.31,0h0l-.08,0a1.6,1.6,0,0,0-.4.24l0,0a2.25,2.25,0,0,0-.38.43l0,0a3.93,3.93,0,0,0-.45.9l0,.08-.06.18,0,.12a6.15,6.15,0,0,0-.21,1.08,8.16,8.16,0,0,0,0,.93c0,.22,0,.43,0,.64,0,0,0,.09,0,.13a6.37,6.37,0,0,0,.26,1.24h0l.06.19,0,.11a4,4,0,0,0,.53,1h0a2.44,2.44,0,0,0,.26.3l.16.14A1.52,1.52,0,0,0,51,116a1.27,1.27,0,0,0,.3.07h.12a1.11,1.11,0,0,0,.4-.08,1.36,1.36,0,0,0,.27-.14l.2-.15a2.18,2.18,0,0,0,.3-.32,3.16,3.16,0,0,0,.27-.41,4.18,4.18,0,0,0,.3-.69c0-.07.05-.15.07-.22a6.62,6.62,0,0,0,.27-1.48c0-.08,0-.16,0-.24s0-.27,0-.4A7.37,7.37,0,0,0,53.49,111.06Zm-1.06,1.58c0,.08,0,.16,0,.24a1.84,1.84,0,0,1-.56,1l0,0-.08,0h0l0,0h0l-.08,0h-.15l-.16,0h0l-.07,0,0,0L51,113.9l-.07-.06-.09-.1-.09-.12-.07-.11,0,0v0l-.05-.11h0a3,3,0,0,1-.2-.66,3.71,3.71,0,0,1-.06-.64,3.63,3.63,0,0,1,0-.62c0-.11,0-.21.06-.31l.06-.19a1.69,1.69,0,0,1,.07-.18l0-.09,0-.07.06-.1.1-.14,0-.06.05-.06.07-.07h0l.08-.06.07,0h0l0,0h0l.07,0h.27l.07,0h0l.08,0,.1.06a1.78,1.78,0,0,1,.56.91l0,.06a3.44,3.44,0,0,1,.13.93v.05A3.79,3.79,0,0,1,52.43,112.63Zm-1.89-1.92-.06.14a1.94,1.94,0,0,0-.08.24h0l0,.13s0,.09,0,.14l0,0c0-.11,0-.21.06-.31l.06-.19a1.69,1.69,0,0,1,.07-.18Zm1-.72h0l.08,0,0,0Zm-1,.72-.06.14a1.94,1.94,0,0,0-.08.24h0l0,.13s0,.09,0,.14l0,0c0-.11,0-.21.06-.31l.06-.19a1.69,1.69,0,0,1,.07-.18Zm1-.72h0l.08,0,0,0Zm-1,.72-.06.14a1.94,1.94,0,0,0-.08.24h0l0,.13s0,.09,0,.14l0,0c0-.11,0-.21.06-.31l.06-.19a1.69,1.69,0,0,1,.07-.18Zm1-.72h0l.08,0,0,0Zm-1,.72-.06.14a1.94,1.94,0,0,0-.08.24h0l0,.13s0,.09,0,.14l0,0c0-.11,0-.21.06-.31l.06-.19a1.69,1.69,0,0,1,.07-.18Zm1-.72h0l.08,0,0,0Zm-1,.72-.06.14a1.94,1.94,0,0,0-.08.24h0l0,.13s0,.09,0,.14l0,0c0-.11,0-.21.06-.31l.06-.19a1.69,1.69,0,0,1,.07-.18Zm1-.72h0l.08,0,0,0Zm-1,.72-.06.14a1.94,1.94,0,0,0-.08.24h0l0,.13s0,.09,0,.14l0,0c0-.11,0-.21.06-.31l.06-.19a1.69,1.69,0,0,1,.07-.18Zm1-.72h0l.08,0,0,0Z"/><path class="cls-6" d="M52.47,112a3.71,3.71,0,0,1,0,.63l9.29-.12,0-1.56-9.35.12A3.61,3.61,0,0,1,52.47,112Z"/><path class="cls-6" d="M41,111.22l0,1.56,9.39-.12a3.8,3.8,0,0,1,0-1.26c0-.11,0-.21.06-.3Z"/><ellipse class="cls-6" cx="61.74" cy="111.8" rx="0.99" ry="1.88" transform="translate(-1.43 0.8) rotate(-0.74)"/><ellipse class="cls-6" cx="40.97" cy="112.14" rx="0.99" ry="1.88" transform="translate(-1.44 0.54) rotate(-0.74)"/><path class="cls-9" d="M52,131.61h-.82l0-1.6,0-3.94,0-3.67L51,116l0-2.14a.66.66,0,0,0,.42.16.62.62,0,0,0,.36-.12l0,0V114l0,2,.08,6.36,0,3.67,0,3.87Z"/><path class="cls-6" d="M50.71,92.27l.23,17.86a.67.67,0,0,1,.42-.17.61.61,0,0,1,.3.08l.1.06-.23-17.84Z"/><path class="cls-9" d="M52.66,131.67c0,1-.42,1.88-1,1.89s-1-.83-1-1.87A2.42,2.42,0,0,1,51.2,130a.64.64,0,0,1,.45-.21.61.61,0,0,1,.38.14A2.27,2.27,0,0,1,52.66,131.67Z"/><ellipse class="cls-6" cx="51.2" cy="92.26" rx="0.99" ry="1.88" transform="translate(-1.18 0.67) rotate(-0.74)"/><path class="cls-6" d="M59.22,125l-.56,1.13-.62-1.1h0l-1.52-2.7-.29-.51h0l-1.14-2-2.48-4.4-.8-1.42h0l0-.06,0,0a1.84,1.84,0,0,0,.56-1l.81,1.45,2.46,4.38.59,1h0l.83,1.48,1.49,2.64h0Z"/><path class="cls-6" d="M43.39,99l.63,1.13,5.49,9.76h0l.67,1.19.17.3c0-.11,0-.21.06-.3a2,2,0,0,1,.46-.9l-.82-1.45-5.42-9.63L44,97.89Z"/><path class="cls-6" d="M58.26,124.3c.37-.75,1-.78,1.4-.06a3.19,3.19,0,0,1,.06,2.66c-.37.75-1,.78-1.4.06A3.19,3.19,0,0,1,58.26,124.3Z"/><path class="cls-6" d="M43,97.06c.37-.75,1-.78,1.4-.06a3.19,3.19,0,0,1,.06,2.66c-.37.75-1,.78-1.4.06A3.19,3.19,0,0,1,43,97.06Z"/><path class="cls-6" d="M51.66,110l.1.06a1.76,1.76,0,0,1,.56.91l.75-1.52,5-10.06.6-1.21L58,97.14l-.57,1.16-5,10.16-.68,1.38Z"/><path class="cls-9" d="M50.93,113.84l-.75,1.52L47.92,120l-1.31,2.66-1.39,2.82-.63,1.28-.6-1.08.58-1.18L46,121.52l1.31-2.66,2.28-4.62.77-1.57A2.21,2.21,0,0,0,50.93,113.84Z"/><path class="cls-6" d="M57.71,99c.4.72,1,.69,1.4-.06A3.19,3.19,0,0,0,59,96.32c-.4-.72-1-.69-1.4.06A3.19,3.19,0,0,0,57.71,99Z"/><path class="cls-9" d="M45.07,127.57c-.37.75-1,.78-1.4.06a3.2,3.2,0,0,1-.06-2.66c.25-.51.62-.68,1-.53a1,1,0,0,1,.45.46,2.3,2.3,0,0,1,.21.52A3.23,3.23,0,0,1,45.07,127.57Z"/><path class="cls-3" d="M55.21,112.9l-.93-.29h0l-.69-.23-.43-.13-.64-.2-.59-.18-.83-.25-.28-.09-.42-.13,0,.06h0l-.29.39-.64.81-.11.14a6.37,6.37,0,0,0,.26,1.24h0l.06.19,0,.05-.23.48-.49,1-1.53,3.11q-.13-.27-.24-.55a13.2,13.2,0,0,1-.47-1.34,0,0,0,0,1,0,0c-.06-.19-.11-.38-.16-.57l-1.21,1.51-.4.51q.19.68.42,1.32c.16.44.33.87.51,1.28l.25.54-.46.94-.31.63-.67,1.36-.06,0-.06,0h-.22l-.1,0-.09,0h0l-.12.09a.81.81,0,0,0-.12.12l0,0h0l-.05.09-.08.14a2.2,2.2,0,0,0-.12.29c0,.08,0,.16-.06.24v0h0a.24.24,0,0,0,0,0l0,.11v.11q0,.1,0,.2a.1.1,0,0,0,0,0c0,.07,0,.14,0,.21a2.44,2.44,0,0,0,0,.25.14.14,0,0,0,0,0,1.31,1.31,0,0,0,0,.21s0,.08,0,.13h0l0,.1,0,.09c0,.08,0,.15.07.22l.07.17.08.16a1.42,1.42,0,0,0,.16.24l.05.06,0,0L44,128l.07,0h0l0,0h0l.05,0,.07,0h0a.51.51,0,0,0,.21,0l.07,0,.07,0,.1-.06.09-.08a1.16,1.16,0,0,0,.17-.22l.07-.13a3.23,3.23,0,0,0,.15-2.14l.7-1.43.68-1.39a8,8,0,0,0,2.87,2.94,4.16,4.16,0,0,0,.46.22l.37.13.44.11.4.06,0,3.94-.11.13-.1.16-.09.18a2,2,0,0,0-.08.2h0q0,.1-.06.22h0c0,.08,0,.15,0,.23h0c0,.08,0,.16,0,.25h0c0,.08,0,.17,0,.26v.06a2.39,2.39,0,0,0,0,.29,1.41,1.41,0,0,0,0,.16v0a.85.85,0,0,0,0,.08.49.49,0,0,0,0,.06l0,.16h0a1.8,1.8,0,0,0,.07.22l.07.18L51,133l.07.12.1.13.06.07.09.08.07,0h0l0,0h0l.06,0h.19c.55,0,1-.85,1-1.89a2.27,2.27,0,0,0-.64-1.73l0-3.87A4.09,4.09,0,0,0,53,125.8a6.29,6.29,0,0,0,2.57-2.07c.12-.15.23-.3.34-.46l.28-.42v-1h0v-.6h0v-1.5h0V117l0-3.76Zm-.37,7.33a6.65,6.65,0,0,1-.69.89,4.69,4.69,0,0,1-1,.83,3.29,3.29,0,0,1-1.22.46v-.74l-.06-4.61v-1a1.36,1.36,0,0,0,.27-.14l.2-.15a2.18,2.18,0,0,0,.3-.32l.68,1.2.9,1.6.65,1.16.25.44C55,120,54.93,120.1,54.84,120.23ZM47.92,120,49.37,117l.43-.88,0-.07.16-.33.17-.35h0a2.44,2.44,0,0,0,.26.3l.16.14A1.52,1.52,0,0,0,51,116l.08,6.13v.24a2.75,2.75,0,0,1-.41-.08,3.15,3.15,0,0,1-.44-.16,3.35,3.35,0,0,1-.55-.29l-.28-.2A6.44,6.44,0,0,1,47.92,120Z"/><path class="cls-2" d="M56.37,110.11,51.52,110c-1.43-.14-1.78,3.38-.3,4l2.14.16-.74,26.81,4.21.13Z"/><path class="cls-7" d="M57,142.15a1.51,1.51,0,0,1-1.51-1.48l-.51-29a1.51,1.51,0,0,1,1.48-1.53h0A1.51,1.51,0,0,1,58,111.56l.51,29a1.51,1.51,0,0,1-1.48,1.53Z"/><path class="cls-10" d="M38.88,162.39c-5.05,2.19-10.27,1.63-15.62-1.18l7.63,15.54Z"/><polygon class="cls-5" points="93.15 150.82 87.66 150.91 82.18 150.99 83.43 55.91 83.48 51.96 83.87 22.57 83.92 19.11 85.44 19.09 86.54 19.07 86.72 22.68 88.19 51.95 93.15 150.82"/><polygon class="cls-2" points="83.92 19.11 83.87 22.57 82.18 150.99 87.66 150.91 87.45 138.71 92.41 136.22 91.93 126.75 85.53 59.28 85.5 22.95 85.44 19.09 83.92 19.11"/><path class="cls-11" d="M83.92,19.11l-.05,3.46a3.31,3.31,0,0,0,1.59.38h0a3.32,3.32,0,0,0,1.22-.26l-.17-3.61-1.1,0Z"/><path class="cls-2" d="M62.79,135A2.17,2.17,0,0,0,65,137.06a2.12,2.12,0,0,0,2.15-2.12,2.16,2.16,0,0,0-2.23-2.08A2.12,2.12,0,0,0,62.79,135Z"/><path class="cls-2" d="M123,135a2.17,2.17,0,0,0,2.23,2.08,2.12,2.12,0,0,0,2.15-2.12,2.16,2.16,0,0,0-2.23-2.08A2.12,2.12,0,0,0,123,135Z"/><path class="cls-12" d="M108.76,59.29A2.16,2.16,0,0,0,111,61.36a2.12,2.12,0,0,0,2.15-2.12,2.17,2.17,0,0,0-2.23-2.08A2.12,2.12,0,0,0,108.76,59.29Z"/><polygon class="cls-13" points="65.02 60.57 109.6 60.19 109.57 58.35 64.99 58.74 65.02 60.57"/><polygon class="cls-2" points="65 135.88 126.34 135.33 126.31 133.5 64.97 134.05 65 135.88"/><path class="cls-14" d="M131.61,117.51l-3.59.75,3,1.12q-.25.77-.52,1.54l-.24.66-.33.88a69,69,0,0,1-5,10.44l-.37.62c-.37.61-.75,1.23-1.14,1.84l-.38-.23a27.81,27.81,0,0,0-3-1.57h0c-7.41-3.4-17.06-4.31-27.93-3.16h0c-3.13.33-6.37.83-9.69,1.49q-4.34.86-8.84,2.09-3.17.86-6.4,1.89.65-.91,1.27-1.84c11.37-17.21,14.68-40.93,5.94-63l-.57-1.4-.27-.64a59.94,59.94,0,0,0-4.47-8.41c-.39-.61-.78-1.21-1.18-1.8l.26,0h0q4.07-.3,8.06-.51,3.61-.18,7.17-.28l2.12-.05,3,0c6.55-.07,12.93.1,19.12.55h0l1.14.67.82.5q1.22.76,2.4,1.58a52.46,52.46,0,0,1,11,10.23c-.82,1.18-2.07,2.59-2.07,2.59l4-.07C133.19,85.75,136.32,101.15,131.61,117.51Z"/><path class="cls-15" d="M131.61,117.51l-.57,1.87q-.25.77-.52,1.54a16.6,16.6,0,0,1-4.29.23c-14.67-.72-28.69-9.27-35.67-21.67l-.4-.73q-.59-1.1-1.11-2.24h0c-2.84-6.16-4.28-12.88-5.9-19.51h0c-1.4-5.72-2.94-11.37-5.64-16.53q-.48-.92-1-1.82l-.26-.44q3.61-.18,7.17-.28l2.12-.05,3,0c6.55-.07,12.93.1,19.12.55h0l1.14.67.82.5q1.22.76,2.4,1.58a52.46,52.46,0,0,1,11,10.23c.82,1,1.89,2.52,1.89,2.52C133.19,85.75,136.32,101.15,131.61,117.51Z"/><path class="cls-5" d="M173.28,140.61v0c0,.21-.06.41-.09.62q-.29.8-.59,1.59a53.68,53.68,0,0,1-49.41,33.91s-93,1.22-93.38,1.2a83.6,83.6,0,0,1-8.9-.59s-.06,0-.13-.21c-.18-.71-.37-1.24-.46-1.71h0v0a3.85,3.85,0,0,0-.1-.39,3.59,3.59,0,0,0-3.09-2.64h0l-.53-.05-.64,0c-1.79-.07-2.78-.22-4.71-.24s-5.8-.25-5.85-5.12c0-.06,0-.12,0-.18,0-4.24-.18-21-.2-23.69l53.59-.94,3.38-.06.36,0h0a3.17,3.17,0,0,1,2.85,3.12l0,3.55a3.51,3.51,0,0,0,3.31,3.44H69l43.39-.56a3.51,3.51,0,0,0,3.45-3.54l0-3.56a3.18,3.18,0,0,1,3.13-3.21Z"/><path class="cls-7" d="M8.69,142.82l0,1.21c.37,5.05,3.54,14.39,21.89,15.76.39,0,101-1.3,101-1.3a60.84,60.84,0,0,0,40.74-15.93c.6-.56,1-.95,1.58-1.53,0-.15-.16-.56-.14-.71l-54,.77-.3,0a4,4,0,0,0-2.28,1.34,2.9,2.9,0,0,0-.39.83,3.1,3.1,0,0,0-.16,1l0,3.56a3.5,3.5,0,0,1-3.45,3.54L69.87,152a3.5,3.5,0,0,1-3.54-3.45l0-3.56a3.17,3.17,0,0,0-3.21-3.13Z"/><path class="cls-16" d="M116,144.2l57.89-.47s.1-2.77,0-3-.49-.24-.47-.4l-54.41.7-.3,0A3.89,3.89,0,0,0,116,144.2Z"/><path class="cls-16" d="M4.22,142.51l0,1.21c0,.48-.07,1.3,0,1.87l61.11-1c-.44-1.24-1.58-2.86-3-2.84Z"/><path class="cls-12" d="M70.59,37.25a1.28,1.28,0,0,0,1.33,1.18,1.23,1.23,0,0,0,1.28-1.19,1.28,1.28,0,0,0-1.33-1.18A1.23,1.23,0,0,0,70.59,37.25Z"/><path class="cls-12" d="M96.6,37.12a1.28,1.28,0,0,0,1.33,1.18,1.23,1.23,0,0,0,1.28-1.19,1.28,1.28,0,0,0-1.33-1.18A1.23,1.23,0,0,0,96.6,37.12Z"/><polygon class="cls-12" points="72.36 37.76 97.7 37.64 97.67 36.6 72.34 36.72 72.36 37.76"/><path class="cls-13" d="M98.22,51.38a1.28,1.28,0,0,0,1.33,1.18,1.23,1.23,0,0,0,1.28-1.19,1.28,1.28,0,0,0-1.33-1.18A1.23,1.23,0,0,0,98.22,51.38Z"/><polygon class="cls-13" points="73.98 52.02 99.32 51.9 99.3 50.86 73.96 50.98 73.98 52.02"/><path class="cls-14" d="M99.34,48.65a17,17,0,0,1-.65,1.81c-.05.14-.12.27-.18.41s-.19.41-.29.62L98,51.9a93.89,93.89,0,0,0-9.85-.47c-.87,0-1.75,0-2.64,0l-2,.05q-4.1.14-8.45.5h0c.21-.35.4-.69.57-1a14.5,14.5,0,0,0,1.34-3.67l.16-1a9.92,9.92,0,0,0-.31-3.84,12.32,12.32,0,0,0-2.62-4.67c-.3-.34-.62-.69-1-1h0q2.21-.23,4.52-.35,1.69-.1,3.43-.14l2.55,0h1.81l1.89,0q2,0,4.11.13,2.5.1,5.07.27h0l.09.1c.26.31.5.62.73.93s.31.44.46.67a12.67,12.67,0,0,1,1.74,4A12.26,12.26,0,0,1,99.34,48.65Z"/><path class="cls-15" d="M77.72,36.36a24.54,24.54,0,0,0,10.13,8.93,36.43,36.43,0,0,0,11.5,3.35,12.3,12.3,0,0,0-2.75-12A157,157,0,0,0,77.72,36.36Z"/><path class="cls-4" d="M69.09,153a4.61,4.61,0,0,1-4.6-4.54l0-3.55a2.06,2.06,0,0,0-.62-1.46,2.09,2.09,0,0,0-1.47-.59l-58.11.75,0-2.21,58.11-.75a4.16,4.16,0,0,1,3,1.21,4.25,4.25,0,0,1,1.29,3l0,3.55a2.37,2.37,0,0,0,.72,1.68,2.5,2.5,0,0,0,1.69.68l43.39-.56a2.39,2.39,0,0,0,2.36-2.42l0-3.55a4.56,4.56,0,0,1,4.22-4.33l54.91-.71,0,2.21-54.91.71a2.35,2.35,0,0,0-2,2.16l0,3.5a4.6,4.6,0,0,1-4.54,4.66L69.15,153Z"/><circle class="cls-16" cx="154.89" cy="154.92" r="4.31" transform="translate(-5.64 304) rotate(-87.89)"/><circle class="cls-17" cx="155.51" cy="153.82" r="3.42" transform="translate(-3.93 303.56) rotate(-87.89)"/><circle class="cls-18" cx="156.61" cy="153.82" r="3.42" transform="translate(-2.88 304.65) rotate(-87.89)"/><path class="cls-4" d="M156.61,158h-.16a4.23,4.23,0,1,1,.16,0ZM154,153.72a2.61,2.61,0,1,0,2.71-2.52,2.62,2.62,0,0,0-2.71,2.52Z"/><polygon class="cls-11" points="88.29 54.04 83.43 55.91 83.48 51.96 88.19 51.95 88.29 54.04"/><path class="cls-13" d="M82.74,17.79a2.5,2.5,0,0,0,2.46,2.56,2.48,2.48,0,0,0,2.29-1.82,2.75,2.75,0,0,0,.12-.82,2.5,2.5,0,0,0-2.46-2.56,2.32,2.32,0,0,0-1,.25A2.63,2.63,0,0,0,82.74,17.79Z"/><path class="cls-12" d="M84,16.22a2.5,2.5,0,0,0,2.46,2.56,2.32,2.32,0,0,0,1-.25,2.75,2.75,0,0,0,.12-.82,2.5,2.5,0,0,0-2.46-2.56,2.32,2.32,0,0,0-1,.25A2.75,2.75,0,0,0,84,16.22Z"/><circle class="cls-16" cx="33.03" cy="161.27" r="7.97" transform="translate(-18.98 5.08) rotate(-6.84)"/><circle class="cls-19" cx="33.4" cy="160.2" r="6.24" transform="translate(-41.78 14.85) rotate(-15.57)"/><circle class="cls-18" cx="34.64" cy="160.2" r="6.24" transform="translate(-41.73 15.18) rotate(-15.57)"/><path class="cls-4" d="M41.76,158.21a7.4,7.4,0,1,0-5.14,9.11A7.4,7.4,0,0,0,41.76,158.21Zm-2.23.62a5,5,0,0,1,.09.53l-4.49.36-.37-4.6A5.08,5.08,0,0,1,39.53,158.83Zm-6.26-3.53.37-.08.37,4.59-4.43.36a5,5,0,0,1,3.7-4.87Zm-3.53,6.26c0-.09,0-.18,0-.27l4.41-.36.35,4.32a5,5,0,0,1-4.71-3.69ZM36,165.09c-.14,0-.29,0-.43.08l-.35-4.32,4.47-.36A5.07,5.07,0,0,1,36,165.09Z"/><path class="cls-16" d="M105.85,168.57a.54.54,0,0,0,0-.09h0a8.16,8.16,0,0,0-.7-2.26,7.46,7.46,0,0,0-.36-.67c-.09-.15-.18-.3-.28-.44a8.27,8.27,0,0,0-.81-1,9,9,0,0,0-.93-.86l-.37-.27-.21-.14a8.31,8.31,0,0,0-3-1.25l-.19,0h0l-.09,0a8.34,8.34,0,0,0-1.11-.12,8.68,8.68,0,0,0-1.9.14h0a8.42,8.42,0,0,0-3.48,1.54,8.9,8.9,0,0,0-.7.58A8.5,8.5,0,0,0,89.25,172a7.63,7.63,0,0,0,.26.83,7.39,7.39,0,0,0,.41.92,8.42,8.42,0,0,0,1.33,1.9,8.56,8.56,0,0,0,1.84,1.51h0a8.12,8.12,0,0,0,1.65.76,8.52,8.52,0,0,0,2.06.42l.34,0a8.4,8.4,0,0,0,1.48-.08h0A8.35,8.35,0,0,0,102,177l.21-.14.39-.28a8.43,8.43,0,0,0,2-2.24,6.07,6.07,0,0,0,.39-.69h0c.1-.2.19-.4.27-.61h0c.09-.21.16-.42.23-.63s.09-.3.13-.45l0-.1h0a9.17,9.17,0,0,0,.23-1.67s0-.08,0-.12h0A8.58,8.58,0,0,0,105.85,168.57Z"/><path class="cls-7" d="M99.17,175.24h-.1l.27,0,.1-.08Zm7-9.07c-.05-.15-.11-.3-.17-.45s-.05-.1-.08-.16h0a8,8,0,0,0-.58-1.11c-.11-.17-.23-.34-.35-.5h0a7.92,7.92,0,0,0-.6-.73c-.15-.16-.31-.32-.48-.47A8.19,8.19,0,0,0,99,160.57h0l-.41,0a8.09,8.09,0,0,0-1.16,0,8.17,8.17,0,0,0-4.78,2.17l-.31.3a8.19,8.19,0,0,0-2.33,5.46,8.41,8.41,0,0,0,.25,2.38c.07.27.16.54.25.81a7.53,7.53,0,0,0,.4.9,8.28,8.28,0,0,0,1.3,1.85A8.18,8.18,0,0,0,96.84,177a7.7,7.7,0,0,0,.86.11H98a8.68,8.68,0,0,0,1,0h.08a8.17,8.17,0,0,0,1.79-.37l.49-.18h0l.51-.23h0a8.31,8.31,0,0,0,2-1.33,8.56,8.56,0,0,0,1.14-1.27h0a8.24,8.24,0,0,0,1.55-4.52c0-.16,0-.33,0-.49A8.27,8.27,0,0,0,106.17,166.17Zm-11,8.31-.44-.27a6.51,6.51,0,0,1-2.37-2.85,6.41,6.41,0,0,1-.51-2.5c0-.09,0-.18,0-.28a6.43,6.43,0,0,1,2-4.48l0,0a6.76,6.76,0,0,1,.84-.66,5.71,5.71,0,0,1,.49-.29,6.39,6.39,0,0,1,3.31-.77h.25l.23,0a6.38,6.38,0,0,1,2.2.65h0a6.46,6.46,0,0,1,1.55,1.1l.27.27.36.42a6.39,6.39,0,0,1,1.37,3.67c0,.18,0,.37,0,.56a6.4,6.4,0,0,1-1.23,3.56,2.55,2.55,0,0,1-.19.25h0a6.6,6.6,0,0,1-.94.95,7.23,7.23,0,0,1-.61.45l-.3.18-.41.21a6.07,6.07,0,0,1-.79.32l-.17,0h0a6,6,0,0,1-.71.17l-.27,0h-.11a6.49,6.49,0,0,1-3.38-.52h0a5.2,5.2,0,0,1-.49-.25Zm4,.76h-.1l.27,0,.1-.08Zm0,0h-.1l.27,0,.1-.08Z"/><path class="cls-18" d="M106.64,166.13a2.14,2.14,0,0,0-.1-.25,7.08,7.08,0,0,0-.75-1.32,7.37,7.37,0,0,0-5.38-3.08H100a8,8,0,0,0-1,0l-.17,0a7.25,7.25,0,0,0-1.33.29,7.34,7.34,0,0,0-2.8,1.63,7.13,7.13,0,0,0-.9,1,7.39,7.39,0,0,0-1.38,5.5,7.2,7.2,0,0,0,.15.75A7.37,7.37,0,0,0,98.28,176a6.63,6.63,0,0,0,.9.13h0l.27,0a7.29,7.29,0,0,0,2-.21l.22-.06.14,0a7.39,7.39,0,0,0,2-.94,7,7,0,0,0,.75-.58,7.46,7.46,0,0,0,1.2-1.35h0a7.23,7.23,0,0,0,.68-1.22,7.33,7.33,0,0,0,.62-2.69c0-.14,0-.28,0-.42A7.17,7.17,0,0,0,106.64,166.13Z"/><path class="cls-4" d="M107.6,166.12l0-.12a8.28,8.28,0,0,0-7.48-5.46,7.62,7.62,0,0,0-1,0h0a8,8,0,0,0-1.21.19,7.88,7.88,0,0,0-2,.75h0a8.29,8.29,0,0,0-4.36,7,8.41,8.41,0,0,0,.25,2.38c.07.27.16.54.25.81l.09.22a8.31,8.31,0,0,0,5.16,4.79,8.36,8.36,0,0,0,1.72.35h.16l.33,0a8.3,8.3,0,0,0,1.29-.05h0l.24,0a8.09,8.09,0,0,0,1.13-.25l.21-.07.24-.08a8.34,8.34,0,0,0,3.84-2.89h0a8.3,8.3,0,0,0,1-1.82h0l.08-.21a8.34,8.34,0,0,0,.06-5.54Zm-1.87,5.25h0a5.1,5.1,0,0,1-.31.63,6.45,6.45,0,0,1-1,1.37h0a6.37,6.37,0,0,1-1.21,1l-.25.15,0,0h0a6.27,6.27,0,0,1-1.53.6,5.86,5.86,0,0,1-.72.14l-.21,0-.21,0h-.87l-.27,0h-.27a6.37,6.37,0,0,1-3.77-2l-.18-.2a5.41,5.41,0,0,1-.36-.46h0a6.33,6.33,0,0,1-.89-1.78h0a6.36,6.36,0,0,1-.3-1.85h0a.65.65,0,0,1,0-.08c0-.09,0-.18,0-.28a6.43,6.43,0,0,1,1-3.28,6.51,6.51,0,0,1,1-1.23c.13-.12.26-.23.39-.34l0,0a6.38,6.38,0,0,1,3.28-1.34,6.59,6.59,0,0,1,1,0h.46a6.31,6.31,0,0,1,1.7.42,4.9,4.9,0,0,1,.53.24h0l.34.19h0a6.33,6.33,0,0,1,1.46,1.18,6.59,6.59,0,0,1,.8,1.06,6,6,0,0,1,.38.73c.07.16.14.31.19.48h0a6.49,6.49,0,0,1,.35,1.92c0,.15,0,.3,0,.45a6.36,6.36,0,0,1-.39,2C105.82,171.15,105.77,171.25,105.73,171.36Z"/><path class="cls-14" d="M83.51,31.12c-4-5.7-6.36,4.27-17.16,3.93a19.15,19.15,0,0,1-2.71-.29,21.24,21.24,0,0,1-13.48-8.19,11.5,11.5,0,0,0,8.5,2.09c-1.81-1.73-3.61-3.47-4.1-7.17a25.42,25.42,0,0,0,8.73,4.77,13.15,13.15,0,0,0,3.42.51,9.26,9.26,0,0,0,5-1.31c.77-.46,5.66-5.1,10.21-4.41a9.83,9.83,0,0,1,2.49.68,4.66,4.66,0,0,0-2.46,3.61c-.14,1.76,1.3,4.31,2.36,5.54C85.09,31.82,83.51,31.12,83.51,31.12Z"/><path class="cls-15" d="M66.72,26.77c-.13,2.89-.26,5.85-.37,8.28a19.15,19.15,0,0,1-2.71-.29,21.24,21.24,0,0,1-13.48-8.19,11.5,11.5,0,0,0,8.5,2.09c-1.81-1.73-3.61-3.47-4.1-7.17a25.42,25.42,0,0,0,8.73,4.77A13.15,13.15,0,0,0,66.72,26.77Z"/><line class="cls-20" x1="207.67" y1="124.19" x2="207.13" y2="121.6"/><path class="cls-6" d="M184.34,142.68a.72.72,0,0,1-.7-.55l-2-8.23a.72.72,0,1,1,1.4-.34l2,8.23a.72.72,0,0,1-.53.87Z"/><path class="cls-6" d="M182,144.05a.72.72,0,0,1-.71-.6l-1.47-8.59a.72.72,0,0,1,.59-.83.73.73,0,0,1,.83.59l1.47,8.59a.72.72,0,0,1-.59.83Z"/><line class="cls-21" x1="87.16" y1="31.45" x2="83.77" y2="31.08"/><line class="cls-21" x1="87.12" y1="30.4" x2="83.79" y2="30.88"/><line class="cls-21" x1="86.9" y1="21.88" x2="83.84" y2="21.69"/><line class="cls-21" x1="86.85" y1="22.89" x2="83.7" y2="21.97"/><path class="cls-16" d="M77.63,168.57a.42.42,0,0,0,0-.09h0a8.25,8.25,0,0,0-.87-2.6c-.06-.11-.12-.23-.19-.34h0a8.05,8.05,0,0,0-1.09-1.46,8.73,8.73,0,0,0-.93-.86l-.36-.27h0l-.21-.15a8.38,8.38,0,0,0-3.19-1.29h0l-.09,0a8.47,8.47,0,0,0-2.92,0h-.1a8.41,8.41,0,0,0-3.49,1.54l-.21.16c-.16.13-.33.27-.49.42a8.43,8.43,0,0,0-2.7,5.9A8.59,8.59,0,0,0,61,172a8.35,8.35,0,0,0,.26.83,7.66,7.66,0,0,0,.41.92,7.47,7.47,0,0,0,.68,1.11,8.33,8.33,0,0,0,.65.79,8.47,8.47,0,0,0,2.51,1.86h0a8.27,8.27,0,0,0,3,.82l.33,0a8.42,8.42,0,0,0,1.48-.08h0a8.4,8.4,0,0,0,1.47-.34,8.54,8.54,0,0,0,1.22-.52h0a8.43,8.43,0,0,0,1.25-.79A8.55,8.55,0,0,0,76,175h0a7,7,0,0,0,.44-.64,7.86,7.86,0,0,0,.4-.7v0c.1-.2.19-.41.28-.62h0l.08-.21c0-.13.1-.27.14-.4s.11-.36.15-.55h0a7.74,7.74,0,0,0,.15-.78h0a8.83,8.83,0,0,0,.08-.88s0-.08,0-.11h0A8.36,8.36,0,0,0,77.63,168.57Z"/><path class="cls-7" d="M77.73,165.56h0a8.05,8.05,0,0,0-.59-1.11h0c-.11-.17-.22-.34-.35-.51h0a8.33,8.33,0,0,0-.6-.73c-.16-.17-.31-.33-.48-.47a8.18,8.18,0,0,0-4.86-2.14h0l-.41,0a8.23,8.23,0,0,0-5.94,2.21l-.31.31-.17.19a8.19,8.19,0,0,0-2.15,5.26,8.3,8.3,0,0,0,.26,2.38,7.88,7.88,0,0,0,.25.81,8,8,0,0,0,.4.9,8.28,8.28,0,0,0,.87,1.35c.14.17.28.34.43.5a8.22,8.22,0,0,0,5.43,2.62l.33,0a8.68,8.68,0,0,0,1,0,8.34,8.34,0,0,0,1.86-.38l.49-.18h0a8.19,8.19,0,0,0,2.49-1.57l.26-.25a8.24,8.24,0,0,0,.88-1h0l0,0a7.87,7.87,0,0,0,.49-.78,8.22,8.22,0,0,0,1-3.73c0-.16,0-.33,0-.49A8.17,8.17,0,0,0,77.73,165.56ZM65.18,173a6.46,6.46,0,0,1-1.55-4.16c0-.09,0-.18,0-.28a6.42,6.42,0,0,1,1.85-4.29l.19-.18h0l0,0a6.35,6.35,0,0,1,.83-.65,4.72,4.72,0,0,1,.49-.3h0a6.23,6.23,0,0,1,1.9-.67,6.67,6.67,0,0,1,1.42-.1h.25l.23,0a6.4,6.4,0,0,1,2.75,1,6.29,6.29,0,0,1,1.27,1.06l.36.42h0a6.48,6.48,0,0,1,1.37,3.67c0,.18,0,.37,0,.56a6.39,6.39,0,0,1-.94,3.13l-.22.33c-.08.12-.17.24-.26.35a6.73,6.73,0,0,1-.93.95h0a7.23,7.23,0,0,1-.61.45l-.3.18a6.31,6.31,0,0,1-1.2.53l-.17,0h0a5.92,5.92,0,0,1-1,.21h-.11a6.5,6.5,0,0,1-3.39-.52h0a5.07,5.07,0,0,1-.5-.25h0a5,5,0,0,1-.43-.26,6.27,6.27,0,0,1-1.16-1Z"/><path class="cls-18" d="M78.11,165.41a7.09,7.09,0,0,0-.53-.86h0a7.39,7.39,0,0,0-5.38-3.08h-.37a7.32,7.32,0,0,0-2.48.33,6.87,6.87,0,0,0-.83.32,7.3,7.3,0,0,0-2,1.32,7.08,7.08,0,0,0-.88,1l0,0h0a7.39,7.39,0,0,0-1.37,5.49,7.36,7.36,0,0,0,1.15,3,6.93,6.93,0,0,0,1.11,1.31,7.28,7.28,0,0,0,4.13,1.92l.27,0H71l.27,0a7.27,7.27,0,0,0,2-.21l.36-.1a7.33,7.33,0,0,0,2-1l.27-.19c.17-.12.33-.25.49-.39a7.38,7.38,0,0,0,1.2-1.35h0a7.32,7.32,0,0,0,1.3-3.91c0-.14,0-.28,0-.42A7.31,7.31,0,0,0,78.11,165.41Z"/><path class="cls-4" d="M78.92,165a8.29,8.29,0,0,0-7.06-4.49,7.62,7.62,0,0,0-1,0h0a8.1,8.1,0,0,0-3.11.91l-.06,0h0a8.28,8.28,0,0,0-4.37,7,8.3,8.3,0,0,0,.26,2.38,7.88,7.88,0,0,0,.25.81l.09.22h0a8,8,0,0,0,.73,1.4,8.13,8.13,0,0,0,.88,1.13,8.22,8.22,0,0,0,5.34,2.61h.09l.33,0A8.06,8.06,0,0,0,72.8,177a8.41,8.41,0,0,0,1.34-.32l.24-.08a8.09,8.09,0,0,0,1.71-.86A8.28,8.28,0,0,0,78.92,165Zm-1.41,6.33v0a6.37,6.37,0,0,1-.7,1.23,6.18,6.18,0,0,1-.64.76h0c-.13.13-.27.26-.41.38a6.22,6.22,0,0,1-.8.58l-.25.15-.05,0a6.38,6.38,0,0,1-2.24.73l-.21,0-.21,0h-.92l-.21,0h0l-.2,0a6.38,6.38,0,0,1-3.83-2l-.17-.2a4.63,4.63,0,0,1-.36-.47h0l0,0a5.91,5.91,0,0,1-.82-1.65l-.06-.13a6.83,6.83,0,0,1-.28-1.82h0a.65.65,0,0,1,0-.08c0-.09,0-.18,0-.28a6.43,6.43,0,0,1,1-3.28c.1-.16.21-.31.32-.45a6.69,6.69,0,0,1,.71-.78,6.48,6.48,0,0,1,2.13-1.32,6.13,6.13,0,0,1,1.57-.37,6.59,6.59,0,0,1,1,0h.25l.19,0h0a6.43,6.43,0,0,1,1.71.42,5.18,5.18,0,0,1,.53.24h0l.34.19h0a6.26,6.26,0,0,1,1.46,1.18,6.48,6.48,0,0,1,1,1.32,6,6,0,0,1,.43,1h0a6.31,6.31,0,0,1,.36,1.9c0,.15,0,.3,0,.45a6.48,6.48,0,0,1-.39,2h0C77.6,171.16,77.56,171.25,77.51,171.36Z"/><path class="cls-16" d="M133.75,168.57l0-.09v0a8.24,8.24,0,0,0-.95-2.73l-.11-.19h0a8.41,8.41,0,0,0-1.09-1.46,8.73,8.73,0,0,0-.93-.86l-.36-.27h0l-.21-.15a8.38,8.38,0,0,0-3.18-1.29h0l-.09,0a8.39,8.39,0,0,0-1.11-.12,8.68,8.68,0,0,0-1.9.14h0a8.39,8.39,0,0,0-3.47,1.54l-.08.06c-.21.17-.42.34-.62.53a8.49,8.49,0,0,0-2.18,9.17,7.39,7.39,0,0,0,.41.92,3.29,3.29,0,0,0,.17.31,8.3,8.3,0,0,0,1.16,1.59l.17.18a8,8,0,0,0,1.14,1,8.34,8.34,0,0,0,4.15,1.52h.15l.29,0h.21a7.74,7.74,0,0,0,1.27-.08h0a8.41,8.41,0,0,0,4-1.66,8,8,0,0,0,.64-.54,8.37,8.37,0,0,0,1.41-1.7,6.07,6.07,0,0,0,.39-.69h0l.06-.12c.08-.16.15-.33.22-.49h0c.09-.21.16-.42.23-.63s.11-.36.15-.55h0a9.17,9.17,0,0,0,.23-1.67s0-.08,0-.12h0A8.58,8.58,0,0,0,133.75,168.57Z"/><path class="cls-7" d="M133.83,165.56h0l-.14-.31a8.2,8.2,0,0,0-.45-.81,5.84,5.84,0,0,0-.35-.51h0a8.25,8.25,0,0,0-.6-.72c-.16-.17-.31-.33-.48-.48a8.2,8.2,0,0,0-4.86-2.13h0l-.41,0a8.2,8.2,0,0,0-5.94,2.21l-.3.3-.08.08a8.18,8.18,0,0,0-2.26,5.38,8.3,8.3,0,0,0,.25,2.38c.07.27.16.54.25.81a7.53,7.53,0,0,0,.4.9,7.06,7.06,0,0,0,.42.71,8.08,8.08,0,0,0,.88,1.14,8.19,8.19,0,0,0,3.62,2.28h0l.37.11a7.92,7.92,0,0,0,1.41.23l.33,0a8.68,8.68,0,0,0,1,0l.44-.05a8.07,8.07,0,0,0,1.42-.33l.49-.18h0l.57-.25h0a8.37,8.37,0,0,0,3.06-2.58h0a1.06,1.06,0,0,0,.1-.14h0a8.17,8.17,0,0,0,1.45-4.37c0-.16,0-.33,0-.49A8,8,0,0,0,133.83,165.56Zm-13,6.87a6.23,6.23,0,0,1-.59-1.07,6.41,6.41,0,0,1-.51-2.5c0-.09,0-.18,0-.28a6.45,6.45,0,0,1,2-4.48h0l0,0a6.66,6.66,0,0,1,.83-.66,5.2,5.2,0,0,1,.5-.3,6.39,6.39,0,0,1,3.31-.77h.25l.23,0a6.39,6.39,0,0,1,2.75,1A6.31,6.31,0,0,1,131,164.4l.36.42a6.36,6.36,0,0,1,.79,1.29,6.49,6.49,0,0,1,.59,2.39c0,.18,0,.37,0,.56a6.44,6.44,0,0,1-1.42,3.81,6.57,6.57,0,0,1-.93.95h0a7.18,7.18,0,0,1-.61.45l-.3.18a6.39,6.39,0,0,1-1.2.53l-.17,0h0a5.92,5.92,0,0,1-1,.21H127a6.49,6.49,0,0,1-3.38-.52h0a4.63,4.63,0,0,1-.49-.25h0l-.43-.27a6.56,6.56,0,0,1-1.16-1A6.11,6.11,0,0,1,120.85,172.43Z"/><path class="cls-18" d="M134,165c-.1-.17-.21-.33-.32-.49a7.38,7.38,0,0,0-5.38-3.08h-.37a7.4,7.4,0,0,0-6.19,3h0a7.07,7.07,0,0,0-.78,1.31,7.4,7.4,0,0,0-.6,4.18,7.2,7.2,0,0,0,.15.75,7.35,7.35,0,0,0,2.11,3.55,7.54,7.54,0,0,0,1,.79,7.33,7.33,0,0,0,3.43,1.16h.05l.27,0a7.36,7.36,0,0,0,1.46-.09h0l.56-.12.36-.1a7.32,7.32,0,0,0,2-1,7.56,7.56,0,0,0,.75-.57,7.68,7.68,0,0,0,1.14-1.25l.07-.1h0a7.36,7.36,0,0,0,1.3-3.92c0-.14,0-.28,0-.42A7.3,7.3,0,0,0,134,165Z"/><path class="cls-4" d="M134.8,164.6a8.1,8.1,0,0,0-1.06-1.42,8.22,8.22,0,0,0-5.76-2.64,7.62,7.62,0,0,0-1,0h0a8.13,8.13,0,0,0-3.17.94h0a8.3,8.3,0,0,0-4.11,9.38c.07.27.16.54.25.81l.09.22a7.18,7.18,0,0,0,.37.79,8.23,8.23,0,0,0,6.59,4.36h.42a8.07,8.07,0,0,0,1.55-.09,8.31,8.31,0,0,0,1.34-.32l.24-.08a8.38,8.38,0,0,0,1.4-.66h0a8.34,8.34,0,0,0,3.36-3.8h0a8.29,8.29,0,0,0-.46-7.52ZM128,175.29h-1l-.2,0a6.37,6.37,0,0,1-3.54-1.7l-.3-.3-.18-.2a5.41,5.41,0,0,1-.36-.46h0a6.46,6.46,0,0,1-.89-1.78h0a6.36,6.36,0,0,1-.3-1.85h0a.65.65,0,0,1,0-.08c0-.09,0-.18,0-.28a6.58,6.58,0,0,1,.2-1.37h0a6.39,6.39,0,0,1,.83-1.91,6.51,6.51,0,0,1,1-1.23,6.43,6.43,0,0,1,3.69-1.69,6.59,6.59,0,0,1,1,0h.25l.2,0h0a6.28,6.28,0,0,1,1.7.42,5.18,5.18,0,0,1,.53.24h0l.34.19h0a6.32,6.32,0,0,1,1.46,1.18,6.44,6.44,0,0,1,.81,1.08,6.13,6.13,0,0,1,.57,1.21h0a6.31,6.31,0,0,1,.36,1.9c0,.15,0,.3,0,.45a6.44,6.44,0,0,1-.39,2c0,.11-.08.2-.13.31v0a6.48,6.48,0,0,1-1.35,2h0a6.42,6.42,0,0,1-1.2,1l-.25.15,0,0h0a6.38,6.38,0,0,1-2.24.73l-.21,0-.21,0H128Z"/><line class="cls-22" x1="120.87" y1="57.99" x2="84.63" y2="31.26"/><path class="cls-2" d="M10.33,174.37a6.29,6.29,0,0,0-1.11,3.78c0,1.68.06,3.35.11,4.79h9.86C18,178.84,15.8,175.18,10.33,174.37Z"/><path class="cls-2" d="M19.19,182.94h3.58a40.17,40.17,0,0,1-2-6c-.18-.71-.31-1.31-.41-1.78h0v0a3.91,3.91,0,0,0-.1-.39,3.59,3.59,0,0,0-3.09-2.64h0l-.53-.05-.64,0c-.77,0-1.39-.08-2-.12a6.69,6.69,0,0,0-3.61,2.49C15.8,175.18,18,178.84,19.19,182.94Z"/><path class="cls-23" d="M19.19,182.94h3.58a40.17,40.17,0,0,1-2-6c-.18-.71-.31-1.31-.41-1.78h0v0a3.91,3.91,0,0,0-.1-.39,3.59,3.59,0,0,0-3.09-2.64h0l-.53-.05-.64,0c-.77,0-1.39-.08-2-.12a6.69,6.69,0,0,0-3.61,2.49C15.8,175.18,18,178.84,19.19,182.94Z"/><path class="cls-24" d="M154.54,182.94H9.33c.08,2.6.18,4.5.18,4.5l11.57.29,3.79.1,0-.81h0c2.63,4.22,6.58,8,12.4,8.42,2.13.17,84.42-.52,84.42-.52a53.47,53.47,0,0,0,7.53-.64L130.6,199c14.48-.19,25.59-6.39,33.2-16Z"/></g></g></svg>