<svg xmlns="http://www.w3.org/2000/svg" xmlns:xlink="http://www.w3.org/1999/xlink" viewBox="0 0 216 216"><defs><style>.cls-1{fill:none;}.cls-2{isolation:isolate;}.cls-3{clip-path:url(#clip-path);}.cls-4{fill:#fff;}.cls-5{fill:url(#linear-gradient);}.cls-6{fill:url(#linear-gradient-2);}.cls-7{opacity:0.41;mix-blend-mode:overlay;fill:url(#linear-gradient-3);}</style><clipPath id="clip-path"><rect class="cls-1" y="13.99" width="216" height="114.34" transform="translate(216 142.32) rotate(-180)"/></clipPath><linearGradient id="linear-gradient" x1="-12793.84" y1="107.95" x2="-12755.3" y2="178.09" gradientTransform="matrix(-1, 0, 0, 1, -12680.92, 0)" gradientUnits="userSpaceOnUse"><stop offset="0.16" stop-color="#fff"/><stop offset="0.31" stop-color="#ebf9fd"/><stop offset="0.63" stop-color="#b7eaf8"/><stop offset="1" stop-color="#74d6f1"/></linearGradient><linearGradient id="linear-gradient-2" x1="-12741.75" y1="43.44" x2="-12721.54" y2="66.1" xlink:href="#linear-gradient"/><linearGradient id="linear-gradient-3" x1="122.59" y1="236.84" x2="121.25" y2="161.35" gradientUnits="userSpaceOnUse"><stop offset="0" stop-color="#231f20" stop-opacity="0"/><stop offset="1" stop-color="#231f20"/></linearGradient></defs><title>sea_battle_game</title><g class="cls-2"><g id="Layer_1" data-name="Layer 1"><g class="cls-3"><path class="cls-4" d="M50.78,59.12l2,8.09,3.91,16c2.93,15,12.45,23.34,46.93,30.24,43.47,8.69,105.71-3,105.71-3a.41.41,0,0,1,.41.41h0a76,76,0,0,1-76,76H87.92a55.11,55.11,0,0,1-55.11-55.11V59.19a.41.41,0,0,1,.41-.41H50.38A.41.41,0,0,1,50.78,59.12Z"/><path class="cls-5" d="M33.22,58.79H34.5c8.45,32.5,2.63,73.29,30.44,96,33.77,27.71,77.93,1.73,118.63,5.2,2.36.31,4.71.69,7,1.14a75.82,75.82,0,0,1-56.93,25.65H87.92a55.11,55.11,0,0,1-55.11-55.11V59.19A.41.41,0,0,1,33.22,58.79Z"/><path class="cls-4" d="M12.12,20.88h6.63A23.67,23.67,0,0,1,42.42,44.55V65.93a0,0,0,0,1,0,0h-.52A29.77,29.77,0,0,1,12.12,36.16V20.88A0,0,0,0,1,12.12,20.88Z" transform="translate(54.54 86.81) rotate(-180)"/><path class="cls-4" d="M72.19,20.88h.52a0,0,0,0,1,0,0V42.26A23.67,23.67,0,0,1,49,65.93H42.42a0,0,0,0,1,0,0V50.65A29.77,29.77,0,0,1,72.19,20.88Z"/><path class="cls-4" d="M107.67,160.87h10V182a28.76,28.76,0,0,1-28.76,28.76v-31.1A18.81,18.81,0,0,1,107.67,160.87Z"/><path class="cls-6" d="M52.44,65.91s8.85-.52,12.84-5.07,6.2-6.73,7.4-15.11l0-24.85S49.3,23.38,49.07,39.95A97.11,97.11,0,0,0,50.8,57.11"/></g><path class="cls-7" d="M207.53,112.55l-35.13,5.38-41,.37c-1.9-10.11,4.25-23,4.25-23a8.7,8.7,0,0,0,11,3.63c5.07-1.94,2.6-4.51.53-5.94,5.33,2,16.62.08,7.6-4.47C144.46,83.3,129,90,129,90c-19.35-11.42-32.9.78-30.32,4s12.18-2.9,12.18-2.9-6,4.19,0,6.45S120.89,94,120.89,94c6,3.1,7.11,18.68,6.92,24.34l-38.28-6c-15.28,0-30.14-14.66-33.07-29.66l-3.91-16-.32-1.3h0c2-.09-31.2-.27-19.7,0v65.9a55,55,0,0,0,11,33q1.59,2.13,3.37,4.09a55.55,55.55,0,0,0,5.75,5.48q1,.84,2.09,1.64a55,55,0,0,0,33,11h.95v24a28.81,28.81,0,0,0,28.4-24h16.5l2,0,.66,0,1.37-.06.79,0,1.23-.08.83-.07,1.18-.11.84-.1,1.16-.14.83-.12,1.16-.18.81-.13,1.16-.21.79-.15,1.19-.25.74-.16,1.23-.29.68-.16,1.33-.35.56-.15,1.51-.44.36-.11q2.87-.88,5.63-2l.09,0,1.72-.71.26-.11,1.53-.68.33-.15,1.44-.69.34-.17,1.41-.72.34-.18,1.4-.76.3-.17,1.43-.82.25-.15,1.48-.91.16-.1,1.6-1h0a76.53,76.53,0,0,0,13.5-11.48h0q.67-.72,1.32-1.45h0c11.89-13.43,19.11-30.14,19.11-49.49l-.45.14C209.32,111.19,207.76,112.55,207.53,112.55ZM53,64.17h0Z"/></g></g></svg>